<?xml version="1.0" encoding="UTF-8" standalone="no"?>
<!-- Created with Inkscape (http://www.inkscape.org/) -->

<svg
   version="1.1"
   id="svg1"
   width="130.5"
   height="56.714622"
   viewBox="0 0 130.5 56.714622"
   xmlns="http://www.w3.org/2000/svg"
   xmlns:svg="http://www.w3.org/2000/svg">
  <defs
     id="defs1" />
  <g
     id="g1"
     transform="translate(-10.347826,-4.8633566)">
    <path
       style="fill:#000000"
       d="m 10.347826,60.470457 c 0,-0.73157 1.715183,-4.450462 3.811517,-8.264206 2.096334,-3.813743 4.489428,-8.633731 5.317988,-10.711084 1.694965,-4.249595 3.223996,-4.842286 3.667003,-1.421424 1.389239,10.727603 5.650707,11.544929 46.564424,8.930809 9.823512,-0.627659 24.759452,-1.141198 33.190982,-1.141198 17.07167,0 17.56426,-0.198366 14.94062,-6.016566 -1.45024,-3.216057 -2.20488,-3.829414 -4.62679,-3.760554 -1.59165,0.04525 -3.13817,-0.161977 -3.43671,-0.460514 -0.29853,-0.298537 -3.00644,0.100554 -6.01758,0.886869 -3.01112,0.786315 -5.98206,1.116145 -6.60207,0.732955 -2.88389,-1.78234 -16.29909,-1.038807 -20.809384,1.153353 -9.919396,4.821172 -22,7.92989 -22,5.66129 0,-0.441741 3.2625,-1.844982 7.25,-3.118311 3.9875,-1.27333 10.756289,-3.908116 15.041753,-5.855081 5.904208,-2.68239 8.072337,-3.259351 8.95,-2.381688 1.610511,1.610511 5.994021,1.447153 8.317121,-0.30995 2.53246,-1.915455 5.44113,-1.932456 5.44113,-0.0318 0,1.95014 3.28488,1.92116 7.12149,-0.06283 2.40233,-1.242289 3.32379,-1.312512 4.49273,-0.342382 2.42861,2.015568 3.7579,-0.462912 3.98494,-7.42999 0.38694,-11.873618 6.68805,-21.6647982 13.94238,-21.6647982 9.33213,0 7.19914,13.6853812 -4.02204,25.8055932 -6.25501,6.756154 -6.26876,6.805405 -3.44654,12.337415 2.07295,4.063332 2.07295,4.063332 10.75,3.710162 7.20322,-0.293183 8.67704,-0.09839 8.67704,1.14683 0,1.20183 -1.22661,1.443786 -6.17071,1.217204 -3.84371,-0.176152 -6.43748,0.148838 -6.87812,0.861803 -1.00242,1.621954 1.59527,2.947443 4.39786,2.244037 2.55459,-0.641161 4.32212,1.067378 3.45146,3.336272 -0.80485,2.097413 -4.67723,1.578435 -8.40261,-1.12612 -1.86883,-1.356742 -4.29788,-3.094321 -5.39788,-3.861286 -1.70814,-1.190989 -6.30488,-1.19567 -31.500004,-0.03208 -61.415451,2.83636 -59.668607,2.813356 -64.037417,0.843297 -2.179421,-0.982782 -3.962583,-2.168532 -3.962583,-2.635001 0,-2.807963 -3.092815,0.0711 -6.051909,5.633637 -3.307076,6.216682 -5.948091,8.936398 -5.948091,6.12534 z M 122.1417,29.295179 c 6.18945,-4.335258 11.95367,-17.284289 9.00613,-20.2318252 -4.1022,-4.1022 -11.2108,3.4896562 -13.19659,14.0937132 -1.25516,6.702525 0.24578,8.901075 4.19046,6.138112 z"
       id="path1" />
  </g>
</svg>
