<?xml version="1.0" encoding="UTF-8"?>
<svg version="1.1" xmlns="http://www.w3.org/2000/svg" width="119" height="61" >
<path d="M24.341,39.912c3.387-5.181,6.578-10.781,8.384-16.726c1.115-3.67,0.488-9.051-4.507-7.142 c-6.359,2.431-11.752,9.062-16.011,14.058C7.23,35.94,2.022,42.837,0.281,50.455c-0.968,4.237,0.486,9.32,5.546,6.865 c5.194-2.52,10.015-8.958,12.7-13.943c0.488-0.906,1.097-2.705-0.355-3.104c-1.692-0.465-3.143,2.511-3.713,3.582 c-3.502,6.576,2.578,8.539,8.06,7.385c6.837-1.438,16.878-7.427,18.263-14.899c0.889-4.796-3.806-4.091-6.518-2.519 c-4.021,2.332-8.531,7.063-9.062,11.885c-0.8,7.265,7.685,8.813,13.167,9.261c1.447,0.118,1.436-2.133,0-2.25 c-3.564-0.291-8.596-0.707-10.608-4.198c-1.4-2.43,0.658-5.68,2.031-7.604c1.466-2.054,3.488-3.809,5.607-5.151 c4.395-2.783,3.127,1.664,1.115,4.257c-2.635,3.397-6.577,5.776-10.4,7.596c-3.649,1.737-12.967,3.482-9.377-3.257 c0.219-0.384,0.457-0.755,0.716-1.113c0.663-0.971-0.376-2.039-0.869-1.006c-0.56,1.173-1.368,2.248-2.12,3.301 c-2.023,2.835-4.389,5.466-6.968,7.803c-1.062,0.962-2.259,1.874-3.612,2.382c-1.883,0.707-1.661-2.517-1.604-3.556 c0.192-3.514,2.233-6.994,3.947-9.959c3.933-6.807,9.245-12.939,14.945-18.32c2.106-1.988,4.36-3.863,6.885-5.296 c3.916-2.223,3.005,2.318,2.234,4.855c-1.644,5.411-4.811,10.608-7.894,15.324C21.602,39.994,23.551,41.121,24.341,39.912 L24.341,39.912 M43.415,57.889c6.084-6.332,11.759-13.092,17.167-20.004C69.037,27.08,77.957,14.958,81.205,1.393 c0.338-1.413-1.74-1.982-2.17-0.598c-1.036,3.339-1.918,7.322-0.387,10.617c0.861,1.852,2.343,3.162,3.043,5.168 c1.473,4.22-1.349,8.624-3.275,12.187c-3.061,5.66-6.089,11.338-8.951,17.102c-2.049,4.127-4.752,8.793-5.43,13.426 c-0.167,1.141,1.507,2.142,2.056,0.867c1.663-3.86,3.453-8.034,3.967-12.229c0.124-1.011-0.586-6.826-2.777-4.04 c-1.818,2.313,0.449,6.09,2.5,7.313c3.523,2.102,9.448-0.917,11.884-3.566c-0.627-0.365-1.254-0.729-1.881-1.094 c-0.884,2.214-2.113,7.424,1.835,7.424c4.019,0,5.737-7.021,5.348-10.091c-0.116-0.916-1.163-1.563-1.921-0.795 c-1.452,1.471-0.525,4.975,0.488,6.395c0.84,1.176,2.241,1.241,3.547,1.261c0.857,0.014,1.717-0.448,2.476-0.784 c1.537-0.679,1.344-0.087,2.618,0.484c4.259,1.909,9.242-0.783,12.598-3.419c1.704-1.34,3.271-6.463,0.116-7.258 c-3.537-0.891-6.841,4.55-7.298,7.461c-1.28,8.169,13.578,6.199,17.528,5.747c1.424-0.163,1.44-2.415,0-2.25 c-5.074,0.581-20.622,1.562-13.15-7.174c0.475-0.555,1.012-1.093,1.605-1.52c0.064-0.041,0.13-0.082,0.194-0.123 c0.445,2.605-0.523,4.298-2.906,5.079c-2.328,1.39-6.263,2.866-8.503,0.475c-0.609-0.65-1.803-0.57-2.521-0.202 c-2.37,1.213-7.14-0.616-5.201-2.58c-0.64-0.265-1.28-0.53-1.92-0.795c0.199,1.57-0.403,3.365-0.839,4.855 c-0.571,1.954-2.983,2.251-2.519,0.213c0.139-0.613,0.361-1.22,0.595-1.803c0.425-1.063-1.152-1.887-1.881-1.094 c-1.42,1.545-3.259,2.43-5.231,3.071c-2.212,0.718-4.798,0.412-5.647-2.03c-0.15-0.517-0.207-1.041-0.171-1.573 c-0.909,0.23-1.279,0.749-1.11,1.556c-0.161,3.98-2.207,8.336-3.765,11.954c0.685,0.289,1.371,0.578,2.056,0.867 c0.716-4.896,3.61-9.682,5.78-14.051c2.831-5.701,5.865-11.301,8.893-16.899c2.292-4.238,4.751-9.298,2.563-14.106 c-1.039-2.285-3.126-4.089-3.356-6.676c-0.196-2.209,0.465-4.659,1.12-6.768c-0.724-0.199-1.446-0.398-2.17-0.598 c-3.25,13.575-12.345,25.66-20.801,36.467c-5.154,6.586-10.612,13.003-16.41,19.036C40.819,57.344,42.408,58.937,43.415,57.889 L43.415,57.889z"/>
</svg>