<?xml version="1.0" encoding="UTF-8" standalone="no"?>
<svg
   xmlns:dc="http://purl.org/dc/elements/1.1/"
   xmlns:cc="http://creativecommons.org/ns#"
   xmlns:rdf="http://www.w3.org/1999/02/22-rdf-syntax-ns#"
   xmlns:svg="http://www.w3.org/2000/svg"
   xmlns="http://www.w3.org/2000/svg"
   xmlns:sodipodi="http://sodipodi.sourceforge.net/DTD/sodipodi-0.dtd"
   xmlns:inkscape="http://www.inkscape.org/namespaces/inkscape"
   inkscape:version="1.0 (4035a4fb49, 2020-05-01)"
   sodipodi:docname="Firma de Alberto Fernández.svg"
   viewBox="0 0 256 76.432503"
   height="76.432503"
   width="256"
   id="svg10"
   version="1.1">
  <metadata
     id="metadata16">
    <rdf:RDF>
      <cc:Work
         rdf:about="">
        <dc:format>image/svg+xml</dc:format>
        <dc:type
           rdf:resource="http://purl.org/dc/dcmitype/StillImage" />
        <dc:title></dc:title>
      </cc:Work>
    </rdf:RDF>
  </metadata>
  <defs
     id="defs14" />
  <sodipodi:namedview
     inkscape:current-layer="g18"
     inkscape:window-maximized="1"
     inkscape:window-y="-8"
     inkscape:window-x="-8"
     inkscape:cy="-50.755148"
     inkscape:cx="50.591237"
     inkscape:zoom="0.94191391"
     showgrid="false"
     id="namedview12"
     inkscape:window-height="705"
     inkscape:window-width="1366"
     inkscape:pageshadow="2"
     inkscape:pageopacity="0"
     guidetolerance="10"
     gridtolerance="10"
     objecttolerance="10"
     borderopacity="1"
     bordercolor="#666666"
     pagecolor="#ffffff" />
  <g
     transform="translate(-38.964823,-100.90927)"
     id="g18"
     inkscape:label="Image"
     inkscape:groupmode="layer">
    <path
       id="path22"
       d="m 261.46203,177.02246 c 0,-0.16154 0.82691,-1.29683 1.83757,-2.52286 1.65778,-2.01105 4.26512,-6.09133 5.84619,-9.14881 l 0.59629,-1.1531 -5.3414,0.27451 c -4.32259,0.22215 -5.34138,0.14961 -5.34138,-0.38032 0,-1.0389 0.47918,-1.13708 6.15634,-1.26152 l 5.36495,-0.11758 1.38966,-3.39045 c 3.73103,-9.10293 5.31149,-19.27827 4.29293,-27.6389 -0.51803,-4.2521 -1.78064,-6.73194 -4.32552,-8.49554 -1.87467,-1.29915 -5.85695,-2.57621 -8.03345,-2.57621 -0.92729,0 -1.06449,-0.12826 -0.61646,-0.57629 0.43648,-0.43649 1.42531,-0.45398 4.0761,-0.0721 3.95291,0.56948 7.06897,2.23117 8.45363,4.50806 0.47593,0.7826 0.97385,1.31436 1.10651,1.1817 0.48282,-0.48282 1.40445,6.37528 1.42224,10.58329 0.01,2.37492 -0.25583,6.15612 -0.59082,8.40267 -0.33498,2.24656 -0.62403,4.66131 -0.64233,5.36611 -0.0183,0.7048 -0.11899,1.19575 -0.22374,1.091 -0.10478,-0.10478 -0.92274,2.01792 -1.81775,4.71704 -0.895,2.69913 -1.83647,5.11669 -2.09214,5.37236 -0.88155,0.88155 -0.4549,1.07628 2.53857,1.15862 8.88932,0.24453 18.27022,1.00054 19.12502,1.54131 0.53773,0.34017 0.4223,0.45598 -0.50384,0.50552 -0.66075,0.0354 -1.38657,0.031 -1.61295,-0.01 -0.22638,-0.0407 -4.81768,-0.16773 -10.20289,-0.28232 -11.30011,-0.24047 -10.77374,-0.42474 -13.59754,4.76012 -1.91483,3.51586 -2.36246,4.1566 -4.57242,6.54515 -1.60567,1.73542 -2.69137,2.38822 -2.69137,1.61824 z M 154.10684,146.20772 c -0.67802,-0.67801 -0.0573,-1.56723 3.94732,-5.65541 3.84617,-3.92636 9.27504,-10.51351 13.46796,-16.34143 1.5278,-2.12354 1.56214,-2.2617 0.72083,-2.89963 -0.93498,-0.70893 -2.4707,-1.27275 -5.80902,-2.1327 -2.72806,-0.70274 -2.62567,-1.70352 0.24028,-2.34866 2.89614,-0.65193 7.62564,-1.46173 9.46981,-1.62145 1.29288,-0.11198 1.56207,-0.46882 2.99291,-3.96741 1.13787,-2.7822 1.57518,-4.60783 1.58277,-6.60753 0.01,-2.61203 -0.0536,-2.76313 -1.16251,-2.76313 -0.64515,0 -1.30666,-0.21625 -1.47,-0.48055 -0.45904,-0.74274 2.6155,-0.5767 3.37442,0.18222 2.29586,2.29586 0.21783,9.73707 -5.0018,17.91084 -1.46535,2.29469 -1.52918,2.55765 -0.87478,3.6041 2.66292,4.25826 0.40508,9.53995 -6.29336,14.72182 -3.77129,2.91744 -4.57195,3.42276 -10.18607,6.42889 -3.74055,2.00291 -4.6195,2.3493 -4.99876,1.97003 z m 8.12231,-5.2705 c 4.06858,-2.15171 9.3524,-6.29502 10.84364,-8.50304 1.78248,-2.63927 2.59113,-6.00899 1.83843,-7.66101 -0.32032,-0.703 -0.7352,-1.27821 -0.92196,-1.27821 -0.18675,0 -0.87735,0.81093 -1.53468,1.80205 -2.06067,3.10715 -9.55332,12.25985 -12.22902,14.93847 -1.40889,1.41041 -2.5616,2.64686 -2.5616,2.74766 0,0.26457 1.28702,-0.31221 4.56519,-2.04592 z m 12.64411,-21.74772 c 1.90345,-2.57455 1.54022,-2.83612 -2.7918,-2.01049 l -3.84327,0.73248 2.52177,1.27852 c 1.38697,0.70318 2.64328,1.31072 2.7918,1.35009 0.14852,0.0394 0.7432,-0.5684 1.3215,-1.3506 z M 60.842109,134.91973 c -1.052637,-0.22201 -2.133867,-0.63559 -2.402733,-0.9191 -0.346689,-0.36555 2.59e-4,-0.39614 1.193066,-0.1052 1.934344,0.47183 5.949417,0.48714 7.645905,0.0292 2.031982,-0.54855 4.607452,-2.55724 7.303775,-5.69642 1.441476,-1.67822 4.6532,-5.43002 7.137161,-8.33734 2.483964,-2.9073 4.963912,-5.66714 5.51099,-6.13297 0.939027,-0.79956 0.947628,-0.88321 0.153737,-1.49462 -0.462526,-0.3562 -0.840957,-0.89412 -0.840957,-1.19535 0,-0.72147 1.096338,-0.70079 1.831666,0.0345 0.455967,0.45597 1.31061,-0.14052 3.940482,-2.75025 1.847035,-1.83288 3.358238,-3.14433 3.358238,-2.91434 0,0.42079 -2.059733,3.02814 -4.678073,5.92181 -1.201376,1.3277 -1.384022,1.87109 -1.225351,3.64538 0.102562,1.14681 -0.13252,3.01098 -0.522402,4.14261 -0.389877,1.13163 -0.60966,2.31605 -0.488399,2.63205 0.121256,0.31599 -0.219653,0.97284 -0.757572,1.45965 -2.279689,2.06309 0.03556,2.07462 4.614147,0.0229 2.01608,-0.9034 2.5735,-1.42394 3.040682,-2.83952 0.314629,-0.95333 0.771527,-1.73332 1.015328,-1.73332 0.243805,0 0.457057,-0.27031 0.473901,-0.60068 0.01682,-0.33039 1.368082,-1.73598 3.00275,-3.12356 3.11345,-2.64282 5.22826,-3.26656 5.82274,-1.71736 0.65969,1.71909 -4.72296,7.59969 -8.553837,9.34516 -1.565803,0.71343 -1.406997,1.56845 0.32953,1.7742 1.610442,0.19082 6.863457,-2.55397 7.944847,-4.15128 3.0124,-4.4497 7.7999,-8.17843 8.42134,-6.55897 0.13896,0.36211 -0.11475,0.77793 -0.56379,0.92405 -1.00314,0.32642 -4.19182,3.31263 -5.23139,4.89923 -0.70925,1.08245 -0.70103,1.21434 0.11276,1.8094 0.83646,0.61164 0.82831,0.65754 -0.17316,0.97539 -0.57802,0.18346 -1.48342,0.19629 -2.01203,0.0285 -0.53073,-0.16845 -0.96108,-0.0863 -0.96108,0.18335 0,0.2686 -1.38246,1.14816 -3.07213,1.95456 -3.601109,1.71866 -6.261184,1.92176 -7.003499,0.53473 -0.488404,-0.91259 -0.56643,-0.90772 -3.852254,0.24027 -3.867844,1.35135 -4.742544,1.4351 -5.10565,0.48886 -0.21565,-0.56197 -0.553292,-0.51102 -1.907102,0.28774 -1.248355,0.73655 -1.645065,0.81092 -1.645065,0.30841 0,-0.3642 0.432492,-0.97392 0.961093,-1.35492 1.536077,-1.10713 1.142913,-1.2755 -1.743697,-0.7467 -2.377707,0.43556 -2.914068,0.75766 -4.43534,2.66342 -1.577308,1.97596 -4.801876,5.26038 -6.396686,6.51541 -0.351621,0.27671 -1.581248,0.87879 -2.732508,1.33797 -2.153951,0.8591 -4.174332,0.91641 -7.509433,0.21303 z m 25.255925,-13.12864 c 0.76711,-0.47409 1.784452,-2.79275 1.889005,-4.3053 0.191824,-2.775 0.04841,-2.9415 -1.23971,-1.4393 -0.679907,0.7929 -2.193364,2.49864 -3.36324,3.79053 -1.169877,1.29188 -2.127049,2.50738 -2.127049,2.70109 0,0.36668 4.050259,-0.25832 4.840994,-0.74702 z m 16.273606,-4.60557 c 3.67338,-3.73178 2.96699,-4.45046 -1.21718,-1.23837 -1.732502,1.33 -4.03938,4.13432 -4.03938,4.9104 0,0.68832 3.08751,-1.4685 5.25656,-3.67203 z m 32.44831,11.00091 c -0.32166,-0.83822 8.29306,-13.90688 11.16787,-16.94183 0.31779,-0.33549 0.47313,-0.71465 0.34519,-0.84258 -0.19254,-0.19254 1.64299,-0.14287 2.10089,0.0569 0.0773,0.0338 -1.00775,1.52099 -2.41129,3.30501 -2.9722,3.77792 -5.17779,7.09989 -5.17779,7.79859 0,0.26996 -0.18793,0.49084 -0.41761,0.49084 -0.2297,0 -1.22723,1.29128 -2.21674,2.8695 -2.17093,3.46247 -3.00582,4.26612 -3.39052,3.26361 z m -89.163684,-1.48681 c -1.419672,-0.64215 -2.842957,-1.9593 -2.842957,-2.63094 0,-0.25083 -0.329595,-0.72957 -0.732433,-1.0639 -0.402838,-0.33433 -0.623001,-0.7173 -0.48925,-0.85104 0.452388,-0.4524 4.166916,2.46985 4.871562,3.83248 0.384847,0.74421 0.640107,1.33555 0.567245,1.31408 -0.07286,-0.0214 -0.691238,-0.29177 -1.374167,-0.60068 z m 65.500064,-0.58996 c -1.24898,-0.87482 -1.43616,-2.6147 -0.28128,-2.6147 0.43186,0 1.63392,-0.25428 2.67125,-0.56507 l 1.88606,-0.56507 -1.34976,-0.63531 -1.34976,-0.63529 1.68192,0.25449 c 2.75007,0.41613 3.446,0.30059 6.96793,-1.15687 1.8501,-0.76561 3.53309,-1.23677 3.73999,-1.04699 0.45693,0.41911 -0.0679,1.94738 -0.66891,1.94738 -0.5664,0 -3.83862,3.4773 -3.54681,3.7691 0.23693,0.23693 2.5707,-0.65462 6.91095,-2.64013 1.78838,-0.81811 2.74517,-1.03091 3.08904,-0.68703 0.34388,0.34388 0.17398,0.77936 -0.54853,1.40599 -0.57569,0.49929 -1.04672,1.1762 -1.04672,1.50422 0,0.39283 -0.40153,0.49564 -1.1763,0.30118 -0.6972,-0.17498 -2.17239,0.0974 -3.6219,0.66872 -1.34506,0.53018 -2.97058,0.96396 -3.61225,0.96396 -1.60749,0 -2.33245,-1.46436 -1.39065,-2.80898 0.39887,-0.56946 0.59788,-1.03539 0.44226,-1.03539 -0.77049,0 -3.61592,1.44981 -3.61592,1.8424 0,0.52634 -1.73831,1.72937 -3.13829,2.17192 -0.568,0.17955 -1.42154,-0.004 -2.04232,-0.43853 z m 109.99585,-2.75598 c 0.16299,-0.20421 -0.39694,-1.06689 -1.24427,-1.91706 -0.84734,-0.85017 -1.62943,-1.81479 -1.73799,-2.14361 -0.15451,-0.46809 -1.13613,-0.42778 -4.52228,0.18568 -5.04192,0.91344 -6.02198,0.92479 -6.54696,0.0758 -0.26677,-0.4314 -1.26993,-0.5747 -3.24135,-0.46302 -2.46026,0.13936 -2.89493,0.036 -3.1437,-0.74788 -0.27839,-0.87709 -0.41815,-0.86707 -3.91096,0.28064 -3.20583,1.05343 -3.70443,1.10811 -4.33689,0.47565 -0.63247,-0.63247 -1.07867,-0.53139 -3.88122,0.87912 -3.72885,1.87672 -3.97119,1.90188 -5.64393,0.58611 -1.02622,-0.80722 -1.42019,-0.89211 -1.98086,-0.42679 -0.73682,0.61151 -2.15377,0.33481 -2.15377,-0.42058 0,-0.24395 0.51593,-0.57303 1.14649,-0.73128 0.63056,-0.15827 1.65774,-0.86926 2.2826,-1.58 4.07279,-4.63247 6.68583,-6.25332 6.64712,-4.12314 -0.0197,1.08692 -0.76345,2.00297 -2.98813,3.68068 -1.85789,1.40109 -2.29307,2.5283 -1.14605,2.96845 1.03172,0.39591 6.78455,-3.01405 8.62273,-5.11109 1.44208,-1.64516 3.21548,-2.5247 3.21548,-1.59476 0,0.61792 -2.01577,3.54068 -2.44193,3.54068 -0.24275,0 -0.44135,0.21625 -0.44135,0.48055 0,1.46941 5.33488,-0.52906 8.11215,-3.03884 1.84849,-1.67046 2.16064,-1.80371 2.55881,-1.09222 0.34616,0.61854 0.10782,1.16391 -1.00693,2.30409 -0.80322,0.82157 -1.34724,1.67684 -1.20894,1.90063 0.65309,1.05673 5.28816,-0.0498 7.30017,-1.74284 1.71602,-1.44394 3.94714,-2.08421 3.94714,-1.13272 0,0.63891 -1.66967,2.39213 -2.00169,2.10187 -0.0884,-0.0773 -0.8095,0.48212 -1.6024,1.2431 l -1.44164,1.38363 2.40273,-0.27279 c 2.88592,-0.32765 6.58316,-1.51189 7.04299,-2.25592 0.40388,-0.65349 1.84713,0.38447 1.84713,1.32842 0,0.33481 0.42529,1.11926 0.9451,1.74322 l 0.94511,1.13447 0.016,-2.04233 c 0.016,-2.04594 0.61859,-2.7086 1.16594,-1.2822 0.68128,1.77538 0.29295,4.37587 -0.78954,5.28725 -0.59468,0.50067 -0.94788,0.74322 -0.78489,0.539 z m -77.78449,-1.17166 c -3.55787,-0.32046 -2.2049,-1.08967 1.9222,-1.09282 3.92299,-0.003 3.97331,-0.0185 4.80599,-1.48152 0.96134,-1.68905 2.1148,-1.63569 1.89274,0.0876 -0.33203,2.57662 -2.06692,3.07707 -8.62093,2.48676 z M 39.134761,120.83123 c -0.424665,-1.10666 -0.03948,-1.16738 0.999484,-0.15755 0.829743,0.80648 0.840565,0.89909 0.105056,0.89909 -0.450988,0 -0.948031,-0.33369 -1.104538,-0.74154 z m 192.510049,-0.74369 c -0.64803,-1.21084 0.23063,-3.80078 1.28944,-3.80078 0.56428,0 0.55823,0.26506 -0.0386,1.69369 -0.38923,0.93153 -0.58524,2.01276 -0.43559,2.40273 0.41133,1.07191 -0.20241,0.84932 -0.81517,-0.29564 z m 1.46497,0.78467 c 0,-0.12101 0.91904,-0.76077 2.04232,-1.42168 1.12328,-0.66091 2.32068,-1.65308 2.66088,-2.20481 0.80158,-1.29998 2.50181,-1.93415 3.61726,-1.34921 0.72229,0.37878 0.76693,0.58387 0.26002,1.19465 -0.33657,0.40555 -1.14262,0.93913 -1.79119,1.18571 -0.89114,0.33881 -1.04374,0.58384 -0.62463,1.00295 0.65217,0.65217 4.88932,-0.2657 6.71464,-1.45455 0.76273,-0.49678 1.26035,-0.56583 1.60364,-0.22254 0.3433,0.3433 0.33564,0.59793 -0.0247,0.82062 -0.72568,0.44849 -0.65231,1.07457 0.16256,1.38727 1.26168,0.48414 4.12262,-0.67473 5.79546,-2.34758 1.93854,-1.93854 3.265,-2.18964 3.04058,-0.5756 -0.16028,1.15258 -1.33973,2.34673 -1.9471,1.97136 -0.20112,-0.12432 -0.36569,0.003 -0.36569,0.28288 0,0.2799 0.21624,0.50891 0.48054,0.50891 0.26431,0 0.48055,0.21625 0.48055,0.48055 0,0.64402 -2.07638,0.61467 -2.72964,-0.0385 -0.37181,-0.37181 -1.16559,-0.29966 -2.7971,0.25426 -2.37182,0.80525 -4.31675,0.60296 -3.92857,-0.40862 0.15598,-0.40648 -0.53444,-0.32416 -2.24784,0.26799 -2.99271,1.0343 -4.63891,1.10058 -5.82342,0.23444 -0.74861,-0.5474 -1.08993,-0.54788 -2.13417,-0.003 -1.23182,0.64282 -2.4444,0.85838 -2.4444,0.43458 z m -7.68874,-3.62435 c 0,-0.2643 0.21624,-0.48055 0.48055,-0.48055 0.26429,0 0.48053,0.21625 0.48053,0.48055 0,0.2643 -0.21624,0.48055 -0.48053,0.48055 -0.26431,0 -0.48055,-0.21625 -0.48055,-0.48055 z m -0.9611,-7.49958 c 0,-1.38114 1.09859,-3.54486 1.80205,-3.54925 0.94087,-0.006 0.70939,1.10384 -0.60068,2.87953 -0.97654,1.32363 -1.20137,1.44896 -1.20137,0.66972 z M 96.153986,104.782 c 0,-0.2487 0.216246,-0.58583 0.480546,-0.74918 0.264301,-0.16335 0.480548,0.0401 0.480548,0.4522 0,0.41204 -0.216247,0.74917 -0.480548,0.74917 -0.2643,0 -0.480546,-0.20349 -0.480546,-0.45219 z m 3.123553,-3.39218 c 0.163348,-0.2643 0.513239,-0.48055 0.777541,-0.48055 0.2643,0 0.3469,0.21625 0.18355,0.48055 -0.16335,0.2643 -0.513236,0.48055 -0.777536,0.48055 -0.264301,0 -0.346902,-0.21625 -0.183555,-0.48055 z"
       style="fill:#000000;fill-opacity:1;stroke-width:0.480546" />
  </g>
</svg>
