<?xml version="1.0" encoding="UTF-8" standalone="no"?>
<!-- Created with Inkscape (http://www.inkscape.org/) -->

<svg
   xmlns:dc="http://purl.org/dc/elements/1.1/"
   xmlns:cc="http://creativecommons.org/ns#"
   xmlns:rdf="http://www.w3.org/1999/02/22-rdf-syntax-ns#"
   xmlns:svg="http://www.w3.org/2000/svg"
   xmlns="http://www.w3.org/2000/svg"
   xmlns:sodipodi="http://sodipodi.sourceforge.net/DTD/sodipodi-0.dtd"
   xmlns:inkscape="http://www.inkscape.org/namespaces/inkscape"
   id="svg2"
   version="1.1"
   inkscape:version="0.91 r13725"
   width="225.5"
   height="121.5"
   viewBox="0 0 225.5 121.5"
   sodipodi:docname="toplogo.svg">
  <metadata
     id="metadata8">
    <rdf:RDF>
      <cc:Work
         rdf:about="">
        <dc:format>image/svg+xml</dc:format>
        <dc:type
           rdf:resource="http://purl.org/dc/dcmitype/StillImage" />
        <dc:title />
      </cc:Work>
    </rdf:RDF>
  </metadata>
  <defs
     id="defs6" />
  <sodipodi:namedview
     pagecolor="#ffffff"
     bordercolor="#666666"
     borderopacity="1"
     objecttolerance="10"
     gridtolerance="10"
     guidetolerance="10"
     inkscape:pageopacity="0"
     inkscape:pageshadow="2"
     inkscape:window-width="1680"
     inkscape:window-height="987"
     id="namedview4"
     showgrid="false"
     inkscape:zoom="11.313708"
     inkscape:cx="217.83948"
     inkscape:cy="80.778284"
     inkscape:window-x="-8"
     inkscape:window-y="-8"
     inkscape:window-maximized="1"
     inkscape:current-layer="g4150"
     showguides="false" />
  <g
     id="g4150"
     transform="matrix(0.67431326,0,0,0.67431326,0.031058,-0.49696533)">
    <g
       id="g4154">
      <g
         id="g4162">
        <path
           sodipodi:nodetypes="csccccccscccccccccccccccccccccccccc"
           inkscape:connector-curvature="0"
           id="path4138"
           d="M 2.2108872,176.35447 C 1.5783131,176.36982 24.19063,153.91314 46.50509,134.75785 71.174373,113.58111 91.817603,92.569946 91.90974,92.18283 106.79737,76.172306 119.1332,60.586595 130.75819,43.22747 c 9.38532,-12.693262 15.77907,-26.025746 18.39774,-39.006367 -0.63163,-4.67744408 -22.15775,27.956552 -28.10986,38.216765 -4.4803,7.761518 -7.82547,15.06898 -11.29131,22.424713 -3.56468,7.901241 -7.34474,22.107832 -6.51893,22.475752 0.62752,0.736595 1.25984,0.391739 2.78151,-0.212692 1.32189,-0.525075 4.68155,-4.663419 6.93349,-7.715641 0.50688,-0.715884 1.50741,-1.434461 2.40084,-1.5075 0.50248,-0.08689 1.91678,1.21752 1.96614,1.5075 0.12305,0.585037 0.1031,2.903333 0.32244,4.355 -0.026,0.527259 0.48478,1.276113 1.17308,0.725833 0.92944,-0.894121 0.54235,-0.96828 0.67001,-1.116667 0.29296,-1.479473 0.34032,-2.795214 0.41874,-4.131666 -0.0117,-0.266533 1.96361,-1.184953 2.48459,-1.284167 0.65884,-0.122824 2.15398,-0.153161 2.56833,0.223333 0.12676,0.04632 0.78147,2.121123 1.28417,3.1825 L 127.18833,84.1 c 0.0694,0.246803 0.69517,0.43899 1.04313,0.542125 0.55151,0.209041 1.05678,-2.131927 1.78058,-3.19789 0.65643,-1.071984 2.62031,-2.1448 4.06248,-2.645169 0.53326,-0.138587 2.54412,0.05358 2.92153,0.315841 0.77906,0.407089 1.316,0.685508 1.974,1.132949 0.53744,0.355847 2.11352,0.211698 2.32933,0.210538 0.72421,-0.08825 1.26982,-0.359625 1.89505,-0.711805 0.79261,-0.407961 1.84216,-0.815923 2.76361,-1.223884 0.21689,-0.15408 0.41139,1.288061 0.70106,1.934526 0.15776,0.703518 0.001,2.469752 -0.26678,3.118931 -3.50946,8.009889 -6.60009,16.019779 -10.40825,24.029668 -2.22893,4.93195 -4.31909,9.86389 -6.45074,14.79584 -5.31723,11.72611 -11.27445,23.32422 -17.64333,34.84 l -11.11083,21.105 0,0"
           style="fill:none;fill-rule:evenodd;stroke:#000000;stroke-width:3.4000001;stroke-linecap:round;stroke-linejoin:miter;stroke-miterlimit:4;stroke-dasharray:none;stroke-opacity:1" />
        <path
           sodipodi:nodetypes="cc"
           inkscape:connector-curvature="0"
           id="path4140"
           d="m 176.45339,21.202264 c -1.19473,1.552014 -0.85606,3.432922 -0.62928,5.273787"
           style="fill:none;fill-rule:evenodd;stroke:#000000;stroke-width:3.4000001;stroke-linecap:round;stroke-linejoin:miter;stroke-miterlimit:4;stroke-dasharray:none;stroke-opacity:1" />
        <path
           sodipodi:nodetypes="ccsccccccccc"
           inkscape:connector-curvature="0"
           id="path4142"
           d="m 140.0755,156.14064 c 24.25475,-12.21871 52.309,-28.17386 67.46873,-39.16429 15.27173,-11.60209 24.6236,-19.844515 31.06958,-26.169644 8.59838,-8.437176 13.50096,-13.187043 21.6392,-22.469874 7.90994,-9.001469 15.46509,-18.002939 20.0559,-27.004408 2.82164,-6.219342 5.70387,-12.419404 5.33442,-19.654091 C 285.2746,13.439451 280.95222,8.9385541 274.81167,6.1566664 266.27014,3.0569651 257.78796,2.7467182 249.35167,4.5933331 238.91326,7.5943057 230.39342,12.258037 223.11,17.993333 c -4.7142,4.133515 -9.51596,8.004338 -13.62333,13.958333 -0.76128,1.406028 -0.81113,3.070058 -0.53042,4.997083 0.31099,1.14448 2.98709,5.239028 4.55042,7.844584"
           style="fill:none;fill-rule:evenodd;stroke:#000000;stroke-width:3.4000001;stroke-linecap:round;stroke-linejoin:round;stroke-miterlimit:4;stroke-dasharray:none;stroke-opacity:1" />
        <path
           sodipodi:nodetypes="cccc"
           inkscape:connector-curvature="0"
           id="path4144"
           d="m 235.95167,39.545 -11.80875,31.49 c -0.64509,2.42771 -0.6712,5.303151 0.19541,7.146667 0.22297,0.574028 1.32246,1.774137 2.01,2.68"
           style="fill:none;fill-rule:evenodd;stroke:#000000;stroke-width:3.4000001;stroke-linecap:round;stroke-linejoin:round;stroke-miterlimit:4;stroke-dasharray:none;stroke-opacity:1" />
        <path
           style="fill:none;fill-rule:evenodd;stroke:#000000;stroke-width:2.29266524;stroke-linecap:round;stroke-linejoin:round;stroke-miterlimit:4;stroke-dasharray:none;stroke-opacity:1"
           d="m 217.89062,46.703125 c 1.07096,0.378077 3.74163,2.548663 6.27149,5.322266 m -2.28187,-26.358876 c -0.22549,-1.286182 -0.26755,-2.835793 -1.41926,-2.77784 -0.79793,0.149606 -1.4322,0.602622 -1.62305,0.890625 -0.006,0.0014 -10.71997,14.396519 -11.63023,18.026288 -0.2713,1.081804 0.79156,-1.933906 0.82164,-1.918866 -0.0396,0.102212 -0.0791,0.196398 -0.11914,0.296875 0.005,-0.05254 0.0204,-0.111294 0.0195,-0.160156 -0.65378,0.08557 -1.40085,0.08668 -2.27735,0.216796 -0.69208,0.06423 -1.20864,0.163386 -2.61718,0.800782 -1.22871,0.57168 -3.05988,1.434816 -4.89454,3.085937 -0.26709,0.238022 -0.58996,0.486594 -0.88671,0.728516 l 0.28515,0.04883 -0.01,4.318359 c -0.0387,0.940802 0.14282,1.698389 0.6875,2.435547 0.2275,0.419414 0.73733,0.442301 1.20508,0.525391 0.40385,0.01056 0.77369,-0.129975 1.05273,-0.414063 1.12129,-1.259421 2.27751,-2.405073 3.27539,-4.066406 0,0 2.705,-4.275242 2.6582,-4.341797 0.11275,-0.182758 1.13065,-2.451376 1.46485,-3.058594 -0.34771,1.005756 -1.25463,3.762271 -1.12696,4.96875 0.11179,0.878448 0.11259,0.845977 0.16602,1.027344 0.034,0.115395 0.0681,0.360972 0.31641,0.869141 0.22685,0.359999 0.3634,0.617167 0.82226,0.662109 0.52362,-0.09901 0.97132,-0.07506 1.86719,-0.783203 0.38838,-0.354231 0.70192,-0.698805 0.99414,-1.041016 -0.0297,0.0016 -0.0581,0.0022 -0.0879,0.0039 2.1974,-2.613116 2.18194,-2.769954 3.27344,-4.154297 l -1.54297,2.103515 c -0.58649,0.687195 -1.05574,1.359636 -1.64258,2.046875 1.57656,-0.08719 3.05745,-0.01572 4.49023,0.136719 0.7436,0.0071 1.4702,0.279005 2.48828,0.560547 m -31.57226,-3.742187 c -0.75662,1.519285 -1.70283,3.480973 -1.9082,5.36914 -0.0802,0.956105 0.0132,1.226459 0.4414,1.896484 0.28865,0.449371 0.57659,0.529639 0.86524,0.337891 0.79242,-0.539638 1.05075,-1.077549 1.55273,-1.617187 l 2.99414,-3.257813 c -1.8e-4,-3e-5 0.15064,1.948329 0.27149,2.039063 0.44392,0.182273 1.34656,0.150408 1.59375,0.146484 1.32094,-0.120038 1.89048,-0.344806 2.09179,-0.464844 0.95643,-0.911814 2.03817,-1.743519 3.03321,-2.554687"
           id="path4146"
           inkscape:connector-curvature="0"
           sodipodi:nodetypes="cccccsccccccccccccccccccccccccccccccccccccc"
           transform="matrix(1.4829903,0,0,1.4829903,-0.04605871,0.73699475)" />
      </g>
    </g>
    <path
       style="fill:none;fill-rule:evenodd;stroke:#000000;stroke-width:3.40049672;stroke-linecap:butt;stroke-linejoin:miter;stroke-miterlimit:4;stroke-dasharray:none;stroke-opacity:1"
       d="m 317.49297,45.728649 c -0.047,0.06622 -0.1595,0.181667 -0.20644,0.248021 -3.10984,4.395885 -6.10586,9.076332 -9.10017,13.761052 l -3.93237,9.372153"
       id="path4141"
       inkscape:connector-curvature="0"
       sodipodi:nodetypes="cscc" />
  </g>
</svg>
