<?xml version="1.0" encoding="UTF-8" standalone="no"?>
<!-- Created with Inkscape (http://www.inkscape.org/) -->

<svg
   xmlns:dc="http://purl.org/dc/elements/1.1/"
   xmlns:cc="http://creativecommons.org/ns#"
   xmlns:rdf="http://www.w3.org/1999/02/22-rdf-syntax-ns#"
   xmlns:svg="http://www.w3.org/2000/svg"
   xmlns="http://www.w3.org/2000/svg"
   xmlns:sodipodi="http://sodipodi.sourceforge.net/DTD/sodipodi-0.dtd"
   xmlns:inkscape="http://www.inkscape.org/namespaces/inkscape"
   width="200"
   height="120"
   viewBox="0 0 52.916668 31.75"
   version="1.1"
   id="svg8"
   inkscape:version="0.92.1 r15371"
   sodipodi:docname="Anthony Albanese signature.svg">
  <defs
     id="defs2">
    <inkscape:path-effect
       effect="spiro"
       id="path-effect4502"
       is_visible="true" />
    <inkscape:path-effect
       effect="spiro"
       id="path-effect4498"
       is_visible="true" />
  </defs>
  <sodipodi:namedview
     id="base"
     pagecolor="#ffffff"
     bordercolor="#666666"
     borderopacity="1.0"
     inkscape:pageopacity="0.0"
     inkscape:pageshadow="2"
     inkscape:zoom="2.8"
     inkscape:cx="106.33488"
     inkscape:cy="64.382743"
     inkscape:document-units="mm"
     inkscape:current-layer="layer1"
     showgrid="false"
     units="px"
     inkscape:window-width="1920"
     inkscape:window-height="1017"
     inkscape:window-x="-8"
     inkscape:window-y="-8"
     inkscape:window-maximized="1" />
  <metadata
     id="metadata5">
    <rdf:RDF>
      <cc:Work
         rdf:about="">
        <dc:format>image/svg+xml</dc:format>
        <dc:type
           rdf:resource="http://purl.org/dc/dcmitype/StillImage" />
        <dc:title />
      </cc:Work>
    </rdf:RDF>
  </metadata>
  <g
     inkscape:label="Layer 1"
     inkscape:groupmode="layer"
     id="layer1"
     transform="translate(-47.551411,-109.87374)">
    <path
       style="fill:none;stroke:#000000;stroke-width:0.3;stroke-linecap:round;stroke-linejoin:round;stroke-miterlimit:4;stroke-dasharray:none;stroke-opacity:1"
       d="m 66.314848,127.56498 c -0.23136,-0.37637 -0.30129,-0.84839 -0.18899,-1.27567 0.06111,-0.23252 0.172325,-0.44829 0.283483,-0.66146 2.212665,-4.24334 4.741821,-8.32161 7.559524,-12.18973 -3.522028,5.35937 -7.324455,10.53446 -11.386534,15.49702 -3.080665,3.76359 -6.323724,7.41798 -10.016368,10.58334 -0.283098,0.24267 -0.570273,0.48349 -0.889937,0.67545 -0.319663,0.19197 -0.675484,0.33453 -1.047192,0.36398 -0.263029,0.0208 -0.535731,-0.0176 -0.766703,-0.14516 -0.115486,-0.0638 -0.219407,-0.1494 -0.300261,-0.25365 -0.08085,-0.10424 -0.138269,-0.22727 -0.161456,-0.35714 -0.02593,-0.14524 -0.0089,-0.29561 0.02975,-0.43799 0.03866,-0.14239 0.09844,-0.27803 0.159233,-0.41246 1.491933,-3.29935 3.719628,-6.23131 6.283854,-8.78794 3.277794,-3.26808 7.094628,-5.93709 10.914063,-8.55171 1.06221,-0.72714 2.141443,-1.45928 3.354538,-1.88989 0.318709,-0.11313 0.660083,-0.20562 0.992187,-0.14174 0.05289,0.0102 0.105296,0.0244 0.154196,0.0469 0.0489,0.0226 0.09433,0.0538 0.129287,0.0948 0.05994,0.0703 0.0855,0.16858 0.06739,0.25916 -0.01811,0.0906 -0.07952,0.17149 -0.161881,0.21331"
       id="path4496"
       inkscape:connector-curvature="0"
       inkscape:path-effect="#path-effect4498"
       inkscape:original-d="m 66.314848,127.56498 c -0.06273,-0.40974 -0.125728,-0.85071 -0.18899,-1.27567 -0.06326,-0.42496 0.189254,-0.44124 0.283483,-0.66146 0.09423,-0.22022 7.559524,-12.18973 7.559524,-12.18973 0,0 -7.590758,10.33109 -11.386534,15.49702 -3.795773,5.16594 -6.677313,7.05529 -10.016368,10.58334 -3.339055,3.52804 -1.291154,0.69269 -1.937129,1.03943 -0.645972,0.34674 -0.818681,-0.50423 -1.22842,-0.75595 -0.409739,-0.25172 -0.850446,1.70089 0.188986,-0.85045 1.126741,-2.76565 3.858774,-6.23687 6.283854,-8.78794 2.480878,-2.60977 7.276306,-5.70141 10.914063,-8.55171 3.637756,-2.85031 2.236623,-1.26019 3.354538,-1.88989 1.117915,-0.62969 0.661723,-0.0947 0.992187,-0.14174 0.330465,-0.047 0.189254,0.0942 0.283483,0.14174 0.09423,0.0475 -0.06273,0.31472 -0.09449,0.47247"
       sodipodi:nodetypes="cccccccsssccccc" />
    <path
       style="fill:none;stroke:#000000;stroke-width:0.30000001;stroke-linecap:round;stroke-linejoin:round;stroke-miterlimit:4;stroke-dasharray:none;stroke-opacity:1"
       d="m 70.283598,128.0847 c -0.187886,-0.11426 -0.327164,-0.30577 -0.377976,-0.51972 -0.05165,-0.21747 -0.01399,-0.44649 0.04725,-0.66146 0.170454,-0.59838 0.515931,-1.12903 0.850445,-1.65364 1.480191,-2.32135 2.837168,-4.72188 4.393975,-6.99256 1.810392,-2.64054 3.887461,-5.09815 6.189358,-7.32329 -0.409105,0.8033 -0.900739,1.56454 -1.464656,2.26785 -0.760042,0.94792 -1.646211,1.78546 -2.504093,2.64584 -2.116476,2.12264 -4.073269,4.39824 -6.142112,6.56733 -1.645209,1.72493 -3.361359,3.3826 -4.960937,5.14993 -0.897951,0.99212 -1.758883,2.01849 -2.69308,2.97656 -0.879453,0.90192 -1.825736,1.74554 -2.598587,2.74033 -0.176049,0.22661 -0.352872,0.46923 -0.610759,0.59508 -0.128944,0.0629 -0.276655,0.093 -0.417845,0.0675 -0.07059,-0.0128 -0.138902,-0.0393 -0.198255,-0.0796 -0.05935,-0.0403 -0.109584,-0.0944 -0.143304,-0.15774 -0.04557,-0.0856 -0.05983,-0.18518 -0.05478,-0.28198 0.005,-0.0968 0.02851,-0.19167 0.05478,-0.28498 0.325181,-1.15469 1.083439,-2.13571 1.889879,-3.02381 2.054899,-2.26297 4.513658,-4.11739 6.992559,-5.90588 4.152387,-2.99588 8.407981,-5.8487 12.756697,-8.55171 -1.187346,1.48276 -2.337505,2.9953 -3.449031,4.53571 -0.947712,1.31339 -1.869373,2.64965 -2.929316,3.87426 -0.157268,0.1817 -0.318116,0.36165 -0.449497,0.56287 -0.13138,0.20121 -0.233239,0.42665 -0.259208,0.66555 -0.0053,0.0486 -0.0074,0.0978 -0.0011,0.14633 0.0063,0.0485 0.02137,0.0964 0.04832,0.13716 0.0337,0.051 0.08521,0.0891 0.142331,0.11089 0.05712,0.0217 0.119625,0.0276 0.180457,0.0216 0.121665,-0.012 0.23383,-0.0697 0.338671,-0.13254 0.365625,-0.21931 0.680436,-0.51236 0.992187,-0.8032 1.287028,-1.2007 2.573168,-2.40271 3.827008,-3.63803 2.128202,-2.09676 4.162535,-4.28879 6.094867,-6.56733 -0.83189,0.77384 -1.650988,1.56144 -2.456847,2.36235 -1.40641,1.39778 -2.783193,2.84982 -3.827007,4.53571 -0.282101,0.45563 -0.539111,0.92735 -0.755954,1.41741 -0.161117,0.36412 -0.301434,0.74478 -0.328351,1.14204 -0.01474,0.21759 0.0066,0.4429 0.103507,0.63827 0.04846,0.0977 0.115623,0.18668 0.199963,0.2558 0.08434,0.0691 0.186119,0.11791 0.293834,0.13488 0.122943,0.0194 0.249761,-0.003 0.366285,-0.0466 0.116523,-0.0437 0.224011,-0.10829 0.32858,-0.17578 0.583073,-0.37635 1.096822,-0.85493 1.540278,-1.38875 0.407201,-0.49017 0.756836,-1.02812 1.039434,-1.59928 0.26999,0.21822 0.574018,0.39423 0.897694,0.51972 0.911665,0.35345 1.978141,0.28235 2.83482,-0.18899 -0.326483,-0.13975 -0.684653,-0.20488 -1.039434,-0.18899 -0.538414,0.0241 -1.056012,0.23226 -1.511903,0.51972 -0.286388,0.18058 -0.56142,0.40385 -0.708705,0.7087 -0.04251,0.088 -0.07375,0.18214 -0.08446,0.27928 -0.01072,0.0971 -3.62e-4,0.19747 0.03721,0.28769 0.04869,0.11691 0.141771,0.21259 0.251749,0.27539 0.109979,0.0628 0.236105,0.0941 0.362462,0.10258 0.312613,0.021 0.618951,-0.0931 0.897695,-0.23623 0.754216,-0.38713 1.388281,-1.00451 1.795385,-1.74814 -0.222398,0.0448 -0.423216,0.18758 -0.538632,0.3829 -0.115416,0.19532 -0.143593,0.44009 -0.07558,0.65653 0.02472,0.0786 0.06213,0.15442 0.117893,0.21514 0.05576,0.0607 0.131013,0.10555 0.212837,0.11559 0.06469,0.008 0.13104,-0.006 0.189869,-0.0341 0.05883,-0.028 0.110462,-0.0697 0.155008,-0.11729 0.08909,-0.0951 0.149919,-0.21256 0.222085,-0.3211 0.306261,-0.46064 0.805158,-0.74856 1.27567,-1.03943 0.13515,-0.0836 0.276204,-0.17101 0.434548,-0.18416 0.07917,-0.007 0.16122,0.007 0.230061,0.0464 0.06884,0.0397 0.123125,0.10711 0.138592,0.18503 0.0094,0.0473 0.0045,0.0968 -0.01025,0.14262 -0.01475,0.0459 -0.03911,0.0883 -0.06824,0.12664 -0.05825,0.0768 -0.134696,0.1373 -0.204992,0.2032 -0.277538,0.2602 -0.463845,0.61588 -0.519718,0.99219 0.239118,-0.58147 0.594662,-1.11478 1.039434,-1.55915 0.445353,-0.44495 0.992445,-0.80574 1.606399,-0.94494 0.07586,-0.0172 0.154067,-0.031 0.23115,-0.0206 0.03854,0.005 0.07647,0.0166 0.110346,0.0357 0.03387,0.0191 0.06359,0.0461 0.08373,0.0794 0.0239,0.0395 0.03359,0.0868 0.03091,0.13287 -0.0027,0.0461 -0.01731,0.091 -0.03894,0.1318 -0.04327,0.0816 -0.112825,0.1455 -0.180961,0.20781 -0.168661,0.15425 -0.3375,0.30971 -0.481737,0.48701 -0.144236,0.1773 -0.264001,0.37845 -0.321464,0.59967 -0.02138,0.0823 -0.03402,0.16826 -0.02219,0.25247 0.01183,0.0842 0.05024,0.16694 0.116687,0.22 0.03928,0.0314 0.08702,0.0514 0.136432,0.0607 0.04941,0.009 0.100467,0.008 0.150029,-3.7e-4 0.09912,-0.0169 0.19105,-0.0616 0.280501,-0.10752 0.705874,-0.36229 1.356511,-0.82943 1.937129,-1.37016 0.811003,-0.75529 1.486376,-1.65579 1.984375,-2.64584 l -1.708998,1.50855 c -0.290137,0.25611 -0.596525,0.51197 -0.775201,0.85526 -0.08934,0.17164 -0.141848,0.36687 -0.120831,0.55923 0.01051,0.0962 0.03955,0.19072 0.08847,0.27419 0.04892,0.0835 0.117998,0.15562 0.20146,0.20456 0.113811,0.0667 0.250742,0.0881 0.381979,0.0746 0.131237,-0.0135 0.257332,-0.0603 0.373975,-0.12194 0.233553,-0.12343 0.43155,-0.30564 0.60471,-0.50513 0.17316,-0.19949 0.323642,-0.41734 0.481971,-0.6288 0.589368,-0.78713 1.291742,-1.4895 2.078868,-2.07887 -0.327609,0.12071 -0.585312,0.41523 -0.661458,0.75596 -0.04139,0.18521 -0.03187,0.37751 -0.0225,0.56706 0.0094,0.18955 0.01811,0.38198 -0.02475,0.56686 -0.06787,0.29272 -0.265833,0.54797 -0.519716,0.70871 -0.36113,0.22864 -0.836571,0.26521 -1.228423,0.0945 0.382215,0.0383 0.772896,-0.0106 1.133927,-0.14175 0.685135,-0.24895 1.227281,-0.77165 1.795389,-1.22842 0.696375,-0.5599 1.459421,-1.03681 2.267857,-1.41741 -0.56964,0.10501 -1.126349,0.27998 -1.653646,0.51972 -0.146309,0.0665 -0.291495,0.1387 -0.418453,0.23726 -0.126959,0.0986 -0.23572,0.22576 -0.290254,0.37695 -0.04366,0.12103 -0.05064,0.25658 -0.01036,0.37877 0.04028,0.1222 0.129516,0.22934 0.246596,0.28269 0.08745,0.0398 0.186201,0.049 0.282115,0.0431 0.09591,-0.006 0.190253,-0.0262 0.28485,-0.0431 0.467536,-0.0835 0.949874,-0.0835 1.41741,0"
       id="path4500"
       inkscape:connector-curvature="0"
       inkscape:path-effect="#path-effect4502"
       inkscape:original-d="m 70.283598,128.0847 c -0.125728,-0.17351 -0.25172,-0.34674 -0.377976,-0.51972 -0.126257,-0.17298 0.03176,-0.44124 0.04725,-0.66146 0.01548,-0.22022 0.567227,-1.10269 0.850445,-1.65364 0.283218,-0.55096 2.929581,-4.66197 4.393975,-6.99256 1.464392,-2.33059 6.189358,-7.32329 6.189358,-7.32329 0,0 -0.976172,1.51164 -1.464656,2.26785 -0.488484,0.75622 -1.669129,1.76363 -2.504093,2.64584 -0.834962,0.88221 -4.094478,4.37796 -6.142112,6.56733 -2.047637,2.18938 -3.307027,3.43302 -4.960937,5.14993 -1.653911,1.7169 -1.795124,1.98411 -2.69308,2.97656 -0.897959,0.99246 -1.732127,1.82662 -2.598587,2.74033 -0.86646,0.91371 -0.913178,0.28322 -1.370163,0.42522 -0.456986,0.14201 2.64e-4,-0.37824 0,-0.56696 -2.65e-4,-0.18872 1.260184,-2.01614 1.889879,-3.02381 0.629697,-1.00767 4.661971,-3.93752 6.992559,-5.90588 2.33059,-1.96836 12.756697,-8.55171 12.756697,-8.55171 0,0 -2.299091,3.02355 -3.449031,4.53571 -1.149943,1.51217 -1.952615,2.58258 -2.929316,3.87426 -0.976704,1.29168 -0.472207,0.81868 -0.708705,1.22842 -0.236501,0.40974 0.03176,0.18873 0.04725,0.28349 0.01548,0.0947 0.441235,-2.7e-4 0.661459,0 0.22022,2.6e-4 0.661723,-0.53573 0.992187,-0.8032 0.330465,-0.26747 2.551602,-2.42562 3.827008,-3.63803 1.275405,-1.2124 6.094867,-6.56733 6.094867,-6.56733 0,0 -1.637633,1.57463 -2.456847,2.36235 -0.81921,0.78771 -2.551072,3.02355 -3.827007,4.53571 -1.275935,1.51217 -0.503703,0.94468 -0.755954,1.41741 -0.252249,0.47274 -0.296591,0.71656 -0.328351,1.14204 -0.03176,0.42549 0.440113,0.71371 0.597304,1.02895 0.157224,0.31525 0.186062,0.10551 0.694865,-0.22239 0.740922,-0.47747 1.065144,-0.96367 1.540278,-1.38875 0.298966,-0.26747 1.039434,-1.59928 1.039434,-1.59928 0,0 0.598729,0.34621 0.897694,0.51972 0.298966,0.1735 2.83482,-0.18899 2.83482,-0.18899 0,0 -0.692689,-0.12626 -1.039434,-0.18899 -0.346742,-0.0627 -1.007671,0.34621 -1.511903,0.51972 -0.504232,0.1735 -0.472207,0.47221 -0.708705,0.7087 -0.2365,0.2365 -0.03123,0.37772 -0.04725,0.56697 -0.01601,0.18925 0.409739,0.25172 0.614211,0.37797 0.204473,0.12626 0.598729,-0.15775 0.897695,-0.23623 0.298966,-0.0785 1.795385,-1.74814 1.795385,-1.74814 0,0 -0.409207,0.69269 -0.614209,1.03943 -0.205001,0.34675 0.22075,0.22023 0.33073,0.33073 0.109976,0.11051 0.37824,-0.31524 0.566962,-0.47247 0.188725,-0.15722 0.850712,-0.69322 1.27567,-1.03943 0.424958,-0.34622 0.535731,0.0312 0.803201,0.0473 0.267467,0.016 -0.188725,0.31471 -0.283483,0.47246 -0.09476,0.15776 -0.519718,0.99219 -0.519718,0.99219 0,0 0.693221,-1.0397 1.039434,-1.55915 0.346215,-0.51945 1.071197,-0.63022 1.606399,-0.94494 0.535202,-0.31472 0.283747,0.0627 0.425223,0.0945 0.141478,0.0318 -0.125728,0.31472 -0.188987,0.47248 -0.06326,0.15775 -0.535202,0.72418 -0.803201,1.08668 -0.267996,0.36249 0.06326,0.31471 0.0945,0.47247 0.03123,0.15775 0.37824,-0.0318 0.566962,-0.0472 0.188725,-0.0155 1.291686,-0.91371 1.937129,-1.37016 0.645446,-0.45646 1.984375,-2.64584 1.984375,-2.64584 l -1.708998,1.50855 c -0.65149,0.57508 -0.448351,1.37326 -0.606106,1.89324 -0.157753,0.51998 0.504235,-0.0318 0.755954,-0.0473 0.251719,-0.0155 0.724717,-0.75621 1.086681,-1.13393 0.361963,-0.37771 2.078868,-2.07887 2.078868,-2.07887 0,0 -0.440706,0.50371 -0.661458,0.75596 -0.22075,0.25225 -0.03123,0.75568 -0.04725,1.13392 -0.01601,0.37825 -0.346213,0.47221 -0.519716,0.70871 -0.173506,0.2365 -1.228423,0.0945 -1.228423,0.0945 0,0 0.756216,-0.0948 1.133927,-0.14175 0.377712,-0.047 1.19719,-0.81921 1.795389,-1.22842 0.598196,-0.40921 2.267857,-1.41741 2.267857,-1.41741 0,0 -1.102167,0.34621 -1.653646,0.51972 -0.551481,0.1735 -0.472207,0.40921 -0.708707,0.61421 -0.236498,0.205 0.157755,0.44071 0.236236,0.66146 0.07848,0.22075 0.37824,-2.7e-4 0.566965,0 0.188722,2.6e-4 0.945205,-2.7e-4 1.41741,0"
       sodipodi:nodetypes="ccccsccccccscccsccccccccccccccssccccccccccccccccccscccccccscscccccccccccccc" />
  </g>
</svg>
