<?xml version="1.0" encoding="UTF-8" standalone="no"?>
<!-- Created with Inkscape (http://www.inkscape.org/) -->

<svg
   xmlns:dc="http://purl.org/dc/elements/1.1/"
   xmlns:cc="http://creativecommons.org/ns#"
   xmlns:rdf="http://www.w3.org/1999/02/22-rdf-syntax-ns#"
   xmlns:svg="http://www.w3.org/2000/svg"
   xmlns="http://www.w3.org/2000/svg"
   xmlns:sodipodi="http://sodipodi.sourceforge.net/DTD/sodipodi-0.dtd"
   xmlns:inkscape="http://www.inkscape.org/namespaces/inkscape"
   width="163.54686mm"
   height="48.130539mm"
   viewBox="0 0 579.49675 170.54128"
   id="svg2"
   version="1.1"
   inkscape:version="0.91pre4 r13712"
   sodipodi:docname="Assinatura António Guterres.svg">
  <defs
     id="defs4" />
  <sodipodi:namedview
     id="base"
     pagecolor="#ffffff"
     bordercolor="#666666"
     borderopacity="1.0"
     inkscape:pageopacity="0.0"
     inkscape:pageshadow="2"
     inkscape:zoom="1.7457317"
     inkscape:cx="274.87237"
     inkscape:cy="68.104023"
     inkscape:document-units="px"
     inkscape:current-layer="layer1"
     showgrid="false"
     fit-margin-top="0"
     fit-margin-left="0"
     fit-margin-right="0"
     fit-margin-bottom="0"
     inkscape:window-width="1366"
     inkscape:window-height="705"
     inkscape:window-x="-8"
     inkscape:window-y="-8"
     inkscape:window-maximized="1" />
  <metadata
     id="metadata7">
    <rdf:RDF>
      <cc:Work
         rdf:about="">
        <dc:format>image/svg+xml</dc:format>
        <dc:type
           rdf:resource="http://purl.org/dc/dcmitype/StillImage" />
        <dc:title></dc:title>
      </cc:Work>
    </rdf:RDF>
  </metadata>
  <g
     inkscape:label="Camada 1"
     inkscape:groupmode="layer"
     id="layer1"
     transform="translate(-62.270491,-337.0678)">
    <path
       style="fill:#000000"
       d="m 452.50164,506.06415 c 1.14775,-4.38896 28.53877,-17.20889 53.53842,-25.0578 10.04507,-3.15376 27.77385,-7.49064 40.0789,-9.80425 5.67187,-1.06642 11.36719,-2.1593 12.65625,-2.42861 1.28906,-0.2693 3.82031,-0.72293 5.625,-1.00807 4.01164,-0.63383 27.5398,-4.91672 30.32992,-5.52104 1.10761,-0.23989 3.27945,-0.64714 4.82633,-0.905 9.6195,-1.6035 16.73628,-4.25406 15.2942,-5.69613 -1.21289,-1.21288 -12.6614,-2.92691 -15.04515,-2.2525 -1.57587,0.44583 -3.92352,0.24553 -6.09375,-0.51994 -1.94167,-0.68485 -5.42219,-1.80836 -7.73449,-2.49669 -2.31231,-0.68835 -6.05342,-2.66307 -8.31358,-4.38829 -3.2316,-2.46674 -4.99641,-3.13678 -8.26191,-3.13678 -6.45072,0 -9.8126,-1.38098 -13.40715,-5.50733 l -3.31317,-3.80334 -9.52687,1.92913 c -11.32707,2.29366 -14.37938,1.73165 -14.37938,-2.64765 0,-1.50251 0.73828,-3.55981 1.64062,-4.57179 1.82626,-2.04811 10.17444,-4.55115 18.04688,-5.41098 4.56245,-0.49832 5.55772,-1.0159 8.64245,-4.49436 2.91361,-3.2855 3.64879,-3.70021 4.47607,-2.52493 0.59498,0.84526 0.75803,3.54774 0.40873,6.77439 -0.81608,7.53842 0.53966,8.76495 9.37613,8.4825 3.64532,-0.11652 7.60453,-0.72984 8.79822,-1.36292 2.64028,-1.4003 3.88687,0.0157 3.90905,4.44054 0.0131,2.61156 0.58631,3.14245 6.46248,5.98516 5.11031,2.47221 7.12481,2.99247 9.70958,2.50756 4.8362,-0.90728 31.11706,3.10755 38.35472,5.8593 3.15408,1.19918 4.04438,4.77771 2.25444,9.06166 -1.09329,2.61661 -2.4471,3.7835 -6.34401,5.46814 -9.02992,3.90362 -26.44441,7.95448 -63.07911,14.67309 -2.57813,0.47282 -6.58594,1.11586 -8.90625,1.42898 -5.18095,0.69916 -28.87134,5.57882 -38.4375,7.91721 -16.09489,3.9343 -36.67816,10.43671 -54.84375,17.32554 -3.60938,1.36877 -8.95934,2.7147 -11.88881,2.99097 -4.91884,0.46388 -5.29016,0.36398 -4.85351,-1.30577 z M 73.265341,486.12835 c -5.882659,-1.38889 -12.150215,-8.1113 -10.812538,-11.59722 0.76215,-1.98613 1.781252,-1.9248 6.574698,0.39566 7.029423,3.40288 9.075341,3.26436 24.769522,-1.67712 14.498537,-4.56503 14.614447,-4.62377 30.937497,-15.68046 24.27689,-16.44434 23.96476,-16.18511 38.5239,-31.99404 10.9715,-11.91332 14.86836,-16.94043 20.90312,-26.96589 10.27542,-17.07038 18.19985,-33.39858 19.93236,-41.07034 0.80348,-3.55795 2.2555,-7.40463 3.22671,-8.54819 1.75803,-2.07 1.77232,-2.0709 3.22783,-0.2042 1.67624,2.14978 1.38786,6.48656 -1.55845,23.4375 -0.98585,5.67187 -3.04399,18.53906 -4.57364,28.59375 -3.76552,24.75155 -6.25857,38.23208 -7.96493,43.06843 -1.66064,4.70675 -1.83086,7.55657 -0.45136,7.55657 0.53616,0 2.62858,-0.84368 4.64981,-1.87483 3.79276,-1.93492 4.20386,-2.76687 6.25415,-12.65642 1.2619,-6.08679 3.11234,-4.69199 5.98009,4.50761 3.49141,11.20027 7.01637,14.71114 14.77015,14.71114 5.01954,0 8.10397,-3.05717 10.07262,-9.98363 1.67945,-5.90891 3.38441,-8.42711 5.02087,-7.41572 0.5651,0.34925 1.02746,1.61327 1.02746,2.80893 0,1.19567 0.6616,3.75737 1.47022,5.69268 1.46803,3.51348 1.47705,3.51795 6.01877,2.98005 2.5017,-0.29629 6.57477,-1.5118 9.05128,-2.70113 3.57444,-1.71662 4.99117,-3.12345 6.87186,-6.82391 2.23712,-4.40175 2.40322,-5.76682 2.98104,-24.5006 0.63065,-20.44598 1.27215,-23.80667 4.54433,-23.80667 3.51814,0 3.9892,2.97225 2.74882,17.34404 -1.74048,20.16637 1.06376,34.67265 6.57795,34.02759 1.79595,-0.21008 2.88703,-1.35823 4.47214,-4.706 2.50232,-5.28494 6.17859,-7.81497 16.66984,-11.47226 4.125,-1.43799 15.28739,-5.3176 24.8053,-8.62136 27.98007,-9.71212 48.68921,-18.86327 65.89591,-29.1187 5.19312,-3.09517 5.5722,-3.59776 10.44372,-13.84637 5.87947,-12.36911 10.25233,-19.23199 16.89552,-26.51628 5.35377,-5.87043 14.78014,-12.40316 17.8971,-12.40316 5.37713,0 7.22013,9.2377 3.40335,17.05868 -3.83119,7.85052 -18.35959,23.13092 -34.14281,35.91007 -2.7529,2.22893 -3.76198,3.95636 -4.86328,8.32534 -1.79461,7.11948 -2.94628,26.8981 -1.69627,29.13173 0.82125,1.46751 1.26537,1.17507 3.6835,-2.42543 3.91112,-5.82353 5.38419,-5.40557 5.95921,1.69079 0.7068,8.7227 3.75573,11.1251 16.47996,12.98533 5.24559,0.76688 6.39276,-0.7736 5.77581,-7.75606 -0.3786,-4.28484 -0.0985,-6.01357 1.36673,-8.43608 2.24648,-3.71408 5.15585,-4.03667 6.00196,-0.66551 1.24839,4.97397 13.93244,8.26273 23.74846,6.15757 6.56101,-1.40709 14.41854,-5.22461 17.88158,-8.68765 1.55777,-1.55777 4.19793,-5.64205 5.86702,-9.07617 2.52481,-5.19472 3.01969,-7.26778 2.94523,-12.33761 -0.0963,-6.55669 -3.43882,-16.53879 -6.00425,-17.93112 -0.77344,-0.41976 -4.74354,-2.30366 -8.82244,-4.18645 -11.52926,-5.3218 -14.03204,-9.37059 -9.94058,-16.08104 l 1.85497,-3.04236 5.16067,2.28229 c 2.83837,1.25526 6.53721,3.29898 8.21965,4.54161 1.68244,1.24262 4.95742,2.99978 7.27773,3.90481 10.30158,4.0181 50.79486,16.65029 57.1875,17.84009 4.9177,0.91528 20.30785,6.94166 21.55007,8.43844 0.59698,0.71931 0.94946,2.49351 0.7833,3.94266 -0.2282,1.99013 -0.87559,2.71713 -2.64587,2.97124 -3.03817,0.43609 -13.48474,-1.41364 -22.96875,-4.067 -22.51015,-6.29768 -42.58099,-11.18844 -43.23432,-10.5351 -0.16354,0.16354 -0.47434,4.49491 -0.69068,9.62526 -0.60761,14.4099 -5.82378,26.50999 -14.97485,34.73759 -8.80654,7.91784 -20.54374,11.54733 -32.05365,9.91195 -3.60058,-0.51159 -7.25084,-1.21207 -8.1117,-1.55662 -1.20064,-0.48055 -1.99171,0.33777 -3.39652,3.51357 -1.17178,2.64901 -3.08183,4.91289 -5.30348,6.28594 -4.962,3.06668 -13.95206,2.36914 -22.48108,-1.74433 -3.38798,-1.634 -6.15997,-3.37996 -6.15997,-3.87992 0,-0.49996 -0.59155,-0.90901 -1.31454,-0.90901 -2.23172,0 -3.37296,5.46024 -3.37296,16.13798 0,8.35318 -0.36568,11.08322 -1.99045,14.8601 -1.60339,3.72718 -2.43306,4.62692 -4.26659,4.62692 -5.20025,0 -6.51322,-11.26951 -3.6044,-30.9375 0.72445,-4.89844 1.48359,-17.65219 1.68695,-28.34168 l 0.36977,-19.43542 -3.36327,2.02204 c -1.84979,1.11213 -4.41795,2.71209 -5.70701,3.55548 -6.68455,4.37348 -17.72503,9.01545 -38.90625,16.35815 -33.90589,11.75385 -35.82547,12.52675 -36.38024,14.64821 -0.29784,1.13893 0.11244,2.15336 1.07418,2.65596 2.47484,1.29336 11.12194,2.91226 15.55536,2.91226 4.58913,0 5.47423,1.34637 4.3853,6.67065 -0.80303,3.92635 -3.05104,4.60689 -16.5096,4.99793 -5.67188,0.16478 -13.26563,0.97444 -16.875,1.79924 -12.28939,2.8083 -16.25935,1.68464 -21.67909,-6.13605 -1.36519,-1.96997 -2.76898,-3.58177 -3.11953,-3.58177 -0.35055,0 -1.53667,1.60009 -2.63581,3.55575 -2.12884,3.78774 -8.62015,8.96722 -14.66656,11.70257 -2.70228,1.22249 -5.70499,1.61731 -11.30607,1.48661 -6.54317,-0.15268 -8.41884,0.18512 -13.20352,2.3779 -3.90882,1.79137 -6.4373,2.39513 -8.45341,2.0185 -4.02509,-0.75193 -10.45926,-5.72575 -12.46544,-9.63618 l -1.68646,-3.28726 -3.20456,2.76599 c -1.7625,1.5213 -4.89205,3.71509 -6.95455,4.8751 -4.0771,2.29305 -6.63235,5.73684 -10.78557,14.53606 -1.47939,3.13429 -3.33337,6.49591 -4.11996,7.47028 -1.36296,1.6883 -1.54559,1.69592 -3.88643,0.16215 -10.02218,-6.56678 -14.41482,-14.14129 -17.35731,-29.93032 -1.11823,-6.00031 -2.30149,-10.90017 -2.62944,-10.88858 -0.32796,0.0116 -2.07285,2.112 -3.87754,4.66758 -5.33197,7.55052 -22.63968,19.36902 -40.67089,27.77198 -12.43281,5.79397 -17.070803,7.44579 -26.173844,9.32182 -11.817632,2.43547 -12.54173,2.49121 -17.415135,1.3406 z m 111.172229,-18.2793 c 2.71501,-4.8041 2.68923,-6.09375 -0.1218,-6.09375 -1.9176,0 -5.55837,-2.26398 -12.64327,-7.8621 -1.1186,-0.88386 -1.21794,-0.25257 -0.64709,4.1121 0.68106,5.20725 2.01113,8.06886 5.57392,11.99212 2.71795,2.99294 5.33858,2.27465 7.83824,-2.14837 z m 4.72762,-16.64063 c 2.18024,-2.74118 9.53879,-52.28002 8.53174,-57.43697 -0.20846,-1.06754 -3.18346,3.03887 -8.16453,11.26962 -4.31012,7.12203 -10.79196,16.95071 -14.4041,21.84152 l -6.56753,8.89236 1.74784,3.01476 c 5.77735,9.96501 15.64127,16.46128 18.85658,12.41871 z m 237.69295,-85.31603 c 8.45286,-8.49161 11.92359,-13.19306 10.66707,-14.44959 -2.20909,-2.20909 -14.06471,9.27749 -20.23938,19.60937 -3.79991,6.35829 0.31447,4.14051 9.57231,-5.15978 z"
       id="path3351"
       inkscape:connector-curvature="0" />
  </g>
</svg>
