<?xml version="1.0" encoding="UTF-8"?>
<svg width="452px" height="186px" viewBox="0 0 452 186" version="1.1" xmlns="http://www.w3.org/2000/svg" xmlns:xlink="http://www.w3.org/1999/xlink">
    <title>antony_blinken</title>
    <defs>
        <polygon id="path-1" points="0 0 51 0 51 140 0 140"></polygon>
        <polygon id="path-3" points="0 0 39 0 39 32 0 32"></polygon>
    </defs>
    <g id="antony_blinken" stroke="none" stroke-width="1" fill="none" fill-rule="evenodd">
        <g id="Group-27" transform="translate(0.000000, 17.000000)">
            <g id="Group-3">
                <mask id="mask-2" fill="white">
                    <use xlink:href="#path-1"></use>
                </mask>
                <g id="Clip-2"></g>
                <path d="M1.59431732,140 C1.4551096,140 1.31363834,139.981279 1.17273297,139.942702 C0.324471303,139.710672 -0.175205183,138.831341 0.0568076815,137.980943 C0.321641878,137.010276 26.6081335,40.6793134 32.4763613,22.047714 C34.0059485,17.1932412 35.2073225,12.4289707 36.1727223,8.60076198 C38.0565536,1.12985486 38.3960846,-0.221477875 40.2787842,0.0270039623 C42.0647173,0.258466496 42.1846849,2.19015749 42.3069161,6.92946633 C42.3985895,10.4876355 42.3980236,15.9287069 42.3063502,25.120833 C42.3250244,25.6807681 42.297862,27.1784669 42.2537229,29.661016 C41.3986706,77.3218747 44.2428088,106.133287 50.7074794,115.295913 C51.2156442,116.015262 51.0447469,117.012026 50.3266388,117.521471 C49.6079648,118.03205 48.6148366,117.860722 48.1061059,117.139671 C37.7605957,102.476973 38.7446698,47.6277278 39.0677902,29.6037177 C39.1085339,27.337881 39.1379599,25.7017586 39.1209834,25.153737 C39.1628589,20.9187669 39.2251062,14.6471534 39.1707813,9.74048803 C38.2110402,13.5465717 37.0243793,18.217236 35.514598,23.0093047 C29.6639127,41.5824711 3.39439761,137.853298 3.12956342,138.823966 C2.93603074,139.533671 2.29375122,140 1.59431732,140" id="Fill-1" fill="#000000" mask="url(#mask-2)"></path>
            </g>
            <path d="M112.411663,129 C111.877293,129 111.356465,128.730329 111.059091,128.237911 C110.978964,128.106185 109.107822,124.953805 109.656863,120.220147 C110.134806,116.10498 112.575304,54.7404227 108.358462,39.823153 C107.995632,38.9875688 106.109818,34.3002694 107.510918,30.0895582 C107.787978,29.2562354 108.685743,28.8022611 109.520308,29.083239 C110.352617,29.3613902 110.802345,30.2631201 110.524721,31.0964429 C109.415917,34.4286034 111.279159,38.5709074 111.298345,38.6127432 C111.330509,38.683977 111.358723,38.7608643 111.380729,38.8354903 C115.850931,54.3062355 113.311685,116.28476 112.8123,120.588754 C112.395299,124.184367 113.765928,126.572396 113.780035,126.596706 C114.222428,127.349749 113.976968,128.324409 113.228172,128.773295 C112.971426,128.926505 112.689852,129 112.411663,129" id="Fill-4" fill="#000000"></path>
            <path d="M112.771352,92 C108.929048,92 104.802488,91.5083229 101.07972,90.0276076 C91.1799805,86.0907805 81.9471255,87.4316663 81.8544709,87.4447398 C80.9834037,87.5845694 80.1540882,86.9803466 80.01911,86.1072645 C79.8835598,85.2353193 80.4835266,84.4185101 81.3614572,84.2826594 C81.7721113,84.2189972 91.5242894,82.7814812 102.276222,87.0576507 C112.111331,90.9683308 125.79904,87.0479877 125.935163,87.0081988 C126.791359,86.7535498 127.683588,87.2429533 127.934099,88.0915936 C128.185181,88.9396655 127.696743,89.8280947 126.843978,90.0770595 C126.44705,90.1941525 120.13453,92 112.771352,92" id="Fill-6" fill="#000000"></path>
            <path d="M59.0133519,121 C58.8834109,121 58.7438655,120.988107 58.591891,120.961489 C57.0761006,120.716829 57.142201,119.085195 57.1777936,118.209063 C57.1760987,116.177026 57.2416342,114.517076 57.3043448,112.912061 C57.4280713,109.769425 57.5551875,106.520317 57.1789235,99.7780081 C57.0585868,97.6134465 56.1021078,86.6728391 49.1095851,83.8598151 C42.674679,81.2704965 32.527414,86.2237293 19.7609896,98.1831872 C9.86456725,107.116676 10.2024139,109.325979 10.2216226,109.416027 C10.6605973,109.739975 14.5689977,111.224926 42.9317363,99.3113417 C43.7435853,98.9755005 44.6729461,99.3543838 45.0130527,100.165953 C45.3525943,100.977522 44.9706806,101.912554 44.1610915,102.252925 C14.6492222,114.650166 9.07870646,113.771202 7.4544435,110.975735 C6.27198007,108.941432 6.68383666,105.697421 17.6113129,95.8339978 C31.5195235,82.8041524 42.5238344,77.7721979 50.2937434,80.9006747 C58.8540329,84.3440381 60.1585279,96.0843213 60.3545694,99.6001765 C60.4319691,100.983185 60.4884652,102.223476 60.5280125,103.347099 C61.0195285,101.29524 61.592399,99.045727 62.2635727,96.5974277 C65.0606948,86.3885351 68.8188156,81.0728429 73.4322873,80.7981667 C77.7491545,80.51273 81.5106651,84.9132124 83.3185404,89.3640994 C86.0461722,96.0752598 87.1405017,110.677839 86.9857024,115.167237 C86.9139523,117.24798 86.2738515,118.670066 85.0829136,119.39725 C83.5603437,120.325486 81.9349508,119.603965 81.7569881,119.51958 C80.9632178,119.142396 80.6236762,118.191507 81.0005053,117.395795 C81.3716846,116.609712 82.3044353,116.268773 83.0908611,116.625003 C83.208373,116.672009 83.3801211,116.689566 83.4320975,116.673142 C83.4315326,116.672009 83.7609048,116.391103 83.8072316,115.057367 C83.9580762,110.667078 82.7857821,96.5028485 80.3728335,90.5670112 C79.0287913,87.2595701 76.2090708,83.8145077 73.6215493,83.9804461 C70.6481594,84.1582777 67.6261828,89.0639378 65.3301812,97.4407119 C62.6985927,107.045317 61.6008734,113.53617 61.0110541,117.023708 C60.563605,119.666263 60.3381855,121 59.0133519,121" id="Fill-8" fill="#000000"></path>
            <path d="M131.873097,93.2285824 C132.047456,93.5814814 132.095009,94.0007276 131.973863,94.4091067 C131.931406,94.5543844 127.766602,109.034109 135.541431,117.4585 C137.091415,119.138345 139.362045,121.074999 141.375666,120.740975 C143.264745,120.432689 144.663014,118.157434 145.502541,116.303714 C147.912999,110.985635 147.280098,99.5527379 140.803904,93.741058 C136.682124,90.0427683 135.042696,91.1386426 132.970201,92.5262162 C132.612991,92.7647233 132.251253,93.007806 131.873097,93.2285824 M140.902972,124 C138.457416,124 135.87543,122.542647 133.210227,119.654824 C125.10989,110.878107 127.930205,97.3283876 128.741427,94.1460053 C127.728107,94.1437175 127.010857,93.8199884 126.542126,93.488252 C125.194806,92.5365115 125.021013,90.9687707 125.006294,90.7937511 C124.928738,89.9072139 125.576924,89.1264893 126.453814,89.0475589 C127.318816,88.9651968 128.083052,89.6075072 128.177591,90.4751697 C128.19231,90.5661112 128.259109,90.7771642 128.374594,90.8532348 C128.505929,90.9413166 128.85578,90.9767781 129.44226,90.8189173 C129.95911,90.6793592 130.566536,90.2721241 131.209627,89.8420106 C133.502336,88.3085873 136.965741,85.9904357 142.920555,91.3336808 C150.001345,97.6881501 151.653793,110.465152 148.400412,117.643815 C146.708336,121.377566 144.516394,123.489812 141.885157,123.920498 C141.559649,123.97369 141.232443,124 140.902972,124" id="Fill-10" fill="#000000"></path>
            <path d="M216.92652,131.931013 C212.084361,134.752055 207.53903,137.934435 203.383428,141.407358 C197.840549,146.039621 197.557882,147.383029 197.54372,147.520654 C197.853011,148.415504 202.180252,149.04643 206.275242,148.715675 C212.250335,148.038874 216.311904,146.280324 217.968253,143.636553 C219.372524,141.392066 218.621389,139.18949 218.588534,139.097173 C218.555113,139.00429 218.526223,138.893283 218.510928,138.795303 C218.227695,136.95633 217.871387,134.650676 217.469762,132.061842 C217.308319,132.051648 217.145176,132.017666 216.985999,131.955366 C216.966173,131.947437 216.94578,131.940074 216.92652,131.931013 M203.834336,152 C200.385685,152 195.490844,151.449498 194.504059,148.438725 C193.891708,146.56577 194.81335,144.414166 201.337916,138.961247 C205.912137,135.138313 210.940097,131.657461 216.284147,128.616104 C216.502803,128.502832 216.706165,128.420143 216.895364,128.362941 C215.297928,118.092558 213.256947,105.106476 212.097956,98.1532675 C209.398174,107.610923 205.236908,116.181091 200.375489,115.859398 C194.420788,115.466911 190.516131,101.627323 189.648304,95.3752688 C189.591091,94.9606928 189.539542,94.5432851 189.494792,94.1247446 C187.28727,96.9865647 183.601836,103.11402 181.504775,110.243933 C180.869766,112.402333 180.327657,114.82579 179.891477,116.772938 C179.003257,120.741993 178.767607,121.809583 177.092564,121.523004 C175.627681,121.276071 175.661669,119.667607 175.673564,119.139193 C175.67583,119.02592 175.690558,118.913215 175.716616,118.803341 C175.735309,118.722918 177.622777,110.297737 173.666572,97.3937779 C172.372761,93.1760906 170.671661,90.7888808 168.876527,90.6744759 C166.755675,90.5187268 164.330064,93.3386361 163.393127,95.4092504 C163.002832,96.2712512 162.315141,98.7184953 162.087421,105.434965 C161.983191,108.500675 162.013214,111.015316 162.051167,112.862785 C162.0523,112.90866 162.051167,112.955101 162.047768,113.000977 C162.008116,113.597354 161.903319,115.180332 160.397084,115.235269 C159.978465,115.252826 159.532655,115.08575 159.221098,114.786145 C158.679556,114.26566 158.676157,113.826164 158.662562,112.191647 C158.635371,108.808209 158.562864,99.8228985 155.054167,91.4050811 C154.043024,88.9810578 152.774704,86.6572803 151.28263,84.5000129 C150.78244,83.776204 150.96371,82.7833739 151.687654,82.2821448 C152.413865,81.7826148 153.405749,81.9638502 153.906505,82.687659 C155.524901,85.0284273 156.901416,87.5481655 157.99753,90.1794768 C158.783786,92.0654575 159.408599,93.9723936 159.90539,95.8396845 C160.078163,95.15099 160.271894,94.5710368 160.487152,94.0952939 C161.75094,91.3008708 165.081199,87.2440299 169.079323,87.4926622 C172.386923,87.7033483 174.955284,90.7209175 176.715297,96.4604157 C177.981351,100.588618 178.686036,104.277891 179.049707,107.433086 C182.054815,98.5497199 187.394332,90.6319989 189.705517,89.5695064 C190.466282,89.2189292 191.074101,89.3882711 191.368098,89.5202331 C192.179845,89.8827039 192.565609,90.6790068 192.511795,91.8853549 C192.568441,92.9048039 192.667573,93.9316157 192.80749,94.9369057 C194.083174,104.137433 198.220082,112.522402 200.585082,112.678151 C202.617565,112.778963 207.024678,106.551829 210.20539,92.7077104 C210.284695,92.0014588 210.541871,90.2570682 212.088326,90.1449288 C213.699358,90.0231613 214.132705,91.797569 214.32587,92.5519613 C215.028856,95.289182 221.170491,135.114526 221.642924,138.181368 C221.888204,138.972007 222.656333,142.092088 220.714485,145.256345 C218.513761,148.845372 213.758837,151.076266 206.582834,151.888993 C205.952356,151.940532 204.971802,152 203.834336,152" id="Fill-12" fill="#000000"></path>
            <path d="M250.430078,129 C249.604916,129 248.913474,128.344541 248.866115,127.495734 L244.002618,40.6871693 C243.95303,39.8060425 244.613828,39.052492 245.479106,39.0020285 C246.341041,38.9583691 247.084857,39.6246007 247.133887,40.5045935 L251.997384,127.313158 C252.046972,128.193718 251.385616,128.947268 250.520896,128.997732 C250.490809,129 250.460165,129 250.430078,129" id="Fill-14" fill="#000000"></path>
            <path d="M303.816758,17.0232105 C303.245334,17.0232105 301.202603,17.8812677 297.464157,22.7045121 C294.173403,26.5150791 292.182977,35.9259563 291.790967,47.9478194 C297.969778,38.9186786 303.340384,29.983556 304.129467,25.2192145 C305.165456,18.9585118 304.241952,17.1772643 303.938242,17.0430336 C303.910684,17.0311397 303.869626,17.0232105 303.816758,17.0232105 M273.45813,78.0358934 C270.834975,83.0998469 257.448113,110.781962 270.155002,125.226209 C275.909182,131.688541 283.230281,134.984273 288.364668,133.427877 C292.168354,132.271906 294.647528,128.439251 295.533349,122.343929 C298.046831,105.045722 277.722444,82.1981789 277.516596,81.9693636 C276.292194,80.7459949 274.921562,79.4144487 273.45813,78.0358934 M285.647588,137 C279.909718,137 273.257344,133.484514 267.791126,127.347281 C252.674804,110.164614 269.58639,78.4640724 271.050947,75.8015463 C265.12354,70.382476 258.259131,64.7068381 253.499883,62.0437456 C252.174807,62.2085606 250.808674,62.3031451 249.404859,62.3229682 C249.298561,62.31957 249.16864,62.3144726 249.052781,62.2889857 C245.887447,61.6099028 244.200732,60.9302535 244.350337,59.286635 C244.519627,57.4294933 246.845259,57.3666258 249.094962,57.3060237 C250.399791,57.2635456 252.103941,57.8236899 254.005504,58.7780308 C265.9025,57.0545535 271.438458,49.45834 272.62124,42.357704 C274.203344,32.8613044 268.694382,20.6933166 252.821034,14.9185632 C243.000515,11.3441743 235.15411,11.2779085 229.49948,14.7163675 C222.414037,19.0270431 221.163765,27.5872259 221.151954,27.6744476 C221.032719,28.5443986 220.238011,29.1549503 219.370188,29.0377108 C218.505177,28.9187721 217.898319,28.1190515 218.014179,27.2468349 C218.068735,26.8373462 219.447241,17.1308216 227.82795,12.0085315 C234.343654,8.02635304 243.114687,7.99803432 253.896955,11.9196107 C271.485702,18.3196415 277.543592,32.0836723 275.743829,42.8849986 C274.233153,51.954352 267.589215,58.5956582 258.045409,61.1619007 C263.045938,64.4763237 268.687633,69.3312851 273.000878,73.2794811 C275.9688,69.5261179 282.318026,61.3737247 288.521585,52.635134 C288.470966,37.8516293 290.659928,25.7255532 295.022104,20.6768918 C299.298228,15.1558741 302.651412,12.9838282 305.212137,14.1245063 C307.731806,15.2379984 308.380283,18.9313259 307.252619,25.7442436 C306.267248,31.6968386 299.151435,43.0464153 291.724038,53.6053334 C291.883767,73.6748104 296.117147,99.0851981 305.585026,118.153892 C306.905039,120.94102 308.85497,123.690768 309.74754,124.069672 C309.969698,123.783087 310.588367,122.650338 310.836397,118.76501 C310.892639,117.887129 311.662038,117.215976 312.51805,117.276578 C313.390373,117.332649 314.052911,118.090458 313.996668,118.969471 C313.768323,122.539329 313.15078,126.706145 310.37802,127.243068 C307.184003,127.859283 304.222268,122.689984 302.739713,119.55227 C294.041795,102.034876 289.38997,78.1338761 288.63182,57.9369648 C283.130732,65.5314792 277.903545,72.21583 275.33832,75.4481287 C277.606584,77.5822275 279.243243,79.2060229 279.806232,79.7684327 C280.744358,80.8094288 301.393827,104.036443 298.666624,122.804958 C297.306116,132.164295 292.810645,135.408488 289.27861,136.480068 C288.127886,136.829521 286.909109,137 285.647588,137" id="Fill-16" fill="#000000"></path>
            <path d="M320.833453,122 C320.787652,122 320.742425,121.998867 320.694907,121.9966 C319.137128,121.914437 319.06671,120.28025 319.043238,119.742509 C319.188081,99.204104 309.247151,77.4768895 309.14639,77.2593001 C308.776554,76.4592055 309.131505,75.5117847 309.940451,75.1457358 C310.750542,74.7779869 311.705476,75.1304365 312.07703,75.9305311 C312.418241,76.6682954 318.964232,90.9651697 321.380192,107.607364 C324.866731,85.2347472 326.244172,81.7629486 328.958978,81.9652388 C330.751483,82.071767 332.597803,82.1828283 333.722197,106.398722 C336.024229,98.4657731 338.281033,94.0907516 341.376553,94.240911 C343.609885,94.3565054 345.950847,96.3601417 348.113188,108.809772 C348.528825,106.427054 348.955911,103.75195 349.324603,101.446295 L349.796917,98.502038 C349.937753,97.6316801 350.764446,97.0316092 351.643237,97.1789354 C352.522028,97.3183286 353.120293,98.135989 352.979458,99.0052136 L352.508288,101.944371 C350.169616,116.577263 349.824397,117.763239 347.888194,117.806303 C347.190887,117.829535 346.262288,117.483885 345.911916,115.790767 C345.904474,115.753369 345.898176,115.715971 345.893024,115.678573 C343.797093,99.8835044 341.652499,97.7302754 341.204802,97.448089 C340.272769,97.8481363 338.249545,100.751596 334.776174,115.100601 C333.996998,118.315145 333.787462,119.17417 332.240561,118.935048 C330.80129,118.706126 330.840793,117.295195 330.886021,116.70929 C330.298633,97.4633883 329.37805,89.7604947 328.695054,86.6955431 C327.084605,91.57714 325.124357,104.409252 324.101296,111.106361 C323.682224,113.848895 323.315823,116.246912 323.020411,117.957596 C322.560692,120.623067 322.322531,122 320.833453,122" id="Fill-18" fill="#000000"></path>
            <path d="M400.371254,89.5241582 C399.951404,89.5241582 399.203297,90.0618129 398.344255,91.5767143 C395.549806,96.5035253 397.456198,107.481488 398.426177,111.29523 C398.733384,112.24937 399.102033,113.228871 399.50766,114.178502 C400.331431,112.94539 401.035732,111.106994 401.567656,108.753487 C404.421839,96.1304358 402.592818,91.7345165 402.573475,91.6939388 C402.131438,90.8130642 401.110258,89.5427563 400.383201,89.5241582 L400.371254,89.5241582 Z M404.387136,124 C401.90217,124 399.831934,121.643111 398.281106,118.963855 C394.838678,119.883053 391.861612,117.190834 391.734746,117.074173 C381.321556,106.938761 374.838913,95.511062 371.723604,90.0195445 C371.364626,89.3866448 371.051161,88.8332099 370.782639,88.3722019 C370.749643,88.3152804 370.717215,88.2628675 370.686495,88.2115818 C370.639845,88.4279963 370.602866,88.6455379 370.582954,88.8298284 C370.576127,88.9216918 369.503746,102.179897 369.697742,110.069445 C369.770562,113.029927 369.684089,115.145604 367.892615,115.41894 C366.462394,115.638736 365.559546,114.494106 364.590136,111.202239 C363.9871,109.614636 355.771011,87.6547654 355.967851,69.5559769 C356.157296,52.1024869 352.268279,45.4731026 352.229024,45.4088545 C351.776178,44.6598575 352.015117,43.6859924 352.767206,43.232311 C353.518726,42.7797567 354.496101,43.0074428 354.959756,43.7496768 C355.139529,44.0393566 359.371594,51.0446484 359.170772,69.5909189 C359.020582,83.399741 364.140134,100.077746 366.475479,106.946651 C366.543178,99.0480862 367.355571,89.0135553 367.394256,88.532822 C367.548429,87.1007668 368.079215,84.7089359 369.941801,84.3178118 C371.873225,83.914289 373.14074,86.0744888 373.555469,86.7851624 C373.830249,87.2551876 374.149404,87.818767 374.515777,88.4651925 C377.558836,93.8287775 383.89072,104.991031 393.948346,114.782096 C393.950052,114.782096 395.308022,115.980829 396.788306,115.98421 C396.106192,114.421968 395.618643,113.009075 395.346708,112.162579 C395.165228,111.462049 391.560093,97.0609053 395.551513,90.0223624 C396.96296,87.5358501 398.624155,86.2852675 400.475932,86.3517698 C403.458118,86.4363067 405.266659,89.9265539 405.462362,90.3244409 C405.719506,90.8677314 407.777226,95.8080683 404.692637,109.44669 C403.871142,113.080086 402.651415,115.710874 401.05223,117.312567 C402.2236,119.363996 403.461532,120.827612 404.37974,120.827612 C404.394532,120.827612 404.409892,120.826484 404.424684,120.826484 C404.709704,120.811268 407.285694,120.321517 409.829257,107.970675 C410.005616,107.11178 410.849868,106.556654 411.718013,106.733618 C412.58502,106.908328 413.144251,107.746934 412.967322,108.604702 C410.815165,119.056845 408.232916,123.802747 404.594217,123.994364 C404.52481,123.998873 404.455404,124 404.387136,124 L404.387136,124 Z" id="Fill-20" fill="#000000"></path>
            <path d="M351.163017,36 C349.923673,36 349.487444,34.7918462 349.186118,33.9566683 C348.94594,33.2899669 348.583466,32.243085 348.073482,30.7290133 C347.981445,30.4569016 347.978924,30.1792479 348.048897,29.9226537 C347.830152,29.1196194 348.364091,28.2982965 349.275633,28.0633161 C350.216173,27.8211311 351.202731,28.2949713 351.477581,29.1218362 C351.91507,30.433071 352.30465,31.658405 352.576978,32.5573158 C353.071833,34.1877693 353.462044,35.4762819 351.756212,35.9185327 C351.539989,35.9739526 351.342677,36 351.163017,36" id="Fill-22" fill="#000000"></path>
            <g id="Group-26" transform="translate(413.000000, 94.000000)">
                <mask id="mask-4" fill="white">
                    <use xlink:href="#path-3"></use>
                </mask>
                <g id="Clip-25"></g>
                <path d="M37.4127472,32 C36.8345078,32 36.2771415,31.6892473 35.9962019,31.1495772 L35.1494338,29.5150844 C32.800936,24.9776529 32.0918171,23.6080187 27.2650701,15.8309075 C25.2195133,12.5353808 22.3328297,10.8942527 19.3389604,11.3155935 C16.5763867,11.7103932 14.2149138,13.8541444 13.464613,16.6492597 C11.7891293,22.8897487 13.8177621,27.8418858 13.8386351,27.8905446 C14.1472175,28.7664027 14.6549398,30.2228485 13.1661851,30.7536716 C11.6836359,31.2806241 11.2842276,30.3085543 10.3251966,27.9557916 C9.82424385,26.7266043 9.12076635,24.9682529 8.2813321,22.8543605 C6.60697667,18.6376345 4.39161489,13.0070392 2.17681724,7.37699678 L0.107002534,2.11631876 C-0.208913585,1.31510766 0.198392554,0.414367226 1.01695378,0.104720423 C1.83777155,-0.20437344 2.7539283,0.193743879 3.06984442,0.996613805 L5.14022326,6.25729182 C6.73503552,10.3097944 8.41503231,14.5812614 9.88122158,18.2909407 C10.0013825,17.504659 10.169495,16.6907303 10.3928929,15.8574486 C11.4805469,11.8082637 14.8123337,8.81574853 18.8814461,8.23571372 C23.1908805,7.6202907 27.2379916,9.79943007 29.9785639,14.2135558 C34.8690583,22.0929611 35.5905881,23.4869247 37.9825244,28.1072973 L38.8270359,29.7362607 C39.2247518,30.5026365 38.9139129,31.440424 38.1320205,31.8296943 C37.9012889,31.9452589 37.6553256,32 37.4127472,32" id="Fill-24" fill="#000000" mask="url(#mask-4)"></path>
            </g>
        </g>
    </g>
</svg>