<?xml version="1.0" encoding="UTF-8" standalone="no"?>
<!-- Created with Inkscape (http://www.inkscape.org/) -->

<svg
   xmlns:dc="http://purl.org/dc/elements/1.1/"
   xmlns:cc="http://creativecommons.org/ns#"
   xmlns:rdf="http://www.w3.org/1999/02/22-rdf-syntax-ns#"
   xmlns:svg="http://www.w3.org/2000/svg"
   xmlns="http://www.w3.org/2000/svg"
   xmlns:sodipodi="http://sodipodi.sourceforge.net/DTD/sodipodi-0.dtd"
   xmlns:inkscape="http://www.inkscape.org/namespaces/inkscape"
   id="svg2889"
   version="1.1"
   inkscape:version="0.47 r22583"
   width="631"
   height="477"
   sodipodi:docname="Beyoncé 2.png">
  <metadata
     id="metadata2895">
    <rdf:RDF>
      <cc:Work
         rdf:about="">
        <dc:format>image/svg+xml</dc:format>
        <dc:type
           rdf:resource="http://purl.org/dc/dcmitype/StillImage" />
        <dc:title></dc:title>
      </cc:Work>
    </rdf:RDF>
  </metadata>
  <defs
     id="defs2893">
    <inkscape:perspective
       sodipodi:type="inkscape:persp3d"
       inkscape:vp_x="0 : 0.5 : 1"
       inkscape:vp_y="0 : 1000 : 0"
       inkscape:vp_z="1 : 0.5 : 1"
       inkscape:persp3d-origin="0.5 : 0.33333333 : 1"
       id="perspective2897" />
    <inkscape:perspective
       id="perspective2911"
       inkscape:persp3d-origin="0.5 : 0.33333333 : 1"
       inkscape:vp_z="1 : 0.5 : 1"
       inkscape:vp_y="0 : 1000 : 0"
       inkscape:vp_x="0 : 0.5 : 1"
       sodipodi:type="inkscape:persp3d" />
  </defs>
  <sodipodi:namedview
     pagecolor="#ffffff"
     bordercolor="#666666"
     borderopacity="1"
     objecttolerance="10"
     gridtolerance="10"
     guidetolerance="10"
     inkscape:pageopacity="0"
     inkscape:pageshadow="2"
     inkscape:window-width="1366"
     inkscape:window-height="706"
     id="namedview2891"
     showgrid="false"
     inkscape:zoom="0.49475891"
     inkscape:cx="315.5"
     inkscape:cy="238.5"
     inkscape:window-x="-8"
     inkscape:window-y="-8"
     inkscape:window-maximized="1"
     inkscape:current-layer="svg2889" />
  <path
     style="fill:#000000"
     d="m 439.93358,474.81834 c -2.2802,-1.91865 -3.2999,-3.93658 -4.1643,-8.24046 -3.4653,-17.25494 0.9936,-41.10843 11.284,-60.36603 5.3674,-10.04454 7.5525,-12.73823 20.8214,-25.66729 2.0625,-2.00969 3.75,-4.29518 3.75,-5.07887 0,-0.78369 7.3125,-8.78285 16.25,-17.7759 17.3048,-17.41237 26.3248,-28.69456 27.3622,-34.22462 0.5461,-2.91054 0.1827,-3.86965 -2.5235,-6.66177 -1.7388,-1.79395 -6.1825,-4.79843 -9.8751,-6.67664 -3.6925,-1.8782 -7.2906,-3.95973 -7.9958,-4.62563 -0.7052,-0.66589 -2.9552,-1.47798 -5,-1.80463 -2.0448,-0.32665 -4.548,-1.04981 -5.5627,-1.60701 -3.7509,-2.05975 -27.3781,-4.94161 -55.6551,-6.78837 -9.625,-0.62861 -23.125,-1.63546 -30,-2.23746 -6.875,-0.602 -17.3989,-1.41176 -23.3864,-1.79947 -12.3947,-0.80259 -13.6136,-1.56727 -13.6136,-8.54008 0,-4.44848 1.0055,-6.1392 8,-13.45118 5.4853,-5.73438 12.1634,-9.70212 35.5,-21.09225 19.5774,-9.55534 27.1379,-12.95663 28.8771,-12.99107 0.6176,-0.0122 2.1819,-0.83673 3.4762,-1.83222 l 2.3533,-1.80998 -1.2932,-14.66066 c -1.1179,-12.67304 -1.5417,-14.73952 -3.1258,-15.2423 -1.8337,-0.58199 -2.6561,-0.46841 -14.7876,2.04234 -3.575,0.73988 -9.425,1.87157 -13,2.51485 -5.821,1.04742 -7.0152,1.69339 -11.4311,6.1835 -6.0989,6.20139 -7.7657,6.8534 -19.3189,7.55713 l -9.25,0.56343 0,-3.73948 0,-3.73947 -5.25,0.54206 c -12.3139,1.2714 -19.6482,2.54964 -25.75,4.48779 -6.2149,1.97404 -11.4536,3.09264 -24.3478,5.19888 -6.0172,0.98291 -19.2051,3.77193 -30.6522,6.48245 -3.575,0.84651 -9.0875,2.05387 -12.25,2.68302 -5.5895,1.11198 -5.75,1.23486 -5.75,4.40231 0,1.79211 0.4562,4.45844 1.0139,5.92517 0.9954,2.61826 3.0686,11.07609 5.1384,20.96342 0.5757,2.75 2.0998,9.725 3.3868,15.5 1.2871,5.775 2.3245,11.85 2.3053,13.5 -0.019,1.65 0.9238,7.275 2.0955,12.5 1.1716,5.225 3.175,14.49646 4.4519,20.60324 1.2769,6.10679 3.0194,12.40679 3.8722,14 2.5092,4.68808 5.7698,20.55408 6.3923,31.10535 0.5202,8.81801 0.3806,10.01491 -1.405,12.03955 -1.0905,1.23647 -3.2806,2.50632 -4.867,2.82189 -2.2953,0.45659 -3.4279,-0.003 -5.5462,-2.24813 -2.107,-2.2336 -2.9039,-4.48972 -3.8228,-10.8219 -0.6384,-4.4 -1.7814,-10.025 -2.5398,-12.5 -0.7584,-2.475 -2.0609,-9.25196 -2.8945,-15.05991 -1.9017,-13.25039 -3.832,-21.5909 -5.9406,-25.66844 -0.9022,-1.74478 -1.6453,-4.43218 -1.6512,-5.97199 -0.01,-1.53981 -0.6202,-4.82466 -1.3649,-7.29966 -0.7447,-2.475 -1.6801,-7.2 -2.0787,-10.5 -0.6469,-5.35624 -4.7254,-22.97543 -8.9476,-38.65418 -0.8375,-3.10979 -1.8268,-8.62229 -2.1985,-12.25 -0.6281,-6.13088 -0.8468,-6.59582 -3.1034,-6.59582 -1.3352,0 -3.2724,0.45214 -4.305,1.00476 -4.3378,2.32151 -28.0946,6.34837 -64.9911,11.0162 -4.125,0.52187 -12.9,1.63807 -19.5,2.48046 -19.3524,2.47003 -30.2071,2.98656 -31.9725,1.52142 -5.2397,-4.34864 3.7367,-15.3327 17.9725,-21.99201 2.75,-1.28641 5.675,-2.86017 6.5,-3.49725 2.825,-2.18147 15.0316,-6.39054 46.5,-16.0341 13.699,-4.19806 23.7778,-7.80405 31,-11.09111 2.75,-1.25161 5.9,-2.43382 7,-2.62713 1.7669,-0.3105 1.9749,-1.04669 1.7851,-6.31635 -0.1181,-3.28069 -0.6599,-6.86489 -1.2038,-7.96489 -0.544,-1.1 -1.9362,-6.71389 -3.0938,-12.47531 -1.1577,-5.76143 -2.3197,-10.69024 -2.5824,-10.95292 -1.2729,-1.27287 -39.0528,6.75738 -72.4051,15.38992 -9.625,2.49123 -18.2936,4.53149 -19.2635,4.53391 -0.97,0.002 -2.545,0.3984 -3.5,0.87996 -3.6367,1.8337 -22.0185,6.45209 -58.23647,14.63178 -14.91,3.36737 -61.59342,5.51816 -68.5982403,3.16045 -4.63553,-1.56024 -4.8121,-9.93398 -0.32559,-15.44116 1.33311,-1.63638 3.25733,-4.13412 4.2760403,-5.55052 2.0781,-2.88935 13.2988,-10.66949 18.64779,-12.92989 1.925,-0.81348 6.82063,-2.88917 10.87919,-4.61264 4.05855,-1.72348 8.01189,-3.13359 8.78518,-3.13359 0.7733,0 2.40266,-0.64851 3.62081,-1.44112 2.93746,-1.91133 28.50863,-12.2397 67.71479,-27.35047 5.775,-2.22579 15,-5.91137 20.5,-8.19017 5.5,-2.2788 14.5,-5.66984 20,-7.53563 13.8982,-4.71476 37.2559,-13.48057 45.8466,-17.205544 3.6632,-1.58839 3.8187,-1.84192 3.2628,-5.318232 -0.321,-2.007683 -2.6145,-9.822025 -5.0965,-17.365204 -2.4821,-7.543179 -4.5129,-14.256756 -4.5129,-14.919059 0,-0.662303 -0.8309,-2.772523 -1.8465,-4.689378 -1.0156,-1.916855 -2.1561,-4.835191 -2.5345,-6.485191 -0.3784,-1.65 -1.4126,-5.373751 -2.2982,-8.275003 l -1.6103,-5.275003 -9.1052,0.60529 c -12.8144,0.851859 -30.5708,3.135534 -37.3556,4.804327 -3.1623,0.777815 -10.0247,2.177395 -15.2497,3.110178 -5.225,0.932783 -12.2,2.32427 -15.5,3.092192 -3.3,0.767923 -9.80609,1.889901 -14.45802,2.493284 -4.65193,0.603383 -9.18659,1.486962 -10.07703,1.963509 -0.89044,0.476547 -4.05931,1.164644 -7.04195,1.529104 -2.98263,0.36446 -9.84985,1.758112 -15.26047,3.097004 -5.41063,1.338892 -10.69813,2.161198 -11.75,1.827346 -4.0739,-1.293004 -0.88786,-9.35615 4.46124,-11.29041 3.09167,-1.117963 9.13339,-2.038773 27.62626,-4.210478 5.225,-0.613596 17.825,-2.707464 27.99997,-4.653039 10.175,-1.945575 20.525,-3.894889 23,-4.331808 2.475,-0.436919 7.3004,-1.521807 10.7232,-2.410862 8.6307,-2.241844 24.6423,-4.562678 31.5268,-4.569736 3.1625,-0.0032 5.75,-0.422899 5.75,-0.932571 0,-0.509672 -0.5831,-1.072172 -1.2958,-1.25 -0.9732,-0.242803 -1.0879,-1.357212 -0.4607,-4.474796 0.9623,-4.782998 3.0866,-5.799106 9.8594,-4.716084 3.3341,0.53314 4.538,1.33943 6.1961,4.149689 l 2.0579,3.487977 9.5716,-0.65255 c 15.0159,-1.023733 30.9319,-2.602283 38.5715,-3.825538 3.85,-0.616466 12.4,-1.467538 19,-1.891273 19.6959,-1.264522 38.0628,-2.716386 54.5,-4.3081 8.525,-0.8255299 23.6,-1.9973689 33.5,-2.6040849 9.9,-0.606717 20.1935,-1.473679 22.8745,-1.926582 2.681,-0.452902 16.856,-0.925028 31.5,-1.049168 14.644,-0.12414 28.8755,-0.403853 31.6255,-0.621585 11.0029,-0.871159 115.293,-0.392676 120.8964,0.554673 5.9505,1.00605 11.4201,3.929394 13.4583,7.1931099 1.9155,3.067102 2.4888,9.367027 0.9956,10.939218 -0.7427,0.781974 -1.9697,2.623505 -2.7268,4.092292 -2.3622,4.583061 -8.8976,10.171323 -13.3733,11.435205 -2.3376,0.660104 -6.7252,1.917678 -9.7502,2.794609 -8.1154,2.352613 -22.1512,4.672836 -36.5,6.033728 -35.7464,3.390315 -52.1458,5.137018 -76,8.094777 -25.0876,3.110688 -34.065,4.443552 -51,7.571961 -2.75,0.508007 -8.375,1.314459 -12.5,1.792115 -25.4499,2.946979 -102.5695,21.432756 -123.5,29.603297 -3.3,1.2882 -9.5476,3.06988 -13.8836,3.95928 -12.046,2.470904 -11.6524,2.002994 -9.4596,11.247454 1.9335,8.1514 6.0736,22.95496 8.3334,29.79705 1.3107,3.96856 1.3591,3.99884 6.1654,3.85188 2.6644,-0.0815 7.0944,-0.6299 9.8444,-1.21873 2.75,-0.58883 9.725,-1.75179 15.5,-2.58435 5.775,-0.83256 12.975,-2.19129 16,-3.01941 3.025,-0.82811 6.85,-1.51235 8.5,-1.52055 1.65,-0.008 7.5653,-0.9013 13.1452,-1.98468 5.5799,-1.08339 13.9049,-2.17921 18.5,-2.43515 4.5951,-0.25595 10.6048,-0.91395 13.3548,-1.46223 2.75,-0.54827 6.6743,-1.26902 8.7208,-1.60166 3.2284,-0.52476 3.9819,-1.19508 5.6938,-5.06496 l 1.9729,-4.46016 5.9674,0 c 5.3647,0 6.2151,0.29451 8.4213,2.91638 l 2.4539,2.91639 16.385,-1.40896 c 26.7006,-2.296 43.8254,-3.39321 53.2063,-3.40898 6.4885,-0.0109 9.2177,-0.41112 10.3199,-1.51333 2.2504,-2.25041 6.2231,-2.92128 11.3041,-1.90895 2.505,0.4991 8.2387,0.76158 12.7414,0.58329 8.147,-0.32259 8.19,-0.33845 8.832,-3.26167 1.0468,-4.76576 6.135,-7.91417 12.7903,-7.91417 4.5627,0 6.0008,0.42339 7.6423,2.25 7.8731,8.76115 7.9431,8.81392 10.7865,8.12286 1.5191,-0.36923 4.4582,-2.48835 6.5312,-4.70916 l 3.7691,-4.03784 5.7309,2.03193 c 5.2374,1.85695 5.8467,2.38973 7.0758,6.18707 0.7397,2.28533 1.6866,4.15514 2.1043,4.15514 0.4177,0 1.2353,-4.70573 1.817,-10.45717 0.7753,-7.66576 1.6796,-11.563774 3.3876,-14.602764 2.3057,-4.102461 2.3768,-4.139183 6.8293,-3.528902 5.9209,0.811551 9.0927,3.991642 9.6957,9.721136 0.3852,3.65941 0.052,4.79727 -2.0563,7.01661 -1.3838,1.4569 -3.0278,2.81951 -3.6533,3.02801 -0.7239,0.2413 -1.3308,4.73076 -1.6696,12.35109 -0.4704,10.58057 -0.276,12.72523 1.6725,18.453 4.023,11.82571 4.727,12.18109 11.593,5.85217 4.9452,-4.55826 5.0023,-5.01128 1.8437,-14.61813 -1.6852,-5.12543 -1.9059,-27.46995 -0.3677,-37.215044 2.3132,-14.654626 5.7625,-20.000004 12.9057,-20.000004 2.9149,0 4.1306,0.613434 5.8651,2.959507 1.2034,1.62773 2.1881,3.234872 2.1881,3.571429 0,0.336557 0.6591,1.271022 1.4646,2.07659 1.2863,1.286224 1.7479,1.003399 3.7889,-2.321429 4.0615,-6.616304 8.6406,-16.73915 14.8847,-32.904592 5.6162,-14.540141 11.4434,-19.115807 13.3411,-10.475801 0.8901,4.052602 -7.4381,28.662297 -13.4134,39.636691 -5.3698,9.862233 -8.3696,13.376275 -14.2312,16.670639 l -3.8347,2.15525 0,8.983944 c 0,10.52366 -1.3919,19.87006 -4.156,27.90688 -2.7635,8.03498 -2.2936,10.16184 2.3299,10.54672 5.3624,0.44639 6.5156,2.34248 3.9496,6.49423 -3.2076,5.19005 -9.657,7.25725 -14.061,4.5069 -1.6374,-1.02256 -2.3856,-0.71933 -5.2364,2.12203 -4.568,4.55279 -10.3402,7.02288 -16.4725,7.04905 -4.6909,0.02 -5.4328,-0.30422 -8.3816,-3.66264 -1.7793,-2.02654 -4.3372,-5.96404 -5.6842,-8.75 l -2.449,-5.0654 0.5987,9.72044 0.5987,9.72045 -4.0935,2.08836 c -2.2515,1.1486 -4.7981,1.9494 -5.6592,1.77956 -2.3299,-0.45952 -4.1661,-7.95002 -4.9173,-20.05881 -0.6323,-10.19248 -1.7234,-13.47192 -2.828,-8.5 -1.121,5.04573 -5.7891,27.45011 -6.2785,30.13351 l -0.5259,2.8835 4.8831,-0.83754 c 2.6857,-0.46065 6.8907,-0.85823 9.3444,-0.8835 4.4511,-0.0459 4.4632,-0.0364 5.2991,4.15486 1.0276,5.15239 -0.6109,8.76249 -7.8039,17.19375 -4.8359,5.66844 -6.6264,7.05439 -15.0499,11.64961 -2.2514,1.22817 -6.0764,3.48568 -8.5,5.01669 -2.4237,1.531 -15.4316,8.11393 -28.9066,14.62872 -13.475,6.51479 -25.175,12.22325 -26,12.68547 -1.2226,0.68495 -1.5509,3.95152 -1.775,17.66031 -0.169,10.33387 -0.6982,17.32984 -1.3725,18.14227 -1.3696,1.65036 -6.0497,1.72519 -7.6525,0.12236 -0.8215,-0.82145 -1.2,-5.71111 -1.2,-15.5 0,-13.66545 -0.089,-14.3 -2.0136,-14.3 -1.1075,0 -2.795,0.44061 -3.75,0.97914 -0.955,0.53853 -6.0114,2.82642 -11.2364,5.08419 -16.3589,7.06885 -40.294,19.06079 -45.3033,22.69778 -3.5304,2.56325 -4.7229,4.05076 -4.5,5.61316 0.2969,2.08123 0.8267,2.14036 25.3033,2.82466 28.0713,0.7848 53.6405,2.289 63.7752,3.7518 11.192,1.61542 29.9159,6.74978 36.4655,9.99935 3.3809,1.67746 6.777,3.04992 7.5469,3.04992 2.9684,0 14.0451,8.5397 16.8333,12.97783 3.2238,5.13129 3.875,12.32322 1.4109,15.58104 -0.8075,1.06762 -1.4825,2.57456 -1.5,3.34876 -0.017,0.77419 -1.776,3.69919 -3.9078,6.5 -2.1317,2.8008 -5.0036,6.89237 -6.3818,9.09237 -1.3783,2.2 -3.4943,5.125 -4.7022,6.5 -5.618,6.39506 -10.226,11 -11.0073,11 -0.4714,0 -2.8843,2.8125 -5.3618,6.25 -2.4776,3.4375 -8.9296,10.75423 -14.3378,16.2594 -23.805,24.23178 -29.3965,32.78055 -32.0335,48.97578 -1.5945,9.79198 -1.3161,16.91195 1.1134,28.47621 1.2756,6.07233 1.3377,7.98055 0.3331,10.25 -0.6789,1.53374 -1.687,2.79475 -2.2402,2.80226 -0.5533,0.008 -1.9445,0.26567 -3.0916,0.57368 -1.3715,0.36823 -3.1199,-0.31011 -5.1054,-1.98084 z M 172.31618,238.72631 c 11.8122,-1.6793 42.9467,-7.51008 55.3085,-10.35799 4.675,-1.07703 10.4538,-2.27438 12.8419,-2.66077 l 4.3419,-0.70254 -0.6777,-3.61203 c -0.5845,-3.11593 -3.1176,-9.24395 -3.7818,-9.14909 -1.0041,0.14339 -31.7356,8.29404 -37.2243,9.87266 -3.85,1.10732 -14.2,4.56913 -23,7.69291 -8.8,3.12379 -17.4625,6.17735 -19.25,6.78569 -3.7111,1.263 -4.3677,3.6258 -1,3.59838 1.2375,-0.0101 6.8362,-0.67032 12.4415,-1.46722 z m 285.9364,-15.03969 c 2.1296,-0.83887 4.7011,-1.9936 5.7143,-2.56607 7.2193,-4.07885 36.7284,-18.9087 37.6253,-18.9087 0.6124,0 2.3327,-0.82049 3.823,-1.82331 1.4902,-1.00282 5.972,-3.97569 9.9595,-6.60637 3.9875,-2.63069 7.25,-5.1852 7.25,-5.6767 0,-1.17409 -6.2001,-1.14827 -9.3224,0.0388 -2.1472,0.81637 -11.0426,2.45282 -52.4276,9.6449 l -9.25,1.60751 0,12.90757 c 0,14.30434 -0.1475,14.05113 6.6279,11.38234 z m -186.4427,-3.43385 c 5.6996,-0.82683 16.1638,-3.01347 37.8148,-7.90191 2.475,-0.55881 7.2,-1.72187 10.5,-2.58456 11.296,-2.95305 23.9057,-5.55445 26.9239,-5.55445 1.6596,0 5.3082,-0.53256 8.1079,-1.18347 l 5.0904,-1.18347 -0.4409,-8.56653 c -0.5558,-10.79928 -1.3654,-13.06653 -4.6659,-13.06653 -3.7438,0 -20.0185,3.85941 -27.7694,6.58528 -3.7147,1.3064 -10.9147,3.24604 -16,4.31032 -15.0794,3.15588 -50.8427,12.59736 -53.996,14.25488 -2.2347,1.17464 -2.3709,8.4279 -0.2534,13.49564 1.3821,3.30797 1.7454,3.53533 4.75,2.97325 1.7893,-0.33475 6.2617,-1.04505 9.9386,-1.57845 z m 120.4766,-24.39136 c 1.4513,-1.43605 5.1176,-13.7609 5.9927,-20.14554 l 0.6558,-4.78482 -3.9052,0.72334 c -2.1478,0.39784 -5.5926,1.24558 -7.6551,1.88388 l -3.75,1.16054 0,11.08985 c 0,6.09942 0.3158,11.40567 0.7018,11.79166 0.9329,0.93293 6.4935,-0.26784 7.96,-1.71891 z m 18.0132,-1.42758 c 0.8988,-0.57167 0.9001,-1.62607 0.01,-4.48468 -1.3804,-4.41056 -1.9628,-4.60749 -3.5198,-1.19025 -2.3642,5.18883 -0.4869,8.22004 3.5145,5.67493 z m 27.306,-4.47198 -0.019,-5.25 -2.981,4.74705 c -1.6396,2.61088 -2.981,4.97338 -2.981,5.25 0,0.27662 1.35,0.50295 3,0.50295 2.9548,0 2.9997,-0.0791 2.981,-5.25 z m -167.2625,0.64152 c 7.5798,-1.98466 17.3694,-4.22564 21.7546,-4.97995 4.3852,-0.75431 9.3352,-1.86482 11,-2.46781 1.6648,-0.60298 8.8769,-2.37987 16.0269,-3.94863 7.15,-1.56876 15.475,-3.60762 18.5,-4.53079 3.025,-0.92316 7.9217,-2.04952 10.8816,-2.50302 2.9599,-0.45349 5.7,-1.1928 6.0892,-1.64292 0.3892,-0.45012 0.2492,-7.94601 -0.3111,-16.65752 l -1.0186,-15.83911 -2.5706,0.51262 c -1.4138,0.28194 -5.4955,0.80239 -9.0705,1.15656 -3.575,0.35417 -9.65,1.28411 -13.5,2.06654 -9.7787,1.98731 -25.7362,4.4425 -28.8739,4.4425 -1.4444,0 -2.6261,0.39758 -2.6261,0.8835 0,0.48593 -2.8125,1.1254 -6.25,1.42105 -12.29,1.05701 -20.7938,2.67062 -24.9886,4.74164 -2.6998,1.3329 -7.1489,2.31524 -12.1409,2.68062 l -7.8795,0.57673 0.6515,7.09823 c 0.3584,3.90404 1.2617,8.89824 2.0073,11.09824 1.8951,5.59124 3.6002,13.097 3.6002,15.84768 0,4.69426 0.9492,4.69649 18.7185,0.0438 z M 43.43313,188.16983 c 5.33037,-0.57312 13.74158,-1.67903 18.69158,-2.45758 4.95,-0.77855 14.85209,-2.3228 22.00465,-3.43165 7.15256,-1.10886 15.91116,-2.97025 19.46354,-4.13644 3.55239,-1.16619 8.50028,-2.49674 10.99538,-2.95677 8.5892,-1.58366 20.5604,-4.77927 31.0364,-8.28491 5.775,-1.93251 17.475,-4.69247 26,-6.13322 8.525,-1.44076 19.1,-3.80806 23.5,-5.26068 4.4,-1.45262 10.025,-2.95395 12.5,-3.33629 10.3863,-1.6045 17.9992,-3.48297 17.9881,-4.4385 -0.01,-0.56207 -0.6377,-3.3726 -1.4025,-6.24561 -0.7649,-2.87302 -1.6873,-7.59802 -2.0497,-10.5 -0.3624,-2.90199 -1.2684,-6.62634 -2.0132,-8.27634 -0.7448,-1.65 -2.1384,-5.8125 -3.0968,-9.25 -1.6646,-5.97064 -1.883,-6.25 -4.8842,-6.25 -1.7279,0 -3.6351,0.4934 -4.2381,1.09644 -0.6031,0.60305 -4.3364,1.71379 -8.2963,2.46831 -3.9599,0.75453 -9.069,2.4075 -11.3535,3.67329 -2.2846,1.26578 -6.8538,3.1503 -10.1538,4.18783 -3.3,1.03753 -7.9076,2.71616 -10.2391,3.73028 -2.3315,1.01412 -4.5983,1.84385 -5.0373,1.84385 -2.5205,0 -54.60423,21.6422 -78.22357,32.50398 -11.84711,5.44811 -28.61997,12.49603 -29.73846,12.49603 -0.46224,0 -3.74768,1.51513 -7.30099,3.36695 -3.5533,1.85182 -7.88404,3.679 -9.62385,4.06041 -1.73982,0.38141 -6.23982,2.53067 -10,4.77613 -8.35246,4.98783 -7.70089,4.40506 -6.99162,6.25338 0.72112,1.87923 8.11229,2.04411 22.46334,0.50111 z m 415.19155,-2.95798 c 0,-1.1 -0.4012,-2 -0.8914,-2 -1.703,0 -4.0576,-7.94929 -4.725,-15.95169 -0.5975,-7.16436 -0.8913,-8.04832 -2.6756,-8.04832 -1.8959,0 -1.9697,0.44697 -1.3622,8.25001 0.3532,4.5375 0.6449,10.8375 0.6482,14 l 0.01,5.75 4.5,0 c 3.8333,0 4.5,-0.2963 4.5,-2 z m -30.8541,-9.06132 c 1.5279,-3.54127 2.7951,-7.69168 2.816,-9.22312 0.038,-2.78063 0.031,-2.78354 -5.2119,-2.11453 -2.8875,0.36845 -5.4427,0.83913 -5.6782,1.04596 -0.2355,0.20683 -0.3223,2.69686 -0.1929,5.5334 0.2735,5.9941 2.5599,12.17333 4.2908,11.59637 0.659,-0.21967 2.4483,-3.2968 3.9762,-6.83808 z m 62.1462,4.64627 c 3.9643,-0.77828 8.8954,-1.69867 10.9579,-2.04531 l 3.75,-0.63027 0,-7.38232 c 0,-6.80166 -1.7023,-22.5524 -2.5273,-23.38462 -0.195,-0.19666 -2.5968,0.21712 -5.3374,0.91952 l -4.9829,1.27708 -3.0762,8.59974 c -1.6919,4.72986 -3.0869,9.49109 -3.1,10.58049 -0.013,1.08941 -1.0878,4.56824 -2.3883,7.73074 -1.3006,3.1625 -1.9459,5.75 -1.4341,5.75 0.5118,0 4.174,-0.63677 8.1383,-1.41505 z m -18.2264,-15.62013 c 1.5136,-0.81008 1.9343,-2.1149 1.9343,-6.00001 l 0,-4.96482 -3.5314,0 c -4.4918,0 -5.1442,1.66417 -2.9276,7.46829 1.9186,5.02362 1.8174,4.94545 4.5247,3.49654 z m -78.2196,-3.58555 c 3.1096,-0.8914 6.2164,-2.0715 6.9039,-2.62244 0.8787,-0.70419 1.25,-4.67816 1.25,-13.37928 l 0,-12.37756 -3.3491,0 c -1.8421,0 -6.842,0.29525 -11.1109,0.65611 l -7.7618,0.65611 0.5146,5.09389 c 0.9015,8.92303 2.7977,21.93142 3.3203,22.77696 0.7664,1.23996 3.9854,0.9871 10.233,-0.80379 z m 37.9039,-9.64874 c 0.7955,-0.62077 1.25,-3.61335 1.25,-8.23054 0,-4.90299 0.4416,-7.62164 1.3622,-8.38568 1.5442,-1.28156 9.334,-0.61132 11.2354,0.9667 0.6691,0.5553 1.5275,3.68923 1.9076,6.9643 0.4773,4.11234 1.1249,5.95468 2.093,5.95468 1.1089,0 1.4018,-2.08908 1.4018,-10 l 0,-10 -6.25,0.004 c -3.4375,0.002 -11.9875,0.29667 -19,0.65432 l -12.75,0.65026 0,2.88187 c 0,2.29965 2.8331,15.74388 4.5233,21.46488 0.3743,1.26719 11.888,-1.09989 14.2267,-2.92485 z m 37.6981,-8.64662 c 0.7728,-1.25048 -1.1524,-6.08392 -2.4234,-6.08392 -0.5636,0 -1.0247,1.575 -1.0247,3.5 0,3.37247 2.0236,4.88888 3.4481,2.58392 z m 31.9449,-7.66571 c 1.5223,-3.967 -0.03,-8.41821 -2.9356,-8.41821 -1.6739,0 -4.8766,6.46531 -4.1459,8.36944 0.8241,2.14756 6.2617,2.18502 7.0815,0.0488 z m -17.3794,-1.66821 c 0.01,-1.2375 0.285,-3.2625 0.6167,-4.5 0.5309,-1.98102 0.2304,-2.25 -2.5137,-2.25 -3.4799,0 -4.0458,1.86665 -1.9561,6.45295 1.4354,3.15041 3.8347,3.33538 3.8531,0.29705 z m 103.6686,-13.76115 c 1.8761,-7.33068 1.4297,-24.488844 -0.6371,-24.488844 -2.2107,0 -2.8364,3.78839 -2.9454,17.833324 -0.1095,14.09125 1.1031,16.34394 3.5825,6.65552 z M 238.31748,87.752818 c 9.5252,-3.44088 26.3295,-8.144078 35.8072,-10.021741 12.9403,-2.563666 27.496,-6.144657 42.5,-10.455835 3.575,-1.027226 8.975,-2.163714 12,-2.525529 5.8219,-0.696352 17.8469,-2.837534 40,-7.122465 19.4124,-3.754816 21.9511,-4.176685 29.086,-4.833379 3.5277,-0.324687 11.814,-1.46635 18.414,-2.53703 6.6,-1.070679 21.45,-3.112162 33,-4.536628 11.55,-1.424467 24.375,-3.011437 28.5,-3.526601 4.125,-0.515165 15.375,-1.854247 25,-2.975739 9.625,-1.121492 19.525,-2.454925 22,-2.963184 2.475,-0.508259 9.675,-1.903646 16,-3.100859 17.3352,-3.281254 30.9738,-10.286341 26.729,-13.728601 -1.5842,-1.284641 -9.4392,-2.774996 -23.229,-4.407289 -22.2707,-2.63617 -147.2477,-1.162488 -191.5,2.258095 -24.8734,1.922647 -64.3694,5.935101 -78,7.924126 -7.425,1.083482 -20.475,2.44538 -29,3.026439 -8.525,0.581059 -20.45,1.615575 -26.5,2.298924 -10.2483,1.157547 -11.0223,1.398055 -11.3267,3.519428 -0.1798,1.252337 0.117,2.814707 0.6595,3.471934 1.2704,1.539239 12.7264,36.025724 13.5874,40.902718 0.36,2.039268 1.31,4.964268 2.111,6.5 0.8011,1.535732 1.4592,3.35474 1.4626,4.04224 0.01,1.976969 5.2641,1.476717 12.699,-1.209024 z"
     id="path2901" />
</svg>
