<?xml version="1.0" encoding="iso-8859-1"?>
<!-- Generator: Adobe Illustrator 13.0.2, SVG Export Plug-In . SVG Version: 6.00 Build 14948)  -->
<!DOCTYPE svg PUBLIC "-//W3C//DTD SVG 1.1//EN" "http://www.w3.org/Graphics/SVG/1.1/DTD/svg11.dtd">
<svg version="1.1" id="Layer_1" xmlns="http://www.w3.org/2000/svg" xmlns:xlink="http://www.w3.org/1999/xlink" x="0px" y="0px"
	 width="290px" height="65px" viewBox="0 0 290 65" style="enable-background:new 0 0 290 65;" xml:space="preserve">
<g>
	<path d="M45.191,21.999c-0.914-1.43-0.515-4.004-3.26-3.375c-0.744,0.4-1.488,1.773-0.744,2.402
		c0.574,1.087,1.661,2.002,3.09,2.002C44.562,22.742,45.648,22.972,45.191,21.999L45.191,21.999z M92.611,24.744l-0.63-1.086
		c-2.516-0.687-5.146,1.83-6.521,3.317c0.516,0.229,0.8,0.915,1.658,0.687C88.895,26.689,91.867,27.204,92.611,24.744L92.611,24.744
		z M142.433,47.053c-0.114-4.576-3.72-8.638-6.578-12.413l-2.06,0.572c-0.973,2.746,1.087,7.951-2.917,8.122
		c-3.832-2.002-3.434-5.834-4.233-9.151c-0.857-0.744-2.059-0.286-2.688,0.457c-0.914,2.975,0.803,7.322-2.917,9.209
		c-5.434,0.516-4.289-5.49-6.348-8.236c-4.807,0-1.201,6.75-5.606,8.523c-0.858-0.229-1.945,0.229-2.631-0.287
		c-1.259-2.745-3.204-5.205-2.633-8.637c-1.658-2.631-4.118,0.744-6.576-1.315c-3.031,2.517-2.46,6.979-3.031,10.925l-4.921,0.629
		c-4.632-1.772-3.032-7.778-3.832-11.268c-0.972-0.172-1.83,0.229-2.688,0.457c-0.744,4.118-2.346,7.723-5.548,10.182
		c-3.318-3.031-5.894-7.722-5.378-11.84c-0.229-0.915-0.398-3.261-2.344-2.288c-3.031,4.634,3.316,9.209-0.23,14.128
		c-1.257,1.373-2.631,4.232-5.261,2.574c-6.178-4.062-5.891-11.211-6.579-17.731c-1.201-0.115-2.803-0.115-3.031,1.258
		c-0.114,3.775,1.83,8.123-0.285,11.555c-1.602,1.659-2.688,4.576-5.321,3.718c0.116-1.259-0.284-2.631,0.345-3.718
		c3.604-12.527-11.897-6.635-16.13-11.783c-3.605,2.06,0.972,4.919,1.314,7.55c0.343,3.833,2.517,7.608-0.629,10.812
		c-1.658,0-2.745-1.03-3.946-2.002c-7.437-4.919-7.094-13.156-9.669-20.077c-0.857-0.687-1.886,0-2.571,0.687
		c0,6.234,5.604,11.383,2.343,17.789c-0.914,1.83-3.031,4.061-4.976,3.604c-5.376-6.235-2.174-15.044-2.631-22.651
		c-0.572,0.344-1.602,0.286-1.602,1.259C10.129,33.268,8.698,39.331,9.9,45.451c1.602,2.573,1.602,6.921,5.892,6.292
		c3.717-0.973,6.119-5.435,7.036-8.924c4.232,2.804,6.348,10.64,12.812,8.58c3.375-4.347,2.06-11.383,0-15.787
		c1.603-1.716,4.232,0.229,6.521-0.399c7.722,1.2,1.544,9.723,5.434,13.842c4.748,1.258,7.208-4.462,9.382-6.235
		c2.402,3.032,4.177,7.665,9.265,6.235c4.235,0.972,4.35-4.119,6.236-5.892c1.603,1.658,2.574,3.604,3.603,5.147
		c4.348,1.145,4.119-4.462,6.693-6.521c1.031,1.773,1.889,3.546,3.661,4.977c2.859,2.059,7.379-1.431,9.839,0.629
		c3.146,1.888,4.977-2.288,6.863-3.547c1.26,1.603,3.204,2.518,5.434,2.518c2.517-0.286,3.948-2.803,5.434-4.576l0.401,0.344
		c0.858,2.23,2.46,4.404,5.205,4.061c2.63,0,4.461-2.631,5.893-4.061c1.772,1.43,3.888,3.946,6.406,4.232
		c3.659-0.058,2.804-4.29,4.232-6.807c1.945,2.402,4.518,4.576,4.005,7.836C141.06,47.682,141.631,46.995,142.433,47.053
		L142.433,47.053z M98.675,40.817l-1.146,0.4l0.688-2.803C99.018,38.758,99.19,40.188,98.675,40.817L98.675,40.817z"/>
	<path d="M206.631,23.2c-0.114-1.144,0.23-2.174-0.343-3.089c-1.371-1.315-3.146-6.521-4.518-1.487
		C203.543,19.997,203.713,24.059,206.631,23.2L206.631,23.2z M283.851,48.769c-0.515-4.92-5.434-6.979-9.78-8.58
		c-1.259,0.858-1.259,2.116-1.145,3.66c-0.285,1.316-1.658,3.376-3.431,3.032c-2.174-0.973-3.775-3.317-4.807-5.491
		c-0.513-0.801,0.401-4.232-2.115-3.718c-0.688,0.343-2.059,0.743-1.543,1.888c0.627,2.574-0.744,5.033-3.091,6.692
		c-1.429,0.629-3.717,1.602-4.748-0.229c1.146-0.858,2.347-1.03,3.319-2.175c1.086-1.772,0.457-4.518-0.688-6.177
		c-2.402-0.743-3.488-3.604-6.576-2.06c0.457,1.545-1.66,2.402-2.174,3.318c-3.204-3.261-7.322-0.173-11.039-0.287
		c-1.374-1.144-0.973-3.031-1.488-4.575c-0.858-0.744-1.658-0.973-2.688-0.343c1.716,5.434-3.776,1.887-5.434,3.774
		c0.286,3.661,5.091,1.373,6.121,4.062c-0.688,2.116-2.861,3.031-4.578,3.489c-3.031-0.344-4.689-4.348-6.462-6.636
		c-4.748-1.315-0.916,4.805-3.318,6.292c-2.401,2.06-4.06-2.402-5.492-3.317c-1.2-1.087-0.114-3.375-2.114-3.89
		c-4.291,0.114-0.516,5.148-3.72,6.75c-3.604-1.259-4.233-5.319-6.062-8.008c-0.802-0.115-1.546,0.171-2.117,0.857
		c0.229,3.833,0,7.951-3.031,9.781c-2.804-1.545-2.804-4.805-4.177-7.321c-1.772-3.146,2.003-6.235-1.028-8.924
		c-4.062,1.029-0.858,6.521-2.631,9.267c-2.06,2.174-3.547,6.235-7.379,5.148c-3.204-2.288-5.205-6.293-5.205-9.953
		c0.914,0.915,2.001,2.517,3.718,2.402c3.146-1.373,2.688-5.319,3.031-8.236c-2.574-1.373-4.232-6.636-7.606-3.775l-2.461-3.375
		c-2.516-2.116-5.319-4.004-9.095-3.317c-5.721,4.519-12.413,8.122-16.702,14.128c-0.287,1.145-1.03,3.375,0.63,3.891l3.659-6.179
		c4.291-3.718,9.095-8.008,14.244-9.838c2.63,0.229,4.862,1.315,6.634,3.66c3.662,2.632,0.917,8.009,1.315,10.869
		c1.146,4.747,3.032,10.581,8.466,12.126c3.433-0.229,6.177-3.203,8.181-5.892c2.229,2.688,2.744,7.207,6.807,8.065
		c3.261-0.973,4.119-4.634,5.434-7.379l2.631,3.775c2.745,2.001,5.091-0.858,7.15-2.46c1.429,2.574,4.291,4.461,7.835,3.661
		c1.488-0.63,1.775-2.231,2.404-3.376c1.485,0.287,2.229,2.175,3.659,2.746c2.917,0.516,6.122-0.457,8.523-2.116
		c0.229,0.229,0.744,0.515,0.571,0.857c1.26,0.916,3.89,1.145,4.862-0.629c1.146-1.373-0.63-2.459-1.143-3.546
		c1.143-2.06,3.261-1.545,5.146-1.602c1.603,0.629,2.918,2.23,3.032,4.004c2.633,2.917,5.606,5.605,9.666,5.49
		c2.917-0.686,5.835-2.287,7.381-4.804c2.174,1.658,4.004,5.033,7.32,4.804c4.062,0,2.803-4.804,6.122-5.49
		c2.343,1.144,4.631,3.031,5.434,5.72C282.822,49.512,283.222,48.883,283.851,48.769L283.851,48.769z M163.045,44.707
		c1.201-5.091-1.772-8.98-2.001-13.728c-0.744-1.087-1.774-1.145-2.747-1.487c-1.945,2.173,0.688,4.576,1.201,6.75
		c-0.229,2.688,2.173,5.72,0,8.236c-3.659,1.545-5.032-3.89-7.607-1.83c0.917,2.059,2.689,3.375,4.862,3.946
		C158.64,46.48,162.072,47.225,163.045,44.707L163.045,44.707z M179.29,32.238c-0.516,0.8-0.173,2.116-1.26,2.23
		c-1.371-1.545-2.401-3.89-1.544-5.435C178.03,29.264,178.546,31.094,179.29,32.238L179.29,32.238z M254.337,40.703
		c0.284,1.373-0.114,2.288-1.146,3.146c-1.314-0.171-3.087,0.401-3.488-1.2c-0.114-1.716,0.686-3.203,1.374-4.576
		C252.907,37.843,253.707,39.445,254.337,40.703L254.337,40.703z"/>
</g>
</svg>
