<?xml version="1.0" encoding="utf-8"?>
<svg version="1.1" id="Layer_1" xmlns="http://www.w3.org/2000/svg" xmlns:xlink="http://www.w3.org/1999/xlink" x="0px" y="0px" viewBox="0 0 178.49 159.93" xml:space="preserve"><path d="M112,.39c3.35,2.18-1.29,7.16-2.73,9.13C104,16.81,98.54,26,95.69,34.39c1.47,0,4.59-.51,5.6.94,4.75,6.83-4.75,16.29-11.08,16.45-11.24.28-1.89-17.08.63-21.59C91.57,28,74.77,45.56,68.13,51.66c-3.27,3-11.76,10.75-15.94,8.74-8,7.4-16,14.44-27.76,13.11-.92-.11-1.35-1.17-1.86-1.89-2.34-3.31,2.5-9.32,4.57-11.45,1.79-1.85,3.84-4.22,5.6-6a70.61,70.61,0,0,1,10.87-9,10.52,10.52,0,0,0,2-1.36c-1.24-1.31-5-2-6.62-2.42-5.21-1.22-10.38,3.36-15,1.42-4.21-1.79,1.71-6.47,4.23-7.17.59-.17,1.11.27,1.7,0,3.88-1.87,19-12.74,12.44-17.82s-16.13-1.36-22.24,2.81c1.28,13.67-.73,33.46-4.66,46.79a48.26,48.26,0,0,1-3.71,8.79C10.62,78.38,8.22,78,6.24,77.71,1.27,77.05.62,64.57.37,61c-.8-11.52-.76-22.37,5-32.79,3.31-6,9.13-10.21,14.81-13.89s14.6-4.87,21.14-3c4.8,1.37,9.59,4.32,9.08,9.8-.48,5-3.77,9.31-7.51,12.57a14,14,0,0,0-2.22,1.77c3.55.56,8.87,2.42,11.67,4.87C55.77,39.1,59,36,62.84,38c4.15,4-1.12,8.48-3.2,12.64a1.83,1.83,0,0,0,.55-.3C70.76,41.24,80.77,31.53,90.64,21.7,95.86,16.5,101,11.25,105,5c1.2-1.89,4.35-6.34,7-4.61ZM13.16,25.94a31,31,0,0,0-6.7,15.49C4.87,51.09,5.66,72.1,8.3,71.76c2.47-.32,6.08-31.4,6.49-38.12.17-2.94-.08-5.91-.2-8.88a3.15,3.15,0,0,0-1.43,1.18ZM92.1,40.83a11.23,11.23,0,0,0-1.28,4.5c0,1.79,4.22-2.89,6-4.65.94-1.43,1.53-2.24-3.34-2-1,.06-1,1.38-1.41,2.1ZM48.78,48.59A103.43,103.43,0,0,0,33.94,61.46a67.08,67.08,0,0,0-5.38,6.27c-1.83,2.53,5-1,7-2,6.15-3,9.49-6.06,13.69-11.75a6.62,6.62,0,0,0,1.16-6.07c-.23-.62-1.18.35-1.65.68Zm57.91,11.34c-2.1,2.37-3.86,6.41-5.26,9.31-7.78,16.08-17.12,31.88-23,48.84-1.2,2.93,0-2.86.08-3.28.23-3.07-1.61-5.13-4.71-3.1a75.89,75.89,0,0,0-10.93,6.38c-1.58,1.59-1.37.29-.88-1.1-.61-4.53-5.7-4-9.06-3C55,106.5,53.17,96.43,47.53,91S33.25,83.92,24.34,84.8c-1.35-2.54-4.82-3-5.19.61-18,5.53-17.85,19.88-12.93,37.51.82,2.92,4.6,21.21,10.9,13.55,3,.14,6,.71,9.06,0,8.7-2.34,17.57-6.21,22.48-14.26.47-.71.68-1.53,1.14-2.24a38.65,38.65,0,0,1,5.16-.47,14.18,14.18,0,0,0-.37,3.38c1.36,8.47,14.67-3.69,17.35-4.46a3,3,0,0,1,.27,1.71c-1.75,10.29-4.71,21.19-9.94,30.23-1.29,2.24-4.39,6.35-2,8.9,4.12,4.33,9.8-12.55,10.78-14.44,2.89-5.51,5-11.49,8.1-16.87,4.06-7,10.16-26.25,15.7-32.83-.35,4.12-2.2,8.12-2.81,12.22-.58,3.72-2.88,12.38,3.63,11.82a5.3,5.3,0,0,0,3.3-2c3.29-3.72,4.87-9,8.25-12.63.14,2.71-1.54,5.52.24,8.15,4.56,6.75,7.92-2.36,10.45-5.66.76-1,1.91-4.41,3.16-4.81.12,2.89.29,6.28,1.91,8.7,4.86,7.27,14.42.77,19.86-2.71,4.32-2.77,3.72,1.18,7.23,3.7,6.49,4.65,15.31.08,21.91,2.84.88.37,1.21,1.77,2.28,1.75,1.79,0,4.32-2.24,4.18-4-.31-3.89-4.17-4.08-7.52-3.77-6.57.62-17.48.4-20.73-6.54-2.07-4.41-7.65.26-9.8,1.63s-9.66,5.74-12.27,3.41c-3.5-3.14,2.84-16.75-3.57-16.08-5,.51-6.33,7.11-9.74,9.63-.1-1.34,5.46-13.16-1.08-10.55-7.25,2.88-10.59,10.29-14.52,16.38A8.2,8.2,0,0,1,98,108.67c-.08-3.33,1.55-7.77,2.26-11.08,1.73-9.07,5.46-17.86,8-26.72.27-.92,6.61-14.23,1.07-12.9a5.43,5.43,0,0,0-2.6,2ZM24.63,89.71c5.23-.41,12.61,1.14,17,3.71,6.87,4,7.58,14.28,5.39,21.21-1.06.21-2.14.15-3.19.39a76.23,76.23,0,0,0-22,8.6,5.67,5.67,0,0,1,.28-1.71c2.39-10.5,4.09-21.44,2.57-32.2Zm-4.95,1.18c1.5,3.79.45,13.53-.35,17.44-1.45,7.12-2.69,14.34-4.86,21.34C12,128.84,9,106.65,9.19,104c.56-6.7,4.22-11.13,10.49-13.09Zm22.18,30.65c-1.48,2.3-5.73,5.48-9,7.15s-9.17,3.7-12.62,2.63C23.59,127.18,36.2,120.83,41.86,121.54Z"/></svg>