<?xml version="1.0" standalone="no"?>
<!DOCTYPE svg PUBLIC "-//W3C//DTD SVG 20010904//EN"
 "http://www.w3.org/TR/2001/REC-SVG-20010904/DTD/svg10.dtd">
<svg version="1.0" xmlns="http://www.w3.org/2000/svg"
 width="300.000000pt" height="136.000000pt" viewBox="0 0 300.000000 136.000000"
 preserveAspectRatio="xMidYMid meet">
<metadata>
Created by potrace 1.10, written by Peter Selinger 2001-2011
</metadata>
<g transform="translate(0.000000,136.000000) scale(0.100000,-0.100000)"
fill="#000000" stroke="none">
<path d="M2588 1213 c-37 -43 -78 -91 -93 -108 -30 -35 -150 -211 -184 -271
l-23 -41 -77 -7 c-126 -10 -316 -51 -313 -67 8 -37 33 -41 184 -35 l147 6 -30
-52 c-17 -28 -46 -82 -65 -121 -20 -38 -38 -66 -41 -63 -3 3 -23 -9 -43 -28
-21 -18 -45 -38 -55 -43 -10 -6 -15 -15 -11 -22 6 -9 11 -9 22 0 19 16 18 7
-7 -41 -17 -32 -19 -43 -9 -55 7 -8 16 -13 20 -10 4 3 3 -13 -2 -35 -10 -38
-4 -80 9 -66 4 3 12 21 19 39 6 17 15 41 19 51 6 14 5 17 -3 12 -7 -4 -12 -4
-12 1 -1 4 48 103 107 220 125 245 96 223 295 223 144 0 154 -5 125 -65 -20
-41 -66 -77 -135 -104 -90 -36 -105 -23 -51 42 17 21 27 42 23 49 -5 8 -16 1
-34 -21 -24 -28 -29 -30 -40 -16 -13 16 -50 21 -50 7 0 -5 -18 -37 -41 -72
-22 -34 -39 -69 -37 -78 5 -28 28 -24 45 7 19 33 33 40 33 16 0 -23 19 -18 32
9 9 20 16 24 39 19 15 -3 50 2 77 11 107 36 181 110 170 169 l-5 26 131 -5
c97 -3 125 -2 107 6 -14 6 -74 13 -135 17 -96 5 -114 9 -136 28 -35 31 -82 44
-168 47 -53 1 -71 5 -68 14 12 32 149 222 242 336 57 69 104 131 104 137 0 24
-20 8 -82 -66z m-318 -450 c-1 -26 -33 -46 -77 -49 -26 -1 -88 -5 -138 -8
-136 -9 -137 8 -4 32 167 31 219 37 219 25z m255 -19 l40 -19 -72 -3 c-40 -1
-106 -2 -148 0 l-75 3 16 24 c16 23 21 23 108 19 59 -4 105 -12 131 -24z
m-195 -189 c0 -23 -30 -65 -46 -65 -7 0 -11 6 -9 13 20 56 26 67 40 67 8 0 15
-7 15 -15z m-274 -200 c-41 -69 -53 -65 -15 5 18 34 35 57 37 51 2 -6 -8 -31
-22 -56z"/>
<path d="M1860 1111 c-165 -49 -296 -109 -360 -167 -83 -75 -75 -180 22 -281
22 -22 38 -46 34 -51 -14 -23 -240 -165 -244 -154 -6 18 -29 15 -44 -5 -17
-23 -48 -29 -48 -9 0 21 -31 56 -49 56 -11 0 -11 3 2 18 18 20 22 42 9 42 -4
0 -27 -27 -51 -61 -31 -44 -40 -64 -32 -72 8 -8 19 -3 41 18 19 18 34 26 38
19 4 -6 20 -26 35 -46 l28 -36 102 60 c56 33 132 82 169 109 37 27 70 49 73
49 11 0 114 -80 144 -112 47 -51 56 -80 36 -122 -40 -83 -181 -148 -395 -181
-108 -17 -190 -19 -190 -6 0 18 96 93 175 136 76 42 179 76 273 90 23 4 42 11
42 16 0 13 -13 12 -133 -16 -74 -17 -134 -38 -189 -67 -83 -44 -198 -139 -198
-164 0 -52 365 -2 508 70 99 50 149 111 138 170 -8 42 -56 99 -130 153 -34 25
-60 47 -59 50 1 2 51 43 110 90 237 190 353 309 353 363 0 36 -41 70 -84 69
-17 0 -74 -13 -126 -28z m180 -16 c18 -22 0 -59 -63 -125 -55 -59 -243 -224
-341 -299 l-57 -44 -26 24 c-101 93 -110 209 -22 283 60 51 221 122 369 164
55 16 126 14 140 -3z"/>
<path d="M974 1110 c-48 -10 -168 -63 -178 -79 -4 -6 -11 -11 -17 -11 -5 0 2
18 16 40 16 25 21 41 14 46 -13 8 -12 9 -56 -68 -54 -94 -94 -145 -123 -158
-31 -14 -90 -66 -90 -80 0 -6 16 -18 35 -26 l36 -14 -27 -48 c-38 -65 -40 -67
-119 -81 -139 -25 -256 -106 -283 -198 -22 -77 -23 -107 -5 -143 42 -81 156
-116 357 -107 309 13 491 128 543 343 9 38 17 70 18 72 1 1 18 -5 38 -13 20
-8 42 -15 49 -15 18 1 -53 39 -73 40 -12 0 -18 14 -22 60 -8 71 -29 125 -63
161 l-25 27 33 20 c47 29 115 102 128 136 9 25 8 34 -8 55 -36 49 -83 60 -178
41z m131 -24 c43 -18 46 -45 8 -98 -24 -36 -111 -108 -129 -108 -4 0 -28 10
-53 22 -36 18 -64 23 -127 23 l-82 0 14 27 c23 44 128 106 227 133 68 18 100
18 142 1z m-175 -203 l35 -15 -65 -24 c-54 -19 -223 -64 -243 -64 -4 0 4 20
17 45 13 24 26 50 28 56 10 30 159 31 228 2z m-281 -55 c-13 -24 -25 -45 -26
-47 -1 -2 -14 0 -28 3 -19 5 -23 11 -18 21 10 16 86 75 91 70 2 -2 -6 -23 -19
-47z m365 -10 c26 -36 56 -125 56 -170 0 -24 -2 -27 -22 -19 -51 19 -212 33
-336 29 l-131 -4 28 50 29 50 89 18 c49 9 125 31 169 47 43 16 82 29 86 30 4
0 18 -14 32 -31z m-1 -199 c64 -13 63 -8 36 -109 -51 -196 -290 -320 -594
-307 -136 5 -197 22 -240 67 -22 23 -28 39 -28 74 0 62 47 152 100 193 42 31
133 66 207 79 l39 7 -44 -64 c-24 -35 -76 -108 -116 -163 -41 -54 -72 -103
-70 -109 8 -24 27 -16 46 20 10 21 44 70 73 109 30 39 74 103 99 142 44 70 44
71 94 75 87 8 338 -1 398 -14z"/>
<path d="M1925 410 c-3 -11 -10 -20 -15 -20 -21 0 -83 -67 -114 -124 -43 -77
-72 -174 -57 -189 6 -6 12 -9 15 -6 12 13 116 179 127 202 7 15 17 27 23 28 6
0 22 14 35 31 20 25 22 34 13 49 -8 12 -8 20 -2 24 11 7 4 25 -10 25 -5 0 -12
-9 -15 -20z m-87 -164 c-67 -114 -89 -126 -40 -23 27 59 90 143 99 134 2 -3
-24 -53 -59 -111z"/>
</g>
</svg>
