<?xml version="1.0" encoding="utf-8"?>
<!-- Generator: Adobe Illustrator 16.0.0, SVG Export Plug-In . SVG Version: 6.00 Build 0)  -->
<!DOCTYPE svg PUBLIC "-//W3C//DTD SVG 1.1//EN" "http://www.w3.org/Graphics/SVG/1.1/DTD/svg11.dtd">
<svg version="1.1" id="Layer_1" xmlns="http://www.w3.org/2000/svg" xmlns:xlink="http://www.w3.org/1999/xlink" x="0px" y="0px"
	 width="416px" height="109px" viewBox="0 0 416 109" enable-background="new 0 0 416 109" xml:space="preserve">
<g>
	<path d="M127.589,19.669c-10.474,32.509-34.533,66.069-68.457,75.89c-11.839,3.428-25.353,3.352-36.469-2.373
		C15.64,89.567,9.125,82.074,11.381,73.659c2.662-9.926,20.103-11.464,28.088-12.619c21.93-3.172,44.384-3.344,66.486-4.264
		c29.172-1.215,58.353-2.609,87.463-4.906c47.362-3.737,93.284-12.13,136.585-32.354c6.062-2.832,12.023-5.874,17.926-9.023
		c2.846-1.518,0.319-5.834-2.523-4.317c-21.546,11.497-44.023,20.896-67.579,27.405c-23.013,6.359-46.707,9.769-70.434,12.069
		c-28.589,2.771-57.335,4.181-86.022,5.466c-24.068,1.078-48.231,1.529-72.228,3.805c-12.016,1.14-27.623,1.976-37.454,9.963
		C0.99,73.575,7.051,88.109,16.384,95.156c19.134,14.445,47.898,6.85,66.195-4.789c17.222-10.954,29.992-28.144,39.521-45.903
		c4.012-7.477,7.702-15.371,10.311-23.466C133.402,17.92,128.574,16.613,127.589,19.669L127.589,19.669z"/>
</g>
<g>
	<path d="M178.815,53.508c-4.04-1.852-8.879-0.868-12.812,0.734c-4.885,1.989-16.338,8.725-11.936,15.542
		c3.699,5.729,13.551,2.83,18.194,0.375c0.903-0.478,1.763-1.004,2.726-1.357c-1.787,0.656-1.61-2.83-1.659-0.764
		c-0.022,0.965,0.064,1.936,0.393,2.848c1.002,2.783,3.792,3.514,6.446,3.781c3.208,0.324,3.177-4.68,0-5
		c-3.084-0.311-1.116-3.707-3.466-5.508c-1.176-0.9-3.09-0.226-4.246,0.296c-2.849,1.285-5.33,2.778-8.447,3.392
		c-1.102,0.216-6.285,0.547-5.791-1.533c0.751-3.161,6.046-5.659,8.67-7.02c2.21-1.145,4.711-1.759,7.192-1.768
		c0.598-0.002,1.166,0.079,1.746,0.206c0.276,0.061,1.228,0.443,0.467,0.094C179.201,59.158,181.743,54.85,178.815,53.508
		L178.815,53.508z"/>
</g>
<g>
	<path d="M190.691,66.571c-0.536,0.849-0.897,1.877-0.919,2.884c-0.024,1.17,0.616,2.303,1.631,2.879
		c1.107,0.629,2.403,0.514,3.596,0.243c1.328-0.302,2.095-1.808,1.746-3.075c-0.374-1.357-1.748-2.048-3.076-1.746
		c-0.138,0.031-0.275,0.06-0.414,0.085c0.824-0.148,0.312-0.041,0.096-0.034c-0.569,0.016,0.578,0.116,0.234,0.049
		c-0.472-0.093,0.564,0.287,0.29,0.132c0.418,0.347,0.543,0.442,0.374,0.286c-0.155-0.172-0.057-0.045,0.294,0.382
		c-0.174-0.266,0.255,0.76,0.161,0.354c0.195,0.841,0.063,0.664,0.069,0.389c0.01-0.447-0.117,0.717-0.052,0.373
		c0.027-0.14,0.071-0.275,0.118-0.408c0.188-0.535-0.323,0.688-0.052,0.132c0.067-0.137,0.14-0.271,0.222-0.4
		c0.729-1.153,0.247-2.75-0.897-3.421C192.905,64.967,191.419,65.422,190.691,66.571L190.691,66.571z"/>
</g>
<g>
	<path d="M207.669,47.077c6.617,0.959,13.834-1.051,20.089-2.915c6.119-1.823,11.783-5.081,17.898-6.776
		c1.395-0.387-0.265-2.084-0.587-1.125c-0.384,1.145-1.288,2.247-1.97,3.224c-5.052,7.244-11.597,13.599-17.666,19.977
		c-3.97,4.172-7.896,9.581-12.185,13.224c0.812-0.215,1.622-0.429,2.433-0.643c-0.007-0.002-0.015-0.003-0.021-0.004
		c0.582,1.025,1.164,2.051,1.746,3.075c-0.238,0.997,0.287-0.384,0.521-0.759c0.585-0.934,1.203-1.846,1.819-2.759
		c2.188-3.239,4.493-6.4,6.838-9.527c5.958-7.946,12.391-15.663,19.707-22.397c3.516-3.235,7.447-6.271,12.059-7.712
		c4.277-1.337,7.179,1.345,5.194,5.496c-2.412,5.049-9.003,6.325-13.8,7.773c-2.325,0.702-6.878,1.168-8.281,3.564
		c-3.196,5.457,9.409,5.766,5.859,12.048c-5.793,10.254-22.541,10.184-32.139,7.709c-1.113-0.287-2.158-0.713-3.162-1.268
		c-1.002-0.554-0.508,0.165,0.216-0.332c1.731-1.19,4.035-1.607,6.047-2.04c4.46-0.958,9.125-0.879,13.658-0.642
		c4.279,0.223,8.554,0.532,12.835,0.723c57.724,2.556,113.77-16.24,164.483-42.5c2.864-1.483,0.335-5.797-2.523-4.317
		c-42.206,21.855-88.093,38.626-135.874,41.622c-11.648,0.73-23.285,0.43-34.923-0.291c-6.777-0.419-13.491-0.596-20.188,0.842
		c-4.364,0.938-13.719,6.051-6.847,10.84c7.866,5.482,20.925,4.621,29.544,1.73c5.857-1.963,14.468-7.044,14.753-14.156
		c0.109-2.729-1.079-4.993-3.275-6.591c-1.328-0.966-2.691-1.881-4.025-2.839c-1.056-0.757-1.562,2.887-0.297,2.386
		c0.706-0.28,1.453-0.477,2.178-0.696c8.159-2.464,18.51-4.46,21.184-13.881c1.77-6.234-3.324-10.869-9.273-10.482
		c-8.244,0.535-15.577,7.925-21.04,13.442c-6.457,6.521-12.182,13.784-17.651,21.139c-2.549,3.427-7.389,8.233-8.418,12.546
		c-0.29,1.215,0.368,2.849,1.746,3.075c2.485,0.409,3.857-2.394,5.298-3.986c3.039-3.36,6.216-6.597,9.341-9.876
		c6.745-7.081,14.079-14.185,19.42-22.433c1.296-2.002,2.824-5.014,0.932-7.143c-2.006-2.255-5.669-0.748-7.924,0.183
		c-7.937,3.274-15.742,6.435-24.22,8.006c-2.141,0.397-4.311,0.612-6.486,0.658c-0.422,0.009-3.055-0.21-1.692-0.013
		C205.846,41.799,204.488,46.616,207.669,47.077L207.669,47.077z"/>
</g>
</svg>
