<?xml version="1.0" encoding="UTF-8" standalone="no"?>
<!-- Created with Inkscape (http://www.inkscape.org/) -->
<svg
   xmlns:svg="http://www.w3.org/2000/svg"
   xmlns="http://www.w3.org/2000/svg"
   xmlns:inkscape="http://www.inkscape.org/namespaces/inkscape"
   version="1.0"
   width="188"
   height="51"
   id="svg2">
  <defs
     id="defs5">
    <inkscape:perspective
       id="perspective9" />
  </defs>
  <path
     d="M 15.358006,41.346073 C 15.660268,40.857002 17.149326,40.154547 18.667023,39.785061 C 23.418632,38.628275 34.364899,31.568189 38.702049,26.862937 C 45.773361,19.191469 45.312289,14.63987 37.090947,10.958503 C 31.596296,8.4980994 18.208582,7.5229524 10.176471,8.9980814 C 7.2889706,9.5283824 4.9264706,9.6060764 4.9264706,9.1707364 C 4.9264706,8.0218334 15.37263,6.7448794 22.926471,6.9703904 C 32.145095,7.2456014 38.457925,8.9951874 41.92784,12.236573 C 47.714189,17.641832 45.264314,24.532894 34.720598,32.509262 C 27.037863,38.321285 13.373125,44.557677 15.358006,41.346073 z M 167.45109,39.485294 C 168.41614,37.972794 170.7984,34.710294 172.745,32.235294 C 178.77188,24.572436 178.5777,25.033742 175.44551,25.819871 C 173.38285,26.337566 172.29346,26.090082 171.4286,24.907324 C 170.50105,23.638827 169.5688,23.477483 167.15947,24.168471 C 165.46412,24.654691 163.82902,24.804508 163.52591,24.5014 C 163.2228,24.198291 162.20255,24.576918 161.25868,25.342793 C 160.12316,26.26418 159.79663,26.312391 160.29353,25.485294 C 161.20807,23.963042 159.949,23.89603 156.32454,25.274048 C 154.34649,26.0261 153.39536,25.993975 152.87849,25.157657 C 152.36087,24.320134 150.57698,24.596503 146.39075,26.162775 C 142.0434,27.789326 139.9595,28.093857 137.9559,27.395399 C 136.08172,26.742055 134.5751,26.866451 132.86067,27.816092 C 129.40423,29.730655 127.60233,29.582817 128.16508,27.43084 C 128.57522,25.862454 127.57659,26.055131 120.53171,28.903623 C 105.07975,35.151396 98.321761,35.391735 95.766869,29.784352 C 94.79359,27.648235 95.015424,26.807452 97.365092,23.726878 C 100.54201,19.561728 109.00908,12.649609 113.6546,10.428888 C 116.63999,9.0017644 117.03522,9.0237324 118.91073,10.721048 C 121.41314,12.985701 120.86154,13.836204 118.03515,12.071092 C 115.23738,10.323858 110.56247,12.82751 102.74091,20.261935 C 96.616324,26.083371 95.855937,28.021903 98.614881,30.780843 C 101.05626,33.222226 107.30778,32.210085 119.95134,27.326401 C 129.04943,23.812184 131.20304,22.512417 135.94578,17.673299 C 141.46621,12.04067 146.17053,8.8126834 147.2645,9.9066594 C 148.52589,11.168047 145.52464,14.518165 138.43846,19.758638 C 134.37715,22.762123 130.77394,25.673069 130.43134,26.227407 C 129.48935,27.75158 131.19429,27.436431 133.81279,25.602364 C 135.42283,24.474652 136.35454,24.309893 136.82421,25.069839 C 137.28861,25.821251 138.5227,25.550921 140.71539,24.217468 C 142.48148,23.14344 143.92647,22.685716 143.92647,23.200302 C 143.92647,23.714889 143.13897,24.59459 142.17647,25.155195 C 139.52468,26.699719 140.89267,26.436722 146.42647,24.338123 C 149.59237,23.137509 153.56331,22.507736 157.25178,22.621275 C 160.45571,22.719898 163.29476,22.448398 163.5608,22.017942 C 163.82684,21.587485 164.4945,21.235294 165.0445,21.235294 C 165.5945,21.235294 165.78426,21.656372 165.46619,22.171022 C 165.10713,22.751993 166.12485,22.751993 168.15057,22.171022 C 172.49217,20.925869 172.92647,20.977181 172.92647,22.735294 C 172.92647,24.489749 174.72613,24.64216 178.50006,23.207316 C 179.98714,22.641928 181.41502,22.390507 181.67311,22.648603 C 182.28012,23.255615 167.70289,42.08864 166.56146,42.172069 C 166.0857,42.206843 166.48604,40.997794 167.45109,39.485294 z M 144.42647,13.197712 C 146.42647,10.944276 146.42647,10.944276 144.42647,12.003728 C 143.32647,12.586427 141.07647,14.52863 139.42647,16.319735 L 136.42647,19.576289 L 139.42647,17.513718 C 141.07647,16.379305 143.32647,14.437102 144.42647,13.197712 z M 45.553487,33.528977 C 43.82688,31.80237 46.923927,30.468523 53.926471,29.922871 C 57.065211,29.678295 65.251356,24.972685 70.179352,20.580291 C 73.775016,17.375424 75.957676,16.385144 75.898942,17.985294 C 75.883801,18.397794 74.337525,19.860294 72.462773,21.235294 C 68.565027,24.094018 66.740632,27.316567 67.930243,29.241398 C 68.600049,30.325166 70.216937,30.245778 76.904958,28.800745 C 81.391703,27.831327 85.33203,27.30752 85.66124,27.63673 C 86.61421,28.589699 85.887188,28.841394 77.429949,30.4864 C 68.826492,32.159846 66.28847,31.661818 65.746309,28.193756 C 65.441398,26.243318 65.19887,26.29261 60.549729,29.249917 C 57.867521,30.956063 55.066048,32.119096 54.324233,31.834435 C 53.582419,31.549774 51.44661,31.955673 49.577991,32.736431 C 47.709373,33.51719 45.898346,33.873835 45.553487,33.528977 z M 15.676471,29.658191 C 14.396433,28.36752 14.894141,24.906502 16.959617,20.735294 C 18.674496,17.272113 18.852105,17.137909 18.283038,19.735294 C 17.921535,21.385294 17.35592,24.463098 17.026116,26.574858 C 16.696311,28.686618 16.088971,30.074118 15.676471,29.658191 z M 49.426471,23.235294 C 49.086552,22.685294 49.258437,22.235294 49.808437,22.235294 C 50.358437,22.235294 51.086552,22.685294 51.426471,23.235294 C 51.76639,23.785294 51.594505,24.235294 51.044505,24.235294 C 50.494505,24.235294 49.76639,23.785294 49.426471,23.235294 z"
     id="path2389"
     style="fill:#000000" />
</svg>
