<?xml version="1.0" encoding="UTF-8" standalone="no"?>
<svg
   xmlns:dc="http://purl.org/dc/elements/1.1/"
   xmlns:cc="http://creativecommons.org/ns#"
   xmlns:rdf="http://www.w3.org/1999/02/22-rdf-syntax-ns#"
   xmlns:svg="http://www.w3.org/2000/svg"
   xmlns="http://www.w3.org/2000/svg"
   viewBox="0 0 1061.3333 732"
   height="732"
   width="1061.3333"
   xml:space="preserve"
   id="svg2"
   version="1.1"><metadata
     id="metadata8"><rdf:RDF><cc:Work
         rdf:about=""><dc:format>image/svg+xml</dc:format><dc:type
           rdf:resource="http://purl.org/dc/dcmitype/StillImage" /></cc:Work></rdf:RDF></metadata><defs
     id="defs6"><clipPath
       id="clipPath18"
       clipPathUnits="userSpaceOnUse"><path
         id="path16"
         d="M 0,549 H 796 V 0 H 0 Z" /></clipPath></defs><g
     transform="matrix(1.3333333,0,0,-1.3333333,0,732)"
     id="g10"><g
       id="g12"><g
         clip-path="url(#clipPath18)"
         id="g14"><g
           transform="translate(430.7061,181.9951)"
           id="g20"><path
             id="path22"
             style="fill:#000000;fill-opacity:1;fill-rule:nonzero;stroke:none"
             d="M 0,0 C -19.887,7.382 -39.005,-0.548 -53.864,-21.292 -71.001,-45.212 -72.736,-80.95 -57.108,-99.711 -58.703,-54.785 -53.38,-14.144 0,0" /></g><g
           transform="translate(463.6426,182.6001)"
           id="g24"><path
             id="path26"
             style="fill:#000000;fill-opacity:1;fill-rule:nonzero;stroke:none"
             d="m 0,0 c 0.686,-1.342 0.875,-2.381 1.492,-2.82 20.438,-14.556 21.572,-34.781 16.497,-56.67 -6.078,-26.209 -24.106,-44.055 -44.249,-61.852 9.813,1.005 17.292,5.521 31.012,18.272 21.976,20.424 31.39,55.742 21.977,81.652 C 22.198,-8.947 13.951,-1.493 0,0" /></g><g
           transform="translate(481.9014,271.3618)"
           id="g28"><path
             id="path30"
             style="fill:#000000;fill-opacity:1;fill-rule:nonzero;stroke:none"
             d="M 0,0 C 2.329,0.441 5.972,0.53 5.626,3.341 5.213,6.706 1.397,6.195 -1.186,5.868 -13.63,4.292 -23.788,-0.955 -29.435,-12.819 c -5.187,-10.897 -2.552,-20.571 6.919,-25.944 10.281,-5.831 25.786,-3.356 31.492,5.028 4.913,7.219 3.721,16.053 -3.128,18.744 -7.619,2.994 -15.285,2.992 -22.574,-3.444 5.251,-3.209 9.474,-0.468 13.592,-1.075 6.383,-0.941 9.278,-5.066 6.739,-9.815 -3.107,-5.812 -12.612,-7.82 -20.442,-4.273 -6.961,3.154 -9.324,8.176 -6.446,15.518 C -19.094,-7.388 -10.854,-2.055 0,0" /></g><g
           transform="translate(385.2959,244.7402)"
           id="g32"><path
             id="path34"
             style="fill:#000000;fill-opacity:1;fill-rule:nonzero;stroke:none"
             d="m 0,0 c 5.697,2.075 11.517,3.823 17.172,6.001 1.989,0.767 5.446,1.196 4.353,4.512 -0.749,2.274 -3.534,1.821 -5.645,1.804 -23.614,-0.545 -31.191,-9.251 -26.336,-30.265 3.802,-16.459 7.922,-18.615 24.086,-12.49 2.549,0.965 5.032,2.125 7.48,3.327 1.868,0.917 4.475,1.877 3.716,4.408 -0.887,2.959 -3.838,2.647 -6.199,2.053 -4.406,-1.11 -8.693,-2.699 -13.107,-3.771 -3.556,-0.864 -6.745,-0.312 -7.778,4.011 -1.002,4.193 1.821,5.115 4.97,6 3.786,1.066 7.557,2.255 11.207,3.71 1.644,0.656 3.246,2.197 2.527,4.238 -0.717,2.036 -2.822,2.174 -4.642,1.784 C 8.548,-5.375 5.368,-6.426 2.111,-7.117 -0.111,-7.588 -3.063,-9.08 -4.189,-5.926 -5.373,-2.614 -2.667,-0.971 0,0" /></g><g
           transform="translate(329.7266,238.6904)"
           id="g36"><path
             id="path38"
             style="fill:#000000;fill-opacity:1;fill-rule:nonzero;stroke:none"
             d="m 0,0 c -0.445,3.438 -1.862,5.837 -5.762,5.33 -4.011,-0.522 -4.484,-3.364 -4.021,-6.714 1.405,-10.155 2.801,-20.311 4.154,-30.473 0.448,-3.361 1.678,-5.978 5.635,-5.453 4.015,0.533 4.295,3.589 4.035,6.816 C 2.686,-20.331 1.316,-10.168 0,0" /></g><g
           transform="translate(421.3613,127.3989)"
           id="g40"><path
             id="path42"
             style="fill:#000000;fill-opacity:1;fill-rule:nonzero;stroke:none"
             d="m 0,0 c -1.158,4.185 2.574,12.043 -6.012,11.321 -9.588,-0.807 -2.767,-8.472 -4.244,-12.076 0.318,-4.024 0.612,-7.318 0.831,-10.617 0.233,-3.504 1.414,-5.688 5.569,-5.098 3.512,0.499 5.622,1.813 5.134,5.747 C 0.835,-7.145 0.949,-3.429 0,0" /></g><g
           transform="translate(664.9473,390.1396)"
           id="g44"><path
             id="path46"
             style="fill:#000000;fill-opacity:1;fill-rule:nonzero;stroke:none"
             d="m 0,0 c -8.144,3.559 -16.844,5.077 -25.611,5.988 -24.743,2.573 -49.51,4.904 -73.903,10.08 -14.629,3.105 -27.397,9.706 -38.232,19.953 -15.616,14.769 -15.487,14.704 -33.381,2.015 -4.91,-3.482 -10.08,-10.751 -16.291,-1.061 -1.171,1.826 -3.393,0.112 -4.907,-0.689 -4.021,-2.126 -8.059,-4.253 -11.893,-6.689 -4.856,-3.086 -9.539,-3.676 -14.336,-0.065 -5.001,1.059 -8.64,-1.455 -12.256,-4.414 -2.929,-2.399 -5.907,-4.999 -12.723,-5.144 11.859,11.279 22.123,21.04 32.387,30.801 1.974,2.299 4,4.556 5.906,6.91 1.669,2.062 4.541,4.091 3.094,7.006 -1.75,3.53 -5.322,1.739 -8.2,1.535 -6.532,-0.467 -12.211,-3.231 -17.793,-6.455 -37.834,-21.845 -74.2,-46.165 -112.729,-66.832 -2.198,-1.178 -4.235,-3.352 -8.291,-2.22 3.362,5.283 6.2,10.221 9.495,14.833 10.228,14.318 20.657,28.493 30.941,42.773 1.952,2.708 4.157,5.669 1.014,8.926 -2.587,2.681 -5.711,3.078 -9.184,1.604 -7.266,-3.082 -14.527,-6.145 -21.156,-10.517 -31.933,-21.062 -63.114,-43.135 -92.455,-67.751 -19.087,-16.015 -39.335,-30.458 -60.748,-43.234 -9.344,-5.575 -10.133,-5.152 -10.352,5.727 -0.037,1.796 0.548,3.75 -1.562,4.753 -1.794,0.853 -3.782,0.598 -5.172,-0.595 -5.527,-4.742 -3.746,-11.113 -3.15,-16.983 0.497,-4.906 4.44,-5.925 8.718,-6.108 8.077,-0.343 14.679,3.168 20.868,7.797 21.379,15.992 42.799,31.93 64.109,48.015 30.009,22.653 58.483,47.409 91.141,66.42 2.605,1.516 4.998,3.97 9.204,3.497 -3.031,-6.861 -6.839,-12.292 -10.832,-17.617 -9.097,-12.13 -19.005,-23.674 -26.791,-36.75 -2.472,-4.151 -5.994,-8.959 -2.341,-13.383 3.913,-4.738 8.399,-0.042 12.24,1.617 41.437,17.896 78.259,43.769 116.315,67.513 2.792,1.742 5.382,4.687 10.183,2.641 -5.754,-6.122 -11.029,-11.918 -16.506,-17.516 -6.365,-6.505 -12.972,-12.772 -19.341,-19.273 -2.655,-2.71 -4.744,-6.318 -2.412,-9.798 2.722,-4.061 6.593,-1.707 9.708,0.057 6.598,3.734 13.066,7.7 19.535,11.656 2.917,1.785 5.688,3.262 9.342,1.901 7.863,-2.927 14.814,-0.944 21.232,4.176 2.235,1.783 5.079,4.676 7.96,1.649 5.063,-5.321 9.146,-2.324 13.542,0.711 4.992,3.448 10.015,6.857 15.128,10.123 3.525,2.252 7.539,3.794 10.496,-0.468 14.992,-21.611 37.878,-28.216 61.822,-32.566 21.522,-3.909 43.361,-5.195 65.135,-6.95 6.057,-0.488 12.072,-1.171 17.396,-4.631 3.778,-2.453 4.384,-4.391 0.163,-7.221 -6.681,-4.479 -14.098,-6.947 -21.696,-9.147 -63.268,-18.323 -127.637,-32.238 -191.598,-47.78 -85.805,-20.849 -171.693,-41.387 -253.769,-74.854 -4.52,-1.843 -9.806,-2.617 -12.779,-7.659 5.451,-3.01 10.641,-1.912 15.565,-0.741 23.634,5.623 47.731,8.74 71.524,13.447 121.11,23.963 242.174,48.154 363.229,72.393 5.5,1.101 14.939,0.963 12.939,8.839 -1.864,7.341 -10.394,3.258 -15.919,2.054 -116.782,-25.432 -234.074,-48.382 -351.144,-72.413 -2.42,-0.497 -4.028,-0.861 -5.307,1.662 2.169,2.772 5.506,3.009 8.55,3.941 62.426,19.127 126.472,31.849 189.69,47.845 58.808,14.88 118.072,27.978 176.114,45.795 8.131,2.496 16.128,5.357 22.886,10.844 C 12.859,-11.869 12.009,-5.249 0,0" /></g><g
           transform="translate(251.2979,211.9009)"
           id="g48"><path
             id="path50"
             style="fill:#000000;fill-opacity:1;fill-rule:nonzero;stroke:none"
             d="m 0,0 c -1.719,-4.357 1.13,-12.911 -5.246,-13.962 -5.71,-0.941 -7.306,7.112 -8.872,12.039 -1.534,4.829 -8.267,11.185 1.842,14.664 C -2.997,15.935 0.449,12.476 0,0 m 29.069,19.846 c -15.103,5.251 -30.424,5.392 -45.426,-0.133 -8.419,-3.101 -11.182,-10.572 -7.4,-18.471 3.672,-7.672 8.35,-14.798 14.255,-20.974 5.568,-5.823 9.431,-5.058 11.455,2.635 2.077,7.891 3.324,16.004 4.859,24.034 1.858,9.726 5.953,11.931 15.084,8.027 7.629,-3.262 10.52,-9.369 7.466,-17.835 -8.087,-22.412 -23.657,-38.505 -44.17,-49.862 -10.716,-5.934 -21.991,-10.719 -34.518,-4.502 -1.638,0.813 -3.902,1.238 -4.721,-0.845 -1.145,-2.913 1.132,-4.438 3.437,-5.453 9.915,-4.365 19.926,-4.623 30.024,-0.564 28.562,11.48 46.917,32.4 56.615,61.28 0.858,2.553 1.13,5.302 1.306,6.165 0.228,8.407 -1.501,14.146 -8.266,16.498" /></g><g
           transform="translate(563.4531,261.1245)"
           id="g52"><path
             id="path54"
             style="fill:#000000;fill-opacity:1;fill-rule:nonzero;stroke:none"
             d="M 0,0 C -6.666,0.053 -12.708,6.752 -12.709,14.09 -12.71,21.034 -6.942,26.382 0.403,26.248 7.182,26.125 12.455,20.337 12.506,12.965 12.553,6.123 6.596,-0.052 0,0 M -0.966,37.079 C -12.275,36.888 -21.651,26.435 -21.684,13.98 -21.72,0.408 -12.277,-9.739 0.349,-9.697 c 12.537,0.04 21.221,8.571 21.319,20.94 0.11,13.799 -10.612,26.038 -22.634,25.836" /></g><g
           transform="translate(435.9941,129.8408)"
           id="g56"><path
             id="path58"
             style="fill:#000000;fill-opacity:1;fill-rule:nonzero;stroke:none"
             d="M 0,0 C -0.144,3.658 2.24,5.63 5.676,5.633 9.349,5.637 11.082,3.07 10.996,-0.346 10.911,-3.772 8.851,-5.816 5.414,-6.337 1.92,-5.631 0.129,-3.292 0,0 M 19.27,-0.429 C 19.104,7.777 12.749,14.546 5.336,14.409 -2.252,14.269 -8.163,8.106 -8.072,0.432 c 0.113,-9.459 5.512,-15.161 14.179,-14.974 7.678,0.167 13.321,6.217 13.163,14.113" /></g></g></g></g></svg>