<?xml version="1.0" encoding="UTF-8" standalone="no"?>
<svg xmlns="http://www.w3.org/2000/svg" version="1.0" width="263" height="90" >
<path d="M133,30c0.197,1.513,6.481,10.808,9,10c1.991,2.342,0.372,8.295,3,10 c4.625-1.375,2.994-9.006,9-9c-1.406,5.232-3.323,12.48,0,17c6.089,0.422,5.116-6.217,10-7c-0.973,3.694-3.591,5.742-3,11 c6.726-2.396,7.21-15.957,16-13c5.248-3.085,5.268-11.399,12-13c-3.728,8.938-9.887,15.446-14,24c0.521,1.479,1.479,2.521,2,4 c17.386-0.614,23.849-12.151,39-15c-4.434,7.566-12.771,11.229-17,19c13.873-3.127,26.733-7.267,40-11 c3.738-0.675,6.065-6.695,11-3c-14.218,8.515-37.628,12.95-54,16c2.743-7.923,10.065-11.268,15-17 c-10.49,1.509-21.346,15.221-33,13c-3.525-0.672-3.305-4.658-8-4c-0.936-5.936,2.731-7.269,4-11c-4.674-0.654-6.895,9.758-12,12 c-2.913,0.152-3.038-4.055-2-5c-2.091,0.576-2.854,2.479-6,2c-3.841-2.798-4.839-10.964-3-14c-1.842,1.492-3.509,3.158-5,5 c-0.589,6.201,3.851,10.039,0,14c-8.595-7.405-3.005-28.995-15-33c-1.612,2.245-7.527,3.743-10,2 c16.996-8.337,33.354-17.313,52-24c1.329,1.004,3.721,0.946,4,3C162.266,10.916,148.466,26.232,133,30z M143,51 c0.448,4.218-1.526,10.86,3,11C146.248,57.085,145.38,53.287,143,51z M171,60c3.636-0.731,5.997-7.958,5-10 C174.361,53.361,171.691,55.691,171,60z
M44,60c3.686-4.314,5.16-10.84,6-18c4.342,3.415-3.76,16.806,2,22 c7.389-0.611,6.971-9.029,13-11c-2.154,4.513-5.653,7.68-6,14c0.19,0.81,1.003,0.997,1,2c8.064,1.064,6.933-7.067,12-9 c0.88,3.537-2.569,5.152,1,6c1.616-1.359-1.033-6.91,0-11c4.691,1.5,1.709,4.457,3,9c9.169-3.165,7.456-17.211,13-24 c3.417,4.553-11.431,21.043-1,27c12.032-2.41,0.569-19.84,12-25c6.509,0.491,6.845,7.155,11,10c4.543-1.457,1.985-10.015,7-11 c-2.884,8.449-4.203,18.464-7,27c-2.612-1.718,1.41-5.178,0-9c-4.961,1.384-17.827,3.498-21,10c-3.716-0.951-7.012-2.321-7-7 c-3.28,1.435-9.385,8.275-13,3c-2.418,2.582-4.164,5.836-9,6c-0.027-0.973-1.224-0.776-2-1c-1.037-2.557-2.99-5.465,0-7 c-1.512-2.088-3.428,3.838-7,3c-2.793-3.118-4.799-7.175-3-10c-4.41,4.59-6.387,11.613-13,14c-1.382-1.618-3.538-2.462-3-6 c-2.694,6.283-14.9,17.715-19,5c-2.816,6.298-0.107,14.352-1,19c-7.544-2.92,3.457-17.993-4-21c-0.24-5.24,2.434-7.566,3-12 c2.701-3.447-1.945,7.638-1,12c3.513-3.487,2.034-11.966,4-17c-3.973,4.829,0.985-8.335,2-11c4.247,1.427-1.528,5.198,0,10 c4.281-10.052,7.722-20.945,14-29c9.349,3.48,3.252,16.196,1,23c-2.743,8.288-7.426,15.828-9,22c-2.509,1.157-3.349,3.984-7,4 c1.009,1.991,1.729,4.271,4,5c14.936-1.398,7.971-24.696,19-30C44.285,45.715,44.179,52.821,44,60z M39,46 c-4.452,1.292-5.721,12.617-4,19C45.28,66.635,44.275,48.789,39,46z M16,67c12.02-8.98,15.755-26.245,18-45 C21.567,30.567,18.504,48.504,16,67z M105,48c-0.122-2.544-1.456-3.878-4-4c-4.289,0.63-7.39,12.265-5,13 c-0.279-2.279,0.241-3.759,2-4c2.005,1.989-0.315,4.761-1,7c10.406,1.05,15.577-5.508,9-11c-2.483-1.301-4.15,2.934-5,0 C102.891,49.224,103.206,47.873,105,48z" />
</svg>