<?xml version="1.0" encoding="UTF-8" standalone="no"?>
<!-- Created with Inkscape (http://www.inkscape.org/) -->

<svg
   width="230.1875mm"
   height="41.804165mm"
   viewBox="0 0 230.1875 41.804165"
   version="1.1"
   id="svg5"
   xml:space="preserve"
   inkscape:version="1.2.2 (b0a84865, 2022-12-01)"
   sodipodi:docname="DwayneTheRockJohnson2.svg"
   xmlns:inkscape="http://www.inkscape.org/namespaces/inkscape"
   xmlns:sodipodi="http://sodipodi.sourceforge.net/DTD/sodipodi-0.dtd"
   xmlns="http://www.w3.org/2000/svg"
   xmlns:svg="http://www.w3.org/2000/svg"><sodipodi:namedview
     id="namedview7"
     pagecolor="#ffffff"
     bordercolor="#000000"
     borderopacity="0.25"
     inkscape:showpageshadow="2"
     inkscape:pageopacity="0.0"
     inkscape:pagecheckerboard="0"
     inkscape:deskcolor="#d1d1d1"
     inkscape:document-units="mm"
     showgrid="false"
     inkscape:zoom="0.50646196"
     inkscape:cx="427.47534"
     inkscape:cy="179.67786"
     inkscape:window-width="1440"
     inkscape:window-height="900"
     inkscape:window-x="0"
     inkscape:window-y="0"
     inkscape:window-maximized="0"
     inkscape:current-layer="layer1" /><defs
     id="defs2" /><g
     inkscape:label="Layer 1"
     inkscape:groupmode="layer"
     id="layer1"
     transform="translate(9.3818855,-29.436901)"><path
       style="fill:none;fill-rule:evenodd;stroke:#000000;stroke-width:1.5;stroke-dasharray:none;stroke-linecap:round;stroke-linejoin:round"
       d="m 46.735567,42.037687 c 0,0 10.402974,-2.710634 19.633784,-0.879125 9.230807,1.83151 11.135577,3.80954 12.014703,5.934091 0.879125,2.124551 -3.076938,6.080612 -5.494528,7.326039 -2.417593,1.245426 -17.60842,6.89909 -31.802737,7.462359 C 26.892476,62.444317 0.08099127,62.556969 2.8973237,54.783892"
       id="path248" /><path
       style="fill:none;fill-rule:evenodd;stroke:#000000;stroke-width:1.5;stroke-dasharray:none;stroke-linecap:round;stroke-linejoin:round"
       d="m 53.88595,56.40262 c 0,0 4.503441,-3.319326 7.524041,-9.66592"
       id="path358" /><path
       style="fill:none;fill-rule:evenodd;stroke:#000000;stroke-width:1.5;stroke-dasharray:none;stroke-linecap:round;stroke-linejoin:round"
       d="m 77.75592,49.879354 c 0,0 0.623215,2.337007 2.095717,0.459629 1.472498,-1.877377 1.32525,-2.378028 1.32525,-2.378028 0,0 -0.235601,1.914251 0.765699,1.590301 1.001299,-0.32395 0.677352,-0.8246 0.677352,-0.8246 0,0 0.971848,1.928855 2.797749,1.612327 1.8259,-0.316527 3.56345,-2.142428 1.501949,-2.878678"
       id="path360" /><path
       style="fill:none;fill-rule:evenodd;stroke:#000000;stroke-width:1.5;stroke-dasharray:none;stroke-linecap:round;stroke-linejoin:round"
       d="m 94.193789,48.844456 c 0,0 -1.5903,-0.7657 -2.797749,0.02945 -1.207453,0.79515 0.0589,1.2958 1.001299,1.2369 0.942401,-0.0589 1.79645,-1.26635 1.79645,-1.26635 z"
       id="path362" /><path
       style="fill:none;fill-rule:evenodd;stroke:#000000;stroke-width:1.5;stroke-dasharray:none;stroke-linecap:round;stroke-linejoin:round"
       d="m 94.193789,48.844456 c 0,0 -0.0589,1.921673 1.44305,1.7081 1.50195,-0.213573 0.942401,-0.4123 1.5903,-0.5301 0.647901,-0.1178 1.266351,0.743673 1.914252,0.5301 0.647899,-0.213573 1.943699,-1.44305 1.943699,-1.44305 0,0 -3.0039,4.770901 -6.184501,7.5392"
       id="path364" /><path
       style="fill:none;fill-rule:evenodd;stroke:#000000;stroke-width:1.5;stroke-dasharray:none;stroke-linecap:round;stroke-linejoin:round"
       d="m 103.54247,50.896127 c 0,0 1.53752,-1.850377 2.16939,-1.850377 0.63188,0 1.63416,1.402763 2.53365,1.202525 0.89949,-0.200237 2.85267,-2.153412 2.85267,-2.153412 0,0 -0.2313,3.263858 3.90634,3.315257"
       id="path366" /><path
       style="fill:none;fill-rule:evenodd;stroke:#000000;stroke-width:1.5;stroke-dasharray:none;stroke-linecap:round;stroke-linejoin:round"
       d="m 131.70437,49.646584 c 0,0 -12.55344,0.939263 -12.19362,-4.817728 0.35981,-5.756991 14.31252,-9.714922 14.31252,-9.714922 0,0 16.78029,-3.931737 22.92115,1.498072 6.14086,5.429809 -7.30439,16.935833 -7.30439,16.935833 l -17.06962,13.065245"
       id="path368" /><path
       style="fill:none;fill-rule:evenodd;stroke:#000000;stroke-width:1.5;stroke-dasharray:none;stroke-linecap:round;stroke-linejoin:round"
       d="m 159.5172,47.962211 c 0,0 -1.61692,-0.998017 -2.35609,0.600571 -0.73916,1.598587 1.70932,1.598587 1.70932,1.598587 0,0 1.80171,0.06453 1.89411,-0.90562 0.0924,-0.970154 -1.24734,-1.293538 -1.24734,-1.293538 z"
       id="path370" /><path
       style="fill:none;fill-rule:evenodd;stroke:#000000;stroke-width:1.5;stroke-dasharray:none;stroke-linecap:round;stroke-linejoin:round"
       d="m 159.5172,47.962211 c 0,0 0.0462,1.201142 1.24734,1.293538 1.20114,0.09239 3.92681,-1.801714 6.1905,-5.174152 2.26369,-3.372438 2.35609,-5.127953 2.35609,-5.127953 0,0 -4.89697,7.182385 -4.66598,8.568584 0.23099,1.386199 1.94551,2.021859 2.59264,1.836965 0.64713,-0.184893 1.40981,-0.624016 1.82582,-0.624016 0.41601,0 2.05695,0.716463 2.05695,0.716463"
       id="path372" /><path
       style="fill:none;fill-rule:evenodd;stroke:#000000;stroke-width:1.5;stroke-dasharray:none;stroke-linecap:round;stroke-linejoin:round"
       d="m 176.64174,47.262636 c 0,0 -2.41549,0.625042 -1.34534,1.467642 1.07016,0.842601 1.55937,1.223035 1.55937,1.223035 l -3.36335,0.122304"
       id="path374" /><path
       style="fill:none;fill-rule:evenodd;stroke:#000000;stroke-width:1.5;stroke-dasharray:none;stroke-linecap:round;stroke-linejoin:round"
       d="m 179.82163,48.671192 c 0,0 0.0611,-1.2251 1.25361,-1.194525 1.19246,0.03058 1.22304,1.194525 1.22304,1.194525 0,0 0,0.901687 -1.31477,0.901687 -1.31476,0 -1.16188,-0.901687 -1.16188,-0.901687 z"
       id="path376" /><path
       style="fill:none;fill-rule:evenodd;stroke:#000000;stroke-width:1.5;stroke-dasharray:none;stroke-linecap:round;stroke-linejoin:round"
       d="m 186.60136,47.343843 -1.70242,2.551396 2.46557,-4.784375 c 0,0 5.18709,3.18856 10.68637,3.023582 5.49928,-0.164978 11.38351,0 11.38351,0"
       id="path378" /></g></svg>
