<?xml version="1.0" encoding="utf-8"?>
<!-- Generator: Adobe Illustrator 16.0.0, SVG Export Plug-In . SVG Version: 6.00 Build 0)  -->
<!DOCTYPE svg PUBLIC "-//W3C//DTD SVG 1.1//EN" "http://www.w3.org/Graphics/SVG/1.1/DTD/svg11.dtd">
<svg version="1.1" id="Layer_1" xmlns="http://www.w3.org/2000/svg" xmlns:xlink="http://www.w3.org/1999/xlink" x="0px" y="0px"
	 width="634px" height="243px" viewBox="0 0 634 243" enable-background="new 0 0 634 243" xml:space="preserve">
<g>
	<path d="M7,42.667C6.187,53.282,7.43,67.012,15.458,74.804c6.169,5.988,15.777,4.547,23.229,2.292
		c9.623-2.912,18.772-8.934,25.433-16.432c3.749-4.22,8.1-11.246,3.936-16.546c-3.523-4.485-11.532-1.344-15.175,1.125
		c-4.693,3.181-7.382,9.299-3.288,14.125c2.072,2.442,9.341,8.603,13.14,6.934c0.737-0.323,1.232-1.511,0.919-2.258
		c-1.34-3.201-7.079-2.065-9.528-1.309c-9.42,2.911-14.287,13.237-17.877,21.493c-5.016,11.533-10.028,23.561-11.862,36.082
		c-0.935,6.38-0.877,14.983,5.202,18.983c11.267,7.413,26.021-4.984,34.443-11.661c13.211-10.474,26.457-23.756,34.01-39.024
		c2.505-5.064,4.185-10.781,2.035-16.266c-2.121-5.413-7.217-4.073-10.692-0.873c-6.054,5.576-9.576,14.461-12.003,22.118
		c-2.486,7.841-4.242,17.9,0.268,25.333c8.136,13.408,30.218,4.285,37.48-5.211c1.089-1.424,2.914-3.681,1.358-5.435
		c-1.33-1.499-3.346-0.356-4.588,0.599c-3.708,2.852-7.439,8.454-4.203,12.939c8.852,12.266,29.802-10.584,36.514-15.598
		c0.945-0.707,1.977-1.474,3.091-1.892c0.066-0.025,0.133-0.05,0.2-0.075c1.336,0.118,1.078-0.785-0.775-2.708
		c-0.347,0.331-0.822,0.584-1.216,0.852c-3.083,2.088-6.074,4.227-8.62,6.969c-3.66,3.942-6.109,10.49-3.034,15.473
		c1.726,2.798,5.178,3.882,7.104,6.544c5.127,7.089,3.623,18.815,3.041,26.871c-1.067,14.761-2.664,29.481-3.9,44.229
		c-0.756,9.011-2.046,18.655-0.68,27.671c0.303,1.995,0.763,3.992,2.166,5.515c1.751,1.9,4.573-0.936,2.828-2.828
		c-1.497-1.625-1.29-5.148-1.38-7.167c-0.216-4.866,0.11-9.769,0.419-14.624c0.877-13.77,2.382-27.501,3.589-41.244
		c1.186-13.506,5.976-35.584-7.375-44.962c-4.697-3.299-3.519-8.44,0.05-12.648c2.314-2.729,5.382-4.699,8.315-6.686
		c1.228-0.832,3.451-2.426,2.125-4.173c-3.06-4.032-10.221,3.138-12.438,4.973c-6.411,5.305-13.189,12.375-21.483,14.522
		c-3.366,0.872-6.957-1.216-5.217-4.867c0.583-1.225,1.5-2.25,2.453-3.197c0.377-0.375,0.785-0.702,1.222-1.003
		c1.212-0.836-1.14-3.006-1.74-1.881c-3.824,7.167-13.772,11.196-21.453,11.509c-23.694,0.966-8.302-36.757-0.377-45.955
		c1.425-1.655,4.101-4.559,5.349-1.375c1.131,2.886,0.584,5.869-0.32,8.718c-2.384,7.508-7.725,14.292-12.676,20.263
		c-10.628,12.819-24.5,26.56-40.129,33.047c-5.045,2.094-10.901,2.438-14.01-2.987c-4.424-7.722,0.479-20.325,2.967-27.876
		c2.125-6.446,4.719-12.743,7.396-18.976c2.367-5.512,4.875-10.886,9.017-15.31c2.261-2.416,5.11-4.162,8.352-4.833
		c0.863-0.178,1.864-0.196,2.736-0.066c1.548,0.23,0.663,0.676-0.01-0.932c0.307-0.753,0.613-1.506,0.919-2.259
		c1.308-0.575,1.613-0.062,0.51-0.463c-0.695-0.253-1.356-0.622-2.012-0.958c-2.786-1.426-5.77-3.042-7.34-5.854
		c-2.531-4.533,4.915-8.375,8.136-9.268c6.311-1.75,6.438,3.462,4,7.789c-3.485,6.185-9.917,10.833-15.869,14.395
		c-6.748,4.037-14.55,6.739-22.471,6.508c-5.981-0.174-9.854-4.9-11.922-10.042C10.993,58.113,10.44,49.985,11,42.667
		C11.198,40.093,7.196,40.112,7,42.667L7,42.667z"/>
</g>
<g>
	<path d="M113.571,61.032c0.438,1.726,1.705,2.938,3.324,3.563c1.554,0.6,3.325-0.16,4.781-0.639
		c0.685-0.225,2.51-0.954,3.064-0.585c2.154,1.435,4.154-2.032,2.019-3.454c-1.617-1.077-3.811-0.486-5.524-0.007
		c-1.396,0.389-3.441,1.502-3.806,0.06C116.795,57.469,112.938,58.53,113.571,61.032L113.571,61.032z"/>
</g>
<g>
	<path d="M168.25,106.75c-0.052-3.216-1.079-7.048-4.617-7.833c-5.19-1.15-9.873,6.394-11.641,10.125
		c-1.353,2.853-2.338,9.857,2.897,9.609c2.107-0.1,3.566-1.163,4.942-2.701c0.655-0.731,1.207-1.579,1.749-2.394
		c0.459-0.691,2.104-2.454,0.76-1.934c-0.753-0.307-1.505-0.613-2.258-0.919c-0.625-1.028-0.379,1.051-0.492,1.802
		c-0.157,1.038-0.278,2.072-0.39,3.115c-0.146,1.354-0.17,3.255,0.584,4.471c1.512,2.438,4.401,3.261,7.151,2.845
		c9.471-1.434,18.016-9.28,23.896-16.294c7.188-8.574,13.957-20.001,16.632-30.982c0.942-3.868-1.886-8.203-4.812-3.689
		c-3.339,5.153-5.091,11.835-6.818,17.646c-2.246,7.559-4.139,15.627-3.903,23.562c0.167,5.627,2.754,11.752,9.204,12.041
		c6.546,0.294,10.183-9.22,11.661-14.142c0.52-1.732,1.419-8.343-2.628-6.167c-3.124,1.68-4.166,7.419-3.342,10.498
		c1.45,5.422,9.236,3.223,12.298,0.915c2.081-1.568,7.402-8.914,4.187-11.513c-0.864-0.698-1.976-0.812-2.829,0
		c-3.077,2.928-2.324,12.068-1.568,15.69c1.337,6.404,7.804,4.862,12.139,2.688c9.036-4.53,15.83-13.719,21.522-21.736
		c6.272-8.833,11.562-18.427,16.754-27.919c3.146-5.751,6.886-11.714,8.994-17.961c0.525-1.558-0.667-3.402-2.439-2.914
		c-1.725,0.475-2.882,3.102-3.737,4.439c-7.191,11.255-14.462,22.843-19.991,35.017c-3.979,8.762-6.953,19.085-2.095,28.081
		c3.129,5.792,10.039,9.957,16.549,10.227c6.354,0.264,11.741-4.447,15.484-9.039c4.701-5.767,7.86-12.694,10.596-19.559
		c1.21-3.037,2.264-6.136,3.246-9.253c0.578-1.836,2.044-4.94,1.377-6.949c-0.309-0.93-0.991-1.356-1.929-1.468
		c-2.438-0.291-3.624,4.476-4.229,6.028c-2.076,5.326-3.66,11.036-4.336,16.717c-0.667,5.598-1.213,11.898-0.34,17.505
		c0.518,3.323,3.784,2.851,5.523,0.889c1.053-1.188,4.284-4.866,2.913-5.976c1.811,1.466,3.046,3.339,5.077,4.657
		c4.392,2.852,7.924,6.683,12.773,8.851c5.902,2.638,11.958,1.563,17.965-0.053c2.633-0.708,5.233-1.544,7.773-2.535
		c0.48-0.188,0.955-0.388,1.443-0.555c0.617-0.213-1.497-0.899-0.61-0.021c1.833,1.817,4.662-1.011,2.828-2.828
		c-1.029-1.021-2.142-1.4-3.547-0.918c-4.123,1.417-8.159,2.817-12.398,3.903c-6.296,1.612-11.798,0.056-16.914-3.678
		c-3.474-2.536-8.046-5.465-10.771-8.725c-1.695-2.027-3.586-2.519-5.541-0.471c-1.697,1.778-2.629,4.174-4.26,6.013
		c1.317-1.485,1.609,1.719,1.473-1.298c-0.07-1.552,0.008-3.116,0.052-4.667c0.178-6.271,0.693-12.19,2.315-18.265
		c0.677-2.535,1.52-5.027,2.437-7.484c0.312-0.837,0.66-1.659,1.03-2.472c0.865-1.905,0.85-0.439-0.658-0.619
		c-0.643-0.49-1.286-0.979-1.929-1.469c0.581,1.748-2.388,7.974-3.15,10.141c-1.783,5.068-3.929,9.998-6.495,14.719
		c-4.768,8.773-13.001,18.814-23.792,12.863c-14.856-8.192-6.715-26.326-0.829-37.572c3.848-7.353,8.305-14.387,12.599-21.482
		c1.187-1.961,4.283-8.379,5.636-9.041c-0.673,0-1.346,0-2.019,0c-1.561-0.809-0.57-2.902-1.027-1.547
		c-0.124,0.367-0.289,0.721-0.445,1.074c-0.553,1.25-1.165,2.475-1.771,3.7c-1.823,3.684-3.762,7.31-5.717,10.925
		c-5.06,9.353-10.348,18.627-16.281,27.457c-5.62,8.362-13.435,19.251-23.419,22.804c-3.918,1.394-4.243-1.33-4.311-4.746
		c-0.035-1.772,0.147-3.566,0.402-5.318c0.121-0.831,0.909-3.437,0.474-3.023c-0.943,0-1.886,0-2.829,0
		c-0.471-1.277-0.673-1.181-0.606,0.289c-0.172,0.799-0.446,1.563-0.822,2.293c-1.183,2.516-3.498,4.179-6.241,4.537
		c-2.792,0.365-2.409-1.906-1.912-3.728c0.162-0.548,0.37-1.078,0.625-1.59c0.102-0.188,0.204-0.377,0.306-0.566
		c0.886-1.052,0.11-1.594-2.329-1.626c0.421,4.012-4.042,13.484-8.367,13.971c-11.167,1.257-1.594-30.213-0.269-34.345
		c1.417-4.42,2.884-9.251,5.43-13.18c0.512-0.743-0.322-0.93-2.501-0.56c0.055,0.765-0.213,1.562-0.391,2.293
		c-0.436,1.787-1.141,3.515-1.821,5.218c-2.074,5.192-4.896,10.118-7.815,14.872c-5.623,9.158-12.886,17.228-22.681,21.951
		c-2.112,1.019-7.842,3.36-7.946-0.786c-0.054-2.187,1.674-5.901,0.396-8c-0.432-0.708-1.423-1.242-2.258-0.919
		c-1.203,0.466-1.723,1.455-2.369,2.514c-0.68,1.116-4.914,6.558-3.948,2.215c0.82-3.688,9.154-14.095,9.29-5.746
		C164.292,109.327,168.292,109.331,168.25,106.75L168.25,106.75z"/>
</g>
<g>
	<path d="M360.99,83.523c-3.073,1.878-2.05,4.964-2.582,7.911c-1.132,6.273-7.219,9.06-10.524,13.81
		c-4.366,6.275-6.316,15.811-4.52,23.271c1.689,7.013,9.339,4.712,13.652,1.585c4.043-2.931,6.935-7.44,9.69-11.512
		c1.366-2.019,4.968-5.939,4.356-8.792c-0.135-0.629-0.758-1.276-1.397-1.397c-4.66-0.88-6.793,9.479-7.143,12.398
		c-0.83,6.941,3.673,12.353,10.067,14.093c15,4.084,34.333-4.377,44.742-14.919c11.565-11.714,8.195-25.731,1.999-39.219
		c-7.935-17.273-19.842-33.048-32.43-47.184c-6.595-7.406-14.006-15.586-22.893-20.294c-2.278-1.207-4.299,2.246-2.02,3.454
		c5.902,3.126,10.857,8.012,15.532,12.698c6.799,6.814,13.013,14.234,18.825,21.899c10.408,13.728,22.006,30.127,24.799,47.528
		c2.953,18.399-19.515,29.381-34.333,32.164c-6.615,1.242-17.134,1.946-19.902-5.832c-1.348-3.788,0.19-8.236,2.055-11.561
		c0.27-0.48,0.576-0.962,0.921-1.393c0.961-1.198-2.189-3.183-2.824-1.79c-1.216,2.669-3.121,5.11-4.755,7.524
		c-3.331,4.923-7.025,10.058-13.187,11.233c-4.016,0.767-1.83-11.489-1.449-13.22c0.556-2.521,1.453-4.951,2.687-7.216
		c1.664-3.054,4.923-5.058,7.179-7.659c1.674-1.929,3.187-4.212,4.076-6.612c0.386-1.041,0.923-7.225,1.396-7.514
		C365.206,85.635,363.198,82.174,360.99,83.523L360.99,83.523z"/>
</g>
<g>
	<path d="M423.772,105.99c-2.554,3.499-5.046,7.068-7.245,10.803c-1.013,1.719-3.024,8.389,1.631,6.279
		c2.721-1.232,3.54-6.218,3.874-8.75c0.518-3.934-1.653-7.15-5.735-7.176c-9.979-0.063-22.548,14.82-18.83,24.707
		c2.176,5.788,10.042,3.769,14.355,2.244c3.475-1.229,6.577-3.252,9.464-5.501c1.341-1.046,2.631-2.317,3.615-3.709
		c0.395-0.558,2.261-2.804,0.691-1.629c-0.979-0.752-1.959-1.505-2.938-2.258c-1.251,4.128-3.579,10.743,0.183,14.325
		c6.009,5.723,16.77-0.368,22.557-3.521c3.774-2.056,7.35-4.455,11.132-6.496c0.542-0.292,1.084-0.536,1.672-0.714
		c-0.508-0.888-1.017-1.775-1.525-2.662c-0.213,0.247-0.433,0.488-0.659,0.724c-1.019,1.092-1.997,2.185-2.857,3.408
		c-4.972,7.082,5.816,8.967,10.551,8.11c4.515-0.815,8.63-3.378,12.936-4.848c4.799-1.638,5.118,1.593,8.003,4.116
		c3.332,2.915,8.521,1.532,12.366,0.719c9.1-1.926,18.036-3.651,27.366-4.044c14.204-0.597,28.571,1.493,42.525,3.948
		c11.773,2.072,23.332,5.873,35.195,7.349c6.206,0.771,12.471,0.074,18.702-0.022c2.729-0.043,6.706,0.23,6.95-3.393
		c0.174-2.576-3.827-2.56-4,0c0.074-1.095,1.199-0.836-0.066-0.708c-0.667,0.068-1.346,0.066-2.016,0.084
		c-2.312,0.061-4.626,0.078-6.938,0.146c-4.023,0.118-7.933,0.423-11.94-0.021c-7.214-0.798-14.321-2.978-21.383-4.572
		c-23.349-5.274-47.938-9.001-71.785-5.371c-6.48,0.986-13.108,3.513-19.679,3.622c-1.779,0.029-2.889-0.64-3.72-2.189
		c-1.615-3.012-4.441-4.612-7.869-4.13c-4.337,0.611-8.29,2.943-12.344,4.47c-2.504,0.942-5.141,1.543-7.812,1.074
		c-3.309-0.581-1.644-2.422-0.196-4.025c1.071-1.187,3.251-2.867,2.174-4.706c-1.243-2.122-4.108-0.608-5.669,0.182
		c-7.713,3.904-14.476,9.469-23.088,11.418c-8.602,1.947-6.451-6.112-4.906-11.209c0.474-1.563-1.494-3.34-2.938-2.259
		c-1.674,1.254-2.565,3.634-4.146,5.132c-4.292,4.068-10.509,6.805-16.428,6.736c-4.173-0.048-1.266-7.552-0.438-9.298
		c2.055-4.335,5.629-7.731,9.816-9.964c3.051-1.627,5.963-2.133,5.655,1.912c-0.085,1.115-0.49,2.247-0.856,3.294
		c-0.189,0.541-0.45,1.042-0.721,1.544c-0.077,0.125-0.153,0.251-0.23,0.377c-0.785,0.875,0.085,1.414,2.61,1.617
		c0.464-2.657,3.181-5.652,4.649-7.827c1.213-1.796,2.464-3.569,3.741-5.32C428.749,105.921,425.276,103.929,423.772,105.99
		L423.772,105.99z"/>
</g>
<g>
	<path d="M226.836,78.836c-4.537,4.297,2.995,5.986,6.104,5.729c9.512-0.787,18.891-2.618,28.439-3.232
		c9.873-0.635,19.927,0.328,29.747-1.036c2.093-0.291,5.493-1.086,4.636-3.995c-0.727-2.469-4.588-1.417-3.857,1.063
		c-0.203-0.688,1.271-1.592,0.001-1.249c-1.652,0.447-3.443,0.475-5.139,0.582c-7.871,0.499-15.77,0.175-23.647,0.538
		c-7.14,0.329-14.244,1.175-21.32,2.152c-3.462,0.478-10.23,0.471-12.135,2.275C231.54,79.887,228.707,77.063,226.836,78.836
		L226.836,78.836z"/>
</g>
</svg>
