<?xml version="1.0" encoding="utf-8"?>
<!-- Generator: Adobe Illustrator 16.0.0, SVG Export Plug-In . SVG Version: 6.00 Build 0)  -->
<!DOCTYPE svg PUBLIC "-//W3C//DTD SVG 1.1//EN" "http://www.w3.org/Graphics/SVG/1.1/DTD/svg11.dtd">
<svg version="1.1" id="Capa_1" xmlns="http://www.w3.org/2000/svg" xmlns:xlink="http://www.w3.org/1999/xlink" x="0px" y="0px"
	 width="234px" height="212px" viewBox="0 0 234 212" enable-background="new 0 0 234 212" xml:space="preserve">
<g transform="translate(0.000000,212.000000) scale(0.050000,-0.050000)">
	<path fill="#FFFFFF" d="M1324.004,4204.003c-25-20-39.004-42.002-32.002-50C1315.996,4130,1340,4137.998,1340,4170
		c0,17.002,14.004,30,30,30c17.002,0,30,9.004,30,20C1400,4249.003,1375.996,4244.003,1324.004,4204.003z"/>
	<path fill="#FFFFFF" d="M4099.999,4160.996c0-20.996,116.992-21.992,130-1.992c5,10-21.992,16.992-60,16.992
		C4130.995,4175.996,4099.999,4169.003,4099.999,4160.996z"/>
	<path fill="#FFFFFF" d="M1625.996,4102.001c-5.996-22.998-20-36.006-30.996-29.004c-12.002,7.002-15,4.004-7.998-7.998
		c7.998-12.998-4.004-25-27.002-29.004c-57.998-8.994-50-42.998,14.004-60c60-15.996,88.994-2.998,47.998,23.008
		c-21.006,12.998-19.004,20.996,10.996,37.998c20,12.002,29.004,22.002,20,22.002c-10,0.996-7.002,13.994,6.006,28.994
		c16.992,21.006,16.992,32.002,0.996,42.002C1647.002,4137.998,1632.998,4125.996,1625.996,4102.001z"/>
	<path fill="#FFFFFF" d="M1712.002,4107.998c-16.006-42.002-17.002-40.996,22.998-40.996c32.998,0,85,37.002,85,62.002
		C1820,4155,1722.998,4137.001,1712.002,4107.998z"/>
	<path fill="#FFFFFF" d="M2890.996,4122.001c-11.992-19.004,33.008-42.002,83.008-42.002c25,0,25.996,5.996,5.996,30
		C2951.992,4142.998,2908.008,4149.003,2890.996,4122.001z"/>
	<path d="M4346.991,4020c-32.988-32.002-82.988-92.002-110.996-134.004C3868.008,3332.998,3664.004,2960,3730,2960
		c16.992,0,30,17.998,30,40s10.996,40.996,25,42.002c63.008,5,168.007-7.998,199.003-24.004
		c50.996-27.998,64.004,14.004,14.004,49.004c-27.012,18.994-67.012,25.996-110,18.994c-81.016-12.998-89.004,26.006-27.012,124.004
		c20.996,32.998,53.007,87.002,70.996,120c19.004,32.998,78.008,125,131.016,204.004c52.988,78.994,96.992,150,96.992,157.998
		c0,52.998,254.004,353.994,283.008,335.996c23.984-15-87.012-413.994-137.012-495c-7.988-12.998-16.992-32.002-19.004-42.998
		c-11.992-50-73.984-207.002-106.992-270c-80.996-152.002-250.996-580.996-270-680c-15-77.998-39.003-155.996-56.992-184.004
		c-16.016-25.996-16.016-40.996,1.992-58.994c24.004-24.004,51.992,22.998,74.003,128.994
		c36.992,175,107.988,369.004,285.996,784.004c66.992,154.004,126.992,302.998,135,330c8.008,27.998,21.992,59.004,30,70
		c25.996,32.998,96.992,294.004,104.004,377.998C4491.991,4090.996,4433.007,4105,4346.991,4020z"/>
	<path d="M712.002,3937.001C670,3522.998,615.996,3244.003,515,2930c-150-467.002-77.002-749.004,174.004-664.004
		C765,2292.001,775,2292.001,795,2262.998c20-28.994,22.998-28.994,25,7.002c0.996,25.996,42.998,65.996,117.998,112.998
		c271.006,167.998,436.006,652.998,247.998,726.006c-115,43.994-325.996-307.002-393.994-658.008
		c-26.006-128.994-45-145-185-148.994c-107.002-2.998-157.002,137.002-109.004,310c40,140.996,81.006,175.996,161.006,135.996
		c62.998-32.002,68.994-32.002,91.992,0C802.998,2820,732.002,2910,659.004,2864.003c-28.008-17.002-38.008-15-47.002,8.994
		c-26.006,67.002-15,135,70.996,427.002c12.002,39.004,21.006,92.998,21.006,120c0,27.998,12.998,174.004,30,325.996
		c20.996,188.008,25,283.008,10.996,297.002C730.996,4057.001,720,4022.998,712.002,3937.001z M1220.996,2990
		c33.008-179.004-137.998-480-337.998-595.996c-60.996-35-62.998-35-62.998,0c0.996,60,107.002,370.996,155,452.998
		c25,40.996,45,83.994,45,93.994c0,11.006,9.004,19.004,20,19.004s20,10,20,22.998C1060,3070,1205,3077.001,1220.996,2990z
		 M579.004,2865c0-19.004-15-52.998-32.002-75c-31.006-39.004-32.002-39.004-20,10c7.002,27.998,12.998,60.996,12.998,75
		s9.004,25,20,25S580,2884.003,579.004,2865z M720,2810c0-17.002-17.998-30-40-30c-40,0-52.002,20.996-27.002,47.002
		C677.998,2850.996,720,2840,720,2810z"/>
	<path fill="#FFFFFF" d="M2630.996,4042.998C2670,4007.001,2760,3997.001,2760,4030c0,20.996-20.996,30-74.004,30
		C2643.008,4060,2620,4052.998,2630.996,4042.998z"/>
	<path d="M3215,3905c-93.008-104.004-285.996-985-260-1189.004c15.996-127.998,101.992-150.996,166.992-45l31.016,52.002l35-90.996
		c46.992-121.006,75.996-116.006,155,27.998c35.996,65,71.992,112.998,78.984,105C3445,2740,3480,2544.003,3480,2442.001
		c0-92.998,11.992-129.004,39.004-112.998c16.992,10.996-9.004,287.998-40,413.994c-30.996,129.004-60.996,124.004-155.996-25.996
		c-104.004-162.998-176.016-62.998-95,132.002c25,60,25,65.996-4.004,61.992c-18.008-2.998-38.008-23.994-44.004-46.992
		c-18.008-75-140.996-231.006-164.004-208.008c-42.988,43.008-24.004,224.004,70.996,684.004
		C3160.996,3700,3260,3994.003,3260,3854.003c0-49.004,33.008-42.002,46.992,8.994C3328.008,3942.998,3271.992,3969.003,3215,3905z"
		/>
	<path fill="#FFFFFF" d="M2536.992,3752.998c13.008-15,16.016-33.994,8.008-42.998s-3.008-10,10.996-0.996
		c14.004,7.998,38.008,3.994,54.004-9.004c31.992-27.002,120-20,120,10c0,10.996-38.008,22.998-85,25.996
		c-46.992,4.004-80.996,15-74.004,25c5.996,11.006-4.004,19.004-21.992,19.004C2523.008,3780,2520,3774.003,2536.992,3752.998z"/>
	<path fill="#FFFFFF" d="M420,3747.001c0-7.002,15.996-26.006,35-41.006c37.002-30,29.004-30.996-72.002-2.998
		c-15.996,4.004-32.998-5.996-37.998-20.996c-5.996-16.006-0.996-22.002,10.996-14.004c12.002,7.002,27.002,4.004,34.004-7.998
		c7.002-10.996,32.998-20,59.004-20c60.996,0,85,60,37.998,94.004C450,3762.001,420,3767.998,420,3747.001z"/>
	<path d="M2410,3660c-6.992-10.996-13.008-47.998-14.004-80.996c-0.996-33.008-10-65-20-71.006c-10-5.996-11.992-30-5-52.002
		c9.004-26.992,5.996-35.996-9.004-26.992c-11.992,6.992-21.992,3.994-21.992-8.008c0-10.996,9.004-20.996,20-20.996
		c25,0,5-235-22.998-280c-22.002-34.004-10,167.002,12.998,225c8.008,20,5,35-5.996,35c-54.004,0-70-270-20-332.998
		c10.996-14.004,10.996-76.006,0.996-151.006c-9.004-70-15-153.994-14.004-186.992c2.002-32.002,5-89.004,6.006-126.006
		c2.998-77.002,47.998-77.998,61.006-0.996c5.996,38.994,12.988,30,40-51.006c41.992-130,70.996-133.994,123.984-16.992
		c24.004,52.998,66.016,127.998,93.008,165.996l49.004,70l-12.012-110c-6.992-60-17.988-182.002-25-270.996l-11.992-160
		L2245.996,2205c-213.994-2.002-440-7.998-501.992-14.004c-63.008-5.996-190-16.992-284.004-22.998
		c-200.996-13.994-574.004-71.006-815.996-123.994C487.002,2010,610,1995,1035,1995.996c749.004,3.008,865.996-50,565-255
		c-320.996-217.988-382.002-424.004-222.002-745L1465,821.992l-12.002-215.996C1430.996,215,1430.996,133.008,1455.996,125
		c17.002-5.996,24.004,31.992,24.004,128.008c0,75,5.996,235.996,12.998,356.992L1505,830l-95.996,199.004
		C1265,1330,1305,1464.004,1605.996,1686.992c355,262.011,251.006,349.003-423.994,352.011c-159.004,0-285,5-280,10
		c23.994,22.988,385.996,65.996,847.998,100c125.996,8.994,796.992,20,870,12.998c69.004-5,51.992-273.994-19.004-298.994
		c-32.988-11.016-60.996-16.016-60.996-10c0,6.992-10.996,2.988-25-7.012s-80.996-35-150-55.996c-69.004-20-125-48.008-125-60.996
		c0-17.012,64.004-4.004,203.008,42.988c110.996,37.012,218.984,68.008,240,68.008c20,0,36.992,6.992,36.992,15
		c0,9.004,79.004,36.992,175,61.992c95.996,26.016,190.996,51.016,210,56.016c56.992,15.996,18.008,47.988-40.996,33.984
		c-30-6.992-120-33.984-200.996-60.996c-175-57.988-169.004-61.992-151.016,94.004l14.004,125l152.012-12.002
		c207.988-17.002,441.992-57.002,441.992-77.002c0-9.004-16.992-15.996-39.004-15.996c-20.996,0-45-10-51.992-20.996
		c-7.012-12.012-25.996-17.012-40.996-10.996c-15,5.996-28.008,1.992-28.008-9.004c0-25.996,36.992-24.004,151.992,10.996
		c54.004,15.996,123.008,30,153.008,30c90.996,0,61.992,36.992-40,50.996c-51.992,7.002-149.004,26.006-215,41.006
		s-199.004,33.994-295,40.996s-175,19.004-175,27.002c0,7.002,13.008,55.996,28.008,107.002c15,50.996,25,92.998,20.996,92.998
		s5.996,37.998,21.992,84.004c18.008,50,23.008,90,10.996,101.992c-17.988,18.008-66.992-122.998-92.988-275.996
		c-43.008-246.992-64.004-99.004-27.012,197.002c38.008,308.994-12.988,347.002-141.992,105
		C2521.992,2560,2484.004,2500,2475.996,2500c-22.988,0-41.992,175.996-27.988,260.996c7.988,48.008,5,79.004-8.008,79.004
		c-10.996,0-20-10.996-20.996-25c-0.996-37.998-78.008-190-78.008-155c0,17.002,17.012,174.004,40,350
		c22.012,175.996,45,374.004,50,440c5.996,65.996,14.004,145,19.004,175C2459.004,3679.003,2435,3700,2410,3660z"/>
	<path fill="#FFFFFF" d="M3426.992,3595c-10-15.996,0-17.998,117.012-25c40.996-2.002,70,2.998,65,10.996
		c-5,9.004,5.996,19.004,25.996,23.008c19.004,3.994-18.008,6.992-81.992,6.992C3489.004,3610,3431.992,3602.998,3426.992,3595z"/>
	<path fill="#FFFFFF" d="M2052.002,3407.001C2035,3362.998,2035.996,3360,2080,3360c22.002,0,40,12.998,40,27.998
		C2120,3427.998,2065.996,3442.998,2052.002,3407.001z"/>
	<path d="M477.002,3070c-22.998-35.996-54.004-170-40-170c22.002,0,67.002,117.002,58.994,155
		C492.002,3074.003,482.998,3080.996,477.002,3070z"/>
	<path d="M1807.002,2855c-31.006-35.996-70-65-85-65c-17.998,0-37.002-37.002-52.002-100.996
		c-27.002-121.006-95.996-220-172.998-247.002c-99.004-34.004-122.998,75-67.002,307.002c27.002,112.998,25.996,153.994-2.998,125
		c-6.006-7.002-27.998-81.006-47.998-164.004c-43.008-177.998-112.002-304.004-197.002-360c-77.002-50-95-89.004-36.006-75
		c60,14.004,130,80.996,175,165c35,64.004,39.004,65.996,50,27.002c34.004-115,180-92.998,269.004,42.002
		c35,53.994,35.996,53.994,49.004,12.998c28.994-90,255.996-142.998,285.996-67.002c22.002,52.998,14.004,284.004-12.998,380
		C1932.998,2940,1887.002,2945.996,1807.002,2855z M1930,2815c67.998-305,5-430.996-160.996-322.998
		c-79.004,52.002-44.004,220,71.992,343.994C1895.996,2895,1912.002,2892.001,1930,2815z"/>
	<path d="M370,2745c-20-62.998-42.998-124.004-50-135s-25-60-40-110c-15-49.004-44.004-120.996-64.004-160
		c-37.998-72.998-46.992-140-20-140C220,2200,440,2787.998,440,2850C440,2897.001,400.996,2837.998,370,2745z"/>
	<path fill="#FFFFFF" d="M4159.999,1586.992c0-15,6.992-25.996,15-25c39.004,6.016,48.008-3.984,25.996-30
		c-15.996-20-16.992-31.992-0.996-41.992c33.008-20,76.992,25.996,65.996,69.004
		C4254.003,1603.008,4159.999,1629.004,4159.999,1586.992z"/>
	<path fill="#FFFFFF" d="M4194.999,1380c-19.004-21.992-25.996-40-15.996-40s20.996-20,25-43.008
		c9.004-63.984,55.996-71.992,55.996-10c0,28.008-9.004,56.016-19.004,62.012c-10.996,6.992-14.004,25-7.988,41.992
		C4249.003,1430.996,4234.999,1426.992,4194.999,1380z"/>
	<path fill="#FFFFFF" d="M4524.999,1136.992c-30-30-33.008-76.992-4.004-76.992c24.004,0,45.996,49.004,35.996,80
		C4551.991,1154.004,4540.995,1153.008,4524.999,1136.992z"/>
	<path fill="#FFFFFF" d="M2320.996,1120.996c-16.992-10-23.994-25-16.992-31.992c17.998-17.012,95.996,9.004,95.996,31.992
		C2400,1145,2359.004,1145,2320.996,1120.996z"/>
	<path fill="#FFFFFF" d="M2560,1045c0.996-53.008,125-99.004,179.004-65.996c15.996,10,41.992,7.988,62.988-5
		c20-12.012,43.008-15.996,50-8.008c25,25-7.988,39.004-95.996,42.012c-46.992,1.992-105.996,13.984-130,27.988
		C2575.996,1064.004,2560,1065.996,2560,1045z"/>
	<path fill="#FFFFFF" d="M3260,760.996c0-50,31.992-70,48.008-29.004c18.984,50,13.984,68.008-18.008,68.008
		C3274.004,800,3260,783.008,3260,760.996z"/>
	<path fill="#FFFFFF" d="M1070,580c7.002-10.996,2.998-20-9.004-20c-31.992,0-25-54.004,9.004-66.992
		c22.998-9.004,30,2.988,30,47.988c0,32.012-10,59.004-20.996,59.004C1067.002,600,1062.998,590.996,1070,580z"/>
	<path fill="#FFFFFF" d="M2725.996,566.992c8.008-6.992,3.008-25.996-9.004-40.996c-11.992-15-16.992-32.988-10-40
		c13.008-12.988,71.016,50,72.012,79.004c0.996,8.008-14.004,15-32.012,15C2728.008,580,2719.004,574.004,2725.996,566.992z"/>
	<path fill="#FFFFFF" d="M3900,538.008c0-13.008-18.008-18.008-40.996-12.012c-25,7.012-38.008,2.012-34.004-10.996
		c10.996-33.008,76.992-35.996,108.007-5c35,35,33.984,50-3.008,50C3914.003,560,3900,550,3900,538.008z"/>
	<path fill="#FFFFFF" d="M2894.004,206.992C2865,178.008,2881.992,160,2940,160c33.008,0,60,10,60,21.992
		c0,12.012-11.992,18.008-28.008,12.012c-15-5.996-35.996-2.012-45.996,7.988S2900.996,215,2894.004,206.992z"/>
</g>
</svg>
