<svg width="1212.5" height="136.25" version="1.1" viewBox="0 0 1212.5 136.25" xmlns="http://www.w3.org/2000/svg">
	<path d="m744.0332 4.9316406c-3.91025 8.6e-6-7.12834.029757-10.01367.0761719-4.42487.0294175-7.50843.1401978-10.05273.3691406-1.22297.0884145-2.31536.1912395-3.27539.3105469-1.73274.1553888-3.12938.3563781-4.47071.6289062-.05159.0104834-.11931.0207221-.17187.03125-2.89829.4166912-6.04426.8442044-8.26563 1.0957032-3.09375.3502687-6.75 1.0353593-8.125 1.5234375-.15098.0535945-.38887.1245653-.57812.1855469-.5821.1452119-1.08975.2838247-1.42383.40625-.12733.0466622-.30619.0994958-.45117.1484374-1.39827.3871058-3.01142.7970498-4.42188 1.1054688-.30136.065899-.65195.160988-.96289.232422-1.34719.236819-2.73842.56258-3.51562.830078-3.39819.850737-7.6468 2.143235-11.60157 3.53125-4.52681 1.51244-8.88545 3.130384-12.46874 4.650391-.85004.310503-1.77525.698756-2.6211 1.103515-.46187.220557-.89759.443198-1.2793.654297-.65613.323436-1.27445.63901-1.80078.935547-.50252.283132-.99715.597005-1.48632.919922-.00349.000133-.01231.003906-.01563.003906-.17233 0-.84614.502791-1.72656 1.244141-.00168.001415-.00418.002489-.00586.003906-1.32454 1.03367-2.52996 2.180308-3.57617 3.359375-1.32215 1.390169-2.15194 2.547722-2.72266 3.902344-.00088.002098-.00302.00376-.00391.005859-.18776.385655-.35254.767005-.47851 1.136719-.54128 1.58853-.851 2.886702-.94336 4.130859-.06173.383915-.10352.71255-.10352.919922 0 .005252.00193.014223.00196.019531-5e-5.004428-.00196.01524-.00196.019532 0 .0039.00193.011674.00196.015625-4e-5.004788-.00196.014839-.00196.019531 0 .214993.03952.501613.09571.816406.00291.016961.00086.027742.0039.044922.0159.086121.04298.189082.0625.28125.16277 1.199308.53256 2.470351 1.11914 4.013672.33128.871625.69979 1.689289 1.0918 2.488281.49329 1.107663.99715 2.098863 1.44727 2.757813.40728.596243.97019 1.303402 1.59179 2.044922.53546.677197 1.12729 1.361723 1.76758 2.05664.72982.819887 1.52165 1.62177 2.37109 2.408203.07685.073384.14257.142865.22071.216797.06503.06153.15441.134205.22265.197266 1.52075 1.463748 3.00674 2.757424 4.125 3.537109.69883.487225 1.55293 1.02134 2.45704 1.566406 2.32002 1.585246 4.37707 2.792969 4.97265 2.792969.02895 0 .09679.030471.14453.044922.31458.161826.62793.328352.93946.484375.33567.200535.6908.417529 1.06445.683594.93675.667037 3.09072 1.556236 4.78515 1.976562 1.69439.420318 4.29964 1.280716 5.78907 1.91211 1.48944.631387 3.51775 1.148437 4.50781 1.148437.44606 0 1.16182.126083 1.95508.314453.19868.053582.42162.107024.62304.160157.79839.215238 1.63781.477885 2.39258.77539 1.74419.6875 3.85942 1.25 4.70118 1.25.01735 0 .04274.003728.06054.003906.18618.002091.42777.021356.71289.054688.95641.218567 1.88483.419394 2.65039.554687 1.04241.18422 2.3919.47351 3.75.794922 1.2637.343583 2.59963.730069 4.02735 1.177735 2.04332.640688 4.89194 1.164062 6.33007 1.164062 1.43819 0 3.64841.431771 4.91016.958984 1.26181.527207 5.58505 1.38434 9.60742 1.904297 4.02232.519962 8.79962 1.494441 10.61719 2.166016 1.81756.671581 4.48943 1.226775 5.9375 1.234375 1.44806.00755 3.85892.57005 5.35742 1.25.22873.103784.48781.196484.73828.292969.66817.28495 1.41348.525347 2.14649.695312.59381.144187 1.15444.248047 1.5625.248047.18249 0 .41528.027199.62695.042969.20219.014216.38809.020325.62109.050781.11988.015103.25761.042003.38282.060547.77896.120437 1.66354.305617 2.59375.541016 1.31461.372003 2.75969.874077 4.33984 1.535156 1.26925.530994 2.93828 2.253906 4.62109 4.769531.24862.371668.51047.725498.77149 1.103516.34122.538677.68994 1.059855 1.05273 1.558594.03882.055749.07833.118874.11719.173828.15011.211915.30349.40405.45508.605468.15496.205661.30891.419642.4668.615235.04819.059967.09797.116654.14648.175781.38012.499414.71943.932852.94141 1.181641.6464.724442 1.66936 1.573767 2.83789 2.429687.5739.439882 1.17421.878802 1.84375 1.328122 1.27899.85836 2.39727 1.50515 3.81054 2.12305.9301.45586 1.79986.82385 2.51172 1.03125 1.54687.45068 3.51562 1.05399 4.375 1.3418.85937.28781 2.72847.82048 4.15235 1.18359.19352.04935.38487.10863.57617.17383 1.57029.62632 2.88579 1.55061 4.17773 2.92773.54699.58306.96001 1.05691 1.30274 1.48047.06666.0947.12433.17054.19336.26953.30393.53762.53529 1.01521.62109 1.33399.05633.71382-.62648 1.1618-2.30469 1.52344-3.34097.43284-14.60035.8242-29.17383 1.13476-11.29975.17388-24.98841.34358-39.85742.47266-6.26989.05442-10.109.07583-15.1914.11523-18.2793-.0049-35.06134-.08046-43.67578-.24414-2.25078-.09238-3.95649-.19952-4.57618-.33203-.17778-.05096-.36962-.09808-.58007-.14063-.05125-.01454-.09135-.03132-.14844-.04492-1.13703-.34085-2.94668-.42343-5.64844-.28906-3.51648.07833-7.44893.45537-8.96875 1.0332-1.43129.54418-2.38931 1.58069-2.8418 2.7461-.35123.66054-.45313 1.18402-.28125 1.86328.09647 1.24889.76326 2.43587 2.07618 3.15625.01014.00557.02836.01012.03906.01562.10421.07181.21156.16308.31055.21094.05929.02868.2605.0563.55468.08203.02184.0091.04041.0204.0625.0293.0369.01486.18609.02922.31055.04297.14232.04941.28258.10179.43359.13867.29212.07134 2.60361.11816 6.12696.14648 7.48435.16039 22.00052.13089 51.37304-.01757 31.625-.15985 60.17188-.55234 63.4375-.87305 3.26563-.32072 15.07813-.89103 26.25-1.26758 5.46058-.18405 10.30325-.39862 14.58008-.64648 6.36277-.02949 13.54033-.78006 18.95899-1.89453 2.28112-.41056 4.08053-.86403 5.41211-1.3711 1.08821-.4144 1.74624-.63875 2.58984-.9414.20347-.06603.41834-.1383.60351-.19141.14259-.04093.2572-.06339.38868-.09766.5499-.13786 1.0364-.20897 1.49414-.21289 1.06089.26702 2.87054 1.0055 4.71093 1.95117.63921.35964 1.23693.6566 1.82422.92383.48475.23649.9446.45073 1.3125.60156.18786.07703.39608.14822.61719.21485 1.32462.47213 2.45621.62347 4.20703.66211 1.0633.07911 2.17545.051 3.36719-.07813.10981-.00625.2166-.02003.32617-.02734.08827-.00835.17503-.01222.26367-.02149 1.67541-.1253 3.30881-.36276 4.65625-.73828.69332-.19322 1.56609-.50825 2.5-.87109 3.88005-1.29893 7.7993-3.27135 11.32813-5.7793 1.23263-.87604 1.52793-.79118 4.14062 1.20313 3.12008 2.38159 4.47564 3.25959 6.88477 3.56836 2.09872.50552 4.39694.44457 7.7168.02343.00599-.00076.01158-.00314.01757-.0039.51801-.04343 1.01917-.09982 1.50782-.16797.12885-.01536.2568-.03476.38086-.05274.1572-.02445.31205-.05273.46679-.08007.16542-.03003.33695-.05764.49805-.09375 2.96646-.59538 5.55876-1.80237 8.58008-3.89063.37932-.25174.75748-.51485 1.13281-.79101.18354-.13538.37889-.28772.56641-.42969.1085-.08382.21791-.16018.32617-.24609.56877-.42484 1.14758-.88395 1.73047-1.36133 2.5585-2.08367 4.74474-3.52954 4.85742-3.21289.46818 1.31553 1.51915 3.13549 2.75976 4.94922.14883.26628.29272.49906.43555.74218.92292 1.64544 1.75663 2.75835 2.82617 3.75196.12276.11867.25178.23946.38086.35546.01903.01637.0394.0325.0586.04883.80049.71212 1.74453 1.40127 2.92968 2.17578.04058.02683.08259.05374.12305.08008.10668.06931.19389.13209.30469.20313 1.90664 1.22235 2.80543 1.70139 4.59961 1.88086.3502.074.70709.14273 1.07422.1914.05958.00832.12353.01195.18359.01953.68804.08298 1.4165.12477 2.1875.12696.03156.00062.06399-.00047.0957 0 .36558-.00049.74578-.00829 1.13477-.02539.31578-.01215.64126-.02766.97461-.05274.11789-.00865.22161-.00961.34179-.01953.12486-.01031.24682-.03205.3711-.04492.23472-.02282.45089-.03413.69531-.0625.56042-.06505 1.11737-.17797 1.66992-.31055 2.11517-.30705 3.61906-.95011 5.36133-2.21875 3.4074-2.10036 5.37963-5.06177 4.25-7.54101-.34549-.75826-.9934-1.21224-1.86133-1.38868-.19903-.05809-.40857-.09765-.63867-.09765-.00514 0-.02185.00571-.02734.00586h-.00196c-.02423-.00065-.04574-.00586-.07031-.00586-.01577 0-.06166.01253-.08008.01367-.3159-.00164-.65242.02712-1.00976.08398-.13412.01842-.28105.05665-.42188.08594-.18349.03903-.36209.07171-.55468.125-.05245.01521-.10881.0362-.16211.05274-.6929.20307-1.43253.4816-2.22657.86523-1.39657.67475-4.13555 1.40826-6.08593 1.62891-.58547.06624-.98839.09122-1.41797.12109-.88597-.04224-1.74418-.17441-2.55078-.39062-.31274-.12813-.69295-.33036-1.05664-.52539-.35475-.24723-.73709-.53324-1.21094-.90235-1.44863-1.12842-2.67726-2.83951-3.64258-4.97656-.23459-.69916-.45135-1.33097-.75977-2.31055-.41238-1.3098-.7357-2.45159-.99804-3.50586-.01791-.07214-.02954-.13756-.04688-.20898-.31328-1.746794-.50344-3.619637-.55273-5.583986-.06215-2.475963-.30875-4.29375-.76367-5.644532-.16436-.582809-.3865-1.063183-.67188-1.460937-.02122-.031327-.0427-.061418-.06445-.091797-.06716-.087791-.13085-.181135-.20508-.261719-.04498-.053056-.09168-.102652-.13867-.152343-.5838-.718407-1.3074-1.133501-2.13281-1.220704-.19993-.06951-.3783-.115234-.51172-.115234-.32349 0-.65419.096317-.98243.269531-1.218.264064-2.29128 1.046808-2.58398 2.074219-.06074.213194-.18728.776355-.30469 1.294922-.20282.824192-.42456 1.900986-.72851 3.433594-.5948 2.939636-2.55911 6.109218-5.20117 8.839846-2.00736 1.97369-4.41138 3.77822-6.66602 5.02929-.89392.46622-1.79957.85938-2.70703 1.17188-.7717.23049-1.58517.42205-2.4336.57422-1.05629.09662-2.33189.125-4.13085.125-1.45339 0-2.53862-.0041-3.38868-.03906-.90107-.177-1.70242-.42669-2.33789-.74415-1.4647-.73169-2.21657-1.60795-2.39062-2.92773.04385-.4649.13028-1.03103.25586-1.79883.07415-.45334.14754-1.05233.21289-1.74023.01696-.05825.0252-.10673.04297-.16602 1.04082-3.474055.92479-10.356135-.22071-13.097654-.01212-.029019-.03049-.056938-.04297-.085937-.03209-.090262-.05991-.187368-.0957-.275391-.09167-.225959-.19542-.446146-.3125-.667969 0 0-.00195-.001953-.00195-.001953-.11758-.222617-.24854-.446903-.39453-.68164-1.24188-1.996762-2.51045-3.141122-3.7461-3.466797-.28858-.124315-.56627-.217842-.81836-.234375-.00626-.000438-.02152-.009766-.02734-.009766-.00689 0-.01454.003758-.02148.003906-.00216-5.7e-5-.00767-.003906-.00977-.003906-.0062 0-.01329.001828-.01953.001953-.00946-.000173-.0199-.001953-.0293-.001953-.0252 0-.05091.004947-.07617.00586-.00466-.000176-.01505-.00586-.01953-.00586-.16444 0-.33611.03433-.50977.091797-1.71694.475347-3.49115 2.901437-4.58007 6.363281-.09866.313644-.18646.613605-.26758.910156-.55266 1.50094-.68038 2.733919-.6211 4.941407-.00064.952339.03943 2.016049.12305 3.30664.03252.501962.03893.792051.0625 1.212891-.05501 2.05353-.16471 3.87469-.30664 4.92969-.17502.37781-.40985.72289-.72461 1.12304-.73094.92923-3.36477 2.63137-5.85352 3.78125-1.75624.81144-2.95945 1.30161-4.15234 1.60938-1.22898.20251-2.6998.30246-4.86328.37891-.93783.03313-1.76363.05223-2.5.05468-.10054-.00291-.23128-.00252-.32812-.00586-.24503-.00124-.43827-.01352-.66016-.01953-1.07974-.05878-1.94619-.15728-2.51563-.34179-1.53884-.54862-1.04584-1.78489.77735-4.49219 2.18189-3.23995 3.51727-5.78204 4.13086-8.250002.14988-.511486.26776-1.000734.34961-1.46289.05281-.287185.08695-.556519.10937-.81836.01006-.107207.03869-.239699.03906-.333984.00011-.028781-.00353-.066029-.0039-.095703.00086-.04071.00976-.088967.00976-.128907 0-.00609-.00192-.019198-.00195-.02539 5e-5-.010328.00195-.022924.00195-.033203 0-.014321-.00565-.045617-.00586-.060547.00028-.014685.00586-.038464.00586-.052735 0-.002028-.00194-.007698-.00195-.009765 1e-5-.002737.00195-.007042.00195-.009766 0-.01314-.01098-.060825-.01172-.076172-.00072-.013821-.00666-.041575-.00781-.05664.00083-.032046.0119-.07879.01172-.109375-.0011-.190845-.02694-.434064-.06445-.699219-.03002-.812669-.14575-1.613011-.34766-2.41211-.20134-1.074381-.49076-2.210101-.875-3.453124-1.77081-5.728789-2.16243-6.425585-5.64062-10.072266-2.27914-2.38951-3.26275-3.067247-4.7461-3.164063-1.2666-.319194-2.44309.001015-3.73828.908203-.59307.415402-1.23954 1.158559-1.88281 2.078126-.68406.920774-1.34909 2.044454-2.01953 3.449218-.01677.035133-.03025.074035-.04688.109375-.02786.057634-.05607.103629-.08398.16211-1.15709 2.424458-1.65562 3.7664-1.9336 6.152343-1.174 5.742669-1.02611 12.274226.57032 17.054686.14583.56044.3018 1.11327.47461 1.6543.00707.04663.02153.10819.02734.15234.00127.0101.00075.01929.00195.0293.0258.20449.04123.38566.03907.54492-.00478.17692-.02848.33728-.06836.48633-.04507.16099-.12017.3059-.21289.44531-.16434.17571-.36251.35807-.63086.57617-.027.01838-.04406.03615-.07227.05469-.00654.00431-.01097.00741-.01758.01172-.04429.03498-.08847.05844-.13281.0918-.32668.20543-.62185.38109-.90234.54101-.12588.06733-.25209.13077-.37891.19531-1.80574.73339-3.48941.13328-4.39063-1.74804-.53512-1.11719-1.97451-2.96817-3.19726-4.11328-.0282-.02641-.05213-.05352-.08008-.08008-.07343-.07266-.1541-.16924-.22461-.23438-.08505-.07857-.14361-.14348-.22265-.21875-.5843-.60118-1.06103-1.18144-1.35938-1.64648-.11063-.22281-.19337-.43901-.20703-.64649.00333-.08282.00767-.16539.02148-.24804.01648-.0344.02577-.06516.04493-.10156.00107-.00207.00087-.00379.00195-.00586.16253-.30745.44232-.69064.76172-1.09571.35518-.36374.76191-.74323 1.22656-1.097653 1.20219-.916938 2.78748-2.984409 3.52148-4.595703.22509-.4941.37337-.87455.52149-1.261719.26643-.623207.45784-1.177227.51562-1.712891.02408-.22376.03177-.4516.02344-.697265-.00758-.225579-.03143-.470744-.06445-.732422v-.001953c-.00283-.022351-.00286-.039819-.00586-.0625-.00309-.035508-.004-.069242-.00781-.105469-.00097-.018428-.00278-.036333-.00391-.054687-.00587-.051247-.00833-.10139-.01563-.154297-.01179-.134729-.02215-.270226-.04296-.400391-.0573-.358301-.13917-.719623-.21485-1.080078-.02323-.129134-.02903-.205812-.05469-.34375-.37611-2.022613-1.28063-4.840128-2.00976-6.259766-.91317-1.778007-2.19316-3.470232-3.71094-5.013672-.10872-.115151-.22379-.228147-.33594-.341796-.09973-.097586-.1991-.194776-.30078-.291016-.21754-.212431-.42589-.428604-.65625-.636719-.56127-.50707-1.2153-1.002671-1.90234-1.488281-1.43442-1.052675-2.97477-1.981044-4.57813-2.732422-.65275-.309551-1.3132-.577953-1.9746-.824219-1.17637-.476211-2.26323-.812063-3.125-.908203-.04627-.00996-.09241-.023572-.13868-.033203h-.00195c-.53079-.110448-1.05997-.207707-1.58789-.273437-1.58203-.196975-2.45871-.335643-2.92383-.552735-.14851-.264798-.21472-.618795-.21094-1.085937.10757-.581092.31036-1.486461.51953-2.427735.63378-2.340535 1.30641-5.069651 1.74805-7.074219.68321-2.341374 1.27904-3.725496 1.99805-4.703124.13352-.155709.2658-.308675.41992-.472657.21474-.22848.41426-.478065.60547-.730469.00265-.003239.00517-.006522.00781-.009765.03607-.047735.07248-.092533.10742-.140625.04803-.062666.08706-.122563.13282-.185547.60058-.794483 1.0971-1.652526 1.24609-2.246094.11881-.473359.61768-1.307203 1.29883-2.248047.57541-.767899 1.27198-1.598808 1.99804-2.347656.95596-.985993 1.59678-1.702857 2.04297-2.375 1.0169-1.29286 1.19512-2.138897 1.21094-3.972656.0314-.386245.03997-.776726.01367-1.175781 1e-5-.00457 0-.009102 0-.013672 0-.219319-.03357-.479669-.08203-.757813-.0091-.206203-.01833-.411204-.04101-.607422-.00053-.004612-.00142-.009064-.00196-.013672-.0034-.029013-.00995-.057064-.01367-.085937-.0599-.468619-.1583-.920717-.31055-1.394531-.1372-.555381-.28744-1.052634-.45898-1.353516-.48994-.859375-1.30366-2.448956-1.80859-3.533203-.25906-.556285-.79209-1.329743-1.5-2.216797-.25911-.395508-.50367-.751137-.70703-1.023437-.34683-.464395-.9146-1.068466-1.56055-1.714844-.66659-.699936-1.43198-1.413415-2.28711-2.166016-1.3677-1.318333-2.77952-2.573927-4.04102-3.537109-1.98335-1.514319-4.29594-2.880714-7.68164-4.548828-.71111-.498995-2.16923-1.16308-4.01758-1.890625-.49654-.225498-.88845-.416765-1.42578-.65625-.5164-.230163-1.17691-.489851-1.91992-.761719-.42907-.167368-.8296-.315708-1.10547-.382812-5.00998-1.7320636-12.80806-3.8433205-14.59179-3.8320318-.17881.0011318-.48964-.0336177-.77149-.0605468-1.71273-.3461037-3.45103-.6504192-5.24219-.9121094-.24192-.0533163-.48269-.1044887-.72265-.1601562-.32011-.0904057-.63804-.1816966-.81836-.2597657-.30064-.1301593-1.02227-.246484-2.12695-.3515625-3.62746-.6283148-7.96966-.7344045-21.45118-.734375zm-729.359372 6.2109374c-.898224-.032875-1.569205.156288-2.160156.501953-.022327.010367-.042495.022512-.064453.033203-.354203.161757-.659865.375565-.914063.642578-.326815.322739-.575797.703041-.734375 1.142579-.356732.720022-.378336 1.547229-.091797 2.449218.019024.07296.030527.144435.054688.21875.028866.11817.063456.238098.099609.359375.028185.094102.055944.190163.089844.283204.070879.221215.154148.439134.251953.65625.033596.078928.061229.154424.097656.234374.008501.018657.035214.049491.046875.070313.02865.055422.047654.113094.078125.167969.290196.522595 1.017035 1.268967 2.007813 2.123047.762102.681995 1.69504 1.420321 2.865234 2.273437.122758.089495.267133.178107.392578.267578 2.421611 1.900566 4.854409 3.607422 5.390625 3.607422.226118 0 1.508049.691453 2.847657 1.53711 1.339608.845658 3.233158 1.730472 4.207031 1.964843.285137.068621.653024.185299 1.050781.322266 2.165474.986246 3.674378 1.614654 4.757813 1.982422.188784.066219.362669.122648.539062.175781.077829.023108.151893.042685.22461.0625.212335.058679.403499.106662.578124.138672.061789.011322.114521.015232.171876.023437.103112.013871.231015.042969.310546.042969.045868 0 .181105.033416.248047.041016.896386.279972 1.782811.5409 2.638672.761718 1.295772.334319 2.330255.631271 3.4375.9375.140585.047022.275196.08687.416016.134766 2.334041.793868 4.589487 1.466021 5.777343 1.738281.010901.003834.024287.007888.035157.011719.00547.001904.012117.003957.017578.00586.921591.325162 1.708086.638852 2.429687.951171.930345.511636 2.022595 1.245186 3.216797 2.126953 2.861599 2.254179 6.650526 5.693363 10.931641 9.953126 2.737442 2.77084 5.439457 5.591898 7.517578 7.878906.127805.144266.260239.291529.382812.43164.002452.002724.003411.005091.00586.007813 1.857555 2.172908 3.07595 3.796791 3.714844 4.919922.347526.801822.523621 1.447547.435546 1.648437-.009847.013758-.013944.032486-.02539.044922-.35748.301716-2.922175-.213539-5.533203-.951172-2.169102-.616671-4.367104-1.380111-5.333985-1.964844-1.071825-.648198-2.594984-1.177734-3.386718-1.177734-.235636 0-.470441.025992-.701172.076172h-.001953c-.591082.126205-1.137812.416319-1.609375.796875-.832048.661543-1.414063 1.611951-1.414063 2.587891 0 .015679.007096.034717.007813.050781v.001953c-.000386.019143-.007813.037469-.007813.056641 0 1.604575 2.547456 4.249187 5.146485 5.496093.554118.319766 1.092804.581833 1.55664.69336.101351.024369.241364.071627.359375.105468 1.120713.434682 2.399952.933222 3.5625 1.417969.158088.065918.36056.13975.537109.208985.684107.291976 1.567229.607495 2.558594.910156.921083.298878 1.829031.569081 2.529297.740234 4.516464 1.103887 6.516399 1.778348 7.884766 2.734375.470942.367066.898981.794052 1.308593 1.28711.791169 1.107443 1.982638 3.166153 3.085938 5.251953 1.019662 2.066207 1.892648 3.934509 2.351562 5.02539.00869.02768.027619.073963.035157.09961.031587.107481.1491.383629.226562.582031.024248.072867.066566.182258.074219.222656.013033.06882.033203.149646.033203.197266 0 .323887 1.346232 3.245581 2.992188 6.492187.028393.056005.055556.117438.083984.173828.009946.048567.046774.146007.046875.175782.001215.360028.459132 1.24711 1.033203 2.033203 1.224326 2.590786 2.307194 5.151713 2.652344 6.332033.408364 1.3965.928792 2.9935 1.257812 3.89062.2659 1.14368.492642 2.26022.632813 3.25.000731.00516.001219.01046.001953.01563.016909.22793.048828.47472.048828.67969 0 .03656.015478.10697.017578.14843.044039 1.14428.496719 3.02993 1.068359 4.4375.04067.13018.07545.26191.11719.39063.41522 1.28049.8946 3.01611 1.29883 4.6289.01151.0638.01853.12084.02929.1836.03734.69333.15926 1.46641.36914 2.29687.6036 3.02353 2.00157 5.86112 3.72071 7.5625.41751.45568.84814.81145 1.28515 1.0586.78738.57616 1.31691.83272 1.95508.72265.01535.00222.03173.00605.04688.00782.07329.00836.14647.00216.21679-.00391.34268-.01258.65873-.15151 1.03516-.44922.01505-.01175.03159-.0268.04687-.03906.12476-.05512.20158-.07478.3418-.13867 1.67733-.76424 2.57851-2.89236 2.00977-4.7461-.07877-.25674-.47973-1.55718-.72461-2.35156-.2522-.87982-.54783-1.86265-.93555-3.10742-.38789-1.24533-.71796-2.43093-1.01172-3.63867-.97202-4.12669-1.5293-8.74662-2.08984-16.67383-.30384-4.296875-.75699-9.851565-1.00586-12.343752-.09095-.910731-.14651-1.545175-.18945-2.126953-.01962-.347287-.03304-.681362-.03321-.933594.00058-.07523-.00147-.16816 0-.238281.02822-.991128.27564-1.18716.83789-1.220703.04666-.002609.09539-.004935.14649-.005859.04125-.000759.07291-.00586.11718-.00586.04323 0 .11151.01578.16797.023438 1.55783.226212 9.27949 3.992654 11.35157 5.533203.26407.23771.4587.547969.60351 1.017578.25597 1.16581.35926 3.48799.32031 7.189453-.07373 7.00518.01066 7.54576 1.55079 9.87305 3.04352 4.59908 10.72574 9.70144 15.73828 10.45312 4.30795.64602 6.92527.0293 9.87109-2.46875.17576-.13541.33913-.27264.50391-.41015.07529-.06153.15088-.1223.22461-.18555.08735-.07567.16788-.15222.25195-.22852.13791-.12525.27653-.24946.4082-.38086.33096-.32536.62747-.65597.90039-.99218.06259-.06645.13489-.14145.19336-.20508.13084-.13992.30856-.31716.41992-.44531.01348-.01578.03954-.03906.05274-.05469.00101-.0012.00094-.00271.00195-.00391.04591-.05437.07645-.10152.11914-.15429.13279-.16168.25966-.32428.36328-.47461l.00391-.00391c.00174-.00256.00218-.00525.00391-.00781.40992-.59811.61282-1.14281.70117-1.83594.02939-.22032.04668-.46141.05859-.7207 9e-5-.00235-9e-5-.00546 0-.00782.00101-.02225.003-.04185.00391-.06445 2e-4-.00472-2e-4-.01089 0-.01562.01137-.27411.01535-.57702.01562-.90821v-.00195-.00586-.00586c1e-5-.00714 0-.01236 0-.01953 0-.05578-.00343-.10361-.0039-.1582.00018-.09914-.00222-.19903-.00586-.29883.00011-.02083.00397-.04168.0039-.0625-.00016-.04997-.01011-.10379-.01172-.1543-.04852-1.13733-.24004-2.05619-.69726-3.10156-.77655-2.10558-2.23426-4.22112-4.50977-6.503908-.1408-.143748-.28798-.290108-.4375-.435546-.31815-.308116-.65777-.622518-1.00586-.9375-.0587-.052099-.1099-.10175-.16992-.154297-2.37113-2.12348-5.41324-4.408857-9.25586-6.984375-1.18774-.796087-2.08539-1.460532-2.71289-2.066406-.69924-.720866-1.04442-1.362017-1.04101-2.023438.10144-.52829.34235-1.124483.70117-1.75.36224-.504816.89271-1.076403 1.52734-1.705078.1542-.152892.27363-.284631.44336-.447266l1.71289-1.640625c.14914-.089362.29909-.179529.45117-.259765.40015-.211102.74907-.381049 1.08399-.533204.38749-.126346.81417-.211084 1.30273-.271484h3.68164c1.31117 0 2.33488-.028321 3.1836-.085937 1.10732.041125 1.7358-.059158 2.26953-.357422.42397-.136529.75307-.310464 1.01562-.529297.67633-.439701 1.0206-1.064353 1.15235-1.908203.02718-.148167.04613-.303096.05664-.464844.05973-.314904.05703-.624048-.00781-.927734-.00789-.039751-.01541-.07971-.02539-.119141-.07066-.48874-.23261-.920122-.50782-1.3125-.14957-.247505-.32076-.478642-.53711-.664062-1.25375-1.074544-4.90561-2.549951-7.01172-2.917969l-.75195-.28125-.24805.080078-.16015-.052735-.07422.027344-.02539-.009765-.73047.277343-.25195.089844-.00586.001953c-2.65413.588118-7.37071 2.333563-9.41407 3.587891-.78162.479802-1.89123 1.426165-3 2.484375-.794.693374-1.50593 1.414426-2.0957 2.150391-.84983.93778-1.54172 1.794128-1.83984 2.33789-.30615.287856-.59515.5264-.86328.703125-.47325.233397-.9774.282934-1.55274.199219-.23135-.069426-.47963-.147901-.76953-.25586-.19044-.069329-.42683-.172254-.64062-.257812-.42953-.174223-.89756-.374056-1.40821-.605469-.54446-.279417-1.11054-.571662-1.5-.769531-1.41137-.717061-6.95898-3.802965-8.96875-4.982422-.19426-.135621-.4195-.284224-.58007-.40625-.07095-.075879-.15045-.151195-.21485-.228516-.62298-.87554-1.04712-2.881718-1.26758-6.02539-.00589-.094306-.01388-.173636-.01953-.269531-.25223-3.875906-.21195-9.400758.1211-16.611329.18403-3.984313.34862-6.522404.5332-8.373046.28244-2.128857.61419-3.593162.98437-3.88086.02223-.014799.06842-.028442.09961-.042968.00308-.00143.00851-.002477.01172-.003907.0615-.027531.11655-.056556.23047-.083984.07031-.016848.1912-.033974.28125-.050781.11776-.022212.21199-.044327.36328-.066407.00389-.000563.00586.000564.00977 0 .12693-.018461.38081-.038269.53125-.05664 1.16943-.141657 2.93178-.279854 5.50586-.417969 6.46158-.318085 18.10483-.635654 38.6289-1.087891 6.1875-.136338 14.76562-.52946 19.0625-.875 4.29687-.34554 11.89062-.804314 16.875-1.017578 1.00948-.043191 1.99988-.100636 2.97461-.160156 2.55914-.135035 4.50781-.289864 5.96094-.503906.95439-.11433 1.73758-.227182 2.06641-.330078.48254-.151.90495-.361536 1.27343-.615235.00154-.001071.00238-.002833.00391-.003906.15125-.104407.28994-.221287.42188-.339844.08303-.074711.16292-.150746.23828-.230468.10864-.101776.20161-.211994.2832-.326172.02695-.03541.05249-.071317.07812-.107422.02626-.042063.05482-.083179.07813-.126953 1.15027-1.755536.81225-4.230811-1.05469-5.677735l-.18554-.330078h-.28516c-.21923-.131885-.45482-.251-.70703-.355469-.21992-.091093-.6665-.164384-1.23047-.226562-.09203-.02111-.17447-.050039-.26953-.068359-.14715-.02836-.40909-.048507-.73047-.0625-2.9555-.357666-7.89346-.303001-14.13281.11914-4.42327.194398-8.57133.512564-10.72071.917969-2.42391.457187-28.08551 1.607234-53.91015 2.441406-1.53778.047431-5.42548.149373-6.05469.173828-2.98553.015197-4.15311-.248544-4.54297-1.126953-.05147-.209675-.10184-.456892-.15234-.74414-.00851-.11393-.02735-.21477-.02735-.341797 0-3.54816-3.85197-6.039292-6.90039-4.462891-1.34424.695133-1.87672 1.383617-2.29687 3.275391-.08382.288121-.14636.579498-.164065.875-.035762.200464-.073473.357881-.109375.582031-.06103.238372-.120194.493838-.171875.677734-.421727.791902-2.31027.819055-13.806641.779297-4.22988-.014628-8.010347-.082296-11.46875-.205078-5.494893-.267177-10.264314-.626441-14.277343-1.107422-8.142271-1.116592-14.02984-3.055674-20.179688-6.246094-7.807783-4.050523-14.330532-7.134438-18.869141-8.960937-.199459-.089521-.426511-.197489-.623046-.285156-.5099-.227449-.997973-.420538-1.476563-.595704-1.307992-.689854-2.662585-.993034-3.894531-.978515-.144542-.014452-.299419-.038058-.433594-.042969zm732.921872 1.451172c.27085-.000832.53426.002283.79883.003906 4.20867.076828 8.16605.431188 13.46875 1.027344 6.6935.752515 13.43554 1.813007 14.98242 2.355469.89805.314931 2.21981.663247 3.54297.960937.12443.031302.25317.068886.375.097656.67845.166544 1.28229.273951 1.79297.330079.17607.029247.3754.070072.53906.09375 1.82249.263654 4.09895.948152 6.50391 1.855468.32419.129857.63702.248572.95508.361329.04965.019789.09675.036656.14648.05664 1.53962.654476 3.14727 1.41889 4.74219 2.21875 4.02221 2.07094 7.93688 4.485379 10.11133 6.492188.39957.368769.7754.760823 1.15039 1.152343 1.23977 1.372883 2.4053 2.923252 3.33984 4.416016 1.09881 1.851794 1.80078 3.624978 1.80078 4.900391 0 .628306-.07741 1.135101-.30468 1.662109-.10852.21761-.22306.436808-.36719.666016-.02117.031698-.0361.061523-.0586.09375-.04266.066096-.10089.138033-.14648.205078-.67088.88618-1.82813 1.995135-3.83398 3.808593-.66098.597567-1.29734 1.211104-1.88868 1.810547-.54974.458236-1.03844.919556-1.47265 1.378907-1.13094 1.073803-1.63914 1.875668-1.82227 2.796875-.00588.01961-.0083.03722-.01367.05664-.02188.075987-.03664.152292-.05078.226563-.03331.126892-.05541.245346-.05664.349609-.00011.009512-.00367.027312-.00391.037109-.78061 2.917419-2.60277 8.215662-3.39062 9.759766-.447.87607-1.1817 3.703125-1.63282 6.28125-.50869 2.907081-1.52407 5.87445-2.67382 7.8125-1.01962 1.71875-2.31325 4.390625-2.875 5.9375-1.03386 2.84696-1.99193 3.45591-5.71289 2.306641-.41066-.150291-.81783-.315008-1.19532-.486328-1.52079-.6902-3.74501-1.435724-6.21093-2.126953-4.52963-1.503427-7.93107-2.190448-12.22657-2.550782-2.75-.230688-6.31666-.91379-7.92578-1.517578-1.60919-.603793-4.84356-1.440537-7.1875-1.859375-2.344-.418837-5.96794-1.296753-8.05469-1.951172-.75974-.238262-1.62563-.446192-2.49023-.632812-1.02369-.303474-2.4659-.515223-3.74023-.542969-.05737-.001443-.14179-.013672-.19532-.013672-1.44756 0-4.32654-.570259-6.39648-1.267578-2.06994-.697325-6.0691-1.569796-8.88672-1.939453-2.81769-.369656-6.73152-1.205654-8.69727-1.857422-1.96569-.651775-4.77819-1.191619-6.25-1.199219-.02404-.000123-.05747-.005441-.08203-.005859-.0216-.002731-.04892-.009074-.07031-.011719-1.01334-.125338-2.23765-.343832-3.40625-.595703-.00406-.000893-.00766-.001059-.01172-.001953-.00523-.00113-.01039-.002775-.01562-.003906-.66018-.18849-1.29817-.396594-1.81446-.63086-1.4985-.67995-3.32644-1.236328-4.0625-1.236328-.22846 0-.53726-.024382-.90234-.068359-.99328-.220495-1.99922-.424046-2.93555-.564453-.35577-.053351-.71337-.123064-1.07226-.185547-1.61634-.354804-3.31798-.769042-4.91992-1.21875-.21325-.061807-.44331-.13483-.66016-.199219-.90919-.46948-2.73732-1.113203-4.0625-1.431641-.31731-.076248-.67085-.179033-1.01367-.273437-5.96925-2.140508-10.45083-4.010945-11.63672-4.917969-.74983-.573538-1.65578-1.031975-2.14649-1.109375-.03904-.006304-.0969-.03125-.1289-.03125-.03694 0-.09189-.019731-.13672-.029297-1.65117-1.095093-3.30543-2.420156-4.80469-3.820312-.14804-.147629-.29429-.296846-.4414-.447266-.24322-.25061-.48901-.496631-.72657-.75-.20751-.221414-.4004-.440997-.59961-.662109-.21051-.231945-.42526-.465017-.62304-.691406-.83954-.975801-1.54813-1.900356-1.97852-2.634766-.90558-1.545259-1.44374-3.13167-1.625-4.66211-.03395-.339446-.05547-.68999-.06445-1.054687-.00742-.810704.08408-1.600105.28711-2.349609.33161-1.155933.91734-2.237212 1.74609-3.199219.0633-.070602.13107-.140954.19727-.210938.83667-.879812 2.50852-1.996466 4.57031-3.162109.65917-.36777 1.34153-.731101 2.07031-1.103516 3.15401-1.467742 7.65322-3.20623 14.01758-5.486328.96417-.275787 2.0025-.636881 2.78516-.966797.02403-.009409.05052-.01798.07421-.027343 8.64959-2.910297 25.20114-6.521133 34.64258-7.509766 5.67562-.594306 10.19039-1.042325 14.15821-1.402344 6.80155-.527269 11.43344-.820874 15.18945-.898437.57057-.00437 1.15986-.017192 1.71484-.011719zm-391.12304 2.3125c-.23747.009927-.47224.047674-.70508.099609-.81102.086261-1.46239.398321-2.03516 1.074219-.1441.126657-.27941.262546-.39258.414063-.00684.009168-.01625.034008-.02343.044921-.20407.188699-.37338.382433-.44922.580079-.02221.057877-.06725.231682-.09571.320312-.28341.499348-.51346 1.058412-.65234 1.6875-.06092.275943-.26883 1.028014-.38281 1.488281-.05778.207123-.11837.468461-.17774.6875-.28284 1.012058-.57587 2.123322-.89843 3.457032-.09384.387978-.17526.754543-.26563 1.138672-.03948.167775-.07791.328009-.11914.507812-.71885 3.093382-1.27215 5.811203-1.45703 7.142578-.04405.23844-.10083.49245-.14258.72461-.12384.688648-.27843 1.449361-.41797 2.1875-.28109 1.332572-.59996 2.89117-.90234 4.353515-.66195 2.407652-1.21416 4.940874-1.88867 8.755859-.72262 3.557338-1.28294 6.77188-1.69141 9.904297-.17374 1.175647-.31733 2.303451-.43555 3.41211-.6988 5.044341-.96362 14.844113-.78711 22.71875.02553 1.901318.09389 3.570421.20313 5.066406.14319 2.454952.33855 4.485185.60547 5.601563.00486.020342.01266.040208.01758.060546.10318.47715.22511.923148.36718 1.361328.18947.63181.41073 1.257852.64649 1.878907.85625 2.587151 2.07354 4.766381 3.73047 6.914061.7336 1.01507 1.5134 1.96855 2.33398 2.82813.14545.17706.28534.35918.43359.5332.23184.27211.63387.60744 1.0918.95508.22441.20821.4502.41924.64844.5664.21614.16046.43619.29562.6543.44336.26575.1932.53404.36853.80273.54102.87044.61719 1.70719 1.08637 2.45313 1.33789.31333.10565.62569.19742.93945.2832.9724.35528 1.95658.61003 2.93164.76172.53987.10748 1.02547.18555 1.33594.18555.14027 0 .29491-.0127.44922-.02344.07612.00102.15477.01417.23046.01367.45527-.00298 1.18707-.17449 2.02735-.41601 1.5801-.40305 3.48-1.09179 5.53906-1.99024.19809-.08289.39767-.1676.59961-.25586.06906-.03108.13766-.06221.20703-.09375 1.70103-.75373 3.57535-1.73258 5.5957-2.875.88378-.48156 1.74138-.96539 2.53125-1.44726.03027-.01847.05768-.03245.08789-.05078 2.98841-1.69403 5.49214-2.82768 6.17579-2.73828.61638.09494 1.25155.69167 2.12695 2.09374.07482.12024.15904.26786.23633.39454.17496.29405.37084.64479.5664 1.00195.55036 1.13913 1.1654 2.4086 1.44141 2.94922.35099.6875 1.05872 2.09375 1.57227 3.125.65938 1.32409 1.76665 3.00623 2.98242 4.63672.58068.85547 1.14646 1.63285 1.68945 2.29687.62184.78078 1.19389 1.4039 1.70898 1.87305.02081.01792.05239.05627.07227.07226.00299.00241.01249.00924.01563.01172.00415.00368.00953.00807.01367.01172.00428.0035.01139.01223.01562.01563.00049.00039.00342.00156.00391.00195.04725.04139.10244.1044.14844.14258.10134.08411.37701.26331.53515.3789.19279.17184.39429.357.56641.48829 1.13173.86322 3.31446 2.14065 4.85156 2.83789 3.65564 1.65823 4.8146 1.61481 8.48438-.31641.22201-.11683.44095-.25752.66211-.38477.02094-.01034.04155-.01688.0625-.02734.70602-.3526 1.48037-.87424 2.26953-1.48437 2.2401-1.60048 4.30594-3.73247 5.83203-6.15235.00403-.00634.00575-.01318.00976-.01953.34468-.54787.66501-1.10791.94922-1.68164.02839-.05714.07087-.11933.09766-.17578.08689-.1831.17751-.34714.26758-.51758.51319-.89937.9803-1.54515 1.20703-1.66211.2295.07109.99567.65425 1.86719 1.38477.14405.14094.28669.27449.43164.42578.24023.25074.49098.47529.74414.68554.0426.03558.08568.06657.1289.10157.15652.12499.31332.24379.47266.35351.70645.51299 1.42661.92648 1.92969 1.05274 2.63716.66189 3.9518-.28931 3.91601-1.92383.01004-.10209.02539-.19891.02539-.30859 0-.11229-.05495-.28157-.13476-.47266-.33911-1.38083-1.45237-3.07378-3.38867-4.68945-.09416-.07857-.18885-.17201-.28321-.25977-.85442-1.01835-1.68954-2.13617-2.44726-3.27148-1.38327-2.38804-2.67504-5.5538-3.6836-9.132816-.10568-.433534-.18841-.795871-.32031-1.316406-.15888-.637412-.37196-1.438939-.55469-2.152344-.69647-3.006564-1.42812-5.968756-1.68164-6.759766-1.17093-3.653319-3.0576-10.640637-4.03906-14.960937-.55145-2.427418-1.32264-5.034363-1.7793-6.050782-.02144-.062603-.05709-.185821-.07617-.238281-.18843-.518184-.62366-1.842242-.95898-2.826172-.00898-.099649-.02735-.211312-.02735-.298828 0-.054846-.01848-.132826-.02148-.191406-.01426-.247214-.04402-.503942-.08984-.771484-.00225-.011334-.00356-.0218-.00586-.033204-.15025-.856742-.44893-1.798814-.85547-2.761718-1.13464-3.17794-3.101-6.2246-4.65235-6.867188-.10987-.045509-.21551-.070408-.32422-.109375-.09089-.043303-.18153-.091814-.27343-.126953-.41144-.243773-.80109-.388672-1.14844-.388672-.33478 0-.64746.045432-.94531.117188-.15181.027284-.2979.084948-.44532.136718-1.04874.234763-1.89216.876168-2.36328 1.910157-.68505 1.503502-.61592 2.241753.48047 5.023437.11867.301092.44779 1.447895.81836 2.783203.08702.318694.12458.439021.2168.779297.43305 1.588736.9392 3.492038 1.45117 5.5.12747.499952.27511 1.008211.41016 1.523438.31585 1.205367.59372 2.229102.91601 3.476562.66608 2.578125 1.61162 5.953125 2.10156 7.5.17056.538493.68462 2.265808 1.00977 3.332031.14188 1.651111 2.9988 10.478677 4.51172 14.072266.12478.300079.24783.578365.36523.824215.02642.05462.06505.15254.08985.20118.57649 1.13078.94676 2.7113 1.14062 4.39648.03316.35689.06069.71851.08203 1.08398.0094.36854.02881.68837.0293 1.10547-.00017.06497-.0036.11791-.00391.18164-.00064.70519-.01932 1.24383-.03906 1.7793-.00666.15672-.01659.30083-.02539.44922-.11526 1.18677-.32171 2.28096-.63477 3.14648-.28103.63067-.66375 1.27731-1.21093 2.10547-.90485 1.23874-1.95503 2.34305-2.97461 3.1543-1.20048.75017-2.54181 1.04297-4.31836 1.04297-1.09378 0-1.86343-.03416-2.48633-.1543-.18699-.07799-.37463-.15588-.5625-.25-1.22029-.61137-2.26825-1.60783-3.57031-3.45703-1.06592-1.6414-2.3734-3.93145-3.46485-6.15625-.58944-1.20151-1.1361-2.24376-1.66601-3.2207-.00315-.01313-.01092-.03437-.01367-.04688-.06579-.29951-.27512-.7265-.54883-1.20312-.1451-.28353-.29805-.56954-.48242-.8711-.02603-.05553-.0441-.08854-.07032-.14453-.12724-.27179-.41856-.6775-.76562-1.12109-.15642-.2161-.32525-.42492-.49414-.63672-.12749-.163-.25469-.3206-.38672-.48047-.08499-.09952-.16678-.19907-.25391-.29687-.20534-.24028-.40867-.47509-.61914-.701176-.67701-.766001-1.35835-1.381882-2.0625-1.869141l-1.38281-1.427734-1.2793.105469c-1.88257-.63105-3.32807-.378113-7.32031 1.6875-.51139.247634-1.12265.58455-1.7207.914062-.4335.234972-.93171.508823-1.41797.77734-.04833.02655-.10349.05904-.15234.08594-.62362.34486-1.20793.6647-1.92579 1.06641-5.42963 3.03843-9.23071 4.66406-12.12304 4.88867-.8457-.01192-1.59673-.0735-2.26367-.21094-.18528-.03926-.35886-.09847-.53711-.14844-.16971-.04862-.34334-.09199-.50391-.15234-1.72716-.7816-3.09274-2.40226-4.40625-4.90625-.64461-1.228842-1.18182-2.645155-1.625-4.248046-.97978-3.790719-1.4806-8.800022-1.49609-14.847656.01736-2.849342.14156-5.971144.3789-9.41211.40781-5.912425 1.28598-14.125 1.95313-18.25.53218-3.290465 1.08896-6.7408 1.52929-9.472656.7284-3.907055 1.47962-7.173045 2.28321-9.931641.67869-2.021163 1.5205-4.194371 2.59765-6.689453 1.45505-3.370432 1.56084-6.977703.63282-9.517578-.0283-.10086-.05447-.202477-.08594-.298828-.13817-.646331-.37265-1.074879-.7461-1.46875-.00575-.007302-.01178-.014233-.01757-.021484-.00358-.004609-.00618-.011058-.00977-.015626-.13984-.177784-.28928-.337672-.44336-.486328-.05722-.055217-.11696-.101294-.17578-.152343-.10905-.094815-.21771-.188214-.33203-.269532-.04656-.032874-.09528-.059299-.14258-.089843-.13057-.085248-.26272-.16394-.39844-.232422-.03368-.016605-.06762-.03134-.10156-.046875-.59592-.280403-1.23003-.413028-1.85937-.386719zm502.79687 20.642578c-.01458 0-.02841.003712-.04297.003906-.01203-.000198-.02515-.001927-.03711-.001953-.04023-8.6e-5-.08562.018168-.12695.021485-.22738.014634-.44925.048243-.66602.107422-1.49652.304266-2.4082 1.150145-2.67578 2.365234-.37044 1.046178-.12095 2.293403.78125 3.867187.33881.665284.76648 1.356949 1.3125 2.072266 2.79744 3.66482 5.40252 5.954446 11.64453 10.232422 1.43177 1.034602 2.78617 1.974823 3.83008 2.611328.37314.227519.77195.409627 1.17774.572266.00806.003442.02544.014378.0332.017578.03687.015203.07982.022687.11719.037109.00484.002072.01679.011715.02148.013672.02715.011319.05843.016505.08594.027344.28577.103851.57042.192029.85937.263672.15707.043174.30878.076948.46094.109375.07368.013931.1455.027281.21875.039062.11044.021023.22112.042201.32813.054688.23249.031045.46625.063719.68359.068359 1.82293.266515 2.9389-.385475 3.19922-1.957031 2e-4-.001198-2e-4-.002708 0-.003907.04728-.145901.08116-.293985.09766-.443359.12767-.420809.11272-.846704-.06641-1.300781-.005-.014837-.00833-.030041-.01367-.044922-.01233-.029609-.02733-.059984-.04102-.089844-.01383-.034308-.03121-.068953-.04687-.103515-.00707-.027577-.00967-.058571-.01758-.085938-.09287-.324519-.24566-.632956-.48242-.949219-.5895-.798626-1.69653-1.662676-3.6836-2.966796-1.42816-.937308-2.53902-1.688478-3.50976-2.367188-1.76379-1.357989-3.19227-2.716399-4.38672-4.152344-.23453-.391217-.49145-.78467-.76367-1.175781-.43586-.863859-1.32312-2.115708-2.31446-3.269531-.58206-.755589-1.21667-1.4046-1.87695-1.929688-1.36169-1.237097-2.29219-1.642578-3.66602-1.642578-.00824 0-.01521.001928-.02343.001953-.0024-1.5e-5-.00543-.001953-.00781-.001953l-.00196.001953h-.00195-.00195c-.00311-1.7e-5-.00668-.001953-.00977-.001953-.00251 0-.0053-7e-6-.00781 0-.00238-1.3e-5-.00545 0-.00782 0-.03229 0-.06168.00717-.09374.007813-.00943.000192-.01796.001727-.02735.001953-.07365-.002659-.14611-.009766-.2207-.009766-.00401 0-.00771.001939-.01172.001953-.00614-1.3e-5-.01143-.001953-.01758-.001953zm-795.072264 1.814453 4.835937.306641c.067208.004293.220781.011251.291016.015625l.333984.021484c1.881405.125508 4.795732.286625 7.96875.44336 2.236572.254942 6.331219.453419 10.21875.501953 1.973552.102612 3.652654.168381 4.978516.199218 3.037636.183126 5.255194.381673 5.527343.527344.194641.32814.313771 3.847152.369141 8.332032v6.167968c0 .607598-.004979 1.058501-.005859 1.623047-.045916 2.230609-.081297 4.120671-.119141 5.765625-.07204 2.337931-.16205 4.316937-.267578 5.814453-.08641.859948-.203598 1.529332-.359375 2.03125-.176131.453134-.395543.730001-.662109.884766-.694851.155009-1.842494-.008377-3.898438-.521485-.245224-.061201-.473455-.143993-.710937-.214843-4.250523-1.42526-7.005869-3.973417-10.677735-9.421875-3.982252-5.909019-7.312802-10.081025-12.21875-15.275391-1.033871-1.138818-2.02179-2.191632-2.875-3.029297-.279171-.274085-.520455-.525973-.779297-.789062l-.93164-.96875-.044922-.048828c-1.087573-1.265979-1.760056-2.183009-1.611328-2.304688.013415-.010975.059754-.017703.085937-.027344.127575-.018023.339573-.025014.552735-.033203zm423.943354 7.058594c-.19693-.011415-.39387-.000445-.58984.025391-.33346-.003081-.65557.017612-.94336.089843-.87345.219224-1.83637 1.192918-2.8125 2.699219-.70413 1.015173-1.38495 2.322457-2.05469 3.9375-1.58327 3.623357-3.0552 8.387868-4.08203 13.486328-.79964 3.219093-1.34882 6.009842-1.69922 8.894532-.17589.721569-.33454 1.308852-.4414 1.509765-.51222.962996-.68608 13.189228-.51563 21.490235.00832.560471.02289 1.131393.03711 1.609374.0889 3.156908.23059 5.546608.43946 5.949218.12207.2353.25157.53137.38086.82031.26215 1.14605.63384 2.15953 1.19921 3.61133.22283.57217.4215 1.13704.60352 1.68164.07436.22929.14905.45689.21094.66992.02294.07407.04063.14228.0625.21485.24439.87822.36667 1.59443.39257 2.17969.02089.47887-.02865.85784-.15039 1.13671-.15867.15295-.35156.29437-.5957.42969-1.0806.24057-2.91067-.80183-5.27539-3.0625-1.44433-1.38078-2.88982-2.52993-4.2832-3.42578-2.03144-1.38673-3.861-2.07346-5.66016-2.16602-.10691-.00572-.22191-.02929-.32617-.02929-.13142 0-.23563-.01015-.35547-.01367-.76261-.24249-1.45545-.50688-1.93164-.76172-.12253-.09559-.24283-.19807-.35742-.3125-.66483-.89571-1.33822-2.51213-2.48828-5.474612-1.92531-4.959473-4.47686-9.242375-6.50196-11.009766-.13356-.127924-.2743-.279608-.39843-.376953-.09103-.071378-.24929-.137004-.39649-.203125-1.3439-.776716-3.19028-.8989-4.78906-.421875-.09901.024083-.19553.052141-.29102.082032-.02171.006838-.04485.012378-.0664.019531-.04554.015033-.08996.03237-.13477.048828-.01176.004595-.02343.009007-.03515.013672-.04078.015388-.08089.032208-.1211.048828-.04601.019122-.09334.035848-.13867.056641-.11585.052874-.22798.115429-.33984.179687-.02455.014154-.04984.026287-.07422.041016-.03251.019567-.06543.037993-.09766.058594-.29456.174426-.57109.370862-.8125.597656-.23389.219726-.52901.579842-.84765 1.009765-.53392.670861-1.08023 1.531531-1.66407 2.582032-.05328.092389-.10559.17827-.1582.271484-.06268.115275-.12768.243271-.19141.363281-.21738.396342-.43842.794647-.63086 1.185547-.26372.535699-.48245 1.007691-.68164 1.458985-.02806.06291-.05317.12369-.08008.185546-.11102.257422-.21673.513349-.30859.753907-.02273.059647-.04281.118628-.06445.177734-.09426.256364-.18338.512049-.25781.759766v.001953c-.00037.001215.00036.002691 0 .003906-.26026.867567-.41085 1.715847-.48633 2.73242-.35234 1.98601-.32969 3.84897.06054 5.57227.17257 1.52943.53668 2.53172 1.23047 3.65429 1.3293 2.15084 4.96679 5.35586 6.16602 5.45508 1.42292 1.05822 1.87649 1.68601 1.48242 2.08008-.04957.04957-.094.13105-.14062.19922-.3523.29579-.52607.90919-.51563 1.5293-.00781.10071-.02344.19951-.02344.30078 0 .01561.00374.02564.00391.04101-.00022.01526-.00391.03173-.00391.04688 0 .01814.00544.03101.00586.04883-.00039.00875-.00586.02286-.00586.03125 0 .01854.00601.0349.00782.05273-.00079.01285-.00782.03516-.00782.04688 0 .06539.01942.12282.04492.17773.09133.63568.37789.98806.87305 1.02734.0262.00892.05281.01608.08008.02149.60165.15097 1.36803-.10916 2.0293-.82031l.00195-.00196c.2866-.18257.59409-.39422.91992-.63867.64924-.48707 1.3711-.95779 2.11719-1.41211 1.19887-.66593 2.57615-1.36983 3.93945-2.01953.2431-.11342.48032-.22253.7168-.33008 1.75287-.71037 3.3602-1.16601 4.42187-1.16601.53265 0 1.09158.08906 1.67969.24609 1.55415.46099 3.3269 1.41186 5.40235 2.9043.16562.11949.35198.26543.52343.39258.28594.21253.57592.43212.87305.66406.16273.12693.31164.2344.47852.36718.02098.0167.03772.02835.05859.04493.47226.37163.94927.75028 1.46484 1.17383.41554.34135.81855.64949 1.21289.92578h.00196l1.47851 1.26367h.1211l.56836.47265.0039.00391.63672-.04883.03906.0293.59766-.06836c1.56373.38648 3.23189.31787 5.32422-.13086.42495-.09114.78383-.16274 1.11523-.2207 1.02256.02817 1.90903.07371 2.56055.15625.70988.26083 1.66527.79976 2.94531 1.56445 3.34351 2.0626 5.31786 3.05245 7.30664 3.48242.04655.01351.09224.02407.13867.03711.18072.05053.36131.09987.53907.14258.07779.019.15683.04483.23437.0625.05834.01612.11431.0296.17188.04492.00659.00142.01294.00445.01953.00586.90445.23953 1.7176.38414 2.34375.38867.81871.00594 1.67947-.09265 2.5664-.26953.57519-.09287 1.15687-.22016 1.7461-.39062 1.22645-.24873 2.27505-.67917 3.64062-1.42188.94165-.51214 1.86202-1.0651 2.76563-1.63281.14407-.09064.28754-.17737.43359-.27148.51097-.32807 1.00912-.66187 1.5-1.00196.0681-.04703.13458-.09485.20313-.14258.34038-.2383.67553-.47635 1.0039-.71875.26299-.18962.51536-.36324.78516-.5625 1.03946-.76769 2.2018-1.7861 3.22851-2.78906.28091-.2714.53173-.53878.78711-.80664.14655-.15411.30924-.31258.44336-.46094.38695-.4277.74269-.84954 1.05274-1.25976 1.33659-1.76845 2.36774-2.77578 3.14062-3.04102.43277.06715.8822.36183 1.23243.79102.10828.27876.41009 1.06161.58984 1.52734.00962.03401.01553.06534.02539.09961.04185 1.91423 2.87451 8.12742 5.2207 11.90625.08979.14848.19321.34138.27344.46094.04023.05995.09235.12117.13477.18164.23248.35361.46324.70616.67773.99219.78789 1.17128 1.48041 1.97058 1.96289 2.17382.50529.21286 1.06866.30236 1.64258.30079 1.39153.26571 2.79943-.11389 3.89648-1.21094.49773-.49773.81368-1.01189.91797-1.74414l.50586-.68164-.75195-1.8125c-.35833-1.56195-1.10482-3.76639-2.31055-6.97266-.21236-.68898-.50788-1.53117-.83789-2.36133-.78066-1.96379-1.74935-5.31619-2.38476-7.95703-.42862-1.8724-.68642-3.38425-.58399-3.78711.21456-.03706.79232.03305 1.55859.17188.17747.07246.35689.1463.54102.23828.54599.27273 1.50885.47701 2.90234.62109.30071.07182.59814.13788.89454.19336h.00195c.32938.06162.65772.11399.99414.15625.00129.00016.00262-.00016.00391 0 .33586.04212.67929.07591 1.03515.09961.002.00013.00386-.00013.00586 0 1.23687.08202 2.7128.0369 4.54102-.08008.28115-.01792.49426-.02085.79687-.04297l.03125-.00195.52539-.03906h5.4043c.09455.061.1831.11189.2832.18164.00386.00265.00785.00515.01172.00781.284.19838.61702.47037.95117.74219l1.36719 1.23828.84375.77539c.13893.12753.26043.22612.39648.34961l.09375.08594c.01971.01785.04083.03298.06055.05078.60129.54311 1.19656 1.07555 1.75781 1.54687 3.41357 3.06057 5.60389 4.2762 10.78516 6.08399.36194.14207.94872.34365 1.76758.60351.22472.0752.40545.14087.64062.21875 5.95512 1.97226 8.12147 2.64033 11.96875 2.88086 1.152.09098 2.54902.14115 4.11719.17188.3771.0289.74896.04693 1.12305.06836.3487.05476.83655.07453 1.39843.07812.40755.02297.86258.03006 1.35938.01953 1.61013.01267 3.19018-.0542 4.74805-.18554.20385-.00531.46336-.00923.65625-.01563 4.66889-.08631 6.11887-.44415 9.78906-1.6875 1.0104-.34229 1.89314-.65414 2.66211-.96289 2.47443-.97327 3.70138-1.9107 3.69922-3.75976.02037-.12507.03133-.25203.03515-.38086.00027-.01832.00586-.03428.00586-.05274 0-.00207-.00192-.00764-.00195-.00976 8e-5-.00925.00195-.01808.00195-.02735 0-.01106-.0072-.03666-.00781-.04883.00203-.04728.00781-.09273.00781-.14062 0-.43071-.04633-.79071-.54492-1.91602-.82533-2.50015-2.68764-6.07795-5.61719-11.54101-2.6702-4.979432-4.23025-7.921932-5.26367-9.941408-.98433-2.111622-1.58911-3.594452-1.56445-3.929688.00067-.02195.00245-.04313.00391-.064453.23721-.936148 3.51442-1.276232 6.65429-1.070312.62258.080656 1.25048.191903 1.86914.322265.56512.122327 1.10629.262773 1.62696.416016.66636.235276 1.54125.580408 2.42773.933594.08315.041393.17382.078908.25977.11914.60508.285648 1.18381.522779 1.71875.679688.68372.214958 1.30568.347656 1.70312.347656.55833 0 1.12486-.13736 1.6582-.355469.014-.005775.0271-.013585.04102-.019531 1.39162-.583589 2.52734-1.768829 2.52734-2.902344 0-.057456-.02394-.129519-.03125-.191406.03687-.712232-.30051-1.415496-1.01953-2.142578-.74184-1.012689-1.70641-1.889232-2.33984-1.902344-.10985-.002271-.28475-.064584-.48633-.152344-.11367-.069129-.20683-.134808-.32617-.205078-.24274-.142912-.50783-.277732-.77344-.412109-.21718-.14473-.43731-.301653-.64844-.466797-.85938-.672213-2.32145-1.228728-3.25-1.236328-.32477-.002674-.86384-.071067-1.46679-.164062-.20759-.046565-.41747-.098572-.61914-.134766-.98226-.234468-1.98028-.439071-2.97852-.609375-.08144-.020846-.16777-.03939-.24805-.060547-3.85664-1.016475-6.64246-.839247-11.59375.736328-2.35063.748006-3.81956 1.705308-4.45312 3.128906-1.08309 2.176789-.00044 5.411385 2.8164 10.726563 1.33716 2.523113 2.6881 4.927598 3.45704 6.173828.56897 1.049285 1.52159 2.774265 1.77343 3.255855.53188 1.01709 1.11538 1.99283 1.5586 2.66211.19173.38005.35225.6835.54297 1.05078.08825.18006.19412.38128.27734.55469.25769.5416.45333.9859.65234 1.4375.12868.29193.29539.63914.39649.88867.02538.06238.04101.10877.06445.16797.91387 2.93391.30342 3.6886-5.92578 3.84961-.95824.00697-1.95202.01263-3.06445.00391h-.00196c-.73424-.00577-1.53528-.02421-2.31054-.03711-.76893-.01319-1.51124-.02264-2.30274-.04297-1.19141-.0302-2.28256-.06771-3.30859-.11133-.15501-.0061-.34081-.01126-.49024-.01758-1.74826-.08059-3.22914-.20345-4.61328-.35742-2.72462-.42152-5.15731-1.10707-8.28906-2.21484-.22719-.08036-.46119-.17994-.69141-.26758-2.56246-1.05015-4.92054-2.23117-6.66796-3.31055-.25102-.15865-.5166-.32054-.74219-.47461-.03477-.02335-.06165-.04515-.09571-.06836-1.18822-.82202-1.98349-1.55817-2.07421-2.02929-.12934-.67164.70629-2.08635 2.03711-3.449221.2727-.279276.52075-.556599.75781-.833984.00706-.008389.0125-.016999.01953-.025391 1.62251-1.906768 2.40681-3.784608 2.3789-5.820312.07586-3.216932-1.77752-6.520294-5.54882-9.636719-2.14399-1.771694-3.58969-2.484375-5.04102-2.484375-.25104 0-.50045.02014-.74609.054688-.0033.000288-.00647.001657-.00977.001953-.0228.003249-.04561.006226-.06836.009765-1.00792.10544-1.97781.53613-2.9375 1.291016-.50349.396048-.95741.89122-1.38086 1.435547-.01885.023715-.03794.04633-.05664.070312-.16349.214344-.31868.438173-.46875.671875-.10834.164555-.21285.333531-.31445.507813-.07515.132203-.14971.263324-.2207.400391-.29482.555028-.55582 1.151161-.77735 1.787109-.09169.259344-.17834.521146-.25586.791015-.02572.09087-.05007.183219-.07422.275391-.08721.328188-.16327.662676-.22851 1.003906-.01483.078039-.02925.155569-.04297.234375-.06877.393936-.12432.795149-.16211 1.203125-.00294.030351-.00894.059401-.01172.089844-.03059.353167-.04668.710652-.05273 1.072266-.00323.117777-.01677.230682-.01758.349609-.00033.049136-.00155.082623-.00195.13086-.00137.084666-.00756.151102-.00977.232421-.12845 1.126304-.28008 2.108272-.45898 2.855469-.20458.468222-.48463.857671-.86133 1.234375-.25996.25996-.49184.459201-.73242.621094-.84219.186048-2.02772.203801-3.69922.183594-1.37871-.01667-2.82387-.205627-4.20899-.492188-1.96777-.495268-3.8801-1.198965-5.17968-1.902344-.57455-.374462-1.06796-.754694-1.35743-1.080078-.10366-.163073-.19289-.344576-.27148-.541015-.17268-.986997-.24062-3.163916-.24024-5.78125.0211-2.380225.09881-5.110333.22657-7.919922.11807-2.139896.23869-4.127003.35937-6.039063.17263-2.082797.36973-3.858215.58789-4.824219.19567-.866393.31835-1.630307.40625-2.351562.2976-1.682065.27987-2.515679-.08398-3.427734-.26082-1.036607-.77437-1.864393-1.56055-2.56836-.74325-.873713-1.57801-1.287308-2.41015-1.263672-.51736-.057704-1.00832.045968-1.4668.306641-.0632.028559-.12898.040811-.19141.074219-.33356.178517-.66037.552633-.98047 1.060547-.46514.644126-.88595 1.475888-1.24023 2.542968-.36505 1.099522-.70244 2.52771-1.00391 4.113282-.3298 1.434054-.53795 2.80531-.71093 4.666015-.11564.948009-.2102 1.915516-.28907 2.90625-.01832.225103-.03835.449129-.05468.673828-.03707.529257-.0683 1.054349-.09375 1.589844-.04675.913276-.08012 1.812722-.08789 2.679688l-.13282 2.265625c-.12133 1.083445-.24647 2.045479-.37304 2.683593-.25981.541111-.65996.848772-1.26368 1.076172-.20386.056516-.42845.101659-.68164.138672-.55572.081244-1.10145.352945-1.59961.728516-.14132.04897-.27821.101502-.40039.167968-.60644.328957-.97429.869812-1.10742 1.566407-.06121.131016-.12111.262477-.16406.398437-.30278.705338-.42375 1.430102-.23047 2.039063.12915.406918.5205 1.070554 1.02344 1.792969.14403.234316.30736.473159.48437.714843.11029.158773.23334.319586.35742.480469.02077.025745.03747.05035.0586.076172.25949.331288.53562.665566.85351 1.003906.30109.320454.56951.620777.81836.91211.44852.579414.82915 1.139535 1.13282 1.703124.08096.16336.15847.327401.23437.492188.24381.521855.44946 1.05295.59375 1.619141.00066.002658.0013.005152.00195.007812.00826.032497.01158.068847.01954.101567.16369.69277.27067 1.43554.32226 2.26171.02186.36427.03008.75684.0332 1.15821-.00493 1.16448-.05096 1.97065-.19922 2.55469-.0593.21809-.13917.41328-.23828.58984-.21947.27038-.46694.54141-.74414.81445-.08339.06798-.15674.13274-.25.20508-.01292.01003-.05094.0422-.06445.05273-.07323.04884-.13638.09573-.2168.14649-.94531.59672-3.19505 2.41074-5 4.03125-1.80495 1.6205-4.7924 3.81085-6.63867 4.86719-.69428.39722-1.27668.70693-1.82226.95898-1.8806.68343-3.86174.94109-6.33204.95313-.48972 5e-5-.83739-.01862-1.24804-.02735-1.47456-.04998-2.7653-.19272-3.85156-.46094-.47585-.15737-.92318-.36079-1.39844-.625-.0012-.00066-.00271-.00128-.00391-.00195-.23975-.1334-.48599-.28184-.74805-.44726-1.73926-1.09796-2.55165-2.19558-2.47851-3.77149.00124-.05246.01247-.11198.01562-.16601.04843-.58402.23173-1.24911.51172-1.98633.21586-.44807.42736-.88793.74024-1.48242.0569-.10813.10818-.22113.16406-.33008 2.14681-3.08613 3.09857-6.60268 4.56445-16.630862 1.14735-7.849069.98795-22.704658-.07031-32.421875l.00195-2.578125-.01562-.048828v-.576172l-.83008-2.435547c-.12784-.601048-.26206-1.15242-.40234-1.621093-.04731-.158043-.09639-.289286-.14454-.447266-.27578-1.153196-.59423-2.136645-.96093-2.998047-.43363-1.273397-.81772-2.311596-1.01367-2.677734-.33908-.633564-1.05214-1.212344-1.90235-1.65625-.22486-.141876-.45905-.264806-.71094-.369141-.1351-.055962-.26581-.089775-.39843-.134766-.09934-.039305-.19927-.074568-.30078-.103515-.03895-.010905-.07846-.027191-.11719-.03711-.0442-.014585-.0887-.028235-.13281-.041015-.28069-.090756-.55918-.151814-.8379-.167969zm713.63088 13.095703c-.4685.019253-1.0071.133499-1.707.333984-1.2549.359471-3.6875 1.000923-5.4063 1.423829-.6894.169629-1.3769.379816-2.0625.607421-.0812.011716-.2241.042895-.2676.042969-.1509.000255-.5386.131434-1.0078.3125-.7742.269391-1.7228.69889-2.7695 1.25-.2568.127611-.507.247636-.7676.382813-.2147.111384-.4204.231933-.6309.347656-.211.103607-.4286.204613-.6308.310547-1.1839.620347-2.3813 1.46274-3.5235 2.412109-1.7146 1.262252-3.0814 2.646935-4.0957 4.144532-.9308 1.205152-1.6097 2.422148-1.9882 3.605468-.0729.18841-.1477.376925-.209.564453-.2908.848309-.4647 1.656545-.4707 2.371094-6e-4.072652.005.144389.0058.216797-6e-4.032229-.0056.065512-.0058.097656-.0056.797607.0891 1.576729.3359 2.4375.8152 3.327339 3.681 7.323315 10.2305 15.294922 2.975 3.620975 4.9148 6.054062 6.1875 7.775392.8682 1.20225 1.5452 2.23974 1.8222 2.83203.0727.17454.1134.31991.1309.44336-.1485.52434-1.8797.76914-4.5469.80078-1.2183-.02455-2.7047-.0727-4.6425-.14648-.7189-.02738-1.4439-.0692-2.17-.10547-3.7282-.26364-7.9777-.7065-12.1582-1.3125-6.2174-.90129-11.1956-1.92245-15.2168-3.10938-.146-.04905-.2786-.08671-.416-.125-1.9141-.5806-3.6076-1.200908-5.082-1.869138-1.3218-.657602-2.6801-1.389153-3.7852-2.046875-.5572-.348282-1.0068-.658621-1.3457-.945313-.1114-.09308-.1974-.181005-.291-.269531-1.1528-1.17568-.393-2.130934 2.041-4.611328.2233-.227579.4156-.452663.627-.679687.7815-.802946 1.504-1.650122 2.1445-2.541016 1.4494-1.960688 2.4351-3.918742 3.0117-5.900391.394-1.086884.5548-1.997095.5645-3.132812.3275-2.428203.0633-4.645078-.9219-6.205078-.1006-.186836-.2124-.377908-.334-.566407-.5601-.946244-1.3455-1.872029-2.4004-2.882812-.4479-.488317-.9072-.933531-1.373-1.259766-.068-.047652-.1429-.088603-.2149-.132812-2.3901-1.80336-4.5077-1.970498-7.1171-.621094-2.6333 1.361732-6.5464 5.938216-8.5098 9.951172-1.2197 2.493069-1.5856 3.436129-1.5606 6.001953 1e-4.003276 0 .006485 0 .009766.0013.127923 7e-4.263896.0039.40039-.1309 1.674932-.0435 3.399076.2579 5.183594.1287 2.543914.1106 3.832687-.1758 4.373047-.1503.132537-.323.252854-.5117.351562-.3068.160384-.562.320551-.8262.480469-.875.425602-1.5434.967454-1.9473 1.582031-.5694.732775-.6955 1.469147-.3789 2.216797.1394.484205.42.960975.8633 1.404297.2757.275715.5648.469064.918.603516.0077.004314.0137.011431.0215.015625h.0019c.1274.068419.2683.120093.4297.158203l.0019.001953c.1628.038142.3474.061028.5606.072266.2127.011234.4557.00994.7344-.001953.0599-.002561.1709-.016009.2343-.019532.1189-.002698.2543-.0086.3848-.015625.4768.00254.9842-.038377 1.5234-.136719.1226-.013075.1932-.012513.3243-.027343.3688-.041724.681-.076085.9824-.105469 2.348-.179987 2.8746.178713 5.8515 2.49219.9569.7436 2.1257 1.5106 3.3809 2.27148 1.711 1.07306 3.5683 2.08638 5.4473 2.98242 2.2261 1.08012 4.4543 1.95449 6.5215 2.54688.9179.28889 1.7948.53773 2.5605.6875 2.0625.40343 4.8978.98326 6.3008 1.28906 2.1803.47523 13.8755 1.66707 21.7051 2.27539.2404.04174.7423.06818 1.2851.0957 1.4854.10873 2.8447.20086 3.834.24415 3.7338.16338 6.399.23582 8.3887.19921.0848.00355.2069.00624.289.00977.0085.00037.0209.00158.0293.00195.4981.02151.6294.03682 1.002.05664.5356.02867 1.2286.06101 1.414.08204.0954.01081.1956.00935.2989-.00196.3099-.03365.6518-.16338 1-.36133.0688-.03913.1379-.09825.207-.14257l.8301.00781.3926-.82422c.173-.1587.3287-.33665.4882-.56445.4755-.6788.7895-1.27532.8926-1.93946.0481-.18985.0801-.37686.0801-.55078-1e-4-.10066-.0249-.22612-.041-.34375.0207-.12931.041-.25892.041-.36914 0-.09262-.0362-.23391-.1035-.41211-.1136-.86803-.4413-1.74556-.9942-2.58008-.6138-.92671-1.0644-1.58224-1.6132-2.40234-.2655-.41684-.52-.82195-.8145-1.26758-.8699-1.35084-1.8857-2.81316-2.998-4.337889-.182-.253441-.3632-.50124-.5469-.753906-2.2962-3.230011-4.0984-5.533291-6.0449-7.716797-5.5257-6.198277-8.2801-10.370664-8.7383-13.550781-.0089-.113916-.0215-.229863-.0215-.337891 0-1.295517.4061-2.925653.9043-3.671875.0145-.021607.0242-.044876.0391-.066406.2469-.344318.7494-.756969 1.3496-1.191406 2.7592-1.961297 8.7091-4.609651 11.7422-5.025391 1.6408-.224898 3.0431-.784501 4.1406-1.519531.0269-.015326.0458-.033317.0723-.048828.3806-.209311.7068-.423536.9316-.634766.0527-.049511.0869-.105629.1367-.15625.1929-.183752.3652-.376404.5117-.578125v-.001953c.1539-.212014.2844-.432493.3867-.664063.0536-.110082.0961-.220512.1387-.332031.3136-.69853.4046-1.415941.2403-2.099609-.0519-.438968-.1824-.807498-.3907-1.111328-.0227-.036207-.0492-.073158-.0742-.107422-.0266-.03691-.0473-.080327-.0762-.115234-.0931-.112306-.2005-.213046-.3183-.304688-.0067-.005182-.0109-.012462-.0176-.017578-.0042-.003574-.0075-.008177-.0117-.011719-.0244-.020209-.0664-.031888-.0938-.050781-.1231-.083104-.2562-.159128-.4043-.222656-.0667-.049862-.1297-.101604-.2011-.148438-.0014-.000877-.0046-.00303-.0059-.003906-.0014-.000913-.0025-.001042-.0039-.001953-.4562-.298618-.8102-.495022-1.1914-.605469-.0892-.028623-.1797-.052962-.2695-.072266-.0111-.001773-.0221-.004234-.0332-.005859-.2241-.04523-.4522-.07078-.7012-.060547zm-713.50197 3.212891c.25245.303559.49186 1.025406.70899 2.050781.1072.699751.20292 1.604728.28906 2.660156.03238.413986.0626.923752.09375 1.396485.01275.193666.02502.393516.03711.59375.0925 2.148854.14078 4.971991.16015 8.236328.00134.422823.00924.670687.00977 1.115234.00499 4.180331-.06426 7.40939-.23828 10.232422-.29988 2.591383-.5546 4.41135-.9082 6.222656-.03579.187582-.07015.374073-.10743.5625-.40606 1.962606-.95042 4.025505-1.85351 7.216799-.5107 1.80469-1.17476 3.28125-1.47656 3.28125-.30181 0-.89077-1.61719-1.3086-3.59375-.09894-.46807-.17585-.969869-.24219-1.496096-.10905-1.454483-.15848-3.382455-.16992-5.490234.04176-2.11233.14768-4.621476.36719-8.169922.29946-4.840878.56563-8.473203.84961-11.30664.29916-2.184626.64102-4.218153 1.01758-6.023438.18291-.761997.37423-1.497552.57031-2.212891.14571-.506064.28783-.988809.43359-1.455078.47644-1.126444 1.0228-2.451558 1.25196-3.064453.10871-.290757.18778-.498803.25781-.654297.03143-.030813.06751-.079571.09766-.099609.05418-.012722.10684-.010655.16015-.001953zm-217.93164 7.308593c-1.73464-.077883-3.32827 1.190567-4.32422 3.679688-.49454 1.23598-.98062 3.140565-1.42773 5.427734-.6778 3.312825-1.23111 7.436949-1.58985 12.033204-.00878.107087-.02075.211109-.02929.318359-.00086.010539-.0011.020708-.00196.03125-.0017.02139-.00221.043057-.0039.064453-.08407 1.038329-.15965 2.088666-.22071 3.142578-.21042 3.632336-.44253 6.017148-.99218 7.953122-.22801.72166-.50967 1.38758-.87696 2.05078-.19691.35757-.4322.71972-.67968 1.08789-.76927 1.13792-1.78881 2.37044-3.18555 3.98829-.29782.34496-.61989.68232-.94141 1.01953-2.61459 2.62256-6.21485 5.21301-8.21093 5.90625-.83737.1346-1.58467.03681-2.24414-.30078-.02538-.01661-.05089-.03128-.07618-.04883-.8707-.65372-1.73211-1.95025-2.74414-4.07422-.02802-.06207-.0558-.12209-.08398-.18555-.04176-.09125-.07964-.19-.11914-.28515-.36905-1.13186-.67344-2.42333-.89844-3.85547-.1972-1.52703-.34202-3.39847-.45117-5.96875-.00174-.04103-.00218-.057058-.00391-.097659-.00073-.288403-.00651-.442349-.00781-.707031-.00498-1.179924-.01132-2.304633-.03906-3.080078-.0043-.145117-.00823-.309388-.01367-.44336.02966-.767511-.00751-1.359154-.16211-1.820312-.05371-.313954-.11881-.593085-.20313-.828125v-.001953c-.07585-.211121-.16571-.399335-.27148-.574219-.00093-.001536-.00298-.004325-.00391-.005859-.03423-.056316-.08146-.107746-.11914-.16211-.23145-.498096-.53564-.827466-.97852-1.185546-.38624-.312293-.84119-.566282-1.32812-.75586-.33207-.148952-.66822-.253538-1.00391-.318359-.08082-.021609-.16396-.035169-.24609-.050781-.67059-.226048-1.27081-.222576-1.79883.03125-.46303.081439-.8899.229872-1.24219.453124-.1237.078389-.27251.350313-.43164.734376-.43506.49273-.74746 1.115943-.86133 1.865234-.0064.041172-.00455.087028-.00976.128906-.00024.00194-.00172.003918-.00195.00586-.03681.228672-.05769.465799-.06055.714843-.00278.241582-.03078.531866-.05469.816407-.1249.586045-.24749 1.187774-.35351 1.820312-1.01317 6.04467-2.7033 9.57865-6.31836 13.21875-.27728.27159-.55089.52547-.82227.76758-.00468.00418-.01094.00755-.01562.01172-.63857.5377-1.25396.99639-1.79493 1.30078-.14268.07174-.29361.16391-.42968.21484-.00138.00057-.00253.00139-.00391.00195-.44757.16659-.85829.21475-1.23828.15626-1.1586-.33524-2.00456-1.70733-2.42188-3.59961-.1677-1.54841-.0108-4.03437.45899-7.97461.16161-.679441.30461-1.522741.43164-2.492191.14401-1.049176.26949-2.221045.36133-3.507813.00609-.083997.00782-.169612.01367-.253906.66106-4.994702.66681-7.935452-.15039-9.759766-.02937-.091982-.05842-.19544-.0918-.257812 0 0-.00195-.001953-.00195-.001953v-.001953c-.10864-.202998-.23536-.387343-.3711-.560547-.08434-.11231-.17467-.21508-.26757-.316407-.10342-.116426-.21433-.227047-.33008-.332031-.03304-.028722-.06387-.060372-.09766-.08789-.15936-.136335-.32596-.267566-.50781-.386719-1.6132-1.057011-3.43128-.771287-4.91211.490234-.09455.070778-.18862.150691-.28125.244141-.3595.298818-.6882.649233-.96094 1.066406-.07637.116813-.15077.307862-.22656.464844-.04112.075161-.08554.143327-.125.222656-.41627.742444-.76044 1.593239-.99414 2.546875-.14821.604776-.35756 2.315344-.56445 4.392578-.17355 1.288417-.29297 2.637923-.35157 4.033203-.01782.237449-.03984.467793-.05664.705079-.36444 5.148222-.87759 8.167052-2.21875 10.746092-.23339.44226-.48825.87615-.77343 1.30274-.09701.14279-.20025.28649-.30274.42968-.08295.11587-.16273.23185-.25.34766-.08673.11647-.19667.23653-.28711.35352-.77879.98519-1.69993 1.98202-2.84375 3.09179-.4656.45175-.92161.87696-1.36523 1.27539-.88725.79686-1.72897 1.48638-2.51953 2.06446-1.18585.86711-2.25584 1.48368-3.19141 1.83789-.07671.02904-.14387.0409-.21875.0664-.19482.0413-.38847.07669-.58008.10157-.27468.0302-.54903.04778-.82031.03515h-.00195c-.00581-.00034-.01177-.00159-.01758-.00195-.80968-.04074-1.61074-.26906-2.44727-.66797-.23674-.11289-.46587-.25332-.69336-.39649-.19801-.14381-.39784-.27961-.59179-.44531-.60621-.5179-1.1873-1.13925-1.71289-1.83593-.5256-.69669-.99601-1.4686-1.37891-2.29102-.41863-.89917-.80106-1.87246-1.07813-2.71484-.10175-.35445-.17589-.70016-.22851-1.03907-.02898-.71016-.00022-1.46115.08984-2.25781.38209-1.45609 1.08237-3.68742 1.91406-6.01367 2.4659-6.89708 3.5303-10.370508 3.97852-13.640626.2014-1.188078.32273-2.380338.36914-3.542969.01517-.274294.02556-.544107.03125-.808594.00083-.081072.00188-.161703.00195-.242187.00752-.713045-.0167-1.390921-.08007-2.027344-.01138-.167802-.02623-.331791-.04297-.492188-.08503-2.174667-.37943-3.046115-1.11719-3.861328-.05577-.061625-.11818-.116646-.17773-.173828-.01269-.014925-.02427-.034446-.03711-.048828-.40626-.454792-.97285-.742391-1.60352-.904297-.22231-.068983-.45009-.1184-.68945-.146484-.0518-.008705-.10566-.00949-.15821-.015625-.13815-.010897-.27263-.02976-.41406-.027344-.02651.000287-.05341.002999-.08008.003906-.02064-.000274-.03975-.003906-.06054-.003906-.04756 0-.11561.022601-.16797.027344-.10651.010456-.21156.01303-.32031.033203-.14654.022328-.29091.055657-.4375.091797-.05975.012831-.11823.035466-.17774.050781-.10172.02903-.20376.05413-.30469.089844-.09402.030824-.1871.059052-.27929.095703-.09374.03786-.18327.088529-.27539.132812-.1808.085708-.35984.171974-.5293.28125-.04238.027329-.08126.062985-.12305.091797-.17829.12367-.35897.245645-.51953.396485l-.07031.066406s-.00195.001953-.00195.001953l-.04493.042969-.30664.287109c-.45382.325965-.87335.612387-1.11718.728516l-2.41602-2.417969c-.45333-.494962-.91595-.943163-1.38672-1.345703-2.03478-1.946312-2.95367-2.404297-4.75195-2.404297-.11328 0-.22953.025859-.34375.033203-.11684-.007537-.23594-.029059-.35156-.029297-1.18644-.002343-2.03577.317563-3.33985 1.425782-.0018.001532-.00405.002371-.00586.003906-.12988.088335-.25903.177228-.38867.273437-.15426.115055-.30921.240358-.46289.369141-1.22022.996158-2.42148 2.316165-3.54492 3.960938-1.72642 2.527562-3.24121 6.535139-4.36133 11-.22993.82052-.43704 1.620505-.61523 2.40625v.001953c-.18327.808297-.33719 1.607637-.47071 2.408203-.00775.045684-.01977.093065-.02734.138672-.0212.127651-.03276.286151-.05274.417968-.1045.683421-.19487 1.377594-.26757 2.080078-.59516 4.422418-.73568 8.775548-.25 12.205078.12732.8991.31019 1.73714.51757 2.54688.04108.19942.09612.37684.14258.5664.19277 1.06747.42196 1.914.68946 2.42578.15209.291.39531.65135.67968 1.03907 1.29993 2.43814 3.07443 4.10384 5.10352 4.90039.21557.09135.43266.17479.65234.24414.0216.00627.04281.01345.06446.01953.17189.05248.34331.10549.51757.14453.93379.27155 1.88343.28932 2.90625.05078.04148-.00748.08344-.02114.125-.0293.06793-.00868.13992-.00988.20703-.02148.06374-.0112.12791-.0329.19141-.04688.15-.03263.30125-.06398.45313-.11328.02595-.00847.05397-.02421.08007-.0332.17252-.05916.34815-.12593.53125-.20898 1.1082-.38706 2.22337-.99516 3.32813-1.8379 1.16231-.74249 2.1955-1.34179 2.40039-1.34179.20315 0 1.49858 1.25755 3.09766 2.97265 2.15728 2.71963 4.233 4.75957 6.28711 6.1211.5324.40922 1.00673.73802 1.36328.91992 1.40387.7162 2.81246 1.11182 4.24609 1.19336.04674.00462.09216.00415.13867.00781.19756.01809.39516.03516.58594.03516.02102 0 .04513-.00359.06641-.00391.02493.00029.05134.00391.07617.00391.52457 0 1.10109-.08614 1.71289-.24219 1.65568-.3391 3.36233-1.09239 5.14844-2.26562.02383-.01557.0484-.03117.07226-.04688 1.0944-.72491 2.22022-1.60653 3.38281-2.65039.11308-.10141.22613-.20614.33985-.31055.554-.5091 1.11355-1.04152 1.68554-1.62304.51801-.52663 1.02715-1.02247 1.51368-1.48633.64665-.59691 1.20611-1.09306 1.69922-1.51563.66796-.55027 1.18712-.92864 1.46289-1.05078.28754.10745.92889.59519 1.70898 1.30664.11487.13761.23249.27012.3418.41797.56214.76034 1.81865 1.77027 3.09179 2.53516.57541.36999 1.15224.65783 1.73829.875.10879.0446.21679.08647.32421.12695.00194.00062.00393.00133.00586.00195h.00196c3.80376 1.43025 6.79142.27282 11.36914-4.23437 3.41429-3.36168 3.87354-3.63108 4.44531-2.60938.41881.74837 1.13146 1.65847 1.96484 2.5918.03145.03668.06594.0709.09766.10742.23908.26498.47734.52773.73437.79297.17415.18263.34577.36427.5254.54102.08054.08589.16448.16433.24609.24804.1629.17787.32846.33161.49219.4961.01698.01611.03375.03281.05078.04883.70338.70034 1.4158 1.30057 2.16015 1.77148.73269.5515 1.4187.99731 1.98047 1.25391 5.08303 2.32178 8.34917 1.10488 15.1836-5.66211 2.45375-2.42953 4.83651-4.41797 5.29492-4.41797.32188 0 .76268.46388 1.14062 1.11914.10549.20354.21051.42335.31446.64648.03827.09074.0848.17159.11914.26563.82333 2.25491 2.64984 4.49188 5.375 6.58398.43212.33175.84647.58213 1.29492.7793.70454.37822 1.42658.52329 2.49609.57226.81304.10431 1.65148.10831 2.4961.03126.50685-.0017.94818-.02047 1.35742-.05274 2.17868-.10047 3.08039-.49471 4.95703-1.9707.02994-.02232.05574-.03971.08594-.0625.00105-8e-4.00285-.00116.0039-.00196.06651-.05021.14306-.11543.21094-.16796.46874-.36947.92741-.70004 1.36719-1.00196.76683-.46081 1.45813-.8266 1.91601-.99023.13594-.01141.26946-.00583.4004.01367.63776.44682 2.08451 2.03591 3.64453 3.98438.34928.49751.70406.97078 1.06445 1.42382.59338.7827 1.16626 1.44726 1.73828 2.0293 1.61423 1.83426 2.74729 2.60965 4.56836 3.36523.31127.15362.62231.30345.92773.41797 1.3771.51639 2.75727.83667 4.11329.97266.12092.01405.24525.03814.36523.04883.32796.05563.64063.10186.85937.10351.31891.00247.64186-.01291.9668-.04101.58795-.02295 1.18335-.09645 1.77735-.21875 1.43121-.2362 2.78182-.74731 4.06445-1.53516.1316-.07632.2597-.15892.38867-.24023.00311-.00207.00665-.00379.00977-.00586.17828-.11264.35629-.22552.52929-.34766 2.01546-1.25369 3.02639-2.56239 3.125-4.12109.18828-.94553-.01485-1.8021-.49414-2.49219v-.00195c-.33724-.76964-.76664-1.1332-1.64843-1.32813-.34917-.13272-.73679-.21891-1.16211-.25195-.07317-.00585-.14533-.02539-.21875-.02539-.01798 0-.04761.00545-.06641.00586-.03353-.00065-.06371-.00586-.09766-.00586-.12418 0-.29256.02578-.4414.03906-.14176.00431-.28295.00894-.42969.02344-.61375.03513-1.24513.1665-1.875.40039-.54576.13977-1.06941.30133-1.49219.50195-.44567.21149-.88451.36948-1.31836.5-.05822.01545-.11795.03653-.17578.05078-.04638.00756-.09244.01813-.13867.02539-.47058.07383-.93374.13232-1.35742.16797-.00242.00021-.0054-2e-4-.00782 0-.32121.02685-.60792.0224-.90429.02539-.1317-.00994-.25697-.00642-.39063-.02148-.23101-.02604-.44053-.0788-.6582-.1211-2.36793-.61903-4.43586-2.67984-6.0625-6.09374-.23772-.52016-.4749-1.06253-.71875-1.66407-.04186-.10326-.07165-.18256-.11133-.28125-.8187-2.20592-.90938-4.05243-.86133-10.59375l.06446-8.652341-.98438-.984375c-.02836-.038357-.05796-.077998-.08789-.117188-.03513-.060805-.06273-.130057-.10156-.1875v-.001953c-.06989-.103278-.1558-.200535-.23828-.298828-.04049-.04827-.07353-.098083-.11719-.146484v-.001953c-.00354-.003918-.00815-.00781-.01172-.011719-.00974-.010958-.01744-.022257-.02734-.033203-.22169-.244953-.51669-.461535-.82813-.65625-.06476-.046052-.12983-.08756-.19531-.128907-1.40563-1.291768-2.01948-1.300794-3.39844-.195312-.24855.115748-.47847.26511-.68554.460937-.22715.214845-.43074.480889-.61329.804688-.02288.040583-.04221.090401-.06445.132812-.00066.001255-.00129.00265-.00195.003907-.04853.075339-.09314.16435-.13867.248047-.03557.061115-.06901.125617-.10352.189453-.01006.021012-.02134.03903-.03125.060547v.001953c-.02342.044324-.0474.089201-.07031.134765-.34402.619571-.58798 1.265016-.75195 2.082032-.57747 2.162989-.7945 4.919362-.51368 7.775392.01734.17626.01255.29341.02539.45508-.04438.66325-.09442 1.38903-.14843 1.8789-.07835.52548-.16216.96242-.25 1.39453-.2072.56381-.47908 1.06849-.85938 1.63282-.19492.28924-.39898.56594-.60937.83203-.14267.17764-.28938.34668-.4375.51367l-.52344.52344c-.25955.25955-.50918.49283-.75977.72461-.51301.38985-1.05008.76408-1.59375 1.0957-.53918.31658-1.0775.58427-1.60351.8125-1.84721.64112-3.63738.50879-4.90821-.55078-.45312-.4866-.87153-1.11424-1.25781-1.90235-.5599-1.26336-1.15461-3.02724-1.55664-4.78515-.32495-1.42088-.54244-2.42141-.66797-3.31445-.0805-1.08593-.07243-2.18311.02344-3.343755.16237-1.188781.45915-2.659531.92969-4.904297.54738-2.611397.95198-4.551855 1.2832-6.189453.00262-.006681.00721-.026857.00977-.033203.43764-1.084971.85026-3.781318 1.14843-6.736328.14896-1.27789.26004-2.594075.4043-4.460938.34848-4.509474.38361-5.499537-.43164-6.535156-.69124-1.264886-1.7094-1.995826-2.82227-2.205078-.36641-.132175-.73139-.208516-1.08984-.22461zm674.60547 3.367188c-.44004-.001982-.84995.211585-1.46289.607422-.63867.249837-1.10047.73914-1.39649 1.58789-.044.088218-.08533.179968-.125.273438-.01291.025655-.03051.046159-.04296.072266-.55271 1.158208-.68993 2.149222-.45899 4.294922.0582.811061.16128 1.677374.33789 2.632812.00164.008862.00227.020397.00391.029297.06466.941654.14504 1.950599.25 3.082031.12133 1.308017.26398 2.520636.41015 3.720703.00288.123551.01563.296883.01563.404297-.00142.99491.10159 2.175427.24805 3.179688.35308 2.797163 1.07246 5.677294 2.08203 8.474609 1.39768 4.804375 3.95191 9.216725 7.36914 12.806645.00101.00115.00289.00275.0039.0039.01303.01368.02602.02737.03907.04102.05852.06629.11258.12198.16992.18554 1.09714 1.21357 2.24369 2.29515 3.43359 3.17188 3.12925 2.30567 3.80172 2.64463 6.84375 2.68945.91669.10782 1.82799.09262 2.73242-.03711 2.34206-.10399 3.37879-.50951 5.55274-1.98437.43898-.29782.9069-.67107 1.38867-1.09961 1.1476-.91685 2.20143-2.01317 3.10352-3.29883.05659-.08066.15458-.22918.21679-.31836.46552-.59605.92475-1.21002 1.35547-1.8457.78177-1.15381 1.42851-2.06599 1.9668-2.75977.27057-.34764.51596-.64203.73242-.88086.13209-.14563.23662-.23393.34961-.33984.07628-.07076.1647-.17042.23242-.22266.12753-.10067.2309-.14886.33008-.1875.00725-.00258.01438-.00557.02148-.00781.21395.08732.39115.38157.54883.84375.00825.11784.02539.21172.02539.35352 0 3.25758 6.19525 11.39422 10.9375 14.36523.25958.16263.53518.29931.82227.42383l.16211.13086h.14258c1.22423.4543 2.81821.62155 5.47265.62305.8246 4e-4 1.50889-.01674 2.14059-.04883 1.8871-.06967 3.1161-.34966 4.8204-1.11133.3616-.14505.7424-.31797 1.1406-.51367.3332-.15717.6702-.31644 1.0508-.50391 4.2753-2.10622 8.4199-6.05288 11.5546-10.98437.0853-.10235.3001-.37098.3692-.45313l.873-1.03711c.1684.02543.439.16955.7266.33789l.625.54688 2.4746 2.26172c.0215.01869.0428.03596.0645.05468.7213.65733 1.4047 1.24614 2.0644 1.78516 2.4006 2.04569 4.1152 3.15256 6.1836 3.76758.0436.01327.087.02818.1309.04101.4201.11984.8617.21968 1.3222.30469.0222.00425.0422.0095.0645.01367 1.2134.28605 2.5287.42774 3.9687.48438.3147.01639.63.02775.9473.03125.2428.00552.4685.02539.7187.02539.5573 0 1.1187-.02874 1.6817-.06836.7434-.03131 1.4782-.07117 2.1601-.14453.1754-.01843.3486-.04049.5215-.0625.2485-.03171.4959-.06509.7383-.10352.111-.01786.2218-.03715.332-.05664.3391-.05884.6739-.12577 1.0039-.19922.0067-.0015.013-.00434.0196-.00586.9478-.21188 1.8703-.47927 2.7871-.82812 3.357-1.2087 6.6507-3.27505 10.6113-6.49024l.9942-.80664 1.3007-.98242c.1662-.01841.3278-.00799.4883.03906.0452.0231.1017.05309.1563.08204.2374.1378.5432.32875.8711.53124l.2968.27735c.4448.41787 1.8424 1.24825 3.5606 2.16797.2279.12362.4541.24648.6933.37304.0349.01947.0706.03728.1055.05664.2098.11054.393.21456.6094.32618.7105.37814 1.4283.73672 2.1562 1.07226.08.03845.1563.07906.2364.11719.4873.23218.8509.37952 1.289.58008.0519.02386.1108.05474.1621.07812.0484.02203.0999.0407.1485.0625 1.5258.68981 2.8839 1.25418 4.1113 1.64063l1.375.67773.5664.00391.0586.02539.8242.00391c.9224.17645 1.9192.32162 3.0625.45898 3.4946.54212 6.846.56404 9.8711.10352.277-.03729.5496-.07973.8184-.125.0962-.01788.1936-.03382.289-.05274.5096-.09233 1.0047-.19851 1.4844-.32031l1.1738.00586 1.2364-.79297c.268-.10916.5342-.22097.791-.3418.1752-.08095.3408-.16761.5078-.2539.2454-.12673.486-.2584.7207-.39649.0439-.02681.0955-.04892.1387-.07617.0492-.03107.0921-.06265.1406-.09375.5217-.32311 1.021-.67106 1.4883-1.05273.7112-.55932 1.3117-1.13824 1.8164-1.75.0866-.10214.1791-.19964.2617-.30469.997-1.26745 1.5709-2.57658 1.7305-4.4668.0056-.04899.0168-.09423.0215-.14453.0461-.27479.0685-.56284.0683-.86914.0327-.54891-.0014-1.15893-.0937-1.88867-.0335-.47732-.1035-1.00399-.17-1.52344-.063-.57432-.1196-1.13752-.2168-1.78711-.1805-1.634184-.4592-3.376558-.8457-5.183593-.1744-.815594-.367-1.534261-.5703-2.193359-.0958-.400817-.2032-.771515-.3222-1.111329-.3424-1.134053-.6804-1.67807-1.125-2-.0025-.002543-.0054-.005281-.0078-.007812-.031-.039021-.0625-.074615-.0938-.111328h-.002c-.7495-.878016-1.5985-1.089903-2.5273-.626953-.7109.056966-1.1881.448198-1.459 1.216796-.03.062602-.0637.121117-.0898.189454-.3124.557148-.3724 1.335466-.25 2.697265.0409.744552.1428 1.639383.291 2.66211.4547 3.901135.4429 6.683699-.0859 8.728519-.3365 1.30141-1.0035 1.7884-3.209 2.34375-.7766.19554-1.6057.3374-2.4571.45312-2.6128.22325-6.0222.18741-9.2226-.09961-.9872-.1146-1.9511-.25885-2.8887-.43359-4.7499-.95299-9.0605-2.68964-11.4004-4.92578l-.7929-.75782c-.4386-.93433-.6268-2.216885-.7207-3.984371-.0166-.358541-.0316-.733338-.0411-1.142578 6e-4-.040528-6e-4-.072452 0-.113281.0308-.84103.0583-1.622821.1172-2.818359.0575-1.167505.0796-1.983416.1055-2.845703.0113-.347991.0378-.811141.041-1.121094.0193-1.432525-.0411-2.504105-.2012-3.519532-.0222-.151912-.0436-.308968-.0703-.458984-.0078-.040998-.0172-.083969-.0254-.125-.1927-1.036061-.4851-2.061652-.9218-3.390625-1.6277-4.952405-2.5361-6.903666-4-7.998047-.4977-.420785-1.0421-.720911-1.6915-.947265-1.1413-.397899-2.0908-.448597-2.9531-.095703-.0204.008022-.0402.018865-.0605.027343-.0901.039102-.1793.080644-.2676.128907-.0892.046838-.1778.100138-.2656.15625-.0157.010398-.0313.020544-.0469.03125-.0063.00418-.0132.007489-.0195.011718-.623.288002-1.1195.846774-1.7266 1.861328-.3877.565034-.7793 1.200437-1.1894 1.984375-1.606 3.069712-1.8069 4.069028-1.7969 9.166016.0041 5.123312.213 6.169735 2.0097 10.025391.6524 1.400034 1.2073 2.713685 1.5743 3.677734.2254.69699.3707 1.23817.4023 1.53711-4e-4.00207-.0015.00378-.0019.00586-.0051.02214-.005.04154-.0118.06445-.0042.0169-.0127.03562-.0175.05274-.4284 1.25113-3.2154 3.54963-6.1934 5.16211-.4032.20715-.8103.41249-1.2344.60546-.8344.37971-1.6748.69961-2.5156.97071-4.7323 1.42854-10.1804 1.18414-13.4941-.75781-.9063-.53113-1.8951-1.29542-2.6993-2.0293-.5986-.6091-1.1261-1.25413-1.5976-1.94531-.0527-.08115-.1048-.16318-.1563-.2461-.9981-1.92103-1.9946-5.182879-2.623-8.535154-.0264-.161354-.0562-.305282-.082-.470704-.0276-.17625-.0604-.337243-.0899-.507812-.0693-.422012-.1398-.845292-.1953-1.263672-.1463-1.10168-.425-2.034295-.7773-2.832031-.1825-.528444-.396-.959803-.6485-1.310547-.0492-.102161-.0953-.188375-.1367-.238281-.0526-.063388-.1083-.109738-.1621-.167969-.2981-.386275-.6231-.698055-.9727-.917969-.506-.376708-1.0505-.548011-1.625-.486328-.5755-.087267-1.0915.072376-1.5429.480469-.5379.349507-1.0097.902152-1.3516 1.6875-.3902.746294-.5609 1.722019-.5801 3.083984-.0011.067002-.0117.12309-.0117.191406 0 .242083-.0225.496192-.0371.746094-.1066 1.107892-.3175 2.244231-.6055 3.386719-.3646 1.348326-.869 2.763011-1.4765 4.173828-.2612.576247-.5384 1.173377-.8692 1.839847-2.069 3.90996-4.9793 7.49169-7.9941 9.43554-.842.42917-1.7328.78547-2.6485 1.06836-3.7022.90096-9.14868.67306-10.75777-.76562-.59166-.529-1.153-1.23109-1.67578-2.07031-.19213-.33246-.38381-.67127-.57813-1.06446-.26842-.57771-.53437-1.15933-.86718-1.95312-.15342-.36594-.28172-.68514-.41406-1.01367-.81401-2.33626-1.42071-5.08147-1.75977-8.000004-.04382-.776082-.09204-1.473863-.12891-2.460938-.00928-.248562-.02783-.486437-.03906-.734375-.0432-1.273126-.10196-2.432919-.16211-3.554687-.02196-2.015911-.08925-3.349844-.31445-4.15625-.00529-.030001-.01242-.112511-.01758-.136719-.07525-.353321-.27156-.690336-.51367-1.011719-.22707-.444542-.51791-.756275-.92774-1.08789-.72521-.586826-1.31992-.937421-1.88086-1.058594-.23435-.083689-.44839-.134766-.62304-.134766-.55064 0-1.2146.393577-1.86328.966797-.10717.076199-.2086.160026-.31055.244141-.32944.227265-.64332.503405-.92578.84375-.08363.100767-.17617.279304-.27149.492187-.42853.638567-.74831 1.350486-.92968 2.089844-.09591.330855-.15821.651898-.15821.943359 0 .032911-.00351.068363-.0039.101563-.06136.334724-.12798.651926-.17383 1.039062-.09575.808546-.28955 1.76203-.52149 2.685547-.32638 1.034601-.75594 2.144317-1.27148 3.292969-1.02437 2.210538-2.42893 4.620873-4.18555 7.152343-.25785.36844-.51541.73464-.77148 1.08399-.08941.12111-.17861.24788-.26758.36523-.11386.15266-.2234.28617-.33594.43359-2.60144 3.31312-5.01971 5.0042-7.38281 5.10938-.06385.00303-.12828.00561-.19336.00781-.22861.00183-.45781-.01124-.68555-.03906-.03817-.00416-.07535-.01098-.11328-.01563-.2351-.03381-.46866-.08308-.70312-.14843-.03259-.00893-.06509-.01789-.09766-.02735-1.06669-.31733-2.12854-.95634-3.19726-1.92187-1.325-1.19706-2.99583-3.37675-3.71289-4.84375-1.63716-3.349438-2.50531-5.22094-3.01954-7.328128-.03887-.164462-.07428-.335892-.10937-.50586-.0613-.286471-.1154-.584987-.16602-.888671-.05552-.344644-.10785-.692475-.15429-1.080079-.0091-.073895-.01862-.155032-.02735-.230468-.1551-1.369435-.26865-3.248389-.38867-5.53711-.01893-.402164-.03689-.7363-.05664-1.175781-.24265-5.397138-.56514-8.557998-1.29883-10.595703-.03783-.114164-.07723-.223084-.11719-.330078-.00148-.003658-.00437-.006115-.00585-.009766-.39684-1.058464-.90009-1.777821-1.55274-2.304687-.40713-.379943-.87249-.646134-1.39844-.824219-.00744-.003871-.01401-.007855-.02148-.011719-.86647-.448061-1.37924-.673688-1.84375-.675781zm150.33594.392578c-.0169 0-.0357.00912-.0527.009766-.0921.005802-.1847.017512-.2774.037109-.0679.008972-.1385.010144-.2051.023438-.4866.042346-.9321.263914-1.3515.626953-.0591.047149-.1097.106825-.166.158203-.0034.003078-.0064.006673-.0098.009765-.08.079206-.164.137427-.2422.228516-.013.015184-.0203.029762-.0332.044922-.0738.084056-.1417.173746-.209.265625-.1598.165129-.2964.343615-.4101.539063-.0034.004489-.0064.007212-.0098.011718-1.4661 1.971237-1.1692 3.231291 1.5879 6.712891.3358.424012.8407.939297 1.4043 1.480469 1.0154 1.053545 2.1189 2.012504 3.4765 2.976562 2.5514 1.99715 5.2014 3.75 5.9844 3.75.1175 0 .3013.043585.5196.115234.4863.241813.9585.467004 1.416.671876.1429.064994.2861.130026.4277.191406.0135.005806.0276.013758.041.019531.148.083301.2965.161628.4414.25 1.1921.726799 2.964 1.139737 4.5547 1.210937.4226.041762.8142.05014 1.1738.023438.1644-.006296.3146-.028054.4649-.048828.0708-.008921.145-.013751.2129-.025391.0283-.005422.0562-.011593.084-.017578.578-.111121 1.0476-.319155 1.3691-.640625.4603-.46032.6927-1.087668.7324-1.777344.0642-.249705.0793-.50243.0547-.757812-.0033-.042944-.0021-.085795-.0078-.128906-.0069-.044634-.0216-.089914-.0312-.134766-.0562-.29708-.1613-.596799-.3301-.902344v-.001953c-.0764-.158521-.1716-.318955-.2715-.480469-.2796-.514426-.6523-1.008228-1.1152-1.441406-.221-.206707-.4672-.41631-.7305-.626953l-.002-.001953c-.0031-.002508-.0066-.005305-.0097-.007813-.0338-.026973-.0751-.055072-.1094-.082031-.3578-.29915-.7372-.58349-1.1406-.851562-.4474-.344365-.8639-.608964-1.1973-.726563-1.3073-.76737-2.561-1.328125-3.1543-1.328125-.019 0-.0472-.009619-.0684-.011719-1.0363-.478745-2.1208-1.099447-3.2265-1.851562-.2493-.175876-.4976-.362115-.7481-.546875-1.2525-1.000182-2.6869-2.259457-4.2168-3.720703-.6741-.643871-1.261-1.148133-1.8125-1.589844-.3228-.277016-.6324-.521173-.9277-.724609-.7744-.564324-1.4446-.929688-1.7988-.929688-.002 0-.0039-4e-6-.0059 0-9e-4-9e-6-.003 0-.0039 0-.0032 0-.0066-1.9e-5-.0098 0h-.0019c-.0149 0-.03.003524-.0449.003906-.0035-.000139-.0104-.003906-.0137-.003906zm49.3789 4.375h.002c.1391.000557.2657.014336.3847.033203.019.00297.0379.006308.0567.009766.0122.002236.025.003415.0371.005859.8597.17863 1.1383.87997.8672 2.041016-.3298.952846-1.0273 2.383557-1.8399 3.835937-.6227.996627-1.3599 2.080733-2.2812 3.302735-.5767.764912-1.0631 1.278114-1.4746 1.609375-.1496.095076-.2969.189182-.4278.251953-.0911.035256-.1813.068047-.2656.08789-.0343-.004653-.0684-.008886-.1016-.019531-.037-.01335-.0755-.021098-.1113-.041015-.041-.0222-.0795-.058051-.1191-.089844-.0432-.034286-.0874-.06295-.1289-.107422-.0542-.05909-.1074-.135457-.1602-.212891-.1295-.649439.0416-1.862442.5645-3.599609 1.3012-4.323336 2.908-6.772318 4.6269-7.074219.126-.019065.2496-.031418.3711-.033203zm-336.93945 1.38086c.89579-.016864 1.96305.09074 3.15625.296874.29753.054292.60498.110154.92773.173829.68867.142837 1.42059.320834 2.18946.529297 1.63066.53187 3.23444 1.393338 4.65625 2.451171.33753.273484.6658.565101.98633.865235.33803.323345.66938.652663.98828.988281 1.16802 1.268621 2.11547 2.653191 2.64257 3.929687.10368.324067.18881.645144.22852.955079.08029.626755.11431 1.110438.08594 1.539062-.27806.761775-.94742 1.761755-1.7832 2.744141-.36578.407934-.76982.823611-1.20899 1.242187-1.09271.965457-2.32543 1.819945-3.50195 2.373047-.14957.046582-.30218.089351-.45899.126953-.09133.0232-.18367.044063-.27734.064453-2.22352.448663-5.05038.059857-7.42969-.882812-1.23629-.64783-2.41872-1.35052-3.28711-1.964844-.44222-.408142-.81043-.843833-1.06836-1.308594-.47604-.857775-.80105-3.67972-.81836-7.050781.00063-1.267981.02336-2.371806.10547-3.265625.00831-.065839.01267-.138667.02149-.203125.02219-.211073.0486-.408844.07812-.599609.03895-.223828.08085-.439922.12695-.638672.00746-.031597.01567-.064789.02344-.095703.0367-.150955.07812-.278748.11914-.41211.14753-.439919.33792-.802242.58399-1.085937.13354-.086543.27868-.171494.44726-.261719.60017-.32119 1.42946-.490238 2.4668-.509765zm-712.570312 1.498046c.390212.016464 1.026602.214647 1.714843.56836.357613.185334.635496.348102.869141.515625.034376.033305.074053.065706.107422.099609.02803.028301.051033.05583.078125.083984.020573.021381.038555.04314.058593.064454.007315.007775.014241.01567.021485.023437.245427.345356.445886.753475.609375 1.21875.024511.149659.049659.297645.064453.478516.000179.002167-.000177.003687 0 .005859.039767.489312.048828 1.100703.048828 1.890625 0 1.204193-.051175 2.217941-.125 2.828125-.036289.018363-.071839.040694-.111328.041016-.27896-.157616-.628742-.570889-1.037109-1.199219-.061697-.10914-.128252-.235728-.195313-.361328-.883022-1.842656-1.915077-4.290194-2.189453-5.361328-.061611-.416393-.031981-.71601.085938-.896485zm80.435542 1.808594c.28577 0 .74464.366299 1.2168.896484.38086.534683.80223 1.216154 1.1836 1.947266.1413.270897.26069.511009.375.748047.07126.166785.14325.334307.20507.492187.3691 1.38693.42064 3.302735.35352 7.466797-.13903 8.623381-.89756 11.643781-3.76367 14.992191-.85414.99787-1.84563 1.99023-2.57032 2.60156-1.15247.88761-1.85402.89678-2.60937.21875-.08373-.08362-.15998-.14645-.24414-.23633-.4983-.67133-.88602-1.78162-1.15039-3.26953-.1018-1.18168-.1647-2.53697-.16211-4.23437.00217-1.41909.03947-2.668747.10937-3.839849.30363-1.910723.85083-4.387572 1.73438-8.074219.0538-.215059.0922-.360951.14453-.570312.07024-.279241.15378-.557408.23437-.835938.07051-.254015.14091-.506793.21876-.757812 1.27811-3.965331 3.44536-7.544922 4.7246-7.544922zm668.78711 5.00586c.15685.00717.32601.080242.50391.21289.44767.35311.96485 1.126609 1.45117 2.097656.0034.006782.00637.01273.00977.019532.31836.680922.6155 1.431857.875 2.210937.68997 2.567988.63765 5.586772-.14649 8.125-.12961.317163-.23611.612568-.39648.962891-.6515 1.423036-1.29585 2.494296-1.91602 3.232426-.0606.07094-.12063.14042-.17968.20507-.90971.99115-1.76115 1.22381-2.49219.63282-.16542-.20023-.34063-.43954-.53906-.73829-.2017-.51928-.34673-1.24081-.44727-2.15624-.10815-1.113412-.15983-2.541948-.14844-4.441411.00752-1.244435.02726-2.241349.06836-3.091797.01473-.217722.02759-.441511.04688-.640625.27025-1.422737.62979-2.751128 1.05664-3.849609.07845-.160173.15352-.317044.24219-.484376.32633-.615905.68099-1.136707 1.01953-1.560546.15291-.176948.30367-.341606.43945-.457032.031-.023248.06573-.061648.0957-.082031.02941-.022355.05586-.037933.08399-.056641.14066-.085437.26809-.134632.37304-.140624zm-531.52343 5.30664c-.00249 0-.00532.001943-.00782.001953-.05025.000197-.10016.014428-.15039.017578-.32931-.003115-.65141.041312-.96093.13086-.79532.186013-1.48809.67766-1.98243 1.496093-.60001.605707-1.02539 1.272027-1.02539 1.8125 0 .397513 1.09821 2.420919 2.43946 4.496094 3.96924 6.141184 10.64103 11.060974 18.49804 13.640624.08312.02729.16675.04433.25.07031.12343.045.25286.10162.375.14454.50857.17869 1.12266.29254 1.76758.37695 2.9495.52956 5.72347.24676 7.30078-.82813.09655-.05597.19516-.10975.28516-.16992.0013-.00082.00261-.00113.0039-.00195.10413-.06975.19801-.14543.29297-.22071.00825-.00721.01932-.01422.02735-.02148.00287-.00259.00691-.00717.00976-.00976.00182-.00148.00405-.00243.00586-.00391.00144-.0013.00248-.00261.00391-.00391.51522-.42049.88365-.92265 1.07617-1.5.00111-.0032.00085-.00656.00195-.00976.03991-.12106.08159-.24171.10547-.36914.03682-.17649.05664-.35908.05664-.54883 0-.0042 1e-5-.00753 0-.01172 0-.00897-.00384-.01646-.0039-.02539-.00022-.02863-.00517-.05391-.00586-.08203.00106-.02285.00368-.04567.0039-.06836.0011-.03767.00586-.07307.00586-.11133 0-.00421-.00193-.00752-.00195-.01172-.00349-.17586-.02163-.34978-.05664-.51953-.01896-.09465-.05175-.18291-.08203-.27148-.41977-1.33958-1.82727-2.384-3.94922-2.39649-.38738-.07433-.80099-.13614-1.24414-.18555-.13779-.01536-.2906-.0435-.4375-.0664-1.47365-.31634-3.47325-.91343-5.34766-1.6211-1.32399-.53423-2.6691-1.15232-3.92187-1.80664-.11319-.05969-.21848-.12156-.33008-.18164-.11498-.06145-.21898-.12365-.33203-.18554-2.20818-1.37344-4.27931-3.336023-7.60938-7.031254-.05439-.082433-.12825-.179436-.17773-.257812-.00901-.014268-.0183-.026829-.02735-.041016-.57515-1.01725-1.2843-1.84593-2.05468-2.449219-.14185-.117825-.28723-.213194-.43164-.314453-.00248-.001633-.00534-.002278-.00782-.003906-.63301-.44256-1.28234-.719731-1.92187-.808594-.15016-.029471-.29903-.048693-.43945-.048828zm243.02343 0c.58868 0 1.00296.239027 1.2168.589844.04149.18992.07031.40141.07031.652344 0 .155821-.02791.28672-.04687.423828-.64105 1.027441-1.26965 1.427903-1.67969 1.230468-.16042-.138439-.29167-.341098-.37109-.626953.00371-.173446.00766-.346703.02734-.550781.05678-.588884.17862-1.045267.34375-1.386719.05936-.105306.1196-.197699.1875-.277343.0794-.032944.16139-.054688.25195-.054688zm222.17188.046875c.02159.001125.04806.004443.07031.005859.76433.058067 2.06645.342156 3.99219.84375 1.93003.502705 3.52351 1.028042 4.76367 1.560547 1.82601.87037 2.9367 1.826646 3.07813 2.75-.13298 1.258085-1.9955 1.332491-4.39258.5625-1.38634-.559812-2.8797-1.264238-4.27149-2.001953-.90313-.555251-1.78937-1.185114-2.60547-1.882812-1.55755-1.331622-1.86798-1.912501-.63476-1.837891zm-647.74414 5.175781c.06133.005029.13136.019977.19726.03125.06503.012299.12621.022277.19532.039063.50719.123752 1.13521.400396 1.91797.816406 1.65953.881996 3.38866 1.992588 4.98828 3.158207.08423.06292.16604.128.25.1914 1.33391 1.01298 2.60407 2.06787 3.64648 3.03711.98977.95097 1.77574 1.84043 2.17578 2.55078.38134.67715.62778 1.15593.76953 1.55078.09344.40614.11443.79058.04493 1.14844-.09644.26487-.26101.54217-.50782.89453-.06564.09372-.15268.17245-.23242.25586-.07611.07172-.13162.13808-.2168.21289-1.23398 1.00694-3.63619 1.08919-6.10742.43555-.19972-.0715-.30012-.10328-.52344-.18359-1.2548-.45128-2.34379-.96031-3.29296-1.53125-.91524-.61202-1.74296-1.34323-2.53907-2.23633-.35446-.39765-.63849-.73421-.89453-1.05078-.05699-.09046-.12226-.17764-.17578-.26953-.02087-.037-.04217-.074-.0625-.11133-.09452-.16768-.17465-.34111-.25781-.51367-.44192-.95753-.72462-2.01952-.85742-3.20313.00627-.46407.005-.8773.03125-1.48047.00221-.05093.00558-.07329.00781-.12305.11821-2.141408.3191-3.119205.79492-3.507808.18252-.092353.39342-.132237.64844-.111328zm318.01758.623047c.3269-.033512.67938.083214 1.05859.335938 1.04882.932811 2.48575 2.893281 3.33789 4.603511.08525.18302.14987.35147.22266.5254.08286.23786.18035.48519.23828.70507.00047.00188.00148.00398.00195.00586.04226.16098.07253.3126.09961.46094.00646.03654.01591.07553.02149.11133.02626.16482.04478.3226.04882.4668l.00782.28124c.00834.3584.00573.65804-.01368.89844-.06254.17235-.14427.32884-.2539.46094-.26003.31332-.7326.53996-1.3086.68945-.1659.01805-.3705.03537-.57422.05078l-.92382.05469c-.32456.01905-.61964.01438-.91992.01367-.89196-.13365-1.7706-.43444-2.44141-.90429-.38942-.27276-.66281-.51111-.85742-.77149-.03443-.08434-.07488-.16069-.10352-.25195-.09713-.4036-.15882-.93121-.20703-1.55274.02472-.26211.04176-.50447.0957-.84179.35998-2.25116 1.04702-4.123455 1.75977-5.007814.22378-.194309.46033-.308294.71094-.333985zm367.08398 9.164059c1.60933.05216 4.5433 2.46335 4.56836 3.76758 9e-5.00497.00195.01069.00195.01563v.00195c0 .00141 1e-5.0025 0 .00391-.00077.35342-.1037.62832-.27343.83593-.00114.00139-.00277.00253-.00391.00391-.26417.25882-.73639.36133-1.52539.36133-.12792 0-.24245-.00819-.35742-.01563-.68837-.17896-1.40719-.58237-1.96485-1.2207-.16047-.25402-.31934-.52855-.49023-.88867-.34723-.73185-.58932-1.26542-.74414-1.67383-.05123-.26585-.08276-.51745-.0625-.71484.01336-.07237.02161-.14727.04492-.21289.15974-.16325.42523-.24968.80664-.26368z"/>
</svg>
