<?xml version="1.0" encoding="UTF-8" standalone="no"?>
<svg xmlns="http://www.w3.org/2000/svg" version="1.0" width="363" height="117">
<path d="M94.521,100.387c9.74-5.003,14.578-14.903,18.748-25.472 c7.765,4.749,25.326,13.597,35.246,4.495c-15.683,6.232-32.421-2.723-38.995-12.735c-14.657,0.612-23.063,11.392-38.995,8.24 c-0.712-5.206,1.649-7.342,3-10.488c-1.664-1.025-4.382,1.964-6.749,3.746c-5.897,4.441-17.023,11.984-26.247,8.99 c2.891-14.808,15.505-23.531,25.497-31.465C76.258,37.572,87.872,28.06,103.52,26.22c-1.446,5.797-6.051,8.439-9.749,11.986 c4.599-0.409,10.546-5.939,11.249-12.735C89.087,25.21,74.674,35.427,63.775,44.2c-10.438,8.401-24.799,19.53-24.747,35.21 c13.292,2.254,22.466-5.997,30.746-11.237c-0.866,2.549-2.363,5.296-0.75,8.241c8.333,4.138,16.29-1.795,23.997-4.495 c5.787-2.028,13.978-5.932,17.998-0.749c-1.053,1.244-4.193-1.762-7.499-0.749C96.565,75.831,90.662,89.021,94.521,100.387z M111.019,73.417c-2.359,10.879-8.028,18.45-15.748,23.973C95.376,84.668,98.035,68.513,111.019,73.417z" id="path244"/>
<path d="M162.012,64.427c6.77-13.464,17.898-22.574,21.747-38.956 C177.421,38.881,165.236,50.398,162.012,64.427z" id="path248"/>
<path d="M212.256,61.431c-3.565-1.433-8.501-1.497-11.999-2.997 c0.446-4.562,10.129-9.555,5.999-18.729c-2.555-1.693-5.033-3.462-8.998-3.746c3.17-7.211,18.646-12.148,16.497-24.722 c-8.081-6.854-26.035-1.081-35.245,1.498c-6.112,1.711-12.492,1.192-14.998,4.495c15.92-0.217,34.878-13.5,48.744-3.746 c-3.144,13.591-16.247,17.232-23.247,26.97c4.776-3.56,14.493-4.347,16.498,1.499c2.081,6.068-3.805,11.271-8.249,14.234 c-7.158-1.09-10.091-6.401-17.248-7.492c-12.899,10.843,8.961,19.487,17.248,10.489 C201.755,60.434,205.737,62.199,212.256,61.431z M179.26,50.942c6.731,1.017,11.173,4.32,15.748,7.491 C188.769,63.707,172.945,61.531,179.26,50.942z" id="path250"/>
<path d="M337.49,58.434c-9.375,3.607-30.812,5.854-31.496-7.491 c-6.74,3.37-26.729,9.639-23.997-3.746c1.618-7.925,17.408-18.457,13.499-27.719c-2.732,0.766-3.872,3.125-4.5,5.993 c2.41,0.659,1.028-2.47,3-2.248c-1.999,6.993-5.608,12.377-9.749,17.23c0.943-6.049,4.808-9.181,5.999-14.983 c-4.595,5.148-7.89,11.596-9.748,19.478c-6.89,7.313-15.37,16.318-29.246,14.234c-1.978-1.658,0.573-4.99-0.75-5.994 c-5.028,1.47-7.838,5.155-12.749,6.743c-2.818-1.607-0.266-4.126-0.75-7.492c-6.411,1.086-9.346,5.646-14.998,7.492 c-3.138-1.325,0.987-6.319-1.499-8.99c-1.118,3.219-2.982,8.125-0.75,10.488c5.18,0.827,9.784-4.455,14.248-6.743 c1.913,0.835-0.301,5.794,1.5,6.743c5.773-0.475,9.112-3.382,12.748-5.993c1.339,1.159,0.498,4.496,2.25,5.244 c15.602,1.852,21.725-5.766,29.246-11.987c-1.144,12.837,18.445,8.051,23.997,4.495C304.934,64.874,330.549,66.114,337.49,58.434 z" id="path252"/>
</svg>