<?xml version="1.0" standalone="no"?>
<!DOCTYPE svg PUBLIC "-//W3C//DTD SVG 20010904//EN"
 "http://www.w3.org/TR/2001/REC-SVG-20010904/DTD/svg10.dtd">
<svg version="1.0" xmlns="http://www.w3.org/2000/svg"
 width="2770.000000pt" height="1638.000000pt" viewBox="0 0 2770.000000 1638.000000"
 preserveAspectRatio="xMidYMid meet">

<g transform="translate(0.000000,1638.000000) scale(0.100000,-0.100000)"
fill="#000000" stroke="none">
<path d="M11880 15429 c-58 -4 -172 -18 -255 -32 -82 -14 -232 -35 -333 -46
-274 -31 -467 -65 -753 -131 -127 -29 -402 -76 -583 -100 -176 -23 -392 -67
-476 -98 -30 -11 -111 -40 -180 -65 -69 -26 -186 -65 -260 -87 -249 -77 -674
-246 -925 -370 -88 -43 -189 -86 -224 -94 -35 -9 -100 -36 -145 -61 -45 -24
-106 -50 -136 -56 -30 -6 -107 -36 -171 -65 -64 -30 -123 -54 -133 -54 -61 0
-587 -263 -881 -440 -118 -71 -217 -124 -305 -163 -53 -24 -79 -41 -287 -194
-54 -39 -153 -101 -219 -137 -199 -107 -555 -341 -689 -453 -119 -99 -151
-122 -199 -143 -63 -27 -109 -59 -289 -204 -84 -68 -207 -162 -275 -209 -179
-126 -475 -363 -672 -537 -47 -42 -132 -111 -190 -155 -121 -91 -213 -176
-314 -291 -39 -44 -125 -141 -192 -215 -542 -605 -722 -817 -967 -1141 -320
-422 -505 -719 -951 -1521 -221 -399 -219 -392 -340 -837 -93 -343 -158 -601
-188 -750 -65 -328 10 -1065 153 -1499 84 -254 197 -495 291 -619 60 -79 311
-366 388 -442 151 -152 680 -487 929 -590 154 -63 434 -140 696 -190 414 -80
723 -98 1077 -65 307 29 462 55 621 105 50 16 189 59 307 96 118 36 249 79
290 95 41 15 163 60 270 99 353 130 722 280 910 372 101 49 211 101 244 115
69 29 372 188 501 263 90 53 311 167 394 205 25 11 79 46 120 78 217 166 273
207 284 207 33 0 450 365 720 629 279 274 572 644 662 838 76 163 98 202 140
253 50 60 104 150 131 220 47 121 95 152 134 88 24 -40 37 -123 49 -323 10
-156 19 -202 60 -315 10 -30 24 -105 30 -166 5 -60 14 -122 20 -135 16 -45 68
-292 141 -678 71 -381 86 -482 115 -766 9 -88 30 -268 46 -400 16 -132 29
-266 29 -298 0 -109 -32 -148 -199 -242 -178 -99 -327 -235 -423 -385 -51 -79
-65 -116 -93 -245 -10 -44 -35 -135 -56 -203 l-39 -123 0 -178 c0 -272 31
-635 70 -816 10 -49 28 -138 39 -196 24 -120 92 -327 179 -539 l60 -145 153
-82 c190 -102 294 -146 323 -139 48 12 112 74 148 143 56 107 115 347 128 518
29 411 56 1522 45 1910 -10 366 -9 425 8 468 20 46 100 108 241 188 235 132
326 187 471 288 146 102 403 273 595 397 117 76 296 240 714 654 456 451 519
525 628 739 56 109 73 131 100 131 30 0 56 -73 79 -217 64 -409 85 -525 126
-686 120 -483 294 -838 542 -1109 107 -117 196 -162 431 -221 116 -29 137 -31
290 -31 203 1 330 26 579 114 91 33 220 75 286 94 192 56 310 99 613 225 405
168 739 257 1272 340 416 64 575 82 765 88 224 6 254 2 548 -86 234 -70 479
-134 1092 -282 507 -123 601 -144 690 -154 89 -9 152 -24 230 -55 88 -35 238
-72 425 -105 214 -38 267 -51 465 -115 99 -32 214 -65 255 -74 41 -9 138 -30
215 -47 164 -35 370 -91 730 -199 244 -74 334 -104 680 -228 77 -28 253 -89
390 -137 481 -166 873 -308 1190 -432 419 -164 540 -206 660 -232 55 -12 132
-30 170 -41 39 -10 124 -23 190 -29 66 -6 203 -19 305 -28 279 -27 340 -22
461 38 76 38 113 71 179 160 187 252 238 549 138 799 -45 111 -47 177 -9 336
41 172 40 234 -4 454 -58 286 -103 451 -192 710 -47 135 -116 342 -153 460
-69 217 -163 474 -328 895 -123 316 -179 480 -282 835 -49 168 -106 361 -128
430 -22 69 -52 179 -67 245 -15 66 -45 190 -67 275 -54 210 -65 264 -78 410
-16 171 -36 298 -66 408 -15 53 -29 143 -34 211 -10 127 -21 186 -44 242 -21
50 -42 185 -61 384 -20 212 -39 327 -71 430 -34 109 -39 248 -25 730 18 631
34 842 77 1020 13 55 28 156 34 225 12 142 25 227 80 530 22 118 60 337 85
485 82 481 120 652 181 813 31 81 71 203 90 272 39 143 41 149 104 290 26 58
53 129 59 158 6 29 39 113 72 185 34 73 68 163 75 200 8 38 28 98 44 135 17
36 29 67 27 69 -2 2 -34 -28 -71 -67 -80 -85 -148 -185 -175 -260 -11 -30 -42
-91 -67 -135 -93 -159 -103 -181 -113 -243 -7 -43 -26 -93 -59 -155 -28 -51
-57 -119 -65 -153 -9 -33 -39 -122 -67 -198 -52 -141 -118 -365 -140 -471 -32
-159 -102 -415 -120 -440 -21 -28 -43 -132 -75 -345 -20 -129 -73 -461 -120
-736 -108 -642 -119 -756 -119 -1259 l-1 -390 48 -335 c84 -588 107 -739 157
-1040 27 -162 61 -378 75 -480 36 -251 101 -641 130 -776 56 -258 149 -600
205 -754 18 -47 49 -153 70 -236 43 -170 103 -322 247 -634 139 -298 173 -387
283 -738 22 -73 70 -199 104 -280 35 -81 73 -186 85 -233 12 -47 59 -200 106
-341 92 -278 128 -434 146 -628 19 -207 -2 -529 -61 -910 -30 -200 -41 -230
-101 -284 -184 -166 -605 -116 -1394 164 -408 145 -959 348 -1075 395 -261
107 -329 133 -409 154 -46 12 -142 47 -213 77 -199 84 -241 98 -418 143 -233
58 -626 184 -712 227 -15 8 -116 32 -225 53 -244 48 -367 79 -548 137 -77 25
-241 70 -365 100 -124 30 -378 93 -565 140 -381 96 -435 109 -684 160 -181 37
-213 44 -366 87 -49 14 -142 35 -205 47 -355 65 -547 126 -586 185 -18 27 -18
28 9 51 16 14 56 29 104 39 422 88 687 162 1048 293 275 100 571 234 729 331
327 201 552 377 807 631 182 182 249 284 416 635 205 430 233 578 233 1230 -1
360 -9 463 -49 583 -17 51 -36 136 -42 190 -15 131 -40 213 -109 362 -32 69
-70 164 -84 211 -30 100 -139 325 -222 460 -120 194 -463 591 -597 692 -89 67
-196 125 -392 212 -282 127 -428 173 -610 194 -151 18 -518 24 -735 12 -311
-16 -494 -49 -735 -130 -66 -22 -148 -45 -181 -50 -193 -30 -692 -333 -994
-603 -228 -203 -456 -489 -621 -778 -82 -143 -325 -645 -354 -730 -14 -41 -42
-165 -61 -275 -33 -190 -75 -375 -128 -567 -36 -131 -46 -237 -46 -513 0 -294
15 -560 36 -665 40 -191 160 -499 223 -567 21 -23 91 -111 156 -195 241 -313
665 -689 919 -818 27 -13 65 -39 84 -57 30 -28 33 -35 22 -49 -43 -51 -296
-115 -533 -134 -77 -6 -147 -17 -180 -29 -28 -11 -77 -29 -107 -40 -30 -11
-69 -20 -86 -21 -75 0 -461 -119 -1130 -346 -605 -206 -727 -244 -889 -281
-108 -25 -138 -28 -310 -28 l-190 0 -72 31 c-101 44 -162 92 -239 187 -126
157 -302 434 -363 570 -37 80 -126 396 -145 512 -55 329 -92 1124 -74 1580 6
162 14 237 43 395 41 226 77 505 99 775 32 385 48 533 69 675 21 137 22 178
22 720 -1 660 -26 1256 -70 1645 -23 197 -34 242 -63 266 -46 36 -90 13 -136
-70 -48 -90 -67 -188 -76 -401 -7 -172 -12 -212 -44 -346 -43 -181 -61 -305
-76 -519 -6 -88 -18 -209 -27 -270 -30 -219 -36 -439 -62 -2440 l-9 -640 -52
-145 c-66 -183 -111 -281 -195 -420 -230 -382 -598 -786 -1020 -1122 -66 -52
-167 -140 -225 -194 -133 -126 -162 -149 -285 -219 -55 -32 -131 -81 -170
-110 -38 -30 -96 -65 -129 -79 -70 -31 -130 -67 -348 -208 -217 -140 -289
-178 -339 -178 -30 0 -42 5 -54 24 -30 46 -74 313 -94 581 -7 81 -20 162 -35
215 -33 117 -44 182 -55 347 -8 113 -16 161 -40 230 -39 116 -39 119 -51 280
-7 99 -20 178 -45 278 -23 92 -38 183 -45 265 -5 69 -16 150 -25 180 -46 166
-57 217 -71 335 -19 166 -32 241 -50 284 -24 58 -37 278 -30 541 7 291 19 428
51 571 32 139 40 230 26 304 -20 106 -72 147 -139 109 -75 -43 -102 -112 -127
-324 -31 -260 -104 -554 -220 -885 -130 -369 -261 -657 -400 -875 -168 -263
-234 -341 -604 -710 -530 -529 -600 -591 -854 -763 -229 -155 -380 -247 -408
-247 -24 0 -332 -156 -514 -261 -232 -133 -524 -274 -825 -396 -47 -19 -209
-76 -360 -128 -151 -51 -360 -124 -465 -163 -182 -66 -395 -138 -480 -162 -22
-6 -110 -19 -195 -30 -85 -10 -234 -31 -330 -46 -160 -25 -200 -28 -475 -28
-316 -1 -406 6 -665 50 -346 60 -690 171 -930 301 -270 147 -519 332 -725 538
-194 193 -274 312 -465 695 -112 223 -138 290 -151 387 -5 43 -23 134 -39 203
-40 174 -50 283 -50 552 0 286 15 425 76 698 64 288 158 659 195 775 43 131
241 528 373 745 58 96 106 182 106 190 0 36 252 455 452 752 93 139 173 237
329 405 36 40 76 93 88 118 12 25 58 86 104 136 45 50 119 132 165 183 45 50
107 127 137 172 66 97 130 164 296 312 70 62 134 127 143 145 48 102 340 385
604 586 68 52 165 133 215 180 51 48 137 119 192 158 106 76 151 112 261 208
100 87 205 165 404 300 370 251 682 476 725 525 34 38 124 94 285 176 85 43
189 104 230 135 41 30 111 75 155 99 88 48 284 172 505 320 147 99 200 130
220 130 20 0 148 55 396 168 132 61 276 121 320 133 90 25 221 77 444 177 85
38 205 88 265 110 456 169 560 206 715 256 96 32 213 76 260 98 217 102 493
182 690 199 122 11 231 33 370 74 182 55 540 118 925 164 341 40 445 46 825
45 601 -1 750 -24 1269 -199 267 -90 356 -130 493 -223 235 -161 340 -262 408
-394 43 -81 85 -155 169 -291 92 -149 320 -629 386 -810 23 -66 98 -165 130
-173 20 -5 33 0 56 22 16 15 29 35 29 44 0 9 -21 49 -46 90 -92 150 -139 261
-154 371 -12 86 -54 179 -159 354 -43 71 -122 207 -176 300 -130 226 -183 302
-274 398 -314 328 -756 518 -1565 673 -293 56 -498 75 -676 63z m8400 -4665
c134 -25 470 -150 620 -231 150 -80 231 -143 401 -313 167 -167 290 -318 429
-530 109 -167 140 -242 278 -675 184 -574 198 -637 208 -940 13 -364 -40 -669
-161 -925 -36 -74 -81 -180 -100 -235 -62 -172 -137 -301 -281 -481 -128 -161
-359 -380 -539 -510 -414 -302 -1139 -564 -2419 -875 l-178 -43 -66 23 c-250
87 -594 289 -852 499 -229 188 -504 484 -642 693 -178 269 -222 400 -248 739
-29 391 7 788 120 1315 45 207 66 284 105 375 15 35 41 103 57 150 44 127 222
442 363 645 34 50 75 116 90 149 60 127 597 622 797 734 185 103 371 200 447
233 193 83 625 191 851 212 19 2 171 5 336 5 237 2 320 -1 384 -14z m-10173
-7320 c15 -24 18 -67 21 -398 5 -378 -14 -1621 -27 -1866 -9 -151 -21 -184
-72 -195 -76 -17 -178 65 -290 232 -90 133 -135 238 -165 382 -14 64 -36 166
-49 226 -38 172 -48 307 -43 582 5 230 7 255 32 348 32 118 104 304 153 395
58 107 102 160 158 185 28 13 73 44 100 70 59 54 77 64 127 64 30 1 41 -4 55
-25z"/>
</g>
</svg>
