<?xml version="1.0" encoding="UTF-8"?>
<svg version="1.1" viewBox="0 0 341.33 201.33" xmlns="http://www.w3.org/2000/svg" xmlns:cc="http://creativecommons.org/ns#" xmlns:dc="http://purl.org/dc/elements/1.1/" xmlns:rdf="http://www.w3.org/1999/02/22-rdf-syntax-ns#">
<metadata>
<rdf:RDF>
<cc:Work rdf:about="">
<dc:format>image/svg+xml</dc:format>
<dc:type rdf:resource="http://purl.org/dc/dcmitype/StillImage"/>
</cc:Work>
</rdf:RDF>
</metadata>
<path d="m326.44 156.67c-1.8526-35.57-4.3109-70.576-8.5174-105.33-9.4349 6.6827-17.175 37.383-30.179 43.333-9.9938 0.94477-15.284-26.513-16.426-38-6.3828 21.978-28.451 65.047-35.954 47.444-4.8474-0.43293-11.045 11.875-18.035-4.4071-7.5014-0.1058-14.397 30.192-21.924 20-3.0662-8.6993-2.1377-14.75-2.1884-24.37l-3.3772 8c-1.8575 4.4-5.5035 14.6-8.1023 22.667-5.7861 17.96-7.7832 22-10.876 22-15.924-4.59-12.567-43.255-10.345-56.104 5.3195-28.464-2.2942-3.2123-12.143 0.10391-3.5407 0-5.9823-4.6736-4.8012-9.1902 1.1683-4.4676-0.18236-3.3364-5.4011 4.5236-8.5768 13.11-10.556 3.3041-12.323-6.6667-5.4659 7.1175-8.0924 17.459-14.795 23.562-7.8582 3.4797-8.5105-17.403-9.989-12.896-3.9789 11.28-8.0043 22.535-10.972 34.173-10.981 43.506-13.054 49.853-17.107 52.37-3.0075 1.8679-8.9099-1.2276-11.283-5.9173-2.3885-4.7204-2.0059-22.511 1.0172-47.293 3.2534-26.67 3.2529-26.666 5.2778-34.384 0.92127-3.5114 1.327-6.7324 0.90167-7.1578-1.0342-1.0342 8.9648-20.801 11.649-23.029 3.0207-2.507 2.6504-0.84996-1.8789 8.4073-11.522 28.699-15.244 59.176-15.339 87.795 4.4837 47.206 19.129-10.32 22.378-22.41 5.2683-19.743 17.546-56.517 18.746-56.15 2.3661 46.963 9.4369 12.5 24.971-3.6798 0.28845 5.1108-1.6914 10.754 1.1995 15.274 4.9537 0.03688 16.637-22.716 18.007-16.333-0.83483 3.0686-3.6104 16.196-0.40537 16.333 3.9782-1.2947 22.216-29.369 22.436-24.333-13.965 17.442-12.185 109.4 6.6676 65.761 1.5488-3.9815 4.2889-11.482 6.0892-16.667 1.8003-5.1852 5.0254-13.628 7.1669-18.761-1.0792-0.7054 10.102-27.163 7.5688-9.7925-0.39105 3.7472-4.6007 32.788 0.96426 33.126 5.4346-3.335 18.129-29.333 18.129-29.333 1.0683 17.196 10.314 24.433 18.174 3.48 0.48887-2.2806 4.1777-14.647 8.1974-27.48 0.13092-3.6514 11.972-36.993 14.592-38.23 0.10148 9.5099-2.1659 19.359-3.5807 28.535-1.6819 11.032-7.7884 27.802-12.75 35.014-6.516 13.457-1.9527 18.237 6.9813 6.3469 15.419-20.401 22.371-51.953 23.801-65 1.4232 15.681-0.0851 57.062 15.222 60 8.7129-4.4302 30.546-55.319 32.755-46.467 3.1111 40.942 10.405 90.289 7.6883 127.13-1.0405 11.274-1.1547 10.306-1.8876-16zm-73.949-104c8.1895-40.628-9.1175 24.245-11.936 33.624 4.8702-9.4702 10.435-22.306 11.936-33.624zm-212.96 58.679c-3.9025-3.9025-4.9356-10.656-4.4034-28.788 0.61221-20.86 4.0513-39.146 10.952-58.232 5.1875-14.348 7.8307-18.333 9.9434-14.992-11.35 18.925-18.947 56.717-18.443 83.419 0.92964 22.498 9.5546 14.894 18.303 3.3156 39.325-53.408-6.1193 23.449-16.352 15.277z" stroke-width="1.3333"/>
</svg>
