<?xml version="1.0" standalone="no"?>
<!DOCTYPE svg PUBLIC "-//W3C//DTD SVG 20010904//EN"
 "http://www.w3.org/TR/2001/REC-SVG-20010904/DTD/svg10.dtd">
<svg version="1.0" xmlns="http://www.w3.org/2000/svg"
 width="578.000000pt" height="271.000000pt" viewBox="0 0 578.000000 271.000000"
 preserveAspectRatio="xMidYMid meet">
<metadata>
Created by potrace 1.16, written by Peter Selinger 2001-2019
</metadata>
<g transform="translate(0.000000,271.000000) scale(0.100000,-0.100000)"
fill="#000000" stroke="none">
<path d="M4416 2051 c-25 -28 -17 -135 17 -227 24 -64 35 -130 52 -324 l6 -65
57 -38 c56 -38 59 -39 132 -35 83 5 130 24 195 81 39 34 40 34 75 19 77 -32
212 -13 238 34 7 13 14 7 36 -30 43 -73 66 -93 118 -101 44 -7 50 -5 77 22 21
21 33 47 42 89 l12 59 58 -3 c58 -4 59 -4 69 -41 34 -127 25 -206 -31 -262
-34 -34 -44 -39 -86 -39 -126 1 -347 80 -483 173 -108 73 -134 74 -138 4 -4
-59 17 -97 91 -162 55 -51 203 -126 329 -169 62 -21 95 -26 175 -26 90 0 102
3 150 30 102 59 133 141 133 355 0 99 5 163 16 207 16 60 15 148 -2 246 -7 38
-19 40 -92 12 -46 -17 -59 -19 -95 -9 -63 17 -115 46 -122 69 -4 12 -15 20
-28 20 -29 0 -67 -27 -67 -46 0 -26 -40 -94 -55 -94 -11 0 -15 12 -15 44 0 27
-6 48 -15 56 -41 34 -195 16 -294 -35 -44 -22 -121 -88 -121 -104 0 -3 -37 -6
-82 -6 -46 -1 -92 -6 -104 -12 -20 -11 -21 -9 -32 75 -14 104 -44 207 -68 233
-25 27 -124 27 -148 0z"/>
<path d="M3209 2021 c-16 -16 -29 -36 -29 -44 0 -11 -22 -15 -97 -20 -196 -11
-386 -97 -541 -244 -42 -40 -52 -74 -36 -117 12 -31 86 -20 171 26 109 58 164
84 193 92 22 7 21 5 -6 -12 -17 -11 -36 -35 -43 -53 -21 -61 -8 -358 20 -463
6 -24 26 -54 46 -74 30 -28 42 -33 77 -30 65 5 68 19 61 247 -10 327 -24 391
-87 391 -17 0 -29 2 -27 4 11 10 207 44 229 40 26 -6 26 -6 38 -162 12 -155
26 -235 45 -259 12 -16 71 -17 98 -2 11 5 29 24 39 42 17 27 20 29 25 11 33
-106 98 -133 172 -70 28 24 28 24 31 171 4 153 -7 237 -35 267 -18 20 -103 25
-146 9 l-24 -9 -6 98 c-9 147 -33 190 -107 190 -22 0 -41 -9 -61 -29z"/>
<path d="M4103 1745 c-15 -19 -36 -56 -45 -82 -9 -27 -17 -39 -18 -28 -1 38
-21 96 -42 117 -27 27 -83 18 -165 -28 -37 -20 -64 -30 -68 -24 -3 5 -19 10
-35 10 -24 0 -35 -9 -57 -42 -23 -35 -29 -55 -32 -120 -4 -104 10 -128 77
-128 26 1 58 7 72 15 34 20 36 19 50 -15 16 -39 37 -50 94 -50 56 0 81 22 97
84 l11 43 26 -24 c23 -21 34 -24 96 -22 l70 2 11 -39 c15 -57 22 -64 63 -64
48 0 58 7 79 55 13 31 18 77 21 197 4 153 4 156 -18 168 -24 13 -66 9 -144
-11 -43 -12 -50 -11 -61 4 -20 27 -52 20 -82 -18z"/>
<path d="M1391 1631 c-7 -5 -22 -44 -32 -87 -16 -66 -19 -118 -19 -310 0 -127
3 -259 7 -294 l6 -62 76 6 c112 10 191 52 253 134 l48 63 0 -55 c0 -73 27 -96
109 -96 71 0 252 72 318 126 44 36 45 38 41 85 -3 26 -16 69 -30 96 -14 26
-33 75 -43 108 -21 73 -46 124 -74 149 -35 32 -123 19 -207 -31 -69 -41 -69
-41 -189 -45 l-121 -4 13 91 c19 133 18 135 -70 135 -39 0 -78 -4 -86 -9z"/>
<path d="M289 1502 c-52 -33 -109 -112 -172 -237 -73 -145 -82 -186 -82 -370
0 -152 2 -163 27 -215 27 -57 61 -98 104 -126 19 -13 37 -15 86 -10 34 4 74
14 89 21 47 25 173 160 206 221 35 65 32 67 50 -41 l8 -50 50 1 c28 0 70 9 95
20 44 21 46 22 84 129 44 122 41 122 77 -15 27 -104 47 -120 147 -120 141 0
177 48 207 273 8 62 0 87 -29 87 l-23 0 23 47 c16 31 24 63 24 97 0 74 -8 81
-82 80 -69 -1 -123 -23 -181 -73 -32 -29 -34 -29 -45 -10 -9 14 -24 19 -58 19
-51 0 -78 -12 -181 -82 -71 -47 -74 -48 -102 -33 -24 12 -46 13 -115 6 -92 -9
-174 -41 -214 -84 -25 -27 -38 -82 -28 -123 8 -31 27 -30 114 5 l52 21 -24
-47 c-13 -27 -52 -75 -85 -107 -71 -70 -83 -67 -102 22 -15 76 -6 193 23 273
23 62 98 197 139 249 l19 25 24 -26 c49 -56 110 -65 151 -24 44 43 29 109 -37
171 -48 45 -69 54 -135 54 -48 0 -68 -5 -104 -28z"/>
</g>
</svg>
