<?xml version="1.0" encoding="UTF-8"?>
<svg preserveAspectRatio="xMidYMid meet" data-bbox="9.831 7.623 449.655 123.266" viewBox="9.831 7.623 449.655 123.266" xmlns="http://www.w3.org/2000/svg" data-type="color" role="presentation" aria-hidden="true" aria-labelledby="svgcid-2dm9ud-v06onl"><defs><style>#comp-lf8x0tg11 svg [data-color="1"] {fill: #000000;}</style></defs><title id="svgcid-2dm9ud-v06onl"></title>
    <g>
        <path d="M285.783 80.349c.612-1.237 1.234-2.469 1.834-3.712 1.724-3.572 3.461-7.134 4.468-11.002.31-1.192.881-2.318 1.333-3.474.181-.462.449-.908.532-1.387.862-4.951 1.944-9.877 1.826-14.948-.032-1.381-.434-1.667-1.816-1.117-4.995 1.987-10.192 1.656-15.373 1.313-4.716-.312-7.072-5.415-6.083-9.482.431-1.77.444-1.836-1.37-2.229-4.983-1.08-9.947-2.283-14.971-3.132-4.53-.766-9.123-1.191-13.7-1.656-6.108-.62-12.227-1.135-18.342-1.69-.372-.034-.748-.024-1.122-.023-1.645.002-1.862.324-1.021 1.684 1.916 3.094 3.311 6.43 4.111 9.942.868 3.806 1.984 7.658.737 11.622-.086.274-.153.554-.256.822-.039.101-.152.173-.591.274-.08-1.429-.065-2.871-.259-4.285-.361-2.634-.841-5.252-1.28-7.875-.027-.159-.168-.3-.186-.458-.421-3.776-2.831-6.656-4.467-9.885-.542-1.069-1.352-1.598-2.507-1.377-1.898.363-3.778.824-5.664 1.252-.24.055-.465.179-.705.232-.102.023-.226-.055-.78-.209.884-.604 1.469-1.156 2.165-1.446 1.258-.526 2.567-.948 3.883-1.314.979-.272 1.159-.786.357-1.302-2.012-1.294-4.033-2.624-6.2-3.615-1.445-.661-2.818.308-3.932 1.27-.933.806-.546 1.857-.162 2.767.785 1.86 1.641 3.692 2.513 5.513.361.755.842.753 1.448.14.298-.301.97-.654 1.202-.52.557.323 1.262.863 1.365 1.415.715 3.816.99 7.632-.559 11.361-.346.832-.456 1.761-.674 2.645l-.548-.022c-.081-.472-.306-.973-.218-1.411.337-1.689.754-3.364 1.184-5.034.209-.811-.187-1.318-1.022-1.159-.305.058-.588.227-.61.237-1.003-2.163-1.96-4.264-2.949-6.35-.992-2.092-2.12-4.127-2.996-6.265-.992-2.42.09-4.331 1.982-5.816 1.697-1.333 3.717-1.46 5.512-.463a41.397 41.397 0 0 1 6.333 4.345c1.293 1.076 2.506 1.739 4.222 1.667 5.456-.228 10.854.403 16.251 1.155 4.189.584 8.429.812 12.618 1.395 4.55.634 9.081 1.428 13.595 2.285 2.636.5 5.229 1.232 7.825 1.924.674.179.934-.056 1.093-.608 1.01-3.504 3.456-5.952 6.059-8.318 1.83-1.663 5.509-1.5 7.179-.585 3.091 1.693 5.23 4.28 6.93 7.287 1.26 2.229 2.657 4.38 2.954 7.039.056.504.799 1.137 1.36 1.342 2.039.743 4.071.582 6.03-.415 4.206-2.142 8.372-4.372 12.652-6.359 3.64-1.69 7.351-3.285 11.151-4.563 3.958-1.332 7.805-.315 11.39 1.589 1.31.696 2.438 1.725 3.715 2.495 2.693 1.625 5.475 3.107 8.131 4.787 1.702 1.076 3.245 2.399 4.835 3.594-.975 2.002-2.047 2.228-3.483.817-2.852-2.805-6.132-4.428-10.282-4.093-1.652.133-2.951.607-3.964 1.937-.443.581-1.045 1.059-1.636 1.502-.204.153-.596.059-.902.078.004-.271-.108-.641.028-.798 1.562-1.792 2.426-4.372 5.261-4.755 1.004-.136.961-.69.47-1.269-.556-.656-1.156-1.337-1.877-1.78-2.201-1.354-4.56-2.611-7.135-2.731-1.921-.09-3.942.462-5.813 1.057-4.92 1.566-9.499 3.893-13.972 6.465-2.287 1.316-4.782 2.273-7.176 3.406-.287.136-.532.36-.97.663 1.217.442 2.257.865 3.324 1.199 4.984 1.56 9.977 3.094 14.966 4.639 6.812 2.11 13.674 4.076 20.42 6.378 6.236 2.127 12.37 4.557 18.507 6.959 6.597 2.582 13.177 5.216 19.706 7.963 5.045 2.122 10.016 4.422 14.993 6.704 4.107 1.883 8.251 3.709 12.238 5.825 5.198 2.758 10.223 5.838 15.385 8.668 6.073 3.33 11.346 7.782 16.957 11.761 5.4 3.829 9.789 8.691 13.936 13.766 1.404 1.717 2.651 3.656 3.53 5.683 1.472 3.393.905 5.162-2.073 6.904-2.318 1.356-4.849 2.068-7.506 2.47-9.239 1.397-18.542 1.293-27.839 1.169-3.98-.053-7.958-.424-11.93-.739-.719-.057-2.05.178-1.951-.969.094-1.086 1.312-.534 1.988-.505 4.269.182 8.534.44 12.798.714.738.047 1.467.272 2.194.44.991.23 1.865.131 2.877-.241 1.068-.393 2.359-.197 3.553-.237 4.648-.158 9.313-.112 13.938-.519 3.906-.344 7.816-1.017 11.286-3.114 1.65-.998 2.204-2.935 1.253-4.581-3.844-6.654-9.133-12.082-14.913-17.027-2.92-2.498-6.285-4.472-9.303-6.864-5.062-4.012-10.623-7.264-16.214-10.408-6.168-3.469-12.595-6.492-18.982-9.559-4.256-2.044-8.629-3.849-12.967-5.719-6.927-2.987-13.818-6.07-20.82-8.873a521.977 521.977 0 0 0-21.666-8.105c-5.713-1.998-11.552-3.638-17.324-5.47-3.553-1.128-7.067-2.382-10.633-3.462-4.207-1.275-8.449-2.437-12.685-3.619-1.683-.47-2.789.78-4.047 1.509-.185.107-.227.609-.195.914.613 5.879-.598 11.527-2.241 17.103-1.569 5.325-3.582 10.484-6.25 15.371-.555 1.016-1.113 2.039-1.779 2.983-.265.376-.827.544-1.253.807l-.237-.301Zm-2.285-55.288-.138-.323c-1.105.475-2.397.729-3.276 1.469-1.971 1.662-3.46 3.762-4.588 6.103-.342.709-.193 1.1.549 1.276.846.2 1.697.377 2.546.561 4.795 1.04 9.635 1.918 14.183 3.862.333.142.726.172 1.095.196 1.174.076 1.476-.285.998-1.387-.542-1.248-1.261-2.419-1.829-3.657-1.198-2.615-3.017-4.741-5.184-6.581-1.235-1.049-2.689-1.623-4.356-1.52Zm-8.653 10.306c-.528 2.379-.42 4.614.765 6.67.723 1.255 1.795 2.106 3.417 2.103 2.486-.004 4.995.336 7.453.098 2.695-.26 5.354-.959 7.998-1.592.465-.111 1.1-.852 1.079-1.274-.022-.452-.651-1.017-1.149-1.271-.802-.409-1.7-.661-2.582-.877a1120.927 1120.927 0 0 0-12.545-2.999c-1.441-.335-2.907-.566-4.437-.858Z" fill="#000000" data-color="1"></path>
        <path d="M15.956 77.474c28.232 2.417 56.348 5.859 84.514 8.866l.081.654c-.684.215-1.384.649-2.05.604-2.022-.139-4.03-.469-6.045-.714-3.333-.406-6.663-.835-10.001-1.198-3.915-.427-7.837-.794-11.756-1.188-5.98-.602-11.963-1.172-17.938-1.819-5.392-.584-10.773-1.271-16.164-1.872-1.442-.161-2.901-.162-4.352-.249-3.645-.217-7.291-.432-10.935-.664-1.511-.097-3.026-.38-4.528-.316-1.457.061-2.899.463-4.349.703-.487.081-.992.22-1.468.165-.99-.116-1.481-1.306-.855-2.076.386-.475.85-.958 1.386-1.227 4.841-2.429 9.676-4.873 14.572-7.191 4.597-2.177 9.256-4.225 13.907-6.288 1.133-.503 2.355-.803 3.508-1.265 5.459-2.185 10.939-4.321 16.354-6.61 7.738-3.272 15.412-6.694 23.145-9.977 1.815-.77 3.724-1.549 5.653-1.763 2.274-.252 4.615.104 6.927.2a.696.696 0 0 1 .242.057c1.476.637 2.952 1.276 4.652 2.013-1.336 0-2.522.037-3.704-.007-2.73-.102-5.476-.478-8.182-.285-1.715.122-3.411.974-5.046 1.662-4.695 1.976-9.351 4.045-14.031 6.058-4.334 1.865-8.66 3.751-13.026 5.539-2.986 1.223-6.065 2.222-9.05 3.45-5.438 2.237-10.87 4.491-16.24 6.884-4.644 2.069-9.201 4.333-13.788 6.528-.532.255-1.011.621-1.515.936l.082.392Z" fill="#000000" data-color="1"></path>
        <path d="M366.692 125.471c-1.799-.218-3.598-.44-5.398-.652-4.034-.473-8.074-.905-12.099-1.443-.761-.102-1.462-.625-2.201-.932-.32-.133-.663-.297-.997-.3-1.807-.016-3.64.213-5.417-.013-4.19-.532-8.354-1.261-12.526-1.933-5.108-.823-10.211-1.68-15.319-2.501-6.13-.985-12.256-2-18.398-2.908-7.79-1.151-15.604-2.145-23.39-3.328-4.999-.76-9.976-1.683-14.936-2.67-1.042-.207-1.994-.356-3.057-.244-.929.098-1.903-.079-2.84-.233-5.513-.908-11.028-1.808-16.529-2.786-3.463-.615-6.893-1.413-10.356-2.027-1.706-.302-3.464-.311-5.181-.564-2.168-.32-4.311-.811-6.48-1.128-4.222-.616-8.454-1.16-12.681-1.736-.201-.027-.4-.072-.657-.119.03-.947.556-1.281 1.367-1.178 2.422.306 4.842.637 7.259.985 5.614.808 11.233 1.582 16.836 2.464 5.439.857 10.859 1.832 16.287 2.754 5.107.867 10.209 1.763 15.322 2.591 4.458.723 8.926 1.389 13.395 2.044 5.982.877 11.976 1.677 17.953 2.586 5.488.835 10.956 1.803 16.442 2.655 5.65.878 11.315 1.664 16.966 2.534 7.208 1.11 14.404 2.3 21.616 3.381 3.074.461 6.182.692 9.265 1.1 4.807.636 9.61 1.304 14.402 2.041.576.089 1.074.687 1.608 1.05l-.258.507Z" fill="#000000" data-color="1"></path>
        <path d="M160.182 28.156c.582 2.009 1.309 3.754 1.553 5.563.279 2.074.261 4.214.105 6.306-.072.96-.633 1.985-1.235 2.784-1.327 1.763-2.919 3.236-5.097 4.013-1.101.393-2.086 1.111-3.218 1.734-.374-1.223.37-1.424 1.059-1.683 3.493-1.317 6.074-3.57 7.031-7.265.647-2.498-.118-4.913-.902-7.278-.247-.744-.712-1.43-.872-2.186-.407-1.927-1.774-2.569-3.495-2.798-1.933-.257-3.549-1.037-4.782-2.6-.972-1.233-.999-2.304.061-3.533.655-.759 2.543-.911 3.443-.131a70.72 70.72 0 0 1 4.058 3.84c1.427 1.448 5.039 1.556 6.386.033.358-.405.475-1.13.479-1.71.008-.986-.168-1.973-.255-2.961-.121-1.375-.61-2.586-1.675-3.493-2.585-2.201-5.112-4.481-7.816-6.527-2.472-1.87-5.769-1.037-7.853 1.704-2.279 2.997-3.961 6.292-4.97 9.915-.685 2.461-1.321 4.936-1.972 7.406-.16.607-.296 1.221-.594 1.801-.509-2.622-.846-5.192.343-7.729 1.718-3.666 3.295-7.397 5.038-11.051 2.779-5.825 7.957-5.401 11.934-3.12 2.981 1.71 5.544 3.973 7.716 6.606 2.245 2.723 2.252 6.041 1.556 9.226-.488 2.232-2.702 2.687-4.723 3.009-.43.068-.869.084-1.3.124Zm-5.018-2.334c-.323-1.611-1.962-3.01-3.118-2.937-.221.014-.571.138-.615.284-.068.227-.011.667.144.756 1.109.635 2.255 1.203 3.589 1.896Z" fill="#000000" data-color="1"></path>
        <path d="M369.981 53.424c.263-.308.485-.668.799-.91.423-.326.91-.574 1.382-.832 2.894-1.583 2.858-4.405 3.01-7.124.286-5.117-2.682-8.295-6.665-10.788-.701-.439-1.644-.481-2.452-.773-.572-.207-1.281-.398-1.596-.835-.237-.328-.143-1.293.153-1.518.609-.463 1.451-.623 2.202-.895.056-.02.154.053.224.097 2.932 1.82 6.093 1.386 9.19.741 1.244-.259 2.61-.893 3.478-1.784 1.677-1.721 3.682-3.359 3.424-6.247-.126-1.409-.617-2.546-1.548-3.548-1.071-1.152-2.125-2.322-3.234-3.437-.299-.301-.751-.502-1.17-.627-6.227-1.858-10.784.766-14.586 5.412-.337.411-.743.766-1.118 1.147l-.395-.236c.125-.428.145-.931.39-1.274 2.839-3.972 6.217-7.128 11.504-7.247 1.852-.042 3.822-.497 5.429.758 1.627 1.27 3.127 2.705 4.633 4.12.599.563 1.072 1.261 1.581 1.914.2.257.505.576.481.841-.191 2.058.412 4.265-.98 6.111-.897 1.189-1.879 2.314-2.838 3.455-1.641 1.951-3.917 2.518-6.303 2.836-.76.101-1.519.207-2.352.32 1.022 1.616 1.952 3.062 2.856 4.523 2.575 4.161 2.063 8.314.068 12.531-.86 1.818-2.319 2.742-4.081 3.367-.404.143-.87.113-1.307.163l-.179-.263Z" fill="#000000" data-color="1"></path>
        <path d="M186.548 45.324c.183-.864.293-1.752.562-2.589 1.101-3.426 1.141-6.798.351-10.355-.656-2.953-1.463-5.835-2.364-8.71-1.05-3.351-3.037-6.035-5.727-8.226-1.537-1.252-3.297-1.021-4.954-.351-.549.222-1.006.967-1.253 1.575-.756 1.862-1.407 3.768-2.055 5.671-.126.371-.054.809-.078 1.216-.024.402-.053.803-.366 1.243-.119-.189-.352-.388-.338-.567.138-1.709.225-3.432.517-5.117.21-1.21.625-2.405 1.096-3.546 1.381-3.342 5.201-4.308 8.142-2.177 3.64 2.637 5.521 6.375 6.946 10.474 1.456 4.187 2.121 8.501 2.256 12.895.095 3.096-.57 6.05-2.356 8.659l-.38-.092Z" fill="#000000" data-color="1"></path>
        <path d="M127.465 91.031c.474-1.071 1.144-1.241 2.025-1.139 5.685.659 11.38 1.234 17.058 1.947 4.85.609 9.681 1.371 14.521 2.053 3.676.518 7.272 1.656 11.06 1.368.383-.029 1.157.559 1.159.863.004.925-.794.591-1.32.522-5.502-.725-10.998-1.494-16.503-2.195-3.164-.403-6.348-.652-9.511-1.06-4.477-.577-8.942-1.255-13.417-1.853-1.632-.218-3.279-.331-5.072-.506Z" fill="#000000" data-color="1"></path>
        <path d="M123.359 39.536c.314-2.257.935-4.525.857-6.769-.082-2.364-.587-4.788-1.361-7.031-.722-2.093-1.005-4.551-2.923-6.055l-.461.137c-.021.462-.13.94-.049 1.383.44 2.397.97 4.778 1.379 7.18.194 1.139.186 2.312.269 3.469l-.628.2c-.345-.614-.857-1.192-1.003-1.85a57.11 57.11 0 0 1-.937-5.48c-.341-2.825-.55-5.665-.867-8.493-.135-1.207.702-1.164 1.468-1.324.923-.193.884.46.997 1.023.056.282.096.618.272.816 1.725 1.942 2.456 4.387 3.312 6.732.686 1.879 1.124 3.868 1.468 5.844.404 2.316.737 4.67-.149 6.981-.421 1.099-.802 2.213-1.202 3.32a375.86 375.86 0 0 1-.443-.081Z" fill="#000000" data-color="1"></path>
        <path d="M371.435 126.215c.917-1.228 2.066-1.458 3.37-1.297 4.648.575 9.298 1.134 13.95 1.669 1.316.151 2.649.156 3.963.316.684.083 1.341.375 2.018.542.43.106.874.206 1.314.219 2.139.065 4.282.057 6.416.188.362.022.69.594 1.034.911-.456.251-.935.75-1.365.711-2.307-.207-4.598-.586-6.902-.836-4.822-.523-9.652-.975-14.471-1.521-1.048-.119-2.062-.516-3.097-.768a4.161 4.161 0 0 0-.947-.129c-1.761-.012-3.522-.006-5.283-.006Z" fill="#000000" data-color="1"></path>
        <path d="M175.187 95.606c1.073.079 2.085.115 3.087.233 5.461.643 10.923 1.288 16.376 1.996.494.064 1.311.574 1.317.889.016.894-.808.896-1.486.8-4.086-.578-8.167-1.189-12.253-1.765-1.843-.26-3.691-.5-5.543-.675-.889-.084-1.352-.472-1.497-1.478Z" fill="#000000" data-color="1"></path>
        <path d="M104.71 86.741c3.616.486 7.23.982 10.847 1.451.822.107 1.67.05 2.477.212.344.069.613.508.916.779-.348.205-.717.617-1.042.585-4.415-.435-8.824-.93-13.234-1.415-.205-.023-.45-.032-.599-.147-.319-.247-.587-.559-.875-.844.331-.167.654-.355.997-.492.143-.057.329-.01.495-.01l.017-.12Z" fill="#000000" data-color="1"></path>
        <path d="M396.399 34.977c-.129-.463-.378-.929-.368-1.389.047-2.224.163-4.446.254-6.669.026-.641.191-1.157.984-1.136.835.022 1.271.517 1.166 1.277-.241 1.754-.566 3.497-.899 5.237-.168.877-.43 1.735-.65 2.602l-.487.078Z" fill="#000000" data-color="1"></path>
        <path d="M120.648 88.69c1.665.01 3.304.083 4.347 1.897-1.263-.108-2.479-.114-3.643-.364-.42-.09-.713-.764-1.065-1.171l.36-.361Z" fill="#000000" data-color="1"></path>
    </g>
</svg>