<?xml version="1.0" encoding="UTF-8" standalone="no"?>
<!-- Created with Inkscape (http://www.inkscape.org/) -->

<svg
   xmlns:dc="http://purl.org/dc/elements/1.1/"
   xmlns:cc="http://creativecommons.org/ns#"
   xmlns:rdf="http://www.w3.org/1999/02/22-rdf-syntax-ns#"
   xmlns:svg="http://www.w3.org/2000/svg"
   xmlns="http://www.w3.org/2000/svg"
   xmlns:sodipodi="http://sodipodi.sourceforge.net/DTD/sodipodi-0.dtd"
   xmlns:inkscape="http://www.inkscape.org/namespaces/inkscape"
   width="108.69988mm"
   height="42.839909mm"
   viewBox="0 0 385.15706 151.79495"
   id="svg6524"
   version="1.1"
   inkscape:version="0.91 r13725"
   sodipodi:docname="Iván_Duque_Márquez_signature.svg">
  <defs
     id="defs6526" />
  <sodipodi:namedview
     id="base"
     pagecolor="#ffffff"
     bordercolor="#666666"
     borderopacity="1.0"
     inkscape:pageopacity="0.0"
     inkscape:pageshadow="2"
     inkscape:zoom="0.7"
     inkscape:cx="248.51892"
     inkscape:cy="39.231832"
     inkscape:document-units="px"
     inkscape:current-layer="layer1"
     showgrid="false"
     fit-margin-top="0"
     fit-margin-left="0"
     fit-margin-right="0"
     fit-margin-bottom="0"
     inkscape:window-width="1280"
     inkscape:window-height="710"
     inkscape:window-x="0"
     inkscape:window-y="0"
     inkscape:window-maximized="1" />
  <metadata
     id="metadata6529">
    <rdf:RDF>
      <cc:Work
         rdf:about="">
        <dc:format>image/svg+xml</dc:format>
        <dc:type
           rdf:resource="http://purl.org/dc/dcmitype/StillImage" />
        <dc:title></dc:title>
      </cc:Work>
    </rdf:RDF>
  </metadata>
  <g
     inkscape:label="Capa 1"
     inkscape:groupmode="layer"
     id="layer1"
     transform="translate(87.00686,-561.07176)">
    <path
       style="fill:#000000"
       d="m 76.7626,565.25734 c 1.69814,-0.37298 3.52028,-0.0593 4.71043,0.81099 1.66161,1.21501 1.77251,1.789 0.77053,3.9881 -0.64373,1.41284 -2.87593,3.49205 -4.96042,4.62046 -10.75427,5.82161 -33.05085,21.51463 -43.30993,30.48285 -2.54621,2.22583 -9.07121,7.64696 -14.5,12.04696 -21.02318,17.03916 -27.078748,23.30132 -24.767543,25.61253 1.648662,1.64866 6.287543,-2.33409 10.281243,-8.82706 3.7868,-6.15659 6.35772,-7.37842 9.31106,-4.42509 l 2.06976,2.06977 -2.35687,5.03202 c -1.29628,2.76761 -2.10829,5.28059 -1.80447,5.58442 0.51663,0.51663 6.67784,-5.55805 11.96025,-11.79229 4.72143,-5.57216 10.57568,-3.02299 7.96955,3.47026 -3.45559,8.60974 -1.85476,9.1143 5.39454,1.70027 6.29652,-6.43959 7.86914,-7.3127 10.56897,-5.8678 1.65722,0.88692 1.98251,1.74764 1.525,4.03518 -0.31986,1.59929 -0.25531,2.90073 0.14344,2.8921 0.39875,-0.009 2.97201,-2.03362 5.71835,-4.5 2.74634,-2.46637 5.72874,-4.48431 6.62756,-4.48431 2.41758,0 4.17998,2.64566 3.64091,5.46564 -0.47247,2.47157 -0.46708,2.47332 2.40178,0.77865 1.58142,-0.93417 5.15473,-3.87259 7.94068,-6.52983 6.49686,-6.19669 9.39572,-6.21457 9.39572,-0.058 0,4.61618 -0.13842,4.63343 6.8398,-0.85202 5.32666,-4.18719 6.37644,-4.46367 9.17594,-2.41663 1.69322,1.23812 2.38029,1.0196 6.36818,-2.02538 7.36528,-5.62382 11.68914,-5.74719 12.76572,-0.36425 l 0.60909,3.04542 9.62063,-9.25418 c 5.29135,-5.0898 12.54564,-12.44206 16.12064,-16.33836 17.75937,-19.35549 46.30128,-40.63045 50.76191,-37.83761 0.95595,0.59853 1.87754,2.24993 2.04799,3.66978 0.26385,2.19792 -3.81747,6.75373 -27.46557,30.65864 -15.27651,15.44241 -28.07403,28.63533 -28.43894,29.3176 -1.37524,2.57131 -2.00694,5.74049 -1.14422,5.74049 1.3524,0 10.09741,-5.83663 15.73883,-10.50446 6.73041,-5.5689 7.13901,-5.7591 9.57323,-4.45635 1.76061,0.94225 2.0558,1.87063 1.76346,5.54625 -0.1931,2.42801 -0.18762,4.41456 0.0122,4.41456 0.19982,0 2.00306,-1.28489 4.00721,-2.85531 7.29407,-5.71552 11.87211,-6.6927 14.29057,-3.05032 1.37415,2.06958 1.48506,2.03617 9.37197,-2.8237 10.81269,-6.66271 11.13598,-6.74638 14.02457,-3.62954 l 2.42986,2.62186 4.26347,-3.47603 c 2.3449,-1.91182 5.24638,-3.99599 6.44772,-4.63149 5.67407,-3.00157 10.81861,0.0802 9.67545,5.79596 -0.611,3.05502 -0.51828,3.2038 1.36752,2.19455 1.11262,-0.59545 10.29166,-9.27998 20.39786,-19.29894 29.81722,-29.55981 38.72853,-35.85324 41.65927,-29.42098 1.40109,3.07506 -0.68657,6.08697 -14.28467,20.60876 -10.28698,10.98576 -18.98078,20.85187 -28.99969,32.91013 -3.3,3.97172 -7.92955,9.46812 -10.2879,12.21423 -2.35834,2.7461 -6.30704,9.1212 -8.77489,14.16687 -4.6637,9.53523 -8.1518,13.67395 -11.52436,13.67395 -3.03263,0 -3.29353,-2.42258 -0.71694,-6.65695 1.28617,-2.11368 4.48841,-8.11805 7.11609,-13.34305 2.62768,-5.225 6.33245,-11.23719 8.2328,-13.36042 1.90036,-2.12323 3.45465,-4.37323 3.45398,-5 -6.7e-4,-0.62677 -1.01317,0.0238 -2.25,1.44582 -3.79852,4.36712 -11.77397,9.9146 -14.25395,9.9146 -3.47618,0 -5.49483,-2.59785 -5.49483,-7.07143 0,-2.16071 -0.28672,-3.92857 -0.63716,-3.92857 -0.35044,0 -3.53643,2.475 -7.07998,5.5 -3.54355,3.025 -7.21683,5.5 -8.16284,5.5 -2.52171,0 -4.12002,-2.01727 -4.12002,-5.2 0,-1.54 -0.3644,-2.8 -0.80977,-2.8 -0.44537,0 -3.18319,2.02592 -6.08405,4.50204 -7.00756,5.98155 -9.73404,6.63192 -12.81015,3.05573 -2.34372,-2.72474 -2.38029,-2.73142 -4.93567,-0.90142 -5.54463,3.97068 -9.95095,6.31148 -11.91036,6.3272 -2.50306,0.0201 -4.45,-1.78446 -4.45,-4.12453 0,-3.12071 -1.99038,-3.07465 -5.64089,0.13054 -6.59226,5.78808 -12.88764,6.69657 -16.30438,2.35289 l -2.09042,-2.65754 -2.73216,2.39297 c -4.04524,3.54304 -29.1356,29.352 -28.83093,29.65667 0.14393,0.14394 6.52504,-0.11715 14.18024,-0.58019 15.20059,-0.91944 18.41854,-0.32827 18.41854,3.38371 0,4.22111 -0.63144,4.33883 -32.82968,6.12088 l -11.32969,0.62705 -11.02761,12.107 c -6.06519,6.65885 -11.64752,13.53873 -12.40517,15.28862 -0.75765,1.74989 -1.85622,3.47745 -2.44126,3.83903 -4.247544,6.22204 -7.238177,6.69163 -9.96659,4.31269 -2.106049,-1.83629 0.42999,-6.26171 2.25,-8.07491 1.2375,-1.23286 4.21418,-4.94536 6.61485,-8.25 2.40067,-3.30463 6.88658,-8.59592 9.9687,-11.75842 l 5.60384,-5.75 -6.06371,0 c -6.0075,0 -9.37368,-1.7084 -9.37368,-4.75731 0,-3.03307 3.21029,-4.24289 11.32143,-4.26655 14.30942,-0.0417 13.80435,0.25019 33.99043,-19.64582 9.94966,-9.80667 19.68731,-19.71413 21.63922,-22.01657 1.9519,-2.30244 3.99892,-4.21667 4.54892,-4.25385 0.55,-0.0372 2.72132,-2.20337 4.82515,-4.81375 2.10382,-2.61038 8.12365,-9.15133 13.37738,-14.53544 5.25373,-5.3841 9.23401,-10.10751 8.84506,-10.49645 -0.38894,-0.38895 -5.73376,4.68563 -11.87738,11.27684 -17.50568,18.78106 -35.74226,36.5089 -37.5566,36.5089 -1.85694,0 -5.21098,-3.59022 -5.37174,-5.75 -0.23851,-3.20425 -1.53211,-2.80998 -5.74187,1.75 -3.86498,4.18652 -6.90051,5.02973 -9,2.5 -1.72277,-2.07581 -2.4545,-1.9151 -6.2152,1.36508 -4.9809,4.34446 -7.28675,4.72387 -10.31361,1.69702 -1.40915,-1.40915 -2.80341,-2.5621 -3.09835,-2.5621 -0.29493,0 -2.41404,1.53871 -4.70911,3.41935 -5.55648,4.55312 -8.56926,5.24896 -11.38171,2.62877 -2.57851,-2.40225 -4.57637,-2.6033 -6.21763,-0.62571 -0.64927,0.78233 -2.48294,1.87645 -4.07482,2.43138 -2.37099,0.82653 -3.35047,0.65017 -5.41703,-0.97539 l -2.52271,-1.98436 -3.75705,2.55298 c -2.06638,1.40414 -4.80717,2.55298 -6.09066,2.55298 -3.14656,0 -6.20212,-1.74166 -6.20212,-3.53518 0,-2.37918 -2.47628,-1.68156 -5.30658,1.49496 -1.45044,1.62787 -3.98169,3.65505 -5.62499,4.50483 -2.87788,1.48822 -3.1095,1.43822 -6.295,-1.35868 l -3.30717,-2.90374 -2.7889,2.39891 c -3.929769,3.38025 -8.170396,3.15312 -11.701297,-0.62672 -1.632467,-1.74757 -3.094111,-2.59239 -3.460226,-2 -0.944281,1.52787 -2.289921,1.25154 -4.456673,-0.91522 -1.921116,-1.92111 -2.060036,-1.84236 -13.671634,7.75 -6.451938,5.32996 -15.591062,13.10461 -20.309163,17.27699 -4.718102,4.17238 -12.177586,10.64425 -16.576632,14.38194 -4.399045,3.73769 -8.584623,7.63294 -9.301284,8.65611 -3.198024,4.56582 -8.200451,4.57196 -8.200451,0.0101 0,-2.14112 2.358918,-4.71666 12.25,-13.37491 6.7375,-5.89773 14.021281,-12.19379 16.186179,-13.99125 2.164899,-1.79746 6.439899,-5.45948 9.5,-8.13783 3.060102,-2.67835 10.009921,-8.30335 15.444042,-12.5 11.904989,-9.19396 14.232111,-10.98949 23.740454,-18.31736 4.058629,-3.12789 12.554325,-9.79261 18.879325,-14.8105 25.1154,-19.92508 34.26252,-26.71742 49.5,-36.75701 3.85,-2.53666 7.14896,-4.71607 7.33102,-4.84312 z m 71.2978,19.575 c -1.59548,-2.98117 -1.2985,-4.93155 0.93274,-6.12567 3.26545,-1.74761 6.18563,0.42248 5.8084,4.31644 -0.25333,2.61506 -0.78746,3.23891 -2.99114,3.49349 -1.86608,0.21559 -3.00763,-0.29713 -3.75,-1.68426 z m 131.93274,-15.47586 c 0,-1.3029 6.30856,-7.64981 7.60359,-7.64981 2.16373,0 1.64817,2.363 -0.85359,3.9123 -1.2375,0.76636 -3.2625,2.05136 -4.5,2.85555 -1.2375,0.8042 -2.25,1.20107 -2.25,0.88196 z"
       id="path7083"
       inkscape:connector-curvature="0"
       sodipodi:nodetypes="ccssssssscscssssscsssssssssscssssssssssssssscssssssssssssssscsssssssssssssscscssscsscassscssssscsscssssssssssssscsssssscssssssssssssssssccssssssssss" />
  </g>
</svg>
