<?xml version="1.0" encoding="UTF-8" standalone="no"?>
<svg
   xmlns:dc="http://purl.org/dc/elements/1.1/"
   xmlns:cc="http://creativecommons.org/ns#"
   xmlns:rdf="http://www.w3.org/1999/02/22-rdf-syntax-ns#"
   xmlns:svg="http://www.w3.org/2000/svg"
   xmlns="http://www.w3.org/2000/svg"
   viewBox="0 0 799 346"
   height="346"
   width="799"
   id="svg3713"
   version="1.1">
  <metadata
     id="metadata3719">
    <rdf:RDF>
      <cc:Work
         rdf:about="">
        <dc:format>image/svg+xml</dc:format>
        <dc:type
           rdf:resource="http://purl.org/dc/dcmitype/StillImage" />
        <dc:title></dc:title>
      </cc:Work>
    </rdf:RDF>
  </metadata>
  <defs
     id="defs3717" />
  <path
     id="path3747"
     d="m 115.5,261.4177 c -19.602421,-1.95049 -30.063864,-5.42705 -45.697957,-15.18641 -13.4571,-8.4004 -22.230304,-16.35169 -23.27125,-21.09109 -1.375208,-6.26128 0.693954,-8.72938 11.86208,-14.14911 5.55892,-2.69767 13.707127,-6.0674 18.107127,-7.4883 26.95845,-8.70571 74.95626,-16.61864 119,-19.61837 2.95911,-0.20154 -9.05061,-2.22181 -47,-7.90633 -54.069097,-8.09912 -66.293343,-9.82135 -78,-10.98911 -11.185195,-1.11575 -17.806238,-2.33724 -22.75,-4.19708 -2.250272,-0.84654 -2.75,-1.64607 -2.75,-4.3998 0,-2.94344 0.469976,-3.56163 3.749479,-4.93189 8.834737,-3.69139 38.62347,-8.67974 65.250521,-10.92669 3.575,-0.30168 13.25,-1.19752 21.5,-1.99076 29.78856,-2.86418 70.89223,-5.28917 104.75738,-6.18038 l 25.75737,-0.67785 4.33371,-5.26411 c 2.38354,-2.89527 8.44311,-9.64265 13.46571,-14.9942 10.89213,-11.605478 11.69378,-11.21614 8.19124,3.9783 -1.27993,5.55251 -2.53069,11.33201 -2.77946,12.84333 l -0.45232,2.74784 13.36319,-0.51969 c 27.56528,-1.07201 70.14941,-2.49858 92.86318,-3.11092 12.925,-0.34845 24.175,-0.76371 25,-0.9228 0.825,-0.15909 6.04027,-0.32369 11.58948,-0.36577 9.45775,-0.0717 10.15338,-0.21739 11.10992,-2.32651 0.86852,-1.91504 3.47654,-12.78572 4.91821,-20.5 0.23127,-1.2375 0.92654,-2.25 1.54504,-2.25 1.4082,0 0.46105,11.14375 -1.60214,18.85026 l -1.43238,5.35026 17.68593,-0.34903 17.68594,-0.34903 v 2.99877 2.99877 l -10,0.63254 c -5.5,0.3479 -14.12471,0.6854 -19.16601,0.75 L 443.16798,132 l -4.73001,7.75 c -9.18443,15.04846 -13.68716,23.33415 -13.03498,23.98632 0.36282,0.36282 4.80807,-0.37274 9.87834,-1.63459 10.98296,-2.73333 25.42289,-3.86558 28.47402,-2.23266 1.15774,0.6196 2.2489,2.14003 2.42481,3.37874 0.2835,1.99632 0.74587,1.69622 4.06984,-2.64161 5.65826,-7.38411 4.71029,-9.46237 -2.70352,-5.92698 -3.94869,1.88301 -4.38918,1.7224 -4.77492,-1.74099 -0.22512,-2.02123 0.55074,-2.84597 4.53648,-4.8223 5.88722,-2.91917 9.59222,-1.9362 9.84748,2.61263 0.41463,7.38863 -1.0779,11.01639 -7.79291,18.94148 C 465.44794,174.29015 462.55756,181 464.48203,181 c 0.78651,0 7.5608,-3.15643 25.01797,-11.65694 8.90927,-4.33823 11.9855,-6.43518 16.18502,-11.03267 5.12944,-5.61554 5.19204,-5.6484 5.84029,-3.06556 0.90426,3.60284 -0.14883,6.33269 -4.15254,10.76432 -2.97338,3.29117 -3.28066,4.0989 -2.34258,6.15778 0.59385,1.30334 2.62995,3.43194 4.52468,4.73023 2.97219,2.03658 4.16544,2.26823 8.69504,1.68796 8.64343,-1.10727 17.13739,-3.71013 19.00009,-5.82231 2.28046,-2.58589 2.21427,-5.93243 -0.21138,-10.6871 C 534.6431,157.38009 529.41727,152 527.25182,152 c -0.87689,0 -2.38892,0.71908 -3.36007,1.59796 -2.59336,2.34697 -4.21634,0.7897 -3.53739,-3.39418 0.67277,-4.14582 1.94202,-5.16757 6.4453,-5.18847 6.15221,-0.0285 11.74886,4.32004 14.79839,11.49834 1.93927,4.56484 2.17026,15.18223 0.40218,18.48592 -0.6384,1.19286 0.61935,0.38085 2.82225,-1.82205 7.96643,-7.96643 19.54739,-12.68008 33.95782,-13.82142 l 8.2803,-0.65581 1.10709,2.93301 c 0.95901,2.54071 1.5352,2.88304 4.30777,2.55936 2.04174,-0.23836 3.79288,0.21854 4.83618,1.26184 2.17161,2.17161 3.90281,8.8429 3.11218,11.993 -0.5252,2.09258 -0.17813,2.69541 2.03664,3.53747 5.73544,2.18061 19.78102,0.35167 32.03954,-4.17201 4.96499,-1.8322 7.82638,-3.99081 16.58761,-12.51355 C 656.9108,158.63473 661.9733,154 662.33761,154 c 0.36431,0 0.66239,1.39492 0.66239,3.09982 0,2.51352 -1.59731,4.79663 -8.44524,12.07115 C 645.87578,178.39062 642,184.60949 642,189.31572 c 0,3.15548 0.46853,3.21117 8.4344,1.00246 5.42985,-1.50555 6.98271,-2.60025 14.8156,-10.44447 5.89866,-5.90718 8.75436,-9.51395 8.76338,-11.06818 0.0222,-3.82821 5.6017,-21.17722 6.9558,-21.62859 0.69417,-0.23139 1.65319,0.19664 2.13116,0.95118 2.06967,3.26725 0.35059,11.66039 -4.6878,22.88742 -1.83765,4.09483 -2.44498,6.71909 -1.98194,8.56398 0.6353,2.53123 0.92019,2.63905 5.88514,2.22732 4.10605,-0.34051 6.75298,-1.435 12.42539,-5.13785 3.96433,-2.58785 7.68518,-5.59703 8.26855,-6.68708 2.15728,-4.03092 3.2993,-2.19366 2.69029,4.32808 -0.90723,9.71537 1.59656,12.49786 18.49044,20.54861 7.77373,3.70456 9.47462,4.1414 16.125,4.1414 4.08902,0 8.86039,-0.28516 10.60304,-0.63369 6.69914,-1.33983 8.11707,-11.56026 3.08076,-22.2061 C 750.78696,169.37009 750.14456,165 752.35869,165 c 0.76753,0 2.72545,3.45875 4.5,7.9494 3.82942,9.69073 4.25012,19.01102 1.16492,25.80803 -2.42168,5.33518 -4.67555,6.2278 -16.4292,6.50659 l -9.15192,0.21708 -11.19156,-5.40486 c -12.67041,-6.11904 -15.80988,-8.86557 -18.19822,-15.92055 l -1.67649,-4.95221 -7.21307,4.39826 C 687.92416,187.40604 686.19985,188 681.3946,188 h -5.55549 l -1.59224,-4.05344 -1.59224,-4.05344 -7.11716,7.06966 C 658.02853,194.4216 651.24416,198 644.61172,198 c -4.93185,0 -5.96165,-1.86521 -5.39584,-9.77314 l 0.48272,-6.74668 -8.5993,2.92852 c -7.31868,2.49239 -10.2125,2.94063 -19.43184,3.00991 -10.37969,0.078 -10.91703,-0.0226 -12.85327,-2.40692 -1.58783,-1.95525 -1.89777,-3.38528 -1.4468,-6.67545 0.42921,-3.13144 0.13267,-4.73208 -1.17615,-6.34839 -3.41246,-4.21422 -9.90721,-1.13962 -26.15162,12.38007 -5.8657,4.88183 -7.30168,5.65948 -8.54507,4.62756 -3.437,-2.85246 -1.80131,-5.60451 6.75545,-11.36601 4.5375,-3.05522 10.02298,-7.07832 12.18995,-8.94023 l 3.93994,-3.38529 -5.93994,0.42382 c -15.50796,1.10649 -31.22746,9.15928 -36.0378,18.46144 -0.79943,1.54594 -1.84381,2.81079 -2.32084,2.81079 -1.74937,0 -2.02585,-3.20657 -0.52648,-6.10604 l 1.54068,-2.97934 -3.88009,2.44939 c -5.45867,3.44591 -10.48167,4.62398 -19.74291,4.63041 -9.5466,0.007 -11.43462,-1.01273 -15.03487,-8.11748 -2.91092,-5.74443 -3.27815,-5.75444 -12.58539,-0.3432 C 483.63433,180.14884 467.16001,187 464.68503,187 c -0.86185,0 -1.84511,0.45 -2.18503,1 -0.33992,0.55 -2.25101,1 -4.24687,1 -3.20815,0 -4.67939,1.01784 -12.69098,8.78002 -19.1954,18.59778 -38.08306,34.41558 -40.56215,33.96947 -1.88985,-0.34008 -2.46548,-4.01121 -1.04509,-6.66523 0.59427,-1.1104 5.68502,-5.27004 11.31279,-9.24363 12.73614,-8.99261 31.76159,-25.21438 30.68855,-26.16615 -0.25094,-0.22257 -23.22863,-0.71368 -51.06154,-1.09133 l -50.60529,-0.68665 -4.11056,6.9191 c -9.3875,15.8015 -22.20695,30.38332 -33.4628,38.06312 -22.98594,15.6832 -59.8936,23.89639 -121.71606,27.08592 -22.72235,1.17229 -63.70961,2.02922 -69.5,1.45306 z m 72.5,-7.91506 c 25.76694,-1.43869 42.81399,-3.28059 61.5,-6.64495 38.76618,-6.97972 59.81561,-18.05779 77.63368,-40.85769 5.09366,-6.51781 12.11105,-17.0886 11.65018,-17.54947 -0.21743,-0.21743 -13.53275,-0.70453 -29.58959,-1.08243 L 280,186.681 l -0.0136,6.4095 C 279.9712,200.20321 279.23186,204 277.86189,204 c -0.4977,0 -4.92037,-1.56908 -9.82817,-3.48684 -4.9078,-1.91777 -16.98187,-5.45279 -26.83128,-7.85562 l -17.90802,-4.36877 -17.39718,1.30253 c -45.12582,3.37858 -46.47632,3.52836 -76.89719,8.52831 -21.62537,3.55433 -38.306871,7.40021 -53.114183,12.24536 -10.632503,3.47909 -24.177754,9.68034 -25.374647,11.61696 -1.278466,2.0686 3.829832,7.13218 14.171692,14.04764 26.430318,17.6736 32.830163,19.13582 80.817138,18.46489 18.15,-0.25376 37.275,-0.70008 42.5,-0.99182 z m 89,-61.52482 v -5.02219 l -15.25,0.16616 c -11.78079,0.12837 -14.45379,0.38593 -11.75,1.13219 7.31181,2.01811 21.56193,6.81762 23,7.74651 3.11188,2.01004 4,1.11688 4,-4.02267 z M 455.7829,179.25 c 3.54094,-4.49974 7.5778,-12.22264 6.79704,-13.0034 -1.46572,-1.46572 -15.85326,-0.20618 -26.80256,2.3464 l -12.03594,2.80591 -1.87072,-2.31024 C 420.84182,167.81804 420,166.20316 420,165.50005 c 0,-1.8357 9.61937,-19.97702 14.15503,-26.69518 2.11473,-3.13232 3.84497,-5.93824 3.84497,-6.23538 0,-0.29714 -2.8125,-0.35002 -6.25,-0.1175 -3.4375,0.23252 -17.95,0.7159 -32.25,1.07419 -14.3,0.35828 -27.8,0.81063 -30,1.00522 -2.2,0.19459 -9.0625,0.37963 -15.25,0.4112 L 343,135 v 3.9349 c 0,7.45104 -3.87705,13.38471 -11.21016,17.15668 -5.25148,2.70123 -6.78984,2.48166 -6.78984,-0.96914 0,-3.01148 2.22757,-5.71786 3.87051,-4.70247 1.47325,0.91052 9.49496,-5.67439 10.54306,-8.65465 C 340.74892,137.96828 338.75455,136 333.57183,136 c -5.40739,0 -9.10184,2.72886 -15.72354,11.614 -6.45818,8.66572 -11.92413,14.45716 -13.0108,13.78557 -2.22948,-1.3779 -0.37716,-6.13792 5.66071,-14.5466 3.57401,-4.97738 6.21041,-9.51543 5.85867,-10.08456 -0.39839,-0.6446 -3.2308,-0.81754 -7.51167,-0.45865 -8.51131,0.71356 -13.23829,3.62319 -20.3452,12.52323 l -5,6.26154 -1.58498,12.20274 c -0.87174,6.7115 -1.32174,12.50014 -1,12.86365 0.32174,0.36351 14.30998,0.81351 31.08498,1 l 30.5,0.33908 4.53826,-9 c 2.49604,-4.95 5.80918,-12.0375 7.36252,-15.75 1.55334,-3.7125 3.22362,-6.75 3.71174,-6.75 2.28695,0 0.37323,7.30536 -4.99626,19.07255 l -5.88374,12.89416 25.63374,0.28428 c 14.09856,0.15636 37.85843,0.38885 52.79971,0.51665 L 452.83194,183 Z m -76.73875,-4.05201 c -4.82228,-4.82228 -5.04335,-16.50089 -0.43644,-23.0562 2.05027,-2.9174 8.82465,-6.09048 13.06556,-6.11983 3.88051,-0.0268 9.03768,4.04199 10.9627,8.64923 3.12759,7.48537 0.33702,17.54535 -5.92631,21.3643 -2.2138,1.34983 -5.01757,1.95819 -9.03658,1.96077 -5.05216,0.003 -6.19949,-0.36882 -8.62893,-2.79827 z m 14.25787,-4.26493 c 2.55477,-0.70944 4.43982,-2.10182 5.74626,-4.24443 2.61277,-4.28503 2.45342,-6.93895 -0.63717,-10.6119 C 396.3262,153.59896 395.05457,153 391.87899,153 383.81375,153 378,157.39833 378,163.5 c 0,7.04257 6.07734,9.99468 15.30202,7.43306 z M 262.6128,181 h 14.29657 l 0.48564,-3.25 c 0.2671,-1.7875 1.41062,-10.45 2.54116,-19.25 1.13053,-8.8 2.34427,-17.28685 2.69721,-18.85966 0.61059,-2.72101 0.50169,-2.83083 -2.24584,-2.26484 -1.58815,0.32716 -14.36254,0.83064 -28.38754,1.11885 -37.1468,0.76336 -92.38459,3.84121 -117.5,6.5471 -4.95,0.53331 -14.4,1.41797 -21,1.96591 -21.791783,1.80921 -57.5,7.51618 -57.5,9.1898 0,0.44156 0.3375,0.80845 0.75,0.81531 2.259522,0.0376 36.159177,4.14213 44.25,5.35776 5.225,0.78504 21.875,3.27672 37,5.53706 35.81993,5.35307 82.33011,13.07866 82.98513,13.78428 0.28318,0.30506 6.54852,0.27425 13.92298,-0.0685 C 242.28257,181.2804 254.74968,181 262.6128,181 Z m 26.26696,-40 3.21449,-4 h -2.4493 c -1.84817,0 -2.71874,0.77292 -3.54712,3.14922 -2.10101,6.02695 -1.52044,6.2045 2.78193,0.85078 z m -2.56536,-15.83336 c 3.59455,-13.30293 3.72937,-13.20723 -5.22045,-3.70574 -4.45167,4.72607 -8.09477,8.91826 -8.09577,9.31598 -10e-4,0.39772 2.65022,0.57311 5.89161,0.38976 l 5.89344,-0.33335 z"
     style="fill:#000000" />
</svg>
