<?xml version="1.0" encoding="utf-8"?>
<!-- Generator: Adobe Illustrator 27.4.1, SVG Export Plug-In . SVG Version: 6.00 Build 0)  -->
<svg version="1.1" id="Layer_1" xmlns="http://www.w3.org/2000/svg" xmlns:xlink="http://www.w3.org/1999/xlink" x="0px" y="0px"
	 viewBox="0 0 792 355" style="enable-background:new 0 0 792 355;" xml:space="preserve">
<g>
	<path d="M254.35,180.06c-4.73,1.01-9.44,2.12-14.2,3.03c-18.88,3.58-37.91,4.41-56.51-0.62c-8.47-2.29-16.87-6.41-24.06-11.46
		c-15.13-10.61-19.43-27.3-12.93-46.85c7.16-21.56,21.14-38.24,39.14-51.73c13.9-10.42,29.12-18.04,46.65-20.12
		c12.6-1.5,25.06-0.94,36.99,3.92c16.75,6.81,25.83,22.38,24.61,42.26c-1.32,21.54-7.65,41.7-17.21,60.96
		c-0.66,1.34-1.06,2.8-1.98,5.28c2.29-0.74,3.56-1.13,4.82-1.55c7.36-2.49,14.68-5.08,22.08-7.42c2.1-0.66,4.42-0.8,6.64-0.82
		c5.99-0.06,9.01,3.1,8.51,9.1c-0.12,1.48-1.19,3.28-2.4,4.1c-0.58,0.4-2.93-0.82-3.71-1.87c-1.96-2.63-4.41-3.38-7.29-2.45
		c-10.78,3.45-21.51,7.04-32.25,10.61c-0.44,0.14-0.75,0.67-1.62,1.48c1.15-0.05,1.72,0.04,2.21-0.11
		c7.61-2.43,12.25-1.19,17.13,5.01c0.96,1.22,1.53,3.1,1.5,4.66c-0.05,3.06-2.42,4.36-4.86,2.54c-3.87-2.88-7.54-4.85-12.68-3.22
		c-6.85,2.18-13.6,4.13-18.09,10.37c-21.98,30.54-46.9,58.57-74.5,84.14c-9.89,9.17-21.09,17.01-32.14,24.83
		c-3.68,2.6-8.67,3.7-13.24,4.64c-3.73,0.77-5.72-1.11-5.31-4.9c0.39-3.67,1.33-7.56,3.13-10.74c6.97-12.32,16.31-22.89,26.02-33.13
		c23.56-24.86,49.75-46.64,78.1-65.89c4.9-3.33,10.05-6.29,14.99-9.56c1.29-0.85,2.24-2.22,3.34-3.35
		C254.94,180.82,254.64,180.44,254.35,180.06z M206.37,177.09c19.34,0.56,36.15-1.58,52.48-6.91c2.02-0.66,4.24-2.35,5.25-4.18
		c3.93-7.11,7.86-14.29,10.97-21.78c6.85-16.5,11.12-33.67,10.53-51.67c-0.54-16.41-8.49-26.47-24.38-30.88
		c-10.85-3.01-21.97-2.8-32.98-0.67c-15.65,3.03-29.31,10.35-41.36,20.47c-16.86,14.17-30.68,30.46-33.99,53.24
		c-1.89,13.03,1.64,23.99,13.09,31.5c3.72,2.44,7.73,4.52,11.83,6.27C187.6,176.69,198.14,176.54,206.37,177.09z M237.26,205.03
		c-0.33-0.28-0.66-0.57-0.98-0.85c-2.11,1.68-4.13,3.49-6.33,5.02c-25.42,17.7-48.66,37.9-69.42,60.81
		c-6.77,7.47-12.48,15.9-18.55,24c-0.91,1.22-1.1,2.97-1.62,4.47c0.29,0.21,0.59,0.41,0.88,0.62c1.89-1.11,3.82-2.16,5.68-3.34
		c13.23-8.4,24.53-19.06,35.57-30.03c18.14-18.01,36.45-35.85,51.91-56.3C235.45,208.04,236.31,206.5,237.26,205.03z"/>
	<path d="M498.08,202.33c3.17-2.47,6.17-5.2,9.55-7.34c3.19-2.02,6.72-3.58,10.21-5.07c3.85-1.64,7.5-0.66,10.08,2.39
		c7.68,9.08,17.53,12.08,29.03,11.02c13.12-1.22,26.24-2.45,39.36-3.6c6.44-0.57,12.88-1.1,19.34-1.41
		c8.99-0.43,17.06,2.42,24.83,6.78c7.32,4.11,15.03,7.53,22.38,11.59c1.46,0.81,2.91,3.18,2.86,4.79c-0.06,2.49-2.43,3.49-4.73,2.51
		c-6.63-2.79-13.43-5.34-19.66-8.87c-8.38-4.75-16.78-9.12-26.7-8.52c-7.89,0.48-15.79,1.35-23.61,2.52
		c-14.93,2.23-29.87,3.49-44.98,2.24c-8.95-0.74-16.09-4.81-21.73-11.52c-1.88-2.24-3.8-2.8-6.13-1.34c-4,2.51-7.88,5.2-11.79,7.85
		c-3.27,2.21-6.31,4.84-9.81,6.59c-5.06,2.53-8.48,0.27-8.69-5.36c-0.35-9.65,2.62-18.69,5.82-27.57
		c10.01-27.76,24.26-53.52,38.25-79.41c5.61-10.38,10.72-21.04,15.78-31.7c1.11-2.34,1.07-5.22,1.56-7.86
		c-0.34-0.19-0.69-0.39-1.03-0.58c-0.75,0.54-1.57,1-2.23,1.62c-11.37,10.64-19.8,23.57-28.04,36.55
		c-17.97,28.3-35.34,56.97-53.43,85.19c-15.97,24.9-32.54,49.41-48.97,74.01c-2.4,3.59-5.45,6.74-8.28,10.04
		c-0.76,0.89-1.7,1.67-2.69,2.31c-5.1,3.32-9.68,1.34-9.44-4.67c0.36-9.28,1.03-18.63,2.69-27.75
		c6.59-36.11,20.65-69.82,34.15-103.72c5.03-12.65,9.04-25.7,13.31-38.64c0.49-1.47,0.01-3.6-0.73-5.07c-2.02-4-0.36-16.7,2.9-19.9
		c2.96-2.9,7.58-1.7,7.92,2.65c0.49,6.34,0.96,13.1-0.69,19.09c-3.93,14.25-8.81,28.26-13.85,42.18
		c-8.25,22.81-17.73,45.22-25.15,68.29c-5.24,16.28-7.97,33.37-11.74,50.11c-0.36,1.62-0.19,3.36-0.32,6.29
		c1.62-1.82,2.62-2.74,3.37-3.83c8.94-12.84,18.24-25.46,26.67-38.62c23.53-36.75,46.47-73.87,70.11-110.56
		c9.31-14.46,19.62-28.3,29.95-42.08c3.32-4.44,7.76-8.32,12.36-11.48c6.83-4.69,11.8-1.86,11.95,6.36
		c0.13,7.54-2.41,14.5-5.85,21.04c-8,15.23-16.4,30.25-24.39,45.49c-10.19,19.42-20.1,39-26.89,59.93
		c-1.75,5.41-2.88,11.02-4.3,16.53C497.14,201.99,497.61,202.16,498.08,202.33z"/>
	<path d="M356.21,66.04c-10.07,3.83-18.4,9.3-25.03,17.25c-2.19,2.63-4.31,5.35-6.81,7.66c-0.96,0.89-3.82,1.42-4.2,0.92
		c-1.02-1.36-1.36-3.34-1.57-5.12c-0.09-0.72,0.81-1.6,1.34-2.35c19.27-27.47,55.87-38.42,85.53-24.86
		c14.99,6.86,22.55,18.56,24.59,34.51c1.89,14.78-2.37,28.33-7.7,41.7c-9.9,24.81-25.04,46.38-41.96,66.86
		c-12.64,15.3-26.58,29.25-42.64,40.94c-5.38,3.91-11.59,6.69-17.47,9.9c-1.01,0.55-2.23,0.81-3.39,1
		c-9.86,1.62-14.3-2.03-12.55-11.76c1.69-9.36,4.51-18.58,7.46-27.66c10.64-32.71,18.95-66.05,27.94-99.21
		c4.34-16.02,10.55-31.55,15.9-47.31C355.88,67.83,355.97,67.1,356.21,66.04z M422.06,100.36c-0.21-2.07-0.47-4.94-0.81-7.81
		c-1.74-14.6-10.1-23.71-24.1-27.41c-6.57-1.73-13.51-2.1-20.27-3.18c-3.2-0.51-4.58,0.62-4.79,3.9c-0.08,1.19-1.33,3.11-2.32,3.29
		c-5.49,1.03-7.9,4.8-9.36,9.54c-5.52,17.91-11.15,35.78-16.44,53.76c-9.08,30.81-17.98,61.68-26.85,92.56
		c-1.73,6.03-3.08,12.18-4.36,18.32c-0.53,2.52,0.74,4.01,3.39,2.65c6.28-3.24,13.15-5.81,18.55-10.17
		c30.83-24.83,55.93-54.51,74.23-89.66C416.28,132.05,421.51,117.27,422.06,100.36z"/>
</g>
</svg>
