<?xml version="1.0" encoding="UTF-8" standalone="no"?>
<svg
   xmlns:dc="http://purl.org/dc/elements/1.1/"
   xmlns:cc="http://creativecommons.org/ns#"
   xmlns:rdf="http://www.w3.org/1999/02/22-rdf-syntax-ns#"
   xmlns:svg="http://www.w3.org/2000/svg"
   xmlns="http://www.w3.org/2000/svg"
   xmlns:sodipodi="http://sodipodi.sourceforge.net/DTD/sodipodi-0.dtd"
   xmlns:inkscape="http://www.inkscape.org/namespaces/inkscape"
   width="45.47406mm"
   height="15.931797mm"
   viewBox="0 0 45.47406 15.931797"
   version="1.1"
   id="svg8"
   inkscape:version="1.0.2 (e86c8708, 2021-01-15)"
   sodipodi:docname="Jeff Bezos signature.svg">
  <defs
     id="defs2" />
  <sodipodi:namedview
     id="base"
     pagecolor="#ffffff"
     bordercolor="#666666"
     borderopacity="1.0"
     inkscape:pageopacity="0.0"
     inkscape:pageshadow="2"
     inkscape:zoom="3.6994614"
     inkscape:cx="69.960231"
     inkscape:cy="27.929065"
     inkscape:document-units="mm"
     inkscape:current-layer="layer2"
     inkscape:document-rotation="0"
     showgrid="false"
     inkscape:window-width="1440"
     inkscape:window-height="771"
     inkscape:window-x="0"
     inkscape:window-y="25"
     inkscape:window-maximized="0" />
  <metadata
     id="metadata5">
    <rdf:RDF>
      <cc:Work
         rdf:about="">
        <dc:format>image/svg+xml</dc:format>
        <dc:type
           rdf:resource="http://purl.org/dc/dcmitype/StillImage" />
        <dc:title></dc:title>
      </cc:Work>
    </rdf:RDF>
  </metadata>
  <g
     inkscape:groupmode="layer"
     id="layer2"
     inkscape:label="Layer 2"
     style="display:inline"
     transform="translate(-0.43995591,-0.19772711)">
    <path
       style="fill:#000000;fill-opacity:1;stroke:#000000;stroke-width:0.05;stroke-linecap:butt;stroke-linejoin:miter;stroke-miterlimit:4;stroke-dasharray:none;stroke-opacity:1"
       d="m 1.5321065,9.3886794 c -0.74722,-2.72984 -1.105077,-6.34555 -1.063951,-7.51308 0.04004,-1.13674005 0.03713,-1.63102005 0.420674,-1.65265005 0.867506,-0.0489 2.7043,8.13516005 2.704335,13.70195965 1.2e-5,1.86625 -0.333617,2.19094 -0.89452,2.17932 -0.76951,-0.0159 -1.200576,-0.98547 -1.207401,-1.77964 -0.02269,-2.63967 3.128583,-5.0891396 3.052199,-6.5379596 -0.006,-0.11353 -0.03952,-0.19345 -0.150376,-0.18885 -0.08212,0.003 -0.09524,0.15149 -0.08885,0.26654 0.0184,0.33128 0.335975,0.8481045 0.660364,0.80035 0.8216454,-0.1209575 0.864459,-1.69634 0.870997,-2.22709 0.01285,-1.04312 -0.07628,-2.16134 -0.07296,-3.13203 0.0022,-0.65683 0.629185,-0.59677 0.637398,-0.1305 0.02276,1.29224 -0.07155,2.78804 0.02745,5.06086 0.03123,0.71681 0.285572,1.8088296 0.285572,1.8088296 0,0 1.251676,-1.2021996 1.245352,-2.3545096 -0.0051,-0.93568 -0.06754,-3.00474 -0.120986,-4.19863 -0.03467,-0.77449 0.602368,-0.71755 0.677835,-0.23843 0.179289,1.13825 -0.401683,8.3479296 0.60363,8.7011296 0.141789,0.0498 0.178195,-0.49248 0.122308,-0.72733 -0.175742,-0.73849 -0.5324954,-1.2893087 -0.868666,-1.13857 -0.1224513,0.05491 -0.140504,-0.3114196 -0.01992,-0.3702796 0.564134,-0.27541 1.434291,-0.68464 1.9480185,-0.79072 0.418051,-0.0863 0.537404,0.30743 0.124393,0.41464 -0.9274375,0.24074 -1.0030225,0.37798 -1.3395155,0.54463 0.180489,0.2430396 0.561281,0.6638596 0.582385,1.4663996 0.01132,0.43037 -0.07465,1.17692 -0.476031,1.16949 -1.064043,-0.0197 -1.156436,-2.5539896 -1.108767,-3.5260996 -0.523763,1.0086396 -0.877488,1.2188096 -1.206393,1.5963196 -0.113219,0.12996 0.07705,1.72532 0.645812,2.58472 0.139783,0.21121 -0.148863,0.60262 -0.414644,0.33172 -0.593515,-0.60494 -1.008291,-2.83485 -0.784817,-3.16595 C 6.0114105,9.3254494 6.0040946,8.1869328 6.0040946,8.1869328 c 0,0 -0.2939315,0.9273914 -1.0099856,0.9378989 -0.7407677,0.01087 -1.1122935,-0.5951223 -1.1204845,-1.2133123 -0.0082,-0.61819 0.2683199,-0.931561 0.6156038,-0.9342911 0.2674102,-0.0021 0.5229962,0.3063111 0.5110682,0.7533411 -0.05929,1.86125 -2.914264,3.9951396 -2.971839,6.4628096 -0.01175,0.50378 0.263171,1.36232 0.642699,1.36833 0.514458,0.008 0.482015,-1.31095 0.462997,-2.00964 C 3.0284555,9.6691394 1.6235665,1.8742794 1.1555595,1.9570794 c -0.406836,0.0784 0.096687,4.2872137 0.900786,7.33857 0.3120537,1.1841656 -0.15148,1.4548396 -0.524239,0.093 z"
       id="path883"
       sodipodi:nodetypes="sssssscccssssscssssssssscsscsssccssscssscsss" />
    <path
       style="fill:#000000;fill-opacity:1;stroke:#000000;stroke-width:0.05;stroke-linecap:butt;stroke-linejoin:miter;stroke-miterlimit:4;stroke-dasharray:none;stroke-opacity:1"
       d="M 16.327827,9.1822542 C 14.962294,7.8673597 12.705415,6.2886988 12.724012,4.5422748 c 0.01325,-1.2442939 1.708813,-2.7026985 3.683495,-2.6898486 0.710938,0.00463 1.000248,0.4579787 1.028057,0.9124365 0.06201,1.0132999 -1.051565,2.8825501 -1.233787,2.7112054 -0.179213,-0.1685146 0.122029,-1.0228877 0.32135,-1.5778777 0.121752,-0.3390086 -0.358122,-0.6338121 -0.560945,-0.1478647 -0.403524,0.9668103 -0.393134,1.6013369 -0.413394,2.7937825 -0.01276,0.7510667 -0.03209,1.6397414 0.135682,2.2494381 0.164321,0.5971448 0.496217,0.5304115 0.474902,0.3037672 -0.1291,-1.3727326 -0.233283,-1.9358327 -0.140275,-2.6911516 0.963424,-0.3096493 1.903654,-2.4592171 1.902219,-3.5907538 -0.0014,-1.0862549 -0.749458,-1.4819082 -1.390662,-1.4955238 -2.332422,-0.049527 -4.303464,1.5644092 -4.331293,3.2275167 -0.03395,2.0287837 2.692829,3.8380788 3.86465,4.9199084 0.282624,0.2609199 0.605743,0.01121 0.263811,-0.2850552 -1e-6,-1.1e-6 5e-6,0 5e-6,0 z"
       id="path926"
       sodipodi:nodetypes="sssssssssscssssss" />
    <path
       style="fill:#000000;fill-opacity:1;stroke:#000000;stroke-width:0.05;stroke-linecap:butt;stroke-linejoin:miter;stroke-miterlimit:4;stroke-dasharray:none;stroke-opacity:1"
       d="m 21.391696,5.6791891 c -0.221852,0.4978673 -0.739688,2.29427 -0.751746,3.2340568 -0.0047,0.3686965 0.04119,0.9862215 0.154075,1.2939141 0.242348,0.66054 0.519099,0.517088 0.421073,-0.164285 -0.0509,-0.3538012 -0.09164,-0.6223747 -0.07193,-1.103565 0.03003,-0.733097 0.522775,-2.3760936 0.852292,-3.1272498 0.1424,-0.3246101 -0.33922,-0.7054558 -0.603768,-0.1328711 -10e-7,1.2e-6 4e-6,0 4e-6,0 z"
       id="path928"
       sodipodi:nodetypes="ssssssss" />
    <path
       style="fill:#000000;fill-opacity:1;stroke:#00000a;stroke-width:0.05;stroke-linecap:butt;stroke-linejoin:miter;stroke-miterlimit:4;stroke-dasharray:none;stroke-opacity:1"
       d="m 18.901637,7.6460267 c -0.361711,-0.046479 -1.267476,-0.3688095 -1.277135,-0.9678792 -0.02492,-1.5453844 4.223927,-3.6272903 7.157232,-3.6149104 0.630304,0.00266 1.628619,0.027774 1.617735,0.8773314 -0.02577,2.0112919 -4.834626,4.4164156 -4.678123,4.5463563 0.259601,0.2155397 1.47747,-0.091462 2.047459,-0.079293 1.930362,0.041214 1.847796,0.8350178 1.847796,0.8350178 l 1.526442,-0.9282287 c 0,0 -0.455103,0.3408012 -0.446718,0.8890737 0.0031,0.200446 0.333224,0.47347 0.531,0.4722903 0.952783,-0.00568 1.729663,-3.4924424 3.074697,-3.6712487 0.246164,-0.032725 0.36679,0.2834197 0.360503,0.5298999 -0.02208,0.8655983 -1.064705,1.7542236 -1.058712,2.2460396 0.0041,0.3395541 0.29105,0.3995364 0.316918,1.4540923 0.02674,1.089994 -1.476218,4.683242 -2.311632,4.697834 -0.559886,0.0098 -0.644589,-0.439487 -0.629222,-0.768943 0.04462,-0.956558 2.722938,-5.1071137 4.376304,-5.0847079 0.875518,0.011865 0.334198,0.7645408 0.687945,0.8340766 0.227102,0.044641 0.594858,-0.5413899 0.91565,-1.2653463 0.395481,-0.8925112 1.318213,-1.3142268 2.275457,-1.2264117 0.713242,0.065431 1.411619,0.6422708 1.433974,1.4526172 0.02542,0.9213216 -0.982873,1.6960591 -0.852331,1.9015051 0.199195,0.313492 1.924064,-0.70344 4.040147,-1.8269363 1.934063,-1.0268554 4.247577,-2.2983989 5.499141,-2.9197513 0.435818,-0.2163665 0.780749,0.2742798 0.300233,0.5028829 -1.491372,0.7095119 -4.051068,2.1226651 -6.35755,3.3662606 -1.054087,0.5683361 -2.320402,1.3411821 -3.406228,1.4415091 -0.261566,0.02417 -0.647648,-0.149453 -0.668978,-0.452112 -0.04499,-0.638391 0.96199,-1.2279516 0.954485,-1.984807 -0.0046,-0.467663 -0.499593,-0.9474092 -0.97079,-0.9807775 -2.246129,-0.1590624 -1.619591,2.4385015 -3.329175,2.4622445 -0.733462,0.01019 -0.24619,-0.8436028 -0.540689,-0.834222 -1.398294,0.044541 -4.009015,4.299847 -3.776617,4.648208 0.189886,0.284639 1.833816,-2.638239 1.833395,-3.980265 C 29.393948,9.2554256 29.059374,9.2813214 29.050179,8.7853309 29.038789,8.1707925 30.406493,6.89481 30.076954,6.6534775 29.925431,6.5425126 29.144826,7.8424888 28.94132,8.2628965 c -0.434945,0.8985216 -0.893393,1.8744505 -1.649139,1.8784605 -0.826391,0.0044 -1.026963,-0.5673253 -1.035983,-1.0617116 -0.0161,-0.8826795 0.930859,-1.5214181 1.390186,-1.5630331 0.37047,-0.033565 0.500162,0.1651082 0.41984,0.3026518 -0.326566,0.5592133 -2.022101,1.7369168 -2.479399,1.9536869 -0.17023,0.306198 -1.453823,1.081423 -2.285738,1.392063 -0.278058,0.103828 -0.507853,-0.338153 -0.07698,-0.510188 0.705619,-0.281733 1.89824,-0.9401923 1.932712,-1.2218728 0.04802,-0.3924115 -0.925487,-0.5222951 -1.44356,-0.5167045 -0.500054,0.0054 -2.650719,0.4941573 -2.63364,-0.3758665 0.0026,-0.1316824 0.06991,-0.4022189 0.302802,-0.5395727 2.969462,-1.7513044 4.529003,-3.2256978 4.530239,-3.9927364 6.77e-4,-0.4200261 -0.699609,-0.4500812 -1.118531,-0.4474128 -2.73829,0.017442 -6.560108,2.0748 -6.580698,3.075963 -0.0072,0.3477478 0.498438,0.6372292 0.782973,0.6897613 0.323412,0.05971 0.266944,0.3661206 -0.09477,0.3196421 z"
       id="path930"
       sodipodi:nodetypes="ssssssccssssssssssssssssssssssssssssssssscssssssssssss" />
  </g>
</svg>
