<?xml version="1.0" encoding="UTF-8" standalone="no"?>
<svg
   xmlns:dc="http://purl.org/dc/elements/1.1/"
   xmlns:cc="http://creativecommons.org/ns#"
   xmlns:rdf="http://www.w3.org/1999/02/22-rdf-syntax-ns#"
   xmlns:svg="http://www.w3.org/2000/svg"
   xmlns="http://www.w3.org/2000/svg"
   version="1.1"
   id="svg10"
   width="218"
   height="59.700001"
   viewBox="0 0 218 59.700001">
  <metadata
     id="metadata16">
    <rdf:RDF>
      <cc:Work
         rdf:about="">
        <dc:format>image/svg+xml</dc:format>
        <dc:type
           rdf:resource="http://purl.org/dc/dcmitype/StillImage" />
        <dc:title></dc:title>
      </cc:Work>
    </rdf:RDF>
  </metadata>
  <defs
     id="defs14" />
  <g
     id="g18">
    <path
       style="fill:#000000;stroke-width:0.212432"
       d="m 6.6299921,55.804796 c -0.356356,-0.49656 -0.736831,-1.007405 -0.845502,-1.135213 -1.381726,-1.625035 -2.784807,-8.572771 -2.78449,-13.78816 1.38e-4,-2.269912 0.442538,-5.73234 0.823345,-6.443887 0.127229,-0.237728 0.229221,-0.605808 0.226649,-0.817956 -0.0026,-0.212147 0.212516,-1.182995 0.477973,-2.157439 0.432665,-1.58824 0.598196,-1.885233 1.5984,-2.867837 0.883602,-0.868056 1.458199,-1.216205 2.76162,-1.673279 l 1.6458699,-0.577159 -0.06153,-1.440948 C 10.438487,24.110397 10.320979,22.792808 10.211198,21.974944 9.5870561,17.325102 9.5391331,7.3681811 10.132298,5.5810852 10.456151,4.6053666 11.059823,3.4433804 11.381617,3.176315 c 0.302599,-0.2511341 0.450879,-0.2405333 1.034908,0.073987 0.722018,0.3888324 0.865046,0.5725295 1.809263,2.3237086 1.209664,2.2434865 1.46299,3.1867605 2.368016,8.8174304 0.13712,0.853099 0.278825,2.287018 0.3149,3.186486 0.250359,6.242247 0.369757,8.655393 0.431488,8.720776 0.20988,0.222302 3.699635,0.655409 5.727175,0.71079 l 2.336756,0.06383 0.133042,-1.168378 c 0.180844,-1.58818 0.404494,-2.194534 1.070712,-2.902867 1.781269,-1.893878 4.016197,-2.733025 4.180403,-1.569615 0.206474,1.462885 -1.304848,4.795507 -2.568817,5.664506 -0.745482,0.512529 -0.734204,0.63502 0.105605,1.14706 0.519862,0.316966 1.070094,0.421145 2.227491,0.421742 1.558249,8.5e-4 3.455074,-0.372821 3.455074,-0.680561 0,-0.0926 0.143498,-0.168374 0.318885,-0.168374 0.626985,0 2.959762,-2.803988 3.914992,-4.705803 0.370378,-0.737407 1.283975,-0.822827 1.926662,-0.180141 0.233675,0.233676 0.505644,0.424865 0.604372,0.424865 0.09873,0 0.352531,0.191189 0.564005,0.424865 0.211475,0.233675 0.516073,0.424864 0.676889,0.424864 0.160815,0 0.347416,0.143392 0.414668,0.318649 0.06725,0.175257 0.217787,0.318648 0.334519,0.318648 0.116734,0 0.560581,0.272583 0.986328,0.605739 1.082587,0.847148 1.766092,0.974949 2.42832,0.45404 0.295404,-0.232365 0.610089,-0.422482 0.699298,-0.422482 0.08921,0 0.327152,-0.14928 0.528761,-0.331734 0.201609,-0.182454 0.878299,-0.383687 1.503753,-0.447183 1.83292,-0.186078 2.432068,0.618161 2.779758,3.731275 0.03129,0.280162 0.218587,0.610726 0.416213,0.734582 0.476647,0.298729 1.113783,-0.273806 1.647566,-1.480511 0.219024,-0.495139 0.811275,-1.348361 1.316114,-1.896046 l 0.917888,-0.995791 1.721792,0.09037 c 1.685185,0.08845 1.747985,0.111709 2.953812,1.093969 l 1.232021,1.003596 0.934734,-0.975542 c 1.061474,-1.107816 1.369014,-1.117256 2.618639,-0.08039 1.999058,1.658699 2.118384,1.727895 2.959612,1.716286 0.688438,-0.0095 3.019148,-0.904406 3.413359,-1.3106 0.05842,-0.0602 0.392999,-0.251333 0.743513,-0.42475 1.111206,-0.549775 1.585612,-1.114184 1.589572,-1.891138 0.0061,-1.187147 1.068428,-1.691853 1.817941,-0.863651 0.340662,0.376428 0.36218,0.55351 0.161316,1.327703 -0.328295,1.265351 -0.120287,2.277591 0.602176,2.930396 0.680453,0.614843 0.877399,1.892942 0.291691,1.892942 -0.3944,0 -1.382427,-0.839099 -1.382427,-1.17405 0,-0.432198 -0.67203,-1.614233 -0.986315,-1.734835 -0.166269,-0.0638 -0.801023,0.212585 -1.410564,0.614199 -1.14309,0.753158 -3.465908,1.91707 -4.400956,2.205224 -1.172544,0.361341 -2.157512,0.01117 -3.292702,-1.170612 -1.172633,-1.220762 -1.278668,-1.215946 -2.118055,0.09623 -0.95012,1.485278 -1.304659,1.635712 -1.951072,0.827855 -0.272833,-0.340973 -0.496533,-0.737242 -0.497113,-0.880596 -6.37e-4,-0.143353 -0.263941,-0.427928 -0.585245,-0.632389 -0.321303,-0.20446 -0.648978,-0.464016 -0.728162,-0.576788 -0.176589,-0.251484 -1.804441,-0.753081 -2.458323,-0.757494 -0.262885,-0.0018 -0.477973,0.09237 -0.477973,0.209208 0,0.116838 -0.146221,0.212432 -0.324936,0.212432 -0.178713,0 -0.932117,0.932047 -1.674226,2.071216 -1.724569,2.647279 -2.60457,3.096941 -3.773392,1.928119 -0.21339,-0.213391 -0.387984,-0.620749 -0.387984,-0.905236 0,-0.28449 -0.106902,-0.786361 -0.237561,-1.11527 -0.130659,-0.328911 -0.271049,-0.926184 -0.311978,-1.327275 -0.101694,-0.99654 -0.590749,-1.474927 -1.150472,-1.125373 -0.2302,0.143763 -0.512459,0.261387 -0.627239,0.261387 -0.114779,0 -0.873672,0.430175 -1.68643,0.955946 -0.812758,0.52577 -1.541562,0.955945 -1.619563,0.955945 -0.078,0 -0.722818,-0.52577 -1.432922,-1.168378 -0.710104,-0.642608 -1.366159,-1.168378 -1.457898,-1.168378 -0.09174,0 -0.711714,-0.381715 -1.377724,-0.848257 -1.389732,-0.97351 -1.397679,-0.971113 -2.553165,0.769698 -0.409669,0.617194 -1.096809,1.411485 -1.526976,1.765092 -0.430167,0.353606 -0.945445,0.783988 -1.145064,0.956406 -1.194388,1.031635 -5.000288,1.998732 -6.307911,1.602868 -1.133437,-0.343131 -2.471572,-1.05021 -2.70301,-1.428287 -0.248574,-0.406071 -0.675782,-0.442035 -2.029356,-0.170846 -0.442507,0.08866 -1.271973,0.04975 -1.911891,-0.08969 -1.516472,-0.330432 -5.184707,-0.534501 -5.331729,-0.296613 -0.06466,0.104627 -0.174457,1.622433 -0.243985,3.372901 -0.06953,1.750468 -0.169472,3.469452 -0.222098,3.819965 -0.05263,0.350513 -0.146749,1.306459 -0.20916,2.124324 -0.06241,0.817864 -0.171736,2.251783 -0.242944,3.186485 -0.07121,0.934702 -0.176043,1.776249 -0.232967,1.870104 -0.05692,0.09385 -0.147271,0.571827 -0.200771,1.062161 -0.252729,2.316322 -1.035991,5.489743 -1.391035,5.635839 -0.09465,0.03895 -0.172084,0.166035 -0.172084,0.282418 0,0.454113 -1.146191,3.043927 -1.759429,3.975421 -0.95397,1.449061 -2.293004,2.646143 -3.2966339,2.947159 -1.492025,0.447498 -1.850837,0.358361 -2.565368,-0.637297 z m 2.660289,-1.028223 c 0.680405,-0.420514 1.7091119,-1.696986 2.4119539,-2.992875 1.675502,-3.089265 2.441255,-5.288609 2.676324,-7.686748 0.156521,-1.596803 0.749274,-5.95461 0.827151,-6.081056 0.1049,-0.170322 0.416872,-5.100569 0.611762,-9.66798 0.02717,-0.636764 0.02595,-0.63742 -1.459833,-0.785827 -1.898501,-0.189628 -2.055002,-0.05422 -1.831057,1.584282 0.111792,0.81793 0.329337,1.395908 0.656474,1.744129 0.407004,0.433235 0.468826,0.673273 0.36766,1.427516 -0.06689,0.498691 -0.225083,0.941198 -0.351545,0.983351 -0.126461,0.04216 -0.347715,0.19295 -0.491676,0.335104 -0.869904,0.858979 -1.209519,0.453694 -1.214792,-1.44969 -0.0016,-0.575893 -0.09285,-1.34065 -0.202779,-1.699458 -0.109933,-0.358809 -0.277223,-1.130353 -0.371756,-1.714542 -0.155755,-0.962518 -0.220662,-1.056715 -0.691892,-1.004108 -0.9437289,0.105353 -2.7111829,1.121963 -3.3369589,1.919362 -0.780895,0.995059 -1.020477,1.552146 -1.445149,3.36033 -0.188605,0.803049 -0.435608,1.794671 -0.548897,2.203603 -0.677041,2.443892 -0.817647,3.648479 -0.545518,4.673512 0.07755,0.292094 0.171324,1.964999 0.208395,3.717566 0.04159,1.966119 0.202156,3.776329 0.419258,4.72662 0.193522,0.847074 0.50062,2.205373 0.68244,3.018443 0.389049,1.73977 0.744811,2.513202 1.506272,3.274662 0.67383,0.673831 1.174609,0.700661 2.124163,0.113804 z M 15.992883,25.639778 c 0.05374,-0.379929 0.06731,-2.683665 0.03016,-5.119411 -0.0768,-5.034725 -0.508791,-8.202088 -1.536814,-11.2679719 -0.612346,-1.826208 -1.875259,-4.181562 -2.321939,-4.3304554 -0.339517,-0.1131721 -0.849145,1.1857304 -1.10645,2.8200364 -0.254111,1.614026 -0.112471,8.4624639 0.228466,11.0464819 0.107909,0.817865 0.245495,2.156189 0.305746,2.974053 0.264898,3.595794 0.369698,4.173538 0.784927,4.327141 0.219927,0.08136 1.101491,0.168844 1.959031,0.194414 l 1.559163,0.04649 z m 11.774281,-3.76e-4 c 0.911911,-0.98264 1.354524,-1.761126 1.354524,-2.382391 0,-0.622204 -0.151711,-0.663664 -0.790716,-0.216088 -0.73054,0.51169 -1.269453,1.409274 -1.432593,2.386046 -0.181009,1.083752 0.01557,1.131821 0.868785,0.212433 z m 66.77973,5.993815 c -0.4119,-0.76964 -0.48773,-4.194995 -0.13857,-6.259356 0.17785,-1.05154 0.33255,-2.533256 0.34377,-3.292701 0.0217,-1.46933 0.14686,-2.968591 0.36351,-4.354864 0.073,-0.467351 0.11673,-1.362676 0.0971,-1.98961 -0.0197,-0.626935 0.0741,-1.272198 0.20831,-1.433919 0.26901,-0.324127 0.95414,-0.395206 1.12618,-0.116835 0.39024,0.631409 0.48758,3.440307 0.17791,5.133607 -0.23596,1.290318 -0.13043,1.633279 0.54552,1.772787 2.71112,0.559541 3.112056,0.584971 3.982386,0.252588 0.47866,-0.182799 1.09784,-0.64015 1.37596,-1.016335 0.7341,-0.992912 1.48135,-2.624331 1.48135,-3.234111 0,-0.565794 1.18922,-4.858224 1.51702,-5.475602 0.25674,-0.48355 0.66348,-0.471652 1.11996,0.03276 0.26851,0.296698 0.3116,0.509025 0.16166,0.796621 -0.11244,0.215659 -0.30089,0.870079 -0.41879,1.454268 -0.11789,0.584189 -0.37089,1.635729 -0.5622,2.336756 -1.34504,4.928438 -1.9673,9.464314 -1.45077,10.575082 0.12057,0.25927 0.35456,0.949373 0.51998,1.533562 0.30023,1.060276 0.30274,1.062502 1.41746,1.253203 1.03749,0.177493 1.11214,0.230227 1.05254,0.743513 -0.0527,0.453791 -0.15815,0.539142 -0.59036,0.477843 -1.59712,-0.226523 -2.7665,-1.263909 -2.7665,-2.454227 0,-0.303277 -0.0882,-0.551413 -0.19596,-0.551413 -0.37441,0 -0.64376,-1.392931 -0.67779,-3.505133 -0.0188,-1.168378 -0.0735,-2.194265 -0.12145,-2.279749 -0.048,-0.08548 -0.62492,0.148032 -1.2821,0.518924 -1.3134,0.741234 -1.869106,0.779674 -3.842136,0.265764 -0.65589,-0.170838 -1.25689,-0.310614 -1.33556,-0.310614 -0.33417,0 -0.86184,2.966611 -0.97298,5.470133 -0.084,1.892766 -0.0523,2.177431 0.24251,2.177431 0.18654,0 0.4169,-0.210159 0.51192,-0.467024 0.16946,-0.458097 0.17476,-0.456589 0.27712,0.07887 0.153,0.800365 -0.78175,2.300042 -1.43361,2.300042 -0.28749,0 -0.60091,-0.184734 -0.73338,-0.432264 z m 18.893406,0.08034 c -0.31538,-0.08475 -1.04513,-1.947597 -1.04513,-2.667902 0,-0.17989 0.14518,-0.447567 0.32263,-0.594836 0.26451,-0.219519 0.40201,-0.195931 0.76319,0.130937 0.24231,0.219283 0.53512,0.575392 0.6507,0.791353 0.21746,0.406334 0.0331,2.499379 -0.21632,2.455293 -0.0767,-0.01355 -0.29045,-0.06523 -0.47507,-0.114845 z m 14.78134,-0.921842 c -0.074,-0.233219 -0.0334,-0.73509 0.0903,-1.11527 0.12369,-0.380181 0.37068,-1.264805 0.54886,-1.965832 0.17819,-0.701027 0.70466,-2.75631 1.16993,-4.567295 0.46528,-1.810986 0.84598,-3.465929 0.846,-3.677651 2e-5,-0.211722 0.13701,-0.833087 0.30443,-1.380811 0.16741,-0.547723 0.55984,-1.856212 0.87207,-2.907752 0.51494,-1.734213 1.5046,-4.178652 2.02115,-4.99216 0.11128,-0.175257 0.28712,-0.5121499 0.39075,-0.7486519 0.32908,-0.75096 3.91819,-4.2784847 4.8126,-4.730019 0.47279,-0.2386803 1.21106,-0.4998967 1.64061,-0.580481 0.98359,-0.1845225 2.91681,0.2551128 2.91681,0.663315 0,0.1636031 0.19119,0.2974603 0.42486,0.2974603 0.23368,0 0.42487,0.1305002 0.42487,0.2900001 0,0.1595002 0.1997,0.5438866 0.44379,0.8541926 0.89582,1.138855 0.89225,4.3881479 -0.007,6.3778279 -0.21603,0.477981 -0.54353,1.233124 -0.72778,1.678095 -0.40191,0.970628 -1.0875,1.884097 -1.27405,1.697541 -0.0739,-0.07393 -0.13441,0.01197 -0.13441,0.190895 0,0.590074 -3.99362,4.41901 -4.60907,4.41901 -0.097,0 -0.67316,0.334581 -1.28039,0.743514 -0.60723,0.408932 -1.20342,0.743513 -1.32486,0.743513 -0.12145,0 -0.22082,0.07511 -0.22082,0.166911 0,0.0918 -0.16729,0.176138 -0.37175,0.187414 -0.20447,0.01128 -0.68487,0.149232 -1.06757,0.306567 -0.74948,0.308131 -1.37276,0.107034 -1.48872,-0.480323 -0.0568,-0.287658 1.26303,-1.030299 1.83105,-1.030299 0.136,0 0.24727,-0.084 0.24727,-0.18666 0,-0.198857 0.81027,-0.551004 1.72204,-0.748404 0.69678,-0.150854 3.78845,-2.504936 4.21668,-3.210691 0.17612,-0.290266 0.41757,-0.531828 0.53656,-0.536805 0.39387,-0.01647 1.8124,-2.068892 2.59272,-3.751318 0.69392,-1.496131 0.77039,-1.841918 0.78924,-3.5685499 0.0194,-1.772767 -0.0228,-1.973724 -0.57925,-2.76162 -0.33006,-0.467352 -0.66464,-0.8531173 -0.74352,-0.8572574 -0.0789,-0.00414 -0.35066,-0.1228086 -0.60398,-0.2637078 -1.15044,-0.6398861 -3.41522,0.5135312 -5.7916,2.9495772 -0.37441,0.383811 -2.24097,3.3251469 -2.25264,3.5497169 -0.004,0.0797 -0.13858,0.381649 -0.29876,0.670995 -0.16018,0.289346 -0.36433,0.815116 -0.45366,1.168378 -0.0893,0.353262 -0.40573,1.311457 -0.70311,2.129321 -0.29738,0.817865 -0.60394,1.917202 -0.68124,2.442972 -0.0773,0.52577 -0.21988,1.109391 -0.31683,1.296934 -0.097,0.187543 -0.21933,1.30062 -0.27194,2.473503 -0.0526,1.172883 -0.21167,2.349293 -0.35347,2.614243 -0.30634,0.572401 -0.88239,3.206656 -0.73373,3.355316 0.057,0.057 -0.0481,0.271259 -0.23348,0.476138 -0.18542,0.20488 -0.3887,0.757051 -0.45174,1.227051 -0.0947,0.705792 -0.23579,0.912041 -0.81072,1.184865 -0.87952,0.41736 -0.89472,0.416011 -1.0565,-0.09371 z m 27.03176,-1.648932 c -0.32131,-0.199208 -0.58419,-0.418674 -0.58419,-0.487704 0,-0.06903 -0.30152,-0.682195 -0.67004,-1.362594 l -0.67004,-1.237087 -1.01313,1.040039 c -0.55723,0.572023 -1.13996,1.140122 -1.29496,1.262445 -0.61167,0.482691 -2.14874,0.945974 -3.13855,0.945974 -0.8835,0 -1.11295,-0.08908 -1.50483,-0.584189 -0.40409,-0.510524 -0.44556,-0.750668 -0.32892,-1.90442 0.10721,-1.060492 0.25784,-1.456394 0.76562,-2.012342 0.34768,-0.380662 0.63215,-0.754804 0.63215,-0.831428 0,-0.243429 1.12712,-0.590998 2.38699,-0.736072 1.18556,-0.136518 1.23865,-0.120277 1.9578,0.598872 0.68741,0.687404 0.76203,0.71397 1.06504,0.379149 0.17921,-0.198027 0.32584,-0.548491 0.32584,-0.778808 0,-0.230317 0.0863,-0.509575 0.19181,-0.620571 0.1055,-0.110995 0.22499,-0.383968 0.26554,-0.606605 0.0841,-0.46152 0.77545,-0.637863 1.18106,-0.301237 0.20196,0.167614 0.23741,0.676527 0.13758,1.975217 -0.11041,1.436349 -0.0651,1.906736 0.25334,2.628428 0.4811,1.090439 0.95014,1.260321 1.78188,0.645386 0.65548,-0.484617 1.01126,-1.329769 1.51002,-3.587054 0.34582,-1.565113 0.55123,-1.911891 1.13251,-1.911891 0.60405,0 1.02161,0.482109 1.37991,1.593243 0.68398,2.121075 1.56489,3.27242 2.51415,3.285988 0.85203,0.01217 1.64754,-1.138125 1.88852,-2.730788 0.42863,-2.832946 1.20094,-3.874365 2.28133,-3.076273 0.2954,0.218212 0.59472,0.635736 0.66515,0.92783 0.24494,1.015707 1.07012,2.750245 1.36375,2.866603 0.52447,0.207833 1.27071,-0.493043 1.52452,-1.431826 0.69616,-2.575011 0.7085,-2.60075 1.27846,-2.667003 0.99044,-0.115133 1.15146,0.381922 0.74024,2.285137 -0.47146,2.182058 -0.33188,2.474994 1.27493,2.675753 0.78193,0.09769 1.26643,0.06679 1.42406,-0.09084 0.1314,-0.1314 0.43488,-0.239418 0.67439,-0.240038 0.56567,-0.0015 4.17629,-1.74548 4.55275,-2.199087 0.1593,-0.191935 0.40785,-0.348973 0.55235,-0.348973 0.61952,0 2.22225,-1.755726 2.95796,-3.240329 0.91242,-1.841197 1.38914,-2.661952 1.85126,-3.187243 0.18933,-0.215213 0.50578,-0.749555 0.70324,-1.187425 0.61055,-1.353958 1.62986,-1.62343 2.04186,-0.539798 0.13247,0.348418 0.0627,0.892269 -0.23346,1.819261 -0.60071,1.880375 -1.32618,3.037573 -2.99216,4.772758 -0.80133,0.834622 -1.46916,1.599378 -1.48407,1.699459 -0.0149,0.100081 -0.049,0.383808 -0.0758,0.630505 -0.0268,0.246698 -0.11431,0.709994 -0.19451,1.02955 -0.11821,0.470985 -0.0335,0.681002 0.44755,1.109083 0.5585,0.497033 0.69953,0.521692 2.39906,0.419484 1.99684,-0.120086 3.82915,-0.793872 6.47918,-2.382548 0.46736,-0.280172 0.96923,-0.56934 1.11527,-0.642593 0.1629,-0.08171 0.26554,-0.573836 0.26554,-1.273155 0,-0.653479 0.17081,-1.527684 0.40024,-2.048488 0.22012,-0.499686 0.70543,-1.697754 1.07845,-2.662373 0.67039,-1.733626 2.4421,-4.725334 2.79837,-4.725334 0.10121,0 0.18402,-0.107353 0.18402,-0.238563 0,-0.515984 2.09205,-3.1496129 3.91808,-4.9323639 2.35983,-2.3039088 2.52796,-2.4043887 3.24117,-1.937073 0.51513,0.3375287 0.5385,0.430676 0.42174,1.681023 -0.14287,1.530017 -0.95852,3.7516179 -2.53757,6.9116419 -1.23607,2.473635 -1.16584,2.356833 -2.06197,3.429324 -0.35458,0.424356 -0.64469,0.822512 -0.64469,0.884791 0,0.114269 -0.3918,0.604157 -1.63563,2.0451 -0.37383,0.43307 -0.9952,0.958567 -1.38081,1.167772 -0.38562,0.209204 -0.96442,0.720746 -1.28622,1.13676 -0.54915,0.709904 -0.56344,0.780326 -0.23262,1.145879 0.19386,0.214219 0.55306,0.389489 0.79821,0.389489 0.87005,0 3.36673,-0.840644 4.76319,-1.603793 1.38026,-0.754292 3.68236,-2.378323 3.82442,-2.697963 0.0389,-0.08763 0.15106,-0.159324 0.24913,-0.159324 0.0981,0 0.84723,-0.654461 1.66477,-1.454358 1.13994,-1.115331 1.54409,-1.672435 1.73372,-2.389864 0.40269,-1.523546 0.84321,-2.996417 1.20108,-4.015775 0.18458,-0.52577 0.37976,-1.194932 0.43376,-1.4870269 0.054,-0.292094 0.22675,-0.817864 0.38395,-1.168377 0.15718,-0.350514 0.39717,-0.941069 0.53329,-1.312345 0.38525,-1.050761 0.94564,-1.462638 1.59036,-1.168887 0.49777,0.226806 0.53021,0.340559 0.53021,1.859712 0,0.993264 -0.11669,1.8358699 -0.30219,2.1819859 -0.16619,0.310121 -0.46253,1.088989 -0.65852,1.730818 -0.19599,0.641829 -0.72915,1.794524 -1.18484,2.561545 -0.45569,0.767021 -0.82851,1.498289 -0.82851,1.62504 0,0.126751 -0.12969,0.280225 -0.2882,0.341054 -0.38491,0.147699 -0.86636,2.143409 -1.41857,5.880269 -0.25013,1.692666 -0.51719,3.174382 -0.59344,3.2927 -0.0763,0.118321 -0.13958,0.827539 -0.14071,1.57604 -10e-4,0.839907 -0.0963,1.393168 -0.24824,1.445171 -0.72921,0.249574 -0.70696,-4.068154 0.0411,-7.977426 0.17118,-0.894571 0.31125,-1.709182 0.31127,-1.810248 6e-5,-0.278892 -1.01172,0.435523 -2.56746,1.812891 -0.76951,0.681286 -1.4643,1.238702 -1.54397,1.238702 -0.0797,0 -0.77603,0.383453 -1.54747,0.852119 -0.77144,0.468664 -1.65396,0.911679 -1.96116,0.984475 -0.3072,0.0728 -0.70194,0.24998 -0.8772,0.393737 -0.48739,0.399794 -2.23517,0.633731 -4.09946,0.548707 -0.21005,-0.0096 -0.60514,-0.25829 -0.87798,-0.552692 -0.41429,-0.447032 -0.58433,-0.501723 -1.03138,-0.331753 -0.29442,0.111939 -0.59992,0.308063 -0.67888,0.435832 -0.079,0.12777 -0.59013,0.433112 -1.13591,0.678537 -0.54578,0.245427 -1.46517,0.672554 -2.04309,0.949173 -0.57792,0.276619 -1.19929,0.504336 -1.38081,0.506035 -0.18153,0.0017 -0.71243,0.13184 -1.17978,0.289199 -1.37413,0.462672 -3.18776,0.434352 -4.21086,-0.06575 -1.06556,-0.520863 -1.76168,-1.750738 -1.56043,-2.756945 0.12588,-0.629416 0.11795,-0.63625 -0.4492,-0.387024 -0.31754,0.139536 -0.95017,0.518462 -1.40584,0.842054 -0.45567,0.323594 -0.90822,0.588353 -1.00567,0.588353 -0.0974,0 -0.72837,0.266566 -1.40205,0.592372 -3.05655,1.478206 -5.34879,1.68712 -6.37447,0.580966 -0.57575,-0.620923 -0.78868,-0.649336 -1.61941,-0.216084 -0.6932,0.36153 -1.62206,0.421604 -1.62206,0.104908 0,-0.116838 -0.1195,-0.213038 -0.26554,-0.213775 -0.24797,-0.0013 -0.89703,-0.902774 -1.26083,-1.751225 -0.17574,-0.409858 -0.59796,-0.507526 -0.59796,-0.138321 0,0.247709 -0.42798,1.304171 -1.02152,2.521608 -0.54281,1.113363 -1.64532,1.771754 -2.69049,1.606692 -0.97808,-0.154464 -1.49201,-0.560447 -2.02559,-1.600115 -0.20987,-0.408932 -0.61553,-0.961785 -0.90146,-1.228562 -0.61537,-0.574158 -0.79503,-0.425432 -1.20182,0.994891 -0.51467,1.797035 -1.81518,3.218548 -2.92951,3.202071 -0.21027,-0.0031 -0.64519,-0.168641 -0.96649,-0.367852 z m -5.46858,-1.686339 c 0.58333,-0.31505 1.0606,-0.697428 1.0606,-0.849729 0,-0.382727 -0.30341,-0.347508 -1.27459,0.147953 -1.12186,0.572326 -1.57052,0.529069 -0.61958,-0.05974 1.43311,-0.887362 1.96112,-1.729544 1.20783,-1.92653 -0.24448,-0.06393 -0.62843,-0.0178 -0.85322,0.102494 -0.22479,0.120305 -0.4612,0.166252 -0.52535,0.102103 -0.15621,-0.156207 -1.334,1.340022 -1.334,1.694669 0,0.580299 0.50804,1.361596 0.88538,1.361596 0.21578,0 0.8696,-0.257768 1.45293,-0.572818 z m 49.21296,-8.218228 c 1.94355,-2.121041 3.82639,-5.055256 5.0596,-7.884894 0.20368,-0.467351 0.50337,-1.104732 0.66598,-1.4164019 0.1626,-0.311671 0.35568,-1.004731 0.42907,-1.540135 0.17866,-1.303477 -0.22098,-1.29307 -1.36689,0.03559 -0.47864,0.554979 -1.22198,1.391432 -1.65186,1.8587829 -1.00904,1.09699 -3.34718,4.584945 -4.01316,5.986688 -0.17661,0.371733 -0.41815,0.735854 -0.53676,0.809158 -0.11861,0.0733 -0.21565,0.447403 -0.21565,0.831332 0,0.408277 -0.16242,0.845038 -0.39126,1.052134 -0.26314,0.238137 -0.39595,0.664811 -0.4056,1.303013 l -0.0143,0.94893 0.59177,-0.306015 c 0.32547,-0.168308 1.15757,-0.92349 1.84911,-1.678184 z"
       id="path22" />
  </g>
</svg>
