<?xml version="1.0" encoding="UTF-8"?>
<svg width="600" height="400" version="1.1" xmlns="http://www.w3.org/2000/svg">
 <path d="m47.38 328.71c8.9385-15.603 25.668-44.339 43.397-73.734 17.729-29.394 36.456-59.446 55.402-87.538s38.109-54.224 52.627-73.17 24.39-30.705 31.563-38.698c7.173-7.9928 11.647-12.219 14.602-14.896 2.9555-2.6776 4.3926-3.8068 5.6245-4.3714s2.2584-0.5646 3.0284 1e-5c0.76993 0.56463 1.2832 1.6938 1.3859 2.8231 0.10265 1.1292-0.20531 2.2584-1.6939 3.7983-1.4885 1.5399-4.1576 3.4903-7.6479 6.7754-3.4904 3.2851-7.8019 7.9045-14.013 15.193-6.2108 7.2887-14.321 17.246-25.151 31.105s-24.381 31.618-40.036 54.1-33.415 49.686-47.581 72.373c-14.167 22.687-24.74 40.857-35.057 58.335-10.317 17.477-20.377 34.261-27.358 46.17-6.9807 11.908-10.882 18.94-13.166 23.072s-2.9514 5.3638-3.3877 6.2877-0.64161 1.5398-0.84692 2.5151c-0.20531 0.97526-0.41062 2.3098-1.0009 3.3363-0.59028 1.0266-1.5655 1.7452-2.7204 1.8991-1.1549 0.15398-2.4894-0.25664-3.4646-1.0266-0.97525-0.76993-1.5912-1.8991-1.6938-3.0027-0.10266-1.1036 0.30796-2.1814 0.89825-3.054 0.59027-0.87258 1.3602-1.5398 2.2328-2.7974s1.8478-3.1053 2.9094-5.2639c1.0615-2.1585 2.2093-4.6277 11.148-20.231zm95.9-115.11c-2.1099 2.8331-5.5942 6.7529-7.6993 9.7654s-2.831 5.1175-3.1213 6.8597c-0.29035 1.7422-0.14517 3.1213 0.18148 4.0287 0.32666 0.90736 0.83477 1.3429 1.5607 1.5606 0.7259 0.21777 1.6695 0.21777 3.3391-0.54443s4.065-2.2866 7.4404-4.8998 7.7307-6.3152 11.469-9.364c3.7384-3.0488 6.8596-5.4442 9.1462-6.8234s3.7383-1.7421 4.8272-1.9599c1.0888-0.21776 1.8147-0.29034 2.1414 0.1089 0.32665 0.39925 0.25407 1.2703 0.10889 1.9962s-0.36295 1.3066-0.76219 1.597c-0.39925 0.29035-0.97995 0.29035-1.8147 0.21777-0.83478-0.0726-1.9236-0.21777-2.9036 0-0.97996 0.21778-1.851 0.79848-2.3228 1.851-0.47183 1.0526-0.54442 2.5769-0.29035 3.8835s0.83477 2.3954 1.9599 3.0124c1.1252 0.61701 2.7947 0.76218 4.0287 0.6533s2.0325-0.47183 3.1939-0.94366 2.6858-1.0525 3.5932-1.3429c0.90736-0.29036 1.1977-0.29036 1.5607 0.0726 0.36295 0.36296 0.79848 1.0888 1.3792 1.597 0.58072 0.50813 1.3066 0.79848 2.5043 0.87107 1.1977 0.0726 2.8673-0.0726 4.6457-0.36295 1.7784-0.29036 3.6657-0.72589 5.1901-0.90736 1.5244-0.18148 2.6858-0.10889 3.5569 0.14518 0.87107 0.25407 1.4518 0.68959 1.6695 1.7422 0.21777 1.0526 0.0726 2.7221-0.47184 5.916-0.54442 3.194-1.4881 7.9122-2.1414 11.36-0.6533 3.448-1.0162 5.6256-0.5444 6.8959s1.7784 1.6332 3.3028 1.4518c1.5244-0.18148 3.2665-0.90736 4.3916-1.9599 1.1251-1.0526 1.6332-2.4317 2.0325-4.428 0.39924-1.9962 0.68959-4.6094 0.97996-7.3315 0.29035-2.7221 0.58071-5.553 0.79848-7.1137s0.36294-1.851 1.0888-1.9962c0.7259-0.14518 2.0325-0.14518 3.1939-0.18148s2.1777-0.10888 2.9036-0.47183 1.1614-1.0162 2.0325-2.6858c0.87108-1.6696 2.1777-4.3553 3.9198-7.4404 1.7422-3.0851 3.9198-6.5693 5.6982-9.1825s3.1576-4.3553 4.2465-5.7708c1.0888-1.4155 1.8873-2.5043 2.214-2.8673 0.32665-0.36293 0.18148 0-0.54443 1.5607-0.7259 1.5607-2.0325 4.319-3.5932 7.5856s-3.3754 7.0411-4.7546 9.9447-2.3228 4.936-2.468 6.3878c-0.14517 1.4518 0.50812 2.3228 1.597 2.468 1.0889 0.14518 2.6132-0.43553 3.9561-1.4155 1.3429-0.97996 2.5043-2.3591 3.8835-4.1013s2.9761-3.8472 4.1739-5.5168c1.1977-1.6696 1.9962-2.9036 2.831-3.702 0.83479-0.79848 1.7058-1.1614 2.6495-1.3429 0.94367-0.18147 1.9599-0.18147 3.1576 0 1.1977 0.18149 2.5769 0.54443 3.8472 0.65331s2.4317-0.0363 3.3028-0.32666c0.87108-0.29035 1.4518-0.72589 1.7421-1.4155 0.29035-0.68961 0.29035-1.6332 0.21777-2.5769-0.0726-0.94367-0.21777-1.8873-0.68961-2.7221-0.47184-0.83478-1.2703-1.5607-2.5406-1.8873-1.2703-0.32665-3.0124-0.25407-4.3916-0.18147s-2.3954 0.14517-3.448 0.43553-2.1414 0.79848-1.0162-2.3955c1.1252-3.194 4.4642-10.09 7.3678-15.788 2.9036-5.6983 5.3716-10.199 7.767-14.373 2.3955-4.1739 4.7183-8.021 5.8797-10.453 1.1614-2.4318 1.1614-3.448 0.90736-4.1739-0.25406-0.72589-0.76218-1.1614-1.8147-1.4155s-2.6495-0.32665-3.8835-0.0726c-1.234 0.25406-2.1051 0.83477-3.7746 2.9399-1.6696 2.1051-4.1376 5.7345-8.2752 11.614-4.1376 5.8798-9.9446 14.01-13.901 19.454-3.9561 5.4442-6.0612 8.2026-7.513 10.271-1.4518 2.0688-2.2503 3.448-3.0487 4.7546-0.79849 1.3066-1.597 2.5406-2.214 2.831-0.61701 0.29036-1.0525-0.36294-1.597-0.87107-0.54443-0.50812-1.1977-0.87106-1.851-0.94364-0.6533-0.0726-1.3066 0.14517-2.0325 0.50812-0.7259 0.36294-1.5244 0.87106-2.3954 1.7784-0.87108 0.90738-1.8147 2.214-2.7947 3.6658-0.97996 1.4518-1.9962 3.0487-2.5769 4.1739-0.58071 1.1251-0.72589 1.7784-0.83477 2.3229-0.10888 0.54442-0.18147 0.97994-0.43846 0.90959-0.25699-0.0704-1.1457-1.2307-1.6825-1.2665-0.53676-0.0358-1.6332-0.10888-2.5665-0.19676-0.93322-0.0878-1.7031-0.19053-2.4731-0.19053-0.76993 0-1.5398 0.10265-2.0788 0.25664-0.53895 0.15399-0.84692 0.3593-1.1549 0.41062-0.30797 0.0514-0.61593-0.0514-0.61593-0.46196 0-0.41063 0.30796-1.1292 0.74426-1.8735 0.4363-0.74427 1.0009-1.5142 1.4629-2.2584 0.46195-0.74426 0.82124-1.4628 0.61593-2.2584-0.20532-0.7956-0.97523-1.6682-2.1815-2.1814-1.2062-0.51328-2.8487-0.66726-4.0806-0.41062-1.2319 0.25665-2.0531 0.92391-2.7461 1.5912-0.69294 0.66728-1.2575 1.3345-1.8478 1.9248-0.59028 0.59029-1.2062 1.1036-1.5655 1.8222s-0.46195 1.6425-0.84692 1.7452c-0.38497 0.10264-1.0522-0.61594-1.3345-1.0779-0.2823-0.46195-0.17965-0.66727 0.12832-1.2576 0.30798-0.59029 0.82125-1.5655 0.8469-2.6691 0.0257-1.1036-0.43628-2.3354-1.2319-3.3107-0.7956-0.97525-1.9248-1.6938-3.4903-2.1045-1.5655-0.41062-3.5673-0.51328-5.6718-0.2823s-4.3116 0.79559-6.647 1.6425c-2.3355 0.84693-4.7992 1.9761-6.4417 3.1054-1.6425 1.1292-2.4638 2.2584-3.208 3.054-0.74426 0.79559-1.4115 1.2575-1.7965 1.3602-0.38496 0.10265-0.48762-0.15399-0.43629-0.64162 0.0514-0.48762 0.25664-1.2062 1.0779-2.0275 0.82127-0.82127 2.2584-1.7452 3.208-2.7974 0.94958-1.0522 1.4115-2.2328 1.1292-3.208-0.28232-0.97525-1.3089-1.7452-2.4638-2.1814-1.1549-0.43629-2.4381-0.53894-3.824 0.154-1.3859 0.69295-2.8744 2.1814-3.9864 3.7989-1.112 1.6174-1.8475 3.3637-3.9574 6.1968zm166.37-39.355c-2.9514 4.2859-3.8753 5.7231-4.8505 7.2116-0.97525 1.4885-2.0018 3.0284-2.1814 3.7983-0.17966 0.76995 0.48759 0.76995 1.2062 1.0522 0.7186 0.28232 1.4885 0.84691 2.1558 1.3089 0.66728 0.46197 1.2319 0.82126 1.7195 1.6938 0.48762 0.87258 0.89824 2.2584 1.8735 3.054 0.97524 0.79561 2.5151 1.0009 3.7726 0.94959 1.2576-0.0514 2.2328-0.35929 3.747-1.1036 1.5142-0.74425 3.5673-1.9248 5.7744-3.516s4.5682-3.593 6.5187-6.3647 3.4903-6.3133 4.5939-9.701 1.7708-6.6213 2.2585-10.574c0.48762-3.9523 0.79558-8.6231 0.87258-12.627s-0.0769-7.3399-0.15398-9.1108c-0.077-1.7709-0.077-1.9762-0.48762-1.8222-0.41063 0.154-1.2319 0.66727-3.6186 3.593-2.3868 2.9257-6.339 8.2637-10.805 14.5-4.4656 6.2364-9.4444 13.371-12.396 17.657zm-31.541 36.7c3.9009-6.5957 11.087-18.453 18.555-30.104 7.4683-11.652 15.219-23.098 21.532-31.515 6.3134-8.4179 11.19-13.807 14.449-16.707 3.2594-2.9 4.9018-3.3107 6.2364-3.2337 1.3345 0.077 2.3611 0.6416 3.208 1.4372s1.5142 1.8222 1.8478 3.0797c0.33363 1.2576 0.33363 2.746 0.41063 5.7231 0.0769 2.9771 0.23097 7.4426 0.0257 13.089-0.20532 5.6462-0.76992 12.473-1.7965 17.554-1.0266 5.0815-2.5151 8.4178-4.4912 11.549-1.9762 3.131-4.4399 6.0567-7.186 8.6488s-5.7744 4.8505-8.2638 6.3904c-2.4894 1.5398-4.4399 2.3611-5.9797 2.8487-1.5399 0.48762-2.6691 0.6416-3.7983 0.61593-1.1292-0.0257-2.2584-0.23097-3.2337-0.48761-0.97525-0.25665-1.7965-0.56462-2.3098-0.79559-0.51328-0.23098-0.71859-0.38496-1.0522 0.56464-0.33364 0.94958-0.79558 3.0027-1.4115 5.5178-0.61594 2.5151-1.3859 5.4921-2.1814 8.9568-0.7956 3.4647-1.6168 7.4169-2.0018 9.778s-0.33363 3.131-0.30797 3.67c0.0257 0.53894 0.0257 0.84691 0.66729 1.0266 0.64161 0.17965 1.9248 0.23097 3.1054 0.35929 1.1806 0.12833 2.2584 0.33364 2.977 0.8726s1.0779 1.4115 1.2319 2.3354c0.15399 0.92391 0.10266 1.8991-0.48763 2.7717-0.59029 0.87259-1.7195 1.6425-3.1054 1.8478-1.3859 0.20531-3.0284-0.15397-4.7735-0.51328-1.7452-0.3593-3.593-0.71858-4.9018-1.4629-1.3089-0.74427-2.0788-1.8735-2.2328-3.747-0.15398-1.8735 0.30796-4.4912 0.94958-8.2382s1.4628-8.6231 2.3098-13.037c0.84693-4.4143 1.7195-8.3665 2.3611-11.318 0.64161-2.9514 1.0522-4.9018 1.1292-6.0311 0.077-1.1292-0.17965-1.4372-0.89826-0.59026s-1.8991 2.8487-3.9266 6.1594-4.9018 7.9302-7.0063 12.011c-2.1045 4.0806-3.439 7.6222-4.7479 10.625-1.3089 3.0027-2.5921 5.4664-3.8496 7.2629-1.2576 1.7965-2.4894 2.9257-3.8496 3.4903-1.3602 0.56461-2.8487 0.56461-4.0806 0.38496s-2.2071-0.53894-2.5664-1.2062c-0.3593-0.66727-0.10266-1.6425 0.7186-3.4133 0.82127-1.7708 2.2071-4.3372 3.208-6.2877s1.6168-3.285 5.5178-9.8807zm59.31 15.501c2.7974-3.8753 7.6736-10.445 13.91-18.94s13.833-18.914 21.122-28.539c7.2887-9.6241 14.269-18.452 18.683-24.073 4.4142-5.6205 6.262-8.0328 7.8789-9.5984 1.6169-1.5655 3.0027-2.2841 4.1576-2.7461 1.1549-0.46194 2.0788-0.66725 2.9-0.35927 0.82126 0.30797 1.5398 1.1292 1.9505 2.2071 0.41063 1.0779 0.51328 2.4124 0.1283 3.6956-0.38496 1.2832-1.2575 2.5151-4.0293 5.8001-2.7718 3.2851-7.4426 8.6231-9.9833 11.728-2.5408 3.1054-2.9514 3.9779-3.2593 4.9019-0.30798 0.92391-0.51329 1.8991-0.23098 3.131 0.28232 1.2319 1.0522 2.7204 2.3098 5.0045s3.0027 5.3638 4.5939 8.5975 3.0284 6.6213 4.1319 10.24c1.1036 3.6187 1.8735 7.4682 2.2584 10.317 0.38497 2.8487 0.38497 4.6965 0.25665 6.2877-0.12833 1.5912-0.38496 2.9257-0.51329 3.824-0.12831 0.89825-0.12831 1.3602 0.0514 1.5912 0.17965 0.23098 0.53895 0.23098 1.8222-0.28231 1.2832-0.5133 3.4903-1.5398 5.8514-2.4894 2.3611-0.94957 4.8762-1.8221 6.647-2.3354 1.7708-0.51328 2.7974-0.66726 3.6186-0.20531 0.82126 0.46197 1.4372 1.5398 1.8992 2.3868 0.46195 0.84693 0.76992 1.4628 0.35928 2.2585-0.41064 0.7956-1.5398 1.7708-2.5151 2.5664-0.97525 0.79559-1.7965 1.4115-3.0027 1.9505-1.2062 0.53895-2.7974 1.0009-2.746 1.3345 0.0514 0.33364 1.7451 0.53895 3.6956 0.41063 1.9505-0.12833 4.1576-0.59028 6.878-1.4115 2.7204-0.82127 5.954-2.0018 9.3931-3.9266 3.439-1.9248 7.0833-4.5938 9.1364-6.031s2.5151-1.6425 2.977-2.7204c0.46196-1.0779 0.92391-3.0283 1.8222-5.0815 0.89826-2.0531 2.2328-4.2089 3.9266-5.8001s3.7469-2.6177 5.3125-3.131c1.5655-0.51329 2.6434-0.51329 3.4647-0.17965s1.3858 1.0009 1.6938 1.8735c0.30796 0.87259 0.3593 1.9505 0.077 3.2337-0.28232 1.2832-0.89825 2.7717-1.6168 4.3629-0.7186 1.5912-1.5398 3.285-2.5921 4.9275s-2.3354 3.2337-3.2593 4.4399c-0.92391 1.2062-1.4885 2.0275-1.7708 2.5407-0.2823 0.51329-0.2823 0.71859 0.20533 0.89825 0.48762 0.17965 1.4628 0.33363 2.2584 0.15398 0.7956-0.17966 1.4115-0.69292 2.0531-1.7965 0.6416-1.1036 1.3088-2.7974 3.0027-4.8249s4.4142-4.3886 6.955-6.2107c2.5408-1.8222 4.9018-3.1053 6.6727-3.516 1.7708-0.41062 2.9514 0.0514 3.6186 0.69294 0.66727 0.64161 0.82125 1.4628 0.87259 2.4124 0.0513 0.9496 0 2.0275-0.10268 2.977-0.10264 0.94959-0.25663 1.7708-0.89822 2.5921-0.64163 0.82125-1.7708 1.6425-1.7965 2.0274-0.0257 0.38496 1.0522 0.33364 2.1815 0.64161 1.1292 0.30797 2.3098 0.97523 3.3107 1.7195s1.8221 1.5655 2.3868 2.2328c0.56458 0.66727 0.87259 1.1805 1.1292 1.4372 0.25667 0.25665 0.46196 0.25665 1.3859-0.20532 0.92392-0.46196 2.5664-1.3858 4.5425-2.1301 1.9762-0.74427 4.2859-1.3089 5.9541-1.1549 1.6682 0.15399 2.6947 1.0265 3.2593 2.0275 0.56458 1.0009 0.66726 2.1301 0.48761 3.0797s-0.64159 1.7195-1.1549 2.1301c-0.5133 0.41063-1.0779 0.46197-2.2841 0.48763-1.2062 0.0257-3.054 0.0257-5.0045 0.28231-1.9505 0.25664-4.0036 0.76992-5.4151 1.4885-1.4115 0.7186-2.1814 1.6425-3.3877 2.1558-1.2062 0.51329-2.8487 0.61594-4.1576 0.38496-1.3089-0.23097-2.2841-0.79559-2.6434-1.4629-0.3593-0.66728-0.10267-1.4372 0.17964-1.9248 0.28231-0.48763 0.59027-0.69293 0.82125-1.0009 0.23099-0.30798 0.38498-0.71859 0.12832-1.2576-0.25665-0.53895-0.9239-1.2062-1.7965-1.6682-0.8726-0.46197-1.9505-0.7186-2.9514-0.84691-1.0009-0.12832-1.9248-0.12832-2.7717 0.23098-0.84692 0.35931-1.6168 1.0779-2.5921 1.6938s-2.1558 1.1292-3.362 1.6938c-1.2062 0.56461-2.4381 1.1805-3.67 1.6682-1.2319 0.48763-2.4638 0.84691-3.9523 0.84691s-3.2337-0.35929-4.4399-0.66727c-1.2062-0.30797-1.8735-0.5646-2.4381-0.92391-0.56462-0.3593-1.0266-0.82124-1.3602-1.0522-0.33362-0.23098-0.53893-0.23098-1.3345 0.30797-0.79561 0.53897-2.1814 1.6168-4.6196 2.5921-2.4381 0.97524-5.9284 1.8478-9.778 2.7204-3.8497 0.8726-8.0585 1.7452-11.831 2.2071s-7.1089 0.51328-9.7524 0.17964c-2.6434-0.33364-4.5939-1.0522-5.7487-1.6168-1.1549-0.56461-1.5142-0.97522-1.6168-1.2832-0.10265-0.30797 0.0514-0.51328 0.41063-0.84692 0.35931-0.33363 0.92391-0.79559 1.3859-1.1805 0.46195-0.38497 0.82124-0.69294 0.56459-0.7186-0.25665-0.0257-1.1292 0.23097-2.0018 0.59028s-1.7452 0.82125-2.4124 1.2319c-0.66729 0.41063-1.1292 0.76991-1.5399 1.2576-0.41063 0.48762-0.76991 1.1036-1.0779 1.7452-0.30797 0.64162-0.56461 1.3089-1.0266 2.0531-0.46196 0.74426-1.1292 1.5655-2.2071 2.0788s-2.5664 0.7186-4.3886 0.53894-3.9779-0.74425-5.6718-1.4115c-1.6938-0.66727-2.9257-1.4372-5.0045-2.6434s-5.0045-2.8487-7.1346-4.8249-3.4646-4.2859-4.3116-6.6213-1.2062-4.6965-0.8469-6.493 1.4372-3.0284 2.4381-3.7213c1.0009-0.69294 1.9248-0.84692 2.6177-0.51328 0.69294 0.33365 1.1549 1.1549 1.7195 2.2841s1.2319 2.5664 2.0788 4.1063c0.84693 1.5399 1.8735 3.1823 3.054 4.5939 1.1806 1.4115 2.5151 2.5921 4.1063 3.1823 1.5912 0.59027 3.439 0.59027 4.9532 0.59027s2.6947 0 3.7726-1.3859 2.0531-4.1576 2.2071-7.109-0.51327-6.0824-1.3859-9.5727c-0.87259-3.4904-1.9505-7.3399-3.67-11.215-1.7195-3.8753-4.0806-7.7762-5.5434-10.676-1.4629-2.9001-2.0275-4.7992-2.4381-5.6204-0.41063-0.82124-0.66727-0.5646-3.2594 2.7718-2.5921 3.3364-7.5196 9.7523-12.832 17.041-5.3125 7.2887-11.01 15.45-15.09 21.301-4.0806 5.8515-6.5443 9.393-8.3922 11.985-1.8478 2.5921-3.0797 4.2346-4.4399 5.1072-1.3602 0.87258-2.8487 0.97523-4.1833 0.82124-1.3345-0.15398-2.5151-0.5646-2.9257-1.3859-0.41063-0.82127-0.0513-2.0531 0.48763-3.2594 0.53895-1.2062 1.2575-2.3868 4.0549-6.262zm191.66 17.708c1.6168-2.1301 3.8753-4.6452 5.8771-8.3409s3.7469-8.5718 5.4408-13.833c1.6938-5.2612 3.3363-10.907 4.3886-15.321s1.5142-7.5966 1.8735-10.933c0.35926-3.3364 0.61593-6.8266 0.92389-9.7524 0.30796-2.9257 0.66727-5.2868 1.3089-7.0063 0.64164-1.7195 1.5655-2.7974 2.5664-3.2593 1.0009-0.46196 2.0788-0.30796 2.9257 0.0257 0.84696 0.33365 1.4629 0.84692 2.0788 1.6682 0.61597 0.82127 1.2319 1.9505 1.4885 2.8487 0.25667 0.89825 0.15399 1.5655-0.28228 2.1045-0.43632 0.53896-1.2062 0.94957-1.6682 1.3089-0.46199 0.3593-0.61597 0.66726-0.71861 2.0531-0.10269 1.3859-0.15398 3.8496-0.61597 7.8276-0.46194 3.978-1.3345 9.47-2.1558 13.961-0.82125 4.4913-1.5912 7.9815-2.4381 10.856-0.84696 2.8744-1.7708 5.1328-2.4381 6.955-0.66727 1.8222-1.0779 3.208-1.2575 4.0292-0.17965 0.82127-0.12836 1.0779 0.56463 0.64161 0.69293-0.43631 2.0275-1.5655 4.3373-3.4647s5.5948-4.5682 8.3665-6.416 5.0301-2.8744 6.4673-3.1053c1.4372-0.23098 2.0531 0.33361 2.592 1.3089 0.53895 0.97526 1.0009 2.3611 1.1035 3.6443 0.10269 1.2832-0.15397 2.4638-0.51328 3.4903-0.35926 1.0266-0.82125 1.8991-1.3858 2.7717-0.56462 0.87259-1.2319 1.7452-1.8992 2.2841-0.66727 0.53894-1.3345 0.74425-2.0018 0.76992-0.66727 0.0257-1.3345-0.12832-1.6682-0.48763-0.33364-0.3593-0.33364-0.9239-1.0009-0.92389-0.66732 1e-5 -2.0018 0.56461-3.6443 1.4372s-3.593 2.0531-6.0824 3.747-5.5177 3.9009-8.0072 6.2107c-2.4894 2.3098-4.4399 4.7222-6.1594 6.8523s-3.208 3.9779-4.6196 5.1328-2.746 1.6168-3.824 1.6168c-1.0779-1e-5 -1.8991-0.46192-2.6691-1.1036-0.76996-0.64162-1.4885-1.4628-1.6168-2.1558-0.12832-0.69296 0.33363-1.2576 1.0522-2.4125 0.7186-1.1549 1.6938-2.9 3.3107-5.0301z"/>
</svg>
