<?xml version="1.0" encoding="UTF-8" standalone="no"?>
<!-- Created with Inkscape (http://www.inkscape.org/) -->
<svg
   xmlns:dc="http://purl.org/dc/elements/1.1/"
   xmlns:cc="http://creativecommons.org/ns#"
   xmlns:rdf="http://www.w3.org/1999/02/22-rdf-syntax-ns#"
   xmlns:svg="http://www.w3.org/2000/svg"
   xmlns="http://www.w3.org/2000/svg"
   xmlns:sodipodi="http://sodipodi.sourceforge.net/DTD/sodipodi-0.dtd"
   xmlns:inkscape="http://www.inkscape.org/namespaces/inkscape"
   width="256.46008"
   height="93.83268"
   id="svg2"
   sodipodi:version="0.32"
   inkscape:version="0.46"
   version="1.0"
   sodipodi:docname="Joe Manchin signature.svg"
   inkscape:output_extension="org.inkscape.output.svg.inkscape">
  <defs
     id="defs4">
    <inkscape:perspective
       sodipodi:type="inkscape:persp3d"
       inkscape:vp_x="0 : 526.18109 : 1"
       inkscape:vp_y="0 : 1000 : 0"
       inkscape:vp_z="744.09448 : 526.18109 : 1"
       inkscape:persp3d-origin="372.04724 : 350.78739 : 1"
       id="perspective10" />
    <inkscape:perspective
       id="perspective2390"
       inkscape:persp3d-origin="372.04724 : 350.78739 : 1"
       inkscape:vp_z="744.09448 : 526.18109 : 1"
       inkscape:vp_y="0 : 1000 : 0"
       inkscape:vp_x="0 : 526.18109 : 1"
       sodipodi:type="inkscape:persp3d" />
    <inkscape:perspective
       id="perspective2427"
       inkscape:persp3d-origin="372.04724 : 350.78739 : 1"
       inkscape:vp_z="744.09448 : 526.18109 : 1"
       inkscape:vp_y="0 : 1000 : 0"
       inkscape:vp_x="0 : 526.18109 : 1"
       sodipodi:type="inkscape:persp3d" />
    <inkscape:perspective
       id="perspective2462"
       inkscape:persp3d-origin="372.04724 : 350.78739 : 1"
       inkscape:vp_z="744.09448 : 526.18109 : 1"
       inkscape:vp_y="0 : 1000 : 0"
       inkscape:vp_x="0 : 526.18109 : 1"
       sodipodi:type="inkscape:persp3d" />
    <inkscape:perspective
       id="perspective2477"
       inkscape:persp3d-origin="372.04724 : 350.78739 : 1"
       inkscape:vp_z="744.09448 : 526.18109 : 1"
       inkscape:vp_y="0 : 1000 : 0"
       inkscape:vp_x="0 : 526.18109 : 1"
       sodipodi:type="inkscape:persp3d" />
    <inkscape:perspective
       id="perspective2514"
       inkscape:persp3d-origin="372.04724 : 350.78739 : 1"
       inkscape:vp_z="744.09448 : 526.18109 : 1"
       inkscape:vp_y="0 : 1000 : 0"
       inkscape:vp_x="0 : 526.18109 : 1"
       sodipodi:type="inkscape:persp3d" />
    <inkscape:perspective
       id="perspective2551"
       inkscape:persp3d-origin="372.04724 : 350.78739 : 1"
       inkscape:vp_z="744.09448 : 526.18109 : 1"
       inkscape:vp_y="0 : 1000 : 0"
       inkscape:vp_x="0 : 526.18109 : 1"
       sodipodi:type="inkscape:persp3d" />
    <inkscape:perspective
       id="perspective2588"
       inkscape:persp3d-origin="372.04724 : 350.78739 : 1"
       inkscape:vp_z="744.09448 : 526.18109 : 1"
       inkscape:vp_y="0 : 1000 : 0"
       inkscape:vp_x="0 : 526.18109 : 1"
       sodipodi:type="inkscape:persp3d" />
    <inkscape:perspective
       id="perspective2601"
       inkscape:persp3d-origin="372.04724 : 350.78739 : 1"
       inkscape:vp_z="744.09448 : 526.18109 : 1"
       inkscape:vp_y="0 : 1000 : 0"
       inkscape:vp_x="0 : 526.18109 : 1"
       sodipodi:type="inkscape:persp3d" />
    <inkscape:perspective
       id="perspective2638"
       inkscape:persp3d-origin="372.04724 : 350.78739 : 1"
       inkscape:vp_z="744.09448 : 526.18109 : 1"
       inkscape:vp_y="0 : 1000 : 0"
       inkscape:vp_x="0 : 526.18109 : 1"
       sodipodi:type="inkscape:persp3d" />
    <inkscape:perspective
       id="perspective2673"
       inkscape:persp3d-origin="372.04724 : 350.78739 : 1"
       inkscape:vp_z="744.09448 : 526.18109 : 1"
       inkscape:vp_y="0 : 1000 : 0"
       inkscape:vp_x="0 : 526.18109 : 1"
       sodipodi:type="inkscape:persp3d" />
    <inkscape:perspective
       id="perspective2710"
       inkscape:persp3d-origin="372.04724 : 350.78739 : 1"
       inkscape:vp_z="744.09448 : 526.18109 : 1"
       inkscape:vp_y="0 : 1000 : 0"
       inkscape:vp_x="0 : 526.18109 : 1"
       sodipodi:type="inkscape:persp3d" />
    <inkscape:perspective
       id="perspective2725"
       inkscape:persp3d-origin="372.04724 : 350.78739 : 1"
       inkscape:vp_z="744.09448 : 526.18109 : 1"
       inkscape:vp_y="0 : 1000 : 0"
       inkscape:vp_x="0 : 526.18109 : 1"
       sodipodi:type="inkscape:persp3d" />
    <inkscape:perspective
       id="perspective2740"
       inkscape:persp3d-origin="372.04724 : 350.78739 : 1"
       inkscape:vp_z="744.09448 : 526.18109 : 1"
       inkscape:vp_y="0 : 1000 : 0"
       inkscape:vp_x="0 : 526.18109 : 1"
       sodipodi:type="inkscape:persp3d" />
    <inkscape:perspective
       id="perspective2755"
       inkscape:persp3d-origin="372.04724 : 350.78739 : 1"
       inkscape:vp_z="744.09448 : 526.18109 : 1"
       inkscape:vp_y="0 : 1000 : 0"
       inkscape:vp_x="0 : 526.18109 : 1"
       sodipodi:type="inkscape:persp3d" />
    <inkscape:perspective
       id="perspective2790"
       inkscape:persp3d-origin="372.04724 : 350.78739 : 1"
       inkscape:vp_z="744.09448 : 526.18109 : 1"
       inkscape:vp_y="0 : 1000 : 0"
       inkscape:vp_x="0 : 526.18109 : 1"
       sodipodi:type="inkscape:persp3d" />
    <inkscape:perspective
       id="perspective2803"
       inkscape:persp3d-origin="372.04724 : 350.78739 : 1"
       inkscape:vp_z="744.09448 : 526.18109 : 1"
       inkscape:vp_y="0 : 1000 : 0"
       inkscape:vp_x="0 : 526.18109 : 1"
       sodipodi:type="inkscape:persp3d" />
    <inkscape:perspective
       id="perspective2840"
       inkscape:persp3d-origin="372.04724 : 350.78739 : 1"
       inkscape:vp_z="744.09448 : 526.18109 : 1"
       inkscape:vp_y="0 : 1000 : 0"
       inkscape:vp_x="0 : 526.18109 : 1"
       sodipodi:type="inkscape:persp3d" />
    <inkscape:perspective
       id="perspective2877"
       inkscape:persp3d-origin="372.04724 : 350.78739 : 1"
       inkscape:vp_z="744.09448 : 526.18109 : 1"
       inkscape:vp_y="0 : 1000 : 0"
       inkscape:vp_x="0 : 526.18109 : 1"
       sodipodi:type="inkscape:persp3d" />
  </defs>
  <sodipodi:namedview
     id="base"
     pagecolor="#ffffff"
     bordercolor="#666666"
     borderopacity="1.0"
     gridtolerance="10000"
     guidetolerance="10"
     objecttolerance="10"
     inkscape:pageopacity="0.0"
     inkscape:pageshadow="2"
     inkscape:zoom="2.2566923"
     inkscape:cx="93.173134"
     inkscape:cy="60.779271"
     inkscape:document-units="px"
     inkscape:current-layer="layer1"
     showgrid="false"
     inkscape:window-width="1024"
     inkscape:window-height="719"
     inkscape:window-x="-4"
     inkscape:window-y="-4"
     showguides="true"
     inkscape:guide-bbox="true" />
  <metadata
     id="metadata7">
    <rdf:RDF>
      <cc:Work
         rdf:about="">
        <dc:format>image/svg+xml</dc:format>
        <dc:type
           rdf:resource="http://purl.org/dc/dcmitype/StillImage" />
      </cc:Work>
    </rdf:RDF>
  </metadata>
  <g
     inkscape:label="Layer 1"
     inkscape:groupmode="layer"
     id="layer1"
     transform="translate(-258.44013,-626.14624)">
    <path
       style="fill:#000000"
       d="M 294.02468,711.38148 C 294.02468,710.98569 296.59525,708.24361 299.73706,705.28796 L 305.44942,699.91405 L 294.37909,700.39765 C 279.75809,701.03635 273.50172,699.05877 268.94948,692.35955 C 264.24115,685.43062 264.38737,679.50263 269.51571,669.40552 C 274.7265,659.14601 284.80061,648.97887 296.89222,641.77625 C 314.15565,631.4929 325.29842,629.41992 335.45594,634.60188 C 350.39027,642.22081 344.82797,660.40529 318.8371,688.93288 C 315.52958,692.5632 313.13864,695.84871 313.5239,696.23397 C 313.90917,696.61923 315.75099,695.02408 317.61684,692.68916 C 319.4827,690.35426 321.53235,688.96286 322.17162,689.59717 C 322.8109,690.23148 322.40352,691.32549 321.26633,692.02832 C 320.12916,692.73113 319.64834,693.75579 320.19788,694.30532 C 320.74742,694.85486 322.11252,694.54471 323.23143,693.61609 C 324.35034,692.68748 326.12567,692.11164 327.17659,692.33644 C 328.22752,692.56125 330.02485,690.64831 331.17067,688.08544 C 332.31651,685.52258 334.10537,683.42569 335.14592,683.42569 C 337.49754,683.42569 337.61111,686.58021 335.3412,688.85011 C 332.47198,691.71933 335.06962,692.38055 342.74455,690.73456 C 346.78065,689.86898 351.96961,689.16077 354.27556,689.16077 C 357.7163,689.16077 359.34838,687.8538 363.37592,681.87324 C 366.07517,677.86509 373.10049,669.56976 378.98774,663.43915 C 388.86459,653.15405 393.91978,650.05368 398.38567,651.54231 C 400.4742,652.23849 400.73098,662.80838 398.69,664.06977 C 397.90142,664.55713 397.25623,665.67205 397.25623,666.54736 C 397.25623,667.42265 401.93391,663.60932 407.65107,658.07327 C 417.9006,648.14846 425.07876,643.28008 429.46287,643.28008 C 431.24314,643.28008 430.91569,644.53036 427.86696,649.37361 C 424.32275,655.00398 416.22853,665.98291 414.38957,667.6542 C 413.95572,668.04848 411.54219,671.75836 409.02618,675.89838 C 404.88403,682.71413 404.71341,683.42569 407.22126,683.42569 C 411.15763,683.42569 412.26548,686.04228 409.58374,689.00556 C 405.70558,693.29089 407.0473,693.92343 411.70396,690.00511 C 416.89624,685.63608 418.32113,685.4077 419.20823,688.80233 C 419.63097,690.41999 419.92302,689.97299 420.03025,687.5441 C 420.21405,683.38089 423.53452,679.79352 425.86886,681.23621 C 427.82954,682.44797 427.81106,689.16077 425.84704,689.16077 C 425.01192,689.16077 424.71924,689.79276 425.19662,690.56518 C 427.59623,694.44783 437.30761,681.49847 446.94856,661.56067 C 448.37851,658.60351 450.04145,656.18402 450.64399,656.18402 C 452.5309,656.18402 451.84633,659.17447 449.0536,663.13155 C 445.72857,667.84285 438.1564,682.89598 436.68138,687.727 C 435.59082,691.29879 435.59778,691.30178 438.65384,688.57215 C 442.12971,685.46758 444.51548,686.48899 441.70315,689.87765 C 440.68982,691.09862 440.27528,692.51215 440.78194,693.0188 C 441.2886,693.52546 441.70315,693.18727 441.70315,692.26728 C 441.70315,691.34727 442.41736,690.59454 443.29031,690.59454 C 444.16325,690.59454 444.50611,691.56233 444.0522,692.7452 C 443.59828,693.92806 443.87211,694.89585 444.66069,694.89585 C 445.44926,694.89585 446.46583,693.92806 446.91973,692.7452 C 447.37365,691.56233 448.32119,690.59454 449.0254,690.59454 C 449.7296,690.59454 450.30577,691.56233 450.30577,692.7452 C 450.30577,696.30861 452.9566,695.17254 455.32397,690.59454 C 457.5033,686.38018 460.34217,684.80585 460.34217,687.81162 C 460.34217,688.64673 460.98737,688.93125 461.77594,688.44389 C 464.62126,686.68538 463.14943,684.53669 459.56847,685.22124 C 457.38493,685.63864 456.12874,685.3127 456.43061,684.40706 C 456.7075,683.57641 460.44295,682.64816 464.73163,682.34427 C 469.02032,682.04039 478.33601,680.26965 485.43318,678.4093 C 506.50946,672.88468 505.7208,673.05306 503.35532,674.58279 C 499.99625,676.75506 483.17251,681.99191 479.55304,681.99191 C 477.25037,681.99191 475.35832,683.66231 473.09044,687.69746 C 469.23725,694.55328 465.29638,696.10243 449.13217,697.11537 C 438.7969,697.76303 437.40183,697.56309 437.40183,695.43406 C 437.40183,693.23006 437.149,693.24646 434.5255,695.6207 C 431.02432,698.78923 429.41522,697.6691 431.60102,693.58488 C 433.51919,690.00077 432.15262,689.71039 428.58055,692.94307 C 426.58464,694.74934 425.52658,694.91077 423.99813,693.64227 C 422.48221,692.38419 421.62693,692.4555 420.39247,693.94294 C 419.50237,695.01543 416.83485,695.94806 414.46464,696.01545 C 412.09443,696.08285 408.8659,696.54717 407.29012,697.0473 C 405.26929,697.68869 404.42508,697.30351 404.42508,695.7401 C 404.42508,693.90009 403.82025,693.79915 400.86448,695.14587 C 396.02346,697.35159 394.23797,705.96277 398.04453,708.7462 C 400.53426,710.56673 400.50732,710.66734 397.53026,710.66734 C 394.09991,710.66734 394.15994,710.82055 393.73782,700.98939 C 393.577,697.24365 393.17375,693.27949 392.84171,692.18013 C 392.50247,691.05687 394.61581,688.5303 397.66614,686.4123 C 400.65161,684.33936 404.80008,679.75467 406.88494,676.22409 C 408.96982,672.69352 414.46884,664.73505 419.10498,658.53863 C 423.74113,652.34219 427.23077,646.96881 426.85976,646.5978 C 424.06642,643.80447 398.5525,666.996 389.16543,680.86102 C 382.01212,691.42667 375.05083,699.19717 372.73876,699.19717 C 370.82949,699.19717 375.4533,692.35907 381.94897,685.57634 C 388.4316,678.80723 397.07356,664.62465 398.22566,658.8642 C 399.28231,653.58091 395.8105,652.08271 390.43475,655.50217 C 385.4173,658.69371 374.31589,669.88053 374.31589,671.74501 C 374.31589,672.52593 371.4125,677.49458 367.86391,682.78645 C 364.31533,688.07832 361.41194,692.57696 361.41194,692.78342 C 361.41194,692.9899 359.47635,695.23088 357.11063,697.7634 C 354.7449,700.29591 352.80932,703.18853 352.80932,704.19143 C 352.80932,706.5022 348.74908,709.95256 347.49987,708.70336 C 346.98351,708.187 348.06511,705.73016 349.90343,703.2437 C 352.61486,699.57629 352.77497,698.90355 350.75158,699.68 C 349.37973,700.20643 345.77267,701.03444 342.73585,701.52005 C 337.99378,702.27834 336.71713,701.86642 333.69165,698.60186 C 330.63148,695.29989 329.89877,695.07089 328.11176,696.8579 C 326.7622,698.20745 323.25701,698.86019 317.92132,698.75557 C 310.07233,698.60166 309.5484,698.83212 302.93243,705.3486 C 296.67597,711.511 294.02468,713.30661 294.02468,711.38148 z M 316.76958,688.92715 C 324.61891,680.33472 334.17028,668.12277 334.17028,666.67936 C 334.17028,666.15684 335.17935,664.61432 336.41268,663.25151 C 337.646,661.8887 339.47741,657.64412 340.48249,653.8191 C 343.04253,644.07632 341.33212,639.92524 333.11952,635.94959 C 327.18264,633.0756 325.75142,632.91391 318.92429,634.34592 C 294.48434,639.47226 268.20474,663.95732 268.22216,681.58581 C 268.22982,689.34762 272.68697,695.98665 278.54325,696.95937 C 286.76256,698.32456 294.50109,698.51068 302.2604,697.52978 C 309.02159,696.67505 310.48358,695.80822 316.76958,688.92715 z M 347.67535,694.89585 C 348.22639,694.89585 348.27848,695.54105 347.79112,696.32962 C 346.08938,699.08308 351.40162,697.73732 354.51191,694.62702 C 358.73108,690.40787 356.89635,690.16662 344.20669,693.27201 C 336.21343,695.22808 334.13455,696.19584 336.10719,697.04238 C 337.77401,697.75769 339.16622,697.52559 339.85054,696.41833 C 340.63857,695.14328 341.22201,695.38305 341.9589,697.28473 C 342.92504,699.7781 343.07326,699.78433 344.82558,697.40496 C 345.84192,696.02495 347.12431,694.89585 347.67535,694.89585 z M 397.77473,691.31142 C 398.22863,690.12856 397.97505,689.16077 397.21124,689.16077 C 396.44741,689.16077 395.82245,690.12856 395.82245,691.31142 C 395.82245,692.49428 396.07603,693.46208 396.38594,693.46208 C 396.69587,693.46208 397.3208,692.49428 397.77473,691.31142 z M 460.34217,692.02832 C 460.34217,691.23974 459.69697,690.59454 458.9084,690.59454 C 458.11983,690.59454 457.47463,691.23974 457.47463,692.02832 C 457.47463,692.81688 458.11983,693.46208 458.9084,693.46208 C 459.69697,693.46208 460.34217,692.81688 460.34217,692.02832 z M 469.69024,688.19909 C 470.98341,686.22545 471.66478,684.23396 471.20437,683.77356 C 470.04545,682.61465 463.20972,689.23503 463.20972,691.51635 C 463.20972,694.25655 466.9887,692.32215 469.69024,688.19909 z M 404.78352,690.03243 C 407.84342,687.70964 407.99831,686.29322 405.19241,686.29322 C 404.03729,686.29322 402.4016,687.58362 401.55754,689.16077 C 399.80033,692.44415 401.13236,692.80406 404.78352,690.03243 z M 453.17331,680.64276 C 453.17331,679.90072 453.81851,678.89485 454.60709,678.40748 C 455.39567,677.92011 456.04086,678.52723 456.04086,679.75663 C 456.04086,680.98604 455.39567,681.99191 454.60709,681.99191 C 453.81851,681.99191 453.17331,681.3848 453.17331,680.64276 z"
       id="path2883" />
  </g>
</svg>
