<?xml version="1.0" encoding="UTF-8" standalone="no"?>
<!-- Created with Inkscape (http://www.inkscape.org/) -->

<svg
   xmlns:dc="http://purl.org/dc/elements/1.1/"
   xmlns:cc="http://creativecommons.org/ns#"
   xmlns:rdf="http://www.w3.org/1999/02/22-rdf-syntax-ns#"
   xmlns:svg="http://www.w3.org/2000/svg"
   xmlns="http://www.w3.org/2000/svg"
   xmlns:sodipodi="http://sodipodi.sourceforge.net/DTD/sodipodi-0.dtd"
   xmlns:inkscape="http://www.inkscape.org/namespaces/inkscape"
   id="svg3784"
   version="1.1"
   inkscape:version="0.48.5 r10040"
   width="988"
   height="263"
   sodipodi:docname="Sign_Joko_Widodo.png">
  <metadata
     id="metadata3790">
    <rdf:RDF>
      <cc:Work
         rdf:about="">
        <dc:format>image/svg+xml</dc:format>
        <dc:type
           rdf:resource="http://purl.org/dc/dcmitype/StillImage" />
        <dc:title></dc:title>
      </cc:Work>
    </rdf:RDF>
  </metadata>
  <defs
     id="defs3788" />
  <sodipodi:namedview
     pagecolor="#ffffff"
     bordercolor="#666666"
     borderopacity="1"
     objecttolerance="10"
     gridtolerance="10"
     guidetolerance="10"
     inkscape:pageopacity="0"
     inkscape:pageshadow="2"
     inkscape:window-width="1366"
     inkscape:window-height="705"
     id="namedview3786"
     showgrid="false"
     inkscape:zoom="1.1578947"
     inkscape:cx="642.06946"
     inkscape:cy="90.542002"
     inkscape:window-x="-8"
     inkscape:window-y="-8"
     inkscape:window-maximized="1"
     inkscape:current-layer="svg3784" />
  <path
     style="fill:#000000"
     d="m 642.1875,2.4375 c -9.85359,6.2096969 -16.71598,17.142077 -27.4375,22.21875 -4.3432,-1.058216 -2.60615,-7.481063 -5.9375,-9.96875 -3.34728,-5.7968223 -13.40572,-3.39106 -13.21875,3.4375 -0.98709,11.328739 8.90494,24.503499 21.21875,21.5625 11.96565,-4.771445 21.93095,-14.283697 30.09375,-24.1875 4.593,-4.690733 2.73105,-13.2789587 -4.71875,-13.0625 z M 223.46875,17.3125 C 201.90301,18.012513 180.97938,23.326418 160.125,28.125 144.19501,33.579839 127.38777,37.603757 111.5625,44.0625 101.06121,48.509673 90.310202,52.259804 80.28125,57.75 60.920208,66.290049 42.578954,77.426157 25.990743,90.432041 17.420204,98.711649 6.0694024,106.94618 4.40625,119.625 c -0.7945224,6.65946 5.878807,10.49685 11.6875,10.625 13.315399,0.72294 26.612833,-1.62109 39.933393,-1.96554 12.969945,-0.75171 25.134163,-5.64312 38.194832,-6.22402 4.791519,-0.0722 10.648545,-2.39289 14.965525,-0.93544 0.7048,5.28141 4.00492,12.23979 10.46875,11.0625 6.39585,-1.064 7.20386,-8.48424 7.125,-13.53125 3.53929,3.64433 8.28291,8.77241 14,5.9375 4.39964,-0.57011 4.85088,-5.28941 5.09375,-8.75 2.81121,-1.75019 6.71679,-1.45389 9.75,-1.75 -6.21263,7.44658 -16.81426,9.77627 -22.4375,17.71875 -3.52074,5.1941 0.12951,11.84404 5.71875,13.375 2.41374,0.95966 4.78393,1.64516 7.34375,1.84375 -4.90973,3.02898 -9.47597,11.00414 -3.46875,15.3125 10.84703,6.90808 23.90606,0.23857 34.88287,-2.88849 9.99693,-3.59276 19.57551,-8.18932 29.92963,-10.86151 8.19227,-3.83515 16.83934,-6.37039 25.9935,-7.36777 21.89684,-3.42917 43.46154,-8.62229 64.694,-14.72598 6.48461,-4.76072 16.85392,-6.11977 19.84375,-14.40625 2.16842,-8.01952 -6.41524,-13.517587 -13.30338,-14.43752 -11.48815,-3.704607 -24.09789,-0.5825 -35.84358,0.35475 -7.35378,0.161084 -14.35149,4.11253 -21.50929,3.77027 -5.52249,-5.931752 -15.06127,-4.584724 -22.53125,-5.3125 -6.25126,-0.875587 -13.80096,1.62771 -19.12814,-1.449783 -1.86938,-1.925284 -4.05293,-3.74459 -6.71561,-4.393967 14.2283,-11.468576 26.94006,-24.576948 40.5,-36.5625 C 246.4886,47.731253 252.35922,38.180414 251.0625,28.5 247.89185,17.100551 232.93513,17.138453 223.46875,17.3125 z m 129.5,0.3125 c -5.44241,-0.02254 -7.39277,6.46574 -5.21875,10.75 6.49567,13.712175 -0.28112,28.799499 -5.1875,41.875 -2.84746,6.590953 -5.79639,13.168681 -9.1875,19.5625 C 322.24155,68.776867 311.59184,46.772798 294.5,30.03125 c -4.05313,-3.16395 -13.84404,-0.38963 -11.28125,5.78125 7.50375,13.540987 18.50972,25.179739 24.87425,39.298308 11.82325,22.444021 22.08935,45.682832 31.78001,69.086072 6.38046,10.39887 7.36239,23.09781 12.03398,34.34212 8.87466,21.73268 16.58331,44.01044 24.975,65.94767 2.87726,5.349 4.06958,12.64793 9.27426,16.20083 4.07432,0.93672 10.90181,1.99397 13.03125,-2.625 -1.59998,-9.69371 -7.85351,-17.82859 -10.60987,-27.27675 -4.48888,-11.90865 -7.47637,-24.15317 -13.37508,-35.49489 -9.90496,-21.67893 -15.69,-44.62145 -24.57755,-66.66586 -2.47132,-4.45916 -3.29822,-10.01534 -5.53125,-14.3125 4.35802,0.4884 8.79671,0.21608 13.09375,-0.53125 -4.17329,3.61621 -9.96965,8.86011 -6.65625,14.96875 4.78334,8.71961 16.81763,6.78074 24.71875,4.21875 4.96412,-1.09252 8.44549,-4.87393 13.375,-5.875 8.74677,-5.64022 18.81053,-8.88203 27.3125,-15.03125 5.23121,-1.87091 11.13668,-4.78683 13.59375,-10.03125 -0.72815,-2.816808 2.3882,1.55135 3.96875,1.3125 3.49876,1.67293 9.52998,0.23088 11.65625,0.90625 -2.22035,5.36506 0.7059,13.41297 7.4375,13.09375 5.16964,0.34608 10.13455,-1.52235 14.6875,-3.78125 6.88888,8.81269 19.94748,6.32612 27.60429,0.0509 2.17902,-1.93673 2.25048,3.88205 5.36446,3.54285 3.89047,0.39391 8.56792,-0.44297 10.53125,3.96875 6.38795,6.71904 15.96099,1.29203 23.03125,-1.1875 2.54075,-0.75249 7.9178,-4.28778 8.5,-3.8125 -2.79018,3.54797 -1.62096,8.90723 2.90625,10.375 6.33583,3.2326 14.19455,1.58737 20.625,-0.375 11.9334,-7.42849 24.42032,-14.35367 35.53042,-23.10054 2.32702,-1.94726 2.48495,-1.53615 2.12583,0.94429 -0.1115,2.59052 2.06428,4.77602 3.84375,5.78125 -5.5154,3.60788 -6.74933,12.95161 -0.15625,16.1875 8.2024,4.2717 16.49864,-2.64086 24.03125,-5.375 -3.55105,2.53684 -3.07651,6.98368 -0.0937,9.65625 4.76508,3.87857 12.18526,2.21561 17.5,0.40625 4.04429,-1.63046 7.84196,-3.70058 11.78125,-5.59375 4.82276,6.85651 14.80018,3.31513 20.75,0.0312 7.93568,-4.36992 16.27161,-8.32701 23.5,-13.84375 3.2176,6.33445 11.23115,6.14862 16.71875,3.1875 4.45303,-1.56392 10.471,-5.38015 13.59375,-6.4375 -3.97155,4.83397 0.62519,12.00278 6.59375,11.4375 9.40225,-0.84023 15.86094,-9.29811 23.69865,-13.7546 17.74621,-12.303825 38.04191,-24.130721 57.0201,-32.1204 -4.46153,4.313285 1.152,10.307871 5.3125,12.1875 18.34538,9.525309 35.87906,20.27777 53.15625,31.4375 15.59515,8.4013 30.92733,18.12027 47.03516,25.77678 12.08845,5.06292 23.04837,12.63717 35.43359,16.84822 4.00959,1.61139 8.87845,-1.06173 8.125,-5.75 0.3405,-8.54881 -9.99797,-10.30899 -15.90625,-13.21875 -15.97722,-9.04969 -33.50639,-15.88721 -49.21875,-25.75 -9.54708,-6.12529 -19.88524,-10.66614 -29.37683,-17.082105 C 867.12394,92.42944 857.4553,84.744335 846.53125,79.8125 c -7.08706,-2.531757 -13.81227,-7.965453 -21.6875,-7 9.78128,-4.46306 19.57651,-8.487438 29.84375,-11.625 12.67138,-4.296964 25.91054,-7.152169 38.65625,-11.1875 17.82539,-3.212739 35.27837,-7.879728 53.33498,-9.225914 5.31582,-0.479504 13.08384,-1.055435 13.69627,-7.805336 1.07518,-4.843844 -3.74637,-8.146854 -8.15625,-7.5 -17.02685,0.810015 -33.81799,4.762973 -50.66639,7.423134 -18.7417,4.10346 -37.07911,10.037446 -55.30763,15.852215 C 814.24571,60.01839 784.02165,75.80272 756.0625,94.875 c 3.14175,-4.705667 11.49555,-7.955673 9.96875,-14.625 -2.73864,-5.17719 -9.40426,-3.272706 -13.5625,-1.34375 -4.41029,-4.440665 -11.2547,-3.173954 -16.4375,-0.96875 C 733.61501,71.556623 725.13413,73.060909 720,74.53125 c -7.33128,3.795207 -16.18146,6.653606 -22.875,10.71875 -1.89007,-5.502852 -8.09588,-6.75209 -13.03264,-4.851214 -8.52259,2.775003 -17.08337,5.499489 -25.12361,9.351214 -1.32016,0.303607 -0.19343,-4.347614 -2.46875,-5.125 -9.46524,-4.044346 -18.14096,4.059505 -26.76594,6.730477 -5.14262,2.023303 -10.90859,4.326008 -16.20281,4.207023 4.58689,-2.785146 9.41863,-8.843244 5.09375,-13.9375 -1.05099,-1.445615 -3.96066,-1.712602 -1.15625,-3.125 3.33787,-2.303779 5.78172,-7.383098 1.96875,-10.40625 -6.53247,-6.764317 -16.17627,-2.367122 -23.2629,0.862669 -7.96994,3.418947 -16.32083,8.47963 -23.76835,11.699831 -0.8122,-6.247356 -8.9773,-6.050031 -13.25581,-3.636844 -12.83699,3.532911 -23.30949,11.832822 -35.49419,16.636844 -2.62604,-3.672067 -9.19878,-4.569744 -11.28125,0.21875 -2.65259,2.71611 -6.55653,5.578698 -10.21875,2.90625 -2.27182,-0.705052 -6.15408,0.862306 -2.02885,-2.268008 3.65784,-3.471349 7.81421,-9.31997 3.46635,-13.950742 -1.46404,-1.885729 -5.3075,-1.489001 -2.5,-3.96875 3.8399,-5.208243 -0.85862,-12.313991 -6.96875,-12.09375 -7.3854,0.493415 -13.66712,5.269643 -20.5,7.71875 -6.94821,5.155193 -15.06725,8.554244 -22.3125,13.15625 -2.61302,-5.563688 -6.3719,-4.887285 -10.89443,-1.615286 -5.85529,2.314431 -12.87186,8.894424 -11.82432,14.396536 -8.59235,-4.752013 -17.17936,3.08135 -25.09375,5.65625 -7.23344,3.11974 -15.80207,8.60374 -21.9375,10.84375 12.37817,-10.66205 28.42794,-17.347178 38.9375,-30 3.54323,-5.181526 -2.22392,-12.244215 -8.03125,-9.9375 -21.13692,5.583441 -38.37024,21.215341 -59.84375,26.0625 -2.47869,0.31655 -5.48804,-1.338114 -3.53125,-4.125 6.82302,-16.184401 13.12311,-32.710191 16.1875,-49.9375 0.0592,-7.929053 0.31375,-16.441364 -2.6875,-23.84375 -1.99639,-3.257921 -5.72643,-5.597432 -9.625,-5.25 z m 249.84375,2.1875 c 1.49911,1.052757 2.35775,6.763493 0.78125,2.59375 -0.27965,-0.803281 -0.82069,-1.776585 -0.78125,-2.59375 z M 241.125,27.71875 c 3.63511,1.465507 2.13288,7.417978 1.1875,8.625 0.30631,-3.001851 0.52873,-6.435293 -1.5625,-8.875 l 0.375,0.25 z m 115.0625,0.1875 c 0.70557,1.738203 0.57342,2.299231 0,0 z M 227.96875,29.875 c 3.84214,-0.514772 9.43735,3.412526 5.53125,7.03125 -16.66179,21.780031 -39.55975,37.456984 -59.28125,56.03125 -7.64789,6.970772 -18.62095,8.46839 -28.375,8.25 -0.62685,-5.721758 -6.61248,-10.759031 -12.1875,-7.78125 -4.07292,1.523203 -5.28275,5.895117 -5.71875,9.59375 -4.29877,2.30366 -3.53986,-3.555128 -3.84375,-6.53125 -0.001,-6.007033 -3.60508,-13.67659 -10.71875,-12.53125 -7.07259,0.454382 -7.23317,9.446018 -5.82942,14.576206 -0.12043,2.761614 2.94085,7.646964 -1.92058,7.673794 -22.897015,6.71725 -47.722551,5.5663 -70.957122,11.40206 -3.78414,0.17608 -9.578361,1.37726 -12.542878,-0.24581 7.773093,-14.47419 22.300528,-23.378825 35.869737,-31.985237 7.327311,-3.973478 13.579772,-9.577558 21.602671,-11.898324 13.951509,-6.71772 27.798862,-13.928121 42.643572,-18.36283 9.97111,-4.794708 21.09048,-6.809903 31.44056,-10.617615 18.49725,-4.411262 37.03455,-9.460441 56.00596,-12.104744 6.07518,-1.157299 12.09502,-2.344776 18.28125,-2.5 z m 382.46875,1.46875 c 2.00213,0.646265 3.42643,1.291799 0.6875,0.46875 -0.36955,-0.05879 -2.37414,-1.426787 -0.6875,-0.46875 z M 610.375,71.9375 c 4.01921,0.250013 -1.80549,3.69131 -2.8125,5.0625 -3.85284,3.682822 -9.22892,6.119708 -13,9.40625 -0.39942,-2.385119 -2.66091,-3.569083 -4.4375,-4.84375 -4.7226,0.171865 0.92427,-1.514317 2.71875,-2.625 5.69945,-2.479853 11.55859,-5.629853 17.53125,-7 z m -260.84375,2.15625 c -2.36663,9.813499 -10.6524,18.965991 -8.25,29.40625 2.29431,2.30922 -2.5306,0.82631 -3.46875,2.71875 -4.36284,1.56123 -3.24296,6.57845 -0.96875,9.46875 1.50361,3.19608 3.85147,6.19178 3.78125,9.875 -3.83397,-9.95912 -9.39749,-19.34084 -12.96875,-29.3125 1.63769,4.05775 7.29197,5.37671 9.84375,1.4375 5.65898,-7.469221 8.81189,-16.527836 12.5625,-25.09375 l -0.33385,0.942627 -0.1974,0.557373 z m 144,-1.4375 c -3.34808,5.206525 -10.13979,7.824659 -12.6875,13.4375 -0.0537,2.18483 2.10859,3.754661 0.65625,5.96875 1.81495,4.458606 6.85758,0.07051 9.34375,-1.71875 0.98811,-1.641855 4.72812,-3.751568 5.28125,-3.53125 -4.23267,5.945431 -11.67186,10.11766 -14.1875,17.1875 -0.057,2.55404 1.54069,5.64273 4.21875,6.15625 -4.81358,2.83177 -9.96934,0.44217 -13.90625,-2.59375 -5.92192,-2.82344 -12.35745,2.09513 -17.9375,2.21875 -2.97023,-2.10601 3.25519,-4.4698 4.46991,-6.50386 5.86931,-5.311899 14.69669,-8.477179 18.37384,-15.93364 -0.009,-3.823021 -4.18987,-1.69297 -5.84375,-3.78125 -1.11864,-0.811592 5.06566,-3.335576 6.65625,-4.75 4.9038,-2.482472 10.17525,-5.124455 15.5625,-6.15625 z M 727.5625,80.5 c 2.36952,1.793645 4.22556,5.339838 7.96875,4.90625 4.61374,0.20805 9.27943,-3.779759 13.375,0.125 1.62051,1.339619 6.85429,-0.341858 3.09776,1.910448 -3.75888,2.289338 -5.53187,6.927712 -10.12901,7.527052 -9.27544,3.973567 -17.38236,11.60682 -27.3125,13.8125 -2.05861,-0.40921 -1.57302,-4.40813 -4.4375,-4.8125 -6.92005,-3.67133 -13.10601,4.4566 -19,6.84375 -7.11534,3.57278 -13.98047,9.9195 -22.03125,10.46875 -1.72125,-3.63425 -6.19671,-7.51199 -10.15625,-4.5 -6.11375,3.75595 -12.75647,8.15709 -20.125,8.46875 8.61625,-9.393 22.11127,-13.46929 30.21875,-23.1875 1.25412,-2.864775 -2.72993,-2.717605 -2.1875,-5.375 -2.40623,-1.222013 -0.99204,-1.601884 1.03125,-2.28125 7.25907,-1.274402 13.74629,-7.148906 21.09375,-6.71875 1.61708,2.790117 3.44854,7.248204 7.6875,6.15625 7.43747,-2.811921 14.13793,-7.730069 21.92083,-10.020585 3.06714,-0.929992 5.84175,-2.861784 8.98542,-3.323165 z m -316.90625,3.3125 c -10.48668,8.796333 -23.00314,15.973588 -33.8125,24.03125 2.08736,-2.81434 -1.81602,-4.62657 -3.53125,-4.25 -2.62971,-2.93478 3.40429,-2.69132 5.09375,-4.46875 10.92163,-4.892234 20.49978,-12.084257 31.96875,-15.71875 1.39227,-0.455026 2.25442,-1.040723 0.28125,0.40625 z m 148.625,1.53125 c -2.95457,4.023007 -10.63465,4.314382 -10.71875,10.28125 1.21412,1.957526 3.61487,0.256473 3.84375,2.8125 4.29549,0.588666 0.8494,1.099943 -1.33697,2.85975 -9.87243,6.29088 -20.22657,13.23504 -31.75678,15.64025 -3.00026,-0.87894 -2.99184,-5.76797 -6.8125,-5.84375 -3.25348,-0.078 -9.92795,-1.66804 -9.4375,-4.53125 0.96289,3.184 3.85238,1.26463 4.9375,-0.28125 2.55786,-0.30135 4.03694,-4.02717 6.125,-1.40625 6.45405,1.1909 12.03388,-4.28001 17.8125,-6.375 9.26156,-4.636369 18.4696,-9.679009 27.9375,-13.6875 l -0.59375,0.53125 z m -370.1875,4.875 c -2.5781,5.2089 3.49685,8.242519 7.78125,7.46875 1.7599,1.484062 6.69181,6.00751 2.125,5.125 -8.25973,-0.41096 -16.72155,0.94293 -23.20123,6.40709 -5.23714,4.52821 -14.36958,9.08287 -13.04877,17.34291 1.32614,5.34672 6.94496,9.37344 12.4375,7.125 10.05124,-0.87888 18.39496,-7.60066 28.1875,-9.09375 8.1286,-4.99232 18.25337,-6.67792 25.90625,-12.5625 1.85461,-2.29304 1.49106,-6.94283 -1.53125,-8.03125 5.74406,-0.0545 11.33005,1.0008 15.90625,4.5625 2.07313,1.05607 6.562,0.56762 7.15625,0.71875 -14.64267,3.76609 -28.81888,9.11908 -42.73664,15.21957 -7.46212,3.5912 -17.2624,4.81589 -21.32586,12.84293 -7.48717,1.11415 -14.72017,3.80161 -21.53125,7.28125 2.24377,-2.24783 -0.37988,-4.03836 -2.3125,-4.71875 -0.86101,-1.64257 -3.97384,-1.85165 -1.0625,-2.90625 4.84395,-4.03762 0.0661,-12.63207 -5.96875,-11.15625 -4.88583,1.22673 1.47053,-1.96353 2.89637,-3.63638 4.42097,-2.86423 8.80159,-9.65368 3.85363,-14.08237 -3.61658,-1.93788 4.97073,-1.2653 6.375,-2.4375 7.55403,-3.7601 14.06861,-10.280293 20.09375,-15.46875 z M 443.46875,91 c 0.37226,2.815372 3.6363,4.003161 6.125,3.1875 -3.87227,1.644117 -8.68825,4.444392 -12.65625,1.5 1.93572,-1.817712 4.40901,-3.371904 6.53125,-4.6875 z m 201.71875,2.5 c -7.28284,3.808345 -14.14352,8.73279 -20.9375,13.34375 -2.25909,2.23751 0.77274,4.55792 2.28125,4.96875 1.91084,2.54516 0.38616,2.66436 -2.4375,4 -3.44266,1.94839 -8.84034,5.66387 -12.4375,2.75 0.66117,-3.84848 7.51723,-4.66202 6.4375,-9.625 -0.0243,-2.25653 -1.26436,-4.73569 -3.59375,-5.3125 11.3105,-0.5229 21.12538,-7.18946 31.65625,-10.75 l -0.8403,0.542127 L 645.1875,93.5 z m -529.875,0.59375 c 1.99201,5.694156 -0.44402,14.45351 6.25,17.375 -4.39283,2.26417 -2.65685,9.06898 -3.53125,11.8125 -0.52551,-3.90602 -1.29359,-9.07457 -6,-10.0625 -0.76362,-0.16395 2.98082,-1.25714 2.59375,-3.03125 0.90774,-5.24155 0.32223,-11.019724 0.6875,-16.09375 z M 137.4375,100 c 1.53348,2.58425 0.98499,6.95908 5,7.625 4.14462,0.67961 0.30966,0.77379 -1.84375,1.6875 -3.65967,1.50894 -0.48724,7.90884 -4.3125,8.625 -1.42625,-2.06658 -0.4823,-6.25673 -4.125,-6.875 -3.15946,-0.54777 -1.83738,-0.50708 0.3125,-1.84375 3.79775,-2.09335 1.72243,-7.26998 4.96875,-9.21875 z m 614.125,3.4375 c 1.85406,0.99068 5.12599,-0.12759 1.13522,2.05503 -3.11845,2.10438 -6.16341,4.69922 -9.54147,6.16372 2.51748,-3.01259 5.95736,-5.40443 8.40625,-8.21875 z m -251.71875,1.28125 c 0.0525,0.54998 -1.20024,-0.35831 0,0 z m -192.28125,2.1875 c 2.64127,1.06379 3.89992,3.25295 0.9375,4.75 -1.12922,0.82866 0.94944,-3.54011 -0.84375,-4.4375 0.41609,0.093 -0.64954,-0.62265 -0.0937,-0.3125 z m 254.96875,3.46875 c 0.45529,2.64627 2.64923,4.96091 5.15625,5.84375 -4.35031,3.55192 -11.86343,6.0928 -16.5625,3.71875 3.10786,-3.47581 7.94622,-7.95769 11.40625,-9.5625 z m -348.5,-0.21875 c 3.86699,0.2296 -6.06964,2.77041 -8.125,4.21875 -4.37042,2.39512 -8.74271,4.17798 -13.5625,5.15625 -6.84161,2.17342 -13.82991,7.75204 -21.25,6.15625 -1.10267,-2.29773 3.73217,-4.13769 4.875,-5.90625 5.71661,-5.46928 12.68647,-10.12411 20.99908,-9.29282 5.68499,-0.20326 11.37562,-0.24953 17.06342,-0.33218 z M 633.375,111.125 c -3.17508,1.35526 1.51834,-1.20333 0,0 z m -344.25,-0.0625 c 2.19221,0.18016 11.11142,-0.62688 4.8125,1.3125 -9.80806,4.10094 -20.06305,7.66012 -30.84375,6.1875 -10.80721,0.17004 -20.1978,5.82234 -30.6875,7.5 -7.83843,2.33237 -15.62819,4.84242 -23.5625,6.5625 21.54851,-8.46212 43.03439,-17.98855 66.03125,-21.15625 4.74206,-0.34814 9.49782,-0.37082 14.25,-0.40625 z M 14.5625,114.25 c -1.920247,2.17602 -0.504713,6.02813 -0.34375,7.59375 -2.295517,-0.51699 -3.504021,-2.74209 -1.625,-4.53125 0.292183,-0.5902 2.675772,-4.46843 1.96875,-3.0625 z m 347.6875,6.40625 c -1.71898,2.5389 0.25519,6.80819 2.4375,7 -2.3187,-0.001 -8.64715,-1.743 -5.09375,-4.6875 0.54568,-0.66261 2.63051,-2.64134 2.65625,-2.3125 z m -92.1875,5.65625 c -10.46663,2.42057 -21.07387,4.59933 -31.71875,6.40625 11.00594,-3.56522 22.05025,-7.21208 33.75,-6.90625 -0.67708,0.16667 -1.35417,0.33333 -2.03125,0.5 z m 73.25,5.625 c 1.9443,2.62362 2.31193,5.76446 3.34375,8.8125 -1.1409,-2.86309 -2.93074,-5.61203 -3.34375,-8.8125 z m -199.78125,1.25 c -1.24539,1.56798 0.50369,4.99739 -0.0937,5.15625 -2.24116,-0.79716 -5.03815,-2.56946 -1.5,-3.96875 0.19985,-0.0278 1.5932,-1.43146 1.59375,-1.1875 z m 61.84375,8.09375 c -2.68431,0.75578 -6.86889,2.81361 -8.78125,2.4375 2.24871,-2.72571 6.42219,-1.77074 9.5,-2.71875 l -0.71875,0.28125 z M 155.5,150.875 c -1.38807,2.18369 -1.15284,5.92311 0.59375,7.125 -2.21636,0.7082 -8.32203,0.34273 -7.27695,-2.31277 2.01427,-1.79555 4.61622,-3.69407 6.6832,-4.81223 z m 201.375,17.6875 c 2.08988,4.1587 2.27583,8.86747 5.09375,12.53125 9.40735,20.63704 14.79227,42.82702 23.5,63.65625 -4.95437,-10.79293 -8.34491,-22.17676 -12.21875,-33.21875 -5.17327,-14.82895 -12.40999,-28.89226 -16.78125,-44 l 0.36652,0.93041 0.0397,0.10084 z M 386.03125,246 c 1.11836,2.58767 4.43515,7.11764 4.4375,8.375 -2.11549,-2.86888 -3.55955,-6.26411 -4.96875,-9.5625 l 0.40837,0.91282 0.12288,0.27468 z"
     id="path3794"
     inkscape:connector-curvature="0" />
  <path
     style="fill:#000000"
     d="m 224.40625,21.1875 c -39.35123,2.202119 -77.41999,14.369746 -114.1225,27.760904 -33.093453,13.652557 -66.348742,29.3626 -91.970374,54.716106 -4.054421,4.87489 -9.1683911,9.95458 -10.344626,16.36674 3.010205,7.54295 12.865028,6.46859 19.5625,6.78125 2.620079,-0.107 7.452387,-0.18047 6.46875,-4.03125 -4.853213,-2.54685 -11.415875,0.61044 -15.9375,-2.21875 -2.508307,-5.17231 3.638419,-9.71516 6.1875,-13.65625 C 39.999578,89.151237 61.234473,77.447422 82.535103,67.647908 98.89605,58.741122 116.73991,52.562926 134.21875,46.25 c 24.69117,-7.459109 49.69374,-13.572787 75.15151,-18.033945 8.32517,-1.47013 17.41472,-3.264164 25.59849,-0.809805 4.9049,1.912442 4.13131,7.720918 2.375,11.375 -13.42648,17.860873 -31.61684,31.915291 -48.43029,46.859457 -9.19084,7.322308 -17.72748,18.207033 -30.60096,18.171793 -4.99141,0.0178 -11.3541,2.22561 -15.78125,-0.5 -0.78527,-3.16045 -2.37842,-6.128938 -4.84375,-8.4375 -4.148,2.350004 -5.28682,6.77972 -6.875,10.65625 -2.83599,2.49826 -9.19216,4.26601 -10.125,-0.84375 -1.29158,-5.421723 -0.42635,-13.022554 -5.3125,-16.78125 -5.25782,-0.256485 -3.20913,7.245303 -3.87077,10.530885 -0.83914,3.249945 1.07965,8.506215 -1.22298,10.906615 -20.258505,5.92316 -41.811345,6.09173 -62.550263,9.93721 -2.660427,0.0968 -8.297797,1.59631 -4.855987,4.87529 23.086273,0.83477 45.558455,-6.95749 68.46875,-7.28125 4.02612,2.30835 1.80956,10.76523 7.96875,10.6875 4.78423,-2.50659 0.70911,-10.1068 4.5625,-12.9375 3.15412,-0.9755 8.56829,-1.18681 8.5,3.34375 1.06476,4.66397 7.57066,4.39309 8.75,-0.0625 1.11808,-2.46671 0.46714,-6.52796 4.5,-6.03125 4.72403,-0.42665 10.40092,-2.48872 14.8125,-0.6875 2.4937,5.1012 -4.77553,7.73726 -7.46875,10.6875 -5.32346,4.59457 -12.10107,7.80275 -16.78125,13.125 0.47067,5.94211 8.16164,7.99675 13.21875,7.78125 3.8651,0.61632 8.77471,-3.13761 11.75,0.3125 -6.41698,4.28714 -13.06843,7.98045 -18.84375,13.15625 3.61875,4.08826 8.5239,6.58163 14.03125,5.25 11.43104,-2.29199 22.80721,-6.19705 33.1875,-11.4375 2.80682,-2.99282 -1.97846,-4.85035 -4.4375,-3.0625 -8.73628,2.27901 -18.08171,7.07197 -26.65625,7.0625 1.24148,-4.30913 7.63558,-5.06257 11.03943,-7.3735 6.13207,-3.48642 13.32033,-3.84236 19.42932,-6.97025 6.89798,-8.58728 18.58097,-10.25255 28.09577,-14.86913 18.55188,-7.59759 37.79036,-14.02813 57.49798,-17.41212 9.38617,-0.0309 19.19024,-1.34575 28.375,0.65625 4.00035,1.70157 -0.65156,5.62234 -3.03125,6.15625 -12.47722,6.96982 -26.78485,7.84701 -40.75,8.96875 -20.08476,4.55501 -39.45379,12.24866 -59.9375,15.28125 -3.32339,0.34307 -5.53559,2.79471 -6.65625,5.59375 -3.66047,2.06591 0.28621,5.72959 3.28125,3.90625 11.59987,-3.11531 22.52835,-8.58407 34.63729,-10.06879 24.39849,-4.82318 49.72493,-8.31405 72.36271,-18.74371 4.24137,-2.71862 10.94448,-4.77687 11.75,-10.5 -4.87019,-8.09182 -16.12396,-7.6543 -24.46832,-8.18565 -13.72422,-1.158966 -27.01633,2.87939 -40.28168,4.7794 -6.19683,0.63371 -10.92612,-4.72621 -17.15625,-4.4375 -9.88567,-1.407695 -20.48517,-0.37566 -29.94917,-2.370494 -2.49523,-3.133763 -6.31702,-5.148664 -10.08208,-5.192006 0.39415,-5.306245 6.91406,-7.921321 9.96843,-11.635743 C 216.82304,68.400437 232.84243,56.624518 244.0625,40.625 247.81501,35.601517 248.45514,26.451861 241.375,24 236.28481,20.950243 230.18407,20.996832 224.40625,21.1875 z m -19.96875,85.53125 c 7.21732,0.21667 15.14551,-0.35796 21.9375,1.09375 0.56099,4.32205 -6.18906,4.04999 -8.57638,6.19008 -8.53773,4.14972 -17.41657,7.66615 -26.41038,10.59793 -7.02164,2.35378 -14.64099,6.95867 -22.16949,5.02449 -4.24002,-2.47586 -3.31568,-8.32366 0.53125,-10.59375 7.13335,-6.75836 15.76947,-13.49969 26.28057,-12.14591 2.80169,-0.0923 5.60391,-0.13862 8.40693,-0.16659 z m -46.9375,22.75 c 3.04113,0.42053 3.17727,6.14231 -0.5625,5.25 -3.06362,0.55662 -7.88486,3.39021 -10.21875,0.875 1.11682,-4.11106 7.09258,-5.79369 10.78125,-6.125 z"
     id="path3810"
     inkscape:connector-curvature="0" />
  <path
     style="fill:#000000"
     d="M 224.15625,17.8125 C 200.86534,18.63348 177.88662,23.894763 155.52736,30.000061 117.30268,41.191983 79.732089,55.467296 46.071477,76.831845 31.240663,87.106533 14.813746,97.349424 6.28125,113.71875 c -2.9590182,5.46826 -1.3720501,14.23564 5.78125,15.21875 15.875565,2.42385 32.131427,-0.49272 48.0625,-1.5 16.229815,-2.62872 32.390655,-6.23597 48.875,-7.21875 0.97973,5.32072 4.57872,13.17519 11.3125,11.25 5.9033,-1.29999 5.22789,-8.77892 6.625,-12.8125 3.92691,3.44605 9.04913,8.62655 14.71875,5.1875 4.70105,-1.48288 1.54983,-9.38569 7.15625,-9.25 2.05034,-0.19349 6.10093,-1.26063 7.09375,-0.4375 -6.33324,7.49151 -17.398,10.1805 -22.625,18.59375 -3.72613,6.85508 4.07054,12.77539 10.3125,13.25 2.55752,0.40598 6.05935,0.0568 2.1875,2.21875 -4.34397,2.63232 -8.05418,9.52351 -3,13.40625 7.83984,6.10406 18.48032,1.95484 27.0625,-0.0937 18.80281,-5.72985 36.63582,-14.53785 55.78125,-19.125 24.3227,-4.73692 49.00886,-8.61846 72.47814,-16.62074 6.53586,-3.90521 15.76915,-5.83347 19.45936,-13.12926 2.41209,-7.53705 -5.46341,-13.037323 -11.84375,-14.46875 -14.51076,-4.233033 -29.89414,-0.217654 -44.5,1.5625 -5.49842,0.4816 -12.24069,4.91948 -16.90625,0.03125 -11.77071,-4.520291 -25.0337,-2.061684 -37.40625,-3.1875 -2.62367,-2.196796 -5.12559,-5.181583 -8.71875,-5.6875 16.50299,-14.642975 33.68355,-28.813548 48.0625,-45.5 4.38272,-6.634257 7.53438,-17.060719 0.34375,-22.9375 -6.2323,-4.868041 -14.90397,-4.718462 -22.4375,-4.65625 z m 14.75,8.40625 c 5.83062,1.673855 5.30292,9.030614 2.3125,12.8125 -1.53389,2.754968 -3.47877,5.251522 -5.65625,7.5 4.66482,-4.80209 9.29252,-12.927284 4.4375,-19.21875 -0.23862,-0.380148 -0.88548,-0.84987 -1.09375,-1.09375 z M 227.6875,29.875 c 4.03846,-0.719946 10.09743,3.032659 6.125,6.9375 -13.95324,18.651849 -33.17845,32.8577 -50.44505,48.5186 -8.54829,8.392748 -18.54355,16.17587 -31.0862,15.76265 -3.68295,0.37278 -7.55575,0.84605 -8.40625,-3.53125 -2.35533,-6.245297 -11.40836,-5.63098 -14.03125,0.0625 -1.92523,1.7522 0.13476,6.50969 -3.71875,5.78125 -3.84031,0.37328 -1.49567,-5.776921 -2.65625,-8.4375 0.15482,-6.475263 -6.02607,-13.089941 -12.59375,-9.625 -6.38652,3.889797 -2.17186,12.271565 -2.53125,18.15625 0.29295,3.86922 -5.93764,3.22533 -8.5625,4.625 -22.02965,4.20745 -44.473245,5.5623 -66.5,9.625 -3.676844,0.26002 -8.343673,1.26715 -11.5625,0 C 30.553675,100.57068 48.916676,91.498347 64.383213,80.851398 78.960123,72.213129 94.877994,65.936521 110.34375,59.03125 145.90377,44.5965 183.50909,35.945934 221.4375,30.3125 c 2.07736,-0.232082 4.15902,-0.394681 6.25,-0.4375 z M 190.59375,88.5 c -3.45202,3.394592 -0.37639,9.436573 4.40625,8.53125 4.46553,0.187889 5.65657,7.35705 10.80914,5.64202 11.15558,1.19175 22.93322,-0.32539 33.65961,3.07673 9.42131,6.8003 21.26758,-0.16925 31.42483,-0.90868 11.17065,-1.30796 22.99938,-1.83014 34.04392,0.75243 1.61905,1.23746 8.51553,2.65587 5.125,5 -16.8011,12.5081 -38.33768,15.10176 -58.13635,19.886 -17.35009,3.22597 -34.93989,5.79371 -51.21055,12.61539 -5.57119,1.62158 -11.32052,2.55389 -16.22642,5.83484 -10.72521,4.10688 -21.68003,9.43731 -33.36418,9.22627 -2.19847,-0.17736 -5.23219,-2.01431 -1.625,-3.46875 5.53239,-4.40998 11.94289,-7.5388 17.84375,-11.46875 -3.97146,-3.37996 -8.74449,-6.28283 -14,-4.21875 -4.39272,0.71364 -10.99725,0.75831 -13.5625,-2.96875 7.30966,-7.20869 18.31577,-11.31288 23.875,-20.28125 2.18576,-3.68005 -0.65979,-8.43426 -4.8125,-8.53125 9.46367,-0.10335 17.13584,-5.86509 23.85236,-12.000549 2.53367,-2.044983 5.99361,-5.135315 7.89764,-6.718201 z M 115.125,92.96875 c 2.59829,6.022709 -0.34704,15.9021 7.65625,18.4375 -4.95806,1.78396 -3.34595,9.72148 -4.875,12.125 -0.64219,-4.32552 -2.5346,-10.12241 -7.96875,-10.125 -1.72519,-0.0252 6.13134,-0.73858 4.4375,-4.75 0.8438,-5.15334 0.42138,-10.615664 0.75,-15.6875 z M 137.5,99.5625 c 1.53321,3.0669 2.2132,8.46293 6.96875,8.03125 1.07658,0.42946 7.21775,0.0192 3.375,0.5 -3.95155,0.44899 -8.96337,1.39338 -9.15625,6.25 0.31628,1.74472 -1.50737,5.3548 -3.125,2.9375 -0.2916,-3.95262 -3.98151,-6.88647 -8,-6.5 4.99589,-0.83844 7.57864,-5.35806 8.46875,-9.84375 0.31121,-0.60613 1.05723,-1.064603 1.46875,-1.375 z M 23.4375,103.125 c -3.955778,5.18187 -11.817583,11.62046 -8.40625,18.9375 -0.04635,0.91941 -5.4145894,-1.67524 -3.125,-3.90625 3.238289,-5.93443 7.294797,-11.42574 12.34375,-15.875 l -0.693642,0.72032 -0.118858,0.12343 z"
     id="path3812"
     inkscape:connector-curvature="0" />
  <path
     style="fill:#000000"
     d="M 224.25,17.78125 C 201.64538,18.59504 179.30334,23.608484 157.56367,29.382373 127.77605,37.946961 98.412956,48.535748 70.67107,62.657805 49.165038,74.180121 27.184497,86.818303 11.40625,105.6875 6.8239874,111.21374 1.3967247,120.9574 7.9375,127.03125 c 8.969412,5.12707 20.138777,2.01673 29.994972,2.20138 15.595688,-0.4456 30.864752,-2.99162 46.087376,-6.00821 8.329647,-1.27067 16.576272,-2.40587 24.980152,-3.00567 0.9318,5.39147 4.95782,13.40394 11.625,11.28125 5.60675,-1.56691 4.95778,-9.27989 6.4375,-12.8125 3.75195,3.60663 9.00928,8.55476 14.53125,5.125 3.88498,-1.3352 2.85574,-6.22954 4.875,-8.65625 3.07907,-0.97606 6.41108,-1.09644 9.625,-1.28125 -6.55354,7.72338 -17.84909,10.65285 -23.125,19.53125 -3.08758,7.34576 5.66067,12.54138 11.9375,12.78125 3.70935,-0.0257 2.1358,0.94144 -0.125,2.78125 -4.51551,3.01742 -6.45067,10.87234 -0.6875,13.71875 11.15528,5.30923 23.7339,-0.84485 34.5625,-4.03125 20.01545,-7.34429 39.67345,-16.1625 60.91873,-18.82679 19.74498,-4.13258 39.95759,-7.33263 58.89377,-14.23571 6.46298,-3.8233 15.48937,-5.75253 19.09375,-12.9375 2.41209,-7.53705 -5.46341,-13.037323 -11.84375,-14.46875 -14.51076,-4.233033 -29.89414,-0.217654 -44.5,1.5625 -5.49842,0.4816 -12.24069,4.91948 -16.90625,0.03125 -11.77071,-4.520291 -25.0337,-2.061684 -37.40625,-3.1875 -2.62367,-2.196796 -5.12559,-5.181583 -8.71875,-5.6875 16.50299,-14.642975 33.68355,-28.813548 48.0625,-45.5 4.35085,-6.654643 7.58762,-17.029015 0.3125,-22.9375 -6.22284,-4.82794 -14.79492,-4.732272 -22.3125,-4.6875 z M 239,26.3125 c 6.35236,1.737422 4.82132,9.497003 1.75,13.53125 -1.38789,2.41433 -3.15229,4.596735 -5.125,6.5625 4.9911,-5.067012 9.71731,-14.481526 3.375,-20.09375 z m -11.3125,3.5625 c 4.09558,-0.723164 10.15768,3.132356 6.03125,6.96875 -15.74584,20.617765 -37.03747,36.11073 -56.0625,53.40625 -7.1658,7.335325 -16.7912,10.86392 -26.875,11.0625 -2.90592,0.73257 -6.00248,0.59377 -6.4375,-2.96875 -1.90411,-6.362231 -10.85665,-6.963865 -14.09375,-1.40625 -2.37665,2.041112 -0.17654,7.63071 -4.84375,6.375 -2.50171,-1.23015 -0.96783,-6.45599 -2.09375,-9.34375 -0.0147,-6.614683 -7.18263,-12.25281 -13.1875,-8.15625 -5.75287,4.91734 -0.87351,13.416597 -1.84375,19.65625 -22.26219,7.29105 -46.123982,6.60973 -68.96875,11.46875 -5.597097,0.8792 -12.340154,1.94236 -17.4375,0.6875 C 30.724675,100.56362 48.90914,91.305568 64.294993,81.048004 79.12349,72.075286 95.419237,65.62418 111.28125,58.71875 146.58659,44.314042 184.00568,36.012645 221.5625,30.28125 c 2.0333,-0.23817 4.07949,-0.344901 6.125,-0.40625 z m -37.125,58.6875 c -3.42347,3.382218 -0.30323,9.374014 4.4375,8.46875 4.46556,0.187245 5.65645,7.3595 10.80929,5.63874 11.5658,1.32595 24.19542,-0.66062 34.97196,3.95501 10.08739,5.32649 21.31312,-1.39441 31.75,-2 11.40454,-0.89568 23.96032,-2.20789 34.75,2 2.05986,1.10442 5.96898,2.7225 2,4.4375 -16.30693,11.7071 -36.85658,14.65873 -56.05601,19.10547 -17.96671,3.64597 -36.33654,5.95714 -53.25649,13.14453 -5.04578,1.59399 -10.26059,1.98408 -14.65625,5.21875 -10.99095,4.29815 -22.34991,9.802 -34.5,9.625 -2.19404,-0.33404 -4.53455,-2.13093 -1.40625,-3.375 5.67334,-4.30955 11.9019,-7.8065 18,-11.46875 -3.92883,-3.26241 -8.61833,-6.4589 -13.90625,-4.3125 -4.46357,0.96251 -10.92058,0.48956 -13.53125,-3.03125 7.28834,-7.47313 18.66691,-11.28381 23.90625,-20.6875 1.79,-3.61787 -1.10297,-7.95913 -5.03125,-8.0625 9.23755,-0.0976 16.76167,-5.61469 23.375,-11.53125 2.68643,-2.145346 6.31612,-5.52078 8.34375,-7.125 z m -75.34375,4.84375 c 1.953,6.067068 0.5794,15.44325 7.1875,18.1875 -4.51603,2.07045 -3.03659,9.3698 -4.4375,12 -0.81713,-4.13498 -2.2788,-9.83576 -7.5625,-10.15625 -3.39258,-0.0139 3.20221,-0.81412 3.34375,-2.90625 2.23546,-5.24313 0.41483,-12.306856 1.46875,-17.125 z m 22.3125,6.15625 c 1.49243,3.19289 2.24406,8.46035 6.9375,8.03125 1.07658,0.42946 7.21775,0.0192 3.375,0.5 -3.95155,0.44899 -8.96337,1.39338 -9.15625,6.25 0.70318,2.32259 -2.51059,5.60857 -3.34375,2.28125 0.18989,-4.08557 -5.51803,-6.05429 -7.375,-5.96875 4.54179,-0.87564 7.11395,-4.82602 7.8125,-9.03125 0.51392,-0.75254 0.93994,-1.60153 1.75,-2.0625 z M 24.25,102.25 c -3.889566,4.99983 -10.332894,10.06402 -10.125,16.96875 0.160702,1.83635 2.232426,4.41933 -0.78125,2.46875 -4.6821888,-2.1141 0.983032,-6.45003 2.125,-9.125 2.636122,-3.93287 5.573753,-7.7149 9.21875,-10.78125 L 24.25,102.25 z"
     id="path3814"
     inkscape:connector-curvature="0" />
  <path
     style="fill:#000000"
     d="m 234.1875,22.28125 c -4.35163,0.347164 -1.27833,4.598471 1.40625,5.21875 5.51767,2.999516 2.89066,10.714403 -0.21875,14.46875 -18.46551,21.317592 -40.54857,39.050867 -62.15625,57.21875 -8.48485,5.81795 -19.52957,5.40367 -29.4375,5.21875 -2.98765,-1.71205 -3.77983,-10.671434 -8.65625,-6.5625 -3.08393,3.26727 -2.97621,9.51457 -8.59375,10 -3.82146,1.99058 -6.36958,-1.76263 -6.375,-5.28125 -1.18447,-4.709833 -1.11041,-10.283956 -4.5625,-13.96875 -5.26818,-0.0067 -2.73347,7.460142 -3.77724,10.808837 -1.19412,3.504413 1.83171,10.810703 -3.75401,10.972413 -20.139185,4.84575 -41.182001,5.57959 -61.301746,10.00307 -7.462998,3.44369 5.243341,3.82114 8.770496,3.02818 18.805554,-1.6968 37.399206,-6.23893 56.1875,-6.65625 3.52054,2.4866 2.03576,9.9566 7.34375,10.1875 4.68854,-2.28794 0.45331,-11.0848 5.71875,-12.65625 3.20224,-0.54045 7.5349,-0.49476 8.15625,3.5625 1.31917,4.71221 7.76081,3.00593 8.1875,-1.3125 0.16557,-3.91889 3.32005,-5.26285 6.8125,-5.28125 3.85409,-0.0408 9.15279,-1.8972 12.5625,-0.1875 2.7288,5.92675 -5.63845,8.47608 -8.6994,12.04653 -4.77284,4.30526 -11.08634,7.19872 -15.01935,12.26597 0.83995,6.48758 9.53682,7.06727 14.81142,6.67229 3.13268,0.43014 7.78256,-1.70117 10.06358,0.95271 -6.28852,4.48129 -12.87494,8.62799 -19.15625,13.1875 3.76973,4.02698 8.96663,6.05578 14.375,4.5625 8.49627,-1.4525 17.35804,-3.94449 24.84375,-8.03125 2.13903,-4.35608 -4.11262,-3.40364 -6.53125,-2.21875 -5.4716,1.5101 -11.54113,4.04366 -16.90625,3.84375 1.61231,-5.33237 8.78748,-6.14199 13.03125,-8.71875 7.82748,-3.39081 17.0709,-4.20809 22.875,-11.03125 14.88852,-7.87512 31.12648,-13.30932 46.96875,-18.9375 14.96556,-4.43757 30.25761,-9.95123 46.28125,-8.53125 5.24928,0.80652 11.73304,-1.53037 16.375,1.3125 2.69154,4.41101 -4.90346,6.08947 -7.5,7.71875 -15.85149,8.0366 -34.08553,4.8387 -50.55145,10.84988 -15.95931,4.67523 -32.12263,8.9963 -48.2923,12.52512 -4.05644,1.31458 -4.98175,6.11456 -7.28125,9.1875 14.35023,-2.86278 27.64269,-9.27708 42.11233,-11.30732 25.97017,-6.00427 53.85509,-8.54743 76.98142,-22.66143 3.29256,-1.44717 6.88706,-6.34919 2.5625,-8.8125 -11.89275,-7.410158 -26.75817,-4.52431 -40.03125,-4.1875 -10.9187,1.07454 -22.41716,6.66781 -32.90625,0.90625 -11.48039,-3.319918 -24.13596,-1.86976 -35.75,-3.375 -3.03997,-2.594109 -6.35567,-5.266846 -10.4375,-5.71875 -0.56473,-5.591613 6.68463,-8.064075 9.5,-11.96875 13.71433,-13.288269 29.60463,-24.98087 41,-40.3125 3.51083,-4.794762 5.2002,-13.87297 -1.65625,-16.59375 -2.25949,-1.173536 -4.74448,-2.580063 -7.375,-2.40625 z m -23.75,87.625 c 9.77985,-0.94805 3.23608,1.754 -2.40625,4.09375 -10.97105,4.36177 -21.85104,9.43698 -33.34375,12.03125 -1.99767,1.02346 -5.7291,-0.51355 -3.15625,-2.5625 6.90558,-6.50958 14.79921,-14.04851 25.0925,-13.11244 4.60093,-0.24248 9.20809,-0.3431 13.81375,-0.45006 z m -53.875,19.5 c 3.59869,-0.82202 4.9423,6.08919 0.75,5.625 -3.15856,0.45333 -7.71939,2.72775 -10.53125,1.1875 -0.16857,-4.3542 6.21251,-6.65828 9.78125,-6.8125 z"
     id="path3818"
     inkscape:connector-curvature="0" />
  <path
     style="fill:#000000"
     d="m 353.25,21.40625 c -4.01708,2.670143 0.59585,8.286051 0.54469,12.104603 2.3648,16.122651 -4.72966,31.793119 -10.86867,46.303967 -3.28139,5.295945 -4.41795,12.713627 -9.64477,16.40393 -3.41275,-0.617925 -3.67639,-6.164509 -5.875,-8.53125 C 317.4641,68.946257 307.22062,49.898481 293.03125,34.03125 290.92793,31.070989 285.76374,33.273803 288,36.75 c 22.70024,28.63361 37.3934,62.35944 51.46875,95.875 9.87394,23.75126 17.14278,48.28129 27.125,72.03125 7.12445,17.40821 11.48876,36.30417 21.40625,52.3125 2.34505,3.79001 9.32929,1.42288 6.25,-3.03125 -13.42289,-25.5796 -19.15603,-54.44487 -31.71875,-80.46875 -3.57804,-9.27625 -7.5727,-18.28425 -10.21877,-27.85801 -2.84681,-9.70036 -7.41359,-18.611 -10.53123,-28.14199 -0.98525,-2.81158 -5.6446,-7.92564 -0.5,-8.78125 5.6324,2.42375 11.87262,2.96197 17.6875,0.6875 3.40976,-0.69951 7.38895,-3.0601 10.34375,-3.125 1.39717,2.30381 1.76557,2.7871 -1.1068,4.52134 -4.36332,4.68594 -11.86483,7.86072 -13.36195,14.50991 1.58992,5.65166 9.46692,6.64361 14.4375,5.34375 13.20992,-3.98613 25.15939,-11.42838 37.71875,-17 4.61775,-3.66411 10.76819,-5.13797 14.9375,-9.15625 1.22146,-4.39324 -4.92967,-2.87251 -7.03801,-1.31081 -15.81905,5.64487 -29.47861,16.38603 -45.71199,20.84206 -1.77154,0.73931 -5.38004,-0.0283 -3.1875,-2.40625 15.59755,-14.35415 35.02414,-24.254772 50.59375,-38.3125 2.6687,-4.054884 -3.43719,-5.16508 -6.09375,-3.5 -20.29441,6.419462 -37.53776,21.53357 -58.90625,24.65625 -3.99514,0.45144 -8.90924,-2.20768 -6.84375,-6.875 3.88273,-13.321393 10.51159,-26.193523 13.94246,-39.864418 2.95216,-9.384523 2.37248,-19.732487 1.46379,-29.416832 -1.19752,-2.752819 -3.23661,-7.277287 -6.90625,-6.875 z"
     id="path3822"
     inkscape:connector-curvature="0" />
  <path
     style="fill:#000000"
     d="m 610.21875,68.40625 c -18.05292,5.050107 -33.87518,15.550969 -50.28125,24.3125 -3.20885,-2.074871 -0.0597,-2.895654 1.971,-4.808895 2.03191,-2.049211 7.65648,-5.456941 4.45749,-8.045029 -6.99385,-0.362089 -13.18323,4.951273 -19.63678,7.206843 -10.3051,4.644061 -20.5111,10.784741 -31.10421,14.334581 -3.26463,-4.039136 -7.47142,1.56251 -10.78125,2.15625 -2.15665,-1.28675 -4.1849,-3.679058 -7.03125,-1.9375 -3.74303,1.21676 -7.31217,4.13706 -11.09375,4.625 -3.11242,-3.00159 3.06748,-5.97892 4.15625,-8.4375 3.03205,-4.392587 9.46067,-7.726877 9.78125,-13.4375 -2.51542,-4.195176 -8.21282,0.07804 -11.03125,2.15625 -1.54072,1.307971 -5.05968,4.843313 -4.75,0.84375 2.67913,-5.713758 10.08837,-9.005467 12.75,-15.0625 -0.76478,-5.182088 -7.77381,-2.722093 -10.96875,-1.40625 -13.5389,4.963135 -24.76955,15.580379 -38.71875,19.3125 -1.55058,-0.534635 -1.49383,-4.505102 -4.375,-3.28125 -3.64211,2.301661 -8.96242,4.401202 -10.40625,8.71875 1.73833,5.90833 10.09387,5.64881 14.59375,3.21875 8.08186,-2.769108 14.75926,-8.424917 22.65625,-11.46875 3.57646,1.216084 -2.06322,3.473346 -3.09375,5.0625 -6.79595,4.864404 -13.3332,9.79257 -19.15625,15.84375 3.05266,3.06763 5.70789,7.70001 10.5,4.34375 5.19044,-1.34733 10.96165,-3.8422 15.5625,0.3125 7.50573,4.9219 15.51005,-1.05273 22.53125,-3.84375 3.91367,-2.12077 4.91972,3.92586 8.625,4.0625 3.61527,1.05569 8.13839,1.01287 9.6875,5.125 5.23616,5.18183 12.8075,-0.71383 18.21875,-2.625 17.89662,-8.91642 34.04723,-21.158122 52.1875,-29.625 2.81732,2.722817 1.82546,2.659478 -1.9375,5.09375 -12.28436,9.2253 -26.92531,16.19671 -36.34375,28.53125 -0.52538,4.75186 6.47149,4.90262 9.84375,4.625 11.03176,-1.8677 19.70962,-10.07965 29.20543,-15.52587 9.27836,-7.03922 20.35869,-12.120338 28.48207,-20.47413 2.78754,-3.274991 -1.94108,-5.838459 -4.625,-3.65625 -10.32696,6.716195 -19.94378,14.469356 -30.44821,21.00523 -3.82719,1.90717 -7.37503,6.42248 -11.70804,6.52602 -3.6307,-2.04274 2.44964,-3.57271 3.67026,-5.16669 14.4695,-10.5045 30.34984,-19.578791 43.07974,-32.11456 2.56661,-3.027376 -1.14336,-6.92806 -4.46875,-6.5 z"
     id="path3824"
     inkscape:connector-curvature="0" />
  <path
     style="fill:#000000"
     d="M 950.5,29.375 C 897.45372,35.083035 845.14812,49.882975 797.8125,74.5 c -14.7903,7.291358 -28.16613,17.202589 -42.40625,25.375 -2.63686,0.78711 -5.221,-1.266353 -7.1875,1.59375 -3.14884,3.63266 -8.54089,6.73121 -9.03125,11.84375 3.88627,4.70424 9.61945,-1.62292 13.31573,-3.42218 18.01872,-12.933722 36.53238,-25.226486 56.73679,-34.458834 37.04458,-18.811189 77.91426,-28.600387 118.54781,-36.338398 8.89136,-1.803621 18.75583,-0.975187 27.11842,-4.811838 2.94666,-3.044151 -1.4401,-5.740371 -4.40625,-4.90625 z"
     id="path3826"
     inkscape:connector-curvature="0" />
  <path
     style="fill:#000000"
     d="m 726.75,77.03125 c -11.08817,2.876108 -20.94945,9.389454 -31.59375,13 -2.44269,-2.165942 -3.95208,-7.487224 -8.4375,-6 -17.88764,4.661152 -34.09006,14.106852 -50.6875,22 -0.93242,-1.82713 -1.7901,-2.3804 0.90625,-3.375 5.4278,-4.396449 13.58633,-6.387476 17.4375,-12.5 -0.55937,-5.122568 -6.955,-1.158907 -9.68955,-0.403339 -10.85183,4.014408 -21.14925,9.396608 -32.74795,10.840839 -3.81968,0.27597 -3.51416,5.21252 -0.0625,5.96875 3.84062,0.60579 2.33145,5.11242 -0.40625,6.3125 -3.6686,2.21673 -4.81098,8.931 0.40625,9.84375 8.7488,1.68399 16.07035,-5.64983 23.65054,-8.8068 8.31785,-5.07508 17.08887,-9.40999 25.91196,-13.41195 2.87698,3.11264 -1.09669,4.20617 -3.91971,6.42817 -8.54574,6.12969 -18.23027,11.09549 -24.45529,19.85308 4.24033,2.9204 9.00939,2.64389 13.46875,0.53125 5.7721,-1.62325 10.85769,-6.5383 16.46875,-7.5 2.38977,3.4203 6.47982,6.7683 10.8125,4.34375 11.5399,-4.40771 21.3251,-12.95942 32.71875,-17.375 3.97254,0.16293 3.75198,6.53147 8.34375,5.4375 11.66569,-2.62927 21.28606,-11.25601 32.375,-15.5625 4.47318,-4.336957 10.26626,-7.854161 13.53125,-13.1875 -2.13252,-4.950641 -7.83669,0.78605 -11.53125,-1.875 -5.16118,-3.932136 -11.44303,2.230969 -16.4375,-1.125 -1.72022,-1.457641 -3.50391,-3.844203 -6.0625,-3.4375 z"
     id="path3828"
     inkscape:connector-curvature="0" />
  <path
     style="fill:#000000"
     d="m 642.40625,7.3125 c -9.20196,6.488928 -15.90983,16.888174 -26.46875,21.1875 -4.343,0.451626 -8.28613,-2.950509 -8.46875,-7.3125 -0.26525,-3.751287 -6.15659,-7.995608 -8.03125,-3.0625 -0.50949,6.217416 4.17656,12.031106 8.5625,16.03125 7.39816,4.300094 15.09022,-2.770958 20.84375,-6.6875 6.04023,-5.435575 13.61889,-10.408384 16.875,-18.0625 0.29394,-1.7855589 -1.92767,-3.3379108 -3.3125,-2.09375 z"
     id="path3830"
     inkscape:connector-curvature="0" />
  <path
     style="fill:#000000"
     d="m 829.09375,78.875 c -0.89146,4.192162 5.86371,4.801005 8.34375,6.96875 16.17841,8.724802 31.87551,18.31805 47.33628,28.09113 26.07211,15.33556 53.35569,29.3231 80.85122,41.87762 4.61756,1.00898 3.47244,-5.30941 0,-5.875 C 931.54829,133.44652 898.20512,115.39753 865.82468,95.745449 854.391,89.412749 843.38745,81.87706 830.875,77.78125 c -1.12127,-0.294877 -1.49805,0.05169 -1.78125,1.09375 z"
     id="path3832"
     inkscape:connector-curvature="0" />
</svg>
