<?xml version="1.0" encoding="UTF-8" standalone="no"?>
<!-- Created with Inkscape (http://www.inkscape.org/) -->

<svg
   xmlns:dc="http://purl.org/dc/elements/1.1/"
   xmlns:cc="http://creativecommons.org/ns#"
   xmlns:rdf="http://www.w3.org/1999/02/22-rdf-syntax-ns#"
   xmlns:svg="http://www.w3.org/2000/svg"
   xmlns="http://www.w3.org/2000/svg"
   xmlns:sodipodi="http://sodipodi.sourceforge.net/DTD/sodipodi-0.dtd"
   xmlns:inkscape="http://www.inkscape.org/namespaces/inkscape"
   id="svg2"
   version="1.1"
   inkscape:version="0.91 r13725"
   width="840.65936"
   height="791.2088"
   viewBox="0 0 840.65936 791.2088"
   sodipodi:docname="test.svg">
  <metadata
     id="metadata8">
    <rdf:RDF>
      <cc:Work
         rdf:about="">
        <dc:format>image/svg+xml</dc:format>
        <dc:type
           rdf:resource="http://purl.org/dc/dcmitype/StillImage" />
        <dc:title></dc:title>
      </cc:Work>
    </rdf:RDF>
  </metadata>
  <defs
     id="defs6" />
  <sodipodi:namedview
     pagecolor="#ffffff"
     bordercolor="#666666"
     borderopacity="1"
     objecttolerance="10"
     gridtolerance="10"
     guidetolerance="10"
     inkscape:pageopacity="0"
     inkscape:pageshadow="2"
     inkscape:window-width="1920"
     inkscape:window-height="1004"
     id="namedview4"
     showgrid="false"
     inkscape:zoom="0.59655555"
     inkscape:cx="-217.94505"
     inkscape:cy="392.25182"
     inkscape:window-x="-4"
     inkscape:window-y="-4"
     inkscape:window-maximized="1"
     inkscape:current-layer="svg2" />
  <path
     style="fill:#000000"
     d="m 197.76062,764.63271 c -14.96044,-2.58964 -23.31773,-6.4866 -33.06468,-15.4179 -11.01474,-10.09302 -21.07592,-27.64708 -23.35843,-40.75423 -0.75014,-4.30765 -1.01071,-13.66358 -0.72873,-26.16612 0.4055,-17.97924 0.64476,-20.06342 3.14224,-27.37309 3.56191,-10.42505 10.5748,-23.47361 22.05891,-41.04395 10.73772,-16.42841 14.91302,-24.75954 21.80905,-43.51649 5.97823,-16.26055 17.8195,-51.20299 18.24175,-53.82959 0.24042,-1.49556 -0.84419,-2.35051 -5.03174,-3.96628 -6.83491,-2.63726 -8.39941,-4.90213 -5.20002,-7.52791 1.27539,-1.04673 4.16825,-2.37259 6.42857,-2.94634 6.64318,-1.6863 8.32091,-2.94424 10.36152,-7.7689 2.58173,-6.1041 10.06684,-31.93463 10.06684,-34.73993 0,-3.69678 -2.39218,-3.02219 -30.16484,8.50635 -4.8956,2.03218 -11.01511,3.90128 -13.5989,4.15352 -4.249,0.41483 -4.6978,0.26165 -4.6978,-1.60351 0,-2.75124 5.03902,-5.60134 22.25274,-12.58629 17.44438,-7.07855 24.49866,-10.62611 27.44214,-13.80053 1.94394,-2.09646 3.69519,-2.66138 10.72722,-3.46041 4.6222,-0.52521 13.50192,-2.57199 19.73271,-4.5484 25.87103,-8.2063 46.2735,-8.45814 61.53996,-0.75963 11.39834,5.74792 18.52501,13.67356 18.52501,20.60185 0,15.85696 -28.70732,31.8431 -79.3212,44.17131 -9.6294,2.34548 -17.41298,4.35952 -17.29683,4.47567 0.11614,0.11615 8.43981,1.57771 18.49702,3.24792 10.05721,1.67021 22.43142,4.14933 27.49824,5.50915 43.66008,11.71748 62.52394,37.10547 62.46576,84.06976 -0.0591,47.75324 -18.34722,87.29688 -59.24856,128.11107 -28.02019,27.96049 -47.61685,38.19349 -74.73729,39.02639 -6.52747,0.20048 -12.98077,0.1719 -14.34066,-0.0635 z m 30.16484,-9.83138 c 18.90834,-4.89763 33.22974,-14.23962 54.4403,-35.51197 14.04061,-14.0815 23.41197,-25.999 33.11745,-42.11524 17.08133,-28.36404 23.97418,-52.2485 23.97528,-83.07692 6.3e-4,-17.35048 -1.65907,-25.70962 -7.56014,-38.07693 -13.89307,-29.11679 -37.65977,-40.13656 -95.31394,-44.19366 -20.12838,-1.41642 -20.60551,-1.24997 -24.62228,8.58927 -6.73502,16.49769 -20.75288,60.53654 -19.62743,61.66199 0.73933,0.73933 5.26442,-1.98796 15.81054,-9.52908 14.22454,-10.17142 30.8687,-17.79851 47.29604,-21.67311 11.36733,-2.68114 40.23143,-2.21475 40.23143,0.65007 0,0.47048 -3.89423,1.10902 -8.65385,1.41899 -37.33073,2.43107 -66.26371,15.05702 -90.77891,39.61461 -12.12916,12.15014 -14.62922,16.68305 -23.75811,43.07631 -8.60106,24.86715 -12.48391,34.12088 -14.31704,34.12088 -2.42044,0 -1.38613,-6.21715 3.5439,-21.30182 2.51191,-7.68582 4.28643,-14.25488 3.94339,-14.59792 -2.30175,-2.30175 -9.06687,9.55647 -12.29944,21.55908 -4.34488,16.13261 -5.6753,46.73961 -2.49342,57.36264 5.21247,17.40243 17.81376,32.75756 32.56073,39.67649 13.92516,6.53333 25.90276,7.16479 44.5055,2.34632 z m 22.52328,-261.61284 c 22.93073,-4.5585 39.36743,-9.7559 52.94149,-16.74047 16.70449,-8.59536 24.48892,-17.57841 21.93606,-25.31369 -1.64816,-4.99394 -7.77927,-9.89847 -15.49767,-12.3972 -9.60132,-3.10831 -28.57037,-3.06531 -41.84822,0.0948 -19.13551,4.55436 -32.35441,11.134 -35.7465,17.7927 -1.54316,3.02923 -12.71504,39.11564 -12.71504,41.07099 0,1.14747 9.30878,-0.20902 30.92988,-4.50717 z M 60.171723,639.33532 c -2.34601,-1.78937 -5.35019,-5.40854 -6.75271,-8.1351 -2.19622,-4.26955 -2.5121,-6.07854 -2.41616,-13.83702 0.21487,-17.37707 8.39404,-51.20609 34.79822,-143.92535 9.20399,-32.32014 12.67091,-46.2117 11.76034,-47.12228 -0.29234,-0.29234 -4.46393,3.4035 -9.27022,8.21297 -13.92202,13.93124 -35.6403,28.03019 -43.1782,28.03019 -4.7926,0 -14.04506,-2.65114 -21.2453,-6.0875 -7.19046,-3.43169 -15.0081698,-10.59184 -15.0081698,-13.7458 0,-1.77043 0.85368,-1.32017 5.6868098,2.99946 3.12775,2.79543 9.00227,6.72525 13.0545,8.73294 6.3033,3.12299 8.30362,3.64217 13.84616,3.59369 14.46982,-0.12654 30.41354,-11.95209 51.56166,-38.24362 9.575397,-11.90421 14.530087,-21.90113 25.623487,-51.69972 13.12791,-35.26357 26.75398,-58.69385 34.20334,-58.81325 3.25537,-0.0522 5.8823,-3.69706 11.07206,-15.36257 14.59259,-32.80112 34.05028,-90.39839 42.76618,-126.59341 8.33767,-34.62429 18.87213,-87.017003 22.27207,-110.76923 2.67915,-18.716735 4.61232,-23.241758 9.92927,-23.241758 2.01136,0 1.7722,4.916039 -2.11694,43.516484 -9.21953,91.505444 -17.08125,154.803754 -24.15587,194.489644 -1.86783,10.47786 -21.67511,108.51579 -24.24763,120.01585 -2.37055,10.59723 1.15221,8.7642 10.26327,-5.34036 13.44857,-20.81933 26.91142,-48.17056 43.1317,-87.62667 13.69579,-33.31522 16.97404,-39.56044 20.7661,-39.56044 5.27574,0 4.8645,6.75188 -3.88532,63.79121 -1.91918,12.51099 -3.47488,24.52747 -3.4571,26.70329 l 0.0323,3.95605 3.17313,-3.60318 c 4.73191,-5.37323 15.42942,-25.653 29.09526,-55.15724 23.55164,-50.84748 29.72326,-61.88811 36.36548,-65.05557 4.32765,-2.06371 9.40873,-0.82205 11.03899,2.69761 0.62085,1.34038 1.64838,11.56068 2.28339,22.71178 0.63502,11.1511 1.47434,21.80253 1.86518,23.66985 l 0.7106,3.39511 3.57872,-7.84566 c 1.96829,-4.31512 6.52345,-15.85666 10.12258,-25.64787 21.579,-58.7043 29.00464,-74.67033 34.72843,-74.67033 4.47463,0 5.92601,4.69264 5.8119,18.79121 -0.14659,18.11347 -4.72051,40.98739 -13.89044,69.46534 -8.84522,27.46954 -18.07409,43.99785 -27.2516,48.80586 -3.47132,1.81859 -9.52288,1.78209 -13.98998,-0.0844 -4.91939,-2.05546 -5.05782,-2.00339 -7.17267,2.69764 -2.35344,5.23139 -7.98399,12.79682 -11.69864,15.71878 l -2.82533,2.2224 -1.83784,-2.26964 c -3.20402,-3.9568 -2.19451,-19.76486 3.50995,-54.96259 3.01665,-18.61335 4.86316,-33.14069 4.28578,-33.71808 -1.17448,-1.17448 -15.1847,24.96179 -44.05197,82.17962 -16.71153,33.12393 -25.98674,47.03653 -30.26395,45.39521 -1.94686,-0.74708 -2.77646,-6.26704 -2.03102,-13.51389 0.34889,-3.39187 2.33823,-17.29341 4.42073,-30.89231 4.77926,-31.20898 5.33367,-36.0989 4.09282,-36.0989 -1.70862,0 -4.74807,5.92283 -15.5083,30.22034 -12.25308,27.66846 -28.44605,59.7018 -36.21823,71.64779 -3.00818,4.62363 -8.42011,11.8642 -12.02653,16.09016 -9.3892,11.00216 -11.11691,14.46104 -17.02838,34.09089 -19.34165,64.22656 -50.26006,135.44451 -76.110237,175.31344 -16.62098,25.63467 -27.52703,32.61837 -38.21171,24.46889 z m 13.02713,-6.50652 c 5.54976,-3.54279 11.09378,-9.58154 17.438,-18.99413 24.149817,-35.82982 57.430857,-110.64238 77.043087,-173.18542 6.17157,-19.68104 6.36999,-22.01288 2.57624,-30.27578 -4.46556,-9.72611 -5.26117,-16.07453 -7.56935,-60.39791 -0.74597,-14.3246 -1.66004,-26.34108 -2.03126,-26.7033 -1.5486,-1.51102 -7.66103,7.88854 -18.32298,28.17668 -6.23161,11.85784 -14.64169,27.35547 -18.68905,34.43915 -11.40002,19.95232 -13.93701,27.31676 -33.567257,97.43987 -22.11437,78.99689 -29.31168,107.32602 -32.17446,126.64101 -1.66897,11.26045 -1.31566,14.23729 2.40418,20.25611 3.80912,6.16329 6.47382,6.70143 12.89285,2.60372 z M 177.75167,401.98181 c 1.84472,-2.27491 3.94848,-9.95952 9.95023,-36.34615 17.87943,-78.60674 25.68873,-125.66771 34.21855,-206.21025 1.38266,-13.05575 2.8036,-25.85108 3.15763,-28.43407 1.02856,-7.50409 -1.20507,-5.68417 -4.04074,3.29234 -1.388,4.39377 -4.32781,15.18635 -6.53292,23.98352 -10.69201,42.65511 -20.90984,73.96817 -39.75101,121.819 -5.99709,15.23077 -11.11536,29.5412 -11.37394,31.80094 -0.27951,2.44266 0.16806,5.85138 1.1038,8.40659 2.49278,6.80709 3.43827,14.27154 5.61461,44.32675 2.6016,35.92768 3.85499,42.04603 7.65379,37.36133 z m -41.53029,-50.45372 c 2.15204,-3.40751 5.3675,-9.08196 7.14547,-12.60989 1.77797,-3.52792 4.73019,-8.75959 6.56047,-11.62593 5.86557,-9.18578 3.22072,-12.94041 -3.12152,-4.43134 -4.51816,6.0618 -16.29793,29.61055 -16.29793,32.58095 0,3.72481 1.56738,2.65115 5.71351,-3.91379 z m 189.06035,-40.36036 c 4.02261,-5.55304 5.37531,-12.69099 4.01671,-21.19544 -1.2354,-7.73333 -2.66931,-11.07327 -4.12781,-9.61477 -1.0156,1.0156 -5.72743,27.33877 -5.74924,32.11879 -0.0181,3.97467 2.42902,3.42823 5.86034,-1.30858 z m 31.53326,-15.29168 c 13.26199,-15.0664 30.50599,-69.52366 32.48076,-102.57556 0.65394,-10.9451 0.19379,-12.32497 -2.95118,-8.84982 -3.41768,3.7765 -15.92688,32.87395 -28.35888,65.9652 -3.67845,9.79121 -8.7449,22.79097 -11.25878,28.88836 -5.63924,13.67794 -5.71441,15.26315 -0.87956,18.54852 2.03012,1.3795 4.44009,2.50818 5.35551,2.50818 0.91541,0 3.44087,-2.0182 5.61213,-4.48488 z m 29.84673,294.14797 c -7.4247,-2.94509 -14.83305,-15.25419 -14.83438,-24.6476 -0.002,-15.74759 13.13393,-42.55335 24.20693,-49.39685 3.77383,-2.33235 5.41437,-2.47428 7.86732,-0.68064 2.54167,1.85851 1.40434,4.57194 -4.74559,11.32202 -10.73582,11.7835 -14.25985,17.55416 -16.86905,27.62338 -2.81899,10.8788 -1.53401,23.09487 2.95051,28.05021 6.17153,6.81946 23.28742,-4.63419 39.26328,-26.27427 11.13738,-15.08613 15.23044,-22.77096 17.40764,-32.6833 2.21283,-10.07449 8.27165,-27.47884 12.93922,-37.16874 5.38825,-11.18602 10.89665,-14.48096 13.74776,-8.22346 1.85535,4.07203 0.29256,9.24357 -11.12814,36.82514 -5.74083,13.86437 -7.08233,20.44207 -5.50775,27.00567 2.25313,9.39207 12.06246,18.69817 19.70358,18.69275 6.16107,-0.004 21.97623,-4.84281 32.38957,-9.90915 17.1359,-8.33703 39.42597,-26.90207 43.22947,-36.00512 0.85976,-2.05772 3.58946,-14.4872 6.066,-27.62106 8.81065,-46.72588 19.63613,-85.73757 33.79639,-121.79185 13.82841,-35.20932 29.78004,-60.98257 39.20798,-63.34882 7.16509,-1.79833 11.44986,2.06364 13.55841,12.22049 1.48547,7.15548 0.73371,15.18165 -3.14804,33.60995 -5.40067,25.63922 -14.51041,54.59891 -25.96113,82.53002 -4.85435,11.84096 -6.54421,17.57078 -5.18204,17.57078 0.21257,0 2.32658,-0.88034 4.6978,-1.9563 5.42229,-2.46043 7.93504,-2.49181 10.84501,-0.13547 3.2623,2.64166 2.82322,7.36718 -2.02812,21.82725 -4.0981,12.21491 -4.66315,14.8799 -3.15495,14.8799 1.65452,0 17.53813,-14.90505 26.59158,-24.95333 9.93612,-11.02794 14.75163,-19.39033 17.505,-30.39839 0.87984,-3.51761 2.95069,-8.50099 4.60189,-11.07416 3.32845,-5.18695 10.06082,-11.70599 12.08904,-11.70599 1.98768,0 5.60911,4.30749 5.60911,6.67175 0,1.15155 -2.91757,8.03206 -6.48348,15.29004 -7.71161,15.69604 -8.44402,20.8014 -3.95691,27.58188 4.42034,6.67959 7.5156,7.99052 17.9258,7.59204 8.09043,-0.30967 9.78571,-0.73624 17.3077,-4.35497 4.58631,-2.20642 11.93547,-6.72787 16.33147,-10.04768 10.99164,-8.30077 26.53822,-23.19674 28.47948,-27.28764 0.98565,-2.0771 1.60473,-5.94591 1.60473,-10.02839 0,-23.79653 9.50322,-52.83497 21.56214,-65.8862 6.2615,-6.77675 10.46572,-8.5646 16.14133,-6.86415 8.03567,2.40754 8.74037,11.29114 2.35034,29.6288 -4.54547,13.04426 -10.52392,25.5241 -18.5361,38.69354 -9.51927,15.6466 -10.24033,18.90564 -6.6147,29.89681 6.50182,19.71036 22.05578,26.88959 39.99145,18.45883 6.3533,-2.98641 12.78119,-9.03985 18.95555,-17.85132 2.97936,-4.25186 5.85881,-8.0037 6.39876,-8.3374 1.75872,-1.08696 2.11742,0.43189 1.0734,4.54503 -2.51021,9.88942 -14.48963,24.07848 -24.69425,29.24914 -4.6208,2.34134 -7.23673,2.951 -13.88067,3.23493 -7.23203,0.30907 -8.80315,0.0484 -13.47147,-2.23567 -10.14575,-4.96385 -19.87277,-15.62634 -23.20883,-25.44088 -0.97135,-2.85766 -2.17962,-5.33359 -2.68507,-5.50207 -0.50543,-0.16847 -5.56421,3.76566 -11.24173,8.74254 -10.44968,9.16013 -22.02819,17.26386 -31.3968,21.97444 -7.84469,3.94436 -19.44334,7.55133 -24.28219,7.55133 -9.93502,0 -20.67945,-5.44866 -26.37001,-13.37259 l -3.26008,-4.5396 -14.51346,14.23519 c -15.08145,14.79229 -24.51731,22.47088 -31.27366,25.44949 -5.41187,2.38588 -9.38162,6.57045 -17.37909,18.31951 -12.64889,18.58246 -25.49394,27.88218 -35.48172,25.6885 -1.60366,-0.35223 -4.55771,-1.94528 -6.56456,-3.54013 -2.00685,-1.59484 -4.39806,-2.89971 -5.31381,-2.89971 -0.91574,0 -5.41635,3.17054 -10.00137,7.04566 -14.99328,12.67186 -25.9589,19.77504 -38.50121,24.93988 -7.17652,2.95523 -7.91579,3.05564 -22.74725,3.08943 -8.43132,0.0192 -16.54541,-0.3053 -18.03131,-0.72113 -3.8187,-1.06865 -9.43154,-6.27155 -13.32128,-12.34834 -1.82797,-2.85577 -3.67169,-5.19231 -4.09717,-5.19231 -1.2311,0 -5.40082,4.87654 -10.57074,12.36264 -17.76176,25.71915 -33.75673,36.86532 -45.95753,32.02572 z m 184.27236,-64.05473 c 8.26682,-5.70522 21.28425,-21.46412 24.92208,-30.17067 1.26824,-3.03533 1.18391,-3.49348 -1.28067,-6.95736 -2.20462,-3.0985 -2.6429,-4.77768 -2.66615,-10.21476 -0.0354,-8.28481 -1.5786,-8.91821 -4.96155,-2.03648 -1.42065,2.88994 -6.83061,11.26267 -12.02214,18.60608 -17.64252,24.95529 -18.59742,26.84241 -15.76773,31.16105 2.21164,3.37539 6.5293,3.23319 11.77616,-0.38786 z m -0.57346,-37.94352 c 12.28045,-18.54048 20.78881,-34.04617 29.85432,-54.40671 14.32193,-32.16609 22.75622,-58.25343 28.21497,-87.26912 4.19996,-22.32475 5.05647,-30.2358 3.57356,-33.00666 -1.7227,-3.21888 -3.95432,-2.5518 -9.00986,2.69323 -14.93464,15.49442 -41.58614,79.24174 -54.84903,131.19255 -6.59383,25.82809 -11.21043,55.87912 -8.58444,55.87912 0.44577,0 5.30599,-6.78708 10.80048,-15.08241 z m 36.81454,-11.89221 c 1.53182,-3.38648 4.16424,-10.16274 5.84981,-15.05834 l 3.06469,-8.9011 -4.53254,4.94505 c -8.55503,9.33366 -9.60787,11.54186 -10.05631,21.09177 -0.3849,8.19684 -0.32958,8.47848 1.24319,6.32922 0.90532,-1.23714 2.89933,-5.0201 4.43116,-8.4066 z m 161.33931,-76.62428 c 4.7144,-7.33848 13.40145,-25.64976 16.30458,-34.36813 3.42221,-10.27722 4.34194,-19.96811 1.98108,-20.87406 -2.31588,-0.88869 -5.88635,2.6951 -10.64175,10.68146 -6.5455,10.99272 -10.09181,23.74254 -12.11928,43.57172 -0.71976,7.03942 0.42583,7.29258 4.47537,0.98901 z m -353.55303,31.52586 c -0.97023,-1.07209 -2.00746,-3.76402 -2.30497,-5.98206 -0.49286,-3.6746 -0.34486,-4.03281 1.66624,-4.03281 3.1367,0 9.16134,6.27525 8.75745,9.12173 -0.43773,3.0849 -5.61933,3.65493 -8.11872,0.89314 z M 388.7731,268.21807 c 19.27114,-26.82886 30.94884,-43.61374 41.97302,-60.32967 23.67276,-35.89492 39.45221,-63.72713 37.33208,-65.84726 -0.56031,-0.56031 -6.72423,-1.28832 -13.69761,-1.61781 l -12.67886,-0.59908 9.81516,-2.20527 c 20.4824,-4.60198 22.28822,-5.64399 27.04072,-15.60316 1.60243,-3.35799 7.19951,-18.75689 12.43796,-34.219773 13.06619,-38.568847 16.17275,-45.566986 20.22779,-45.566986 3.81072,0 4.55702,2.632886 2.7256,9.615606 -1.99884,7.621017 -13.81646,39.362453 -17.05963,45.821126 -2.24344,4.467777 -9.34848,24.044287 -9.34848,25.757887 0,2.01362 5.84059,0.52514 25.77257,-6.56815 24.71282,-8.79468 32.69175,-10.87935 35.62717,-9.30837 1.50965,0.80795 1.75533,1.40813 0.96581,2.35944 -1.25543,1.5127 -12.6995,6.03984 -37.40693,14.79776 -22.81142,8.08585 -25.81745,9.70743 -28.6162,15.43679 -5.17437,10.59252 -29.71822,112.33848 -27.60808,114.44864 0.28656,0.28654 1.18028,0.26801 1.98606,-0.0412 1.86394,-0.71527 16.56991,-18.49302 36.19282,-43.7528 8.4259,-10.84632 19.11845,-23.61482 23.76121,-28.37443 7.16465,-7.34498 8.92376,-8.65385 11.63073,-8.65385 2.75193,0 3.18934,0.34285 3.18934,2.4999 0,1.37494 -2.22305,7.366 -4.94011,13.31346 -6.76836,14.81548 -9.96643,23.05957 -14.72802,37.96648 -4.43719,13.89134 -5.1987,20.39604 -2.38776,20.39604 5.0529,0 29.19964,-33.30939 62.43061,-86.1203 6.62063,-10.52156 11.86998,-17.80902 13.48079,-18.71487 2.47291,-1.39065 2.75812,-1.33736 4.55611,0.85132 3.34602,4.0731 2.55802,11.64347 -5.47039,52.55527 -5.25485,26.7781 -6.92818,38.49657 -5.6759,39.74885 1.65483,1.65482 10.04722,-9.05489 25.72307,-32.82577 42.69038,-64.73574 51.29691,-77.14286 53.51225,-77.14286 1.74824,0 2.30516,6.00465 3.02705,32.63737 0.82855,30.56725 0.98121,31.35679 8.77509,45.38308 8.4674,15.23842 15.26068,20.57334 29.21117,22.94022 13.12645,2.22707 21.77569,-0.62081 37.83864,-12.45894 4.75509,-3.50441 8.85932,-6.15795 9.12052,-5.89674 2.06694,2.06694 -12.74117,15.37688 -23.46944,21.09498 -15.01052,8.00053 -33.3316,5.89798 -47.28952,-5.42702 -2.27864,-1.8488 -6.35295,-6.66566 -9.05403,-10.70411 -8.66988,-12.96253 -13.39708,-28.4635 -14.50138,-47.55144 -0.85084,-14.70672 -1.52486,-20.23718 -2.46641,-20.23718 -0.46565,0 -8.97374,13.01786 -18.90685,28.92858 -37.04639,59.34034 -49.2334,75.53593 -56.22151,74.71392 -5.71202,-0.67189 -5.24831,-7.91014 3.32538,-51.90745 6.21054,-31.87031 8.01326,-42.6676 7.25109,-43.42977 -0.67885,-0.67885 -5.67569,6.68849 -17.50924,25.8156 -11.08177,17.91199 -27.3593,42.07427 -36.85882,54.71306 -10.64589,14.16399 -17.09856,20.72756 -21.74632,22.12005 -3.8335,1.14855 -4.08612,1.08312 -6.45637,-1.67247 -2.22274,-2.58408 -2.41035,-3.45956 -1.89645,-8.84938 0.63869,-6.69869 4.00775,-20.23403 8.62138,-34.63688 4.81623,-15.03526 3.86358,-14.4901 -13.68052,7.82859 -26.71828,33.98963 -41.0873,48.98516 -46.95949,49.007 -3.78197,0.014 -4.05244,-3.91452 -1.26833,-18.42227 3.56955,-18.60056 11.70182,-54.3596 15.98262,-70.27844 1.92981,-7.17633 3.3632,-14.06755 3.18531,-15.3138 l -0.32345,-2.26593 -2.29341,2.45667 c -1.26136,1.35116 -3.92201,5.57205 -5.91253,9.37974 -12.07175,23.09216 -59.88618,88.52795 -70.39899,96.34359 l -3.44011,2.55751 3.55202,-4.94506 z M 567.84854,96.426864 c -1.79871,-1.798711 -1.4213,-4.539535 0.71862,-5.218717 1.74595,-0.554144 8.97369,1.719508 8.97369,2.822882 0,0.26088 -0.69937,1.1737 -1.55416,2.028487 -1.83923,1.839224 -6.4578,2.047701 -8.13815,0.367348 z"
     id="path3338"
     inkscape:connector-curvature="0" />
</svg>
