<?xml version="1.0" encoding="utf-8"?>
<!-- Generator: Adobe Illustrator 16.0.0, SVG Export Plug-In . SVG Version: 6.00 Build 0)  -->
<!DOCTYPE svg PUBLIC "-//W3C//DTD SVG 1.1//EN" "http://www.w3.org/Graphics/SVG/1.1/DTD/svg11.dtd">
<svg version="1.1" xmlns="http://www.w3.org/2000/svg" xmlns:xlink="http://www.w3.org/1999/xlink" x="0px" y="0px" width="686px"
	 height="222px" viewBox="0 0 686 222" enable-background="new 0 0 686 222" xml:space="preserve">
<g id="Layer_1">
</g>
<g id="Layer_2">
	<g>
		<g>
			<path d="M55.961,149.389c-9.863,13.831-7.573,35.947,2.786,48.768c12.383,15.324,35.497,19.402,53.112,11.277
				c17.188-7.928,24.214-27.992,26.716-45.374c2.031-14.108,1.276-28.506,1.32-42.714c0.046-14.942,0.249-29.896,1.28-44.807
				c0.819-11.853,2.167-23.89,5.933-35.212c3.102-9.326,10.501-15.67,19.403-19.4c8.709-3.649,18.732-4.702,27.854-2.086
				c5.568,1.598,14.004,6.469,12.718,13.366c-1.254,6.723-7.407,12.356-12.203,16.728c-7.835,7.14-16.883,12.949-26.007,18.283
				c-21.521,12.58-45.135,22.223-69.396,27.976c-4.834,1.146-9.438,4.818-13.827,7.063c-9.688,4.955-19.762,9.177-30.225,12.192
				c-11.98,3.454-30.055,6.841-37.752-6.195c-6.996-11.848,6.351-22.581,15.583-27.408c10.33-5.401,22.631-8.499,34.164-9.789
				c7.801-0.872,15.997-0.294,23.149,3.147c22.329,10.744,22.908,45.401,13.621,65.001c-1.277,2.696-3.466,6.567-6.102,7.473
				c-1.177,0.404-0.594,0.49-0.839-0.286c-0.611-1.933-0.246-4.31,0.046-6.263c2.293-15.326,9.775-30.535,17.538-43.754
				c3.841-6.54,8.201-12.931,13.736-18.162c1.81-1.711,3.911-3.348,6.259-4.242c0.527-0.201,1.084-0.349,1.635-0.467
				c0.641-0.138-0.727,0.058-0.183,0.027c-0.999,0.056-2.868-2.337-2.14-3.977c0.17-0.381-0.493,0.554-1.209,1.186
				c-1.089,0.961-2.253,1.835-3.419,2.7c-3.875,2.876-7.879,5.58-11.883,8.271c-23.819,16.014-48.26,31.092-72.348,46.692
				c-7.389,4.785-14.814,9.553-21.962,14.695c-2.219,1.596-11.001,7.649-4.231,10.03c3.66,1.287,5.219-4.511,1.595-5.785
				c2.036,0.716,2.276,3.162,1.778,3.94c-0.5,0.782-0.325,0.414-0.126,0.202c0.277-0.296,0.588-0.561,0.895-0.824
				c1.053-0.905,1.851-1.465,3.118-2.383c3.747-2.713,7.606-5.272,11.461-7.827c11.451-7.59,23.051-14.957,34.627-22.354
				c21.1-13.481,43.24-26.233,62.993-41.682c1.444-1.129,3.948-2.805,4.271-4.791c0.605-3.714-2.883-4.485-5.691-3.691
				c-12.555,3.549-21.114,19.398-26.901,29.883c-7.226,13.089-13.892,27.862-15.887,42.806c-0.491,3.674-0.63,9.035,2.964,11.308
				c3.301,2.087,7.219,0.214,9.835-2.061c7.289-6.335,9.741-18.488,10.874-27.535c1.567-12.517,0.401-25.675-5.276-37.08
				c-6.18-12.414-18.204-19.168-31.722-20.38c-10.458-0.938-21.288,1.593-31.265,4.425c-9.036,2.565-18.221,6.308-25.592,12.249
				c-8.889,7.166-14.375,18.316-8.812,29.245c5.77,11.334,19.275,13.611,30.681,12.32c19.198-2.174,37.92-10.957,54.567-20.407
				c1.876-1.065,2.907-1.565,4.994-2.061c6.223-1.476,12.357-3.313,18.429-5.318c11.748-3.878,23.201-8.682,34.333-14.067
				c15.651-7.572,85.287-45.213,46.223-65.995c-15.742-8.375-37.227-2.949-50.181,8.113c-7.136,6.094-10.16,14.696-12.25,23.567
				c-2.843,12.065-3.713,24.633-4.349,36.976c-1.266,24.565,0.818,49.439-1.467,73.915c-1.5,16.061-6.696,34.441-21.084,43.618
				c-14.553,9.281-36.158,5.687-47.631-6.747c-10.017-10.856-12.068-31.062-3.348-43.291
				C63.394,149.26,58.187,146.269,55.961,149.389L55.961,149.389z"/>
		</g>
		<g>
			<path d="M155.111,116.438c-0.882-3.124-3.98-4.701-7.044-4.722c-9.548-0.062-18.932,10.831-25.146,16.645
				c-4.162,3.893-8.239,7.94-11.755,12.435c-1.925,2.46-4.091,5.43-3.999,8.711c0.204,7.214,10.259,5.057,14.178,2.997
				c7.819-4.108,14.002-11.799,19.938-18.135c2.728-2.911,5.453-5.839,8.445-8.482c0.832-0.733,1.814-1.589,2.871-1.982
				c0.706-0.264-0.912-5.252-2.772-3.439c-4.755,4.633-23.114,16.678-14.163,24.655c5.737,5.113,15.113,2.504,21.052-0.625
				c8.075-4.256,14.509-11.454,20.714-17.978c2.018-2.121,4.044-4.57,6.532-6.156c1.669-1.064-2.239-3.633-2.378-3.455
				c-0.773,0.994-1.706,1.878-2.601,2.762c-4.753,4.694-9.899,8.975-14.511,13.815c-2.281,2.395-7.84,8.473-3.011,11.344
				c5.682,3.377,13.899-3.715,17.95-6.895c3.955-3.104,7.764-6.39,11.77-9.428c2.975-2.255,6.938-5.52,10.862-5.613
				c-2.479,0.06-0.546-2.987-1.698-0.786c-0.597,1.139-1.386,2.185-2.149,3.214c-2.17,2.926-4.681,5.622-7.083,8.356
				c-2.415,2.748-9.314,8.59-8.1,12.927c1.854,6.625,8.646-0.254,10.598-2.666c5.081-6.282,9.373-13.254,15.26-18.85
				c0.979-0.93,2.121-1.901,3.397-2.396c1.48-0.573,1.12-0.452,0.765,0.76c-1.114,3.788-3.026,7.025-2.849,11.114
				c0.296,6.793,6.866,10.59,12.39,6.617c6.238-4.487,10.152-12.124,14.945-17.979c1.47-1.796,3.948-5.283,6.509-5.535
				c2.045-0.201-2.694-2.179-1.494-3.674c-0.298,0.37-0.661,0.695-1.002,1.023c-1.188,1.142-2.495,2.169-3.767,3.216
				c-5.738,4.725-12.219,9.578-15.795,16.263c-2.188,4.092-2.18,11.448,4.057,11.323c5.654-0.114,11.243-6.104,14.879-9.785
				c4.17-4.223,9.203-9.713,10.592-15.675c1.199-5.142-3.955-8.703-8.134-5.322c-4.491,3.634-4.642,13.081-4.608,18.21
				c0.033,4.997,1.081,13.595,7.331,14.548c4.611,0.703,10.005-1.406,14.307-2.779c7.853-2.507,15.486-5.788,22.854-9.475
				c14.889-7.449,32.128-18.365,38.567-34.545c2.246-5.642,3.75-13.207,0.394-18.736c-2.813-4.636-8.528-5.018-13.304-3.96
				c-16.635,3.688-29.906,21.476-37.249,35.588c-4.554,8.752-15.708,33.523,0.298,37.889c11.808,3.221,26.366-7.234,34.969-13.995
				c4.733-3.721,9.439-8.142,12.377-13.465c1.6-2.898,3.714-10.062-1.535-10.784c-4.66-0.642-9.131,3.968-12.086,6.975
				c-3.742,3.808-7.835,8.913-8.609,14.365c-2.401,16.896,29.965,7.771,37.624,6.133c3.78-0.809,7.575-1.674,11.42-2.116
				c1.344-0.154,2.818-0.3,4.164-0.093c1.063,0.163,0.681-0.218,0.608,0.608c0.495-0.863,0.99-1.727,1.486-2.591
				c0.806-0.354,0.248,0.115-0.466-0.54c-2.986-2.742-2.585-9.762-2.512-13.31c0.107-5.16,3.671-10.495,6.343-14.66
				c10.344-16.127,25.637-29.499,41.268-40.302c19.729-13.637,42.542-23.519,66.497-26.215c16.116-1.814,43.781-2.839,53.325,13.812
				c9.251,16.139-9.832,36.511-20.218,46.526c-19.69,18.988-45.014,34.931-70.669,44.503c-11.222,4.187-28.221,9.823-39.973,4.153
				c-2.578-1.243-4.086-3.208-3.551-5.181c0.972-3.576,7.272-6.972,10.296-8.878c15.974-10.072,34.201-16.959,52.006-22.988
				c19.64-6.651,40.247-12.282,61.019-13.628c46.45-3.009,89.157,21.305,134.227,27.602c5.887,0.822,11.79,0.854,17.721,0.51
				c4.43-0.258,9.567-0.697,13.406-3.158c5.499-3.525,2.42-9.275-1.691-12.247c-3.142-2.271-6.132,2.938-3.027,5.182
				c0.948,0.686,1.781,1.761,1.78,2.087c-0.001,0.318-5.435,1.572-6.437,1.737c-9.76,1.611-19.891,0.452-29.484-1.553
				c-22.907-4.786-45.125-12.642-67.809-18.356c-21.646-5.454-43.979-9.656-66.345-7.111c-20.873,2.374-41.378,8.294-61.126,15.289
				c-16.91,5.989-34.229,12.875-49.293,22.757c-6.417,4.21-15.634,11.567-9.063,19.725c6.446,8.002,20.377,6.591,29.191,5.221
				c21.95-3.413,42.71-14.844,61.089-26.748c20.051-12.986,42.438-29.394,52.547-51.864c6.077-13.507,4.006-27.869-8.872-36.271
				c-7.453-4.863-16.723-6.551-25.418-7.412c-11.947-1.185-24.198-0.138-35.944,2.188c-22.725,4.501-44.083,15.372-62.645,29.008
				c-16.21,11.909-32.836,27.109-41.896,45.418c-3.702,7.481-4.282,15.626-1.709,23.677c1.447,4.532,5.604,8.341,10.46,6.209
				c0.995-0.438,1.401-1.611,1.486-2.591c0.58-6.66-6.902-6.96-11.638-6.416c-9.424,1.084-18.555,3.974-27.961,5.217
				c-3.684,0.486-16.043,2.894-13.939-3.877c1.575-5.073,6.329-9.977,10.462-13.114c0.832-0.632,1.719-1.183,2.65-1.654
				c0.729-0.369-1.166-0.479-1.294-1.694c0.215,2.034-1.558,4.414-2.644,5.962c-3.787,5.4-9.498,9.723-14.901,13.37
				c-4.819,3.254-26.701,16.566-27.819,3.591c-0.833-9.663,4.971-20.565,9.635-28.599c5.011-8.633,11.757-16.572,19.842-22.471
				c3.771-2.751,11.212-7.828,16.252-5.615c5.389,2.365,1.693,12.744,0.027,16.299c-7.592,16.204-26.713,26.238-42.239,33.237
				c-6.729,3.034-13.746,5.638-20.914,7.429c-1.71,0.427-3.471,0.853-5.243,0.848c-1.848-0.006-2.237-5.74-2.329-6.892
				c-0.286-3.567,0.034-7.208,0.774-10.7c0.29-1.368,0.682-2.747,1.295-4.006c1.157-2.379-1.103,0.523-1.199-1.615
				c0.094,2.072-2.173,4.73-3.27,6.302c-2.207,3.165-4.908,6.012-7.686,8.678c-2.23,2.142-4.635,4.126-7.365,5.593
				c-0.749,0.402-1.993,0.346-1.235,0.693c0.732,0.337,0.532-1.428,1.007-2.444c3.106-6.654,10.604-11.523,16.096-16.072
				c2.454-2.032,8.903-9.103,1.482-9.766c-6.279-0.561-11.109,6.723-14.381,10.992c-1.418,1.852-10.925,16.036-13.01,14.103
				c-5.342-4.953,7.027-14.389-0.252-19.028c-5.98-3.812-11.914,2.229-15.633,6.387c-5.176,5.788-9.117,12.617-14.43,18.273
				c-0.278,0.297-0.593,0.636-0.924,0.878c-1.601,1.172,3.365,1.355,2.675,2.949c0.393-0.906,1.053-1.722,1.638-2.507
				c2.031-2.727,4.422-5.22,6.66-7.773c3.326-3.791,9.202-9.018,9.668-14.396c0.615-7.12-9.007-4.052-12.266-2.394
				c-8.59,4.369-15.314,11.97-23.235,17.357c-1.565,1.065-3.227,2.048-5.012,2.69c-0.677,0.243-1.3,0.339-2.011,0.353
				c0.686-0.014,1.605,1.282,1.402,2.053c0.496-1.887,3.285-4.119,4.678-5.527c4.598-4.646,9.668-8.803,14.224-13.49
				c1.082-1.113,2.641-2.601,2.886-4.216c0.419-2.761-1.687-4.44-4.32-4.046c-5.482,0.821-10.725,8.842-14.254,12.477
				c-6.162,6.346-13.979,14.424-23.35,15.093c-0.785,0.056-6.337-0.138-6.07-1.763c0.413-2.518,2.962-4.777,4.65-6.49
				c3.525-3.576,8.541-6.419,11.413-10.561c1.333-1.922,0.479-4.241-1.619-5.082c-1.985-0.796-4.478,0.686-6.026,1.765
				c-6.88,4.795-12.218,12.035-18.056,17.976c-3.075,3.129-6.283,6.195-9.934,8.646c-1.375,0.923-2.816,1.646-4.415,2.075
				c-0.707,0.189-1.472,0.115-2.193,0.089c-0.971-0.034-0.066,0.51,0.014,0.188c0.973-3.933,5.447-7.69,8.119-10.473
				c5.376-5.595,11.169-11.101,17.337-15.812c2.338-1.786,6.67-5.314,9.945-4.743c0.809,0.141,0.741,0.539,0.676,0.307
				C150.375,121.752,156.164,120.17,155.111,116.438L155.111,116.438z"/>
		</g>
		<g>
			<path d="M586.183,59.797c0.568-0.173-0.783,0.029-0.19,0.04c-1.732-0.03-1.433-1.981-1.808-0.007
				c-0.573,3.011-0.863,5.612-0.206,8.653c0.421,1.946,1.533,4.431,3.64,5.011c2.474,0.681,4.192-1.343,4.659-3.542
				c0.803-3.774-4.981-5.379-5.785-1.596c-0.531,1.677,0.766,1.726,3.889,0.147c-0.242-0.317-0.339-0.667-0.462-1.042
				c-0.337-1.024-0.408-2.07-0.424-3.141c-0.033-2.304,1.062-4.395,0.681-6.738c-0.424-2.601-3.017-4.354-5.589-3.571
				C580.896,55.135,582.471,60.927,586.183,59.797L586.183,59.797z"/>
		</g>
	</g>
</g>
</svg>
