<?xml version="1.0"?>
<svg xmlns="http://www.w3.org/2000/svg" width="311" height="64">
<path style="fill:#000" d="M 29.2034,55.75 C 28.125555,53.9625 26.261306,49.125 25.060625,45 23.859943,40.875 21.780115,34.279184 20.438784,30.34263 c -1.341331,-3.936553 -2.422838,-7.536553 -2.403349,-8 0.100855,-2.398256 3.396016,5.737868 7.459943,18.41944 3.10292,9.682727 5.202021,14.656515 6.537517,15.490546 C 34.336526,57.691257 34.597887,59 32.581559,59 31.801417,59 30.281246,57.5375 29.2034,55.75 Z m 20.246695,-3.140743 -4.207071,-4.390742 -3.093601,3.0936 c -2.693057,2.693057 -3.453269,2.970229 -5.871511,2.140743 C 33.32392,52.439602 28.355241,43.78903 27.574114,38.299368 27.355036,36.759716 26.850072,33.3625 26.451971,30.75 25.94854,27.446274 26.074017,26 26.864076,26 c 0.624758,0 1.161755,0.3375 1.193326,0.75 C 29.161166,41.171532 33.381423,52 37.898266,52 41.239884,52 44,47.759916 44,42.626532 c 0,-5.525349 1.458562,-5.413959 2.353024,0.179699 0.338651,2.117807 1.975582,5.72778 3.637625,8.022163 C 52.694872,54.561466 53.446248,55 57.138195,55 c 3.40174,0 4.691969,-0.600472 7.353159,-3.422156 1.77513,-1.882185 3.504514,-4.807185 3.843077,-6.5 C 68.672994,43.38503 69.393217,42 69.934927,42 c 0.54171,0 3.108894,2.270692 5.704853,5.045982 5.784418,6.184011 8.24676,6.293734 10.188821,0.454018 0.762025,-2.291386 1.169285,-6.669709 0.953428,-10.25 C 86.57478,33.8125 86.764041,31 87.202607,31 87.641173,31 88,34.847347 88,39.54966 88,54.936434 84.062998,57.822676 75.26531,48.885543 l -5.034658,-5.114456 -1.176381,3.564472 C 67.362344,52.462147 61.840312,57 57.293787,57 54.30257,57 52.910523,56.22076 49.450095,52.609257 Z m 87.133615,-0.910624 c -3.35787,-4.40239 -7.34737,-13.586018 -9.02385,-20.772432 -1.00079,-4.290014 -3.00217,-8.112834 -7.53358,-14.389799 -3.48197,-4.823267 -6.00841,-9.3078303 -5.79821,-10.2920932 0.28202,-1.3204675 0.80532,-0.9284127 2.15366,1.6134925 C 119.37574,13.502149 127,23.325032 127,21.538079 c 0,-2.394373 4.87345,-10.399982 7.03538,-11.557012 1.44303,-0.7722872 2.48986,-0.3029398 5.06934,2.272831 C 142.32125,15.46581 149,28.411598 149,31.43446 c 0,2.174541 0.90278,1.994202 7.09023,-1.416345 2.97537,-1.640036 6.17175,-2.990036 7.10307,-3 2.32817,-0.02491 4.80354,3.801782 4.82201,7.454391 0.008,1.665122 0.43267,3.687382 0.94277,4.493911 0.71542,1.131157 1.37888,0.413309 2.90193,-3.139834 1.08596,-2.533439 2.50631,-4.934946 3.15633,-5.336682 0.71843,-0.444016 2.84516,1.081251 5.42372,3.889835 4.5056,4.907529 7.56786,5.797395 11.08929,3.222458 1.97595,-1.444848 2.47403,-6.118231 1.4497,-13.602194 -0.26348,-1.925 -0.0466,-3.616068 0.48203,-3.757928 0.54344,-0.145845 1.10347,3.533259 1.28876,8.466462 0.30456,8.108887 0.16621,8.848649 -1.96108,10.485692 -3.77074,2.901753 -7.34302,2.257834 -12.17293,-2.194226 -2.38672,-2.2 -4.65197,-4 -5.03389,-4 -0.38192,0 -1.56386,1.965552 -2.62653,4.367892 -1.06267,2.402341 -2.57452,4.901033 -3.35967,5.55265 -1.61359,1.339159 -1.99036,0.538334 -3.095,-6.578309 -0.35496,-2.286772 -1.25289,-4.986772 -1.99541,-6 -1.29321,-1.764677 -1.60521,-1.715937 -7.41123,1.157767 -3.39282,1.67928 -6.06844,3.666575 -6.07765,4.514117 -0.0234,2.151849 3.5753,11.713867 5.53301,14.701715 1.12945,1.723755 1.24485,2.382271 0.36615,2.089371 -1.73287,-0.577624 -4.36418,-5.836698 -7.42312,-14.836238 C 144.29419,22.675311 138.39257,12 135.1361,12 c -2.22642,0 -6.45928,7.337952 -6.3547,11.016297 0.0425,1.494661 1.93629,5.754844 4.20842,9.467073 C 137.96558,40.612794 141,48.020123 141,52.03702 c 0,3.847086 -1.29984,3.747489 -4.41629,-0.338387 z m 0.43457,-8.652251 C 135.14891,38.303745 129.51063,29 128.50586,29 c -1.08743,0 3.10411,11.27925 6.31745,17 2.75707,4.908447 3.72729,5.988306 3.96242,4.410209 0.17126,-1.149385 -0.62409,-4.463107 -1.76745,-7.363827 z m 85.20512,-7.71753 c -0.70213,-0.282289 -2.33486,-2.07062 -3.62829,-3.974068 l -2.35168,-3.460816 -0.6586,2.624055 c -0.36223,1.443231 -1.17812,2.450881 -1.81309,2.239224 -1.87283,-0.624275 -7.0267,-7.492365 -6.59475,-8.788212 0.21838,-0.655151 1.7304,0.739256 3.36003,3.098681 L 213.5,31.357581 213.80479,26.67879 C 213.97243,24.105456 214.48607,22 214.94621,22 c 0.46015,0 1.55442,1.793926 2.43171,3.986502 C 219.35853,30.936533 222.33185,34 225.15561,34 229.1748,34 233.77733,29.382171 235.63647,23.484313 236.58729,20.467941 237.65389,18 238.00668,18 c 0.35278,0 1.7331,2.782133 3.06737,6.182517 1.33427,3.400384 2.95705,6.352417 3.60617,6.560074 0.64912,0.207657 4.24912,-2.634764 8,-6.316489 8.17215,-8.021482 12.97752,-11.81378 13.59156,-10.726173 0.24844,0.440039 0.7751,2.147554 1.17036,3.794477 C 268.49457,21.879578 269.81421,23 273.92666,23 278.18397,23 284.52438,19.316155 293.25,11.772935 296.4125,9.0389817 299,7.2380401 299,7.7708422 299,9.241315 286.10555,19.669171 280.78483,22.501605 278.20356,23.875722 274.47053,25 272.48921,25 c -3.38132,0 -3.7435,-0.319714 -5.90154,-5.209583 l -2.29913,-5.209584 -7.39427,7.609884 c -4.06685,4.185436 -8.55859,8.333551 -9.98164,9.218032 -2.4219,1.505308 -2.69977,1.483942 -4.34508,-0.334104 -0.96674,-1.068239 -2.34832,-3.659541 -3.07017,-5.758449 L 238.18493,21.5 236.4431,25.851925 c -2.60152,6.499857 -9.75925,11.270235 -14.2197,9.476927 z" />
</svg>