<?xml version="1.0" standalone="no"?>
<!DOCTYPE svg PUBLIC "-//W3C//DTD SVG 20010904//EN"
 "http://www.w3.org/TR/2001/REC-SVG-20010904/DTD/svg10.dtd">
<svg version="1.0" xmlns="http://www.w3.org/2000/svg"
 width="516.000000pt" height="148.000000pt" viewBox="0 0 516.000000 148.000000"
 preserveAspectRatio="xMidYMid meet">

<g transform="translate(0.000000,148.000000) scale(0.100000,-0.100000)"
fill="#000000" stroke="none">
<path d="M3205 1255 c-78 -28 -151 -135 -192 -285 -14 -50 -18 -101 -17 -215
0 -131 3 -157 22 -205 31 -77 62 -109 116 -119 52 -10 99 11 111 49 12 37 -9
44 -53 19 l-41 -24 -25 24 c-48 46 -70 115 -74 243 -3 100 -1 128 18 189 32
106 64 172 104 217 72 80 131 79 167 -4 17 -37 19 -57 14 -110 l-7 -64 31 0
c34 0 35 0 33 125 -1 141 -81 203 -207 160z"/>
<path d="M717 1083 c-31 -52 -108 -187 -143 -253 -33 -62 -120 -184 -129 -182
-6 1 -12 70 -15 169 -3 93 -9 176 -14 185 -9 20 -31 29 -51 22 -18 -7 -18 -13
0 -89 11 -44 15 -128 15 -315 0 -140 4 -261 9 -268 4 -8 19 -12 32 -10 21 3
24 8 22 38 -6 77 -6 171 0 176 3 3 39 -19 79 -49 115 -85 138 -93 138 -53 0
17 -19 40 -70 82 -38 32 -70 62 -70 67 0 6 19 40 42 76 23 36 84 140 136 231
99 173 115 222 76 228 -17 2 -29 -9 -57 -55z"/>
<path d="M4351 1111 c-6 -11 -11 -31 -11 -46 0 -30 -58 -189 -106 -291 -32
-68 -35 -72 -74 -78 -23 -3 -46 -4 -52 0 -13 8 -2 122 19 185 21 66 15 104
-16 104 -20 0 -27 -8 -39 -45 -22 -65 -89 -209 -119 -252 -18 -27 -38 -42 -74
-53 -27 -9 -55 -15 -62 -12 -8 3 -12 28 -12 78 0 72 -1 74 -24 74 -20 0 -31
-13 -61 -73 -42 -81 -75 -122 -101 -122 -19 0 -59 76 -59 114 0 28 -22 49 -46
44 -9 -2 -24 -21 -33 -43 -24 -60 -54 -105 -68 -105 -25 0 -35 51 -23 112 13
62 9 78 -21 78 -48 0 -69 -171 -28 -224 31 -39 96 -37 144 5 l35 31 9 -25 c6
-14 19 -31 30 -36 29 -16 103 -13 127 4 25 17 34 11 34 -21 0 -17 12 -28 52
-48 29 -14 61 -26 71 -26 11 0 36 -4 56 -9 20 -5 68 -15 106 -21 325 -53 435
-87 685 -207 110 -54 169 -76 207 -80 l53 -6 0 30 c0 35 -27 68 -199 242 -121
124 -246 280 -234 292 5 4 58 9 118 11 106 3 110 4 113 26 l4 23 -124 -1 c-68
-1 -131 -1 -140 -1 -22 1 -61 76 -78 149 -7 29 -10 93 -9 145 4 88 3 92 -18
95 -14 2 -26 -4 -32 -17z m20 -318 c25 -60 20 -73 -31 -73 -32 0 -40 4 -40 18
0 19 37 102 46 102 2 0 14 -21 25 -47z m78 -150 c30 -58 120 -166 244 -292
106 -109 127 -147 55 -103 -43 26 -227 105 -303 130 -66 22 -264 63 -390 82
-120 17 -175 32 -175 47 0 7 4 13 9 13 5 0 31 20 58 45 56 53 95 58 101 15 6
-39 31 -60 72 -60 40 0 68 24 114 97 27 44 23 42 141 56 17 2 36 5 42 6 7 0
21 -16 32 -36z m-304 -13 c4 -6 1 -17 -5 -26 -10 -11 -16 -12 -26 -3 -11 9
-11 15 -3 25 14 17 25 18 34 4z"/>
<path d="M2664 1069 c-27 -29 -33 -192 -10 -237 15 -29 15 -32 -2 -41 -14 -8
-15 -13 -6 -28 9 -13 22 -17 53 -15 90 6 117 39 62 76 -57 39 -79 111 -52 179
9 22 17 27 46 27 28 0 35 4 35 20 0 42 -92 56 -126 19z"/>
<path d="M2016 1058 c-7 -32 -15 -194 -22 -435 -6 -188 -5 -203 11 -209 31
-12 48 10 106 137 31 68 60 123 65 122 5 -1 12 -34 15 -73 8 -77 20 -100 54
-100 36 0 68 49 134 205 19 44 40 89 47 99 12 18 14 18 20 3 3 -9 3 -25 -1
-34 -10 -25 -35 -220 -35 -271 0 -60 14 -82 52 -82 30 0 31 0 23 43 -9 52 -7
149 5 202 13 61 23 230 16 269 -5 26 -12 35 -31 39 -30 5 -64 -30 -94 -97 -10
-22 -40 -89 -67 -149 -66 -148 -71 -144 -73 56 -1 107 -1 107 -26 107 -28 0
-35 -12 -101 -165 -24 -55 -48 -101 -55 -104 -9 -3 -10 32 -3 145 5 82 9 185
9 229 0 75 -1 80 -22 83 -17 2 -24 -3 -27 -20z"/>
<path d="M1243 980 c-26 -11 -27 -14 -13 -40 15 -28 65 -12 65 21 0 26 -18 33
-52 19z"/>
<path d="M782 773 c-17 -7 -42 -57 -42 -84 0 -13 -5 -37 -12 -56 -10 -29 -9
-38 11 -75 34 -63 56 -78 111 -78 34 0 58 7 86 26 21 15 40 22 41 18 23 -66
61 -85 115 -60 30 14 41 15 59 6 12 -7 37 -10 57 -6 28 4 41 0 64 -19 21 -18
42 -25 70 -25 35 0 47 6 89 49 27 26 49 53 49 60 0 26 -31 20 -75 -13 -25 -20
-52 -36 -60 -36 -20 0 -37 27 -50 78 -9 36 -17 48 -34 50 -16 3 -25 -5 -36
-32 -19 -44 -39 -46 -60 -6 -9 17 -20 30 -24 30 -23 0 -43 -15 -57 -41 -22
-44 -44 -37 -45 14 -1 23 0 50 1 61 8 77 -38 88 -78 19 -35 -60 -87 -113 -112
-113 -11 0 -24 9 -30 20 -9 16 -5 23 21 42 85 62 76 179 -13 177 -18 0 -39 -3
-46 -6z m48 -73 c0 -5 -5 -10 -11 -10 -5 0 -7 5 -4 10 3 6 8 10 11 10 2 0 4
-4 4 -10z"/>
</g>
</svg>
