<?xml version="1.0" encoding="utf-8"?>
<!-- Generator: Adobe Illustrator 24.0.0, SVG Export Plug-In . SVG Version: 6.00 Build 0)  -->
<svg version="1.1" id="Layer_1" xmlns="http://www.w3.org/2000/svg" xmlns:xlink="http://www.w3.org/1999/xlink" x="0px" y="0px"
	 viewBox="0 0 428 180" style="enable-background:new 0 0 428 180;" xml:space="preserve">
<g>
	<g>
		<path d="M97.43,23.01c10.29-1.05,20.2-2.02,29.61-5.72c2.37-0.93,4.44-2.27,6.01-4.31c1.36-1.77,3.03-2.16,4.71-0.72
			c1.52,1.3,1.13,2.9,0.13,4.49c-1.88,2.97-4.77,4.59-7.81,5.97c-7.08,3.21-14.69,4.19-22.3,5.11c-4.13,0.5-8.28,0.89-12.44,1.15
			c-1.94,0.12-3.54,0.59-4.85,2.09c-3.52,4.01-7.09,7.96-10.83,12.15c-0.38-0.65-0.3-0.28-0.08-0.17
			c17.17,8.88,34.48,17.36,53.45,21.89c29.03,6.94,57.53,4.67,85.65-4.56c9.64-3.16,19.31-6.38,27.59-12.57
			c1.47-1.1,3.18-1.82,4.42-0.23c1.23,1.59-0.07,3.08-1.24,4.34c-2.66,2.86-5.96,4.76-9.47,6.36
			c-14.17,6.45-28.98,10.79-44.25,13.69c-10.34,1.96-20.76,3-31.3,2.67c-0.97-0.03-1.95,0.09-3.33,0.17
			c1.09,5.75-2.46,8.5-6.56,11.08c-4.93,3.11-10.29,5.3-16.23,7.67c10.11,2.21,20.49,2.37,26.2,12.59c3.25-3.3,7.28-2.3,10.96-2.25
			c2.35,0.03,4.17-0.42,5.95-1.74c2.55-1.9,5.32-3.4,8.29-4.56c2.02-0.79,4.07-1.28,5.09,1.2c0.93,2.24-0.73,3.31-2.56,4.07
			c-0.6,0.25-1.27,0.47-1.28,1.59c1.42,1.42,2.61-0.1,3.67-0.7c2.53-1.43,4.87-2.23,8.01-1.51c2.44,0.56,5.25-0.29,7.86-0.72
			c1.98-0.33,3.95-0.65,5.96-0.46c2.04,0.19,3.89,0.86,5.35,2.4c1.13,1.2,1.72,2.52,0.67,4.02c-0.89,1.28-2.15,1.57-3.5,0.76
			c-2.52-1.52-5.05-0.95-7.72-0.42c-3.57,0.7-7.12,1.7-10.87,1.09c-2.29-0.37-4,1.44-5.93,2.32c-5.4,2.48-7.38,1.73-9.49-3.88
			c-3.5,1.11-4.86,3.09-5.12,7.1c-0.86,13.32-6.14,25.09-14.19,35.65c-6.7,8.79-14.36,16.63-22.95,23.56
			c-0.65,0.52-1.28,1.07-1.99,1.5c-1.52,0.92-3.12,1.25-4.64,0.01c-1.4-1.14-1.14-2.64-0.72-4.14c2.32-8.37,5.47-16.4,9.43-24.13
			c6.42-12.52,14.5-23.87,24.12-34.31c-2.27-1.91-4.15-0.76-5.38,1.02c-5.7,8.23-14.34,11.82-23.33,14.39
			c-30.09,8.58-60.77,11.74-91.97,8.79c-10.99-1.04-21.67-3.62-31.64-8.61c-3.59-1.8-7-3.88-9.48-7.16
			c-4.8-6.36-4.31-14.16,1.48-21.64c3.2-4.13,7.35-7.22,11.81-9.89c1.55-0.93,3.28-1.36,4.36,0.48c0.93,1.57-0.13,2.87-1.42,3.81
			c-3.36,2.45-6.66,4.9-9.29,8.25c-6.88,8.74-5.64,15.33,4.17,20.69c8.46,4.63,17.67,6.91,27.14,8.02c7.43,0.87,14.9,1.7,22.85,1.16
			c0.18-2.78,1.98-3.94,4.59-5.13c8.2-3.73,15.49-9.08,22.73-14.42c4.23-3.12,8.63-6.06,12.9-10.24c-3.56,0.18-6.31,1.09-9.15,0.78
			c-1.87-0.2-3.78-0.43-4.24-2.71c-0.53-2.57,1.23-3.48,3.23-4.25c5.7-2.19,11.7-2.58,17.68-2.79c2.83-0.1,5.16-0.79,7.18-2.78
			c3.66-3.6,7.87-6.62,11.04-10.89c-7.03,1.66-14.56,1.47-20.41,6.71c-1.48,1.32-3.17,0.74-4.41-0.69c-1.3-1.51-1.08-3.11,0.18-4.49
			c1.86-2.05,4.43-2.95,6.98-3.69c6.24-1.8,12.55-3.3,18.96-4.36c0.61-0.1,1.3-0.01,1.71-0.65c-0.07-0.85-0.74-1.05-1.38-1.19
			c-19.29-3.94-37.01-11.93-54.31-21c-1.33-0.7-2.78-1.2-4-2.04c-2.69-1.85-4.69-1.01-7.07,0.88
			C56.95,59.68,42.67,69.14,27.99,78.02c-1.57,0.95-3.15,1.85-5.02,2.15c-1.55,0.24-3.13,0.42-3.8-1.37
			c-0.69-1.86,0.69-2.58,2.09-3.37c15.68-8.87,30.36-19.21,44.54-30.29c0.65-0.51,1.26-1.07,2.13-1.8
			c-6.85-4.46-14.07-7.87-20.99-11.8c-1.49-0.85-3.27-0.46-4.92-0.55c-8.31-0.46-16.67-0.65-24.7-3.18
			c-5.36-1.69-10.16-4.24-12.84-9.57C2.1,13.49,2.67,9.02,6.02,5.82c3.46-3.31,7.65-3.7,12.43-1.08c3.68,2.02,6.8,4.82,9.92,7.55
			c5.05,4.41,10.76,7.83,16.29,11.52c1.91,1.27,3.97,1.5,6.18,1.5c11.67,0,23.3-1.08,34.96-1.4c2.22-0.06,3.82-0.71,4.91-2.7
			c0.55-1.01,1.4-1.86,2.05-2.83c0.87-1.29,2.06-1.74,3.45-1.17c1.38,0.56,1.97,1.73,1.73,3.24C97.82,21.19,97.65,21.92,97.43,23.01
			z M136.96,86.95c6.37-1.19,11.69-4.42,17.72-8.66c-3.7-0.66-6.28-0.64-8.86-0.48c-0.99,0.06-2.06,0.09-2.59,1.11
			c-1.6,3.06-4.75,4.93-6.17,8.12c-0.15,0.02-0.32,0-0.45,0.07c-0.07,0.04-0.09,0.31-0.07,0.32
			C136.86,87.55,137.01,87.38,136.96,86.95z M143.77,163.73c0.7,0.43,1.22,0.08,1.72-0.39c7.49-7.1,14.67-14.49,19.98-23.43
			c4.09-6.87,7.03-14.19,7.74-23.48c-13.78,14.24-23.01,29.91-29.33,47.4l0.02,0.19L143.77,163.73z M77.13,131.96
			c1.59,0,3.18,0.08,4.76-0.01c13.49-0.77,26.87-2.56,40.06-5.32c9.08-1.9,18.2-4.07,26.61-8.33c2.85-1.44,5.6-3.01,7.82-5.28
			c2.93-2.99,2.69-5.31-0.51-7.97c-1.84-1.53-4.08-2.22-6.3-2.92c-8.04-2.5-16.38-2.69-24.69-3.18c-2.05-0.12-3.4,0.86-4.83,2.09
			c-7.45,6.41-15.53,11.98-23.45,17.78C90.34,123.42,83.62,127.3,77.13,131.96z M35.09,24.4c-5.44-4.28-10.87-8.57-16.33-12.83
			c-0.91-0.71-1.92-1.31-2.94-1.87c-1.94-1.09-3.86-1.06-5.51,0.53c-1.81,1.74-1.84,3.81-0.74,5.94c1.29,2.49,3.5,3.9,5.93,5.09
			C21.64,24.27,28.32,24.12,35.09,24.4z M59.18,31.92c4,2.2,8.01,4.37,11.98,6.61c1.24,0.7,2.18,0.41,3.12-0.48
			c2.64-2.46,5.29-4.89,8.55-7.89C74.41,29.81,66.95,30.61,59.18,31.92z"/>
		<path d="M240.72,85.5c17.31,1.58,34.48,3.69,51.42,7.46c6.99,1.56,13.94,3.25,20.7,5.62c4.92,1.72,9.48,4.14,13.01,8.1
			c4.8,5.38,3.27,10.45-3.72,12.21c-2.41,0.61-4.9,1.12-7.37,1.24c-17.97,0.9-35.63-0.38-52.2-8.31c-2.09-1-4.16-2.16-6.02-3.53
			c-5.27-3.86-9.72-8.24-8.21-15.78c-10.52-1.46-20.83-1.86-31.11-2.44c-11.81-0.67-23.64-0.9-35.46-1.32
			c-1.67-0.06-3.35,0.01-4.88-0.81c-1.28-0.69-2.01-1.74-1.81-3.25c0.18-1.39,1.25-1.89,2.41-2.19c0.8-0.21,1.63-0.34,2.46-0.36
			c22.48-0.63,44.85-3.41,67.33-3.91c33.98-0.76,67.97-0.87,101.92,1.11c17.82,1.04,35.41,3.73,52.79,7.77
			c4.71,1.09,9.28,2.65,13.73,4.53c2.49,1.05,4.77,2.42,6.52,4.49c1.96,2.32,1.97,4.84,0.1,6.74c-1.04,1.06-2.39,1.73-3.28,0.04
			c-2.19-4.15-6.28-5.38-10.2-6.59c-10.34-3.19-20.89-5.56-31.59-7.31c-18.3-2.98-36.73-3.87-55.22-4.46
			c-23.99-0.77-47.96-0.53-71.95-0.13C246.94,84.46,243.77,84.58,240.72,85.5z M254.13,93.29c-0.31,3.44,1.23,5.87,3.59,7.92
			c2.65,2.3,5.59,4.16,8.77,5.64c16.88,7.81,34.6,8.57,52.68,6.26c0.79-0.1,1.69-0.07,2.27-1.32c-0.72-2.18-2.86-3.28-4.74-4.44
			c-4.54-2.8-9.45-4.91-14.61-6.23c-12.23-3.14-24.65-5.41-37.18-6.91C261.37,93.79,257.82,92.44,254.13,93.29z"/>
		<path d="M181.38,29.38c-6.51,1.99-13.03,3.97-19.54,5.98c-2.42,0.75-4.9,1.06-7.4,0.81c-2.79-0.28-4.68-2.02-4.25-3.91
			c0.53-2.36,2.43-2.39,4.35-2.24c5.67,0.44,10.77-1.87,16-3.45c7.16-2.17,14.22-4.69,21.36-6.93c2.3-0.72,5.26-2.06,6.46,1.25
			c1.14,3.13-1.74,4.19-3.95,5.35c-1.16,0.61-2.28,1.28-4.16,2.35c2.49,0.98,4.38,0.53,6.16,0.25c10.71-1.69,21.08-4.79,31.47-7.77
			c0.78-0.22,1.66-0.48,2.24-1c7.68-6.89,17.31-8.74,26.96-10.53c0.79-0.15,1.66-0.1,2.46,0.05c1.72,0.33,3.24,1.04,3.44,3.06
			c0.17,1.75-0.88,2.83-2.37,3.43c-3.86,1.55-7.73,3.06-11.62,4.53c-2.44,0.92-4.92,1.73-8.36,2.93
			c10.39,2.44,19.81,3.51,29.25,4.42c27.51,2.64,55.13,4.13,82.52,8.04c17.8,2.54,35.54,5.37,52.68,11.08
			c5.86,1.95,11.47,4.45,16.58,8c1.66,1.15,3.24,2.36,4.33,4.08c1.53,2.4,1.21,5.01-0.74,6.8c-1.94,1.78-3.66,1.44-4.19-1.21
			c-0.5-2.49-2.15-3.64-3.98-4.78c-7.71-4.84-16.25-7.6-24.96-9.9c-16.45-4.35-33.25-6.76-50.08-9.02
			c-23.94-3.21-48.06-4.61-72.07-7.1c-10.42-1.08-20.92-1.72-31.03-4.84c-0.48-0.15-1.07-0.09-1.44-0.36
			c-4.7-3.32-9.33-1.55-14.14-0.12c-10.05,2.99-20.18,5.74-30.67,6.73C186.68,35.92,183.87,34.38,181.38,29.38z"/>
		<path d="M114.59,44.71c0.25-3.44,1.67-5.05,4.26-4.86c2.47,0.18,4.84,2.68,4.63,4.88c-0.22,2.21-3.49,4.57-5.88,4.25
			C115.52,48.7,114.41,47.12,114.59,44.71z"/>
	</g>
</g>
</svg>
