<svg xmlns="http://www.w3.org/2000/svg" version="1.0" preserveAspectRatio="xMidYMid meet" viewBox="124.14 372.18 1011.78 536.7">
<metadata>
Created by potrace 1.16, written by Peter Selinger 2001-2019
</metadata>
<g transform="translate(0.000000,1280.000000) scale(0.100000,-0.100000)" fill="#000000" stroke="none">
<path d="M5955 9071 c-106 -26 -201 -99 -323 -246 -42 -49 -164 -182 -273 -295 -108 -113 -227 -241 -264 -285 -36 -44 -79 -93 -94 -110 -38 -40 -119 -152 -229 -315 -226 -333 -432 -598 -580 -746 -55 -55 -83 -74 -119 -85 -99 -29 -272 -7 -415 51 -131 53 -167 92 -193 205 -23 102 -34 115 -98 115 -59 0 -112 -23 -140 -61 -65 -89 -2 -285 125 -388 70 -57 223 -135 303 -155 33 -8 90 -18 128 -22 37 -4 67 -11 67 -17 0 -28 -142 -277 -170 -297 -4 -3 -41 -46 -81 -96 -41 -50 -106 -127 -145 -171 -39 -43 -111 -133 -161 -199 -94 -125 -168 -201 -222 -228 -33 -18 -44 -16 -141 19 -70 26 -215 5 -460 -66 -235 -69 -374 -132 -579 -264 -252 -163 -393 -307 -500 -510 -117 -224 -155 -353 -149 -510 6 -154 51 -229 168 -284 48 -23 68 -26 160 -26 75 0 122 6 165 19 33 11 68 21 79 23 38 7 202 99 280 156 93 70 258 228 386 372 49 55 133 150 187 211 207 234 384 421 409 432 53 25 72 16 157 -72 65 -67 91 -87 125 -96 24 -6 52 -8 64 -4 19 6 20 11 14 68 -16 156 -55 254 -133 337 l-24 26 228 235 c225 231 336 361 463 542 143 205 285 376 348 420 27 18 70 33 138 47 206 41 301 72 420 140 121 70 181 110 267 180 39 33 101 84 137 113 75 61 306 312 394 428 46 60 223 310 276 388 24 36 58 84 75 106 39 50 127 221 159 307 68 180 84 399 36 500 -42 88 -156 134 -265 108z m-60 -440 c-26 -139 -194 -443 -380 -690 -182 -240 -358 -419 -713 -723 -63 -55 -178 -125 -188 -116 -6 7 138 235 216 344 118 163 259 333 579 698 174 198 349 400 389 448 51 62 77 85 88 81 12 -4 14 -14 9 -42z m-3018 -3129 c16 -10 -77 -148 -163 -241 -37 -39 -137 -133 -223 -209 -86 -75 -211 -187 -278 -249 -214 -196 -338 -287 -512 -373 -101 -51 -163 -64 -189 -38 -18 18 -14 91 8 150 53 142 210 379 329 499 141 140 233 195 576 347 222 98 294 121 375 121 36 1 70 -3 77 -7z"/>
<path d="M8710 7330 c-63 -11 -156 -52 -290 -127 -63 -36 -175 -95 -250 -132 -158 -78 -280 -157 -444 -290 -65 -53 -136 -109 -158 -126 -76 -58 -244 -203 -323 -281 -141 -138 -255 -305 -352 -514 -67 -145 -87 -232 -81 -354 5 -118 35 -182 124 -266 67 -62 123 -89 232 -111 120 -23 343 5 444 57 51 26 165 110 243 179 80 71 202 165 214 165 5 0 11 -15 14 -34 33 -203 238 -271 401 -132 93 78 114 81 207 21 63 -42 108 -52 150 -35 31 13 59 55 59 87 0 10 -9 34 -20 53 -65 114 -62 104 -46 188 33 174 29 218 -27 278 -25 26 -45 36 -86 44 -86 16 -157 -10 -310 -114 l-80 -55 19 47 c10 26 30 74 44 107 33 81 40 134 26 199 -25 123 -104 158 -294 133 -159 -21 -387 -174 -615 -414 -116 -121 -152 -167 -252 -321 -85 -131 -130 -154 -145 -76 -15 79 41 247 114 341 16 21 48 65 73 97 131 175 331 362 586 547 131 95 239 169 248 169 3 0 42 23 88 52 227 142 378 228 543 308 155 74 185 93 199 120 37 72 -16 165 -108 189 -50 12 -80 12 -147 1z m-696 -1412 c-14 -48 -34 -75 -106 -144 -112 -108 -254 -204 -337 -229 -22 -7 -23 -5 -17 21 9 35 36 64 142 154 80 69 298 220 316 220 5 0 6 -10 2 -22z"/>
<path d="M5957 6865 c-103 -38 -306 -205 -542 -446 -305 -312 -404 -473 -460 -748 -33 -163 -59 -193 -112 -131 -52 62 -160 96 -255 80 -119 -19 -266 -113 -298 -191 -7 -17 -17 -26 -21 -22 -5 5 -16 58 -25 119 -26 186 -51 232 -152 284 -35 18 -54 22 -98 17 -89 -9 -157 -47 -249 -140 -127 -128 -198 -264 -211 -404 -5 -59 -3 -74 18 -113 35 -65 91 -93 180 -87 76 5 146 34 277 116 75 47 85 51 94 36 20 -36 47 -53 121 -78 47 -16 100 -43 136 -71 82 -61 143 -79 262 -80 92 0 101 2 170 37 40 20 124 75 187 122 63 48 145 102 184 121 143 72 287 50 287 -44 0 -49 -109 -110 -250 -142 -118 -26 -324 -133 -466 -242 -116 -88 -254 -235 -305 -323 -124 -212 -189 -488 -150 -632 25 -91 121 -174 219 -189 110 -17 299 45 452 147 97 65 318 284 394 392 64 91 192 311 207 356 6 20 22 59 34 86 12 28 30 69 40 93 10 24 32 55 49 69 28 23 36 25 101 20 38 -3 115 -13 170 -21 251 -39 375 -4 375 105 0 47 -35 98 -88 127 -24 14 -101 36 -180 52 -132 27 -207 53 -228 82 -6 7 -18 49 -27 92 -9 44 -27 95 -39 113 -35 52 -130 119 -213 150 -41 15 -75 33 -75 38 0 6 8 22 18 37 19 29 200 222 302 323 188 186 404 456 440 552 28 73 37 168 20 217 -16 48 -66 105 -107 122 -41 18 -137 17 -186 -1z m-748 -2183 c-123 -226 -308 -437 -479 -547 -64 -40 -161 -87 -168 -80 -13 12 74 201 130 283 83 123 190 234 303 314 91 64 246 136 253 117 2 -5 -15 -44 -39 -87z"/>
<path d="M9315 5941 c-149 -32 -280 -127 -305 -222 -16 -59 -6 -113 47 -254 24 -66 47 -141 50 -166 5 -41 2 -49 -27 -82 -18 -21 -78 -75 -134 -121 -179 -147 -225 -213 -226 -318 0 -81 48 -171 112 -211 62 -38 150 -47 234 -22 50 14 69 27 125 83 60 62 69 78 117 198 29 71 68 152 86 180 43 63 162 175 308 290 l116 92 18 -25 c39 -50 163 -66 334 -42 41 6 147 10 235 10 170 -1 424 14 490 29 22 5 60 11 85 14 95 11 270 84 324 134 59 55 73 136 31 177 -35 36 -114 34 -225 -6 -154 -56 -212 -68 -370 -80 -156 -11 -235 -9 -475 10 -195 16 -292 29 -375 51 -41 12 -93 25 -115 31 -89 24 -178 -5 -292 -96 -37 -30 -70 -51 -74 -47 -3 4 -14 29 -23 56 -18 57 -18 58 57 75 112 25 196 96 197 165 0 43 -53 91 -118 105 -69 15 -110 13 -207 -8z"/>
</g>
</svg>