<?xml version="1.0" standalone="no"?>
<!DOCTYPE svg PUBLIC "-//W3C//DTD SVG 20010904//EN"
 "http://www.w3.org/TR/2001/REC-SVG-20010904/DTD/svg10.dtd">
<svg version="1.0" xmlns="http://www.w3.org/2000/svg"
 width="300.000000pt" height="114.000000pt" viewBox="0 0 300.000000 114.000000"
 preserveAspectRatio="xMidYMid meet">
<metadata>
Created by potrace 1.10, written by Peter Selinger 2001-2011
</metadata>
<g transform="translate(0.000000,114.000000) scale(0.100000,-0.100000)"
fill="#000000" stroke="none">
<path d="M2029 993 c-1 -4 -2 -19 -3 -33 -1 -27 4 -25 -151 -66 -101 -27 -203
-68 -240 -97 -16 -13 -18 -18 -7 -28 10 -11 28 -5 95 28 82 41 246 98 255 89
5 -6 -46 -73 -74 -97 -11 -9 -41 -22 -69 -29 -101 -27 -260 -95 -263 -113 -5
-27 27 -21 124 24 53 25 90 37 92 30 6 -19 33 -12 81 18 25 17 66 34 91 40 60
12 170 24 170 18 0 -3 -23 -22 -50 -42 -28 -20 -48 -41 -44 -46 7 -12 36 3
100 52 57 44 87 48 202 28 49 -9 66 -16 69 -30 6 -22 43 -26 43 -4 0 37 -63
66 -173 80 l-47 6 27 40 c28 39 29 40 77 34 28 -3 53 -8 58 -11 13 -9 9 -24
-7 -24 -8 0 -15 -6 -15 -14 0 -17 44 -10 61 10 9 11 8 18 -2 30 -16 20 -63 44
-86 44 -10 0 -30 7 -45 14 -16 9 -30 11 -33 5 -4 -5 -46 -9 -95 -9 l-89 0 -3
28 c-2 19 -9 28 -25 30 -13 2 -24 0 -24 -5z m211 -94 c0 -6 -17 -29 -39 -50
-35 -36 -43 -39 -92 -39 -30 0 -71 -4 -91 -9 -20 -5 -39 -6 -42 -3 -3 2 11 26
32 53 33 42 42 48 82 51 99 9 150 8 150 -3z"/>
<path d="M1200 865 c-23 -28 -144 -103 -265 -163 -181 -91 -305 -123 -335 -87
-7 8 -16 15 -21 15 -12 0 -11 -37 1 -45 16 -10 1 -25 -23 -25 -33 0 -137 -53
-184 -94 -74 -65 -105 -164 -63 -206 15 -15 27 -19 48 -14 66 16 258 133 374
227 32 26 65 47 73 47 19 0 155 -52 155 -60 0 -3 -32 -25 -71 -50 -94 -60
-179 -149 -179 -188 0 -48 39 -58 170 -44 138 16 506 120 612 173 76 39 138
110 138 158 0 20 9 23 100 36 25 4 140 24 255 46 116 21 262 44 325 50 114 12
318 7 354 -7 14 -5 17 -3 14 12 -5 28 -70 36 -278 31 -156 -4 -214 -10 -370
-40 -102 -19 -237 -43 -301 -52 -115 -18 -116 -18 -145 3 -40 28 -133 45 -205
37 -67 -8 -75 2 -30 34 15 11 41 37 56 57 23 30 25 38 14 50 -18 17 -77 3
-212 -51 -92 -37 -137 -67 -137 -92 0 -20 18 -16 79 21 62 37 180 86 207 86
15 0 14 -4 -7 -26 -28 -30 -134 -113 -155 -121 -15 -6 -20 -43 -5 -43 5 0 30
10 57 22 59 26 207 36 272 19 45 -13 57 -31 20 -31 -48 0 -345 -30 -398 -40
-29 -6 -77 -18 -106 -27 -50 -15 -53 -15 -72 3 -12 11 -44 28 -72 38 -27 10
-50 21 -50 25 0 4 84 69 188 145 103 75 195 143 206 151 19 14 14 35 -8 35 -8
0 -19 -7 -26 -15z m-345 -260 c-48 -41 -75 -50 -112 -37 -26 9 -26 10 -8 17
11 3 45 17 75 30 78 33 91 30 45 -10z m-105 -73 c0 -18 -232 -178 -327 -225
-76 -38 -90 -41 -98 -17 -11 35 13 84 68 137 84 82 157 111 280 112 42 1 77
-3 77 -7z m845 -34 c-17 -56 -100 -112 -230 -156 -157 -53 -317 -100 -397
-116 -88 -18 -218 -21 -218 -6 0 33 104 128 200 183 85 49 214 80 385 93 44 3
105 10 135 14 30 4 72 8 93 9 35 1 38 -1 32 -21z"/>
<path d="M2120 541 c-77 -24 -193 -71 -205 -82 -5 -6 -5 -13 3 -21 9 -9 28 -4
79 19 78 35 142 57 149 50 8 -8 -70 -77 -193 -169 -68 -50 -123 -97 -123 -104
0 -22 16 -24 66 -9 63 20 241 45 322 45 63 0 78 11 43 30 -27 14 -98 12 -211
-5 -82 -12 -114 -13 -99 -2 2 2 47 36 101 75 99 74 178 157 171 180 -6 16 -37
14 -103 -7z"/>
<path d="M2355 516 c-5 -2 -36 -9 -67 -16 -47 -9 -58 -15 -58 -31 0 -23 18
-24 84 -4 57 17 104 19 126 5 12 -9 9 -15 -20 -39 -39 -33 -35 -44 26 -81 41
-26 52 -55 29 -81 -30 -33 -78 -35 -135 -5 -61 32 -69 14 -15 -33 51 -45 125
-41 175 9 31 31 26 74 -15 118 l-34 39 19 37 c19 39 18 61 -4 69 -20 8 -100
17 -111 13z"/>
</g>
</svg>
