<?xml version="1.0" encoding="UTF-8"?>
<svg width="382px" height="113px" viewBox="0 0 382 113" version="1.1" xmlns="http://www.w3.org/2000/svg" xmlns:xlink="http://www.w3.org/1999/xlink">
    <title>Untitled</title>
    <g id="Page-1" stroke="none" stroke-width="1" fill="none" fill-rule="evenodd">
        <path d="M17.4384514,19.1719027 C14.2060562,19.1719027 13.1878405,22.6151989 12.5049345,25.1633675 C8.45395669,33.8928078 8.04955424,33.419404 3.09708771,41.3579055 C0.955165995,44.9457243 0.482001849,46.6711656 0.482001849,49.8816495 C0.482001849,55.1192956 5.28133356,57.0967531 8.04955424,57.0967531 C15.2481078,57.0967531 22.4831365,50.9069145 27.1555744,47.9331774 C29.95287,49.8816495 46.0124974,54.3357261 53.0329973,54.3357261 C59.2537079,54.3357261 75.7432185,51.0076653 75.7432185,43.3475744 C75.7432185,40.008714 75.5133704,38.1343279 68.1201338,38.1343279 C63.5012213,38.1343279 60.4114422,40.9053798 60.4114422,44.3406354 C60.4114422,51.4086917 64.4932494,54.3357261 70.3862129,54.3357261 C73.1011136,54.3357261 75.7432185,53.6815377 75.7432185,51.9359311 C75.7432185,49.3324001 72.5357707,50.7032166 69.8396599,49.3333686 C68.4159411,48.6100013 66.3314812,45.7422178 66.3314812,44.3406354 C66.3314812,43.3475744 67.0710767,42.2023246 68.1201338,42.2023246 C69.3642951,42.2023246 69.8396599,42.8762281 69.8396599,43.3475744 C69.8396599,45.5659156 63.4526044,48.6100013 53.0329973,48.6100013 C48.7164162,48.6100013 42.4479209,47.1059944 34.2275114,44.0979804 C34.4463929,43.2696882 34.5558337,42.3563299 34.5558337,41.3579055 C34.5558337,40.2217074 33.0356168,38.4998812 30.4386567,38.4998812 C27.1555744,38.4998812 26.5513093,41.0122806 24.1076135,42.7170966 C18.8531964,46.3827797 13.3241401,50.7277852 10.0374118,50.7277852 C8.94541646,50.7277852 7.27386642,50.7277852 7.27386642,47.9331774 C7.27386642,45.7938104 14.6786825,34.9086679 20.1153523,23.6280959 C20.5877943,21.5446568 20.1153523,19.1719027 17.4384514,19.1719027 Z" id="Path-Copy" fill="#000000" fill-rule="nonzero"></path>
        <path d="M94.3966524,17.5812011 C92.9609329,17.5812011 91.8262592,18.0590345 91.3427764,19.801484 C91.0683149,20.7906306 91.1761902,21.3436502 90.4119965,22.7855271 C86.0235239,31.5393659 81.2942159,36.8782545 81.2942159,43.2120462 C81.2942159,45.2312177 80.2097419,49.3786586 83.1554747,49.8864236 C86.3434286,49.8864236 86.8488321,47.3410633 86.8488321,45.7564838 C86.3434286,41.3542132 86.5350242,40.4667822 87.7034751,37.649837 C88.871926,34.8328917 89.4010463,34.4772991 91.8262592,33.8498099 C92.7493327,33.6109778 94.2288426,33.261603 94.6040128,33.8498099 C94.8517685,34.2382511 94.2135442,35.5616928 92.8037075,38.7123792 C92.1941929,40.0745153 91.8431542,41.714966 92.326637,44.8459703 C92.6602063,47.0061445 93.4432396,49.3786586 95.6121959,49.3786586 C97.2253991,49.3786586 98.226807,47.6967622 98.226807,46.6378086 C98.226807,45.3652206 97.3623937,44.0500477 97.3623937,42.7090372 C98.4829876,37.712114 99.5342216,34.6186339 101.811108,32.4100539 C105.286055,30.7066681 109.801608,30.2929978 114.220406,30.2929978 C115.123491,30.2929978 115.981216,30.2929978 116.793582,30.2929978 L117.097265,30.0679351 C118.776933,30.0679351 120.135139,30.0679351 121.171884,30.0679351 C126.848939,30.0679351 128.725838,30.7066681 131.032224,30.7066681 C133.92769,30.3124517 134.957916,29.206546 134.957916,27.4595501 C134.957916,24.8970405 134.155456,24.2461765 131.671275,23.9485901 C120.584683,23.216799 115.420069,23.9485901 112.78542,24.7237062 C109.129765,24.794807 106.933989,25.2058021 106.49757,24.7237062 C106.049698,24.3400447 108.042095,20.1570058 109.129765,17.5812011 C109.749269,16.1141022 109.749269,13.5168304 107.784656,13.1571958 C104.964967,12.6410344 102.858374,19.0091576 102.315116,20.339601 C100.944619,23.6959602 101.186806,24.1016067 98.8308241,26.6403891 C97.6296177,27.1365096 93.9402433,28.299179 93.130774,27.9809638 C92.3826715,27.5512219 95.7861341,22.7522194 96.3993904,20.7406651 C96.9866545,18.8143684 95.9710653,17.5812011 94.3966524,17.5812011 Z" id="Path-2" fill="#000000" fill-rule="nonzero"></path>
        <path d="M183.02286,43.170644 C179.499443,44.3154512 177.20438,45.3735937 173.550909,45.3735937 C164.770392,45.3735937 158.890247,44.2447283 158.890247,38.1823599 C158.890247,33.4400993 165.687438,26.983493 172.011048,26.983493 C174.150291,26.983493 176.379182,28.1900425 176.379182,31.6020622 C176.379182,36.5813313 157.290206,48.9581565 148.295844,48.9581565 C143.413407,48.9581565 140.766939,47.0927856 138.246919,45.8330455 C135.335506,43.9544722 135.792797,40.8095131 136.169768,38.7162658 C133.10126,40.649626 123.848551,44.2747826 120.921553,44.2747826 C120.405293,45.2503234 117.046301,45.8330455 115.657644,45.8330455 C113.700192,45.8330455 109.54858,45.4886622 109.54858,43.6700141 C109.54858,40.9732206 111.664619,40.9732206 113.606621,40.5348158 C114.467462,40.3404819 115.798913,40.0459469 116.622295,39.7962952 C116.622295,39.3049554 115.278652,38.6019219 114.258428,36.7546327 C113.109864,34.674962 112.413932,34.0438649 112.413932,30.4519211 C112.413932,28.9164694 113.425813,27.8914549 115.449577,27.3768774 L121.546116,27.6997889 C118.57907,28.3414806 117.095547,29.258858 117.095547,30.4519211 C117.095547,32.0619526 117.650257,34.3858297 118.923639,35.704639 C120.120422,36.9441164 121.115828,37.9708248 121.429746,38.7162658 C124.37407,37.9829303 127.33378,37.0538127 130.308876,35.928913 C134.019383,33.5880821 136.539534,32.4176667 137.86933,32.4176667 C140.913585,32.4176667 141.882542,33.4425261 141.882542,34.9520434 C141.26314,38.7162658 137.86933,42.6982438 148.728193,42.6982438 C154.323891,42.6982438 170.07146,35.0525878 170.48471,32.8502274 C170.67303,31.5059995 169.302443,31.9382478 168.645167,31.9382478 C167.354203,32.0223305 165.706965,34.1760834 165.706965,34.9520434 C165.706965,35.3904944 165.171198,37.3010707 166.193931,38.7162658 C167.44985,40.4541278 171.093676,41.6883274 174.985452,41.5079004 C179.836821,40.9732206 184.333097,38.7608408 185.78892,37.6162626 C186.017689,36.6541123 185.479862,36.171426 186.134385,35.1723864 C189.051024,31.5910758 192.935141,29.9439249 195.608742,29.9439249 C200.079902,29.9439249 200.46009,31.2667408 201.402601,31.9382478 C202.900414,32.8857293 205.142731,35.5195584 208.520096,34.7427582 C210.78976,34.3955801 211.58813,35.5195584 211.58813,37.178391 C211.58813,38.7162658 210.253567,39.4146531 206.856291,39.4146531 C204.997255,39.4146531 203.246037,39.0747737 201.901359,38.4355481 C200.92974,37.9736655 198.804685,34.7427582 196.384553,34.9520434 C190.904715,35.928913 194.86979,40.5348158 190.592742,40.9732206 C188.938516,40.5338479 188.377529,40.5338479 183.02286,43.170644 Z" id="Path-3" fill="#000000" fill-rule="nonzero"></path>
        <path d="M155.18798,14.6110458 C153.358091,14.6110458 151.875424,13.4561707 151.875424,10.5303518 C151.875424,8.40359493 153.764107,0.78184537 155.18798,0.4363794 C157.593191,-0.147183094 157.604711,3.72750753 157.604711,7.52371262 C157.604711,13.6800762 155.90055,14.6110458 155.18798,14.6110458 Z" id="Path-4" fill="#000000" fill-rule="nonzero"></path>
        <path d="M323.232115,98.8787446 C322.478705,98.4254292 321.93027,98.7416954 321.39898,100.710348 C320.86769,102.679001 319.271223,104.984011 318.628493,104.984011 C317.829347,104.984011 318.372377,103.101973 318.628493,99.3737876 C320.071446,78.369259 365.902584,22.4671698 373.09865,20.6437741 C373.273535,20.6437741 374.944466,19.5689842 376.133664,19.5491118 C377.190923,19.5314442 377.23748,20.6437741 376.133664,22.1311859 C371.965175,26.3862919 362.724999,32.12959 347.930694,32.12959 C344.899294,32.12959 338.443642,29.4274283 336.126959,25.4175121 C333.926528,21.6088139 332.667008,22.1311859 326.210432,22.6258167 C322.878565,22.8810672 319.753967,22.8138639 315.286193,24.7124774 C313.651407,25.4071918 311.247778,26.7222758 308.240384,26.983493 C304.740041,26.7222758 301.143208,24.4697448 296.23542,22.1311859 C293.113882,20.6437741 288.098297,18.6709741 281.874075,18.6709741 C276.057307,18.6709741 275.867984,21.641819 275.867984,25.4175121 C275.867984,28.496044 283.795052,38.8328072 293.844354,38.8328072 C297.773477,38.8328072 302.912816,34.9482233 302.912816,30.0231055 C302.912816,27.1396351 291.950956,19.5491118 284.084752,19.5491118 C277.786194,19.5491118 271.375681,21.0470091 270.021817,21.0470091 C268.524624,21.0470091 265.51211,21.155335 263.790613,20.6437741 C260.103083,19.5479857 260.146896,19.0245795 256.359419,19.0245795 C253.885875,19.0245795 249.045804,19.5491118 249.045804,23.6473154 C249.045804,26.983493 255.451502,26.7222758 256.029357,26.7222758 C263.614301,26.7222758 264.131094,29.6923147 264.131094,30.93814 C264.131094,36.9655274 251.53303,30.4470516 251.53303,28.8777456 C251.53303,27.1462218 252.248052,26.983493 252.248052,25.4175121 C252.248052,22.2779515 250.773482,21.3473864 247.824342,22.6258167 C241.817301,24.486947 237.402818,25.9395057 234.580895,26.983493 C230.348011,28.5494739 225.112823,32.12959 223.370534,32.12959 C221.362431,32.12959 220.674327,30.8777885 220.674327,29.4274283 C220.674327,27.8080471 223.370534,24.3150232 225.900476,21.6433594 C228.65534,18.7341739 230.919705,17.2727432 230.919705,15.0332553 C230.919705,13.4024482 229.243674,10.6033677 227.091797,10.6033677 C226.297583,10.6033677 225.594253,11.5330752 224.981808,13.3924902 L221.362431,19.0245795 C217.662934,23.8891281 215.813186,27.7609606 215.813186,30.6400769 C215.813186,34.408243 219.590435,37.3955367 222.041599,37.3955367 C225.0878,37.3955367 226.702126,37.0924782 229.882494,35.2417971 C233.091964,33.3741818 238.922666,30.3524356 243.491994,30.0231055 C244.730532,30.0231055 245.998183,30.6400769 246.404973,31.2689309 C248.666997,34.7657795 256.06712,38.3184342 260.154908,38.3184342 C266.892676,38.3184342 268.490002,34.391015 268.490002,28.4537995 C268.490002,25.9275992 265.572635,24.6261197 264.131094,24.0484875 C265.676938,24.0484875 268.440451,23.8357375 271.329036,23.6473154 C275.875946,23.3507208 283.709378,24.7235863 290.208339,27.3621553 C293.626597,28.7499632 296.91806,28.7722892 296.91806,30.93814 C296.91806,32.4576367 295.804381,32.7884275 293.474204,32.7884275 C289.035459,32.7884275 281.874075,27.885396 281.874075,26.1982575 C281.874075,20.7501994 302.720671,29.3239693 304.761305,30.6400769 C306.80194,31.9561845 308.240384,35.9936464 310.881513,35.9936464 C312.616589,35.9936464 313.673842,34.3631775 315.286193,32.5150934 C317.460314,30.0231055 322.28984,28.3331298 327.899479,27.8104936 C329.580095,27.6539148 330.456825,27.3971739 330.871817,28.5538665 C331.840377,30.6603509 337.593598,36.9875565 345.956447,36.9875565 C348.910112,36.9875565 350.866742,36.9875565 354.604897,36.9875565 C367.998253,36.9875565 381.297898,26.7222758 381.297898,18.6709741 C381.297898,16.0306855 381.034028,14.2557144 377.23748,14.2557144 C364.542542,14.2557144 312.616589,72.2750104 312.616589,105.873022 C312.616589,109.326019 312.616589,112.710548 314.311988,112.710548 C317.592291,112.710548 323.818097,108.505477 324.957687,102.240516 C324.957687,100.139069 324.490712,99.636023 323.232115,98.8787446 Z" id="Path-5" fill="#000000" fill-rule="nonzero"></path>
    </g>
</svg>