<?xml version="1.0" standalone="no"?>
<!DOCTYPE svg PUBLIC "-//W3C//DTD SVG 20010904//EN"
 "http://www.w3.org/TR/2001/REC-SVG-20010904/DTD/svg10.dtd">
<svg version="1.0" xmlns="http://www.w3.org/2000/svg"
 width="450.000000pt" height="265.000000pt" viewBox="0 0 450.000000 265.000000"
 preserveAspectRatio="xMidYMid meet">
<metadata>
Created by potrace 1.10, written by Peter Selinger 2001-2011
</metadata>
<g transform="translate(0.000000,265.000000) scale(0.050000,-0.050000)"
fill="#000000" stroke="none">
<path d="M5891 5075 c-4 -14 -22 -92 -40 -175 -19 -82 -46 -190 -62 -240 -40
-131 -78 -519 -52 -545 11 -11 45 -14 77 -6 51 13 53 16 21 40 -47 34 -45 146
6 443 55 315 88 347 72 68 -30 -501 180 -837 338 -541 103 192 122 130 178
-569 l27 -340 -123 -131 c-71 -75 -178 -227 -253 -357 -71 -124 -159 -268
-195 -319 -111 -158 -111 -191 1 -144 35 14 146 56 247 91 343 121 395 197
396 582 1 243 18 308 81 308 18 0 20 -22 8 -85 -24 -124 -22 -399 4 -472 51
-146 138 -112 266 103 l68 116 15 -66 c44 -208 189 -142 374 170 l85 144 10
-138 c16 -224 89 -231 192 -20 71 146 79 146 78 -3 0 -228 83 -225 286 11 456
533 489 556 424 295 -21 -85 -44 -202 -51 -260 -6 -58 -22 -126 -35 -151 -17
-37 -16 -50 6 -64 38 -23 80 13 80 67 0 24 23 151 50 283 63 302 65 370 9 370
-74 0 -213 -116 -392 -326 -299 -349 -327 -368 -327 -226 0 73 54 272 82 301
31 32 20 71 -20 71 -26 0 -75 -63 -165 -210 -70 -115 -134 -210 -142 -210 -34
0 -12 177 35 277 124 267 -21 158 -291 -217 -183 -256 -219 -269 -219 -80 0
95 13 142 70 251 38 73 65 142 59 151 -33 53 -79 -2 -190 -226 -222 -446 -300
-513 -315 -269 -7 112 2 204 48 458 16 92 -10 97 -118 24 -92 -63 -88 -77
-103 311 -12 316 -25 414 -82 610 -43 147 -83 146 -177 -4 -39 -62 -74 -123
-78 -135 -12 -33 -72 26 -119 118 -38 72 -44 120 -50 441 -3 198 -11 380 -16
405 -10 48 -65 62 -78 20z m589 -2104 c0 -326 -68 -432 -355 -550 -171 -71
-214 -78 -166 -30 10 10 68 107 129 215 132 233 324 494 364 494 21 0 28 -31
28 -129z"/>
<path d="M2072 4615 c-213 -216 -403 -473 -648 -878 -260 -428 -656 -907 -919
-1111 -36 -28 -65 -63 -65 -78 0 -158 517 372 841 862 194 294 202 298 74 40
-307 -618 -382 -994 -214 -1081 55 -28 67 -28 123 0 84 42 84 37 16 -103 -117
-239 -305 -799 -339 -1006 -55 -341 -15 -556 99 -526 120 32 320 416 550 1056
40 110 93 254 120 320 26 66 97 251 156 410 120 319 295 726 307 714 6 -7
-139 -396 -195 -524 -107 -241 -168 -881 -98 -1020 102 -202 220 -44 461 616
55 150 61 140 27 -46 -63 -341 -34 -622 65 -636 58 -8 99 54 257 387 152 320
178 333 94 45 -33 -113 -71 -255 -84 -316 -68 -313 -151 -641 -231 -913 -49
-167 -89 -318 -89 -337 0 -51 64 -28 82 30 8 28 35 118 59 200 175 600 332
1037 493 1374 71 147 149 248 107 138 -29 -76 -27 -358 3 -388 45 -45 94 -25
140 56 40 69 53 79 99 69 44 -9 65 3 129 77 l77 89 31 -123 c50 -202 166 -152
268 115 41 107 73 124 139 72 69 -54 132 -49 234 20 62 41 95 53 112 38 25
-21 67 33 67 87 0 15 33 76 74 136 41 61 117 191 170 290 52 99 95 173 96 165
0 -8 -18 -81 -41 -163 -110 -400 21 -576 217 -292 68 99 71 98 99 -8 24 -88
75 -130 112 -93 13 13 9 33 -15 59 -63 70 -64 185 -1 300 44 82 51 108 31 128
-29 29 -59 -4 -133 -149 -62 -121 -234 -309 -265 -289 -38 23 -28 145 36 412
33 138 60 269 60 293 0 40 71 217 131 330 78 143 10 196 -97 75 -224 -254
-514 -864 -514 -1083 0 -36 -133 -160 -221 -206 -85 -44 -125 -9 -64 56 118
127 184 355 102 355 -60 0 -130 -90 -182 -235 -37 -103 -53 -125 -90 -125 -35
0 -59 -29 -113 -135 -108 -212 -124 -228 -152 -155 -35 89 -12 252 49 348 119
188 457 916 439 945 -30 49 -84 -3 -248 -241 -119 -172 -300 -612 -300 -727 0
-47 -65 -162 -137 -240 -102 -111 -111 -52 -19 134 35 71 57 136 49 145 -31
30 -83 -32 -137 -163 -58 -141 -156 -311 -180 -311 -82 0 30 473 132 558 38
32 43 102 6 102 -97 0 -383 -451 -505 -795 -20 -58 -43 -105 -51 -105 -18 0
-12 24 83 370 107 388 113 430 66 430 -46 0 -126 -128 -307 -488 -72 -142
-141 -262 -154 -267 -84 -28 -30 650 75 931 49 131 49 144 0 144 -50 0 -49 1
-228 -444 -299 -741 -373 -814 -373 -367 0 498 218 1117 691 1965 26 46 84
142 129 214 84 133 91 190 20 152 -65 -35 -339 -449 -506 -764 -59 -112 -99
-198 -284 -606 -45 -100 -259 -636 -530 -1330 -340 -870 -534 -1046 -440 -400
33 227 296 990 478 1387 45 97 96 209 114 250 18 40 63 139 100 219 37 80 68
150 68 154 0 5 41 95 90 201 50 106 85 201 79 211 -33 52 -75 -10 -198 -287
-325 -732 -429 -915 -523 -915 -169 0 -86 429 192 990 128 258 159 312 430
748 120 191 289 400 419 516 79 70 112 114 104 135 -22 57 -59 32 -281 -194z
m2779 -1340 c-39 -83 -82 -164 -96 -178 -30 -31 -129 -189 -196 -312 -72 -132
-67 -87 10 97 67 158 241 466 309 545 55 65 44 4 -27 -152z m-991 -509 c-160
-325 -218 -369 -70 -53 108 231 189 374 204 360 6 -6 -55 -144 -134 -307z
m787 66 c-31 -61 -62 -112 -70 -112 -17 0 17 80 74 174 59 98 57 63 -4 -62z
m-487 -302 c-37 -98 -87 -180 -94 -156 -11 32 79 206 106 206 4 0 -2 -23 -12
-50z"/>
<path d="M3689 4039 c-25 -42 122 -159 200 -159 51 0 35 60 -23 81 -29 12 -66
38 -81 60 -30 43 -75 51 -96 18z"/>
<path d="M8489 2919 c-41 -66 87 -89 241 -42 l60 18 -50 11 c-113 26 -239 32
-251 13z"/>
<path d="M3660 596 c1 -54 38 -89 60 -56 10 17 17 39 13 50 -10 31 -73 36 -73
6z"/>
</g>
</svg>
