<?xml version="1.0" encoding="UTF-8"?>
<svg width="600" height="245" version="1.1" xmlns="http://www.w3.org/2000/svg">
 <path d="m493.43 11.83c-0.34558 5e-3 -0.69021 0.13262-1.0038 0.42106-0.71663 0.6593-1.2891 2.1505-1.934 4.3578-0.64499 2.2072-1.3576 5.1319-1.1262 9.5919 0.0431 0.82954 0.11432 1.7115 0.21535 2.6342-1.0777 5.4919-2.5483 13.257-4.6858 22.626-2.208 9.6775-5.1256 21.064-7.2809 29.329-5.6669 0.59349-11.295 1.3848-16.692 2.267-8.9437 1.462-17.252 3.1792-24.619 4.8131-7.367 1.6339-13.791 3.1839-18.063 4.4165-4.2712 1.2326-6.3897 2.1479-7.7656 3.2658-1.376 1.118-2.0089 2.4393-2.0662 4.4459-0.0574 2.0066 0.45956 4.6984 2.0075 7.7656 1.5479 3.0672 4.1254 6.5073 6.992 9.6605 2.8666 3.1532 6.0203 6.0224 10.463 8.975 4.4432 2.9526 10.176 5.9901 15.335 8.6273 5.1598 2.6373 9.7488 4.8727 13.303 6.6786 2.0522 1.0427 3.7585 1.9406 5.1999 2.7077-0.18501 0.89332-0.35014 1.7636-0.49943 2.6244-0.85998 4.9592-1.1477 9.6591-0.83237 12.956 0.31532 3.2966 1.2344 5.1871 2.4384 6.2477 1.204 1.0606 2.6915 1.289 4.0101 0.94499 1.3186-0.34398 2.4661-1.259 3.5841-2.6636 1.118-1.4046 2.2093-3.2982 3.0406-5.1901 0.83132-1.8919 1.4052-3.7837 1.2045-5.905-0.20055-2.1213-1.1781-4.4714-3.07-6.6786-1.092-1.274-2.4901-2.4999-4.0444-3.7114 0.82929-3.6586 2.0103-8.3914 3.6282-14.498 2.3506-8.872 5.626-20.64 8.3532-30.754 0.87915-3.2603 1.7009-6.3489 2.4873-9.3226 6.7795-0.58735 14.136-1.1462 20.736-1.5081 10.979-0.60199 19.865-0.66083 28.551-0.25949 8.6857 0.40131 17.17 1.2644 23.791 2.2964 6.6218 1.032 11.383 2.234 14.508 3.4666 3.1246 1.2326 4.6141 2.4923 5.4741 4.0689 0.85998 1.5766 1.0906 3.4697-0.14189 5.763-1.2326 2.2933-3.9315 4.986-9.4352 8.3972-5.5038 3.4112-13.814 7.539-20.78 10.635-6.9657 3.0959-12.586 5.1623-16.829 6.9969-4.2425 1.8346-7.1053 3.4371-8.7106 4.8131-1.6053 1.376-1.9522 2.5258-1.8949 4.0738 0.0574 1.548 0.51607 3.4939 1.7774 4.9845 1.2613 1.4906 3.3276 2.5226 6.7961 3.1532 3.4685 0.63064 8.3391 0.86326 14.273 1.1212 5.9338 0.25798 12.931 0.54207 18.836 0.48474 5.9051-0.0574 10.72-0.45972 15.135-0.83238 4.4145-0.37265 8.4243-0.71289 11.09-1.0282 2.6659-0.31533 3.9845-0.60377 4.5291-0.86176 0.54463-0.25799 0.31783-0.48489-0.68549-0.88625-1.0033-0.40136-2.7799-0.9775-6.2771-1.6941-3.4972-0.71665-8.7157-1.5755-15.423-2.1201-6.7078-0.54465-14.903-0.77371-21.353-0.97439-6.4498-0.20055-11.151-0.37433-13.387-0.661-2.236-0.28664-2.0085-0.6886-1.0625-1.4053 0.94596-0.71663 2.6058-1.7463 4.8131-2.6636 2.2072-0.91729 4.9639-1.7222 8.8624-3.4421 3.8985-1.7199 8.9395-4.3556 14.013-7.2221 5.0738-2.8666 10.18-5.9643 13.734-8.7449 3.5546-2.7806 5.5593-5.2445 6.8206-8.0251 1.2613-2.7806 1.7764-5.8741 1.3465-8.7693-0.42996-2.8952-1.8064-5.5891-4.157-7.8537-2.3506-2.2646-5.675-4.1017-12.182-5.621-6.507-1.5193-16.195-2.724-24.795-3.3834-8.5997-0.65932-16.11-0.77301-24.423-0.94499-4.7361-0.098-9.7338-0.21359-14.885-0.20556 0.0895-1.9855-0.18401-5.1254-0.42109-9.2247-0.28666-4.9592-0.516-11.323-0.7883-17.343-0.27233-6.0198-0.58747-11.693-1.2878-17.485-0.34056-2.817-0.77556-5.665-1.2388-8.1916 0.0787-0.60131 0.15042-1.1782 0.20557-1.7284 0.50163-4.9878 0.01-7.7937-0.53373-9.7143-0.54463-1.9206-1.1443-2.9528-1.8753-3.5548-0.41118-0.33861-0.86301-0.5435-1.3073-0.53859zm-117.73 24.32c-0.46223-0.0251-0.89656 0.0787-1.3122 0.29377-0.83133 0.42998-1.5756 1.2911-2.3209 2.409-0.74528 1.118-1.4927 2.4944-3.0406 5.7336-1.5479 3.2392-3.8985 8.3418-6.1057 14.19-2.2073 5.8478-4.2712 12.44-6.1058 19.262-1.8346 6.8224-3.4376 13.876-4.2402 17.402-0.80261 3.5258-0.80309 3.5264-1.0037 4.3577-0.20056 0.83127-0.60395 2.4903-1.2632 5.9588-0.14917 0.78457-0.30996 1.6654-0.47985 2.6048-2.6709-3.0711-5.4501-6.0907-8.2357-9.0533-4.9592-5.2745-9.9469-10.376-13.788-14.16-3.8412-3.7839-6.5359-6.249-8.0839-7.4816-1.548-1.2326-1.949-1.2345-2.551-1.0625-0.19404 0.0554-0.40542 0.13212-0.63164 0.22513-0.27404-1.0846-0.58873-2.1276-0.94499-3.1582-1.1351-3.2837-2.7154-6.445-4.6613-9.303-1.9459-2.858-4.2573-5.4146-6.5073-7.178-2.2499-1.7635-4.4368-2.7374-6.3016-3.163-1.8648-0.42567-3.4052-0.30296-5.5133 0.54839-2.108 0.85133-4.7858 2.4356-7.6236 5.2733-2.8378 2.8378-5.8372 6.9308-8.407 10.478-2.5698 3.5474-4.7101 6.5456-7.6432 12.03-2.9331 5.4847-6.6582 13.457-9.3814 21.426-2.7232 7.969-4.4416 15.936-5.8462 23.561-1.4046 7.6251-2.4945 14.907-2.9819 22.675-0.48732 7.7684-0.37338 16.022-0.19102 22.655 0.1825 6.6329 0.43475 11.643 0.94498 16.114 0.51024 4.4712 1.2792 8.4045 1.9683 12.54 0.68915 4.135 1.2948 8.4739 1.3759 11.859 0.081 3.385-0.36198 5.8146-0.80791 7.4767-0.44593 1.6621-0.89347 2.5556-2.1299 3.1435-1.2364 0.5878-3.2607 0.87234-5.7336 0.99395-2.4729 0.12159-5.3932 0.08-7.5012-0.4064-2.108-0.48647-3.4058-1.4207-4.3381-2.4139-0.9324-0.99322-1.4984-2.0463-1.6403-3.3638-0.14189-1.3175 0.14114-2.9007 0.0201-3.8534-0.12159-0.95265-0.65095-1.2746-1.2388-1.5178-0.58782-0.24317-1.2371-0.40755-1.8655-0.0832-0.62836 0.32432-1.2341 1.1349-1.5179 2.4727-0.28378 1.3378-0.24317 3.2057 0.14189 5.1314 0.38512 1.9256 1.1161 3.9086 2.5755 5.7532 1.4594 1.8445 3.6477 3.5486 6.4044 4.7446 2.7567 1.1959 6.0774 1.8844 9.3814 1.9047 3.304 0.02 6.5876-0.62721 9.2835-2.2082 2.6958-1.581 4.8077-4.0944 5.9833-6.3848 1.1756-2.2905 1.4177-4.3556 1.1947-7.0312-0.22311-2.6756-0.91127-5.9627-1.6207-10.199-0.70943-4.2364-1.4422-9.4248-1.9928-13.215-0.55064-3.7904-0.92164-6.1821-1.4689-10.885-0.54727-4.7026-1.2337-11.363-0.96457-20.031 0.26912-8.668 1.5667-18.64 3.3099-27.924s3.9317-17.88 5.6748-24.447c1.7432-6.5673 3.0412-11.105 5.6357-16.457 2.5945-5.3512 6.4867-11.513 9.8514-16.256 3.3648-4.7431 6.2007-8.0674 8.7546-10.297 2.554-2.2296 4.825-3.3678 6.6492-3.9758 1.8243-0.60805 3.2035-0.68682 4.9061 0.36724 1.7026 1.054 3.7309 3.2396 5.4741 6.4827s3.2015 7.5447 4.0933 11.477c0.89186 3.9323 1.2151 7.4967 1.3367 10.821 0.12158 3.3242 0.0424 6.4062-1.2143 10.703-1.2567 4.2972-3.6926 9.81-6.5709 15.242-2.8783 5.4323-6.2007 10.786-9.7682 15.894-3.5674 5.1079-7.3756 9.9696-9.6458 12.706-2.2702 2.7364-3.0034 3.3433-3.6723 3.9514-0.6689 0.60808-1.276 1.217-2.4922 2.0075-1.2162 0.79051-3.0408 1.7632-4.1962 2.4727-1.1554 0.70943-1.6432 1.1562-1.8459 2.0075-0.20281 0.85133-0.12134 2.1071 0.42598 3.3638 0.54726 1.2567 1.5648 2.5166 2.6391 3.2463 1.0743 0.72969 2.2078 0.93182 3.5254 0.16144 1.3175-0.77025 2.8191-2.5123 4.015-4.0933 1.1959-1.581 2.0849-3.0036 3.7065-4.9698s3.9738-4.4788 6.7912-8.2895c2.8175-3.8107 6.1008-8.9199 9.729-14.758 3.6282-5.8377 7.5989-12.404 10.072-17.877 2.4729-5.4728 3.448-9.8496 3.8534-14.836 0.34413-4.2326 0.27802-8.9029-0.01-12.97 2.7441 2.7549 6.9581 6.3976 11.653 10.503 5.2458 4.5865 11.092 9.75 15.507 14.336 1.2429 1.2913 2.3722 2.5363 3.4128 3.7457-0.19128 1.1708-0.37303 2.3319-0.5435 3.447-0.68797 4.5005-1.1472 8.2302-1.2045 14.709-0.0125 1.3129-8e-3 2.7379 0.01 4.2304-0.16621 0.13111-0.33352 0.25714-0.49943 0.38193-3.4685 2.6086-6.8496 3.8126-9.2002 4.9306-2.3506 1.118-3.6671 2.1492-4.6417 3.1239-0.97465 0.97462-1.6054 1.8933-1.7774 3.0112-0.17197 1.118 0.11081 2.4346 0.62673 3.4666 0.51598 1.032 1.2629 1.7768 2.0369 2.1495 0.77396 0.37268 1.5791 0.37614 2.4678-0.0539 0.88863-0.42998 1.8604-1.2916 3.0357-2.0369 1.1753-0.74531 2.5506-1.3759 4.9012-2.9525 0.95937-0.64345 2.0804-1.4444 3.2903-2.3894 0.10479 2.9582 0.23214 5.8156 0.35255 8.265 0.31532 6.4212 0.60251 10.034 1.2045 13.617 0.60196 3.5832 1.519 7.1372 2.551 9.6311 1.032 2.4939 2.1745 3.9288 3.3785 4.9894s2.4692 1.7489 4.1031 2.1789c1.6339 0.42998 3.638 0.60143 5.2146 0.3721 1.5766-0.22938 2.7217-0.86043 4.2696-2.5804 1.548-1.7199 3.4995-4.5287 5.0188-8.2552 1.5193-3.7265 2.6062-8.3724 2.4628-13.675-0.14339-5.3031-1.5165-11.263-3.0357-16.251-1.5193-4.9878-3.1818-9.0038-5.905-13.906-0.71071-1.2793-1.4939-2.6188-2.3404-4.0003 2.2116-3.1353 4.3285-6.413 6.1792-10.072 2.4939-4.9305 4.5032-10.548 6.0225-15.536 1.5193-4.9878 2.5492-9.347 3.2658-16.829 0.71665-7.4817 1.1192-18.086 1.2339-25.711 0.11457-7.6251-0.0574-12.272-0.2008-15.11-0.1434-2.8379-0.25561-3.8672-0.88625-5.0138-0.63062-1.1466-1.7785-2.41-2.8105-3.0406-0.51597-0.31532-1.0067-0.46945-1.4689-0.49452zm116.99 11.746c0.52565 3.3694 0.97657 6.6343 1.3808 9.9787 0.62849 5.2003 1.1433 10.591 1.8312 14.748 0.49984 3.0198 1.091 5.387 1.7284 7.0067-2.91 0.0349-5.8629 0.11908-8.8379 0.27418-1.5283 0.0797-3.0608 0.17774-4.5976 0.29379 0.84521-3.2185 1.6702-6.3578 2.5069-9.5087 2.0538-7.7342 4.1779-15.528 5.9882-22.792zm-258.2 2.6881c-0.7668-0.0359-1.5157 0.0484-2.218 0.22036-1.4046 0.34397-2.609 1.0354-5.5329 2.8986s-7.5687 4.9007-11.467 8.4266c-3.8986 3.5259-7.0502 7.5398-10.576 12.442-3.5259 4.9018-7.4272 10.693-10.953 17.171-3.5259 6.4784-6.6792 13.644-9.4597 21.04-2.7806 7.3957-5.1858 15.019-6.3897 18.831-1.2039 3.8125-1.2047 3.813-1.606 5.7336-0.40131 1.9206-1.2062 5.7624-1.8655 10.664-0.65932 4.9018-1.1743 10.865-0.94501 17.171 0.0714 1.9658 0.21635 3.9645 0.43089 5.9294-2.0581 0.41257-3.9532 0.25267-5.2636 0.0344-1.3378-0.22287-2.0667-0.50808-2.6342-0.83238-0.56757-0.32432-0.97068-0.68918-1.6599-1.8851-0.68918-1.1959-1.6626-3.223-2.4531-4.9257-0.79051-1.7027-1.4001-3.0783-1.9879-3.8485-0.5878-0.77022-1.1545-0.93373-1.6207-0.83237-0.46619 0.10128-0.83085 0.46498-1.6011 1.1947-0.77026 0.72972-1.9477 1.8246-3.2854 3.1826-1.3378 1.3581-2.838 2.9788-4.0542 4.5193-1.2162 1.5405-2.1486 3.0023-2.8986 4.1374-0.74997 1.1351-1.3186 1.946-2.4335 2.8986s-2.7771 2.0471-3.9122 2.6146c-1.1351 0.56754-1.7413 0.60753-2.0858 0.1617-0.34457-0.44594-0.42672-1.3784 0.46516-2.8986 0.89189-1.5202 2.7571-3.6302 4.3382-5.3125 1.581-1.6824 2.8814-2.9358 4.1178-4.0101 1.2364-1.0743 2.4111-1.9699 3.3638-3.0847s1.6837-2.4498 1.7039-3.7065c0.0201-1.2567-0.66927-2.4319-1.4395-3.0602-0.77022-0.62833-1.6257-0.71159-2.7811-0.0832-1.1554 0.62839-2.6101 1.9659-4.0493 3.3442-1.4392 1.3783-2.86 2.7964-3.5694 3.5058-0.70941 0.70943-0.71129 0.70916-1.5423 1.4591-0.83105 0.74997-2.4892 2.2518-4.0297 4.299-1.5405 2.0472-2.9622 4.6415-3.6918 7.1144-0.72969 2.4729-0.76842 4.8244-0.34274 6.8108 0.42567 1.9864 1.3165 3.6058 2.3502 4.5585 1.0338 0.95268 2.2094 1.2365 3.7702 1.0136 1.5608-0.22287 3.5071-0.95151 5.3517-2.2082 1.8446-1.2567 3.5854-3.0403 5.288-4.4997 1.7026-1.4594 3.366-2.5916 4.4606-3.5645 1.0946-0.97293 1.6208-1.7843 1.7627-2.5951s-0.10078-1.6219-0.1617-2.3111c-0.0609-0.68915 0.0619-1.2602 0.54839-1.9292 0.48647-0.66889 1.3379-1.435 2.0271-2.0026 0.68918-0.56755 1.2174-0.93243 1.5619-1.0135 0.34455-0.0812 0.50579 0.12084 0.60715 0.74915 0.10128 0.62836 0.14139 1.6817 0.44556 2.9182 0.30404 1.2365 0.86844 2.6539 1.3954 3.6674 0.52703 1.0135 1.0157 1.6202 1.9683 1.9243s2.3732 0.30778 4.015 0.32806c1.6418 0.02 3.5062 0.0572 4.9453-0.18602 1.1693-0.19754 2.0562-0.57895 3.6429-1.131 0.46215 2.6666 1.0677 5.1557 1.8068 7.2711 0.22713 0.65002 0.46396 1.2628 0.71485 1.8459-0.27187 0.94636-0.54142 1.901-0.81279 2.8595-2.2094 7.8038-4.3594 15.832-5.6161 21.284-1.2567 5.4525-1.6208 8.3293-1.7627 11.066s-0.0622 5.3298 0.18125 6.85c0.24317 1.5202 0.65027 1.9664 1.2584 2.1691 0.60811 0.20281 1.4156 0.16244 2.125-0.44556 0.70943-0.60811 1.3203-1.7818 1.8067-3.971 0.48647-2.1891 0.84849-5.3922 1.8214-11.007 0.97296-5.6147 2.5557-13.642 4.157-20.29 0.19704-0.81788 0.39597-1.6137 0.59246-2.3894 0.608 0.73814 1.2269 1.4165 1.841 2.0614 2.2933 2.4079 4.5256 4.3561 6.1596 5.4741 1.6339 1.118 2.6688 1.403 3.2708 1.1164 0.60199-0.28667 0.77016-1.1474 0.82749-1.8068 0.0574-0.65929-2e-4 -1.1166-0.40151-1.7186-0.40131-0.60199-1.1456-1.347-2.3209-2.551-1.1753-1.204-2.781-2.8666-4.157-4.7299-1.2515-1.6947-2.3126-3.5523-3.163-5.4496 0.61169-2.1423 1.1626-4.0071 1.606-5.572 0.74511-2.6298 1.1844-4.4193 1.7284-5.9686 1.9561-0.90452 3.3294-1.8681 4.5878-2.9868 0.69662-0.61924 1.361-1.2876 1.9488-1.9683 0.22386 0.079 0.46255 0.13537 0.69038 0.17624 0.71663 0.12885 1.3169 0.12835 1.7039 0.3721 0.38697 0.24367 0.56057 0.7326 0.46025 1.2486-0.10028 0.51598-0.47406 1.0606-0.83238 1.5766-0.35831 0.51598-0.70454 1.003-1.0772 1.5619-0.37265 0.55899-0.77095 1.1895-1.0576 2.7518-0.28667 1.5623-0.46115 4.0555-0.10279 6.2771 0.35832 2.2216 1.2477 4.1697 2.3943 5.2733 1.1466 1.1036 2.5544 1.3594 4.0738 1.2877 1.5193-0.0717 3.1494-0.46914 4.769-0.82748 1.6196-0.35832 3.2279-0.6773 5.0481-1.9242 1.8203-1.247 3.856-3.4258 5.7336-5.1314 1.8776-1.7056 3.5954-2.9354 4.6418-3.824 1.0463-0.88863 1.4182-1.4336 1.5472-2.1789 0.1291-0.74528 0.015-1.6906-0.17148-2.3356-0.18626-0.64498-0.44327-0.98989-0.74423-1.2192-0.30096-0.22939-0.64616-0.34338-1.0331-0.17148-0.38697 0.17198-0.81618 0.63155-1.3465 1.2192-0.53032 0.58764-1.1615 1.3013-2.7811 2.6342-1.6196 1.3329-4.2285 3.2829-6.1204 4.5585-1.8919 1.2756-3.0687 1.8793-4.0003 2.2376-0.93162 0.35831-1.6175 0.47148-2.2768 0.52881-0.6593 0.0574-1.2904 0.0579-1.792-0.37213-0.50164-0.42999-0.87602-1.2922-0.661-2.6538 0.21509-1.3616 1.0205-3.2213 1.6941-5.1705 0.67363-1.9493 1.2165-3.9849 1.5032-5.5329 0.28665-1.5479 0.31578-2.6101 0.21535-3.4127-0.10028-0.80267-0.32826-1.3467-0.72957-1.748-0.40133-0.40131-0.97757-0.65914-1.8949-0.38682-0.91731 0.27233-2.1771 1.076-2.8938 1.6207-0.71663 0.54463-0.88737 0.83164-1.131 0.80299-0.24367-0.0286-0.55729-0.37614-0.9156-0.73445-0.17423-0.17424-0.36203-0.34809-0.55819-0.49943 0.27215-0.9031 0.35789-1.7199 0.3917-2.3698 0.0516-0.99269-0.015-1.6029-0.33294-2.1103-0.31813-0.50742-0.88893-0.91297-1.6794-1.1359-0.79053-0.22287-1.8021-0.26115-3.0994 0.36721-1.2973 0.62839-2.88 1.9245-4.157 3.2218-1.2585 1.2785-2.2198 2.5594-3.7996 6.8451-0.50555 0.25961-1.0131 0.51126-1.513 0.75892-0.20833 0.10328-0.41653 0.20807-0.62182 0.30848 0.0125-1.2808 0.0644-2.6879 0.16144-4.25 0.31533-5.0738 1.1189-11.785 2.0075-17.289s1.8599-9.8001 4.9845-18.371 8.3985-21.413 12.784-30.328c4.3859-8.915 7.8844-13.906 10.694-17.661 2.8092-3.7552 4.9317-6.2739 7.3396-8.5098 2.4079-2.2359 5.1018-4.185 7.653-5.905 2.5512-1.72 4.9574-3.2122 7.0213-3.8143 2.0639-0.60198 3.784-0.31369 4.9306 0.46027 1.1466 0.77397 1.7233 2.0334 2.6979 5.0432 0.97462 3.0099 2.35 7.7684 3.3246 13.989 0.97465 6.2204 1.5479 13.901 1.3759 21.583-0.17197 7.6824-1.0914 15.366-1.464 20.555-0.37265 5.1885-0.20206 7.8837 0.14189 9.2884 0.34398 1.4046 0.86133 1.5175 1.4346-0.86175 0.57329-2.3793 1.2055-7.2501 1.8361-11.923 0.63065-4.6725 1.2594-9.1443 1.89-13.788s1.2639-9.4594 1.0919-14.963c-0.17198-5.5038-1.1475-11.699-2.0075-16.687-0.85997-4.9878-1.6051-8.768-2.7517-12.065-1.1466-3.2966-2.6958-6.1074-4.1864-8.1426-1.4906-2.0353-2.9217-3.2962-4.441-3.9269-0.75964-0.31529-1.5443-0.47338-2.3111-0.5092zm139.14 1.1947c0.30183 0.01 0.58419 0.13562 0.84218 0.31828 0.68797 0.48729 1.206 1.4052 1.464 2.9819 0.25801 1.5766 0.26022 3.8106 0.2889 6.6198 0.0286 2.8092 0.0852 6.1902-0.23014 10.375-0.31532 4.1852-1.0045 9.1754-2.6098 16.055-1.6053 6.8797-4.1261 15.649-7.0213 22.557-1.8398 4.3901-3.8328 8.0306-5.9148 11.262-1.4396-2.0871-2.9833-4.2074-4.6074-6.3016-0.21585-0.27824-0.43267-0.55495-0.65123-0.83237 0.53097-3.5654 1.1664-7.2796 1.9145-11.09 1.8346-9.345 4.3559-19.266 6.4485-26.69 2.0926-7.4244 3.7547-12.351 5.102-16.192 1.3473-3.8412 2.3786-6.5946 3.3246-7.9419 0.59123-0.84208 1.147-1.1386 1.6501-1.1213zm-263.14 0.44067c-2.201 0.10604-4.3942 0.83889-6.8451 2.0858-3.2679 1.6626-6.994 4.243-10.033 7.1095-3.0386 2.8666-5.3898 6.0192-7.7118 9.6311-2.3219 3.6118-4.6148 7.6788-6.8794 12.265-2.2646 4.5865-4.5032 9.6928-6.0225 14.738-1.5193 5.0452-2.3226 10.029-2.9819 15.419-0.65933 5.3891-1.1746 11.18-1.5472 15.193-0.37266 4.0132-0.59969 6.2507-1.087 9.7192-0.48729 3.4685-1.233 8.1696-2.3796 12.211-1.1466 4.0418-2.696 7.4251-4.7886 10.865-2.0926 3.4399-4.7291 6.9332-7.653 9.8857-2.9239 2.9526-6.1321 5.3614-8.7693 6.7374-2.6373 1.376-4.7015 1.7186-6.9087 1.7186-2.2073 0-4.5574-0.34383-6.8794-1.1751-2.3219-0.8313-4.6175-2.1474-6.7961-3.638-2.1786-1.4906-4.2401-3.1532-5.6161-4.5291-1.376-1.376-2.0658-2.4668-2.6391-3.4128-0.57331-0.94599-1.0327-1.7496-1.606-2.2082-0.57331-0.45865-1.2621-0.57136-1.8068-0.31337-0.54463 0.25799-0.94649 0.88936-1.2045 1.606-0.25799 0.71665-0.37067 1.5183-0.31337 2.5216 0.0574 1.0033 0.28652 2.2068 1.1751 3.7261 0.88863 1.5193 2.4392 3.3548 4.2451 5.1607 1.8059 1.8059 3.8665 3.5834 6.3604 5.1314 2.4939 1.548 5.4214 2.8682 7.8293 3.6135 2.4079 0.74531 4.2986 0.9157 6.4485 1.1164 2.1499 0.20055 4.5588 0.42999 6.9381 0 2.3793-0.42999 4.7252-1.5192 6.9038-2.9525 2.1786-1.4333 4.1879-3.2092 6.0225-4.8719 1.8346-1.6626 3.4953-3.2102 5.0432-5.5035 1.548-2.2932 2.982-5.3324 4.7592-9.0876s3.8994-8.2283 5.1607-12.069c1.2613-3.8412 1.6636-7.0518 2.2082-10.836 0.22362-1.5527 0.47062-3.2042 0.73445-4.9698 0.35072 0.33668 0.70874 0.65516 1.0429 0.95478 0.8313 0.74531 1.517 1.3783 2.6636 2.0663 1.1466 0.68798 2.7531 1.4328 4.1864 1.9487 1.4333 0.516 2.6925 0.80372 4.6417 0.83237 1.6426 0.0251 3.7729-0.13738 5.9638-0.58266-2e-3 5e-3 -3e-3 0.01-5e-3 0.015-1.7837 4.5404-1.7825 4.5402-2.0663 5.3713-0.28378 0.83105-0.85328 2.4958-1.6844 5.293-0.83105 2.7972-1.9244 6.7299-3.0798 10.723-1.1554 3.9931-2.3688 8.0466-2.835 10.601-0.46621 2.554-0.18501 3.6048 0.36233 5.0236 0.54728 1.4189 1.3593 3.2048 2.5755 4.725 1.2162 1.5202 2.8394 2.7766 5.0285 3.3442 2.1891 0.56756 4.9453 0.44377 7.702-0.0832 2.7567-0.52701 5.5119-1.459 7.4375-2.1887 1.9256-0.72969 3.0204-1.2553 4.0542-1.9242 1.0338-0.66889 2.0071-1.4808 2.4531-2.4335 0.44593-0.95266 0.36198-2.0442-0.0637-2.551-0.42565-0.50675-1.1929-0.42763-2.2621-0.088-1.0692 0.33949-2.4375 0.93963-4.0591 1.2437s-3.4987 0.31253-5.4496 0.33785c-1.9509 0.0253-3.9758 0.0637-5.572 0.0637-1.5963 0-2.7646-0.0409-3.5449-0.2791-0.78041-0.23815-1.1736-0.6693-1.2192-1.4395-0.0456-0.77023 0.25799-1.8751 0.59246-3.7653 0.0381-0.2161 0.0782-0.44541 0.11758-0.68061 0.34969-0.0554 0.70743-0.13261 1.0674-0.22035 1.581-0.38512 3.1615-0.9934 6.6884-3.0406 3.5269-2.0472 9.0011-5.5294 14.9-9.259 5.8985-3.7296 12.224-7.7026 17.798-11.453 5.5742-3.7499 10.397-7.2794 14.694-10.948 4.2971-3.6688 8.0675-7.4766 11.453-11.105 3.385-3.6283 6.3858-7.0776 8.6763-10.199 2.2905-3.1215 3.8689-5.9167 4.8621-8.4707 0.99322-2.554 1.4006-4.8625 1.6843-7.3151 0.28379-2.4526 0.44536-5.0504 0.1617-8.172-0.28378-3.1215-1.0157-6.7701-1.9683-10.297-0.95268-3.5269-2.1256-6.9321-3.8485-10.155-1.7229-3.2229-3.9942-6.2615-6.0617-8.7547-2.0675-2.4932-3.9334-4.4412-6.0616-5.7385-2.1283-1.2973-4.5183-1.9425-6.8696-1.983-2.3513-0.0406-4.6614 0.52545-6.6884 1.6403s-3.7719 2.7774-6.0421 5.2097c-1.1885 1.2734-2.5182 2.7576-3.9171 4.4067-0.56852-1.0394-1.1762-2.0418-1.8312-3.0112-2.1499-3.1819-4.8417-5.9941-7.7656-8.2014-2.9239-2.2073-6.077-3.8102-9.0582-4.2402-0.74531-0.10754-1.4795-0.14314-2.2131-0.10779zm1.3661 9.0631c0.87742 0.0125 1.4835 0.25995 2.3649 0.47494 1.1753 0.28667 2.8386 0.5152 4.7592 1.3465 1.9206 0.83129 4.099 2.2628 5.7042 3.8681 1.3596 1.3596 2.3086 2.8432 3.403 4.8327-0.21786 0.2806-0.43827 0.56574-0.65612 0.85198-2.7769 3.6485-5.5337 7.7421-8.5539 12.789-3.0202 5.0472-6.3038 11.049-9.2835 16.907-2.9797 5.8579-5.6527 11.57-8.7742 18.968-1.2539 2.9718-2.5806 6.2161-3.8338 9.3275-0.55694 0.28198-1.108 0.54661-1.655 0.79322-3.4972 1.5766-6.824 2.4357-9.7192 2.7223-2.8952 0.28667-5.3595-9.8e-4 -7.2515-0.63162-1.626-0.54197-2.8302-1.3353-3.682-2.076 0.1266-0.88555 0.25774-1.7974 0.38682-2.7371 0.71663-5.2171 1.4588-11.295 2.2327-16.398 0.77398-5.1025 1.578-9.2295 3.0112-13.759 1.4333-4.5292 3.4989-9.4614 5.3909-13.274 1.8919-3.8125 3.6129-6.5076 5.3615-8.8868s3.5236-4.4406 5.8168-6.5905c2.2932-2.1499 5.1017-4.3857 7.653-5.905 2.5512-1.5193 4.8453-2.3217 6.3359-2.551 0.37266-0.0574 0.69658-0.078 0.98906-0.0735zm37.442 2.6538c1.3166 0.0572 2.6344 0.54523 3.7163 1.2192 1.2364 0.77023 2.1688 1.7829 3.6282 3.5058 1.4594 1.7229 3.4428 4.1557 5.3076 7.0948 1.8648 2.9391 3.608 6.3854 4.6417 9.9934 1.0338 3.608 1.361 7.3766 1.0772 11.066-0.28376 3.6891-1.1791 7.2974-2.8007 10.723-1.6216 3.4256-3.9728 6.6712-6.5268 9.7927-2.554 3.1215-5.3103 6.1208-9.729 10.317-4.4188 4.1958-10.498 9.5877-16.721 14.209-6.2228 4.6215-12.589 8.4724-18.082 11.756-5.4931 3.2837-10.111 5.9987-13.597 7.8635-3.4771 1.8599-5.8287 2.8727-7.7313 3.4813 0.46772-1.7991 1.0885-3.8369 2.032-6.8647 1.358-4.358 3.3841-10.763 5.2489-16.114 0.38962-1.1181 0.77351-2.1927 1.1604-3.2463 0.31813-0.21109 0.6448-0.43495 0.97436-0.67081 3.1246-2.2359 6.7923-5.6183 10.777-9.0582 3.9845-3.4399 8.2836-6.9363 12.182-10.605 3.8985-3.6692 7.3938-7.5098 9.7731-12.584 2.3793-5.0738 3.6442-11.379 3.5009-16.711-0.1434-5.3318-1.6942-9.6902-3.2708-13.646-0.11256-0.28266-0.22462-0.56356-0.33786-0.84215 0.97878-1.1942 1.9087-2.2532 2.7811-3.1777 2.7162-2.8783 4.8648-4.4565 6.6688-5.5916 1.804-1.1351 3.2642-1.8236 4.7641-1.9047 0.18752-0.01 0.37499-0.0125 0.56308-5e-3zm-17.852 14.684c0.48429 1.1746 0.91192 2.38 1.2339 3.5743 0.88863 3.2966 0.94757 6.5066 0.46025 9.8319-0.4873 3.3252-1.5182 6.7635-3.6967 10.375-2.1786 3.6119-5.5067 7.3959-9.5772 11.237-4.0208 3.7943-8.766 7.6457-12.97 10.723 2.7182-6.008 6.2608-13.456 9.7535-20.349 3.831-7.5606 7.6024-14.453 11.129-19.987 1.2583-1.9742 2.4857-3.7743 3.6674-5.4056zm344 10.434c-1.5761 5.9964-1.6893 6.4641-3.0553 12.06-1.4906 6.1057-4.4714 18.318-6.6786 27.033-1.1769 4.6466-2.1314 8.2987-2.8986 11.448-2.623-1.8394-5.4329-3.7312-8.9407-5.8609-4.0132-2.4366-8.9402-5.1888-14.043-8.4854-5.1025-3.2965-10.38-7.1333-14.307-10.258-3.9272-3.1246-6.5078-5.5323-7.7117-7.2809-1.204-1.7486-1.03-2.841-0.31337-3.873 0.71663-1.032 1.9758-2.0046 4.441-3.2659 2.4652-1.2613 6.1366-2.8084 11.124-4.299 4.9878-1.4906 11.294-2.925 16.941-3.9856 5.6471-1.0606 10.634-1.7512 19.664-2.6685 1.7844-0.18125 3.7249-0.36985 5.7777-0.56308zm-121.3 33.638c0.3711 0.52169 0.73475 1.0425 1.0919 1.5571 0.61034 0.8794 1.2043 1.7477 1.7823 2.6097-0.078 0.10429-0.15694 0.20958-0.2349 0.31337-1.1465 1.5222-2.3063 2.9858-3.4764 4.3577 0.0554-0.74992 0.11457-1.5167 0.18125-2.2964 0.17724-2.0779 0.39364-4.2642 0.65612-6.5415zm39.283 4.9355c-0.49913-0.01-1.0132 0.0602-1.4591 0.16145-0.89187 0.20281-1.5042 0.52583-1.9096 1.1947-0.40539 0.66887-0.606 1.6832-0.93032 3.8926-0.32429 2.2094-0.77098 5.6125-0.99394 7.3151-0.22287 1.7026-0.22412 1.7046-0.54839 3.5694-0.32433 1.8648-0.96901 5.5928-1.273 9.9102-0.30406 4.3175-0.2642 9.2238 0.0201 12.589 0.28378 3.3647 0.81089 5.188 2.0271 6.1204 1.2162 0.93241 3.1181 0.97319 5.7532 0.28401 2.6351-0.6892 6.0014-2.1057 8.6567-3.403 2.6553-1.2972 4.6015-2.4742 6.9528-4.6025 0.40497-0.36656 0.82096-0.76045 1.2437-1.1751 0.19253 0.36212 0.43312 0.70078 0.72465 1.0135 1.1148 1.1959 3.0173 2.0048 5.4496 2.0858 2.4324 0.081 5.3936-0.56644 8.0692-1.3367 2.6756-0.77026 5.0666-1.6636 7.276-3.0014 2.2094-1.3378 4.238-3.1172 5.9001-4.4753 1.6621-1.358 2.9568-2.2906 3.9905-3.0406 1.0338-0.74998 1.8063-1.3192 2.1103-1.2584 0.30402 0.0609 0.13813 0.75113-0.32805 1.5619-0.46622 0.81079-1.2326 1.7403-2.2866 2.693-1.054 0.95268-2.3946 1.9272-3.6918 3.0015-1.2973 1.0743-2.5538 2.2483-3.4862 3.3834-0.9324 1.1351-1.5382 2.2298-1.5179 3.0406 0.02 0.81077 0.66701 1.3391 1.2143 1.7039 0.54726 0.36486 0.99294 0.56837 2.4726 0.12234 1.4797-0.44593 3.992-1.5404 5.9784-2.6146 1.9864-1.0743 3.4489-2.1272 4.9894-4.0933 1.5405-1.9662 3.1602-4.8476 3.9709-7.0165 0.81079-2.1688 0.8128-3.6291 0.8128-4.9061 0-1.277 4.7e-4 -2.3684-0.30357-3.2805-0.30404-0.91214-0.91615-1.6406-1.6256-2.0663-0.70943-0.42565-1.5192-0.5517-2.3502-0.30848-0.83107 0.24318-1.6797 0.85399-2.977 1.6648-1.2973 0.81079-3.0446 1.8219-5.5378 3.403-2.4932 1.581-5.735 3.7335-8.4511 5.2538-2.7161 1.5202-4.9032 2.4081-6.5856 3.0161-1.6824 0.6081-2.8594 0.93463-3.731 1.0968-0.87158 0.1622-1.4408 0.16395-2.2719-0.48472-0.57108-0.44573-1.2641-1.199-1.6697-2.0271 1.7071-2.1605 2.706-3.736 3.2756-4.9894 0.60808-1.3378 0.72593-2.3088 0.5435-2.9574-0.1825-0.64862-0.66779-0.97322-1.3367-1.2975s-1.5214-0.64984-2.4335-0.69038c-0.91214-0.0406-1.885 0.20106-2.6146 0.76873-0.72972 0.56756-1.2134 1.4635-1.8215 2.6391-0.60808 1.1756-1.3398 2.6348-1.8263 4.3577-0.0201 0.0737-0.0389 0.1459-0.0587 0.22035l-0.0201 0.0201c-1.3378 1.3986-3.0019 2.9394-4.583 4.1962-1.581 1.2567-3.0809 2.2285-4.4997 3.0798-1.4189 0.85133-2.7584 1.5854-4.157 2.0516-1.3986 0.46621-2.8567 0.66739-3.8094 0.76872-0.95268 0.10128-1.3977 0.0995-1.6207-0.52878-0.22287-0.62839-0.22412-1.8832 0.18125-4.9845 0.40539-3.1013 1.2155-8.0473 1.9047-11.453 0.68918-3.4053 1.2601-5.27 1.6452-7.2564 0.38514-1.9864 0.5869-4.0939 0.60715-5.8168 0.0201-1.7229-0.14364-3.0604-0.38682-4.2157-0.24317-1.1554-0.56711-2.1295-1.3171-2.5755-0.37499-0.22286-0.85714-0.31301-1.3563-0.32317zm-32.595 5.1705c0.51848 0.84478 1.0234 1.6803 1.513 2.5118 2.0926 3.5546 3.9254 6.995 5.244 10.664s2.121 7.5678 2.551 11.036c0.42996 3.4686 0.48998 6.5095-0.28401 9.9494-0.77396 3.4399-2.3812 7.2791-4.2158 9.5724-1.8346 2.2933-3.8946 3.038-5.3566 3.3246-1.462 0.28664-2.3247 0.11356-3.07-0.63164-0.74531-0.74529-1.3734-2.0634-2.0614-4.9012-0.68797-2.8379-1.4355-7.1926-1.8655-11.722-0.42999-4.5292-0.5435-9.2306-0.5435-14.591 0-1.7632 0.01-3.5967 0.0489-5.528 2.7518-2.8176 5.4196-6.1791 8.0398-9.685zm105.85 14.263c0.77762 0.42229 1.4234 0.79895 2.0075 1.2094 1.0606 0.74531 1.921 1.6008 2.3796 2.5755 0.45867 0.97464 0.51617 2.066 0.40151 3.0406-0.11457 0.97465-0.39973 1.8352-1.1164 2.9819-0.71666 1.1466-1.8659 2.5772-2.6685 3.2365-0.80264 0.65932-1.2606 0.54515-1.5472-0.37213-0.28667-0.91728-0.40151-2.6365-0.40151-4.4997s0.11632-3.8686 0.88625-7.8586c0.0201-0.10328 0.0379-0.20732 0.0587-0.31336zm-171.68 16.843c-0.35954-5e-3 -0.85341 0.1459-1.5717 0.43089-1.277 0.50672-3.2626 1.438-4.5193 2.2082-1.2567 0.77025-1.7825 1.3781-2.0663 2.4726-0.28379 1.0946-0.32249 2.6761-0.34275 3.4666-0.0201 0.79051-0.0201 0.78989-0.0201 1.0331-2e-5 0.24318-2e-3 0.72872 0.5239 1.4787 0.52701 0.74997 1.5815 1.7658 2.4531 2.2523 0.87158 0.4865 1.5626 0.44571 2.4139-0.28398 0.8513-0.72969 1.8653-2.1516 2.595-3.1043 0.72971-0.95268 1.176-1.4362 1.4395-2.551 0.26351-1.1148 0.34413-2.857 0.30357-4.2353-0.0406-1.3784-0.20306-2.3933-0.56797-2.8595-0.15969-0.20406-0.36178-0.30381-0.64142-0.30847z"/>
</svg>
