<?xml version="1.0" encoding="UTF-8" standalone="no"?>
<!-- Created with Inkscape (http://www.inkscape.org/) -->
<svg
   xmlns:dc="http://purl.org/dc/elements/1.1/"
   xmlns:cc="http://creativecommons.org/ns#"
   xmlns:rdf="http://www.w3.org/1999/02/22-rdf-syntax-ns#"
   xmlns:svg="http://www.w3.org/2000/svg"
   xmlns="http://www.w3.org/2000/svg"
   xmlns:sodipodi="http://sodipodi.sourceforge.net/DTD/sodipodi-0.dtd"
   xmlns:inkscape="http://www.inkscape.org/namespaces/inkscape"
   width="200"
   height="76"
   id="svg2"
   sodipodi:version="0.32"
   inkscape:version="0.46"
   version="1.0"
   sodipodi:docname="Lula signature.svg"
   inkscape:output_extension="org.inkscape.output.svg.inkscape">
  <defs
     id="defs4">
    <inkscape:perspective
       sodipodi:type="inkscape:persp3d"
       inkscape:vp_x="0 : 526.18109 : 1"
       inkscape:vp_y="0 : 1000 : 0"
       inkscape:vp_z="744.09448 : 526.18109 : 1"
       inkscape:persp3d-origin="372.04724 : 350.78739 : 1"
       id="perspective10" />
    <inkscape:perspective
       id="perspective2390"
       inkscape:persp3d-origin="372.04724 : 350.78739 : 1"
       inkscape:vp_z="744.09448 : 526.18109 : 1"
       inkscape:vp_y="0 : 1000 : 0"
       inkscape:vp_x="0 : 526.18109 : 1"
       sodipodi:type="inkscape:persp3d" />
  </defs>
  <sodipodi:namedview
     id="base"
     pagecolor="#ffffff"
     bordercolor="#666666"
     borderopacity="1.0"
     inkscape:pageopacity="0.0"
     inkscape:pageshadow="2"
     inkscape:zoom="1.48"
     inkscape:cx="100"
     inkscape:cy="38.028961"
     inkscape:document-units="px"
     inkscape:current-layer="layer1"
     showgrid="false"
     inkscape:window-width="1280"
     inkscape:window-height="744"
     inkscape:window-x="-4"
     inkscape:window-y="-4" />
  <metadata
     id="metadata7">
    <rdf:RDF>
      <cc:Work
         rdf:about="">
        <dc:format>image/svg+xml</dc:format>
        <dc:type
           rdf:resource="http://purl.org/dc/dcmitype/StillImage" />
      </cc:Work>
    </rdf:RDF>
  </metadata>
  <g
     inkscape:label="Camada 1"
     inkscape:groupmode="layer"
     id="layer1">
    <g
       id="g2432">
      <g
         id="g2424">
        <g
           id="g2417">
          <g
             id="g2411">
            <g
               id="g2406">
              <path
                 d="M 41.418904,74.965232 C 41.316879,75.000932 42.845874,70.938932 44.345009,67.440932 C 50.607354,52.828832 64.25656,39.665732 79.667264,35.462832 C 83.741188,34.351732 90.876125,32.459232 94.297784,35.880832 C 98.549122,40.132232 94.549842,48.377232 91.789693,53.437432 C 87.195675,61.859832 78.464771,67.649932 68.380862,67.649932 C 62.087212,67.322812 56.517023,63.32564 50.675676,61.135135 M 58.662016,60.230232 C 58.662016,60.090832 58.662016,60.090832 58.662016,60.230232 C 58.662016,60.329332 60.353413,58.925832 61.901634,56.990632 C 64.136604,54.196932 66.05619,51.069732 68.171853,48.107832 C 73.842113,40.169432 79.059384,28.472832 81.861841,19.264762 C 84.351733,11.083692 84.265428,11.364612 84.265428,6.6198128 C 81.400286,20.536212 77.621382,33.148232 71.515972,46.122232 C 69.816497,49.733632 58.114511,81.904532 50.824237,63.678832 C 50.764203,63.326656 50.704169,62.97448 50.644134,62.622304 C 50.560813,62.13352 50.66019,61.630728 50.675676,61.135135"
                 style="fill:none;fill-rule:evenodd;stroke:#000000;stroke-width:2.06906796;stroke-linecap:round;stroke-linejoin:round;stroke-miterlimit:4;stroke-dasharray:none;stroke-opacity:1"
                 id="path3266" />
              <path
                 id="path3312"
                 d="M 95.551829,57.931132 C 99.988755,54.128032 104.40358,49.070932 107.77877,44.345632 L 109.24182,42.255532 C 110.65851,40.287932 108.06665,44.213932 107.67427,45.077132 C 106.60948,47.419732 103.44923,53.743432 106.52473,56.050032 C 112.25465,60.347532 120.20816,42.996232 122.30479,40.061032 C 122.90166,39.225432 123.12274,38.960232 123.66334,38.284432 C 126.22991,34.428287 118.70057,46.55919 117.88003,48.192932 C 115.50794,57.550081 123.46437,58.65796 127.92979,53.143932 C 138.44196,42.631732 156.53059,20.687242 159.55697,5.5553628 C 160.63813,0.14954274 150.47889,6.3751328 145.36907,12.944892 C 136.52538,24.315332 131.09121,42.567332 127.63421,56.395332 C 127.42665,64.632468 139.42433,44.688606 146.23614,45.599732 C 146.41458,45.733532 146.58448,45.878332 146.75865,46.017732 C 146.80374,46.130432 146.11582,45.465323 145.07349,45.754432 C 141.1978,46.829425 138.82505,49.081032 136.20606,52.404932 C 135.42688,53.393836 134.55235,57.859232 136.05827,58.612232 C 137.42157,59.975532 140.01531,59.117632 141.37873,58.390532"
                 style="fill:none;fill-rule:evenodd;stroke:#000000;stroke-width:2.06906796;stroke-linecap:round;stroke-linejoin:round;stroke-miterlimit:4;stroke-dasharray:none;stroke-opacity:1"
                 sodipodi:nodetypes="cccssscccsscccsscc" />
              <path
                 id="path3342"
                 d="M 151.09837,48.340732 C 149.17857,51.700432 147.05519,54.305232 144.30001,57.060432 C 144.09027,57.270132 143.41776,57.782332 143.70884,57.725432 C 143.70884,57.725432 168.6594,68.695032 143.78751,68.381532 C 118.91563,68.068032 118.91563,68.068032 118.91563,68.068032 C 118.91563,68.068032 -193.55048,58.244632 198.96547,0.97661274"
                 style="fill:none;fill-rule:evenodd;stroke:#000000;stroke-width:2.06906796;stroke-linecap:round;stroke-linejoin:round;stroke-miterlimit:4;stroke-dasharray:none;stroke-opacity:1" />
            </g>
          </g>
        </g>
      </g>
    </g>
  </g>
</svg>
