<?xml version="1.0" encoding="UTF-8" standalone="no"?>
<!-- Created with Inkscape (http://www.inkscape.org/) -->

<svg
   width="263.0278mm"
   height="87.351585mm"
   viewBox="0 0 263.0278 87.351585"
   version="1.1"
   id="svg5"
   xml:space="preserve"
   inkscape:version="1.2.1 (9c6d41e410, 2022-07-14)"
   sodipodi:docname="Madonna's signature.svg"
   xmlns:inkscape="http://www.inkscape.org/namespaces/inkscape"
   xmlns:sodipodi="http://sodipodi.sourceforge.net/DTD/sodipodi-0.dtd"
   xmlns="http://www.w3.org/2000/svg"
   xmlns:svg="http://www.w3.org/2000/svg"><sodipodi:namedview
     id="namedview7"
     pagecolor="#ffffff"
     bordercolor="#000000"
     borderopacity="0.25"
     inkscape:showpageshadow="2"
     inkscape:pageopacity="0.0"
     inkscape:pagecheckerboard="0"
     inkscape:deskcolor="#d1d1d1"
     inkscape:document-units="mm"
     showgrid="false"
     inkscape:zoom="1.0503957"
     inkscape:cx="49.981162"
     inkscape:cy="192.78448"
     inkscape:window-width="1440"
     inkscape:window-height="878"
     inkscape:window-x="-6"
     inkscape:window-y="-6"
     inkscape:window-maximized="1"
     inkscape:current-layer="layer1" /><defs
     id="defs2" /><g
     inkscape:label="Lager 1"
     inkscape:groupmode="layer"
     id="layer1"
     transform="translate(185.44989,-99.147935)"><path
       style="fill:#000000;stroke-width:0.264583"
       d="m -112.10567,186.19028 c -1.09493,-0.553 -2.60993,-2.26364 -4.4422,-5.01583 -1.92686,-2.89426 -3.55857,-7.29313 -5.19321,-14.00016 -0.46106,-1.89177 -0.86976,-3.4837 -0.90823,-3.53762 -0.0385,-0.0539 -0.5219,0.25962 -1.07432,0.69678 -1.39418,1.10329 -4.37643,2.70855 -5.03194,2.70855 -0.29922,0 -0.81533,-0.21969 -1.14692,-0.48819 -0.85624,-0.69334 -0.73325,-2.08441 0.39419,-4.45847 1.06235,-2.237 3.82429,-6.59066 4.70731,-7.42016 l 0.60214,-0.56565 -0.30937,-4.18324 c -0.17016,-2.30079 -0.31899,-6.95145 -0.33073,-10.33481 -0.0117,-3.38336 -0.12101,-6.15156 -0.24281,-6.15156 -0.15949,0 -4.34221,2.76604 -5.80126,3.83639 -0.0383,0.0281 0.2427,0.87302 0.6244,1.87764 1.35974,3.57885 2.75248,9.94274 2.75248,12.57701 0,1.48526 -0.624,2.77996 -1.63772,3.39801 -1.55294,0.9468 -3.3554,0.73795 -9.87377,-1.14405 -3.20029,-0.924 -7.65499,-2.13373 -9.89933,-2.6883 -3.65166,-0.9023 -4.19401,-0.97561 -5.15937,-0.69743 -6.97977,2.01129 -10.73615,2.74372 -16.64734,3.24597 -8.31884,0.70682 -14.72622,-1.07977 -14.72622,-4.10615 0,-1.2429 1.39194,-2.81687 3.2646,-3.6915 4.24948,-1.98476 13.60712,-1.62585 25.90453,0.99356 l 2.97775,0.63427 1.71979,-0.67347 c 4.38192,-1.71596 9.41076,-4.62833 15.25817,-8.83652 l 2.1613,-1.55542 -1.03682,-1.88623 c -1.24668,-2.26802 -1.32619,-3.05316 -0.33441,-3.30208 0.96575,-0.24239 1.3756,0.0852 2.38311,1.90471 0.47777,0.86284 0.99148,1.5688 1.14157,1.5688 0.15009,0 1.80175,-1.05456 3.67036,-2.34347 l 3.39747,-2.34346 0.17076,-5.19716 c 0.53952,-16.42144 2.79748,-23.32112 7.63195,-23.32112 1.71668,0 2.79041,0.48604 3.97581,1.79971 3.01866,3.34533 4.00169,9.66907 2.26267,14.55551 -1.50559,4.23053 -5.78145,9.5408 -9.85595,12.24028 l -1.76613,1.17012 0.16047,8.73125 c 0.0883,4.80219 0.23337,9.36601 0.32247,10.14183 0.14837,1.29197 0.20905,1.39452 0.72157,1.21958 1.05954,-0.36163 3.7093,-0.4329 4.72959,-0.12722 0.56225,0.16846 1.47232,0.71288 2.02238,1.20983 l 1.00012,0.90354 2.75375,-2.06989 c 8.93336,-6.71489 19.432556,-12.70644 24.286298,-13.85941 l 1.330785,-0.31612 0.156943,-1.46148 c 1.134507,-10.56475 2.300782,-16.38886 4.637239,-23.15732 2.752127,-7.97262 6.282364,-12.55984 10.313678,-13.401686 2.940378,-0.614027 6.099519,1.168476 7.454593,4.206156 2.012299,4.51099 -0.26952,18.53441 -4.33029,26.61275 -2.046608,4.07145 -7.413456,12.37392 -12.272926,18.98612 l -2.548649,3.46791 0.72458,1.98667 c 1.721025,4.71875 4.293262,6.25937 7.431125,4.4508 2.702261,-1.55749 7.577598,-7.10802 13.091335,-14.90438 3.322182,-4.69752 4.590513,-6.13664 5.408387,-6.13664 0.683969,0 1.442519,0.77633 1.442519,1.47632 0,0.27973 -0.954061,2.11583 -2.120132,4.08021 -2.802099,4.72044 -4.206688,8.35008 -4.223399,10.91379 -0.0042,0.64313 0.115041,0.99218 0.338926,0.99218 0.60039,0 3.564779,-2.63591 9.886861,-8.79132 6.410706,-6.24169 8.65333,-8.07137 11.153399,-9.09966 3.463428,-1.42453 6.689193,-0.38639 8.200165,2.63904 0.331605,0.66398 1.132827,3.29135 1.780498,5.83861 1.786358,7.02568 2.762504,9.14875 4.20641,9.14875 0.886624,0 2.794762,-1.81585 4.807476,-4.57495 5.250188,-7.19716 8.133612,-9.60119 10.3931961,-8.66523 1.481926,0.61383 1.7081845,1.31913 1.74321,5.43397 0.029948,3.51873 0.318061,5.29828 0.9961034,6.15256 0.9403451,1.18477 4.1442297,-0.58722 7.47374648,-4.13355 6.16222282,-6.56348 7.74313982,-7.76761 10.19825902,-7.76761 1.45854,0 1.860455,0.19264 3.728194,1.78691 3.745166,3.19682 7.281389,3.54391 12.445571,1.22156 0.920594,-0.41399 3.935998,-2.09877 6.700894,-3.74394 7.573782,-4.50657 11.771966,-6.30553 13.818896,-5.92153 1.190461,0.22334 2.189277,1.45901 2.185255,2.70347 -0.0041,1.2594 -0.506397,3.10208 -1.560851,5.72563 -0.94832,2.35948 -1.936631,5.72445 -1.739271,5.92181 0.309343,0.30934 1.773473,-0.84384 5.060334,-3.98562 1.935769,-1.85033 3.988282,-3.60335 4.561139,-3.8956 2.423369,-1.2363 4.221774,-0.97087 6.76419,0.99836 1.741458,1.34885 3.690935,2.13863 5.31146,2.15179 1.356111,0.011 4.557371,-0.87249 6.227048,-1.71858 1.473729,-0.7468 2.165268,-0.81854 2.619089,-0.27172 0.714995,0.86151 0.218671,1.56526 -1.814046,2.57218 -4.781326,2.36846 -9.609075,2.35473 -12.858243,-0.0366 -0.582083,-0.4284 -1.569371,-1.09585 -2.193975,-1.48322 l -1.135642,-0.70432 -1.230659,0.46999 c -0.894205,0.3415 -2.147314,1.35567 -4.583531,3.70957 -5.207185,5.03123 -7.463261,6.22729 -8.749657,4.63866 -1.021636,-1.26167 -0.641131,-3.63758 1.486847,-9.28402 0.63069,-1.67349 1.229921,-3.48919 1.33163,-4.0349 0.174934,-0.93861 0.147941,-0.99219 -0.499944,-0.99219 -1.624335,0 -5.928175,2.01973 -11.294356,5.30028 -6.763306,4.13466 -9.997909,5.51071 -13.484749,5.73661 -3.453665,0.22375 -6.041205,-0.68193 -8.766321,-3.06835 -1.648587,-1.44369 -2.047984,-1.60426 -3.092924,-1.24341 -1.2162212,0.42 -2.9225082,1.91164 -5.7304702,5.00962 -4.33333542,4.78089 -7.6164813,7.05067 -10.198521,7.05067 -3.0705823,0 -4.2200699,-2.11371 -4.4245108,-8.13594 -0.098705,-2.90756 -0.208968,-3.77031 -0.481862,-3.77031 -0.697061,0 -3.92366,3.35726 -6.479,6.74138 -3.292893,4.36087 -3.568719,4.6748 -4.980284,5.66836 -0.934707,0.65791 -1.43015,0.81908 -2.513542,0.81768 -3.1496,-0.004 -4.369223,-2.01236 -6.614385,-10.8916 -1.292307,-5.11086 -1.635808,-5.96999 -2.733339,-6.8364 -1.59177,-1.25656 -5.118203,0.0105 -8.538099,3.06775 -1.091406,0.97567 -4.1275,3.87231 -6.746875,6.43696 -7.812683,7.64948 -9.978356,9.28088 -11.791612,8.88262 -1.402895,-0.30813 -1.996734,-2.41014 -1.556938,-5.5111 0.143526,-1.01199 0.220874,-1.88006 0.171889,-1.92905 -0.04899,-0.049 -1.152379,1.23412 -2.451981,2.85134 -6.732601,8.37805 -11.376438,10.52891 -15.291673,7.08258 -1.229755,-1.08247 -2.92689,-3.64522 -3.239919,-4.89242 -0.09155,-0.36477 -0.251467,-0.62828 -0.355367,-0.58556 -0.103902,0.0427 -1.480881,1.68501 -3.059959,3.64954 -8.010615,9.96602 -13.407246,15.08125 -15.910906,15.08125 -0.92249,0 -1.6995,-0.83345 -1.85251,-1.98708 -0.16284,-1.22769 0.68995,-3.72862 2.20726,-6.47313 1.25002,-2.26103 2.205852,-3.5776 6.029658,-8.30529 5.002925,-6.18553 7.140163,-8.96005 8.997268,-11.68007 1.553033,-2.27466 1.724581,-2.65675 1.724581,-3.84121 0,-1.66411 -0.02283,-1.72013 -0.661459,-1.6231 -1.030666,0.15659 -6.470457,2.64159 -9.428895,4.3073 -4.07688,2.29544 -13.911303,8.92655 -16.454873,11.09513 -0.12056,0.10279 0.0713,0.7669 0.42643,1.47581 1.90593,3.805 3.19641,11.40316 3.5443,20.8681 0.16718,4.5485 -0.21171,7.15266 -1.18281,8.12951 -0.67865,0.68268 -1.90638,0.81053 -2.91097,0.30315 z m 1.46168,-2.94255 c 0.5633,-2.01428 -0.1566,-13.80316 -1.15119,-18.85156 -0.61689,-3.13128 -2.01851,-7.14375 -2.49542,-7.14375 -0.32282,0 -5.58964,4.05728 -5.89478,4.54103 -0.37007,0.58668 0.81452,5.53285 2.67803,11.18192 1.512,4.58351 2.97487,7.33173 5.33115,10.01539 1.03293,1.17645 1.26422,1.21524 1.53221,0.25697 z m 10.60846,-13.39798 c 2.671386,-2.06591 7.676766,-7.69707 13.522645,-15.21326 l 1.931699,-2.48363 -0.316958,-2.01428 c -0.174326,-1.10786 -0.338354,-2.19038 -0.364508,-2.40559 -0.02614,-0.21522 -0.879843,0.69552 -1.897084,2.02387 -1.017243,1.32835 -3.753739,4.77866 -6.081104,7.66735 -4.973997,6.17365 -6.209972,7.94183 -7.58246,10.8474 -0.98095,2.07668 -1.19036,2.73914 -0.86587,2.73914 0.0838,0 0.82795,-0.52245 1.65364,-1.161 z m -25.0503,-7.5992 1.82357,-1.35187 -0.17043,-1.36011 c -0.0937,-0.74806 -0.25639,-1.4549 -0.36144,-1.57075 -0.24673,-0.2721 -1.31219,1.1325 -2.50457,3.30176 -0.90451,1.64555 -1.13336,2.33284 -0.77678,2.33284 0.0913,0 0.98668,-0.60834 1.98965,-1.35187 z m 7.04552,-5.38325 2.45437,-1.94675 -0.71142,-0.55961 c -0.91407,-0.719 -1.71933,-0.91308 -3.04868,-0.73478 -1.58622,0.21276 -2.31249,1.01412 -2.16553,2.38944 0.23798,2.22701 0.38624,2.82404 0.69815,2.81139 0.17531,-0.007 1.42321,-0.88897 2.77311,-1.95969 z m -12.07735,-4.31124 c 0.22082,-0.56219 0.15264,-1.53961 -0.29991,-4.29948 -0.57151,-3.48528 -2.22395,-9.26041 -2.64969,-9.26041 -0.11727,0 -1.53623,0.94706 -3.15326,2.10459 -3.72824,2.6688 -6.95162,4.66312 -10.06077,6.22462 -1.34568,0.67585 -2.38668,1.28882 -2.31333,1.36217 0.0734,0.0734 1.66334,0.53728 3.53332,1.03096 1.86997,0.49368 4.65011,1.26819 6.17808,1.72113 4.48323,1.32899 6.4178,1.80038 7.48103,1.82289 0.85296,0.018 1.04045,-0.0851 1.28453,-0.70647 z m -39.8541,-1.26533 c 3.44978,-0.25443 10.58229,-1.53056 11.07298,-1.98115 0.30183,-0.27717 -0.18696,-0.40078 -4.06153,-1.02713 -5.34559,-0.86414 -9.12821,-1.16775 -12.54703,-1.00706 -3.5257,0.16571 -5.5843,0.66828 -6.69707,1.63497 -0.65178,0.56621 -0.68848,0.67995 -0.33506,1.0386 0.82055,0.83271 6.32426,1.79286 9.12812,1.59244 0.72761,-0.052 2.27542,-0.16481 3.43959,-0.25067 z m 91.017066,-6.87061 c 4.681326,-6.58389 8.5906,-12.87467 10.30047,-16.57546 2.030788,-4.39537 3.573751,-10.50275 4.132223,-16.35624 0.45375,-4.75583 0.120512,-6.95003 -1.301361,-8.56882 -1.049637,-1.195 -3.469884,-1.669 -4.839706,-0.94784 -5.243436,2.76046 -9.930461,15.47095 -11.733427,31.81922 l -0.40346,3.65836 0.599511,0.48578 c 0.796859,0.64568 0.788546,2.59286 -0.01775,4.15936 -0.461309,0.89624 -0.572657,1.56844 -0.569751,3.43958 0.0021,1.27911 0.08047,2.6129 0.1744,2.96397 l 0.170786,0.63833 0.521215,-0.63833 c 0.286669,-0.35107 1.621753,-2.18613 2.966853,-4.07791 z m -41.478496,-17.59993 c 2.95531,-2.39125 5.70938,-6.07217 7.16659,-9.57838 0.97089,-2.33609 0.99871,-6.06962 0.0664,-8.91629 -1.14937,-3.50951 -3.35644,-5.11063 -5.12602,-3.71867 -1.91372,1.50533 -3.39683,7.73132 -3.74858,15.73619 -0.0831,1.89177 -0.2143,4.42185 -0.29151,5.6224 -0.0772,1.20054 -0.0431,2.18281 0.0757,2.18281 0.11884,0 0.95466,-0.59763 1.8574,-1.32806 z"
       id="path248" /></g></svg>
