<?xml version="1.0" encoding="UTF-8" standalone="no"?>
<!-- Created with Inkscape (http://www.inkscape.org/) -->

<svg
   width="67.55481mm"
   height="29.883924mm"
   viewBox="0 0 67.55481 29.883924"
   version="1.1"
   id="svg1"
   xml:space="preserve"
   xmlns="http://www.w3.org/2000/svg"
   xmlns:svg="http://www.w3.org/2000/svg"><defs
     id="defs1" /><g
     id="layer1"
     transform="translate(-71.983834,-198.63333)"><path
       style="fill:#000000"
       d="m 103.62589,228.39968 c -0.0647,-0.0647 -0.11967,-0.44171 -0.12222,-0.83785 -0.003,-0.39614 -0.15656,-1.8315 -0.34226,-3.1897 -0.25576,-1.87059 -0.323,-3.21801 -0.27728,-5.55625 0.056,-2.86374 0.10548,-3.25888 0.68482,-5.46805 0.97951,-3.73516 2.01995,-6.09956 3.94143,-8.95687 2.30515,-3.42786 4.56273,-5.19643 7.19861,-5.63935 3.57123,-0.60009 5.26524,1.0655 5.49275,5.40059 0.11548,2.20042 -0.0142,3.01815 -0.94093,5.93243 -0.58761,1.84786 -2.25539,5.28818 -3.40848,7.03106 -0.77686,1.17418 -0.88899,1.4444 -0.73196,1.76388 0.10199,0.20751 0.23858,0.6551 0.30354,0.99465 0.14545,0.76037 0.54291,1.23472 1.03457,1.23472 0.53976,0 1.92004,-0.99054 3.59482,-2.57977 1.39011,-1.31911 1.47144,-1.43827 1.61674,-2.36875 0.22957,-1.47023 0.67805,-2.69742 1.6179,-4.42715 1.04152,-1.91685 2.39052,-3.64782 2.95773,-3.79522 1.63153,-0.42398 1.08132,1.92291 -1.33788,5.70664 -0.72406,1.13245 -1.62827,2.41324 -2.00937,2.84618 -0.63418,0.72047 -0.6929,0.87289 -0.6929,1.7985 0,1.80862 0.80694,3.34873 1.75455,3.34873 0.92156,0 3.0261,-1.46472 5.64671,-3.93 l 1.36115,-1.28047 0.12131,-1.18411 c 0.11856,-1.15716 1.00261,-3.83864 1.43914,-4.36514 0.12065,-0.14552 0.39278,-0.60936 0.60472,-1.03076 0.43521,-0.86534 2.99728,-4.08879 3.67117,-4.61888 0.52132,-0.41007 1.32129,-0.4538 1.62423,-0.0888 0.17086,0.20587 0.14921,0.43132 -0.10589,1.10243 -0.73555,1.93512 -3.08436,6.02445 -4.33448,7.54641 -0.15937,0.19403 -0.74073,0.89236 -1.29191,1.55186 l -1.00214,1.19908 0.0623,1.18217 c 0.072,1.36654 -0.14908,1.66438 -0.49463,0.66626 -0.13183,-0.38077 -0.27461,-0.72723 -0.3173,-0.76992 -0.0427,-0.0427 -0.69688,0.48327 -1.45376,1.1688 -2.58613,2.34231 -4.32866,3.38022 -5.67497,3.38022 -0.75681,0 -0.93363,-0.0717 -1.3256,-0.53753 -0.4339,-0.51567 -0.99017,-2.0095 -0.99017,-2.65907 0,-0.36827 -0.3902,-0.65987 -0.48847,-0.36505 -0.0376,0.11273 -0.79334,0.77688 -1.67948,1.47588 -2.51015,1.98006 -3.57888,2.1675 -4.21097,0.73854 -0.1872,-0.42319 -0.41008,-0.76944 -0.49528,-0.76944 -0.0852,0 -0.34101,0.33735 -0.56845,0.74966 -0.49974,0.90593 -0.91349,0.98089 -0.99086,0.17953 -0.0586,-0.60724 0.63408,-2.05232 1.54091,-3.21457 0.70391,-0.90218 1.84297,-2.91493 2.71939,-4.80524 1.47168,-3.17423 1.7997,-4.25218 2.09094,-6.87135 0.28538,-2.56648 -0.0348,-4.35703 -0.98668,-5.51873 -0.88937,-1.08536 -1.65563,-1.40232 -3.09788,-1.2814 -1.56253,0.13099 -2.66356,0.56312 -3.87222,1.51973 -2.55882,2.02523 -4.97413,5.35382 -6.09125,8.39446 -0.24949,0.6791 -0.52562,1.39347 -0.61361,1.5875 -0.088,0.19403 -0.20933,0.55121 -0.26966,0.79375 -0.0603,0.24253 -0.27006,1.03628 -0.46606,1.76389 -0.84366,3.13189 -0.75751,6.32741 -0.58302,8.82945 0.066,0.94692 0.1565,2.5407 0.29275,3.49577 0.13884,0.97322 0.21091,1.64526 0.32057,1.68149 0.10623,0.0351 0.59699,-1.12915 1.20406,-2.6685 0.6037,-1.53084 1.41846,-3.52905 1.81057,-4.44045 0.3921,-0.9114 0.85456,-2.06234 1.02767,-2.55764 0.17311,-0.4953 0.61025,-1.53508 0.97142,-2.31063 0.36116,-0.77555 0.8132,-1.80723 1.00452,-2.29262 0.37485,-0.95099 0.62151,-1.32437 0.87489,-1.32437 0.44392,0 0.27129,0.70348 -0.61591,2.50983 -0.53706,1.09345 -1.29285,2.78183 -1.67955,3.75197 -0.84508,2.12009 -2.09251,5.07456 -2.75557,6.52639 -0.26584,0.58208 -0.57994,1.37583 -0.69801,1.76389 -0.23822,0.78298 -1.08074,2.20486 -1.30646,2.20486 -0.0796,0 -0.19769,-0.0529 -0.26237,-0.11759 z m 20.40259,-14.35856 c 1.68593,-2.43591 3.03927,-5.45579 2.44497,-5.45579 -0.62762,0 -3.00956,3.83119 -3.71755,5.97944 -0.52075,1.5801 -0.0492,1.38605 1.27258,-0.52365 z m 10.95843,-2.72177 c 1.70107,-2.55918 3.09924,-5.55625 2.59206,-5.55625 -0.37708,0 -2.09638,2.0189 -3.68886,4.33165 -0.98517,1.43075 -2.29625,4.6417 -2.01324,4.93059 0.19456,0.1986 1.73409,-1.63594 3.11004,-3.70599 z m -62.979322,16.25153 c -0.130206,-0.33931 0.213726,-0.97716 2.580766,-4.78625 0.361718,-0.58208 0.686524,-1.14349 0.721792,-1.24757 0.03527,-0.10408 0.612129,-1.15637 1.281913,-2.33843 1.395375,-2.46259 2.649421,-3.82839 3.38587,-3.68761 0.485602,0.0928 0.456058,0.12654 3.348143,-3.81995 0.916592,-1.25076 1.883656,-2.62436 2.149031,-3.05244 0.265376,-0.42808 0.829883,-1.21748 1.254462,-1.75422 0.674247,-0.85237 0.804326,-0.94353 1.027646,-0.72021 0.22332,0.22332 0.17591,0.37599 -0.37455,1.20611 -0.865818,1.30571 -1.691242,2.48256 -2.232955,3.18364 -0.250315,0.32396 -1.131257,1.50183 -1.957647,2.61749 -0.82639,1.11566 -1.792367,2.37332 -2.146616,2.79481 l -0.644089,0.76634 v 1.73572 c 0,1.84932 0.153593,2.4911 0.748052,3.1257 0.496024,0.52951 1.326699,0.51344 2.432812,-0.0471 0.66716,-0.33808 0.87608,-0.5405 0.87608,-0.84886 0,-1.35226 2.127047,-5.92826 3.790948,-8.15562 1.886168,-2.52489 6.135348,-6.34086 7.903116,-7.09738 1.070383,-0.45808 2.249682,-0.12073 2.2349,0.6393 -0.02247,1.15524 -1.243025,3.19468 -4.256169,7.11166 -1.793768,2.33183 -5.747737,6.0056 -8.23564,7.65202 -0.402379,0.26628 -0.731599,0.5869 -0.731599,0.71249 0,0.33454 0.865769,0.9595 1.329227,0.9595 0.563184,0 2.263832,-1.33501 3.576753,-2.80776 0.61249,-0.68705 1.221032,-1.24919 1.352315,-1.24919 0.56846,0 0.317776,0.52408 -0.813648,1.701 -0.666223,0.69301 -1.211314,1.39276 -1.211314,1.555 0,0.5615 0.35218,0.94793 1.137114,1.2477 0.856243,0.327 1.824145,0.26665 3.133772,-0.19542 0.566037,-0.19971 0.852532,-0.21021 1.384766,-0.0507 0.55601,0.16658 0.952822,0.13769 2.314307,-0.16848 2.228438,-0.50113 2.172133,-0.49327 2.26581,-0.31649 0.16233,0.30634 -2.683133,1.03087 -4.238547,1.07924 -0.882448,-0.3021 -1.795871,0.058 -2.134779,0.16614 -1.634044,0.52139 -3.761779,0.0861 -4.29923,-0.95291 -0.301433,-0.5829 -0.333638,-0.57985 -1.266608,0.12013 -0.306276,0.22979 -0.833985,0.46277 -1.172686,0.51774 -0.539758,0.0876 -0.710672,0.0125 -1.383787,-0.60796 l -0.767967,-0.70788 -0.643246,0.33 c -0.994496,0.51021 -1.900807,0.58505 -2.613196,0.2158 -0.929401,-0.48174 -1.293873,-1.27117 -1.384554,-2.99887 -0.04265,-0.81266 -0.134823,-1.45448 -0.204821,-1.42626 -0.07,0.0282 -0.754405,0.798 -1.520906,1.71064 -2.7665,3.29395 -3.503567,4.32804 -4.349134,6.10176 -0.369986,0.77611 -0.73799,1.53018 -0.817786,1.6757 -0.200952,0.36647 -0.704339,0.43451 -0.828121,0.11194 z m 15.096544,-8.38346 c 1.744552,-1.27941 5.181185,-4.63336 6.859574,-6.69453 2.41987,-2.97175 4.065945,-5.69053 3.825181,-6.31795 -0.143295,-0.37342 -1.345575,-0.18924 -2.209944,0.33854 -1.691453,1.03281 -5.434677,4.64238 -6.904487,6.65796 -1.432725,1.96472 -3.642879,6.45643 -3.438707,6.98849 0.119251,0.31076 0.116939,0.31197 1.868383,-0.97251 z m -9.148651,-0.35159 c 1.26904,-1.46527 1.75665,-2.14387 1.656693,-2.30561 -0.05723,-0.0926 -0.20795,-0.12851 -0.334924,-0.0798 -0.237538,0.0911 -1.663623,1.9674 -2.032531,2.67412 -0.324135,0.62096 0.05699,0.46613 0.710762,-0.28873 z m 60.521909,2.86184 c -0.12126,-0.0489 -0.22048,-0.27927 -0.22048,-0.51188 0,-0.30769 0.12421,-0.45408 0.4559,-0.53733 0.60213,-0.15113 0.97708,0.22488 0.76699,0.76916 -0.14506,0.37582 -0.51142,0.47817 -1.00241,0.28005 z"
       id="path33" /></g></svg>
