<?xml version="1.0" encoding="utf-8"?>
<!-- Generator: Adobe Illustrator 16.0.0, SVG Export Plug-In . SVG Version: 6.00 Build 0)  -->
<!DOCTYPE svg PUBLIC "-//W3C//DTD SVG 1.1//EN" "http://www.w3.org/Graphics/SVG/1.1/DTD/svg11.dtd">
<svg version="1.1" xmlns="http://www.w3.org/2000/svg" xmlns:xlink="http://www.w3.org/1999/xlink" x="0px" y="0px"
	 width="199.49px" height="124.494px" viewBox="0 0 199.49 124.494" enable-background="new 0 0 199.49 124.494"
	 xml:space="preserve">
<g id="Layer_1">
</g>
<g id="Layer_2">
	<g>
		<g>
			<path d="M32.646,31.149c-3.172,3.559-6.375,7.091-9.596,10.605c-2.578,2.812-5.178,5.604-7.821,8.354
				c-0.957,0.995-1.928,1.976-2.913,2.943c-0.911,0.896-2.436,1.444-1.111,1.587c0.648,0.372,1.295,0.743,1.943,1.114
				c0.838,1.587,0.068,1.626,1.13-0.104c0.73-1.189,1.531-2.335,2.328-3.48c2.699-3.88,5.607-7.615,8.576-11.292
				c6.208-7.69,12.889-15.594,20.858-21.527c0.434-0.323,1.26-0.959,1.708-0.988c-0.955,0.063-0.803-0.924-0.78,0.392
				c0.046,2.678-0.936,5.471-1.694,8.001c-2.556,8.535-6.148,16.791-9.757,24.921c-3.978,8.961-8.254,17.794-12.772,26.495
				c-4.582,8.82-10.015,17.264-13.378,26.662c-0.64,1.79-1.517,4.214-0.528,6.029c1.164,2.137,3.669,0.974,4.842-0.388
				c6.04-7.009,8.448-17.35,12.644-25.501c9.443-18.349,21.341-35.726,33.864-52.098c1.692-2.212,3.426-4.404,5.283-6.48
				c2.25-2.516-0.702,1.403-2.119-2.185c-0.333-0.842-0.21,0.258-0.431,0.987c-1.726,5.706-4.308,11.219-6.623,16.7
				c-6.369,15.075-13.229,30.036-18.581,45.514c-0.872,2.521-4.156,9.698-1.62,12.107c3.311,3.146,6.586-3.927,7.771-5.945
				c9.575-16.303,18.074-33.165,28.281-49.109c5.702-8.908,12.019-17.431,18.444-25.828c1.584-2.07,3.189-4.227,5.106-6.007
				c1.014-0.942-2.255-2.706-2.495-1.296c-0.181,1.068-0.548,2.115-0.878,3.143c-6.99,21.784-16.833,42.583-23.765,64.426
				c-1.84,5.798-13.545,36.605,0.009,37.425c2.9,0.175,2.883-4.326,0-4.5c-7.666-0.464,14.337-60.218,16.04-64.659
				c4.018-10.483,8.511-20.838,12.056-31.496c0.851-2.557,2.148-9.29-2.994-7.095c-1.73,0.739-3.177,3.011-4.305,4.394
				c-3.079,3.775-5.946,7.729-8.836,11.647c-7.553,10.24-14.499,20.793-20.957,31.757c-5.55,9.422-10.748,19.044-16.032,28.617
				c-1.611,2.919-3.229,5.839-4.98,8.677c-0.462,0.749-0.931,1.517-1.498,2.192c-0.83,0.987,2.353-2.919,2.751,1.529
				c-0.041-0.456,0.055-0.938,0.128-1.383c0.967-5.838,3.564-11.584,5.708-17.055c3.227-8.239,6.705-16.38,10.169-24.521
				c2.982-7.008,6.004-14.001,8.849-21.066c0.959-2.384,4.073-7.687,2.988-10.435c-1.936-4.901-6.651,1.74-8.009,3.411
				c-5.331,6.56-10.242,13.476-15.053,20.42c-6.334,9.142-12.358,18.509-17.899,28.154c-5.354,9.319-9.028,19.31-14.016,28.783
				c-0.716,1.358-1.482,2.785-2.489,3.954c-0.723,0.839,2.524,2.392,2.745,1.076c0.109-0.647,0.32-1.282,0.509-1.908
				c1.792-5.946,5.043-11.562,8.069-16.941c4.389-7.802,8.434-15.785,12.306-23.854c4.153-8.654,8.068-17.432,11.611-26.354
				c2.49-6.27,5.065-12.785,5.942-19.514c0.432-3.316-1.042-7.293-5.102-6.038c-2.611,0.807-4.9,3.154-6.901,4.885
				c-3.921,3.393-7.471,7.223-10.921,11.084c-5.957,6.667-11.57,13.737-16.626,21.113c-1.027,1.499-2.293,3.139-2.812,4.912
				c-0.592,2.028,1.728,3.848,3.529,2.682c4.678-3.028,8.496-8.226,12.235-12.271c3.723-4.027,7.405-8.094,11.053-12.189
				C37.751,32.172,34.58,28.978,32.646,31.149L32.646,31.149z"/>
		</g>
		<g>
			<path d="M93.904,84.823c-5.945-0.149-13.915,5.023-12.388,11.906c0.596,2.689,2.908,3.831,5.456,2.856
				c1.502-0.574,2.766-1.806,3.721-3.062c0.972-1.28,1.74-2.558,2.488-3.981c0.294-0.562,2.115-3.211,0.904-2.433
				c-1.102-0.448-2.204-0.896-3.305-1.345c0.297,1.051-0.007,3.457,0.344,4.956c0.54,2.312,2.561,4.339,4.792,5.057
				c1.559,0.502,3.069,0.482,4.227-0.808c0.472-0.525,0.667-1.15,0.937-1.787c-0.348,0.821,6.537,2.083,6.323,3.292
				c-0.501,2.838,3.835,4.051,4.339,1.197c0.473-2.677-0.641-4.07-2.742-5.625c-1.943-1.437-6.862-3.929-9.337-3.074
				c-0.751,0.259-1.266,0.546-1.861,1.071c-0.232,0.269-0.435,0.558-0.606,0.868c-0.8,1.293,0.221,0.632-0.577,0.219
				c-2.401-1.243-0.942-4.6-1.497-6.562c-0.383-1.353-2.067-2.141-3.305-1.345c-0.724,0.465-1.059,1.083-1.443,1.826
				c-0.647,1.25-1.235,2.525-1.89,3.772c-0.347,0.661-2.372,2.649-2.439,3.035c0.646-3.693,4.416-5.621,7.864-5.534
				C96.808,89.396,96.8,84.896,93.904,84.823L93.904,84.823z"/>
		</g>
		<g>
			<path d="M141.64,26.242c-0.579-0.133-0.526-0.615-0.228,0.359c0.872,2.85-0.023,6.424-0.578,9.226
				c-2.283,11.52-6.966,22.723-10.74,33.819c-3.522,10.354-7.051,20.709-10.322,31.145c-0.963,3.071-5.171,11.683-2.6,14.788
				c3.181,3.843,5.675-4.666,6.201-6.197c2.877-8.381,5.388-16.89,8.148-25.31c7.305-22.279,15.568-44.531,28.381-64.314
				c0.704-1.087,1.443-2.157,2.264-3.16c0.297-0.364,0.625-0.695,0.966-1.017c0.674-0.636-2.433-1.46-2.418-1.012
				c0.103,3.158-1.686,6.872-2.689,9.778c-4.504,13.046-10.194,25.684-15.041,38.606c-1.906,5.082-18.196,43.116-2.146,41.702
				c2.867-0.253,2.892-4.755,0-4.5c-6.253,0.551,1.11-20.538,1.982-23.242c4.678-14.501,10.693-28.544,16.299-42.7
				c1.931-4.875,3.79-9.807,5.216-14.857c0.498-1.762,1.62-5.003,0.448-6.751c-3.15-4.703-7.908,3.556-9.287,5.684
				c-12.578,19.422-20.652,41.469-27.893,63.309c-2.855,8.612-5.467,17.306-8.341,25.912c-0.44,1.317-1.294,4.232-1.771,4.847
				c7.48-9.647,3.149,3.336,3.472,1.049c0.062-0.443,0.167-0.883,0.262-1.32c0.341-1.563,0.794-3.105,1.235-4.643
				c5.413-18.866,12.257-37.355,18.552-55.938c1.177-3.476,10.761-27.548,1.822-29.602C140.011,21.254,138.812,25.593,141.64,26.242
				L141.64,26.242z"/>
		</g>
		<g>
			<path d="M139.701,106.349c3.348,1.693,7.353,0.128,10.216-1.795c9.095-6.108,13.823-18.372,17.693-28.116
				c4.13-10.4,7.247-21.41,8.995-32.468c0.229-1.447,1.533-13.175-3.519-8.683c-2.376,2.112-3.296,7.088-4.271,9.929
				c-2.377,6.926-4.419,13.972-6.291,21.049c-1.989,7.517-3.745,15.126-4.842,22.829c-0.673,4.72-1.672,10.556,0.285,15.11
				c1.021,2.377,3.369,3.4,5.788,3.934c3.782,0.832,6.554-1.895,8.732-4.552c4.194-5.116,7.659-2.467,11.471,1.659
				c1.916,2.075,4.6,2.705,6.22-0.036c1.48-2.504-2.41-4.767-3.885-2.271c0.798-1.352,1.892,0.257,0.316-1.448
				c-0.615-0.666-1.227-1.329-1.864-1.974c-1.179-1.19-2.642-2.299-4.206-2.913c-3.589-1.409-6.779-0.652-9.566,1.909
				c-2.242,2.061-4.831,7.567-8.601,4.358c-1.159-0.986-0.923-3.905-0.93-5.226c-0.079-14.574,5.047-29.896,9.272-43.686
				c1.517-4.948,2.975-10.093,5.186-14.789c0.111-0.235,0.234-0.462,0.361-0.688c0.034-0.056,0.068-0.111,0.104-0.167
				c-0.782,1.139-2.008,0.843-3.677-0.89c0.116,1.135-0.055,2.326-0.171,3.452c-0.497,4.838-1.681,9.645-2.858,14.352
				c-3.221,12.879-7.786,25.792-14.792,37.121c-2.317,3.746-5.56,8.111-9.84,9.778c-0.851,0.331-1.692,0.447-2.597,0.407
				c-0.326-0.015-1.217-0.455-0.459-0.071C139.39,101.157,137.111,105.039,139.701,106.349L139.701,106.349z"/>
		</g>
	</g>
</g>
</svg>
