<?xml version="1.0" encoding="utf-8"?>
<!-- Generator: Adobe Illustrator 16.0.0, SVG Export Plug-In . SVG Version: 6.00 Build 0)  -->
<svg xmlns="http://www.w3.org/2000/svg" width="300" height="93">
<path fill="none" stroke="#000" stroke-width="3" stroke-miterlimit="10" d="M14.519,19.288c0,0,5.624-8.292,10.494-8.331
	c4.871-0.039,19.112-1.038-5.579,49.551C14.282,71.062,41.751,9.543,51.857,9.784c6.026,0.144,3.634,8.253,6.133,9.003
	c2.498,0.75,3.218-4.946,9.244-2.998c12.741,4.123,1.313,35.085,2.998,35.224c2.998,0.254,3.5-49.542,29.481-43.945
	c25.981,5.598-11.993,16.636-11.993,27.108c0,8.219,9.578,11.094,12.826,14.34
M155.671,21.286c0,0,7.748-9.368,14.868-9.244
	c7.119,0.125,19.403,2.506,5.04,16.237c-2.382,2.276,18.691,12.141,18.397,25.881c-0.263,12.387-13.193,17.092-22.812,16.717
	c-9.619-0.373-15.239-3.248-15.49-10.492c-0.25-7.244,12.368-19.738,26.858-28.731c14.488-8.994,42.554-18.613,42.721-24.733
	c0.126-4.622-21.611,9.494-16.989,14.24c4.623,4.747,52.838,29.605,51.592,47.093c-1.248,17.488-18.988,18.236-25.234,18.236
	c-6.245,0-25.732-2.748-25.482-20.984c0.25-18.238,42.597-53.771,78.572-59.988"/>
</svg>