<?xml version="1.0" encoding="UTF-8"?>
<svg width="546.66mm" height="282.92mm" version="1.1" viewBox="0 0 546.66345 282.91599" xmlns="http://www.w3.org/2000/svg" xmlns:cc="http://creativecommons.org/ns#" xmlns:dc="http://purl.org/dc/elements/1.1/" xmlns:rdf="http://www.w3.org/1999/02/22-rdf-syntax-ns#">
<metadata>
<rdf:RDF>
<cc:Work rdf:about="">
<dc:format>image/svg+xml</dc:format>
<dc:type rdf:resource="http://purl.org/dc/dcmitype/StillImage"/>
<dc:title/>
</cc:Work>
</rdf:RDF>
</metadata>
<g transform="translate(429.15 52.147)">
<path d="m-406.8 229.7c-30.51-17.891-29.762-90.508 2.1095-204.6 27.04-96.796 53.363-78.537 54.313 37.677 0.0796 9.7367 0.0796 9.7367 2.4228 2.54 15.609-47.938 30.499-49.404 30.514-3.0057 6e-3 17.181 0.071 17.238 5.1337 4.4246 12.851-32.524 22.765-26.791 22.804 13.186 9e-3 9.2777 0.40007 9.2368 6.4792-0.67785 19.765-32.235 32.418-37.66 32.483-13.927 0.0195 7.1468-0.54808 7.4666 10.518-5.9267 10.17-12.309 11.183-14.701 6.6302-15.662-7.5766-1.5986-5.9806-7.6432 2.2762-8.6211 4.2069-0.49824 4.4495-0.67185 6.4466-4.613 3.258-6.4293 7.3888-6.7892 8.412-0.73294 0.57142 3.3822 0.57142 3.3822 12.139 3.3954 16.279 0.0186 25.965 2.6603 28.924 7.8883 2.9631 5.2353-1.9116 6.9519-9.6228 3.3885-7.3351-3.3895-31.781-3.7345-34.411-0.48564-4.7944 5.9226-7.5687 35.772-3.9427 42.421 2.0506 3.76 2.1347 3.615 7.3034-12.586 7.2509-22.727 12.184-30.152 17.085-25.716 2.0186 1.8268 1.9958 4.83-0.1184 15.556-2.1402 10.858-2.2824 24.107-0.30322 28.258 2.1653 4.5406 0.23224 7.2589-4.345 6.1101-2.2596-0.56712-4.8692-4.8324-5.9123-9.6633-0.58034-2.6877-1.4431-3.0279-1.7842-0.70352-3.4769 23.689-22.164 11.455-22.675-14.845-0.11646-5.9921-0.11646-5.9921-8.8671 3.2209-10.853 11.427-10.647 11.116-13.177 19.817-5.3054 18.246-12.197 25.901-20.277 22.525-8.836-3.6919-7.0122-10.697 6.9479-26.688 8.294-9.5004 9.3159-11.861 9.6909-22.386 0.3275-9.1925-0.93263-8.0808-14.715 12.982-19.174 29.304-25.809 33.526-24.01 15.278 0.65419-6.6367-0.43331-38.138-1.3166-38.138-0.81952 0-7.8056 17.785-14.094 35.88-5.1668 14.868-6.77 17.364-10.409 16.209-2.9254-0.92847-3.6751-5.9908-2.655-17.927 1.6112-18.853 1.029-53.635-0.89771-53.635-2.1583 0-10.305 21.361-16.792 44.027-5.2958 18.505-5.8957 21.257-7.2206 33.136-1.8785 16.841-3.4872 21.051-8.0444 21.051-4.5149 0-5.3197-7.19-2.1323-19.05 5.7416-21.364 3.0436-105.72-4.2807-133.84-4.2076-16.154-7.4836-16.729-14.305-2.5082-24.957 52.029-45.999 165.72-38.32 207.04 6.904 37.156 18.407 41.801 42.637 17.216 10.859-11.018 13.119-12.529 15.375-10.273 9.2919 9.2919-33.773 40.157-46.014 32.978zm137.6-124.05c-0.0104-0.5305-0.76388-0.012-1.6745 1.1521-2.1643 2.7669-2.1387 4.4123 0.0282 1.8112 0.91584-1.0994 1.6567-2.4328 1.6463-2.9633zm169.4 67.722c-1.8145-3.983-3.7397-11.515-3.1054-12.149 0.21314-0.21315-0.13766-1.8761-0.77957-3.6954-1.2733-3.6088-1.0755-53.506 0.26041-65.687 0.45741-4.1712 0.34637-6.9539-0.35476-8.89-1.5605-4.309-1.3431-7.6759 0.94884-14.697 1.1915-3.6501 2.4966-10.522 3.0201-15.901 0.50701-5.2103 1.6746-15.379 2.5946-22.597s2.224-17.695 2.8976-23.283c0.67369-5.588 1.6017-12.446 2.0622-15.24 0.46053-2.794 1.6256-10.223 2.5891-16.51 1.9047-12.428 2.6493-13.816 7.1748-13.372 3.3032 0.32378 3.6004 3.1994 1.6743 16.199-5.6766 38.311-9.4493 69.989-8.3346 69.982 0.4035-3e-3 4.5436-3.4908 9.2003-7.7512 8.3161-7.6083 21.36-18.628 36.919-31.19 30.692-24.78 30.185-30.082-3.9592-41.407-39.363-13.056-75.814-13.308-93.372-0.64525-8.8669 6.3946-14.974 1.3247-6.8158-5.6583 11.008-9.4225 33.606-14.878 51.565-12.449 28.146 3.8072 37.652 5.6866 52.07 10.295 32.558 10.407 41.139 22.839 26.807 38.84-5.1475 5.7471-8.957 9.06-24.36 21.184-55.264 43.501-68.005 66.87-35.89 65.829 13.878-0.44999 13.353 0.0819 12.9-13.08-0.97982-28.45 10.733-40.744 24.722-25.946 12.399 13.116 9.2586 32.274-6.3856 38.957-4.7656 2.0357-4.6722 5.9656 0.17833 7.5051 2.7726 0.87999 8.8701-1.9182 11.711-5.3745 4.2174-5.1302 4.6589-5.7154 5.9204-7.8482 7.5232-12.718 10.1-18.46 11.937-26.599 2.2614-10.019 5.5377-13.82 9.6107-11.152 3.1656 2.0742 3.2914 3.849 0.85601 12.071-6.4904 21.911-4.5703 35.483 4.249 30.032 4.7423-2.9309 6.1582-5.1853 14.388-22.908 2.6292-5.6622 8.8477-2.1679 9.8966 5.5611 1.0136 7.4689 1.4952 7.6496 9.5272 3.5756 9.1674-4.6499 13.455-4.8173 19.995-0.78085 5.319 3.2829 3.947 4.114 12.397-7.5092 13.293-18.284 19.041-19.108 22.421-3.2176 1.5544 7.3077 2.845 6.8167 4.5272-1.7223 5.0454-25.612 17.775-48.118 23.805-42.088 2.789 2.7889 2.751 2.9746-2.5099 12.266-7.0361 12.427-9.203 18.892-13.609 40.607-4.41 21.733-20.75 20.531-20.75-1.5255 0-6.5999-16.262 11.151-17.545 19.152-1.8125 11.298-16.706 17.794-16.706 7.2872 0-2.192 0.72136-4.2468 2.1839-6.2207 3.4852-4.7038 3.5759-5.7461 0.74594-8.5761-2.923-2.923-3.2117-2.8869-12.634 1.5804-10.405 4.9333-13.126 5.1024-17.428 1.0833-1.6688-1.5592-1.7484-1.513-5.5033 3.1934-10.497 13.157-26.617 14.221-29.077 1.9179-0.71627-3.5813-1.1661-3.3187-6.9196 4.0396-11.096 14.191-23.477 16.659-32.448 6.467-3.3678-3.826-3.3678-3.826-13.094-2.4271-8.9541 1.2879-10.253 1.2916-16.36 0.0461-9.0022-1.8358-8.4678-3.0435-9.5056 21.478-1.1679 27.594 0.0499 47.943 3.4281 57.286 2.2704 6.2788-4.9279 7.8279-7.7356 1.6648zm54.425-100.36c6.79-6.1917 5.0858-17.895-3.4291-23.548-3.484-2.3133-6.6464 8.3101-6.021 20.226 0.54517 10.387 1.3807 10.681 9.4501 3.3222zm-101.04 21.466c-37.281-5.8628-50.672-15.495-42.897-30.854 7.6874-15.185 36.34-11.382 32.804 4.3541-2.366 10.53-18.53 14.042-24.819 5.3915-0.39754-0.54678-0.62671-0.49578-0.635 0.14133-0.0837 6.4319 48.484 16.457 57.56 11.881 6.6634-3.3591-1.861-13.301-11.404-13.301-4.9919 0-8.7418 2.1596-10.965 6.3145-3.0217 5.6482-9.834 4.0654-8.4198-1.9563 4.1157-17.524 35.529-16.871 41.419 0.86117 4.7946 14.435-7.8237 21.072-32.643 17.168zm-19.135-26.886c1.4848-2.4448-2.0622-4.8153-7.2051-4.8153-5.161 0-5.4842 1.5588-0.96454 4.6515 3.5407 2.4228 6.7585 2.4873 8.1696 0.16376z" stroke-width=".84667"/>
</g>
</svg>
