<?xml version="1.0" encoding="UTF-8" standalone="no"?><svg height="65.702751mm" viewBox="0 0 79.375 65.702751" width="79.375mm" xmlns="http://www.w3.org/2000/svg"><g fill="none" stroke="#000" stroke-linecap="round" stroke-linejoin="round" stroke-width="1.5" transform="matrix(.75981356 -.10919797 .10919797 .75981356 -66.33308 -78.310775)"><path d="m66.439597 163.26704c.339961-13.8168.224707-19.41132 1.937704-20.94725 1.17007-1.04913 3.761772 2.02276 13.23581 8.73394 6.040695 4.27911 13.734813 4.38508 19.282309-2.8631 9.15398-11.96031 4.77514-20.10311.45626-22.80905-4.166486-2.61046-11.392107 5.27863-14.232103 14.56619-.628057 2.05392-2.766212 9.23679-4.246224 18.03598-1.480011 8.7992-2.490704 19.21376-2.435513 26.93212.110707 15.48206-.03984 17.57296-2.605879 13.43029"/><path d="m91.530819 157.69922s-.14174-2.78759-1.866257 0c-1.724517 2.78757-2.882069 12.87481-.779576 10.13448 2.102493-2.74032 4.420618-9.22915 4.157738-9.70926-.13591-.24822-1.589162 9.58692.8032 7.48865 1.61563-1.41703 3.47886-5.22895 4.08687-6.44922.3994-.80158.21261-.96856-.0945 2.76396-.32955 4.00534.41462 4.70894 2.168806 1.22148 2.04634-4.06827 1.77318-4.56752 1.5897-3.98614-.20401.64643-.4443 4.92348.20667 5.28594"/><path d="m108.43432 159.12436s-.50859-2.43393-1.83748-2.07133c-1.15327.31467-3.24528 3.65659-1.26953 5.98015 1.72824 2.03247 5.88699-3.79638 5.57925-3.94224-.34155-.16189-.56795 2.57247.0334 3.47451.60136.90204 1.77066-.10022 2.43884-2.50565 0 0 1.43658 3.4745 2.47225 1.43658"/><path d="m123.44463 156.56794c.0382 1.78262-1.51111.64548-1.37489-.23962.14081-.91494.23503-1.82508.71317-4.19174.79835-3.95169 1.09051-5.30721 2.06963-5.91109 1.97188-1.21618 5.74506.36005 9.22415 1.2699 3.58709.9381 9.41475 1.36877 14.88834-4.98923 5.2877-6.14207-1.17799-14.00824-4.45743-17.18665-3.5306-3.42183-7.10237 2.19021-8.4777 10.48558-.3513 2.11888-1.65183 9.55536-2.50898 18.43689-.91305 9.46066-1.35697 14.29888-2.0346 21.98763-1.39981 15.88296-1.72023 18.44634-1.72023 18.44634"/><path d="m138.63084 156.71893s-.24666-1.91044-1.00227-1.6036c-.72229.29328-1.95904 3.05522-1.88759 4.76073.11168 2.66556 4.20087-5.7664 4.27632-5.36211.14228.76243-.20737 4.60029 1.06906 5.42031 2.53375 1.62778 6.89589-8.36992 5.67514-7.02392-1.0744 1.18463-3.22933 6.51805-1.04308 5.91334 1.57021-.43431 5.31198-4.47676 5.3788-5.21176.0696-.76524-.3675 2.50566.33409 3.37429 1.23612 1.5368 6.1806-5.04472 5.71288-2.93997"/><path d="m155.57153 147.61365c.23663.3276.37759.62298.52234.91964"/><path d="m161.71628 155.10062c2.08886 1.38015 7.4113 4.23291 5.95311 6.37835-1.53215 2.25424-12.67227 6.44517-26.97804 9.49666-15.2787 3.25901-37.18579 7.84299-39.64263 9.16592"/></g></svg>