<?xml version="1.0" encoding="UTF-8" standalone="no"?>
<svg
   xmlns:dc="http://purl.org/dc/elements/1.1/"
   xmlns:cc="http://creativecommons.org/ns#"
   xmlns:rdf="http://www.w3.org/1999/02/22-rdf-syntax-ns#"
   xmlns:svg="http://www.w3.org/2000/svg"
   xmlns="http://www.w3.org/2000/svg"
   version="1.1"
   id="svg24"
   width="560"
   height="149"
   viewBox="0 0 560 149">
  <metadata
     id="metadata30">
    <rdf:RDF>
      <cc:Work
         rdf:about="">
        <dc:format>image/svg+xml</dc:format>
        <dc:type
           rdf:resource="http://purl.org/dc/dcmitype/StillImage" />
        <dc:title></dc:title>
      </cc:Work>
    </rdf:RDF>
  </metadata>
  <defs
     id="defs28" />
  <g
     id="g32">
    <path
       style="fill:#000000;stroke-width:0.550309"
       d="m 525.56391,145.23252 c -0.91213,-0.41991 -2.73575,-1.21223 -4.05249,-1.76072 -3.84159,-1.60024 -7.92516,-6.9681 -10.39548,-13.66486 -1.30339,-3.53335 -1.63191,-12.70659 -0.54683,-15.26906 1.20822,-2.85326 1.1824,-4.33526 -0.0692,-3.97111 -3.27748,0.95358 -12.76832,3.07825 -13.75264,3.07873 -0.64697,3.2e-4 -2.06936,0.37037 -3.16088,0.82232 -1.09152,0.45196 -3.34915,0.82174 -5.01696,0.82174 -2.6209,0 -3.16715,-0.18933 -4.0256,-1.39525 -2.76201,-3.88003 -2.31711,-3.67824 -5.52734,-2.50687 -1.58163,0.57712 -4.38161,1.22252 -6.22217,1.43421 -1.84758,0.21251 -3.53099,0.71165 -3.75844,1.11441 -0.22658,0.40124 -2.40185,1.51642 -4.83394,2.47819 -2.43208,0.96178 -6.53646,2.81339 -9.12082,4.11471 -9.18261,4.62375 -11.425,5.24056 -12.95621,3.56384 -1.30617,-1.4303 -0.98416,-5.8824 0.67634,-9.35107 1.49321,-3.11921 4.65807,-8.78581 5.84444,-10.46434 1.81287,-2.56492 0.61541,-2.7996 -4.38195,-0.8588 -1.80826,0.70227 -3.61454,1.16889 -4.01398,1.03695 -0.39943,-0.13195 -1.26818,0.25174 -1.93054,0.85263 -0.66236,0.6009 -2.24466,1.60988 -3.51621,2.24218 -1.27155,0.63231 -2.46786,1.39969 -2.65846,1.7053 -0.19059,0.30561 -0.9152,0.55565 -1.61024,0.55565 -0.69505,0 -1.71397,0.49305 -2.26428,1.09566 -0.55031,0.6026 -1.49953,1.09565 -2.10939,1.09565 -0.60986,0 -1.75292,0.71348 -2.54015,1.58552 -0.78723,0.87204 -2.59123,2.16628 -4.00888,2.87609 -4.60397,2.30516 -13.4323,7.18747 -14.28302,7.8989 -0.45607,0.38139 -5.80446,3.18198 -11.88533,6.22353 -17.05675,8.53151 -24.60561,10.22929 -29.68228,6.67572 -1.1231,-0.78614 -2.56691,-2.34941 -3.20847,-3.47394 -1.2491,-2.1894 -1.28383,-1.5392 0.56379,-10.5554 1.07975,-5.26902 5.25543,-14.79663 11.47439,-26.180993 1.92517,-3.524179 0.89675,-6.549682 -1.11148,-3.269878 -1.14765,1.874325 -5.51026,6.313241 -11.25306,11.449891 -4.21964,3.77425 -6.28837,5.47733 -12.03269,9.90588 -1.47607,1.13796 -3.46617,2.70013 -4.42245,3.47149 -4.29935,3.46796 -9.08117,5.41273 -11.89886,4.8393 -2.41261,-0.49101 -2.81204,-1.19536 -2.82231,-4.97683 -0.004,-1.71472 -0.20715,-3.23936 -0.44999,-3.38809 -0.24284,-0.14873 -1.42446,0.32568 -2.62583,1.05425 -6.81685,4.13407 -9.6235,4.46664 -11.71015,1.38758 -1.71025,-2.52364 -1.23107,-4.94986 1.7169,-8.69322 1.25449,-1.59295 2.57936,-3.44961 2.94414,-4.12589 0.36479,-0.67628 2.31159,-2.93707 4.32622,-5.023967 2.01463,-2.086898 3.9016,-4.23622 4.19325,-4.776272 0.29166,-0.540058 0.86421,-0.981917 1.27236,-0.981917 0.40813,0 1.05175,-0.369783 1.43025,-0.821739 0.3785,-0.451956 1.24107,-0.821738 1.91683,-0.821738 0.67576,0 1.67359,-0.487231 2.21742,-1.082733 0.54382,-0.595503 1.19914,-0.953885 1.45626,-0.796402 0.54525,0.333944 2.79945,-0.751293 3.36956,-1.622204 0.2769,-0.422993 0.59262,-0.398971 1.07798,0.08201 0.37751,0.37411 1.0956,0.680202 1.59575,0.680202 1.24182,0 2.73915,1.745498 2.73915,3.193133 0,1.040973 -0.30442,1.189472 -2.43844,1.189472 -3.84533,0 -8.24556,1.973218 -11.56752,5.1873 -1.61296,1.560585 -3.33328,2.989775 -3.82291,3.175975 -1.0899,0.41446 -5.14252,5.42353 -6.26636,7.74524 -0.45148,0.9327 -1.21308,2.40365 -1.69247,3.2688 -0.72709,1.31219 -0.7467,1.6514 -0.11828,2.04596 1.07035,0.67202 1.10106,0.66109 3.24094,-1.15373 1.06415,-0.9025 2.12139,-1.64148 2.34942,-1.64219 0.22804,-5.5e-4 0.8679,-0.4327 1.42192,-0.95998 0.55402,-0.52728 1.89133,-1.73802 2.9718,-2.69052 1.08047,-0.95251 2.7612,-3.11179 3.73496,-4.79842 2.11759,-3.66782 5.22325,-6.270434 6.51721,-5.461581 1.63867,1.024336 1.85152,2.801001 0.533,4.448931 -1.39053,1.73794 -2.44113,3.33475 -2.98035,4.52985 -0.20392,0.45196 -0.55655,0.94795 -0.78362,1.10222 -0.22707,0.15426 -0.91885,2.19491 -1.53729,4.53478 -1.08222,4.09457 -1.07743,5.86734 0.0159,5.86734 0.84546,0 4.86654,-2.1647 5.89356,-3.17273 0.52448,-0.51478 1.5714,-1.36626 2.32649,-1.89218 2.28234,-1.58963 8.45151,-6.01734 11.92353,-8.55769 3.29281,-2.40923 11.28517,-10.233587 11.28517,-11.047951 0,-0.240967 0.22175,-0.520292 0.49276,-0.62073 0.27102,-0.100433 2.40662,-1.908258 4.74578,-4.017386 2.33915,-2.109128 4.66723,-3.990219 5.1735,-4.180205 1.02978,-0.386441 2.85531,0.939439 2.85531,2.07381 0,1.326111 2.16655,0.830044 2.52308,-0.577704 0.41302,-1.630778 11.49232,-12.08095 13.63468,-12.860451 0.31054,-0.112989 0.98557,-0.606032 1.50007,-1.095651 1.82137,-1.733287 13.37948,-9.381513 14.17748,-9.381513 0.17477,0 1.3803,-0.862825 2.67895,-1.917389 1.29866,-1.054564 2.54773,-1.91739 2.77573,-1.91739 0.22799,0 2.93876,-1.253479 6.02393,-2.785517 3.08517,-1.532031 7.22635,-3.280826 9.20263,-3.886209 1.97628,-0.605383 4.21515,-1.365658 4.97526,-1.689501 1.39529,-0.59446 2.1621,-0.609238 5.34133,-0.102938 3.0486,0.485495 3.57452,4.139027 1.2011,8.343874 -0.55791,0.988403 -1.01437,2.129195 -1.01437,2.53509 0,0.4059 -0.40714,1.072845 -0.90474,1.482098 -0.49761,0.409259 -1.33429,1.737171 -1.85929,2.950923 -0.52501,1.213751 -1.36169,2.541664 -1.85929,2.950922 -0.49761,0.409253 -0.90474,1.091433 -0.90474,1.515954 0,0.424521 -0.37315,0.913751 -0.82921,1.087182 -0.45607,0.173436 -0.82921,0.751814 -0.82921,1.285292 0,0.533483 -0.37315,1.276855 -0.82921,1.651946 -0.45606,0.375091 -0.82921,1.029517 -0.82921,1.454279 0,0.424762 -1.86572,2.645351 -4.14604,4.934649 -2.28033,2.289297 -4.14605,4.497965 -4.14605,4.908155 0,0.410184 -0.49752,1.053704 -1.10561,1.430038 -0.60809,0.376335 -1.11917,0.933101 -1.13573,1.237253 -0.0166,0.304153 -1.19819,1.312793 -2.62583,2.241429 -1.42764,0.928635 -2.85418,2.196583 -3.17009,2.817658 -0.99243,1.951076 -1.91794,2.793664 -5.97895,5.443228 -2.17249,1.417425 -4.2787,2.901825 -4.68047,3.298685 -0.40177,0.39685 -1.20452,0.72155 -1.78388,0.72155 -0.57936,0 -1.46087,0.61631 -1.95891,1.36957 -0.49804,0.75326 -1.31306,1.36956 -1.81116,1.36956 -0.49809,0 -1.60183,0.73099 -2.45274,1.62441 -0.85092,0.89342 -2.52926,2.17143 -3.72965,2.84 -1.20039,0.66858 -2.18252,1.40913 -2.18252,1.64567 0,0.23653 -1.33875,1.07967 -2.97499,1.87364 -1.63625,0.79398 -3.9373,2.2702 -5.11346,3.2805 -1.17615,1.0103 -2.76037,2.14377 -3.52048,2.51883 -0.76011,0.37506 -3.00744,1.72498 -4.99408,2.99982 -1.98664,1.27484 -5.035,2.84547 -6.77414,3.4903 -3.29827,1.22293 -4.26315,2.26468 -4.26315,4.60281 0,1.01488 0.48628,1.64197 1.79662,2.31684 1.91687,0.98727 6.81812,1.15229 8.54678,0.28777 2.33511,-1.16781 6.30978,-2.82844 6.7698,-2.82844 0.61025,0 7.27507,-2.90413 10.08381,-4.39392 1.12439,-0.59638 2.38206,-1.08433 2.79483,-1.08433 0.41277,0 1.56549,-0.59587 2.5616,-1.32416 0.99611,-0.72828 3.22111,-1.87719 4.94445,-2.55313 1.72334,-0.67593 3.53799,-1.56988 4.03255,-1.98654 0.79972,-0.67374 5.14782,-3.22801 17.14139,-10.06964 2.0172,-1.15069 4.31825,-2.25399 5.11345,-2.45177 0.7952,-0.19778 1.44582,-0.5761 1.44582,-0.8407 0,-0.26459 0.80847,-0.84921 1.79662,-1.29916 0.98814,-0.44994 2.16976,-1.05517 2.62582,-1.34495 1.87127,-1.18899 10.39845,-4.896595 12.71454,-5.528254 1.36819,-0.37314 3.27151,-1.017257 4.22959,-1.431359 3.48553,-1.506531 4.91445,-0.475353 4.4917,3.241443 -0.31636,2.78153 -5.77635,13.94938 -7.18518,14.69657 -0.54082,0.28683 -0.98331,0.88053 -0.98331,1.31933 0,0.4388 -0.49752,1.10573 -1.10561,1.48207 -1.68479,1.04269 -1.42123,2.24894 0.41461,1.89752 3.50896,-0.67168 5.80358,-1.42983 6.67408,-2.20513 0.50985,-0.45409 3.04148,-1.74192 5.62585,-2.86184 2.58436,-1.11992 5.18953,-2.37269 5.78926,-2.78391 0.59973,-0.41123 1.60721,-0.74768 2.23887,-0.74768 0.63164,0 1.38477,-0.22726 1.67361,-0.50503 0.84612,-0.81367 8.55243,-3.35249 11.85769,-3.90647 3.59645,-0.60278 6.37307,0.37396 7.20151,2.53332 0.41934,1.09299 0.8827,1.32521 2.59711,1.30153 2.4605,-0.034 8.58305,-1.16782 12.86642,-2.38275 1.67224,-0.47431 3.83721,-0.8653 4.81104,-0.86888 3.30636,-0.0122 4.49557,-0.98249 5.48446,-4.47512 0.49847,-1.76052 1.10043,-3.20094 1.33768,-3.20094 0.23725,0 0.60433,-1.047716 0.81573,-2.328258 0.42764,-2.590443 3.21847,-10.029766 5.49751,-14.654334 4.60546,-9.345296 7.683,-15.124707 8.88672,-16.688645 0.74798,-0.97181 1.35996,-1.940853 1.35996,-2.153426 0,-0.889039 7.32465,-11.208117 9.56807,-13.479637 5.23452,-5.300078 8.57135,-7.452723 12.29407,-7.931121 2.53771,-0.326109 2.92567,-0.224519 4.28425,1.121846 2.41615,2.394369 1.86765,6.424914 -1.52309,11.19188 -0.96443,1.355868 -2.47856,3.692777 -3.36482,5.193134 -0.8862,1.500357 -2.05168,3.164377 -2.58997,3.697823 -0.5383,0.533445 -0.97872,1.390605 -0.97872,1.9048 0,0.514189 -0.99505,2.340656 -2.21123,4.058807 -1.21617,1.718156 -2.21122,3.289769 -2.21122,3.49247 0,0.202706 -0.83969,1.396128 -1.86598,2.652051 -1.02629,1.255928 -2.30481,3.146326 -2.84116,4.20089 -0.53636,1.054564 -1.12745,2.04065 -1.31354,2.191302 -0.18609,0.150652 -0.7111,1.007326 -1.16668,1.903716 -0.45558,0.896391 -2.00995,3.681026 -3.45415,6.188084 -1.44421,2.507053 -2.62583,4.817102 -2.62583,5.133449 0,0.316342 -0.44957,1.229529 -0.99903,2.029299 -0.54947,0.799771 -2.08694,3.87648 -3.4166,6.83713 -2.01486,4.48632 -2.79945,5.64338 -4.71007,6.94607 -1.30289,0.88834 -3.22083,1.6389 -4.44304,1.73873 l -2.15054,0.17567 -0.76421,3.82099 c -0.57698,2.88487 -0.61062,4.06471 -0.13732,4.81576 0.34479,0.54712 0.48729,1.21861 0.31666,1.4922 -0.49237,0.78949 0.83384,5.45349 2.59979,9.14288 1.8218,3.80608 6.09925,8.15754 8.54315,8.69096 0.86238,0.18823 3.04666,0.81457 4.85394,1.39188 1.94541,0.62142 4.87725,1.05307 7.18648,1.05803 4.29607,0.009 5.99325,0.60207 4.88052,1.70477 -1.03913,1.02977 -15.44096,1.26813 -17.56419,0.2907 z M 369.20467,122.41129 c 0.76751,-0.90391 1.59874,-1.64347 1.84717,-1.64347 0.24843,0 2.565,-1.23261 5.1479,-2.73913 2.58292,-1.50652 4.93099,-2.73913 5.21794,-2.73913 0.28696,0 0.972,-0.49304 1.52231,-1.09565 0.55031,-0.60261 1.40025,-1.09565 1.88875,-1.09565 0.48851,0 4.86549,-2.71664 9.72663,-6.03697 4.86114,-3.32034 9.95787,-6.76007 11.32606,-7.643852 4.40638,-2.846277 6.05001,-4.111294 6.06942,-4.671336 0.0104,-0.301304 0.94306,-1.164129 2.07246,-1.917389 2.32482,-1.55056 15.07597,-13.993262 15.07597,-14.711297 0,-0.257303 0.55972,-1.071689 1.24381,-1.809742 0.6841,-0.738052 1.58782,-1.990025 2.00828,-2.782159 0.42045,-0.792139 1.60207,-2.320277 2.62582,-3.395872 1.02376,-1.07559 1.86137,-2.305918 1.86137,-2.734055 0,-0.428142 0.62191,-1.510875 1.38202,-2.406072 0.76011,-0.895201 1.38294,-1.961829 1.38408,-2.370293 10e-4,-0.408459 0.51242,-1.572232 1.13619,-2.586158 2.00276,-3.255459 0.40115,-6.768408 -2.31847,-5.085283 -0.94699,0.586078 -1.43687,0.598686 -2.44695,0.06298 -1.64658,-0.873289 -3.90236,-0.288234 -4.27072,1.107648 -0.20894,0.791815 -0.75263,1.101644 -1.93318,1.101644 -0.90337,0 -1.95217,0.369782 -2.33067,0.821738 -0.3785,0.451956 -1.24107,0.821738 -1.91683,0.821738 -0.67576,0 -1.66836,0.481506 -2.20579,1.070008 -1.13618,1.24415 -12.70714,7.695201 -13.80253,7.695201 -0.4071,0 -1.7149,0.924456 -2.90622,2.054346 -3.22328,3.057069 -8.56778,7.061532 -10.02125,7.508601 -0.70263,0.216117 -1.52973,0.926236 -1.83801,1.578033 -0.30827,0.651803 -1.68979,2.04792 -3.07005,3.102484 -2.86193,2.186608 -2.91782,2.242935 -5.16324,5.204343 -1.51859,2.002823 -3.0667,3.83943 -6.47918,7.686656 -0.6841,0.771245 -1.24381,1.683325 -1.24381,2.026839 0,0.34352 -0.55972,1.210108 -1.24382,1.925755 -1.22061,1.276915 -1.81432,2.328304 -6.17264,10.931144 -1.19064,2.35018 -2.31007,4.39632 -2.48763,4.54697 -0.4793,0.40667 -1.73882,3.7803 -2.41878,6.47864 -0.48685,1.93206 -0.45053,2.46191 0.19658,2.86769 1.07385,0.67339 0.96585,0.72144 2.53701,-1.12895 z m 151.59305,-18.2152 c 0.63112,-0.97924 1.3862,-2.15021 1.67797,-2.60217 0.29176,-0.45195 0.87364,-1.5613 1.29305,-2.465214 3.6111,-7.782618 10.81611,-20.293441 14.35498,-24.926062 1.04718,-1.370841 2.40109,-3.288986 5.22017,-7.395645 0.82734,-1.205216 2.04334,-3.186795 2.70223,-4.403504 1.958,-3.615687 2.66988,-4.71812 3.97945,-6.162693 0.68409,-0.754624 1.24381,-1.693578 1.24381,-2.086565 0,-0.392987 0.31095,-0.911662 0.69101,-1.152612 0.89344,-0.566442 2.07302,-2.663391 2.07302,-3.685279 0,-1.490574 -1.12562,-1.491978 -3.74388,-0.0047 -1.43736,0.816506 -3.29749,1.838624 -4.13361,2.271374 -0.83611,0.43275 -1.52021,1.146077 -1.52021,1.585171 0,0.439093 -0.87067,1.555922 -1.93482,2.481842 -1.06415,0.925919 -1.93482,1.899684 -1.93482,2.163923 0,0.264243 -0.93286,1.867148 -2.07302,3.562016 -1.14017,1.694868 -2.44617,3.733459 -2.90224,4.5302 -0.45606,0.796741 -0.95757,1.571881 -1.11445,1.722533 -0.51225,0.491915 -3.77931,6.707751 -7.19845,13.695639 -1.84283,3.766301 -3.83654,7.833905 -4.43045,9.039122 -0.59393,1.205216 -1.08095,2.561084 -1.08228,3.01304 -10e-4,0.451956 -0.88404,3.137901 -1.96158,5.968768 -1.84145,4.837726 -2.07646,6.631216 -0.86892,6.631216 0.28356,0 1.03192,-0.8012 1.66304,-1.78044 z m -299.64471,33.71425 c -1.42366,-0.21619 -1.48632,-0.37901 -1.86089,-4.83511 -0.21319,-2.53626 -0.23851,-4.99645 -0.0563,-5.46709 0.48319,-1.24783 -1.04574,-1.60653 -2.5114,-0.58919 -1.82217,1.2648 -3.9367,1.07699 -5.4135,-0.48083 -1.10273,-1.16322 -1.2361,-1.72833 -0.95769,-4.05791 0.36639,-3.06572 2.89042,-8.2863 4.00624,-8.2863 1.14031,0 1.5001,-0.98812 1.11004,-3.04859 -0.48326,-2.55282 -1.63081,-2.41261 -4.90152,0.59889 -2.70614,2.49168 -2.93061,2.60424 -5.34524,2.68036 -0.91526,0.0289 -1.44044,0.40807 -1.57729,1.1389 -0.29302,1.56487 -1.59652,2.85657 -3.31034,3.28037 -0.81374,0.20122 -1.88142,0.72465 -2.37261,1.16317 -0.63867,0.57017 -1.53871,0.695 -3.15933,0.43819 -2.66516,-0.42234 -4.09719,-2.13054 -4.51608,-5.38701 -0.32452,-2.52284 -1.17937,-3.0351 -2.14889,-1.28771 -0.37998,0.68485 -1.82687,2.10799 -3.21533,3.16256 -1.38846,1.05456 -3.42371,2.7581 -4.52278,3.78562 -2.0591,1.92506 -5.71388,3.85071 -7.3487,3.8719 -1.68368,0.0219 -2.66531,-1.57184 -2.66531,-4.32714 0,-1.99947 0.5159,-3.57464 2.18514,-6.67173 4.35005,-8.07104 4.63659,-8.74358 3.99592,-9.37848 -0.7164,-0.70995 -2.31142,0.35139 -2.31142,1.53804 0,0.87402 -3.34673,4.60788 -4.13012,4.60788 -0.29949,0 -1.45031,0.92446 -2.55737,2.05435 -6.31367,6.44389 -8.97141,8.35434 -11.62224,8.35434 -1.9343,0 -2.2078,-0.1863 -2.98717,-2.03478 -1.03917,-2.4647 -1.15106,-4.83644 -0.32566,-6.90305 1.60275,-4.01295 0.0176,-4.82812 -2.98471,-1.53487 -1.06664,1.17001 -2.74514,2.44977 -3.73,2.84391 -0.98486,0.39415 -1.98505,1.03122 -2.22265,1.41574 -1.15002,1.86116 -11.17607,7.3087 -13.45144,7.3087 -0.69097,0 -1.76421,-0.6624 -2.42779,-1.4984 -0.96587,-1.21683 -1.14086,-2.01466 -0.93122,-4.24565 0.41141,-4.37841 1.8135,-8.87494 3.65329,-11.71618 0.93713,-1.44723 1.70387,-2.88091 1.70387,-3.18595 0,-0.30505 0.73627,-1.561866 1.63617,-2.792939 0.89989,-1.231068 2.00663,-3.116969 2.45941,-4.190888 0.45279,-1.073913 1.06443,-1.952576 1.35919,-1.952576 0.29476,0 1.044,-0.801195 1.66498,-1.780433 0.62097,-0.979238 1.7857,-2.519998 2.58828,-3.42391 0.80258,-0.903912 2.22135,-2.689358 3.15284,-3.967665 0.93149,-1.278301 2.30127,-2.718748 3.04396,-3.200994 1.98048,-1.285971 0.8091,-2.178669 -1.75739,-1.33928 -1.09214,0.357188 -1.98571,0.87508 -1.98571,1.150861 0,0.275787 -1.80353,1.827283 -4.00784,3.447779 -2.20431,1.620495 -4.50537,3.4974 -5.11345,4.170902 -0.60809,0.673503 -2.03848,1.69637 -3.17864,2.273038 -1.14016,0.576674 -2.07302,1.284777 -2.07302,1.573569 0,0.773146 -5.39661,5.931066 -7.14064,6.824811 -0.82531,0.422943 -2.15915,1.710596 -2.96407,2.861455 -0.80491,1.15086 -3.27618,3.61545 -5.49169,5.47687 -5.72227,4.80772 -14.03703,12.87674 -14.435691,14.00906 -0.18564,0.52728 -0.84286,0.95869 -1.46049,0.95869 -0.61763,0 -1.12296,0.26413 -1.12296,0.58696 0,0.32282 -0.31096,0.89699 -0.69101,1.27593 -0.38005,0.37894 -1.93482,2.10437 -3.45504,3.83428 -3.351476,3.81379 -7.808031,7.45064 -9.129928,7.45064 -0.533402,0 -1.37731,-0.6163 -1.875349,-1.36956 -0.838861,-1.26872 -0.838839,-1.47043 3e-4,-2.73957 0.498205,-0.75351 1.538232,-1.67796 2.311176,-2.05435 0.772944,-0.37639 1.674117,-1.17738 2.0026,-1.77999 1.643271,-3.01458 4.322323,-6.84782 4.785939,-6.84782 0.287791,0 0.523258,-0.28263 0.523258,-0.62807 0,-0.78793 3.671004,-6.30992 4.578654,-6.88729 0.37015,-0.23546 1.08455,-1.29093 1.58756,-2.3455 0.88327,-1.85178 7.792091,-10.785563 10.670231,-13.797656 0.77338,-0.809368 1.40615,-1.627009 1.40615,-1.816984 0,-1.026055 6.21829,-8.246522 9.49627,-11.026753 1.1096,-0.941104 12.14788,-12.699752 13.72158,-14.617054 2.29138,-2.791681 8.44802,-8.592293 10.37914,-9.778922 1.06513,-0.654498 2.20319,-0.961779 2.76403,-0.746291 0.89972,0.345699 0.89893,0.406053 -0.0141,1.072363 -0.53207,0.388331 -0.96741,1.021831 -0.96741,1.407785 0,0.385954 -2.05229,2.641067 -4.56064,5.011361 -2.50836,2.370298 -4.77003,4.531585 -5.02593,4.802868 -2.46768,2.615977 -4.46462,4.815475 -7.27401,8.011856 -1.82426,2.075552 -5.36912,5.836292 -7.87748,8.357194 -2.50836,2.520907 -4.56065,4.760681 -4.56065,4.977285 0,0.216605 -1.24381,1.776779 -2.76403,3.467057 -1.52021,1.690277 -2.76403,3.341878 -2.76403,3.670223 0,0.328344 -0.35385,0.596987 -0.78634,0.596987 -0.43248,0 -1.05413,0.804121 -1.38144,1.786931 -0.3273,0.98282 -1.21726,2.24996 -1.97769,2.81587 -0.76042,0.56591 -1.38259,1.26527 -1.38259,1.55413 0,0.28887 -0.68409,1.19484 -1.52021,2.01328 -3.21451,3.14653 -5.719351,6.78799 -5.090371,7.4002 0.43567,0.42404 0.94656,0.20446 1.812781,-0.77912 0.66339,-0.75326 3.44466,-3.31444 6.18061,-5.69151 7.78216,-6.76136 14.67054,-13.035387 16.53586,-15.061092 1.39789,-1.518074 9.78712,-8.85554 14.58948,-12.760375 3.49516,-2.841933 9.797,-6.629829 12.50024,-7.513597 l 3.1104,-1.016885 1.05214,1.464288 c 1.04722,1.457441 1.04523,1.477508 -0.42694,4.292077 -0.81349,1.555287 -2.47413,3.951876 -3.69031,5.325762 -1.21617,1.373881 -2.89532,3.268793 -3.73144,4.210911 -0.83612,0.942123 -1.5214,1.861275 -1.52285,2.042562 -0.002,0.181292 -0.87213,1.267794 -1.93483,2.414453 -1.06269,1.146659 -1.93217,2.41452 -1.93217,2.817473 0,0.402953 -0.35497,0.867624 -0.78881,1.032607 -0.43385,0.164983 -1.29053,1.423963 -1.90374,2.79774 -0.6132,1.373776 -1.37766,2.497776 -1.69881,2.497776 -0.32114,0 -0.58389,0.24746 -0.58389,0.54992 0,0.30245 -1.11158,2.8605 -2.47018,5.68456 -2.95526,6.14293 -3.68546,9.44819 -2.21115,10.00883 0.5671,0.21566 1.59333,-0.005 2.4186,-0.52109 0.78844,-0.49264 2.21781,-1.30764 3.17638,-1.81111 0.95857,-0.50348 1.98527,-1.43586 2.28156,-2.07196 0.29629,-0.63611 1.99963,-1.8948 3.78521,-2.7971 1.78557,-0.90229 3.37087,-1.783 3.5229,-1.95712 0.15202,-0.17413 1.76898,-1.47711 3.59323,-2.89551 4.84886,-3.77011 6.77802,-5.805126 8.12613,-8.572029 1.69413,-3.477114 5.77527,-8.704789 11.19486,-14.339892 3.88919,-4.043862 4.92842,-4.834002 6.35786,-4.834002 2.09173,0 3.14833,1.746495 2.32938,3.850304 -0.94672,2.432055 -5.97459,8.764261 -8.31089,10.466914 -1.25617,0.915482 -2.28395,2.035769 -2.28395,2.489533 0,0.453764 -1.50116,2.326571 -3.33591,4.161793 -1.83475,1.835219 -3.88559,4.524149 -4.55742,5.975399 -0.67182,1.45125 -1.50647,2.63864 -1.85477,2.63864 -0.6685,0 -1.90596,6.88992 -1.45127,8.08042 0.42126,1.10299 0.91232,0.84304 4.13936,-2.1913 3.8695,-3.63842 9.99255,-8.71874 12.86447,-10.67371 1.21617,-0.82786 6.01237,-5.328591 10.65821,-10.001603 4.64585,-4.673017 9.86245,-9.920699 11.59244,-11.661513 1.73,-1.740814 4.31877,-3.959508 5.75283,-4.93043 1.43406,-0.970922 2.86341,-2.313188 3.17632,-2.982806 0.66027,-1.41293 3.14348,-2.204116 4.42354,-1.409402 1.78711,1.109511 1.31834,2.700561 -1.60536,5.448701 -9.73642,9.151765 -21.00704,20.762309 -21.00704,21.64061 0,0.220834 -0.46184,0.72365 -1.02631,1.117367 -0.56447,0.393711 -1.21919,1.320646 -1.45494,2.059856 -0.23576,0.73921 -0.76897,1.68127 -1.18492,2.09348 -0.41595,0.4122 -0.75628,1.07145 -0.75628,1.46499 0,0.39354 -0.41253,1.05387 -0.91675,1.46739 -0.50421,0.41352 -1.59461,2.17106 -2.4231,3.90563 -0.82849,1.73458 -1.76414,3.4616 -2.07924,3.83784 -0.31509,0.37624 -0.74423,1.36063 -0.95366,2.18753 -0.56931,2.24785 0.70078,1.92093 3.73648,-0.96176 1.42783,-1.35587 3.07362,-2.46521 3.6573,-2.46521 0.58369,0 1.18624,-0.47368 1.33901,-1.05261 0.15277,-0.57894 1.30122,-1.57004 2.5521,-2.20244 1.25089,-0.6324 2.27434,-1.35781 2.27434,-1.61201 0,-0.2542 1.01501,-1.15926 2.25559,-2.01123 1.24057,-0.85197 2.86133,-2.67278 3.6017,-4.04624 2.56032,-4.749692 6.03634,-9.096294 12.18286,-15.234142 3.39447,-3.389671 6.40706,-6.163038 6.69466,-6.163038 0.2876,0 0.95501,-0.473168 1.48314,-1.051485 0.79746,-0.87325 1.23366,-0.957029 2.5733,-0.494237 2.39309,0.826718 2.20414,3.075147 -0.49468,5.886637 -1.15926,1.207665 -2.41836,2.770891 -2.79799,3.473844 -0.37963,0.702954 -1.55077,2.128834 -2.60254,3.168618 -1.05177,1.039789 -2.52906,2.504308 -3.28288,3.254489 -0.75381,0.750181 -1.37057,1.573492 -1.37057,1.829578 0,0.64839 -2.33965,2.518272 -3.17863,2.540399 -0.38005,0.01002 -0.69101,0.317049 -0.69101,0.682277 0,0.36522 -0.97258,1.65946 -2.1613,2.87608 -4.09452,4.19068 -7.71881,12.89464 -5.36922,12.89464 0.41883,0 1.0712,-0.36979 1.4497,-0.82174 0.3785,-0.45196 1.26727,-0.82174 1.97503,-0.82174 0.70778,0 1.4858,-0.32174 1.72894,-0.71499 0.71813,-1.16147 4.34233,-3.66762 5.30383,-3.66762 0.48827,0 1.0867,-0.35155 1.32984,-0.78123 0.42527,-0.75154 4.32731,-3.60137 4.93106,-3.60137 0.80787,0 6.84353,-5.10137 6.84353,-5.784188 0,-0.434344 0.2307,-0.789718 0.51266,-0.789718 0.28197,0 1.15459,-1.344704 1.93917,-2.988235 0.78459,-1.643526 1.75951,-3.184286 2.1665,-3.42391 0.40699,-0.239619 1.68086,-1.772528 2.83083,-3.406456 1.14996,-1.633934 2.86731,-3.593796 3.81631,-4.355257 0.94901,-0.761456 2.72052,-2.399887 3.93669,-3.640947 1.21618,-1.241066 3.32031,-2.689429 4.67584,-3.218585 2.35312,-0.918583 2.49692,-0.918331 3.17863,0.0056 0.39272,0.532229 0.71403,1.453584 0.71403,2.047454 0,1.315324 -2.41906,5.514319 -3.7401,6.492078 -0.52764,0.390517 -1.70277,1.696123 -2.61141,2.901339 -0.90865,1.205216 -4.51558,5.073122 -8.0154,8.59535 -7.6,7.648645 -8.22966,8.450525 -10.24246,13.043755 -0.85822,1.95848 -1.85863,3.81091 -2.22312,4.11652 -0.3645,0.30561 -0.85068,1.41496 -1.0804,2.46522 -0.22973,1.05026 -0.88428,2.56392 -1.45456,3.36369 -0.57028,0.79977 -1.03688,1.87974 -1.03688,2.39994 0,0.77198 0.34979,0.88955 1.90327,0.63972 1.0468,-0.16834 2.60157,-0.78156 3.45504,-1.3627 0.85347,-0.58115 2.24923,-1.47612 3.10169,-1.98883 0.85246,-0.51271 1.70482,-1.34924 1.89413,-1.85897 0.18931,-0.50972 0.92222,-1.6896 1.6287,-2.62195 0.70648,-0.93236 1.28451,-1.8353 1.28451,-2.00654 0,-0.17124 0.87067,-1.62147 1.93482,-3.22274 1.06415,-1.60128 1.93482,-3.10787 1.93482,-3.34798 0,-0.63127 3.6301,-5.92274 5.16709,-7.531887 0.71948,-0.75326 2.02789,-2.347416 2.90758,-3.542569 2.46155,-3.344288 8.64564,-9.443351 9.97638,-9.839209 0.65476,-0.194774 1.57833,-1.164141 2.05239,-2.154138 0.87133,-1.819641 2.83637,-3.090153 4.77939,-3.090153 2.53554,0 3.12318,5.346531 1.03498,9.416618 -2.66819,5.200546 -4.89692,8.583489 -5.85874,8.89283 -0.543,0.174636 -1.40412,1.303408 -1.91362,2.508368 -0.52405,1.23939 -1.30431,2.19086 -1.79662,2.19086 -0.47864,0 -0.87026,0.37588 -0.87026,0.83529 0,0.45941 -0.60062,1.0616 -1.33471,1.33819 -0.7341,0.27658 -1.48845,0.94841 -1.67636,1.49296 -0.37294,1.08078 -2.87056,2.9552 -5.69562,4.27447 -0.98814,0.46145 -1.79662,1.14871 -1.79662,1.52723 0,0.37853 -1.26025,1.66946 -2.80056,2.86873 -3.25125,2.53141 -7.98957,8.5875 -8.57173,10.95563 -0.22088,0.89846 -0.71608,2.08935 -1.10046,2.64643 -0.56102,0.81308 -0.5625,1.4032 -0.007,2.99179 0.67134,1.92167 0.76428,1.97448 3.21267,1.82526 2.55177,-0.1555 4.09834,0.76286 2.25435,1.33865 -0.55135,0.17216 -1.66274,0.66346 -2.46976,1.09178 -1.47326,0.78193 -1.71361,0.80314 -4.42841,0.39088 z M 97.397349,116.63715 c -0.69542,-0.83039 -0.80666,-0.82548 -1.46336,0.0645 -0.53814,0.72932 -0.55673,1.14709 -0.0766,1.72043 0.53745,0.64175 0.76061,0.63191 1.46336,-0.0645 0.70307,-0.69673 0.71472,-0.95845 0.0766,-1.72044 z m 138.219871,-5.81181 c 0,-0.72764 2.65661,-3.35653 5.69885,-5.6394 1.15808,-0.86901 2.44456,-2.22957 2.85883,-3.02347 0.41427,-0.7939 1.82922,-2.54083 3.14434,-3.882082 1.31511,-1.341247 2.31931,-2.65438 2.23156,-2.91807 -0.0878,-0.26369 0.19397,-0.879994 0.62605,-1.369564 1.28202,-1.452581 2.64789,-4.44252 2.29092,-5.01491 -0.42368,-0.679353 -1.92479,-0.695596 -1.92479,-0.02082 0,0.281001 -0.49752,0.667394 -1.10561,0.858656 -0.60809,0.191262 -1.10561,0.817843 -1.10561,1.392414 0,0.606662 -0.69534,1.400998 -1.65842,1.894539 -0.91213,0.467432 -1.65842,1.099826 -1.65842,1.405326 0,0.305501 -0.93286,1.531545 -2.07302,2.72455 -4.99811,5.229751 -8.66323,10.303371 -9.32198,12.904371 -0.27349,1.07986 -0.12326,1.3179 0.83176,1.3179 0.64105,0 1.16554,-0.28325 1.16554,-0.62944 z m 49.47613,16.5697 c -5.40287,-1.88286 -10.18255,-5.63973 -12.26483,-9.64026 -0.47049,-0.90392 -1.35571,-2.186 -1.96715,-2.84909 -2.14227,-2.3232 -2.73688,-15.344141 -0.98653,-21.603574 2.14132,-7.65761 4.73247,-11.732681 11.18078,-17.583913 6.70106,-6.080573 18.08626,-13.711865 21.58932,-14.470921 0.83611,-0.181177 1.52021,-0.51162 1.52021,-0.734328 0,-0.222707 1.18162,-0.836946 2.62583,-1.364978 1.4442,-0.528027 4.36717,-1.764437 6.49547,-2.747572 2.1283,-0.983136 4.86469,-2.094604 6.08086,-2.46993 1.21618,-0.375325 3.33066,-1.135869 4.69885,-1.690096 1.3682,-0.554228 3.60706,-1.306083 4.97526,-1.670788 1.36819,-0.364705 2.73639,-0.844253 3.04043,-1.065662 0.55007,-0.40057 5.8531,-2.109814 13.30656,-4.288899 2.14987,-0.628535 4.8987,-1.142791 6.10851,-1.142791 1.2098,0 2.43596,-0.218716 2.7248,-0.486036 0.65119,-0.602663 7.31175,-2.253091 9.09271,-2.253091 0.72074,0 2.77769,-0.407983 4.571,-0.906627 2.78324,-0.773902 4.04292,-0.819341 8.60476,-0.310385 6.15112,0.686269 8.5017,1.708139 12.36157,5.373978 1.89516,1.79989 2.65051,2.93979 2.63503,3.976573 -0.0119,0.799374 -1.34454,3.795362 -2.96138,6.65775 -2.15677,3.818273 -3.24113,5.22023 -4.07147,5.26399 -0.62247,0.03281 -1.78879,0.710738 -2.5918,1.506521 -0.80302,0.795777 -1.83655,1.446873 -2.29674,1.446873 -1.19134,0 -0.54248,-0.797108 2.28947,-2.812537 1.7197,-1.223869 2.46713,-2.146232 2.46713,-3.044529 0,-0.708799 0.72323,-2.869387 1.60717,-4.801309 l 1.60716,-3.512586 -1.11213,-2.227554 c -0.61167,-1.225155 -1.50188,-2.227554 -1.97823,-2.227554 -0.47637,0 -1.34928,-0.431413 -1.9398,-0.958695 -0.92539,-0.82628 -2.10348,-0.943132 -8.52947,-0.84602 -4.10069,0.06197 -8.23923,0.366053 -9.19676,0.675739 -0.95753,0.309686 -3.19013,0.644328 -4.96133,0.743649 -1.92723,0.10807 -3.40478,0.476282 -3.67962,0.916982 -0.3068,0.491942 -1.45404,0.704185 -3.45593,0.639358 -2.39334,-0.0775 -3.20209,0.127905 -4.01699,1.020235 -0.68978,0.755338 -1.59979,1.078602 -2.80912,0.997892 -0.98384,-0.06566 -2.12248,0.1421 -2.5303,0.461691 -0.40782,0.319592 -2.23407,1.010061 -4.05833,1.534376 -1.82425,0.524315 -3.99646,1.202599 -4.82712,1.507299 -0.83066,0.3047 -1.89013,0.409553 -2.35438,0.233007 -0.50066,-0.190388 -1.12111,0.118574 -1.52492,0.759352 -0.37446,0.594189 -1.1807,1.089079 -1.79166,1.099756 -0.61096,0.01068 -1.73275,0.371724 -2.49285,0.802326 -0.76011,0.430603 -2.1905,0.791649 -3.17864,0.802326 -0.98814,0.01068 -1.79662,0.246816 -1.79662,0.524753 0,0.277935 -0.93286,0.802149 -2.07302,1.164914 -1.14016,0.362759 -2.44616,0.969027 -2.90223,1.347251 -0.45606,0.378224 -1.45111,0.865619 -2.21122,1.0831 -2.22711,0.637225 -14.28418,6.703878 -18.87291,9.496123 -11.1076,6.758984 -20.18126,18.464893 -21.52092,27.764101 -0.26044,1.807824 -0.70357,4.05216 -0.98474,4.9874 -0.67929,2.25954 1.00411,10.32827 2.76311,13.24391 2.22065,3.68084 5.16225,6.5204 7.17671,6.92776 6.22639,1.2591 8.6476,1.03939 11.78309,-1.06923 1.10823,-0.7453 2.62583,-1.35508 3.37243,-1.35508 0.82361,0 1.35747,-0.31559 1.35747,-0.80247 0,-0.44135 0.4634,-1.04823 1.02979,-1.34862 0.56639,-0.30039 1.33943,-1.28695 1.71788,-2.19236 0.37843,-0.90541 1.11901,-1.78174 1.64571,-1.94741 1.01248,-0.31845 1.23264,-0.69797 3.63121,-6.25966 2.84055,-6.58653 3.71783,-18.675536 1.35525,-18.675536 -0.53321,0 -1.11265,0.369782 -1.28766,0.821738 -0.50221,1.29695 -1.30185,0.961012 -1.63001,-0.684782 -0.47776,-2.396096 0.8955,-3.971735 3.46159,-3.971735 3.01299,0 4.32742,1.439411 5.82872,6.382891 0.80763,2.659353 0.4938,5.19887 -1.64837,13.338824 -1.87448,7.12272 -8.31746,15.78744 -15.12478,20.34026 -1.92951,1.29047 -3.40066,1.74648 -6.93333,2.14907 -4.94541,0.5636 -4.60056,0.56221 -6.14255,0.0248 z M 57.736739,122.10632 c -0.697796,-0.48436 -1.228617,-1.4293 -1.228617,-2.18714 0,-1.54993 1.014742,-2.84425 6.495469,-8.28508 2.204314,-2.18827 4.007843,-4.1386 4.007843,-4.33407 0,-0.19547 1.781561,-2.07938 3.959019,-4.18646 2.177458,-2.10708 5.033491,-5.277474 6.346736,-7.045318 1.313246,-1.767844 4.133794,-5.03587 6.26789,-7.262277 2.134096,-2.226402 3.880172,-4.289852 3.880172,-4.585437 0,-0.295585 0.469178,-0.759993 1.04262,-1.032016 0.573442,-0.272017 3.022787,-2.836536 5.442988,-5.698925 2.42021,-2.862388 5.63053,-6.43695 7.134051,-7.94347 1.50352,-1.506521 4.06493,-4.341518 5.69203,-6.299994 1.6271,-1.958477 3.14078,-3.684127 3.36374,-3.834779 0.22296,-0.150652 1.74222,-1.887796 3.37613,-3.860314 1.63391,-1.972521 3.2741,-3.944693 3.64486,-4.382605 4.25009,-5.019807 7.86466,-9.580582 9.64008,-12.163583 1.19082,-1.732498 2.34499,-3.149997 2.56483,-3.149997 0.21983,0 1.75984,-1.787281 3.42224,-3.971735 1.66241,-2.184455 3.76523,-4.771197 4.67294,-5.748317 3.76439,-4.052232 8.34096,-12.306451 8.96393,-16.1671684 0.32932,-2.040889 0.26947,-2.1986464 -0.69228,-1.8248672 -0.57901,0.2250325 -3.416,0.7726362 -6.30441,1.2168975 -3.07545,0.4730282 -7.59216,1.7032851 -10.89978,2.9688701 -3.10647,1.188618 -5.99088,2.161123 -6.4098,2.161123 -0.41891,0 -1.21191,0.493043 -1.76222,1.095652 -0.55032,0.602608 -1.54537,1.095651 -2.21123,1.095651 -0.66586,0 -1.66091,0.493043 -2.21122,1.095651 -0.55031,0.602608 -1.28144,1.095651 -1.62472,1.095651 -0.34329,0 -2.25738,1.218593 -4.25353,2.707986 -1.99615,1.489392 -4.35093,2.876105 -5.23283,3.081584 -0.8819,0.20548 -1.9766,0.794447 -2.43266,1.308817 -0.77,0.868436 -3.113451,2.673593 -10.317781,7.947776 -2.624709,1.921512 -2.831309,2.234076 -2.562347,3.876559 0.186345,1.137967 -0.06018,2.452502 -0.679072,3.621022 -1.70319,3.215745 -1.919365,3.721154 -1.919365,4.487409 0,0.412716 -0.870669,1.880401 -1.93482,3.261521 -1.064151,1.381122 -1.934821,2.713329 -1.934821,2.960461 0,0.247133 -0.621906,1.113988 -1.382014,1.926345 -0.760108,0.812357 -1.382015,1.69162 -1.382015,1.953917 0,0.497107 -17.057096,18.880199 -17.81773,19.202852 -0.23874,0.101271 -1.613623,1.274286 -3.055297,2.606696 -1.441673,1.332416 -3.056557,2.560411 -3.588633,2.728873 -0.532076,0.168467 -0.96741,0.525134 -0.96741,0.792594 0,0.424877 -4.616478,4.150912 -10.98655,8.867433 -1.102413,0.816249 -2.411722,1.494183 -2.909574,1.50652 -0.497852,0.01233 -1.492903,0.759763 -2.211223,1.660941 -0.718321,0.901173 -1.732621,1.640738 -2.253999,1.643477 -0.521378,0.0027 -1.193074,0.458842 -1.492657,1.013576 -0.299583,0.554733 -1.863102,1.801168 -3.474487,2.769855 -7.4304,4.466803 -10.394428,6.082393 -11.158973,6.082393 -0.454775,0 -0.991767,0.26442 -1.193315,0.5876 -0.555423,0.89059 -7.93744,4.08943 -11.2602383,4.87937 -3.350881,0.79663 -3.893976,0.44633 -3.90866,-2.52106 -0.0093,-1.88269 2.238514,-4.93914 9.4296763,-12.821847 4.908099,-5.380096 7.583108,-7.924937 10.140527,-9.647093 1.046044,-0.704399 2.050154,-1.715203 2.231354,-2.246227 0.1812,-0.531024 1.495191,-1.828324 2.919979,-2.882888 1.424788,-1.054564 3.439803,-2.727908 4.477811,-3.718541 1.038008,-0.990633 2.913486,-2.502594 4.167727,-3.359908 1.254242,-0.857314 3.550106,-2.758537 5.101919,-4.224929 4.190098,-3.959458 6.385771,-5.811996 8.234638,-6.947754 0.91213,-0.560321 2.415469,-1.798358 3.340756,-2.751196 2.269655,-2.337232 6.84644,-6.04831 8.544571,-6.92834 0.760108,-0.393915 1.564413,-1.020725 1.787348,-1.392911 0.22293,-0.372186 2.313681,-2.123479 4.646107,-3.891761 2.332426,-1.768283 4.987597,-3.904737 5.900385,-4.747677 1.620285,-1.496301 8.935963,-6.988234 15.582857,-11.698168 1.824255,-1.292654 4.431855,-3.158668 5.794655,-4.146695 1.3628,-0.988028 2.93389,-1.979346 3.49132,-2.20293 0.557421,-0.223583 2.427561,-1.471973 4.155841,-2.7742 3.44586,-2.596364 14.82055,-9.145359 15.88421,-9.145359 0.36658,0 0.96292,-0.353936 1.3252,-0.786524 0.36229,-0.432589 1.41851,-0.951905 2.34717,-1.154035 0.92866,-0.202131 2.46624,-0.8147612 3.41684,-1.3614007 2.79241,-1.6057676 11.39431,-4.2575783 15.17244,-4.6773916 2.35025,-0.2611514 4.1991,-0.1574495 5.64938,0.3168734 1.86309,0.6093371 2.27217,1.052273 3.01288,3.2622808 0.75399,2.2495941 0.76164,2.8253241 0.0636,4.7859891 -1.45724,4.093052 -2.61923,5.985586 -6.43472,10.480301 -0.59722,0.70353 -1.08585,1.722495 -1.08585,2.264365 0,0.541871 -0.49752,1.114153 -1.10561,1.271739 -0.60809,0.157585 -1.10561,0.69876 -1.10561,1.20261 0,0.764893 -5.03361,7.419229 -7.62809,10.084195 -1.41176,1.450109 -7.02413,8.381116 -7.85048,9.69496 -0.45606,0.725116 -1.2767,1.318833 -1.82364,1.319371 -0.62996,6.03e-4 -1.36578,0.822907 -2.00757,2.243491 -0.55723,1.233381 -2.34859,3.697322 -3.98082,5.475425 -2.72539,2.968962 -4.13342,4.586088 -7.50794,8.622867 -3.30889,3.958248 -7.11067,7.763521 -7.7564,7.763521 -0.39691,0 -0.94397,0.554673 -1.21568,1.232607 -0.27172,0.677934 -1.633761,2.446288 -3.026751,3.929679 -1.39299,1.483385 -2.53272,2.884268 -2.53272,3.113079 0,0.228805 -0.4848,0.568495 -1.07734,0.75486 -0.59253,0.18637 -1.21936,0.782344 -1.39297,1.324384 -0.1736,0.542041 -2.425189,3.152742 -5.003525,5.801561 -2.578342,2.648818 -4.687894,5.02139 -4.687894,5.272377 0,0.250986 -0.746288,0.838781 -1.658417,1.306213 -0.91213,0.467432 -1.658418,1.213324 -1.658418,1.657545 0,0.444221 -0.222831,0.80767 -0.495176,0.80767 -0.488465,0 -3.927271,4.958802 -3.927271,5.663172 0,0.53078 1.533909,0.44405 1.750554,-0.099 0.101346,-0.25404 1.700431,-1.59844 3.553519,-2.98757 1.853088,-1.389128 4.749006,-3.893014 6.435379,-5.564194 1.686373,-1.67118 3.210232,-3.038509 3.386351,-3.038509 0.624145,0 9.197659,-6.623589 9.197659,-7.105785 0,-0.269464 0.46648,-0.636661 1.03662,-0.815986 0.57014,-0.179325 1.9295,-1.185396 3.02081,-2.235709 1.0913,-1.050313 3.54778,-3.182264 5.45884,-4.737667 1.91107,-1.555408 4.7139,-4.017254 6.22852,-5.470766 1.51463,-1.453519 2.91559,-2.64276 3.11325,-2.64276 0.19765,0 2.40568,-1.910542 4.90672,-4.245648 2.50105,-2.335107 4.95591,-4.474574 5.45525,-4.75437 0.49935,-0.279797 1.90295,-1.448117 3.11913,-2.596266 1.21617,-1.148149 2.36853,-2.090202 2.56079,-2.09345 0.19226,-0.0032 1.33185,-0.930361 2.53242,-2.060251 1.20057,-1.12989 3.03336,-2.616562 4.07288,-3.303715 1.03951,-0.687153 2.76069,-1.852852 3.82484,-2.590443 1.80638,-1.252044 2.46413,-1.599602 6.08087,-3.213174 0.76011,-0.339114 1.71036,-0.924353 2.11168,-1.300531 0.94938,-0.889914 3.19004,-1.436725 4.24435,-1.035792 1.57929,0.600571 0.817,2.920666 -2.51415,7.651955 -1.83952,2.612717 -3.51867,4.742554 -3.73144,4.732972 -0.75516,-0.03401 -2.32166,-1.483243 -2.32166,-2.147865 0,-0.371215 0.49752,-1.301739 1.10561,-2.067831 0.60808,-0.766092 1.10561,-1.729431 1.10561,-2.140754 0,-1.230584 -1.56761,-0.846655 -2.53846,0.621705 -0.49804,0.75326 -1.25007,1.369563 -1.67116,1.369563 -0.4211,0 -0.76563,0.226416 -0.76563,0.503146 0,0.27673 -0.93286,1.067424 -2.07303,1.757098 -1.14016,0.689674 -2.15594,1.449345 -2.25728,1.688157 -0.10136,0.238812 -0.66888,0.434204 -1.26117,0.434204 -0.59229,0 -1.22008,0.369782 -1.39509,0.821738 -0.17501,0.451956 -0.8942,0.821738 -1.5982,0.821738 -0.97871,0 -1.4341,0.462747 -1.93473,1.965982 -0.51684,1.551924 -0.88226,1.907008 -1.7351,1.685999 -0.69007,-0.178832 -1.20413,0.051 -1.42293,0.63619 -0.51409,1.374938 -4.69873,5.173023 -10.94162,9.930899 -1.53082,1.166682 -3.12762,2.758795 -3.54845,3.538033 -0.42082,0.779232 -1.10586,1.416792 -1.52229,1.416792 -0.41644,0 -1.80479,1.00143 -3.08522,2.225399 -1.28044,1.223973 -3.37762,3.011254 -4.6604,3.971735 -1.28278,0.960486 -2.34002,1.953343 -2.34942,2.206351 -0.0282,0.759023 -2.43384,2.515237 -3.47213,2.5348 -0.53208,0.01002 -0.96741,0.270034 -0.96741,0.577797 0,0.307763 -0.56257,0.813587 -1.25016,1.124045 -0.68758,0.310463 -1.677001,1.301513 -2.198701,2.20233 -0.52169,0.900811 -1.83367,2.004345 -2.9155,2.452291 -1.10862,0.45904 -2.18992,1.39557 -2.47788,2.14614 -0.281,0.732432 -1.4538,1.818677 -2.606208,2.413878 -1.152413,0.595202 -3.339108,2.203804 -4.859324,3.574669 -1.520216,1.37086 -3.074983,2.49635 -3.455037,2.50107 -0.380054,0.005 -0.691007,0.36584 -0.691007,0.80246 0,0.43662 -0.9294,1.48434 -2.065338,2.32826 -4.007357,2.97718 -10.096392,8.57704 -10.096392,9.28528 0,0.82374 -9.064568,7.31432 -10.214979,7.31432 -0.327322,0 -1.148012,-0.38376 -1.823745,-0.8528 z M 15.358944,104.27715 c 0.207082,-0.33204 1.154624,-0.93122 2.105647,-1.33151 0.951024,-0.40028 2.585943,-1.36121 3.633153,-2.1354 1.047209,-0.77419 2.112475,-1.407621 2.367258,-1.407621 0.659372,0 7.623276,-4.631207 9.272467,-6.166472 0.760109,-0.707599 2.293808,-1.766677 3.408221,-2.353508 1.688814,-0.889302 10.046445,-6.937833 10.964732,-7.93533 0.375692,-0.408097 6.419669,-5.074601 9.002544,-6.950794 2.43773,-1.770759 5.364162,-4.620903 5.36785,-5.227927 0.0017,-0.231555 1.557326,-1.999645 3.457596,-3.929081 7.509636,-7.624905 9.645235,-9.964454 10.656151,-11.673801 0.57912,-0.979238 1.243885,-1.780433 1.477252,-1.780433 0.233367,0 1.056412,-1.170977 1.828986,-2.602172 2.475001,-4.584946 3.64178,-6.379841 5.850782,-9.000448 1.188477,-1.409924 2.160862,-2.650394 2.160862,-2.756599 0,-0.761123 -2.832533,-0.17635 -3.894368,0.803988 -1.388051,1.281517 -4.916666,4.251356 -8.49342,7.148449 -1.188488,0.962645 -3.125879,2.674587 -4.305313,3.804315 -1.179439,1.129727 -4.809151,4.156105 -8.066029,6.725287 -3.256878,2.569176 -6.564233,5.281049 -7.349676,6.026377 -0.785448,0.745327 -1.718308,1.355139 -2.073022,1.355139 -0.354719,0 -0.644942,0.193372 -0.644942,0.429709 0,0.236343 -0.684097,0.832536 -1.520216,1.324883 -0.836119,0.492342 -2.870226,2.147882 -4.520237,3.678983 -1.650011,1.531096 -3.453541,2.783809 -4.007843,2.783809 -0.554302,0 -1.014552,0.184891 -1.022778,0.410869 -0.04764,1.308635 -8.487412,8.902165 -9.894249,8.902165 -0.345843,0 -0.779806,0.389953 -0.964361,0.866567 -0.184556,0.476608 -2.664375,3.170655 -5.51071,5.986764 -2.846333,2.816113 -5.175153,5.325302 -5.175153,5.575982 0,0.250679 -0.563937,1.069569 -1.253195,1.81975 -1.666293,1.813577 -4.827669,6.77401 -4.827669,7.57496 0,0.80877 1.470524,0.83348 1.96968,0.0331 z M 148.91398,56.672226 c 0,-0.75326 0.12548,-1.061412 0.27883,-0.684782 0.15336,0.37663 0.15336,0.992934 0,1.369564 -0.15335,0.37663 -0.27883,0.06848 -0.27883,-0.684782 z"
       id="path36" />
  </g>
</svg>
