<?xml version="1.0" standalone="no"?>
<!DOCTYPE svg PUBLIC "-//W3C//DTD SVG 20010904//EN"
 "http://www.w3.org/TR/2001/REC-SVG-20010904/DTD/svg10.dtd">
<svg version="1.0" xmlns="http://www.w3.org/2000/svg"
 width="300.000000pt" height="115.000000pt" viewBox="0 0 300.000000 115.000000"
 preserveAspectRatio="xMidYMid meet">
<metadata>
Created by potrace 1.10, written by Peter Selinger 2001-2011
</metadata>
<g transform="translate(0.000000,115.000000) scale(0.100000,-0.100000)"
fill="#000000" stroke="none">
<path d="M1865 1014 c-16 -2 -68 -9 -115 -15 -69 -9 -291 -51 -397 -74 -33 -8
-28 -25 7 -25 16 0 96 13 177 29 268 54 427 69 548 52 83 -12 142 -35 158 -62
15 -24 -22 -93 -90 -167 -57 -62 -59 -63 -118 -67 -74 -5 -184 -42 -284 -96
-69 -37 -244 -89 -303 -89 -24 0 -23 27 2 40 23 12 28 60 7 60 -8 0 -22 -9
-33 -21 -21 -24 -134 -79 -161 -79 -10 0 -69 -14 -132 -30 -63 -17 -116 -28
-119 -25 -3 3 4 15 16 28 43 45 18 83 -48 74 -22 -3 -40 -3 -40 0 0 2 27 30
60 61 65 62 72 82 38 106 -28 20 -58 20 -126 2 -29 -7 -52 -10 -52 -6 0 3 16
21 35 40 19 18 37 47 41 63 5 26 2 35 -22 55 -26 23 -33 24 -103 18 -42 -4
-151 -25 -243 -48 -144 -36 -168 -45 -168 -61 0 -14 5 -18 18 -14 265 78 425
108 475 88 15 -6 27 -16 27 -22 0 -6 -33 -43 -73 -83 -66 -65 -83 -75 -191
-120 -287 -118 -565 -334 -521 -405 10 -18 35 -13 84 16 55 31 413 288 491
351 69 56 120 79 216 97 95 19 106 19 102 0 -6 -28 -182 -166 -263 -207 -89
-45 -219 -137 -235 -168 -31 -58 59 -16 235 110 44 31 98 64 120 72 51 20 135
33 135 21 0 -18 -106 -111 -157 -138 -38 -20 -53 -34 -53 -49 0 -14 -37 -54
-105 -116 -96 -86 -127 -130 -92 -130 7 0 44 28 82 63 39 34 91 79 118 100 26
21 47 44 47 52 0 26 77 82 141 103 69 23 269 72 290 72 7 0 32 10 57 21 l43
21 15 -21 c18 -26 64 -27 144 -6 71 19 82 19 78 -2 -7 -47 32 -54 133 -24 70
20 111 23 106 6 -2 -5 -14 -12 -28 -14 -13 -1 -35 -11 -49 -21 -14 -9 -42 -23
-62 -29 -28 -9 -38 -18 -38 -33 0 -11 -24 -45 -55 -75 -72 -72 -86 -123 -33
-123 32 0 115 91 123 134 9 48 39 71 131 105 112 41 193 78 235 107 31 21 56
27 186 39 82 8 250 19 373 24 180 8 226 13 239 26 14 14 0 15 -154 10 -189 -6
-464 -23 -537 -32 -46 -5 -48 -4 -48 18 0 14 -7 35 -16 47 -15 22 -14 25 43
86 98 104 118 173 65 226 -16 15 -46 33 -68 39 -41 12 -257 22 -309 15z m165
-373 c0 -5 -25 -30 -55 -56 -48 -40 -69 -50 -158 -74 -56 -16 -112 -31 -124
-35 -17 -5 -23 -3 -23 8 0 19 26 34 115 63 39 13 79 34 90 47 12 15 43 30 80
39 73 19 75 19 75 8z m94 -23 c16 -26 -10 -45 -74 -53 l-55 -7 45 41 c48 43
66 47 84 19z m-1454 -22 c0 -3 -30 -27 -67 -53 -38 -26 -128 -92 -202 -146
-148 -108 -219 -153 -228 -143 -10 9 45 74 100 118 123 97 397 252 397 224z
m1350 -81 c0 -8 -110 -55 -127 -55 -23 0 4 30 42 46 30 13 85 19 85 9z m-358
-268 c-17 -17 -35 -28 -38 -24 -4 4 8 23 27 43 19 19 35 30 38 23 2 -6 -10
-25 -27 -42z"/>
</g>
</svg>
