<?xml version="1.0" encoding="UTF-8" standalone="no"?>
<!-- Created with Inkscape (http://www.inkscape.org/) -->

<svg
   width="364.23425mm"
   height="108.16677mm"
   viewBox="0 0 364.23426 108.16677"
   version="1.1"
   id="svg5"
   xml:space="preserve"
   xmlns="http://www.w3.org/2000/svg"
   xmlns:svg="http://www.w3.org/2000/svg"><defs
     id="defs2" /><g
     id="layer1"
     transform="translate(162.3545,-140.45817)"><path
       style="fill:#000000;fill-opacity:0;fill-rule:evenodd;stroke:#000000;stroke-width:1.4;stroke-linecap:round;stroke-linejoin:round;stroke-dasharray:none"
       d="m -161.6545,178.69198 c 2.79884,1.0952 5.59737,2.19027 10.84972,3.18391 5.25236,0.99363 12.95828,1.8859 21.63783,2.57539 8.67956,0.68948 18.33224,1.17617 27.33626,1.60204 9.004013,0.42586 17.358851,0.79088 24.618833,0.91254 7.259983,0.12167 13.424717,0 17.946996,-0.0608 4.522279,-0.0608 7.401859,-0.0608 9.591996,-0.18253 2.190136,-0.12169 3.690761,-0.36504 4.603211,-0.6692 0.91245,-0.30417 1.236907,-0.66918 1.297811,-1.11518 0.0609,-0.44599 -0.141881,-0.97324 -1.520792,-1.94672 -1.37891,-0.97349 -3.934028,-2.393 -6.813695,-3.69091 -2.879667,-1.29791 -6.083709,-2.47407 -9.612319,-3.60973 -3.528611,-1.13566 -7.381569,-2.23071 -11.376599,-3.34607 -3.995031,-1.11537 -8.131893,-2.25097 -12.836707,-3.44746 -4.704814,-1.19649 -9.977282,-2.45377 -15.574385,-3.81248 -5.59709,-1.35872 -11.51848,-2.81879 -17.27781,-4.36001 -5.75933,-1.54122 -11.35626,-3.16352 -16.0205,-4.54251 -4.66424,-1.37899 -8.39552,-2.5146 -11.39685,-3.60966 -3.00134,-1.09505 -5.27256,-2.14955 -6.79352,-3.04178 -1.52097,-0.89224 -2.29156,-1.62228 -2.8594,-2.21036 -0.56783,-0.58808 -0.93285,-1.03421 -0.73006,-1.31828 0.20279,-0.28407 0.97338,-0.40575 3.06219,-0.46657 2.08881,-0.0608 5.49563,-0.0608 9.65292,0.14199 4.15728,0.20281 9.06473,0.60838 14.05346,1.31818 4.98872,0.7098 10.0584,1.72373 14.31706,2.71744 4.25866,0.9937 7.70605,1.96708 10.8899,3.04191 3.18386,1.07482 6.103992,2.25099 9.470367,3.79224 3.366374,1.54124 7.178774,3.44744 10.423458,5.29288 3.244683,1.84544 5.921472,3.62997 8.111617,5.37402 2.190145,1.74406 3.893556,3.44747 5.252241,5.02928 1.358686,1.58181 2.372617,3.04187 3.26488,4.56283 0.892264,1.52096 1.662854,3.1027 2.433479,4.58309 0.770626,1.48039 1.541217,2.85934 2.210427,4.11666 0.66921,1.25732 1.237016,2.39293 1.764268,3.50829 0.527253,1.11536 1.013942,2.21042 1.723769,3.32576 0.709826,1.11535 1.642647,2.25096 2.737775,3.08234 1.095128,0.83137 2.352408,1.35862 4.258673,2.14951 1.906264,0.7909 4.461384,1.84539 7.178793,2.41314 2.717409,0.56776 5.596988,0.64887 9.024194,0.62858 3.427207,-0.0203 7.401836,-0.14195 11.417123,-0.56784 4.015287,-0.42588 8.071031,-1.15592 11.72125,-1.73401 3.6502201,-0.5781 6.8946859,-1.00424 11.0263971,-1.84827 4.1317112,-0.84403 9.1504387,-2.10588 13.9542009,-3.59721 4.803762,-1.49133 9.392316,-3.21203 13.149278,-4.80374 3.756963,-1.5917 6.682163,-3.0543 9.105542,-4.40222 2.423378,-1.34793 4.344834,-2.5811 5.979525,-3.81429 1.634691,-1.23319 2.982577,-2.46636 4.015,-3.65651 1.032423,-1.19015 1.749383,-2.33729 2.208254,-3.49874 0.458871,-1.16144 0.65962,-2.33725 0.659656,-3.69948 3.6e-5,-1.36223 -0.200714,-2.91087 -0.874612,-4.67464 -0.673897,-1.76377 -1.821033,-3.74258 -3.039863,-5.36299 -1.21883,-1.6204 -2.509359,-2.88225 -4.01501,-4.14416 -1.505652,-1.26191 -3.226358,-2.52377 -5.5207,-3.88606 -2.294342,-1.3623 -5.162187,-2.8249 -7.9154,-3.92909 -2.753214,-1.10418 -5.391631,-1.84982 -8.044474,-2.45211 -2.652844,-0.60228 -5.319938,-1.06113 -9.0482653,-1.56303 -3.7283272,-0.5019 -8.51762953,-1.04679 -12.5040541,-1.37661 -3.9864246,-0.32982 -7.1697326,-0.44453 -10.5539026,-0.44454 -3.38417,-1e-5 -6.968977,0.11471 -10.389291,0.52878 -3.420314,0.41407 -6.675874,1.12751 -9.266998,1.88982 -2.591124,0.76231 -4.517604,1.57346 -5.99807,2.61789 -1.480466,1.04443 -2.514681,2.322 -3.183908,3.43742 -0.669227,1.11543 -0.973408,2.06853 -1.013918,3.35634 -0.04051,1.28781 0.182554,2.9101 0.578039,4.53246 0.395485,1.62236 0.963288,3.24465 1.91648,4.92783 0.953192,1.68318 2.291586,3.42715 3.701027,4.94807 1.409442,1.52092 2.889789,2.81876 4.654104,4.19774 1.764315,1.37898 3.812467,2.83905 6.31698,4.27885 2.504513,1.4398 5.465206,2.85931 10.15989,4.81626 4.694684,1.95695 11.1230398,4.45123 17.02431827,6.43858 5.90127853,1.98735 11.27514473,3.4677 16.69986673,4.91767 5.424722,1.44997 10.899978,2.86948 17.859128,4.63113 6.95915,1.76166 15.401751,3.86534 26.007864,6.33942 10.606113,2.47408 23.375064,5.31841 33.551945,7.6329 10.176877,2.31449 17.761117,4.09902 24.939997,6.00529 7.17889,1.90627 13.95199,3.93414 19.52879,5.59704 5.57681,1.6629 9.95702,2.96074 13.74925,4.21808 3.79223,1.25733 6.99626,2.47405 11.39689,4.23836 4.40063,1.76432 9.99757,4.0761 14.94572,6.26627 4.94814,2.19018 9.24722,4.25861 12.97862,6.06347 3.73139,1.80485 6.89487,3.34604 10.0581,4.8871"
       id="path856" /></g></svg>
