<?xml version="1.0" encoding="UTF-8" standalone="no"?>
<!-- Created with Inkscape (http://www.inkscape.org/) -->

<svg
   xmlns:dc="http://purl.org/dc/elements/1.1/"
   xmlns:cc="http://creativecommons.org/ns#"
   xmlns:rdf="http://www.w3.org/1999/02/22-rdf-syntax-ns#"
   xmlns:svg="http://www.w3.org/2000/svg"
   xmlns="http://www.w3.org/2000/svg"
   xmlns:sodipodi="http://sodipodi.sourceforge.net/DTD/sodipodi-0.dtd"
   xmlns:inkscape="http://www.inkscape.org/namespaces/inkscape"
   width="40.644878mm"
   height="28.650436mm"
   viewBox="0 0 144.01728 101.51729"
   id="svg7520"
   version="1.1"
   inkscape:version="0.91 r13725"
   sodipodi:docname="logo.svg">
  <defs
     id="defs7522">
    <clipPath
       id="clipPath8084"
       clipPathUnits="userSpaceOnUse">
      <path
         inkscape:connector-curvature="0"
         id="path8086"
         d="m -18.43,35.06003 594.75,0 0,-35.9999986 -594.75,0 0,35.9999986 z" />
    </clipPath>
    <clipPath
       id="clipPath8090"
       clipPathUnits="userSpaceOnUse">
      <path
         inkscape:connector-curvature="0"
         id="path8092"
         d="m 9.64,14.16998 566.68,0 0,20.89005 -566.68,0 0,-20.89005 z" />
    </clipPath>
    <clipPath
       id="clipPath8102"
       clipPathUnits="userSpaceOnUse">
      <path
         inkscape:connector-curvature="0"
         id="path8104"
         d="m 9.64,14.16998 576,0 0,819.22 -576,0 0,-819.22 z" />
    </clipPath>
    <clipPath
       id="clipPath8122"
       clipPathUnits="userSpaceOnUse">
      <path
         inkscape:connector-curvature="0"
         id="path8124"
         d="m -0.5799991,842.06 594.7499991,0 0,-178.5 -594.7499991,0 0,178.5 z" />
    </clipPath>
    <clipPath
       id="clipPath8128"
       clipPathUnits="userSpaceOnUse">
      <path
         inkscape:connector-curvature="0"
         id="path8130"
         d="m 9.64,663.56 576,0 0,169.83 -576,0 0,-169.83 z" />
    </clipPath>
    <clipPath
       id="clipPath8140"
       clipPathUnits="userSpaceOnUse">
      <path
         inkscape:connector-curvature="0"
         id="path8142"
         d="m 9.64,14.16998 576,0 0,819.22 -576,0 0,-819.22 z" />
    </clipPath>
    <clipPath
       id="clipPath8652"
       clipPathUnits="userSpaceOnUse">
      <path
         inkscape:connector-curvature="0"
         id="path8654"
         d="m 170.12,162.4601 0,-60 -89.74997,0 0,60 89.74997,0 z" />
    </clipPath>
    <clipPath
       id="clipPath8658"
       clipPathUnits="userSpaceOnUse">
      <path
         inkscape:connector-curvature="0"
         id="path8660"
         d="m 170.12,162.4601 0,-60 -89.74996,0 0,60 89.74996,0 z" />
    </clipPath>
    <clipPath
       id="clipPath8664"
       clipPathUnits="userSpaceOnUse">
      <path
         inkscape:connector-curvature="0"
         id="path8666"
         d="m 9.64,14.16998 576,0 0,819.22 -576,0 0,-819.22 z" />
    </clipPath>
  </defs>
  <sodipodi:namedview
     id="base"
     pagecolor="#ffffff"
     bordercolor="#666666"
     borderopacity="1.0"
     inkscape:pageopacity="0.0"
     inkscape:pageshadow="2"
     inkscape:zoom="1"
     inkscape:cx="71.804315"
     inkscape:cy="26.016749"
     inkscape:document-units="px"
     inkscape:current-layer="layer1"
     showgrid="false"
     showguides="true"
     inkscape:guide-bbox="true"
     inkscape:window-width="1858"
     inkscape:window-height="1057"
     inkscape:window-x="-8"
     inkscape:window-y="-8"
     inkscape:window-maximized="1"
     fit-margin-top="0"
     fit-margin-left="0"
     fit-margin-right="0"
     fit-margin-bottom="0" />
  <metadata
     id="metadata7525">
    <rdf:RDF>
      <cc:Work
         rdf:about="">
        <dc:format>image/svg+xml</dc:format>
        <dc:type
           rdf:resource="http://purl.org/dc/dcmitype/StillImage" />
        <dc:title></dc:title>
      </cc:Work>
    </rdf:RDF>
  </metadata>
  <g
     inkscape:label="Calque 1"
     inkscape:groupmode="layer"
     id="layer1"
     transform="translate(80.495381,-11.406133)">
    <path
       style="fill:none;fill-rule:evenodd;stroke:#000000;stroke-width:2.91597676px;stroke-linecap:butt;stroke-linejoin:miter;stroke-opacity:1"
       d="m -50.974314,14.19289 c -12.600782,4.385424 -23.692313,11.638976 -23.692313,26.243792 0,12.463993 7.407448,25.775685 13.85089,36.085208 16.744146,26.79063 -19.111487,26.98276 -16.037872,5.467457 3.05287,-21.370087 53.628542,-69.410568 73.6284168,-52.487579 9.298441,7.867889 -17.9261958,24.122624 -21.8698268,28.066272 -1.648924,1.648926 9.871028,-3.942861 11.29941,-0.728994 2.923743,6.578415 -7.514624,9.027544 -6.19645,11.663907 0.602122,1.204241 7.007999,0.135302 8.383433,0.364497 3.2717612,0.545289 2.5515558,6.317961 3.2804741,6.560949 1.8539986,0.617982 7.59446077,-1.845552 8.74793084,0 1.67672456,2.682757 23.53174706,34.627231 14.21538806,34.627231 -2.102662,0 -4.027454,-0.1948 -5.8319545,-1.45799 -13.24784,-9.273515 5.2409445,-53.17724 13.4863925,-60.506519 2.729046,-2.425831 7.488063,-4.318503 10.934914,-5.467457 6.822377,-2.274141 20.299606,-0.224239 15.673376,10.570417 -2.637585,6.154338 -19.940878,9.689843 -16.037873,17.495856 1.756728,3.51343 9.196443,1.289736 12.392902,1.822485 4.08873,0.681435 1.42973,5.410916 2.55148,7.654439 1.385174,2.770325 10.040694,5.277306 12.757399,7.65444"
       id="path4874"
       inkscape:connector-curvature="0" />
  </g>
  <style
     id="style9263"
     type="text/css"><![CDATA[
		.st1 {fill:#ffffff;stroke:#000000;stroke-linecap:round;stroke-linejoin:round;stroke-width:3}
		.st2 {fill:#000000;stroke:#000000;stroke-linecap:round;stroke-linejoin:round;stroke-width:3}
		.st3 {fill:none;fill-rule:evenodd;font-size:12px;overflow:visible;stroke-linecap:square;stroke-miterlimit:3}
	]]></style>
  <style
     id="style6"
     type="text/css">
	
		.st1 {fill:#ffffff;stroke:#000000;stroke-linecap:butt;stroke-width:3}
		.st2 {fill:#0000ff;stroke:#000000;stroke-linecap:round;stroke-linejoin:round;stroke-width:2.16}
		.st3 {fill:none;fill-rule:evenodd;font-size:12px;overflow:visible;stroke-linecap:square;stroke-miterlimit:3}
	
	</style>
  <style
     id="style6-5"
     type="text/css">
	
		.st1 {fill:#ff0000;stroke:#000000;stroke-linecap:round;stroke-linejoin:round;stroke-width:3}
		.st2 {stroke:#000000;stroke-linecap:round;stroke-linejoin:round;stroke-width:3}
		.st3 {fill:none;fill-rule:evenodd;font-size:12px;overflow:visible;stroke-linecap:square;stroke-miterlimit:3}
	
	</style>
  <style
     id="style6-7"
     type="text/css">
	
		.st1 {fill:#000000;stroke:#000000;stroke-linecap:round;stroke-linejoin:round;stroke-width:1.2}
		.st2 {fill:none;fill-rule:evenodd;font-size:12px;overflow:visible;stroke-linecap:square;stroke-miterlimit:3}
	
	</style>
  <style
     id="style9819"
     type="text/css"><![CDATA[
		.st1 {fill:#ff0000;stroke:#000000;stroke-linecap:round;stroke-linejoin:round;stroke-width:2.16}
		.st2 {fill:#ffff00;stroke:#000000;stroke-linecap:round;stroke-linejoin:round;stroke-width:2.16}
		.st3 {fill:#ffffff;stroke:#000000;stroke-linecap:round;stroke-linejoin:round;stroke-width:0.24}
		.st4 {fill:#ffffff}
		.st5 {stroke:#000000;stroke-linecap:round;stroke-linejoin:round;stroke-width:0.24}
		.st6 {fill:#ffffff;stroke:#000000;stroke-linecap:round;stroke-linejoin:round;stroke-width:2.16}
		.st7 {fill:#000000;stroke:#000000;stroke-linecap:round;stroke-linejoin:round;stroke-width:2.16}
		.st8 {stroke:#000000;stroke-linecap:round;stroke-linejoin:round;stroke-width:1.2}
		.st9 {fill:#000000;stroke:#000000;stroke-linecap:round;stroke-linejoin:round;stroke-width:1.2}
		.st10 {fill:#ffffff;stroke:#000000;stroke-linecap:round;stroke-linejoin:round;stroke-width:1.2}
		.st11 {fill:none;fill-rule:evenodd;font-size:12px;overflow:visible;stroke-linecap:square;stroke-miterlimit:3}
	]]></style>
  <style
     id="style6-6"
     type="text/css">
	
		.st1 {fill:#000000;stroke:#000000;stroke-linecap:butt;stroke-width:2.16}
		.st2 {fill:none;fill-rule:evenodd;font-size:12px;overflow:visible;stroke-linecap:square;stroke-miterlimit:3}
	
	</style>
</svg>
