<?xml version="1.0" encoding="utf-8"?>
<!-- Generator: Adobe Illustrator 16.0.0, SVG Export Plug-In . SVG Version: 6.00 Build 0)  -->
<!DOCTYPE svg PUBLIC "-//W3C//DTD SVG 1.1//EN" "http://www.w3.org/Graphics/SVG/1.1/DTD/svg11.dtd">
<svg version="1.1" xmlns="http://www.w3.org/2000/svg" xmlns:xlink="http://www.w3.org/1999/xlink" x="0px" y="0px"
	 width="343.482px" height="200.99px" viewBox="0 0 343.482 200.99" enable-background="new 0 0 343.482 200.99"
	 xml:space="preserve">
<g id="Layer_1">
</g>
<g id="Layer_2">
	<g>
		<g>
			<path d="M18.961,82.851c-1.409-1.197-5.021-5.147-7.15-3.899c-2.201,1.289-1.803,6.714-1.472,8.666
				c2.317,13.68,17.506,7.541,24.631,1.759c2.268-1.841,3.913-4.369,6.231-6.121c-0.979-0.426-1.319,0.036-1.021,1.385
				c-0.205,0.912-0.442,1.815-0.712,2.711c-0.343,1.227-0.761,2.418-1.222,3.604c-2.117,5.441-5.033,10.627-7.759,15.777
				c-2.552,4.82-5.182,9.6-7.734,14.42c-0.862,1.629-3.12,4.598-2.896,6.607c0.076,0.68,0.404,1.246,1.102,1.446
				c2.464,0.707,6.398-7.958,7.379-9.361c7.686-11.002,17.278-20.504,27.279-29.385c3.81-3.382,7.747-6.648,11.94-9.546
				c1.125-0.777,2.292-1.494,3.498-2.14c0.396-0.212,0.801-0.389,1.224-0.537c0.969-0.341-0.521-1.152-0.519-1.157
				c-0.876,2.062-2.674,3.973-3.974,5.768c-2.611,3.604-5.247,7.191-7.844,10.805c-2.279,3.172-4.534,6.363-6.656,9.643
				c-0.963,1.489-2.661,3.604-2.61,5.502c0.135,5.035,7.006-2.793,7.527-3.377c14.434-16.208,28.036-32.977,42.917-48.806
				c1.922-2.044,3.757-4.215,5.811-6.131c-1.219,1.137-1.729-2.102-1.712-0.4c0.008,0.818,0.18-0.09-0.065,0.604
				c-0.905,2.562-2.324,5.013-3.537,7.435C95.94,69.449,89.982,80.641,84.043,91.834c-14.799,27.895-29.759,55.719-45.178,83.275
				c-2.562,4.579-5.122,9.166-7.83,13.66c-0.683,1.134-1.474,2.353-2.061,3.018c1.105-1.254,0.929,2.05,1.699-0.618
				c0.437-1.515,1.112-2.96,1.774-4.385c1.422-3.056,3.22-6.004,5.513-8.479c1.312-1.417-0.804-3.543-2.121-2.121
				c-3.002,3.24-5.151,7.106-6.907,11.137c-0.562,1.292-2.862,5.771-1.134,7.119c2.399,1.87,4.404-1.837,5.498-3.616
				c5.302-8.625,10.078-17.6,14.965-26.462c15.585-28.259,30.892-56.68,45.89-85.254c4.475-8.526,9.131-17.024,13.122-25.793
				c0.658-1.446,1.341-2.98,0.821-4.605c-1.295-4.052-6.84,3.368-7.573,4.154c-14.926,16.012-28.964,32.576-43.288,49.119
				c-1.586,1.832-3.206,4.026-5.18,5.472c2.857-2.093,0.869,2.802,1.882,0.654c0.238-0.504,0.529-0.985,0.807-1.467
				c0.938-1.624,2.003-3.178,3.053-4.73c4.624-6.839,9.634-13.408,14.433-20.123c0.938-1.313,4.741-6.361,0.636-6.642
				c-4.682-0.32-10.662,5.918-13.902,8.539c-10.52,8.512-20.339,18.119-28.773,28.707c-2.482,3.114-4.803,6.355-6.98,9.689
				c-0.688,1.053-1.348,2.124-2.001,3.199c-1.212,1.994-0.907,0.614,0.547,1.031c0.367,0.482,0.734,0.964,1.101,1.446
				c-0.13-1.169,2.206-4.562,2.902-5.877c2.226-4.205,4.514-8.377,6.754-12.574c4.099-7.679,9.794-16.468,10.814-25.323
				c0.235-2.04-0.264-4.275-2.794-3.734c-1.209,0.259-2.373,1.668-3.17,2.484c-2.45,2.508-4.708,4.832-7.629,6.844
				c-5.734,3.949-15.608,6.087-16.541-3.291c-0.087-0.873-0.023-1.761,0.034-2.633c0.052-0.573,0.144-1.14,0.275-1.699
				c0.351-0.748,0.057-0.802-0.881-0.16c1.554,0.721,2.919,2.072,4.219,3.177C18.305,86.217,20.438,84.105,18.961,82.851
				L18.961,82.851z"/>
		</g>
		<g>
			<path d="M79.68,122.846c0.15,0.871,3.175-2.416,3.537-2.833c1.894-2.179,3.591-4.544,5.254-6.899
				c2.655-3.759,6.488-8.618,7.431-13.242c0.103-0.505,0.029-1.098-0.386-1.459c-0.007-0.006-0.013-0.012-0.02-0.017
				c-0.588-0.512-1.551-0.642-2.121,0c-2.599,2.923-11.516,24.603-2.195,22.166c6.126-1.601,11.304-10.245,14.801-14.941
				c2.447-3.287,4.745-6.692,6.875-10.192c0.95-1.56,2.688-3.833,2.676-5.773c-0.029-5.026-6.398,3.19-6.775,3.705
				c-3.81,5.194-7.669,10.903-9.802,17.026c-1.67,4.796,1.855,6.693,6.15,4.709c9.777-4.52,17.167-14.973,22.445-23.968
				c0.883-1.506,2.426-3.679,2.486-5.542c0.054-1.657-1.866-1.872-2.88-1.038c-3.721,3.059-6.398,8.384-8.829,12.429
				c-2.511,4.178-6.516,10.113-6.106,15.263c0.517,6.493,8.965,1.89,11.51-0.018c9.063-6.79,16.078-17.257,21.106-27.244
				c0.899-1.786,2.627-4.451,1.757-6.509c-0.867-2.05-3.362,0.146-4.125,0.928c-3.984,4.083-26.417,34.888-13.488,36.395
				c4.596,0.536,8.886-3.886,12.023-6.69c5.341-4.773,11.375-11.368,13.924-18.193c1.001-2.681-1.791-2.985-3.335-1.456
				c-3.175,3.145-5.74,7.143-8.211,10.834c-2.165,3.232-5.438,7.473-5.788,11.51c-0.319,3.686,3.496,3.208,5.774,2.119
				c6.459-3.087,11.902-9.599,16.354-14.979c2.647-3.199,5.015-6.626,7.041-10.249c1.317-2.354,3.418-5.728,3.584-8.529
				c0.03-0.505-0.303-1.058-0.743-1.295c-0.025-0.014-0.051-0.028-0.077-0.042c-0.451-0.243-1.068-0.304-1.514,0
				c-2.099,1.43-3.559,4.413-5.018,6.413c-3.055,4.19-6.746,7.783-9.88,11.896c-2.581,3.385-13.097,16.188-8.443,21.012
				c5.097,5.282,16.037-7.898,18.749-10.803c2.079-2.228,16.615-17.38,11.518-20.94c-3.523-2.461-7.112,8.915-8.033,11.017
				c-3.862,8.805-7.495,17.71-10.83,26.728c-4.04,10.926-7.625,22.091-9.855,33.538c-1.83,9.391-2.502,19.143-3.265,28.676
				c-0.158,1.974-0.272,3.898,0.382,5.793c0.626,1.812,3.38,1.093,2.893-0.798c-1.425-5.538-3.711-10.956-5.815-16.255
				c-5.831-14.683-12.863-28.817-20.29-42.748c-6.566-12.316-13.203-24.616-20.379-36.591c-2.17-3.62-4.416-7.2-6.835-10.659
				c-0.764-1.092-1.566-2.154-2.385-3.205c-0.408-0.524-0.835-1.033-1.268-1.537c-0.633-0.737-2.186-3.566-2.445-2.15
				c-0.615,0.35-1.23,0.698-1.845,1.048c1.298,0.256,2.159,1.482,3.599,1.422c1.927-0.081,1.935-3.081,0-3
				c-0.931,0.039-1.862-1.13-2.801-1.314c-0.745-0.147-1.691,0.201-1.845,1.047c-0.461,2.523,3.478,5.282,4.933,7.188
				c2.271,2.978,4.283,6.156,6.262,9.332c7.099,11.388,13.456,23.25,19.812,35.062c8.052,14.964,15.766,30.067,22.162,45.823
				c2.286,5.632,4.73,11.431,6.25,17.336c0.964-0.267,1.929-0.532,2.893-0.798c-0.68-1.967-0.361-4.006-0.176-6.19
				c0.902-10.652,1.785-21.423,4.153-31.86c4.579-20.181,12.721-39.632,21.108-58.487c0.608-1.367,1.213-2.729,1.905-4.058
				c0.155-0.264,0.31-0.527,0.465-0.79c0.999-0.836,0.692-1.356-0.919-1.562c-0.127,0.939-0.632,1.948-1.012,2.774
				c-3.078,6.698-8.758,12.462-13.908,17.62c-2.169,2.174-4.499,4.198-7.033,5.934c-2.107,1.442-4.533,2.123-3.666-1.312
				c1.419-5.619,5.61-11.045,9.138-15.499c2.772-3.501,5.916-6.646,8.605-10.229c1.237-1.648,2.422-3.335,3.638-4.999
				c0.196-0.26,0.392-0.52,0.588-0.779c0.875-0.801,0.263-1.322-1.834-1.564c-0.447,1.591-1.323,3.146-2.01,4.643
				c-4.446,9.683-12.644,18.983-21.358,25.091c-0.605,0.425-3.369,1.567-3.349,2.06c-0.039-0.967,0.659-2.147,1.051-2.978
				c1.457-3.082,3.395-5.959,5.307-8.771c1.737-2.555,3.574-5.052,5.55-7.428c0.531-0.639,1.083-1.266,1.699-1.825
				c-0.678-0.433-1.357-0.864-2.035-1.297c-0.081,0.225-0.178,0.441-0.293,0.651c-0.506,1.045-1.13,2.041-1.721,3.037
				c-3.206,5.398-7.533,10.137-12.196,14.306c-2.194,1.961-5.666,5.443-8.91,4.954c-4.798-0.724,9.128-22.738,10.999-25.422
				c1.28-1.838,2.634-3.623,4.095-5.32c0.406-0.473,0.844-0.908,1.3-1.331c-0.524-0.341-1.049-0.682-1.573-1.022
				c-0.115,0.416-0.255,0.823-0.419,1.223c-2.434,6.535-6.831,12.71-11.072,18.174c-3.394,4.372-7.282,8.621-11.852,11.783
				c-3.034,2.099-6.088,2.724-4.834-1.616c1.815-6.283,5.963-12.238,9.633-17.568c1.158-1.683,2.336-3.48,3.829-4.892
				c-3.483,3.294-1.358-2.862-2.278-0.752c-0.22,0.505-0.482,0.992-0.734,1.48c-1.641,3.176-3.605,6.17-5.666,9.085
				c-4.183,5.919-9.562,12.051-16.035,15.517c-2.185,1.17-3.319,1.548-2.558-0.944c0.599-1.961,1.643-3.807,2.622-5.598
				c2.148-3.931,4.658-7.686,7.306-11.296c0.839-1.145,1.71-2.294,2.72-3.296c-1.355,1.346-1.366-2.625-2.244-0.683
				c-0.347,0.768-0.772,1.503-1.184,2.236c-4.771,8.502-11.346,19.017-19.565,24.54c-3.642,2.446-0.325-6.513,0.189-7.938
				c0.89-2.467,2.311-6.951,3.805-8.632c-0.707,0-1.414,0-2.121,0c-0.947-0.823-0.081-1.975-0.771-0.362
				c-0.658,1.537-1.462,3.004-2.275,4.463c-1.771,3.182-3.858,6.194-5.992,9.14c-1.564,2.159-3.221,4.375-5.185,6.196
				c-1.175,1.089-2.678,1.877-2.365,3.689C77.116,125.547,80.006,124.737,79.68,122.846L79.68,122.846z"/>
		</g>
		<g>
			<path d="M214.324,62.539c-0.337-0.707-0.381-0.722-0.132-0.041c0.13,0.32,0.262,0.639,0.397,0.957
				c0.456,0.868,0.973,1.566,1.618,2.298c1.548,1.755,4.009,2.081,6.192,1.991c2.471-0.102,4.59-1.429,6.465-2.897
				c1.389-1.089,4.35-4.283,5.453-4.198c-0.5-0.5-1-1-1.5-1.5c0.078-1.113-1.062,0.993-1.467,1.531
				c-1.397,1.859-2.593,3.855-3.743,5.873c-2.541,4.459-4.538,9.279-6.795,13.89c-4.244,8.671-8.572,17.333-13.354,25.724
				c-0.707,1.241-1.443,2.466-2.227,3.661c-0.237,0.363-0.487,0.71-0.772,1.037c2.451-2.811,1.711,2.397,2.029,0.711
				c0.535-2.84,1.718-5.634,2.684-8.344c3.315-9.293,6.934-18.479,10.427-27.707c3.329-8.794,6.371-17.661,9.398-26.562
				c3.484-10.243,7.113-21.495,14.177-29.909c1.948-2.321,5.911-5.94,9.227-4.305c2.864,1.414,3.664,6.048,4.222,8.815
				c1.845,9.157,0.949,19.197-0.523,28.336c-0.862,5.352-2.162,10.66-4.537,15.549c-3.452,7.104-10.217,15.847-18.946,15.688
				c-6.085-0.11-9.05-8.281-15.55-7.45c-2.168,0.277-4.228,2.439-3.128,4.648c0.862,1.732,3.449,0.212,2.59-1.514
				c-0.11-0.223,3.844,0.509,4.815,1.054c2.409,1.352,4.15,3.582,6.555,4.963c3.515,2.019,7.797,1.451,11.357-0.041
				c8.508-3.565,14.372-13.027,17.215-21.408c2.771-8.169,3.703-17.144,4-25.72c0.248-7.19,0.092-15.46-3.304-21.994
				c-2.673-5.143-7.935-5.057-12.352-2.167c-7.201,4.711-10.966,14.501-14.081,22.078c-3.819,9.291-6.624,18.957-10.031,28.398
				c-3.416,9.468-7.092,18.842-10.649,28.257c-2.338,6.189-5.719,12.901-6.606,19.521c-0.174,1.289,1.279,2.603,2.496,1.742
				c1.867-1.319,2.999-3.908,4.106-5.822c5.026-8.691,9.454-17.759,13.866-26.772c2.309-4.716,4.406-9.55,7.007-14.114
				c1.188-2.082,4.721-5.177,4.895-7.646c0.061-0.861-0.731-1.441-1.5-1.5c-3.845-0.296-7.55,5.743-10.956,6.889
				c-6.525,2.195-5.227-7.289-10.552-4.588C211.085,60.824,212.604,63.412,214.324,62.539L214.324,62.539z"/>
		</g>
		<g>
			<path d="M235.068,87.244c-8.385-0.89-13.539,16.878-5.069,19.672c10.086,3.327,19.228-17.438,8.395-19.612
				c-3.053-0.613-7.542,2.012-6.838,5.547c1.081,5.421,7.836,3.807,11.514,2.671c3.057-0.943,5.987-2.279,8.962-3.446
				c0.446-0.174,0.896-0.338,1.35-0.492c1.865-0.657,0.032,0.065,0.308-0.905c-0.399,1.408-1.454,2.791-2.208,4.024
				c-0.843,1.381-7.823,10.168-4.375,11.681c0.68,0.298,1.239,0.236,1.817-0.234c1.09-0.887,1.499-3.156,1.981-4.384
				c1.462-3.728,3.315-7.32,5.906-10.394c0.946-1.123,9.12-6.826,7.961-3.526c-0.954,2.716-2.965,5.225-4.518,7.618
				c-0.771,1.19-5.426,8.153-0.797,7.932c1.823-0.088,2.329-2.67,2.751-4.014c1.364-4.341,2.656-9.116,6.45-12.008
				c0.69-0.525,0.125-2.268-0.818-0.101c-0.593,1.359-1.298,2.674-1.958,4.001c-0.929,1.869-2.325,4.198-2.373,6.351
				c-0.146,6.634,8.454-0.421,10.021-1.903c0.725-0.7,1.493-1.348,2.307-1.943c0.469-0.248,0.938-0.495,1.407-0.743
				c-0.234-1.139-0.409-1.35-0.524-0.631c-0.345,1.254-1.134,2.454-1.761,3.58c-1.769,3.18-3.722,6.26-5.579,9.387
				c-3.368,5.673-7.864,12.392-8.145,19.207c-0.074,1.814,2.364,1.873,2.946,0.398c2.836-7.188,6.037-14.242,9.419-21.188
				c2.578-5.297,5.367-10.491,8.435-15.521c2.934-4.81,6.355-10.811,11.163-14c1.6-1.062-0.441,6.416-0.749,7.338
				c-1.554,4.646-3.766,9.442-6.883,13.259c-2.237,2.739-3.708,2.292-5.116-1.212c-2.396-5.962,5.184-4.481,7.873-3.229
				c3.186,1.483,6.085,2.329,9.608,1.713c4.095-0.716,19.703-11.241,13.447-16.578c-6.068-5.178-13.241,7.06-14.938,11.331
				c-3.285,8.271,5.675,11.201,12.208,7.864c2.841-1.45,15.039-10.825,10.679-15.186c-3.123-3.123-8.425,5.208-9.566,7.105
				c-3.088,5.132-2.327,10.232,2.916,13.34c12.305,7.293,19.605-14.421,9.312-20.989c-3.116-1.988-8.732-1.258-8.848,3.282
				c-0.128,5.047,3.929,7.41,8.431,8.119c10.447,1.646,22.626-5.664,14.624-16.605c-1.129-1.545-3.734-0.051-2.59,1.514
				c6.113,8.359-2.312,12.543-10.112,12.287c-3.046-0.101-6.978-1.099-7.37-4.631c-0.243-2.193,1.945-2.227,3.441-1.8
				c2.494,0.711,3.807,3.307,4.364,5.604c1.229,5.059-1.896,12.551-7.935,11.323c-5.991-1.219-5.66-6.579-3.113-10.813
				c1.059-1.76,2.459-3.306,3.993-4.659c1.001-0.883,0.224-1.803-0.119-0.536c-0.264,0.974-0.908,1.898-1.433,2.744
				c-1.515,2.44-3.713,4.479-6.046,6.114c-2.22,1.557-11.624,4.576-10.638-1.283c0.441-2.625,2.466-5.17,3.95-7.298
				c1.097-1.571,2.22-3.112,3.771-4.271c2.067-1.545,3.452,0.013,2.404,2.243c-2.715,5.779-10.771,10.481-16.961,8.33
				c-3.494-1.214-6.004-3.041-9.872-2.508c-3.156,0.436-5.333,3.996-4.657,7.007c1.595,7.108,6.846,8.661,11.212,2.804
				c4.225-5.666,8.181-13.765,8.439-20.961c0.1-2.754-1.959-5.126-4.761-3.613c-5.959,3.217-10.1,11.04-13.463,16.554
				c-6.945,11.388-12.521,23.809-17.413,36.208c0.982,0.133,1.964,0.266,2.946,0.398c0.32-7.786,6.612-15.852,10.49-22.29
				c0.962-1.596,7.739-10.495,4.006-12.16c-2.566-1.145-5.65,1.94-7.322,3.472c-0.805,0.738-5.006,4.461-4.75,3.433
				c0.369-1.48,1.147-2.882,1.814-4.244c0.594-1.213,5.671-10.788,0.062-8.759c-3.174,1.149-5.262,4.571-6.658,7.418
				c-0.845,1.724-1.443,3.573-2.026,5.396c-0.266,0.831-0.513,1.668-0.774,2.499c-0.074,0.223-0.149,0.445-0.224,0.667
				c-0.649,0.94-0.142,1.405,1.524,1.396c0.755-5.291,7.673-8.976,7.735-14.654c0.065-6.092-9.004-1.53-11.118,0.282
				c-3.069,2.632-5.249,5.928-7.055,9.519c-0.879,1.747-1.836,6.417-3.138,7.477c0.606-0.078,1.212-0.156,1.817-0.234
				c1.245,0.546,0.57,0.687,1.312-0.779c0.415-0.82,0.909-1.604,1.384-2.39c1.065-1.769,2.199-3.496,3.275-5.259
				c0.896-1.468,3.026-4.354,1.938-6.211c-1.887-3.222-12.853,3.041-15.205,3.768c-1.807,0.558-3.801,1.053-5.685,0.642
				c-3.046-0.665,0.432-3.231,1.742-3.344c3.271-0.282,2.8,4.686,2.405,6.605c-0.51,2.485-2.259,4.569-4.283,5.988
				c-9.652,6.765-7.777-13.348-0.436-12.569C236.991,90.448,236.972,87.446,235.068,87.244L235.068,87.244z"/>
		</g>
	</g>
</g>
</svg>
