<svg width="665" height="600" xmlns="http://www.w3.org/2000/svg">

 <g>
  <title>Layer 1</title>
  <path fill-rule="evenodd" fill="#000000" d="m453.43202,1.7817c-10.10106,0.67564 -15.03653,1.54609 -20.49326,3.61653c-2.48183,0.94299 -5.68683,2.0435 -7.11911,2.44764c-1.43462,0.40207 -4.16299,1.67666 -6.06251,2.83105c-1.90187,1.15439 -3.70513,2.09738 -4.00802,2.09738c-1.44167,0 -9.07733,5.19371 -15.77615,10.73147c-17.62402,14.56354 -20.61771,25.24734 -10.18558,36.36015c5.4943,5.85277 17.48314,7.54602 22.4421,3.16887l1.97701,-1.74505l-1.4628,-2.65696c-0.8758,-1.58962 -2.82228,-3.54607 -4.8533,-4.87248c-1.8643,-1.21656 -4.46353,-3.45488 -5.77606,-4.97196l-2.38556,-2.75851l1.71169,-3.05488c1.09182,-1.94816 4.05733,-5.0217 8.20388,-8.50144c9.2957,-7.80301 11.78926,-9.54184 15.39108,-10.75012c1.75865,-0.58859 3.70748,-1.47563 4.33439,-1.96889c1.06364,-0.83937 3.76383,-1.9979 12.2119,-5.24345c13.05718,-5.01341 45.87269,-2.47665 59.96299,4.64035c1.62716,0.82071 4.28508,1.90464 5.9052,2.40826c3.69104,1.14817 11.48167,5.24345 16.49229,8.67139c2.10145,1.43625 5.35342,3.64969 7.22946,4.916c6.35601,4.2901 23.33668,18.76452 23.33668,19.89197c0,0.26528 1.48393,1.9751 3.29893,3.79684c4.97304,4.99268 7.48305,7.84653 8.68991,9.88381c0.60109,1.01139 2.21181,2.7896 3.58069,3.95228c1.37123,1.16268 2.49122,2.37717 2.49122,2.70048c0,0.32124 0.95328,1.71604 2.12024,3.09841c2.62036,3.10255 6.15643,8.1429 8.9388,12.73766c1.15991,1.915 2.43487,3.66006 2.83402,3.87767c0.39916,0.21761 1.66238,1.96267 2.80585,3.87767c1.14582,1.91293 3.47268,5.55019 5.17262,8.07865c1.69995,2.53054 4.06672,6.39163 5.2595,8.58434c1.19278,2.19272 3.39285,6.14707 4.88617,8.78745c1.49332,2.64038 2.71663,5.15641 2.71663,5.58956c0,0.43315 0.63161,1.49635 1.40175,2.36059c0.77249,0.86631 2.19068,3.42172 3.15335,5.68075c0.96502,2.25904 2.53348,5.34086 3.48677,6.85172c0.95563,1.50879 2.20711,4.53258 2.78237,6.72116c0.57526,2.18857 1.84317,5.81547 2.81759,8.06c0.97676,2.2466 2.3386,5.73879 3.02656,7.76156c0.69031,2.02484 1.92535,4.99268 2.7495,6.59888c0.8218,1.6062 1.95822,5.33257 2.52409,8.27761c0.56352,2.94711 1.79856,6.63618 2.73776,8.19678c1.07773,1.78651 2.23294,5.53153 3.11578,10.11593c0.77249,4.00409 2.03101,8.88279 2.79411,10.83924c0.7631,1.95852 1.71638,5.68283 2.11319,8.27761c0.39916,2.59686 1.33835,7.75327 2.08971,11.46306c1.43227,7.07348 2.73071,16.3086 4.52458,32.19233c2.55696,22.61732 0.44612,73.74826 -3.88592,94.12105c-0.71849,3.37198 -1.78447,9.37397 -2.37147,13.33454c-0.587,3.96057 -1.50741,7.96259 -2.0498,8.89108c-1.03312,1.77822 -1.83378,4.87662 -3.60417,13.95215c-0.59169,3.03416 -1.81969,6.89732 -2.72837,8.58434c-0.91102,1.68495 -2.30573,5.21858 -3.1017,7.8486c-0.79597,2.63209 -1.89483,5.3906 -2.44426,6.13256c-0.94389,1.27459 -3.86949,8.15326 -7.68497,18.06401c-0.94154,2.44971 -2.49357,5.49423 -3.44685,6.76468c-0.95328,1.27252 -2.49826,4.03725 -3.43511,6.145c-0.9345,2.10774 -2.50061,4.67144 -3.47972,5.69733c-0.97911,1.02797 -1.77978,2.08495 -1.77978,2.35023c0,0.26321 -0.96502,1.55231 -2.14606,2.86421c-1.17869,1.30983 -2.90681,3.80306 -3.83662,5.53982c-0.93215,1.73676 -2.12963,3.4756 -2.66027,3.86731c-0.53299,0.38963 -3.23553,3.72845 -6.00146,7.41959c-2.76828,3.69114 -5.30176,6.71079 -5.63048,6.71079c-0.32637,0 -1.50506,1.2663 -2.61801,2.81447c-2.23059,3.10462 -8.41989,8.64859 -15.21968,13.63091c-2.43017,1.78236 -5.81363,4.39787 -7.52061,5.8134c-1.70464,1.4176 -4.67015,3.4528 -6.58846,4.52637c-1.91831,1.07356 -4.00332,2.36059 -4.63493,2.86214c-0.63161,0.49948 -2.55461,1.3948 -4.27569,1.98961c-1.71873,0.59481 -4.35083,1.75542 -5.85119,2.58028c-1.49802,0.82279 -5.25011,2.26318 -8.33537,3.19996c-3.08526,0.9347 -6.74108,2.13261 -8.1217,2.65696c-8.8261,3.35954 -33.37434,5.4134 -46.19907,3.86523c-4.53867,-0.54714 -10.91111,-1.29739 -14.15838,-1.66837c-3.24727,-0.37098 -7.46661,-1.18755 -9.37787,-1.81759c-1.90892,-0.62797 -5.97329,-1.95438 -9.03037,-2.94711c-3.05708,-0.99481 -7.43374,-2.74193 -9.72538,-3.88803c-5.92163,-2.9554 -7.87281,-3.90876 -11.81039,-5.76573c-3.8507,-1.81759 -10.97686,-6.26935 -13.3272,-8.32528c-0.83588,-0.7316 -2.74715,-2.0435 -4.24986,-2.91602c-4.99183,-2.90152 -9.45066,-6.431 -15.76676,-12.48274c-3.43746,-3.29322 -6.95475,-6.63618 -7.81411,-7.42788c-0.85936,-0.7917 -1.56376,-1.7036 -1.56376,-2.02899c0,-0.32331 -0.81475,-1.25801 -1.81265,-2.07458c-0.9979,-0.81864 -2.87159,-2.86628 -4.16299,-4.55331c-2.76359,-3.6041 -5.88172,-7.25586 -8.34476,-9.77397c-0.96972,-0.99066 -2.39965,-2.92224 -3.17918,-4.29217c-0.77953,-1.36993 -1.815,-2.90359 -2.30338,-3.40928c-0.80536,-0.83729 -5.67509,-8.37502 -9.90382,-15.3283c-0.92511,-1.51708 -2.12963,-3.2041 -2.67906,-3.74917c-0.55178,-0.54507 -1.60837,-2.86421 -2.35269,-5.15641c-0.74197,-2.2922 -1.97701,-4.75641 -2.7448,-5.47765c-0.76779,-0.72123 -2.03101,-2.93882 -2.80585,-4.92843c-0.77484,-1.98961 -1.87839,-4.24865 -2.4513,-5.0217c-1.79856,-2.42277 -6.68238,-14.90343 -8.83549,-22.5738c-1.13408,-4.04762 -3.11344,-10.39365 -4.39544,-14.10344c-1.282,-3.7098 -3.12518,-9.03615 -4.09255,-11.83611c-3.19327,-9.22682 -0.70909,-12.09725 17.34226,-20.03704c4.34143,-1.90878 11.95832,-6.08697 13.85315,-7.59783c0.78658,-0.6259 2.99369,-1.91293 4.9026,-2.85592c1.91126,-0.94507 4.10429,-2.21137 4.87208,-2.81447c0.77014,-0.60103 2.5147,-1.50672 3.87653,-2.00826c1.36183,-0.50155 2.88098,-1.34299 3.37171,-1.86526c0.49308,-0.52435 3.22614,-2.1264 6.0719,-3.56265c2.84576,-1.43418 7.41965,-3.77612 10.1621,-5.20408c2.7448,-1.42589 7.07684,-3.5585 9.62676,-4.73569c2.55227,-1.17719 4.83921,-2.42898 5.08575,-2.78131c0.24654,-0.35233 2.06858,-1.36371 4.04559,-2.2466c1.97936,-0.88289 4.38135,-2.13054 5.33463,-2.77095c2.56166,-1.72018 9.07029,-5.39682 11.46289,-6.4766c1.14582,-0.51606 5.83476,-3.07353 10.42038,-5.68075c4.58563,-2.60722 8.99046,-4.92014 9.78877,-5.13983c0.80066,-0.21969 3.12283,-1.49635 5.16323,-2.83934c2.03806,-1.34299 4.07376,-2.44349 4.51988,-2.44349c0.44612,0 2.06623,-0.79999 3.59712,-1.78029c1.53089,-0.97823 4.54806,-2.51603 6.70351,-3.4155c2.15546,-0.90154 3.9188,-1.86941 3.9188,-2.15127c0,-0.28186 1.48393,-1.13366 3.29893,-1.89013c1.815,-0.75647 3.78496,-1.73884 4.37665,-2.18443c1.2867,-0.96579 8.86132,-4.81444 15.59535,-7.92529c2.67436,-1.23522 5.49195,-2.75437 6.26209,-3.37612c0.76779,-0.62175 2.95612,-1.73469 4.86269,-2.47458c1.90422,-0.73781 4.22169,-1.86319 5.1468,-2.49945c0.92511,-0.63626 2.9843,-1.6663 4.57623,-2.28805c1.59194,-0.61968 4.54336,-2.13054 6.55794,-3.35332c2.01458,-1.22278 3.99863,-2.22381 4.40953,-2.22381c0.4109,0 1.42288,-0.56165 2.25172,-1.24972c0.82884,-0.686 6.17052,-3.27457 11.87144,-5.75122c5.70327,-2.47665 10.8078,-4.96988 11.34549,-5.53982c0.53769,-0.57201 2.87159,-1.86733 5.19141,-2.88079c7.96908,-3.48182 11.39949,-5.15019 12.66976,-6.16572c0.6997,-0.55751 3.30362,-1.81967 5.78545,-2.80411c2.48417,-0.98237 4.93548,-2.23624 5.45203,-2.78338c0.51656,-0.54922 2.64149,-1.68702 4.72416,-2.52846c2.08267,-0.84144 4.63024,-2.04142 5.66101,-2.66525c1.03312,-0.6259 3.31536,-1.60827 5.07636,-2.18443c1.76099,-0.57616 4.86504,-2.14298 6.8984,-3.48182c2.03336,-1.33884 4.07376,-2.4352 4.52927,-2.4352c0.45786,0 1.24209,-0.43523 1.74221,-0.96786c0.50012,-0.53264 2.49122,-1.67044 4.42596,-2.53261c1.93474,-0.86009 4.65841,-2.42484 6.05547,-3.47767c1.39471,-1.05076 3.56895,-2.46422 4.82982,-3.13986c7.49479,-4.00617 3.42102,-11.22472 -5.35342,-9.49003c-3.78966,0.75025 -14.93322,5.66417 -17.37748,7.66415c-0.99555,0.8145 -2.46539,1.66423 -3.26606,1.88806c-0.80066,0.22383 -3.64878,1.61241 -6.33018,3.08597c-2.68141,1.47356 -5.12566,2.67769 -5.42855,2.67769c-0.30524,0 -1.72108,0.67978 -3.14396,1.50879c-1.42523,0.83108 -3.92349,1.92329 -5.55535,2.42898c-1.62951,0.50569 -3.9728,1.59169 -5.21019,2.41448c-1.23504,0.82071 -6.54385,3.34089 -11.79631,5.59993c-5.2548,2.25904 -9.72538,4.35642 -9.93904,4.65901c-0.21367,0.30466 -2.43721,1.42589 -4.94017,2.49323c-2.50531,1.06527 -5.37925,2.54712 -6.38653,3.29115c-1.00729,0.74403 -3.08291,1.91707 -4.61145,2.60515c-15.14219,6.82685 -33.29451,15.56456 -34.73383,16.7231c-0.7631,0.61346 -3.57834,2.11396 -6.2527,3.33467c-2.67436,1.21864 -6.73873,3.30358 -9.03037,4.63206c-2.29164,1.32848 -6.25505,3.37819 -8.80497,4.55331c-2.54992,1.17511 -4.8486,2.43935 -5.10923,2.81033c-0.25828,0.37098 -3.42572,1.91707 -7.03928,3.4383c-3.61121,1.51915 -9.04211,4.25901 -12.06398,6.08697c-3.02421,1.82588 -5.80658,3.32224 -6.18696,3.32224c-0.38037,0 -1.71638,0.7917 -2.97256,1.75956c-1.25383,0.96786 -4.15829,2.64453 -6.44993,3.7243c-7.77185,3.6642 -11.93718,5.85692 -13.08535,6.88281c-0.62926,0.56372 -4.97539,2.85592 -9.65963,5.09423c-4.68189,2.23831 -9.49058,4.67559 -10.68571,5.41547c-3.11578,1.92951 -8.20153,4.73569 -12.43261,6.86209c-2.01223,1.01139 -4.24047,2.27976 -4.94956,2.81862c-0.70675,0.53678 -2.71193,1.57096 -4.45179,2.29634c-1.74221,0.72538 -3.80844,1.84454 -4.59267,2.49116c-0.78423,0.64455 -2.64619,1.72018 -4.13716,2.39168c-3.57599,1.61034 -13.92124,7.22478 -16.09782,8.73564c-0.94389,0.65699 -2.00284,1.19377 -2.35034,1.19377c-0.34515,0 -2.25877,1.07771 -4.24752,2.39375c-1.98875,1.31604 -4.71007,2.79996 -6.04842,3.29529c-1.33601,0.4974 -3.36937,1.62899 -4.51519,2.51603c-1.14582,0.88704 -2.70958,1.79065 -3.47268,2.00619c-0.76544,0.21554 -3.30597,1.45905 -5.64927,2.76266c-4.25691,2.37303 -4.91434,2.44971 -8.38233,0.98859c-3.07352,-1.29739 -5.22193,-27.39861 -2.72837,-33.16019c2.21416,-5.11496 9.79582,-6.10147 13.8461,-1.80101c3.26371,3.46524 4.65137,4.44347 6.29731,4.44347c0.94154,0 2.18598,0.16166 2.76593,0.35647c2.51,0.84973 7.47131,-4.55538 7.31634,-7.97088c-0.3522,-7.66 2.40904,-10.16774 11.19287,-10.16774c14.12786,0 22.66985,-4.68595 26.112,-14.32313c2.07562,-5.81132 13.89071,-9.58744 21.36672,-6.831c6.53915,2.4124 11.214,1.00724 13.85784,-4.15953c1.02607,-2.00619 1.36888,-2.23417 2.52879,-1.68702c5.78075,2.73157 13.23562,-1.80516 13.24267,-8.05793c0.00704,-7.55223 -12.78951,-7.46726 -16.20114,0.10777c-1.90187,4.22378 -2.88568,4.39372 -9.04916,1.55853c-6.26444,-2.88286 -15.30655,-3.13157 -23.09718,-0.63833c-5.50369,1.76371 -6.92188,1.88599 -7.46191,0.64455c-0.21132,-0.48704 -1.41819,-1.34713 -2.67906,-1.90878c-1.26087,-0.56165 -3.07587,-1.65386 -4.02915,-2.42691c-4.40483,-3.56472 -24.31344,-3.84036 -24.31344,-0.33575c0,0.29637 -1.39705,1.26009 -3.10404,2.14298c-6.34192,3.28079 -9.24874,10.04339 -8.34006,19.40286c0.85467,8.79367 -2.16015,11.43819 -13.05952,11.46306c-6.98292,0.01658 -7.03223,-0.01658 -7.78829,-5.38646c-0.71614,-5.059 0.8171,-21.25775 2.38086,-25.19553c0.72083,-1.81759 1.83378,-7.16882 2.47009,-11.89c0.70675,-5.24138 1.91126,-10.61333 3.0923,-13.79671c1.06599,-2.86628 2.31277,-6.72945 2.77298,-8.58434c0.88284,-3.55021 4.0902,-13.92313 6.06956,-19.62047c0.64335,-1.8549 1.8737,-4.47663 2.73541,-5.82583c0.85936,-1.34921 2.25407,-4.10772 3.1017,-6.13049c0.84528,-2.02484 2.27286,-4.46005 3.17214,-5.4134c0.89693,-0.95336 1.6342,-1.97718 1.6342,-2.27562c0,-1.10879 8.68287,-8.69211 11.30323,-9.87137c5.64222,-2.5409 16.87736,-2.058 21.14366,0.90983c1.04251,0.72745 3.35528,2.14919 5.13975,3.16058c1.78212,1.01139 5.85589,3.38027 9.0515,5.26418c6.0719,3.57923 11.06843,5.24345 16.92667,5.63723c4.7899,0.32124 7.6521,2.17406 12.00528,7.77192c5.24541,6.74603 9.02568,9.85479 12.47957,10.26308c11.12478,1.31812 14.69607,-9.0403 4.92608,-14.27961c-2.60392,-1.3948 -4.79225,-3.15644 -5.90989,-4.75849c-1.61777,-2.31085 -3.62999,-5.07144 -8.44807,-11.58741c-3.84366,-5.19579 -10.07523,-6.07246 -15.61179,-2.19686c-2.96082,2.07044 -2.75889,2.10982 -8.47625,-1.64143c-2.29164,-1.50464 -5.67275,-3.49633 -7.51592,-4.42896c-1.84082,-0.93263 -5.15384,-2.70877 -7.36095,-3.94813c-8.19449,-4.60719 -26.15896,-5.58956 -34.4098,-1.87977c-6.26444,2.81447 -17.05346,11.13146 -17.05346,13.14387c0,0.34818 -1.40645,2.62587 -3.12518,5.06107c-1.72108,2.4352 -3.12752,4.6445 -3.12752,4.91185c0,0.26735 -0.9345,2.11189 -2.07797,4.09736c-1.14347,1.98754 -2.59218,5.46936 -3.22144,7.74083c-0.62691,2.27147 -1.70699,4.96781 -2.40199,5.99163c-0.69266,1.02589 -1.89013,4.36264 -2.66027,7.41752c-0.77249,3.05488 -2.21181,6.93255 -3.20266,8.6175c-1.01198,1.72018 -2.1038,4.98646 -2.48887,7.45068c-0.38037,2.4124 -1.46045,6.65484 -2.39965,9.42993c-1.2327,3.63519 -2.30103,10.02059 -3.82018,22.84322c-2.80585,23.68466 -3.27075,25.93956 -5.67509,27.51259l-1.89952,1.24143l-2.66027,-2.4124c-6.12591,-5.55433 -10.71153,-7.31804 -18.89663,-7.26415l-6.6002,0.04145l-6.94536,3.30151c-10.30768,4.89942 -14.87687,8.46207 -25.19159,19.63912c-3.68869,3.99995 -11.95362,10.7439 -14.06916,11.48172c-0.28176,0.09948 -0.70675,-0.26528 -0.94389,-0.81035c-0.55178,-1.27252 0.70205,-3.35332 2.02162,-3.35332c0.62222,0 1.01668,-0.59688 1.01668,-1.53366c0,-0.84351 0.2888,-1.53366 0.641,-1.53366c0.3522,0 1.01668,-1.03418 1.47219,-2.29842c0.45786,-1.26423 1.53324,-2.98856 2.38791,-3.83207c0.85702,-0.84351 2.02632,-2.36059 2.59923,-3.37198c3.05943,-5.3906 7.91273,-13.00916 8.87071,-13.92313c0.60109,-0.57616 1.5168,-2.09324 2.03336,-3.37198c0.51656,-1.28081 3.22849,-6.42271 6.02964,-11.42783c2.7988,-5.00719 5.30176,-9.69728 5.56004,-10.42473c0.25593,-0.72745 1.35244,-2.46422 2.43487,-3.85902c1.08242,-1.3948 2.61566,-3.98751 3.40928,-5.76158c0.79127,-1.77407 2.03571,-3.89425 2.76359,-4.71289c0.73023,-0.81657 1.83613,-3.05281 2.46069,-4.96781c0.62457,-1.915 2.19068,-5.27454 3.48207,-7.46726c2.44661,-4.15539 6.87961,-13.82573 8.9975,-19.62254c0.67857,-1.8549 1.79152,-4.35435 2.47478,-5.55433c0.68092,-1.19998 1.74456,-3.96057 2.36443,-6.13256c0.61752,-2.17199 1.8643,-5.18957 2.77063,-6.70665c0.90398,-1.51915 2.18363,-4.41445 2.83872,-6.43929c0.65509,-2.02277 1.94179,-4.99475 2.8575,-6.60302c0.91806,-1.60827 2.28694,-5.58749 3.04769,-8.84341c0.7584,-3.25592 1.83848,-6.73359 2.39965,-7.72632c1.93005,-3.41343 6.00381,-20.48471 8.07944,-33.85241c3.6206,-23.31783 0.61752,-48.78485 -6.92657,-58.74949c-4.51519,-5.96469 -5.51543,-7.11701 -8.76035,-10.11593c-1.89483,-1.7492 -3.72861,-3.18131 -4.07611,-3.18131c-0.34985,0 -1.74691,-0.86216 -3.10639,-1.91707c-1.35949,-1.05284 -3.59008,-2.31292 -4.95426,-2.79996c-1.36418,-0.48704 -4.82512,-1.90049 -7.69202,-3.14193l-5.21019,-2.25697l-15.34882,0c-10.47673,-0.00207 -15.6611,0.22176 -16.32558,0.69844c-0.53534,0.38549 -4.56919,1.71604 -8.96463,2.95747c-7.92682,2.23831 -19.64564,6.64447 -24.31344,9.13978c-1.33601,0.71502 -3.93993,1.91915 -5.7878,2.67769c-1.84552,0.75854 -4.19116,1.94402 -5.21019,2.63623c-1.01903,0.69015 -4.70772,2.8725 -8.19684,4.84968c-3.48677,1.97718 -6.55559,3.89839 -6.81622,4.26937c-0.25828,0.37098 -2.24938,1.76371 -4.42361,3.09633c-2.17189,1.33055 -5.98268,4.13466 -8.46685,6.23204c-2.48183,2.09531 -6.23392,5.06315 -8.33537,6.59059c-5.04348,3.67249 -21.85745,18.57592 -25.33717,22.45981c-1.51211,1.68702 -3.90706,4.16989 -5.32759,5.5191c-3.80844,3.62068 -9.62676,10.18432 -9.62676,10.86411c0,0.32538 -1.48393,1.91293 -3.29893,3.52949c-1.815,1.61656 -4.16299,4.00617 -5.21958,5.30978c-2.03806,2.51603 -8.33302,9.83821 -9.5258,11.08172c-0.39211,0.40828 -0.71144,0.92227 -0.71144,1.14195c0,0.22176 -0.80301,1.26838 -1.78447,2.32536c-2.08736,2.24868 -4.39544,5.15019 -7.0698,8.89315c-1.0519,1.47148 -2.8669,3.67871 -4.0315,4.90356c-3.21205,3.37819 -7.25529,8.5802 -7.98317,10.26722c-0.35455,0.82693 -1.96057,3.22068 -3.5666,5.31807c-1.60368,2.09738 -3.47737,4.55331 -4.16299,5.459c-0.68327,0.90362 -2.34564,3.64348 -3.69339,6.08697c-1.34775,2.44349 -2.89272,4.87662 -3.43511,5.40718c-0.54004,0.53056 -1.66473,2.57406 -2.49826,4.5388c-0.83119,1.96681 -2.38086,4.45176 -3.44215,5.5191c-1.97231,1.98754 -4.75703,6.96157 -8.46451,15.12519c-1.15052,2.53054 -2.36912,4.89735 -2.70958,5.26211c-0.34046,0.36269 -1.41349,2.5181 -2.38086,4.78957c-0.96972,2.27147 -2.51,5.43413 -3.42572,7.02996c-0.91572,1.59376 -2.19537,4.50979 -2.84342,6.47453c-0.64805,1.96681 -1.76334,4.45383 -2.47948,5.52532c-0.71614,1.07149 -1.89952,4.05383 -2.6274,6.62582c-0.72788,2.57199 -2.11319,6.145 -3.07587,7.93772c-2.81759,5.2476 -6.68238,16.56144 -8.19214,23.98311c-0.77014,3.78026 -1.99579,8.66724 -2.72367,10.85789c-3.11578,9.36361 -4.8533,27.37995 -4.8533,50.30401c0,13.88583 2.28225,32.21512 4.5011,36.1529c0.47664,0.84351 1.66707,4.02896 2.64619,7.07763c1.70934,5.31807 4.05733,9.22268 8.82845,14.68996c1.17869,1.34921 3.59477,4.21756 5.3722,6.37297c2.99604,3.63519 12.28938,10.78742 16.73178,12.87859c1.00024,0.47046 2.29164,1.27459 2.87159,1.78651c0.57995,0.50984 2.77767,1.58962 4.88382,2.3979c2.1085,0.80828 5.70797,2.26526 8.00195,3.23519c16.37958,6.94084 65.39859,6.77297 83.6143,-0.28393c2.15311,-0.83315 6.04138,-1.9378 8.64061,-2.45385c2.59923,-0.51398 6.06956,-1.59998 7.71315,-2.40826c1.64359,-0.81035 4.67485,-1.78236 6.73639,-2.15956c2.06154,-0.37927 5.46612,-1.40309 7.56757,-2.27769c3.35997,-1.39687 7.91273,-2.89115 21.18827,-6.9512c6.46871,-1.97718 9.14777,-1.98961 10.05879,-0.04767c1.07303,2.28598 -0.27237,24.2774 -1.74456,28.54056c-2.2799,6.60095 -3.13692,56.07595 -1.10121,63.46446c0.32637,1.17926 1.09651,3.66213 1.71169,5.51703c0.61517,1.8549 1.58255,6.13256 2.15076,9.50454c1.04955,6.24033 2.02866,9.45273 3.54781,11.64959c0.46725,0.67564 1.38531,2.74401 2.0404,4.5989c2.08502,5.8963 12.40209,23.43804 15.98512,27.17892c1.14582,1.19584 3.33415,3.61239 4.86269,5.36988c1.52854,1.75749 3.14631,3.50047 3.59243,3.87145c0.44847,0.37305 3.46329,2.88494 6.69882,5.58335c10.92755,9.10662 16.99006,12.2216 28.90846,14.85369c13.94706,3.08183 31.70492,1.57925 40.66955,-3.4383c1.87839,-1.05076 3.82722,-1.91293 4.32969,-1.91293c2.46069,0 18.80975,-14.86405 21.80814,-19.82565c1.25148,-2.07666 2.84342,-4.31082 3.53607,-4.96574c0.69266,-0.65491 1.25852,-1.51501 1.25852,-1.91086c0,-0.39378 0.94154,-2.34194 2.09206,-4.32948c1.15052,-1.98547 3.01482,-6.79369 4.13951,-10.68173c1.12704,-3.88803 2.54053,-8.11181 3.14161,-9.38433c0.60343,-1.27045 1.56376,-5.95433 2.13902,-10.40401c0.57291,-4.45176 1.31957,-9.61024 1.66003,-11.46514c0.90867,-4.94709 0.83119,-18.2381 -0.15262,-26.67323c-1.73282,-14.83918 -0.55178,-24.1344 2.50296,-19.6785c0.44142,0.64041 2.12963,2.51396 3.75444,4.15953c1.62246,1.64557 2.95142,3.26628 2.95142,3.6041c0,0.33782 2.60392,3.01965 5.7831,5.95847c3.18153,2.93882 6.28792,6.00199 6.90309,6.80406c1.8737,2.44764 13.29902,12.4558 17.93161,15.70964c2.40199,1.68495 5.48256,3.91497 6.84674,4.95538c4.06672,3.10048 9.94609,6.74188 13.2638,8.21544c1.70934,0.75854 3.6253,1.78029 4.25691,2.27147c0.63161,0.48911 3.40224,1.66215 6.15408,2.60722c2.75419,0.94714 5.61405,2.17821 6.35601,2.73986c0.74197,0.56165 2.94203,1.57511 4.88617,2.25075c1.94648,0.67771 4.82747,1.89842 6.40532,2.71499c1.57785,0.8145 4.89321,1.89842 7.36799,2.40619c2.47478,0.50984 6.73404,1.61449 9.46475,2.46007c12.91864,3.99166 53.56706,3.62068 62.75475,-0.57201c1.20452,-0.54922 4.5598,-1.40102 7.45722,-1.88806c2.89507,-0.48911 6.85848,-1.68288 8.80731,-2.65074c1.94883,-0.96579 4.7946,-2.10982 6.32314,-2.53675c1.52854,-0.42901 3.71687,-1.39895 4.86269,-2.15748c1.14582,-0.75854 4.11603,-2.2321 6.6002,-3.27664c17.75316,-7.46311 48.46722,-34.67105 59.00031,-52.26667c1.13878,-1.90049 2.52409,-3.85694 3.08056,-4.34813c1.89718,-1.67459 18.51625,-30.24002 20.20681,-34.73115c0.63631,-1.69324 1.76334,-3.75539 2.50061,-4.5844c0.73962,-0.83108 2.00049,-3.95021 2.8035,-6.93462c0.80066,-2.98234 2.18128,-6.9968 3.06648,-8.92009c0.88284,-1.92122 1.82439,-4.40409 2.09206,-5.51703c0.26532,-1.11294 1.52619,-5.4735 2.7988,-9.68899c1.27261,-4.21549 3.12987,-11.89207 4.12777,-17.05677c0.9979,-5.16677 2.10145,-10.05583 2.44895,-10.86618c1.15286,-2.67354 2.70489,-12.12419 3.16744,-19.29094c0.25124,-3.87767 1.03077,-8.98227 1.73282,-11.34286c1.87839,-6.3336 3.01952,-24.12404 2.47478,-38.63162c-0.25124,-6.74395 -0.62691,-18.0578 -0.83588,-25.13957c-0.27237,-9.3118 -0.73962,-14.31898 -1.68351,-18.08681c-0.72553,-2.89115 -1.48863,-9.03615 -1.71169,-13.79671c-0.41794,-8.82476 -1.47923,-16.01015 -3.39754,-22.99452c-0.60109,-2.19272 -1.74691,-7.02167 -2.54522,-10.72939c-0.80066,-3.7098 -2.50531,-10.60919 -3.79201,-15.33037c-1.2867,-4.72118 -2.55227,-9.78226 -2.81289,-11.24545c-0.26063,-1.46319 -1.34305,-4.35849 -2.40434,-6.43722c-1.06129,-2.07873 -2.31042,-5.78645 -2.77298,-8.24238c-0.4649,-2.45593 -1.58724,-5.69733 -2.49591,-7.20612c-0.90632,-1.50672 -2.1625,-4.3274 -2.78941,-6.2652c-0.62457,-1.93987 -2.00284,-4.90564 -3.06178,-6.59059c-1.05894,-1.68702 -2.30103,-4.16989 -2.76124,-5.5191c-0.46021,-1.34921 -1.71403,-4.10772 -2.78941,-6.13256c-1.9277,-3.63104 -3.68869,-7.2455 -7.91977,-16.263c-1.19043,-2.53883 -2.88098,-5.49423 -3.75679,-6.56779c-0.8758,-1.07563 -2.18598,-3.47975 -2.91386,-5.34708c-0.72553,-1.86526 -2.08971,-4.2901 -3.02891,-5.38853c-0.9392,-1.09843 -2.21181,-2.96162 -2.82933,-4.14295c-0.61752,-1.17926 -1.82204,-3.05903 -2.67436,-4.17404c-3.53138,-4.61756 -6.40297,-8.58849 -8.50677,-11.76772c-4.14186,-6.26106 -7.32104,-10.71696 -8.53025,-11.95425c-0.66213,-0.67564 -1.89952,-2.27562 -2.75185,-3.55436c-0.85232,-1.27874 -3.34823,-4.27352 -5.5483,-6.65484c-2.20007,-2.38132 -4.4964,-4.99268 -5.10453,-5.80303c-0.60813,-0.81035 -2.32686,-2.52017 -3.82018,-3.79891c-1.49332,-1.28081 -3.9681,-3.66213 -5.4943,-5.29527c-1.52854,-1.63107 -4.40013,-4.59683 -6.37949,-6.59059c-1.97936,-1.99376 -3.80844,-4.50564 -4.06202,-5.58542c-0.78892,-3.34296 -3.94228,-9.23097 -5.98738,-11.17498c-1.07068,-1.01968 -2.54992,-3.39892 -3.28719,-5.28905c-0.73492,-1.88806 -2.10615,-4.50357 -3.04534,-5.81132c-0.93685,-1.30568 -2.54287,-3.68493 -3.56895,-5.28698c-1.02372,-1.60205 -2.08502,-2.92017 -2.35503,-2.92846c-0.27002,-0.00829 -1.70229,-0.26114 -3.18153,-0.5658c-3.46798,-0.7088 -5.34403,0.79792 -7.09563,5.70562l-1.23504,3.45902l-3.07117,0c-2.1625,0 -4.44005,-0.63212 -7.68967,-2.13676c-4.41187,-2.0435 -14.30396,-5.27662 -23.4893,-7.67451c-3.90001,-1.01968 -8.71105,-1.4404 -23.84854,-2.08495c-2.8669,-0.12228 -8.65,0.00829 -12.8529,0.29015m113.33047,1.19998c-5.73614,1.51708 -7.08154,7.39058 -4.48936,19.60389c1.46045,6.88488 7.34217,9.22682 12.12033,4.82481c4.39074,-4.04554 2.8622,-20.17383 -2.23764,-23.61005c-2.33625,-1.57511 -2.46304,-1.59376 -5.39333,-0.81864m-314.55797,54.57545c12.53827,1.92536 20.94643,6.14085 24.10212,12.0786c0.67622,1.27045 2.06858,3.16265 3.0923,4.20513c1.20922,1.229 2.18598,3.27664 2.77767,5.82583c0.50247,2.16163 1.72812,6.13671 2.72132,8.83512c2.31512,6.28593 2.66262,23.29296 0.62691,30.65867c-0.65509,2.36059 -1.6929,7.05069 -2.30807,10.42266c-1.69055,9.27035 -2.456,12.00399 -4.2076,15.02364c-0.8805,1.51708 -2.1038,5.17506 -2.72132,8.12839c-0.61752,2.95126 -2.20007,8.29419 -3.51259,11.87342c-1.31487,3.57716 -2.38791,6.88074 -2.38791,7.34084c0,1.49428 -5.57883,15.77389 -7.76246,19.87124c-1.1693,2.19272 -2.70723,5.82169 -3.41867,8.06622c-0.70909,2.24246 -1.90187,5.00304 -2.64619,6.13049c-0.74431,1.12952 -2.00518,3.77819 -2.8035,5.88801c-0.79597,2.10982 -2.38321,5.17506 -3.52433,6.81235c-1.14112,1.63728 -2.07562,3.34918 -2.07562,3.80306c0,0.45388 -2.1672,4.70046 -4.81808,9.43615c-2.65088,4.73569 -5.65631,10.67965 -6.67769,13.21019c-1.02138,2.52846 -2.27051,5.01341 -2.77298,5.5191c-0.50482,0.50569 -1.89718,2.71292 -3.097,4.90564c-1.19748,2.19064 -3.48677,6.10976 -5.0834,8.70662c-1.59898,2.59893 -4.22638,6.92426 -5.83945,9.61231c-1.61307,2.68805 -3.23318,5.05071 -3.60182,5.25174c-0.36629,0.20103 -2.70019,3.74503 -5.18202,7.87762c-2.48417,4.13259 -5.20315,8.19678 -6.04373,9.03201c-0.84058,0.83729 -2.12024,2.67976 -2.84342,4.09943c-0.72318,1.4176 -1.71169,2.93468 -2.19772,3.37198c-0.48603,0.4373 -1.88544,2.08702 -3.11109,3.66835l-2.22824,2.87457l-3.21205,-0.96579c-12.11094,-3.64348 -16.4195,-40.39947 -7.74837,-66.10069c3.08526,-9.15221 3.30597,-10.99053 1.62246,-13.59982c-2.35503,-3.65384 -8.7627,-2.68805 -11.30558,1.7036c-2.84576,4.91185 -5.09279,10.79571 -5.97564,15.64125c-0.55882,3.05488 -1.67647,6.69836 -2.48417,8.0973c-3.74035,6.47453 -3.21675,32.70009 0.79362,39.69896c0.56821,0.99273 1.54028,3.81964 2.16015,6.28386c0.63396,2.52225 2.19537,6.08904 3.56895,8.15741c1.34305,2.02277 2.44191,3.89218 2.44191,4.15124c0,0.26114 0.8124,1.14195 1.8056,1.9606c0.9932,0.81657 2.55227,2.78131 3.46563,4.36471l1.66003,2.87872l-1.31018,2.64038c-1.43462,2.88701 -7.96673,8.76051 -11.96771,10.75841l-2.52409,1.26009l-0.74901,-1.45076c-0.41325,-0.79999 -1.22565,-3.04866 -1.8056,-4.99683c-0.5823,-1.95023 -1.84317,-4.90149 -2.8035,-6.56157c-0.96268,-1.65801 -1.74691,-3.40514 -1.74691,-3.88181c0,-3.96264 -12.11798,-26.58204 -16.92197,-31.58922c-10.23489,-10.66722 -23.76636,-9.81956 -30.03785,1.88184c-1.02372,1.90878 -2.58749,4.44139 -3.47268,5.62894c-1.03312,1.38237 -1.9817,4.14088 -2.63914,7.67658c-0.56352,3.03623 -1.4041,6.45173 -1.8643,7.59161c-1.04251,2.58028 -0.4696,13.07962 0.99555,18.22774c0.56587,1.98754 1.23504,5.02791 1.48628,6.75846c0.641,4.37714 8.7087,15.13141 14.73129,19.63083c5.77841,4.31704 7.89394,4.77714 22.09224,4.79786c6.49454,0.01036 12.19781,0.24041 12.67445,0.51191c1.41584,0.81035 5.7831,9.58744 7.20833,14.48893c0.72788,2.50774 2.25407,5.83827 3.3905,7.40301c1.13643,1.56267 2.41608,3.7243 2.84107,4.79994c3.16509,8.0144 22.33878,7.83409 22.33878,-0.2114c0,-1.55646 -5.88876,-7.63513 -7.41261,-7.65171c-2.9256,-0.03316 -4.70537,-7.50042 -2.00753,-8.4144c0.7044,-0.23834 1.30079,-0.06218 1.49097,0.44145c0.17375,0.4601 1.9911,2.30463 4.0362,4.09528c2.0451,1.79065 3.71922,3.50669 3.71922,3.80928c0,0.30466 1.00259,0.86216 2.22824,1.23936c1.22565,0.3772 2.89038,1.23522 3.70278,1.90878c0.81006,0.67357 3.10639,1.73055 5.10218,2.35023c5.00357,1.55646 5.29942,1.915 4.15829,5.04449c-1.20922,3.31602 -7.5981,7.80715 -13.69348,9.62267c-2.31747,0.69222 -4.90495,1.82588 -5.74788,2.5181c-0.84528,0.69429 -2.65558,1.57304 -4.0268,1.95645c-1.36888,0.38134 -4.19116,1.5233 -6.27148,2.53883c-2.08032,1.01346 -5.98738,2.38132 -8.68287,3.0383c-2.69784,0.65491 -5.55065,1.56267 -6.34192,2.01655c-0.79362,0.45388 -2.82463,1.17304 -4.51753,1.60205c-1.69055,0.42694 -3.38815,0.95543 -3.76853,1.17304c-0.38272,0.21761 -2.10145,0.75439 -3.82253,1.19377c-1.71873,0.43937 -4.53162,1.17511 -6.25035,1.63314c-1.72108,0.45803 -6.87726,1.52951 -11.46289,2.38132c-4.58563,0.8518 -9.74181,1.94194 -11.46289,2.42277c-7.50653,2.10567 -11.60847,2.48909 -26.39611,2.47251c-15.99921,-0.01865 -14.70077,0.15751 -29.17613,-3.97922c-15.0154,-4.29424 -27.36114,-11.97705 -32.97518,-20.52201c-1.1059,-1.68081 -2.51235,-3.53363 -3.12752,-4.11601c-0.61283,-0.58238 -1.69995,-2.5181 -2.41139,-4.30046c-0.71144,-1.78443 -1.9911,-4.48492 -2.84107,-6.00199c-0.84997,-1.51708 -1.75865,-4.00202 -2.01927,-5.5191c-0.25828,-1.51708 -1.46984,-5.79474 -2.68845,-9.50454l-2.2165,-6.74395l0,-19.9272c0,-16.85367 0.17845,-20.44947 1.15756,-23.30125c1.18574,-3.44659 2.0404,-7.77399 3.71687,-18.81012c0.52125,-3.43208 1.58724,-7.57089 2.37147,-9.19781c0.78188,-1.62692 2.02397,-5.6248 2.75889,-8.88486c0.73492,-3.26006 1.82674,-6.84758 2.42547,-7.97088c0.59874,-1.1233 1.98875,-5.0818 3.08761,-8.79781c1.10121,-3.71394 2.63445,-7.85275 3.40928,-9.19781c0.77484,-1.34299 2.20476,-4.65072 3.17448,-7.34913c2.14137,-5.95433 6.85378,-16.19668 8.68991,-18.88473c0.73492,-1.07978 1.8643,-3.39477 2.51,-5.14605c0.64335,-1.75127 1.73282,-3.82171 2.42078,-4.5989c0.69031,-0.77926 3.03126,-4.58854 5.20315,-8.46621c2.17189,-3.87767 4.60911,-8.15533 5.41447,-9.50454c0.80536,-1.34921 2.49122,-4.19891 3.74505,-6.3336c1.25618,-2.13676 4.33204,-6.57401 6.83735,-9.86308c2.50531,-3.29115 4.5551,-6.19681 4.5551,-6.46002c0,-0.26321 1.05425,-1.75749 2.34095,-3.32016c1.28905,-1.56267 2.89507,-3.8072 3.56895,-4.98854c0.67387,-1.17926 2.20007,-3.13571 3.38815,-4.34398c1.19043,-1.20827 2.78941,-3.13986 3.55251,-4.2901c5.61639,-8.45378 10.35699,-14.48271 12.66271,-16.09927c0.88284,-0.61968 2.08502,-1.94194 2.66732,-2.93882c0.58465,-0.99481 2.53113,-3.26628 4.32735,-5.04657c5.80893,-5.75329 6.81152,-6.84136 8.15222,-8.84548c0.72553,-1.08392 1.53793,-1.97096 1.80795,-1.97096c0.26767,0 2.19068,-2.14505 4.271,-4.76885c3.30832,-4.16575 30.70937,-29.02138 34.8841,-31.64311c0.76544,-0.48082 2.85516,-2.11811 4.64433,-3.6414c1.78917,-1.5233 5.03879,-3.96264 7.22007,-5.42376c2.18363,-1.46112 5.71971,-3.82586 7.86107,-5.25796c2.14137,-1.43003 5.26654,-3.36161 6.94301,-4.29217c1.67647,-0.92849 3.93054,-2.32743 5.00826,-3.10462c2.53583,-1.82796 11.95832,-5.89008 19.03516,-8.203c3.05708,-0.99895 6.7176,-2.20515 8.13579,-2.67976c1.41819,-0.47461 5.94981,-1.43211 10.07288,-2.1264c4.12072,-0.69636 8.43163,-1.5005 9.57745,-1.78858c3.28484,-0.82693 5.45908,-0.73574 14.12082,0.59688m106.96976,208.69157c1.62716,1.43832 -4.20525,7.25586 -6.74108,6.72116c-2.75889,-0.5803 -2.85516,-0.70051 -2.85516,-3.59995c0,-4.1243 6.18226,-6.13463 9.59624,-3.1212m-81.96131,25.67842c7.02049,5.99992 9.04681,9.76982 10.5143,19.56037c1.64594,10.97188 3.35528,15.30343 7.37034,18.6754c3.14631,2.64038 4.46588,7.15224 4.46588,15.26405c0,4.5616 -6.90544,9.52112 -13.2004,9.4776c-1.19513,-0.00829 -3.46563,-1.44869 -7.29286,-4.62585c-3.05708,-2.53883 -7.57462,-6.04966 -10.04001,-7.80301c-5.49899,-3.91083 -9.39901,-7.39472 -14.5458,-12.99879c-9.53989,-10.38743 -11.52159,-11.02369 -17.32348,-5.56055c-2.14841,2.02277 -3.48442,2.72743 -5.79015,3.05281c-5.30646,0.75025 -11.97006,5.6849 -14.01516,10.38121c-0.17375,0.39999 -1.26557,-0.28393 -2.48417,-1.55231c-1.19748,-1.24351 -2.83402,-2.44556 -3.63704,-2.67147c-1.26791,-0.3544 -0.97676,-0.64455 2.18363,-2.16992c2.00753,-0.96786 4.99183,-2.73157 6.63307,-3.91912c1.64125,-1.18755 3.24492,-2.15956 3.56425,-2.15956c0.31933,0 2.60627,-2.06422 5.08105,-4.58854c2.47243,-2.52225 5.36281,-5.15226 6.42175,-5.84241c1.05894,-0.69015 1.923,-1.56267 1.923,-1.93573c0,-2.03728 16.05556,-17.28889 21.66021,-20.5759c6.77161,-3.97301 13.86958,-3.97508 18.51156,-0.00829m-147.63461,6.53256c2.59923,0.98444 3.30127,1.63107 4.31326,3.97301c0.66683,1.53988 1.96762,3.70151 2.89038,4.80408c0.92276,1.10258 2.17189,3.52327 2.77767,5.37817c0.60578,1.8549 1.83613,4.66315 2.73541,6.23826c0.89693,1.57718 1.96292,4.16989 2.36677,5.76158c0.40385,1.58962 1.53559,4.43932 2.51705,6.32945c4.97304,9.59987 4.60911,14.13868 -1.26322,15.67648c-9.20178,2.4124 -18.37772,-2.23624 -22.94222,-11.62472c-4.97304,-10.23199 -5.19376,-20.34378 -0.65509,-30.11567c1.58489,-3.41135 2.88098,-6.51598 2.88098,-6.89939c0,-0.96372 0.79362,-0.87667 4.379,0.47875m72.30872,36.13217c-1.85491,4.5844 0.53769,17.2661 3.25666,17.2661c2.09441,0 3.11578,9.75946 1.58255,15.15006c-0.40151,1.41138 -7.19659,2.25904 -7.19659,0.8974c0,-0.93263 -7.7695,-8.10352 -9.76999,-9.0175c-4.90965,-2.24039 -10.39221,0.33782 -11.43941,5.38024c-0.50247,2.41655 -1.71403,2.59064 -1.71403,0.24663c0,-0.75647 -0.2935,-1.63728 -0.65039,-1.95645c-0.35689,-0.32124 -1.58255,-2.63623 -2.72132,-5.14605l-2.07093,-4.56574l4.28508,-3.39477c7.14259,-5.6621 15.40986,-13.29724 17.44088,-16.10963c2.57809,-3.57094 10.50491,-2.47043 8.9975,1.24972m55.64738,16.70859c15.60005,12.29828 15.8325,13.65578 3.12752,18.30235c-2.10145,0.76683 -4.75938,2.01448 -5.9052,2.77095c-1.14582,0.75439 -3.64643,2.05179 -5.55769,2.87872c-3.36467,1.45905 -9.25813,4.51186 -12.88577,6.67556c-0.97207,0.5803 -4.08785,1.79272 -6.92188,2.69634c-2.83402,0.90154 -5.51308,1.90464 -5.95216,2.22588c-0.57291,0.42072 -1.42053,-0.78134 -2.97021,-4.21134l-2.16954,-4.79579l1.31722,-3.33674c0.72553,-1.8321 1.54028,-5.19993 1.81265,-7.48177c0.47664,-3.9958 0.63631,-4.27559 4.40953,-7.67866c2.65088,-2.39168 4.54806,-4.84968 5.87702,-7.60819l1.96292,-4.0787l4.28743,-0.58238c2.35738,-0.31917 6.31844,-0.60932 8.80027,-0.64248l4.51753,-0.06218l6.25035,4.92843m45.88913,17.34485c0.66213,2.32329 0.08453,4.98025 -1.08242,4.98025c-0.76779,0 -1.09651,-0.84973 -1.25148,-3.21861c-0.22776,-3.47146 1.48158,-4.76056 2.3339,-1.76164m-16.39132,9.73252c0.88989,1.43211 2.26581,3.23934 3.05708,4.01238c1.45575,1.42382 5.39568,6.97815 8.13579,11.46928c0.8218,1.34921 2.23059,3.31602 3.12518,4.373c0.89693,1.05491 2.43721,3.52949 3.42337,5.4963c0.98616,1.96889 2.32686,4.09943 2.9796,4.73776c1.46045,1.42174 5.03409,6.93048 7.43139,11.4527c0.98381,1.8549 2.71663,4.9989 3.8507,6.98436c1.13408,1.98754 2.06154,4.06005 2.06154,4.60719c0,0.54922 0.60343,1.98961 1.3407,3.20203c1.48628,2.44971 5.26889,12.97392 6.02964,16.77491c0.26767,1.34299 1.35479,4.54295 2.41608,7.10872c1.06129,2.56784 2.12728,6.43515 2.36912,8.59471c0.24184,2.16163 0.73492,5.85899 1.09886,8.21958c0.36394,2.36059 1.12469,8.15533 1.69055,12.87652c0.56587,4.72118 1.38766,10.85374 1.82204,13.62469c0.60343,3.83415 0.59639,5.81547 -0.03052,8.27761c-0.45316,1.78029 -1.25148,6.82478 -1.77273,11.21022c-1.50037,12.5988 -3.16744,21.23081 -4.6772,24.21937c-0.76544,1.51708 -2.24703,5.12325 -3.28954,8.0144c-1.04251,2.88908 -2.84342,6.4766 -4.00098,7.97088c-1.15756,1.49428 -2.66497,3.67871 -3.34823,4.85382c-3.47737,5.98334 -12.82707,12.71486 -25.34891,18.24847c-1.9911,0.88082 -4.27334,1.07149 -12.58993,1.05905l-10.15741,-0.01451l-6.835,-3.05903c-7.78124,-3.48389 -10.88059,-6.34189 -11.6836,-10.77499c-0.72553,-4.00409 -4.5551,-6.13049 -6.37245,-3.53778c-1.72343,2.46214 -11.84796,-6.41442 -15.86772,-13.9107c-0.91572,-1.70982 -2.456,-4.13881 -3.42337,-5.39682c-0.96737,-1.25801 -2.12963,-3.30773 -2.58279,-4.55538c-0.45316,-1.24765 -1.54967,-3.13157 -2.44191,-4.1844c-0.88989,-1.05284 -1.99344,-3.26006 -2.45365,-4.90564c-0.46021,-1.6435 -1.8737,-5.08802 -3.14161,-7.65171c-1.58959,-3.22068 -2.74011,-7.06934 -3.71687,-12.44751c-3.88592,-21.37381 -4.41657,-27.41933 -3.54077,-40.22331c0.40385,-5.90044 1.07068,-15.97285 1.47923,-22.37898c0.4109,-6.40821 1.19513,-14.95317 1.74456,-18.99043c0.54943,-4.03725 1.00024,-8.98434 1.00024,-10.99675c0,-12.1159 3.93993,-19.95207 10.79841,-21.47122c1.96996,-0.4373 13.92828,-5.58127 23.24041,-9.9978c2.86455,-1.35957 7.7108,-3.65384 10.76789,-5.10045c3.05708,-1.44661 5.71971,-2.84349 5.91928,-3.10462c0.20193,-0.26114 3.01482,-1.76164 6.2527,-3.3326c3.24023,-1.56889 6.18696,-3.10255 6.54855,-3.40721c2.10615,-1.76371 7.04632,-0.59481 8.69226,2.05386" id="svg_9"/>
 </g>
</svg>