<?xml version="1.0" encoding="UTF-8" standalone="no"?>
<!-- Created with Inkscape (http://www.inkscape.org/) -->
<svg id="svg2" xmlns:rdf="http://www.w3.org/1999/02/22-rdf-syntax-ns#" xmlns="http://www.w3.org/2000/svg" height="208.48" width="369.68" version="1.1" xmlns:cc="http://creativecommons.org/ns#" xmlns:dc="http://purl.org/dc/elements/1.1/">
 <metadata id="metadata7">
  <rdf:RDF>
   <cc:Work rdf:about="">
    <dc:format>image/svg+xml</dc:format>
    <dc:type rdf:resource="http://purl.org/dc/dcmitype/StillImage"/>
    <dc:title/>
   </cc:Work>
  </rdf:RDF>
 </metadata>
 <g id="layer1" transform="translate(-101.83657,-266.11115)">
  <path id="path3054" fill="#000" d="m101.84,467.42c-0.0671-3.9455,0.30149-9.3455,0.81902-12s1.441-9.1013,2.0521-14.326c1.0729-9.1734,2.2126-16.099,4.032-24.5,0.47645-2.2,1.8458-8.725,3.0431-14.5,4.2482-20.491,15.087-56.427,20.442-67.777,1.3695-2.9025,2.4904-5.6025,2.491-6,0.002-1.3566,9.8165-20.175,11.911-22.837,1.1486-1.4602,2.0966-3.1567,2.1068-3.77,0.0101-0.61333,3.1295-6.0651,6.9319-12.115,3.8024-6.05,8.6316-13.805,10.732-17.233,2.0999-3.4279,4.372-6.2404,5.049-6.25,2.4694-0.0351,3.4327,10.473,2.015,21.983-4.647,37.728-5.7122,45.615-7.6979,57-1.1032,6.325-1.9918,13.525-1.9747,16,0.0294,4.2513,0.21328,3.9473,3.3272-5.5,4.6145-14,5.6488-16.5,6.8265-16.5,0.68092,0,0.78287,2.4635,0.30003,7.25-0.40225,3.9875-0.89583,9.05-1.0969,11.25-0.20102,2.2-0.89018,8.5673-1.5314,14.15-1.2809,11.15-0.69964,16.667,1.5023,14.256,0.70655-0.77333,3.2448-6.2723,5.6406-12.22,2.3958-5.9476,4.7874-11.08,5.3147-11.406,0.57919-0.35796,0.67851,0.3601,0.25088,1.8138-1.545,5.2524-3.0444,20.932-2.6924,28.156,0.1622,3.3295,1.8617,1.7296,3.5074-3.3018,0.9088-2.7785,2.7606-7.4747,4.1151-10.436,1.3545-2.9612,2.4627-5.8629,2.4627-6.4482,0-0.58525,0.49923-1.0641,1.1094-1.0641,0.72029,0,0.90229,1.3153,0.5189,3.75-0.32477,2.0625-0.89056,8.6472-1.2573,14.633-0.5391,8.7982-0.41356,10.798,0.65541,10.442,0.72723-0.24241,2.0802-2.6646,3.0066-5.3826,0.92638-2.718,3.0979-7.9606,4.8257-11.65,1.7277-3.6896,3.1413-7.1771,3.1413-7.75,0-0.57293,0.48032-1.0417,1.0674-1.0417,0.58706,0,0.84461,0.7875,0.57233,1.75-1.8468,6.5285-2.4914,24.798-0.93002,26.36,1.3516,1.3516,2.5739-0.37266,5.7488-8.1097,4.0795-9.9415,7.6024-17,8.4846-17,0.4378,0,1.0227,5.9625,1.2997,13.25,0.76515,20.129,2.2563,21.472,8.5973,7.7445,2.2879-4.953,4.1599-9.4464,4.1599-9.9853,0-1.6014,8.3802-18.009,9.1981-18.009,0.41381,0,0.28626,1.226-0.28346,2.7245-1.6158,4.25-2.4529,25.825-1.0359,26.701,0.77851,0.48115,3.0179-3.1522,6.7027-10.875,3.0435-6.3785,5.938-11.347,6.4324-11.042,0.49433,0.30551,0.69204,1.1036,0.43936,1.7735-0.92638,2.4559-1.1726,17.287-0.32429,19.537,0.62004,1.6449,1.523,2.2265,3.1049,2,2.2268-0.31879,2.7804-1.1815,14.308-22.295,4.0187-7.3606,6.0718-7.4884,2.6288-0.16372-2.0536,4.3688-3.8095,13.728-4.8574,25.889-0.4806,5.5776-0.32243,6.75,0.91061,6.75,1.6667,0,7.0442-8.3722,11.24-17.5,4.5735-9.9486,5.954-12.5,6.7636-12.5,0.42493,0,0.7726-0.4201,0.7726-0.93355,0-1.5702,6.235-11.066,7.266-11.066,0.53191,0,0.70236,1.0125,0.37879,2.25s-1.7195,6.525-3.1021,11.75c-2.2024,8.3229-3.4424,21-2.0541,21,1.2615,0,4.5114-3.6179,4.5114-5.0222,0-0.86777,0.40049-2.0053,0.88998-2.5278s3.0303-5,5.6462-9.95,5.5904-10.194,6.61-11.654c1.0196-1.4599,1.8538-3.1474,1.8538-3.75,0-1.1573,1.2887-1.4736,2.2178-0.54444,0.30316,0.30315-0.23117,2.2156-1.1874,4.25-1.5643,3.328-3.5099,8.9779-6.1191,17.77-1.2012,4.0476-1.1579,7.429,0.0952,7.429,1.0695,0,9.9934-13.365,9.9934-14.966,0-0.81889,5.516-10.797,6.6061-11.95,0.21664-0.22916,0.64914-0.16141,0.96112,0.15057s-0.552,2.7759-1.92,5.4755c-2.3178,4.574-3.0395,7.1952-5.8087,21.098-2.1242,10.664,1.0479,7.9762,10.454-8.8595,4.2861-7.6714,8.2236-13.948,8.75-13.948,1.2983,0,1.2129,0.60466-0.57376,4.0596-0.84195,1.6282-2.4112,5.7683-3.4871,9.2003-3.3173,10.581-2.286,12.735,2.6291,5.49,1.5858-2.3375,3.1456-4.475,3.4663-4.75s1.6397-2.8625,2.9311-5.75,2.7178-5.25,3.1697-5.25c1.4136,0,0.91816,2.0086-2.0612,8.357-1.5856,3.3786-3.187,7.8624-3.5586,9.964-0.37162,2.1016-0.92243,4.4641-1.224,5.25-0.3016,0.78595-0.0337,1.429,0.59539,1.429,0.62906,0,3.8021-4.1625,7.0513-9.25s6.8704-10.6,8.0473-12.25,2.5275-3.662,3.0013-4.471c1.8208-3.1089,1.8925-0.11484,0.12109,5.057-2.2522,6.5755-5.4248,20.592-4.9698,21.957,0.6657,1.9971,4.7617-2.2232,10.696-11.02,3.3392-4.9502,6.9921-10.805,8.1175-13.011,2.2012-4.3148,4.6066-5.5408,3.4547-1.761-0.37712,1.2375-1.223,2.925-1.8798,3.75-2.8222,3.5452-6.6427,16.014-4.8988,15.988,0.45621-0.007,1.8461-1.5818,3.0886-3.5,2.2132-3.4165,4.2408-4.5624,4.2408-2.3966,0,0.60007-1.575,2.9311-3.5,5.18s-3.5,4.535-3.5,5.0802c0,0.54519-0.60997,1.7017-1.3555,2.57-2.6002,3.0285-9.6446,17.339-9.6446,19.593,0,5.5396,6.2333,3.783,21.5-6.0587,2.75-1.7728,7.25-4.4778,10-6.0112,2.75-1.5333,10.015-6.5357,16.144-11.116,6.1291-4.5806,11.47-8.3284,11.868-8.3284,0.39826,0,2.1679-1.2375,3.9326-2.75,5.2427-4.4936,10.498-8.477,17.477-13.246,3.6183-2.4726,7.9288-5.7331,9.5788-7.2454s3.3504-2.7517,3.7787-2.7543c0.42827-0.003,3.5783-2.1693,7-4.815,7.987-6.1756,13.939-10.19,15.108-10.19,1.9899,0-3.281,4.403-17.628,14.725-8.2366,5.926-17.357,12.575-20.269,14.775-7.1452,5.3996-28.758,21.295-37.392,27.5-1.1479,0.825-5.2106,3.3-9.0282,5.5s-11.007,6.3886-15.976,9.308c-19.912,11.699-22.549,6.5988-9.141-17.676,1.4454-2.617,2.395-13.15,1.1819-13.111-0.34947,0.0114-2.3713,2.7431-4.493,6.0705-4.0828,6.4028-7.8299,9.1212-9.824,7.1271-0.83648-0.83648-0.6662-3.2678,0.65996-9.4229,0.98302-4.5625,2.0007-8.858,2.2615-9.5455,0.26079-0.6875,0.0595-1.25-0.44731-1.25-0.81997,0-2.7432,3.0728-6.8847,11-2.0784,3.9782-8.23,10.228-9.3723,9.522-1.0665-0.65912-0.79608-3.5213,0.87464-9.2585,1.3673-4.6953-0.22816-4.8216-2.8128-0.22282-1.4739,2.6225-2.9248,3.9593-4.2972,3.9593-1.8657,0-2.0133-0.42753-1.4832-4.2952,0.32379-2.3624,0.91143-5.1362,1.3059-6.164,1.6661-4.3418-1.6428-0.12048-4.7455,6.054-1.8227,3.6272-4.6603,7.7278-6.3058,9.1124l-2.9919,2.5175-0.95279-2.1353c-0.88811-1.9903-0.40454-5.8201,1.9556-15.488,1.0927-4.476-1.0588-2.4011-4.0361,3.8925-2.2129,4.6776-4.8433,7.5061-6.9805,7.5061-0.94634,0-0.63125-11.285,0.41716-14.94,0.54059-1.8849,0.84297-3.5671,0.67195-3.7381-0.17102-0.17102-2.8209,4.5242-5.8887,10.434-4.0232,7.7502-6.1516,10.832-7.6366,11.06-3.0099,0.46039-3.622-3.4165-2.2728-14.395,0.62878-5.1165,1.1405-10.117,1.1371-11.111-0.007-2.0642,0.27943-2.5461-8.4349,14.192-7.6239,14.643-9.6057,17.485-12.201,17.493-3.0985,0.01-3.4895-2.9868-1.9951-15.291,0.71492-5.8862,1.0381-10.696,0.71828-10.689-0.31986,0.007-1.9089,2.7766-3.5312,6.1542-7.0191,14.614-12.763,14.305-14.436-0.77492l-0.61426-5.5379-4,7.7659c-2.2,4.2713-4.5373,7.9331-5.194,8.1374-1.9572,0.60896-3.5896-7.614-2.9794-15.008,0.30639-3.7125,0.193-6.75-0.25199-6.75s-2.2224,3.7125-3.9499,8.25c-5.0199,13.186-8.3738,19.205-10.904,19.569-3.2683,0.47074-4.2204-3.161-4.2204-16.099,0-13.331-0.80706-13.234-6.5149,0.77939-6.6064,16.22-9.8966,16.545-9.9516,0.98373-0.0184-5.2158-0.3107-9.4834-0.64951-9.4835-0.3388-0.00012-1.6269,2.8123-2.8625,6.2498-2.5718,7.155-5.7245,12.75-7.1846,12.75-0.63078,0-0.87758-4.5855-0.66844-12.42,0.18236-6.8307,0.10656-12.196-0.16844-11.924-0.275,0.27277-1.9003,4.1741-3.6118,8.6695-3.7173,9.764-5.905,11.078-6.9409,4.1703-0.38128-2.5426-0.38564-7.7445-0.01-11.56,0.37596-3.8153,0.47065-6.937,0.21043-6.937s-1.6793,3.1566-3.1536,7.0146c-2.7411,7.1735-5.7422,10.388-6.8945,7.3853-0.90285-2.3528-0.67418-18.339,0.32755-22.9,0.48324-2.2,1.1906-7.5409,1.572-11.869,0.77931-8.8438-0.54571-9.7757-2.4735-1.7396-1.9998,8.3359-5.4639,17.438-6.8034,17.876-0.99982,0.32678-1.1543-1.5044-0.71059-8.425,0.55223-8.6089,1.8789-19.287,3.0248-24.342,1.8173-8.0184,4.2529-26.658,6.6033-50.536,1.1104-11.281,0.78579-17.508-0.90874-17.431-0.99196,0.0455-13.749,19.691-18.809,28.967-2.2506,4.125-5.5161,9.8823-7.2567,12.794s-3.1648,5.4591-3.1648,5.6609c0,0.20177-1.5252,3.6695-3.3893,7.706-5.9648,12.916-7.6116,17.035-11.516,28.807-4.8985,14.768-10.41,34.784-13.087,47.532-1.1552,5.5-2.7477,12.925-3.539,16.5-1.943,8.7787-4.0219,22.21-5.4948,35.5-0.67048,6.05-1.5589,13.475-1.9742,16.5l-0.75518,5.5-0.12194-7.1737z"/>
 </g>
</svg>
