<?xml version="1.0" encoding="utf-8"?>
<!-- Generator: Adobe Illustrator 23.1.0, SVG Export Plug-In . SVG Version: 6.00 Build 0)  -->
<svg version="1.1" id="Layer_1" xmlns="http://www.w3.org/2000/svg" xmlns:xlink="http://www.w3.org/1999/xlink" x="0px" y="0px"
	 viewBox="0 0 100 72.3" style="enable-background:new 0 0 100 72.3;" xml:space="preserve">
<g>
	<g>
		<path d="M0,44.9c1.4-3.5,2.6-7.1,4.2-10.5c3.8-7.8,9.7-13.8,16.6-19C30.4,8.2,41.1,3.5,53,1.7C55.4,1.3,57.8,0,60.2,0
			C70.4,0,80,2.3,87.6,9.8c3.7,3.7,4.1,4.5,5.9,11.5c2.1,0.5,4.3,1,6.6,1.6c0,0.7,0,1.3,0,2c-2.1-0.5-4.2-1-6.6-1.6
			c-0.5,1.3-1,2.4-1.4,3.6c-2.4,6.8-6.7,12.2-12.3,16.6c-4.3,3.3-9.1,5.7-12.7,10.1c-2.1,2.6-6.2,4.1-9.6,4.9
			c-10.2,2.4-19.8,6.7-29.7,9.9c-4.9,1.6-9.9,2.5-14.9,3.7c-2,0.5-3.9,0.1-5.4-1.7c0-2,1.2-2.9,3.2-3.5c0,1.3,0,2.3,0,3.4
			c4.7,0.5,12.9-1.6,23.4-6.3c-5.6,0-10.6,0-15.6,0C10,63.9,3.5,60.8,0,52.9C0,50.2,0,47.6,0,44.9z M70,31.9
			c-0.1,0.1-0.2,0.3-0.2,0.4C69.8,32.2,69.9,32,70,31.9c0.3-0.4,0.6-0.7,1-1c1.1-1.2,2.2-2.3,3.6-3.7c0.5,0.6,1,1.2,1.4,1.7
			c-0.3,0.3-0.7,0.7-1,1c-0.1,0.1-0.1,0.3-0.2,0.4c0.1-0.1,0.2-0.2,0.3-0.4c0.3-0.3,0.7-0.7,1-1c0.8-0.6,1.6-1.2,2.4-1.7
			c0.2,0.6,0.3,1.1,0.5,1.7c-0.1,0.1-0.1,0.2-0.2,0.4c0.1-0.1,0.2-0.2,0.3-0.3c1.3-0.7,1.9-2.7,4.1-2.3c-0.5,3-2.4,4-4.7,4.8
			c-5.9,2.2-12.1,3-17.8,5.9c-1.5,0.8-3.5,0.5-5.7,0.8c0.6-3.2,1.2-5.7,5.4-6.6c-5.1-1.4-8.8,0-12.6,0.6c-0.8,1-1.5,1.8-2.3,2.7
			c-0.7,0.8-1.3,1.7-2.3,2.8c9.4,2.4,19,2.8,25.7,10.2c7.3-3.8,13.7-8.1,17.8-15c-1.1-1.2-2.1-2.2-2.9-3c0.4-2.2,1.5-3,3.2-3.1
			c-0.1,0.9-0.2,1.8-0.3,3.4c1.5-1.7,1.4-2.6,0.3-3.4c-1.9-1.4-3.8-2.8-5.8-4.2c3-2.9,6.5-1.2,9.5-2.4c-0.1-0.8,0-1.5-0.2-2.1
			c-2-6.5-6.6-10.6-12.7-13.2c-8.1-3.5-16.6-3-24.9-1.8c-11.2,1.6-21.2,6.4-30.4,13c-6,4.6-11.3,9.9-15.1,16.4
			c-0.5,0.9-0.7,1.9-1.1,3.3c8.5-1.6,16.4-3,24.4-4.5c3.2-2.4,5.5-6.2,10.8-7.4c-1.6,2.7-2.8,4.6-4.2,7c3.5-0.5,6.4-0.9,9.7-1.4
			c2-2.5,4.1-5.2,6.4-7.9c2.1-2.5,4.2-5.1,6.6-7.4c2.4-2.3,3.6-5.9,7.3-6.8c-5,7.8-12.5,13.7-17.5,22.6c4.7,0,8.6,0,12.6,0
			c-0.2,1.3-0.3,2.1-0.4,3c-0.3,0.4-0.5,0.7-0.8,1.1c0.1,0.1,0.3,0.2,0.4,0.2c0.1-0.4,0.2-0.9,0.3-1.3c1.3-1.3,2.6-2.6,4.3-4.3
			c0.4,1.1,0.5,1.7,0.7,2.3c-0.3,0.3-0.7,0.7-1,1c-0.2,0.4-0.5,0.7-0.7,1.1c0.1,0.1,0.3,0.1,0.4,0.2c0.1-0.4,0.2-0.9,0.3-1.3
			c0.3-0.3,0.7-0.7,1-1c1.1-0.8,2.3-1.7,4-3c0,1.5,0,2.2,0,3C70.7,31.2,70.3,31.6,70,31.9z M23,40.9c-0.1,0.1-0.1,0.3-0.2,0.4
			C22.9,41.1,22.9,41,23,40.9c0.4-0.3,0.7-0.6,1-1c0.4-0.1,0.8-0.3,1.2-0.4c-0.1-0.1-0.2-0.3-0.2-0.4c-0.3,0.3-0.7,0.5-1,0.8
			C23.6,40.2,23.3,40.5,23,40.9z M27,40.9c-0.3,0.3-0.7,0.7-1,1c-2.9,0.3-4.6,3.6-8.3,3.3c1.8-2.5,3.3-4.6,5-7
			c-6.3,0.4-12.2,0.7-18.3,1.1c-0.5,1.3-1,2.5-1.4,3.8C-0.2,54.5,5.4,60.7,15,62c5.5,0.7,10.8,0.6,16.3,0.2
			c9.1-0.8,17.6-3.1,25.5-7.6c3.3-1.9,6.7-3.5,10.2-5.2c-1.4-3.4-4.3-4.2-6.8-5.2c-6-2.6-12.2-4-18.9-4.1c-1.5,1.6-2.7,3.1-4.2,4.5
			c-2.4,2.2-5,4.4-7.5,6.5c-1.5,1.2-3.3,1.6-5.6,0.3c0.1-1.3,0.1-2.7,0.4-4.1c0.4-1.8,1-3.5,1.6-5.2C26.3,41.5,26.7,41.2,27,40.9
			c0.1-0.2,0.3-0.3,0.1-0.1C27.3,40.6,27.1,40.7,27,40.9z M65,52.9c-0.7,0.3-1.3,0.7-2,1s-1.3,0.7-2,1s-1.3,0.7-2,1
			c-0.5,0.1-0.9,0.2-1.4,0.3c0.1,0.1,0.1,0.3,0.2,0.4c0.4-0.2,0.8-0.5,1.1-0.7c0.7-0.3,1.3-0.7,2-1s1.3-0.7,2-1
			C63.6,53.5,64.3,53.2,65,52.9c0.1-0.2,0.3-0.3,0.2-0.2C65.3,52.6,65.1,52.8,65,52.9z M31,39c-2.8,3.2-4.9,6.6-4.6,11.7
			c5.3-3.2,9.6-6.6,13.3-11.7C36.5,39,34,39,31,39z M40.4,38.1c1.6-2.1,3-3.8,4.5-5.8c-7.4-0.7-9-0.2-11.6,4
			C35.5,36.9,37.7,37.5,40.4,38.1z M12.5,36.4c9.6,1.1,11.5,0.8,14.2-2.7C21.7,34.6,17.2,35.5,12.5,36.4z M91,23.2
			c-1.9,0-3.1,0-5.1,0c1.5,1.3,2.5,2.2,3.7,3.3C90.1,25.4,90.4,24.6,91,23.2z M28.4,36.4c-0.3-0.1-0.5-0.1-0.7-0.1
			c0,0.1,0.1,0.3,0.1,0.3C28,36.6,28.1,36.5,28.4,36.4z"/>
	</g>
</g>
</svg>
