<?xml version="1.0" encoding="UTF-8" standalone="no"?>
<svg
   xmlns:dc="http://purl.org/dc/elements/1.1/"
   xmlns:cc="http://creativecommons.org/ns#"
   xmlns:rdf="http://www.w3.org/1999/02/22-rdf-syntax-ns#"
   xmlns:svg="http://www.w3.org/2000/svg"
   xmlns="http://www.w3.org/2000/svg"
   version="1.1"
   id="svg10"
   width="228"
   height="146">
  <g>
    <path
       style="fill:#000000"
       d="M 91.561622,136.80499 C 89.381825,133.72029 85.840729,121.63575 81.948874,104 78.37798,87.818666 77.502146,85 76.045075,85 c -1.491683,0 -4.363643,6.258944 -8.029995,17.5 -5.613951,17.2124 -9.738296,22.87044 -13.915484,19.09013 -2.362324,-2.13787 -2.774035,-2.0234 -3.52807,0.98091 -0.861221,3.43138 -3.127484,2.50571 -2.861144,-1.16866 0.11571,-1.59631 0.51586,-10.32738 0.889222,-19.40238 0.71693,-17.425817 1.382481,-21 3.910423,-21 1.355223,0 1.533128,2.063325 1.358007,15.75 -0.202102,15.79543 0.804264,22.1886 3.254404,20.67433 1.601358,-0.98969 6.065945,-11.28854 9.806826,-22.622249 4.853176,-14.703613 8.941826,-18.351132 13.031773,-11.625753 1.062402,1.74698 4.041826,11.98448 6.620942,22.750002 5.383588,22.4717 5.317019,22.25413 6.571692,21.4787 0.519256,-0.32092 0.809602,-4.77898 0.645215,-9.90681 -0.278116,-8.67543 0.279891,-11.75278 1.84695,-10.18572 0.35521,0.35521 0.69271,7.50714 0.75,15.89317 0.09181,13.43935 -0.09206,15.28629 -1.550618,15.57582 -0.91013,0.18067 -2.387748,-0.70876 -3.283596,-1.9765 z M 13.087331,129.12265 C 6.5897864,119.99769 5.1183854,89.106996 10.199722,68.5 11.431004,63.506626 13.605516,61 16.706014,61 c 3.108591,0 4.73857,3.838736 6.383,15.032504 1.379251,9.388674 1.790538,43.362196 0.595443,49.185346 -1.46228,7.12502 -6.882083,9.12209 -10.597126,3.9048 z m 7.036649,-5.63486 c 1.00986,-4.71895 0.920434,-30.000202 -0.144879,-40.957925 -1.08315,-11.141191 -2.593774,-16.820883 -4.323744,-16.256542 -3.356753,1.095023 -4.664005,15.521952 -2.480335,27.373158 1.078615,5.853851 1.021353,6.489439 -0.697906,7.746589 -1.739817,1.27219 -1.79202,1.97423 -0.73451,9.87797 1.405498,10.50457 3.526308,16.0164 5.980817,15.54371 1.015305,-0.19553 2.031951,-1.60451 2.400557,-3.32696 z m 118.3349,-3.55432 c -0.36253,-0.58659 -0.50159,-1.14909 -0.30902,-1.25 5.22999,-2.74048 7.40535,-6.3352 6.35831,-10.50693 -0.92369,-3.6803 -7.5883,-9.805625 -16.51269,-15.17654 -13.68468,-8.235764 -16.97851,-13.189858 -16.9899,-25.553656 -0.007,-7.082759 3.48176,-15.225189 7.70927,-17.995165 C 123.61212,46.24237 132,47.61325 132,51.622445 c 0,1.587009 -2.58048,1.865373 -3.5,0.377555 -1.93592,-3.132388 -8.39247,0.90873 -11.64824,7.290574 -2.6674,5.228527 -2.2221,16.353155 0.8226,20.550871 1.06057,1.462205 7.18471,6.138913 13.60921,10.392685 C 143.28955,98.183503 149,104.11289 149,108.6298 c 0,4.05062 -2.98808,10.04374 -5.6013,11.2344 -3.09959,1.41227 -4.10112,1.42631 -4.93982,0.0693 z M 196,102.96016 c 0,-0.57191 0.84395,-2.70941 1.87544,-4.749998 C 201.87191,90.30398 204.49889,75.430183 204.44742,61 204.40433,48.918492 204.11688,46.72353 201.7117,40.110215 198.2185,30.505224 195.47093,27.05239 188.34331,23.310338 177.02295,17.367063 164.89252,16.502159 155.92761,20.999086 151.00598,23.467844 146,27.762013 146,29.515065 c 0,0.627486 3.14111,5.141361 6.98025,10.030835 9.79108,12.469774 10.38808,14.434917 10.54846,34.722217 0.10287,13.012858 -0.17085,17.019926 -1.22224,17.892501 -0.74514,0.618411 -1.66948,0.809703 -2.05409,0.425093 -0.38461,-0.38461 -0.71124,-8.211236 -0.72584,-17.392501 -0.0253,-15.933584 -0.14613,-16.943488 -2.6547,-22.19321 -1.44549,-3.025 -5.17365,-8.65 -8.28479,-12.5 -6.22647,-7.705161 -7.37289,-10.479856 -5.77708,-13.982279 1.38587,-3.041643 8.39943,-7.773433 14.61817,-9.862337 11.73532,-3.941949 30.20173,-1.087911 38.4076,5.936011 C 203.72636,29.345472 209,44.215142 209,59.709631 c 0,8.050715 -2.56737,25.812707 -4.53862,31.399828 -2.09595,5.940562 -2.00559,6.087859 3.28862,5.360451 7.90203,-1.085717 11.84112,-2.360621 13.72484,-4.442111 C 223.4699,89.823285 225,90.195226 225,92.884703 c 0,2.796208 -4.10569,5.839761 -8.94438,6.630486 -2.44441,0.399459 -6.90236,1.571951 -9.90655,2.605551 C 200.08645,104.20658 196,104.54457 196,102.96016 Z"
    />
  </g>
</svg>
