<?xml version="1.0" encoding="UTF-8" standalone="no"?>
<!-- Created with Inkscape (http://www.inkscape.org/) -->

<svg
   xmlns:dc="http://purl.org/dc/elements/1.1/"
   xmlns:cc="http://creativecommons.org/ns#"
   xmlns:rdf="http://www.w3.org/1999/02/22-rdf-syntax-ns#"
   xmlns:svg="http://www.w3.org/2000/svg"
   xmlns="http://www.w3.org/2000/svg"
   xmlns:sodipodi="http://sodipodi.sourceforge.net/DTD/sodipodi-0.dtd"
   xmlns:inkscape="http://www.inkscape.org/namespaces/inkscape"
   id="svg4290"
   version="1.1"
   inkscape:version="0.91 r13725"
   width="734.70099"
   height="341.98108"
   viewBox="0 0 734.70099 341.98108"
   sodipodi:docname="Firma de Pedro Sánchez.svg">
  <metadata
     id="metadata4296">
    <rdf:RDF>
      <cc:Work
         rdf:about="">
        <dc:format>image/svg+xml</dc:format>
        <dc:type
           rdf:resource="http://purl.org/dc/dcmitype/StillImage" />
        <dc:title></dc:title>
      </cc:Work>
    </rdf:RDF>
  </metadata>
  <defs
     id="defs4294" />
  <sodipodi:namedview
     pagecolor="#ffffff"
     bordercolor="#666666"
     borderopacity="1"
     objecttolerance="10"
     gridtolerance="10"
     guidetolerance="10"
     inkscape:pageopacity="0"
     inkscape:pageshadow="2"
     inkscape:window-width="1301"
     inkscape:window-height="744"
     id="namedview4292"
     showgrid="false"
     fit-margin-left="3"
     fit-margin-bottom="3"
     fit-margin-top="3"
     fit-margin-right="3"
     inkscape:zoom="0.51489633"
     inkscape:cx="217.29527"
     inkscape:cy="56.925707"
     inkscape:window-x="65"
     inkscape:window-y="24"
     inkscape:window-maximized="1"
     inkscape:current-layer="svg4290" />
  <path
     style="fill:#000000;stroke:none"
     d="m 45.870225,337.81995 c -2.619865,-1.91483 -2.771492,-9.06561 -1.975934,-93.18649 0.26279,-27.78691 -0.125203,-40.41781 -1.57428,-51.25 C 40.053175,176.43836 34.257224,148.5836 29.705307,132.75845 19.818393,98.385729 17.125253,90.001999 11.033579,74.633449 c -9.2917852,-23.44203 -10.32336522,-31.25 -4.1287352,-31.25 5.7774612,0 30.5913602,23.84591 40.9733782,39.375 2.29815,3.4375 6.816138,9.34375 10.039988,13.125 11.35987,13.324021 23.15562,31.703441 54.95336,85.625011 5.6759,9.625 16.11209,26.32309 23.19152,37.10686 14.06288,21.42131 18.95255,26.15783 32.12298,31.11673 5.23799,1.9722 7.1875,3.34297 7.1875,5.05382 0,2.07973 -1.03401,2.34905 -9.0625,2.36046 -8.20748,0.0113 -24.57126,2.79172 -35.9375,6.10548 -2.40625,0.70153 -19.23715,5.21288 -37.40201,10.02523 -18.16486,4.81234 -33.76113,9.48384 -34.65839,10.3811 -1.0726,1.0726 -2.25115,9.54679 -3.44083,24.74084 -2.228267,28.45833 -3.706984,33.29112 -9.002115,29.42097 z m 5.753347,-47.63528 c 0,-2.36567 -0.5625,-4.30122 -1.25,-4.30122 -0.6875,0 -1.25,2.2832 -1.25,5.07377 0,3.0642 0.495086,4.76779 1.25,4.30123 0.6875,-0.4249 1.25,-2.7081 1.25,-5.07378 z m -0.01914,-16.48872 c -0.01492,-2.67868 -0.286628,-3.02359 -1.230859,-1.5625 -1.580511,2.44566 -1.580511,5 0,5 0.6875,0 1.241386,-1.54688 1.230859,-3.4375 z m 23.144138,0.88976 c 4.8125,-1.32199 14.65625,-3.85505 21.875,-5.62902 7.21875,-1.77396 21,-5.41774 30.625,-8.09727 9.625,-2.67951 19.75,-5.45762 22.5,-6.17357 8.75445,-2.27919 8.74487,-2.62105 -0.33583,-11.9891 -8.97755,-9.26163 -23.56125,-29.76297 -34.50121,-48.50079 -3.67274,-6.29063 -11.90541,-20.4375 -18.29481,-31.4375 -12.49349,-21.5088 -28.27208,-46.28419 -33.58554,-52.73568 -1.80543,-2.19213 -6.37636,-8.21464 -10.157607,-13.383381 -3.78125,-5.16873 -7.374461,-9.42205 -7.984915,-9.45182 -0.61966,-0.0302 -0.754875,3.94882 -0.306121,9.00837 2.483155,27.996741 4.53821,63.974771 5.194325,90.937511 0.409878,16.84375 1.80089,39.625 3.091135,50.625 1.290243,11 2.711073,24.35936 3.157383,29.68749 l 0.81149,9.6875 4.58085,-0.072 c 2.51947,-0.0397 8.51835,-1.15375 13.33085,-2.47574 z M 44.118488,166.19596 c -0.01058,-17.56383 -5.00238,-73.145711 -7.698072,-85.715281 -1.025084,-4.77981 -3.111653,-8.10101 -9.974493,-15.87648 -7.706355,-8.73116 -15.184382,-14.97075 -17.9421532,-14.97075 -1.856746,0 0.646259,9.68456 6.3125452,24.42432 3.161052,8.22288 6.853298,18.60693 8.204992,23.07568 2.967538,9.810791 15.530535,60.252901 17.511878,70.312511 0.778607,3.95312 1.904966,7.1875 2.503018,7.1875 0.598053,0 1.085082,-3.79688 1.082285,-8.4375 z M 654.12357,303.57719 c 0,-0.58095 1.1865,-2.12783 2.63667,-3.4375 1.45018,-1.30969 4.26797,-5.61005 6.26175,-9.55638 4.84544,-9.5906 22.20093,-39.84196 24.21046,-42.19985 3.12536,-3.66716 24.10198,-42.51755 28.56131,-52.89783 6.87334,-15.99956 8.47324,-23.42792 9.20249,-42.72717 0.5622,-14.87862 0.27815,-19.09156 -1.8963,-28.12501 -7.07127,-29.376601 -21.80455,-45.664251 -41.16388,-45.506671 -7.88291,0.0642 -10.18442,-1.06609 -5,-2.45547 11.24656,-3.01396 23.96536,1.26846 34.63595,11.66193 17.0955,16.651541 24.44558,52.155151 17.56884,84.864071 -4.6051,21.90399 -13.9007,40.36906 -45.71574,90.81114 -5.6371,8.9375 -11.81845,19.0625 -13.73636,22.5 -4.98716,8.93862 -12.05601,18.125 -13.94705,18.125 -0.88998,0 -1.61814,-0.47533 -1.61814,-1.05626 z m -246.55048,-1.41624 c -15.2868,-1.93881 -26.10096,-6.98738 -23.60787,-11.02128 0.74472,-1.205 2.30289,-0.96995 6.82197,1.02905 8.15193,3.60599 33.61514,6.63269 47.08638,5.59697 12.29575,-0.94535 27.22563,-3.10574 51.875,-7.50645 45.18174,-8.06641 45.62499,-8.11878 69.21579,-8.17812 12.63118,-0.0317 23.1658,0.14225 23.41025,0.38671 0.24446,0.24444 -11.29926,1.40402 -25.6527,2.57682 -19.49134,1.59262 -33.16895,3.56218 -54.03525,7.78099 -15.36595,3.10673 -33.56309,6.45093 -40.43809,7.43155 -16.13294,2.30112 -43.91517,3.26847 -54.67548,1.90376 z m -209.4995,-9.85286 c -14.21078,-0.7367 -15.6129,-1.03193 -17.8125,-3.75062 -3.70521,-4.57965 -3.0293,-11.08375 2.17434,-20.92315 8.43091,-15.9417 20.06615,-28.61195 38.2777,-41.68266 3.2805,-2.35448 5.76641,-4.87989 5.52425,-5.61203 -0.24217,-0.73215 -4.89497,-4.26025 -10.33956,-7.84022 -5.44459,-3.57998 -13.5555,-9.06693 -18.02425,-12.19324 -4.46875,-3.1263 -14.03125,-9.22372 -21.25,-13.54981 -32.4801,-19.46488 -53.35383,-36.71615 -58.71038,-48.52172 -9.43885,-20.80272 5.63887,-40.794001 57.71203,-76.519371 12.77253,-8.76274 41.08265,-24.91412 48.49835,-27.66909 2.40625,-0.89394 11.83926,-4.76389 20.96225,-8.5999 16.8718,-7.09421 44.33332,-16.5155799 59.03775,-20.2544099 4.55976,-1.15938 13.47484,-2.11503 20.31701,-2.17786 10.43869,-0.0958 12.68421,0.25554 15.6147,2.44346 5.0989,3.80688 6.06319,8.8613399 3.59831,18.8612199 -3.40348,13.80779 -22.52016,49.99746 -31.7797,60.16197 l -4.12467,4.52779 3.76587,-6.313 c 5.45774,-9.14918 24.56944,-48.89951 26.8851,-55.91818 2.26583,-6.86757 2.49489,-11.85937 0.75432,-16.43744 -1.15502,-3.0379099 -1.69685,-3.2057799 -10.3125,-3.1950499 -18.91923,0.0236 -44.50335,7.5508799 -94.09344,27.6840299 -9.20068,3.73539 -32.941,16.29217 -42.72707,22.59928 -4.68762,3.02115 -10.32692,6.58141 -12.53179,7.91169 -13.08508,7.89465 -36.4022,25.66606 -42.71603,32.55648 -7.9121,8.634661 -16.40011,23.286491 -16.40011,28.309511 0,8.67239 16.05087,27.8329 33.60478,40.11524 5.23612,3.66367 17.95772,11.90507 28.27022,18.31422 10.3125,6.40917 25.42417,16.06194 33.5815,21.45063 8.15733,5.38867 15.78158,9.7976 16.94277,9.7976 1.1612,0 4.89328,-1.76509 8.29351,-3.92241 23.56407,-14.95064 55.56197,-26.36922 73.69321,-26.29773 9.89731,0.039 20.8121,4.19903 27.71734,10.56405 6.16793,5.68541 15.84745,23.72615 17.2803,32.20718 l 0.90051,5.33007 3.77912,-9.87807 c 2.07852,-5.43295 5.16328,-13.53434 6.85504,-18.00309 10.91763,-28.83871 25.39578,-32.87923 35.83248,-10 3.27077,7.17014 6.99922,25.3838 6.99922,34.19151 0,5.08851 0.0125,5.10174 2.46109,2.64876 2.74231,-2.74698 10.05616,-15.52342 20.73135,-36.21527 7.57805,-14.68863 17.15989,-28.59561 23.20945,-33.68599 8.72661,-7.34296 20.17827,-6.96062 26.83866,0.89606 4.33231,5.11047 10.56646,18.57219 14.69486,31.73138 3.6555,11.65181 8.29755,38.05031 8.319,47.30855 0.021,9.0585 2.31169,21.80293 4.62182,25.71366 2.62033,4.43589 1.41317,8.05555 -2.06564,6.19375 -3.41503,-1.82766 -6.0519,-11.53418 -7.60373,-27.98984 -1.90031,-20.15116 -3.62104,-31.48501 -5.65558,-37.25155 -0.99071,-2.80793 -1.80128,-6.1537 -1.80128,-7.43503 0,-1.28133 -1.443,-6.13248 -3.20668,-10.78034 -7.44521,-19.62065 -13.81713,-28.32565 -20.73391,-28.32565 -10.36356,0 -16.38491,6.11729 -28.59509,29.05071 -3.90175,7.32836 -11.2336,20.91804 -16.29297,30.19929 -5.05939,9.28125 -10.70081,21.09375 -12.53651,26.25 -5.26063,14.77645 -6.60637,12.89513 -7.63385,-10.67199 -0.91739,-21.04197 -3.89335,-34.56465 -9.67165,-43.9476 -2.98745,-4.85107 -7.8007,-8.19667 -10.37258,-7.20975 -2.28761,0.87784 -14.22175,22.17924 -15.38134,27.45434 -0.45337,2.0625 -2.97255,9.375 -5.59817,16.25 -2.62561,6.875 -5.6221,16.63062 -6.65888,21.67916 -2.10416,10.24619 -2.40327,10.81445 -5.13946,9.76448 -1.58355,-0.60766 -1.92891,-3.30945 -1.92891,-15.08988 0,-17.39226 -3.54064,-30.50054 -10.93953,-40.50066 -5.81648,-7.86139 -11.64102,-11.70214 -21.99793,-14.50563 l -8.06076,-2.18193 -17.61462,4.46267 c -12.66547,3.20881 -21.21767,6.26989 -30.43839,10.89479 -14.39912,7.22226 -25.94877,14.2891 -25.94877,15.87716 0,0.58091 7.17187,6.48091 15.9375,13.11109 23.73539,17.95307 39.38021,31.11205 41.51836,34.92144 1.76082,3.13711 1.7147,3.57729 -0.61925,5.91124 -2.7199,2.7199 -10.31691,5.65267 -27.66579,10.68019 -24.23625,7.02338 -39.94496,8.59502 -70.2208,7.02551 z m 33.05595,-3.98283 c 17.91654,-1.45406 35.09909,-5.35891 49.23977,-11.19006 11.21542,-4.62486 12.20982,-5.45921 9.88878,-8.29724 -4.79276,-5.86029 -55.22294,-44.2045 -58.13763,-44.2045 -3.06975,0 -21.9728,15.38718 -34.3327,27.94699 -13.34504,13.56086 -15.39943,17.40359 -14.66993,27.43997 0.33268,4.57675 0.93307,5.51394 4.75574,7.42359 5.19801,2.5967 18.72354,2.87225 43.25598,0.88125 z M 358.58638,98.913319 c -2.38259,-9.49301 8.11701,-51.84768 17.52048,-70.67639 4.81411,-9.63938 13.49665,-17.96317 20.78431,-19.9255299 6.09545,-1.64134 9.1704,-0.74712 4.20648,1.22326 -7.05722,2.8012999 -15.60407,10.2094899 -19.29999,16.7287399 -5.01398,8.84418 -14.12616,37.8736 -18.32206,58.37005 -1.9,9.28125 -3.58892,17.041821 -3.75317,17.245711 -0.16423,0.20389 -0.67546,-1.13073 -1.13605,-2.965841 z"
     id="path4840"
     inkscape:connector-curvature="0" />
</svg>
