<svg version="1.1" id="Layer_1" xmlns="http://www.w3.org/2000/svg" xmlns:xlink="http://www.w3.org/1999/xlink" x="0px" y="0px"
	 width="100%" viewBox="0 0 1024 288" enable-background="new 0 0 1024 288" xml:space="preserve">
<path fill="#000000" opacity="1.000000" stroke="none" 
	d="
M344.938812,160.168808 
	C339.274078,162.200394 334.058655,164.428131 328.646362,165.960739 
	C325.410583,166.877014 321.166809,168.613831 320.410156,162.443344 
	C320.175201,160.527130 318.214447,160.616440 316.754730,161.415863 
	C308.043335,166.186935 298.386078,166.776840 288.830353,167.836380 
	C288.340393,167.890717 287.665741,168.251175 287.397797,168.047394 
	C280.822449,163.046799 273.556274,167.180130 266.656952,166.507141 
	C258.745636,165.735443 257.782867,165.050369 257.708252,157.334824 
	C257.687958,155.234818 258.056152,153.043777 256.833099,150.490540 
	C252.424805,151.978683 249.657455,155.412216 246.871414,158.346985 
	C241.698898,163.795624 235.316208,167.147141 228.719818,170.198761 
	C225.916351,171.495667 223.982925,169.214142 222.500534,167.195465 
	C220.595459,164.601196 220.176208,161.942688 222.205948,158.920059 
	C227.860550,150.499344 234.969849,143.471710 242.503296,136.797958 
	C243.673157,135.761597 245.366104,134.954102 245.177002,132.907791 
	C243.627167,131.800919 242.722244,133.189728 241.610168,133.733719 
	C236.479263,136.243652 231.654694,139.308655 225.462662,139.043182 
	C219.092972,138.770081 215.209869,143.293243 212.549973,148.215591 
	C211.302414,150.524277 210.397736,152.105713 207.934464,153.254532 
	C206.402130,153.969177 205.628937,156.311554 204.495514,157.951675 
	C201.196503,157.443146 198.831848,155.388489 196.535355,153.200958 
	C193.407089,154.452606 191.947052,157.125763 189.568817,159.282181 
	C191.855103,161.550003 195.360504,161.713593 196.031128,165.330139 
	C196.495651,167.835373 196.693512,169.470673 193.959717,170.457825 
	C190.518417,171.700409 187.198517,173.312820 183.707062,174.373215 
	C180.299728,175.408081 176.889450,176.071945 175.036789,171.426773 
	C174.219543,169.377686 172.099197,169.088455 169.907928,170.201096 
	C160.256378,175.101791 150.561722,179.917633 140.880676,184.760178 
	C139.475830,185.462891 138.241150,186.293106 138.469849,188.134033 
	C138.669205,189.738724 140.031174,190.118896 141.229858,190.699539 
	C150.273422,195.080353 159.064041,195.413452 167.636200,189.394958 
	C169.520523,188.071991 171.795197,187.348434 174.329926,188.762299 
	C173.938324,193.536804 172.130676,196.581680 167.264709,198.169907 
	C153.256454,202.742142 139.698730,204.222946 127.036461,194.576614 
	C125.391769,193.323669 123.667969,192.936447 122.152412,194.664597 
	C121.026741,195.948196 120.281792,198.672821 118.153053,196.686798 
	C116.399475,195.050812 114.816650,192.970200 115.722511,189.780319 
	C116.676506,186.420944 118.730400,183.171875 118.021194,179.446045 
	C116.101135,178.751526 115.495872,180.277039 114.544754,181.052414 
	C103.382042,190.152893 95.415970,202.276306 85.131508,212.223389 
	C82.455139,214.811951 79.461212,217.006317 77.198715,220.222885 
	C74.491936,224.071106 66.964348,222.407303 64.816063,218.221375 
	C63.784306,216.210983 63.617767,214.083908 63.221996,211.973282 
	C62.882042,210.160309 62.474079,208.095566 64.388092,207.003952 
	C66.345970,205.887360 67.601509,207.106766 68.870422,208.778656 
	C70.236015,210.577896 71.731552,209.433365 73.082520,208.210785 
	C89.666267,193.203079 103.835457,175.890411 119.096855,159.632706 
	C128.007736,150.140106 136.822113,140.000183 143.028702,128.695847 
	C148.320786,119.057106 156.280930,111.299332 160.528137,101.095268 
	C161.873505,97.863014 163.384018,94.425682 167.214188,92.761719 
	C171.786224,90.775467 175.076279,92.459328 175.168427,97.503426 
	C175.241150,101.484482 173.510223,105.017212 171.062088,107.975380 
	C167.963455,111.719582 166.725098,116.583313 163.317215,120.110710 
	C162.518890,120.937042 162.144135,122.286163 163.375214,123.200142 
	C164.267899,123.862892 165.307571,123.610336 166.142349,122.920250 
	C176.607407,114.269058 188.871307,107.762283 197.732254,97.242126 
	C202.104492,92.051208 205.701141,86.179665 209.384628,80.446419 
	C211.544540,77.084587 208.809357,72.019394 204.116577,70.545776 
	C198.681259,68.839005 193.099487,68.264236 187.359741,68.509560 
	C159.298553,69.708916 132.647751,77.515305 106.074852,85.685326 
	C101.669785,87.039696 97.403618,88.842407 94.006454,92.213684 
	C95.318375,94.324661 97.862587,93.807526 99.446114,95.496567 
	C97.427742,99.175026 93.416542,99.472801 90.216118,100.444885 
	C86.543800,101.560295 82.635963,102.947708 78.561729,101.548058 
	C73.526161,99.818161 73.336876,97.331619 76.466270,93.244148 
	C78.846252,90.135529 81.849396,87.441338 83.633049,83.853523 
	C85.098152,80.906494 87.392647,79.648903 90.849464,79.586197 
	C97.575935,79.464172 103.582901,76.805275 109.874413,74.421326 
	C126.010712,68.307053 142.295715,62.271736 159.764008,60.687218 
	C172.485031,59.533318 185.122971,56.571575 197.944901,57.852417 
	C204.963120,58.553505 213.088455,57.663979 217.905609,64.539932 
	C221.230804,69.286293 223.758621,74.872681 221.563614,80.845627 
	C219.852982,85.500473 217.782059,90.268936 214.785736,94.148529 
	C210.104095,100.210243 205.135788,106.197189 199.853531,111.661301 
	C193.819214,117.903381 186.245255,122.681107 178.610016,127.118797 
	C169.625671,132.340591 161.083084,138.027618 153.327927,145.232925 
	C147.903336,150.272919 142.346466,155.224854 137.018494,160.420502 
	C132.498474,164.828293 131.676224,170.146713 132.244095,176.019791 
	C132.490402,178.567322 133.882080,179.207153 136.009933,178.290482 
	C138.760727,177.105408 141.638062,176.023422 144.080154,174.343536 
	C159.213608,163.933426 175.967468,156.125641 189.681580,143.258621 
	C195.192062,138.088501 199.399643,131.301575 206.284790,127.476822 
	C207.578186,126.758331 208.407791,124.933159 209.097702,123.453735 
	C210.806351,119.789757 213.887589,119.694466 217.151306,120.158852 
	C220.740540,120.669548 220.143036,123.585716 220.236435,126.007950 
	C220.488464,132.543976 221.030945,132.971405 227.325943,130.916382 
	C238.422623,127.293808 246.995148,119.908852 255.059082,111.891251 
	C260.267365,106.712898 265.534393,101.637199 271.561615,97.415199 
	C272.782074,96.560303 274.202026,95.985420 275.401245,95.105904 
	C278.911896,92.531181 281.980103,94.484764 284.367737,96.577972 
	C286.530304,98.473885 285.272217,101.277611 283.949371,103.468750 
	C279.320709,111.135628 274.068756,118.367294 268.364410,125.267319 
	C267.427185,126.400978 266.094971,127.234016 265.781555,128.898544 
	C269.991669,132.532471 270.990997,137.066589 269.150879,142.145569 
	C267.768585,145.960907 266.951324,149.783264 267.275482,153.856293 
	C267.438202,155.901031 268.188019,156.913773 270.396881,156.654312 
	C277.850433,155.778732 283.704773,152.536194 287.785309,145.993164 
	C290.581909,141.508881 293.991180,137.410721 297.020386,133.065903 
	C298.735626,130.605698 301.201752,130.320236 303.676544,130.819946 
	C306.583405,131.406906 305.784454,134.123901 306.129883,136.156586 
	C307.297974,143.029968 302.148407,146.901138 298.876373,151.690735 
	C297.703186,153.408066 294.154968,154.507477 296.306763,157.255249 
	C298.137573,159.593109 300.949921,159.926987 304.014984,158.750000 
	C308.548401,157.009125 312.964935,155.112534 316.779480,152.083862 
	C323.424225,146.808075 331.737335,144.060333 337.869385,137.985336 
	C339.854553,136.018661 342.437561,136.806183 344.379944,138.081024 
	C346.849274,139.701660 347.541138,142.444748 346.520966,145.175690 
	C345.188751,148.741852 343.452698,152.156296 341.926086,155.651611 
	C341.681061,156.212646 341.622223,156.854996 341.459961,157.532181 
	C343.764191,158.161255 344.792419,156.826263 345.547363,155.338760 
	C349.092285,148.354202 354.767731,143.568802 361.311188,139.560349 
	C372.174469,132.905624 381.291656,124.399422 388.766632,114.015182 
	C390.689819,111.343513 393.767639,108.775505 397.679718,111.390884 
	C401.501251,113.945717 400.196198,117.037994 398.320465,120.078674 
	C394.855194,125.695976 390.053589,130.087723 385.546021,134.835938 
	C380.153534,140.516235 373.876068,145.812836 371.147949,153.643387 
	C370.033386,156.842590 360.393219,163.705261 357.087036,163.349335 
	C355.504181,163.178925 353.111572,162.659561 352.622040,161.593048 
	C350.702515,157.411087 348.116119,158.695847 344.938812,160.168808 
z"/>
<path fill="#000000" opacity="1.000000" stroke="none" 
	d="
M826.522705,145.699432 
	C830.594421,144.235260 834.446899,144.744675 838.232788,144.971909 
	C843.405640,145.282364 843.208862,149.810028 844.093933,153.990250 
	C852.842407,150.991074 861.498108,148.939423 869.267334,144.399490 
	C873.279297,142.055084 877.274475,139.681763 881.287659,137.339340 
	C888.931763,132.877579 894.940186,126.184708 902.303833,121.474258 
	C913.200684,114.503654 918.074951,102.703224 926.265320,93.609100 
	C928.439636,91.194824 931.018494,89.852768 934.073853,89.885117 
	C938.225464,89.929077 940.238342,93.393303 938.378540,97.027054 
	C934.250610,105.092216 929.231506,112.386253 922.994019,119.164337 
	C916.402893,126.326675 907.976196,132.159714 904.588623,142.127258 
	C902.569641,148.068024 902.767395,149.439697 908.875244,148.683044 
	C924.290039,146.773438 939.734985,146.541016 955.212341,146.838425 
	C960.033142,146.931061 964.846375,147.397095 969.664429,147.668488 
	C971.374084,147.764786 973.283997,147.844086 973.713562,149.828125 
	C974.258911,152.346680 971.865723,152.740952 970.306824,153.349411 
	C965.218384,155.335571 959.770630,154.245056 954.500183,154.915268 
	C938.724365,156.921310 922.652771,155.723923 906.998169,159.260468 
	C901.025269,160.609818 895.224915,162.748123 888.923889,162.625824 
	C884.034973,162.530945 882.320679,160.553741 883.572327,155.769806 
	C884.169373,153.487640 886.496582,151.552414 885.117249,148.726883 
	C881.967041,148.172424 880.415039,150.921829 878.133301,152.025681 
	C868.828125,156.527069 858.939148,159.473160 849.300781,163.083328 
	C837.759705,167.406219 826.208313,171.701675 814.652405,175.984573 
	C812.285339,176.861862 809.799255,177.576431 807.342224,176.618744 
	C804.251709,175.414093 802.266296,173.879608 801.215454,169.869598 
	C799.982971,165.166321 803.275513,164.297150 805.767639,161.449020 
	C800.645020,160.015747 795.761169,160.252869 791.397827,158.421066 
	C790.191895,157.914780 788.779053,157.902954 787.570801,157.400528 
	C784.234680,156.013199 781.835083,156.690353 780.189392,160.074997 
	C776.564575,167.529846 769.721069,169.862610 762.237915,170.852997 
	C757.149902,171.526352 755.667053,169.501801 756.967285,164.385010 
	C757.865479,160.850357 760.766479,158.685577 763.201111,155.705826 
	C760.013977,154.351730 757.468567,155.978867 755.162903,156.489166 
	C745.603577,158.604828 735.696838,157.913376 726.175476,160.642746 
	C722.807556,161.608200 721.345886,163.935608 719.556702,165.889099 
	C715.381409,170.447800 704.924377,174.621552 699.375977,172.947296 
	C695.695496,171.836685 694.986877,168.683945 694.954407,165.367249 
	C694.913757,161.212326 693.203918,160.370117 689.637207,162.295883 
	C679.920532,167.542084 670.090210,169.795227 660.064392,163.031464 
	C658.675903,162.094727 657.670227,162.912537 656.421814,163.477905 
	C648.897095,166.885788 641.600403,171.004150 632.877747,170.614899 
	C627.337585,170.367661 625.861755,169.075378 625.702148,163.451935 
	C625.593567,159.627182 625.517395,155.801437 625.383362,151.977661 
	C625.374146,151.715866 625.001465,151.466782 624.294983,150.581940 
	C619.628418,153.829056 614.048645,155.179550 608.838318,158.163177 
	C602.302368,161.905899 596.691345,166.018173 591.013916,170.900040 
	C587.623474,173.815384 583.088867,178.664062 576.695496,177.801315 
	C575.394714,177.625778 573.738525,180.083450 571.429932,182.007553 
	C572.383911,178.561600 568.739380,174.966492 574.056885,173.462143 
	C574.379456,173.370865 574.297852,171.957413 574.458740,171.170258 
	C575.435608,166.389709 578.202576,162.715515 582.802002,161.510147 
	C588.577209,159.996628 592.132507,155.429398 596.803345,152.459946 
	C599.277039,150.887314 601.397034,148.576050 604.329468,147.867722 
	C610.231323,146.442123 613.652161,140.880402 619.341187,139.167099 
	C621.721130,138.450363 624.010071,137.285095 626.433105,136.884109 
	C634.771790,135.504135 637.705200,138.568832 637.445312,146.745132 
	C637.292480,151.552597 635.414856,156.074219 635.368896,161.969727 
	C642.426575,155.742310 651.165588,154.911774 657.784729,149.138107 
	C664.043091,143.679184 670.710144,138.913086 675.155396,131.664917 
	C676.113281,130.103043 678.245911,129.207214 679.936829,128.165924 
	C681.389160,127.271523 682.727844,125.237709 684.743652,126.766411 
	C686.764832,128.299133 686.555054,130.638306 685.984436,132.751999 
	C684.015503,140.045242 678.997742,145.453903 674.367004,151.083588 
	C673.264099,152.424423 670.915283,153.423416 672.240540,155.549423 
	C673.678101,157.855728 676.042603,156.447601 678.141296,156.401611 
	C686.763794,156.212738 690.819153,147.846405 698.185181,145.481354 
	C700.087708,144.870514 701.774780,143.883591 703.210815,142.368286 
	C704.816406,140.674042 706.425415,137.609909 709.220398,139.707855 
	C711.750793,141.607193 713.488831,144.603882 712.148132,148.071732 
	C711.013428,151.006500 709.414368,153.758545 708.115356,156.634155 
	C707.393433,158.232300 705.929382,159.664169 706.770020,162.105835 
	C709.600281,162.301392 711.867249,160.587265 713.782959,159.115723 
	C719.053345,155.067230 725.478943,152.419479 728.793335,145.903595 
	C730.544983,142.460159 733.735901,139.871765 735.651672,136.279541 
	C737.073120,133.614456 740.299194,134.431793 742.802490,135.842926 
	C745.297546,137.249451 745.160767,139.119904 743.810974,141.304138 
	C743.115967,142.428864 742.633423,143.691818 742.117065,144.918533 
	C741.027710,147.506729 742.051453,148.568069 744.721375,148.793900 
	C750.178772,149.255569 755.322205,148.061172 760.299866,146.035248 
	C761.705261,145.463257 763.031067,144.925980 764.574280,144.866928 
	C768.122559,144.731155 772.183167,145.641983 771.208618,139.344147 
	C770.817261,136.814880 774.346069,135.897568 776.441956,134.732224 
	C780.268799,137.029678 784.366943,138.577759 784.839905,144.151627 
	C785.070068,146.864517 788.687256,147.670761 791.213745,148.275604 
	C793.508545,148.825012 794.786316,147.153397 795.371399,144.957397 
	C795.780640,143.421494 797.111755,143.004669 798.509094,142.984787 
	C802.338989,142.930298 806.170166,142.924698 810.000244,142.961807 
	C810.637024,142.967987 811.673645,143.105377 811.844727,143.487183 
	C813.942078,148.167709 817.450684,146.891739 820.938477,145.758041 
	C822.711670,145.181671 824.401306,147.367752 826.522705,145.699432 
M798.700623,150.460144 
	C797.513184,150.903442 796.151001,152.170990 797.982788,152.558472 
	C802.240234,153.459076 806.701294,153.683075 811.751465,152.068771 
	C810.531555,151.151688 810.167114,150.641174 809.783936,150.626648 
	C806.344910,150.496399 802.902588,150.453354 798.700623,150.460144 
z"/>
<path fill="#000000" opacity="1.000000" stroke="none" 
	d="
M580.297607,67.201294 
	C589.177917,62.474716 598.351746,59.354992 607.365723,55.947330 
	C613.842773,53.498760 620.936523,54.461391 627.673767,55.270149 
	C632.892395,55.896603 638.033569,57.568249 643.073792,59.194916 
	C653.196350,62.461823 657.758728,70.678543 659.156799,80.238297 
	C661.854309,98.682510 654.050842,112.773483 639.254150,123.466209 
	C628.486450,131.247391 616.665833,135.263992 603.283936,134.190659 
	C598.093445,133.774323 593.996826,134.824768 591.695862,140.468567 
	C590.581238,143.202591 587.506958,145.112137 585.411072,147.475876 
	C574.328613,159.974670 563.048035,172.281738 551.004883,183.875732 
	C549.856445,184.981339 549.254822,186.667206 548.444275,188.108978 
	C546.849670,190.945419 541.654175,192.695282 539.468079,190.703674 
	C536.734314,188.213165 536.902649,184.852249 539.065918,182.147064 
	C546.691223,172.611649 554.182251,162.880112 563.788147,155.209061 
	C570.944641,149.494095 575.119995,141.327087 581.418701,134.919769 
	C583.842773,132.453873 580.925415,131.544296 579.145081,130.280914 
	C573.485107,126.264458 567.044983,122.929733 564.580017,115.680893 
	C566.784058,113.484253 569.601685,113.202713 571.757019,113.955399 
	C578.700012,116.380051 582.158264,111.197578 586.632202,107.962013 
	C591.420898,104.498802 596.084595,100.673874 601.337891,98.097908 
	C606.075195,95.774933 609.422302,99.197151 611.804626,103.242836 
	C611.000244,108.703789 608.660400,113.681007 606.351929,118.719437 
	C604.804138,122.097466 605.665039,124.029892 610.143005,124.431999 
	C616.331116,124.987679 621.208862,122.246475 625.996216,119.403679 
	C635.226990,113.922287 642.469604,106.601593 646.021179,96.049698 
	C648.020203,90.110466 648.234863,84.556618 645.988525,78.549080 
	C644.092468,73.478287 640.476074,71.009445 635.952209,69.085938 
	C618.354187,61.603371 602.120544,67.165741 586.039917,74.255600 
	C585.583008,74.457031 584.976440,74.566002 584.712463,74.920959 
	C580.414917,80.699951 573.139771,80.183136 567.386841,82.830902 
	C564.648743,84.091118 562.113708,85.175728 559.913452,87.251312 
	C558.137024,88.927078 555.922913,89.772888 553.509460,88.513168 
	C552.341003,87.903259 552.023682,86.740105 552.456848,85.492928 
	C553.262451,83.173164 554.517578,81.691193 557.291382,81.160919 
	C564.189636,79.842186 570.506592,77.193825 574.737061,71.114128 
	C576.047974,69.230270 578.149963,68.515327 580.297607,67.201294 
M581.121460,120.436615 
	C587.713440,124.084396 593.255737,121.885925 595.889771,114.612297 
	C596.294128,113.495895 596.735107,112.429092 595.878784,111.357445 
	C594.712036,109.897354 593.365845,110.819099 592.304321,111.350121 
	C588.995300,113.005508 586.306519,115.763229 582.157349,115.898048 
	C580.249451,115.960030 579.919434,118.018929 581.121460,120.436615 
z"/>
<path fill="#000000" opacity="1.000000" stroke="none" 
	d="
M451.024750,162.030487 
	C446.327240,167.202789 441.099243,171.226151 435.816345,175.203262 
	C433.067627,177.272583 430.636322,176.106003 428.554962,174.487396 
	C426.145538,172.613663 428.281311,170.568863 429.050568,168.694717 
	C430.623230,164.863083 433.771820,162.238159 436.690552,159.579651 
	C441.418060,155.273773 444.964966,150.030029 449.004364,145.177811 
	C450.111542,143.847839 450.760315,142.561539 449.699585,140.686096 
	C447.610718,136.992920 449.928650,135.561768 453.141663,134.837006 
	C459.539825,133.393768 463.392334,128.820938 463.974701,122.214310 
	C464.192963,119.738403 464.601227,117.242790 465.264740,114.851006 
	C466.297729,111.127220 465.669312,108.921265 461.218109,109.314224 
	C460.396454,109.386757 459.503113,109.429008 458.735809,109.188553 
	C456.441071,108.469429 454.318176,107.340271 453.967010,104.673615 
	C453.571899,101.673355 456.317749,102.016632 457.989258,101.262428 
	C461.844513,99.522873 466.461151,99.651649 469.683929,96.207970 
	C470.335327,95.511978 472.517731,95.429787 473.472351,95.976303 
	C477.966827,98.549339 482.096802,97.247856 486.757935,96.201363 
	C491.845551,95.059113 497.356140,95.761086 502.682739,95.731346 
	C512.646790,95.675713 522.641113,96.172005 532.445007,93.702950 
	C535.447998,92.946663 538.133972,90.905739 541.528931,91.648041 
	C542.855713,91.938133 544.196960,91.903137 544.831970,93.505524 
	C544.417969,95.810219 542.456299,96.353378 540.599304,97.111603 
	C531.474609,100.837372 521.715576,102.561775 512.138000,102.925270 
	C500.510620,103.366539 489.152435,106.744362 477.046478,105.037689 
	C477.478271,108.145309 479.944672,109.633163 480.017059,112.159653 
	C486.590088,109.269241 491.941010,113.946274 492.843994,123.427231 
	C487.384552,124.860695 485.355621,114.803970 478.414337,120.229080 
	C477.192993,123.491379 475.484772,127.959030 473.850800,132.453659 
	C472.844391,135.222122 473.984711,136.503433 476.841736,136.681717 
	C481.548798,136.975449 486.148865,136.860458 490.474518,134.591553 
	C491.955597,133.814682 493.723877,133.165939 495.011444,134.874054 
	C496.439117,136.767960 494.699432,137.853455 493.636902,139.074661 
	C490.316864,142.890503 485.579163,143.371536 481.089294,144.132294 
	C478.168091,144.627258 475.095917,144.147842 472.110962,144.369217 
	C467.139465,144.737915 463.050598,146.281631 460.203949,151.096588 
	C457.874878,155.036057 454.258545,158.214493 451.024750,162.030487 
z"/>
</svg>