<?xml version="1.0" standalone="no"?>
<!DOCTYPE svg PUBLIC "-//W3C//DTD SVG 20010904//EN"
 "http://www.w3.org/TR/2001/REC-SVG-20010904/DTD/svg10.dtd">
<svg version="1.0" xmlns="http://www.w3.org/2000/svg"
 width="392.000000pt" height="616.000000pt" viewBox="0 0 392.000000 616.000000"
 preserveAspectRatio="xMidYMid meet">
<metadata>
Created by potrace 1.15, written by Peter Selinger 2001-2017
</metadata>
<g transform="translate(0.000000,616.000000) scale(0.100000,-0.100000)"
fill="#000000" stroke="none">
<path d="M2963 5755 c-174 -33 -449 -136 -688 -256 -165 -84 -320 -173 -330
-190 -4 -5 -27 -20 -53 -33 -58 -29 -203 -127 -256 -172 -21 -18 -54 -40 -73
-49 -50 -24 -97 -59 -197 -145 -48 -41 -114 -97 -146 -125 -33 -27 -73 -71
-90 -97 -17 -26 -49 -65 -72 -87 -22 -23 -37 -41 -33 -41 4 0 -6 -12 -21 -27
-16 -16 -54 -57 -84 -93 -30 -36 -57 -67 -60 -70 -3 -3 -21 -29 -40 -59 -19
-30 -65 -94 -102 -143 -38 -50 -89 -131 -114 -181 -26 -51 -70 -132 -99 -182
-37 -62 -63 -123 -84 -196 -17 -59 -41 -129 -54 -155 -19 -43 -22 -65 -22
-189 0 -137 1 -141 29 -190 39 -67 51 -79 120 -132 67 -51 228 -119 324 -137
67 -12 277 -4 322 13 14 5 70 22 125 36 105 29 249 89 326 137 25 15 51 28 57
28 6 0 31 17 56 38 25 20 63 49 85 64 53 36 143 175 161 250 27 118 -6 233
-95 320 -69 68 -307 115 -371 73 -32 -21 -61 -74 -69 -126 -7 -46 -7 -47 24
-54 45 -10 89 3 108 31 22 34 68 57 102 49 37 -8 117 -89 132 -132 28 -85 -26
-210 -140 -320 -107 -104 -307 -223 -406 -242 -33 -6 -91 -18 -130 -26 -82
-17 -259 -19 -336 -5 -118 22 -226 100 -259 185 -7 17 -14 71 -17 120 -5 92
-2 108 61 330 13 46 86 195 166 340 97 173 249 368 474 608 66 71 110 125 108
135 -2 14 -1 15 7 2 8 -12 13 -11 31 5 11 10 18 25 15 32 -3 8 0 11 6 8 6 -4
38 20 72 52 34 33 124 108 199 167 76 60 135 113 131 119 -3 6 -1 7 5 3 15 -9
84 43 75 57 -3 6 -1 7 6 3 20 -12 188 103 173 119 -4 5 -2 5 5 1 16 -9 65 23
56 37 -3 6 -1 7 5 3 7 -4 58 20 115 53 57 34 107 61 111 61 15 0 55 38 48 45
-4 5 -2 5 5 2 10 -6 122 35 148 54 20 15 229 90 333 120 85 25 133 32 234 36
l127 6 36 -36 c32 -32 35 -40 35 -93 0 -34 -13 -107 -31 -174 -17 -63 -35
-131 -39 -150 -14 -61 -266 -531 -334 -619 -61 -82 -141 -210 -182 -293 -46
-91 -109 -180 -169 -238 -49 -46 -125 -143 -125 -157 0 -5 -13 -24 -28 -43
-74 -93 -142 -221 -142 -269 0 -8 12 -39 26 -67 24 -48 31 -54 94 -78 87 -34
228 -60 405 -75 71 -5 80 -8 83 -27 3 -19 -3 -22 -50 -27 -50 -5 -187 -44
-198 -56 -3 -3 -25 -17 -50 -30 -65 -35 -184 -116 -255 -173 -33 -27 -93 -70
-132 -96 -40 -26 -75 -53 -78 -60 -3 -8 -2 -31 1 -52 6 -34 12 -41 46 -55 31
-12 47 -13 79 -5 22 6 43 19 46 28 9 26 93 122 106 122 11 0 99 54 167 103 76
53 164 106 201 121 23 10 52 24 63 32 44 31 85 0 45 -34 -24 -20 -117 -160
-142 -214 -10 -21 -34 -57 -55 -81 -20 -24 -62 -76 -92 -115 -148 -194 -225
-286 -333 -397 -43 -44 -85 -92 -94 -106 -8 -14 -26 -32 -39 -40 -12 -8 -103
-93 -201 -189 -149 -146 -358 -347 -426 -410 -9 -8 -36 -35 -59 -60 -42 -43
-116 -107 -256 -218 -37 -29 -74 -58 -82 -65 -8 -7 -27 -20 -43 -30 -31 -20
-34 -47 -10 -88 15 -25 23 -29 64 -29 37 0 58 8 109 41 34 22 68 46 75 52 7 7
36 32 65 57 29 25 81 70 114 101 234 213 599 488 728 549 72 34 208 109 230
128 27 22 106 61 150 73 24 7 55 21 70 31 14 10 30 18 35 18 12 0 225 108 237
120 6 6 18 10 28 10 10 0 46 14 80 31 35 17 70 34 78 39 8 4 16 19 18 34 3 26
3 26 -60 26 -35 0 -68 -4 -74 -9 -5 -5 -44 -18 -87 -30 -43 -12 -146 -50 -230
-85 -84 -36 -171 -69 -194 -76 -24 -6 -51 -19 -60 -29 -23 -24 -182 -115 -189
-108 -10 9 15 44 54 79 22 18 44 42 50 53 5 11 65 76 132 145 108 111 300 348
300 370 0 5 17 29 38 54 134 161 174 218 232 334 35 69 42 90 37 122 -6 43 -5
44 21 31 31 -16 88 -31 115 -31 23 0 27 4 27 28 0 30 -34 62 -80 77 -14 4 -56
23 -94 42 -105 53 -402 123 -518 123 -53 0 -63 3 -90 30 -25 25 -29 36 -24 61
8 39 127 218 309 465 25 33 59 86 77 117 18 32 43 66 57 76 13 11 36 44 50 73
14 29 42 72 62 95 50 57 104 136 161 235 27 46 59 101 73 123 77 125 175 346
212 475 10 36 26 94 36 129 23 77 24 131 4 199 -22 72 -93 141 -171 165 -77
24 -201 29 -291 12z"/>
<path d="M3205 2300 c-70 -31 -145 -129 -166 -217 -7 -26 -16 -56 -21 -67 -27
-51 -84 -376 -75 -422 5 -27 -7 -49 -22 -40 -6 4 -19 26 -29 49 -21 47 -79
103 -117 113 -54 14 -108 -4 -152 -50 -45 -47 -50 -46 -72 10 -36 92 -141 128
-241 83 -66 -29 -257 -228 -335 -348 -91 -141 -172 -282 -212 -369 -19 -42
-43 -95 -53 -117 -11 -22 -39 -98 -64 -170 -46 -129 -55 -189 -36 -226 20 -37
109 -65 125 -39 3 6 15 10 25 10 26 0 206 164 242 220 49 77 192 240 211 240
9 0 36 6 59 12 35 11 44 20 62 60 12 26 24 48 29 48 12 0 8 -46 -9 -95 -40
-118 -26 -168 51 -179 87 -14 100 3 140 187 14 59 36 145 50 190 29 98 137
377 145 377 8 0 68 -114 101 -193 60 -142 87 -212 93 -237 8 -40 29 -61 66
-69 44 -10 89 5 99 33 5 11 6 113 3 224 -3 134 -1 234 7 290 32 224 46 295 81
399 45 136 88 197 147 208 51 9 53 11 42 43 -20 58 -98 77 -174 42z m-798
-672 c11 -19 3 -311 -9 -325 -6 -7 -20 -13 -33 -13 -27 0 -134 -108 -164 -167
-17 -35 -27 -43 -58 -49 -21 -3 -48 -13 -61 -21 -38 -24 -96 -94 -105 -126
-14 -51 -167 -190 -167 -152 0 6 30 68 48 100 6 11 53 106 105 211 102 206
151 276 319 457 89 95 109 109 125 85z"/>
</g>
</svg>
