<?xml version="1.0" encoding="UTF-8" standalone="no"?>
<svg
   xmlns:dc="http://purl.org/dc/elements/1.1/"
   xmlns:cc="http://creativecommons.org/ns#"
   xmlns:rdf="http://www.w3.org/1999/02/22-rdf-syntax-ns#"
   xmlns:svg="http://www.w3.org/2000/svg"
   xmlns="http://www.w3.org/2000/svg"
   version="1.1"
   id="svg2191"
   width="525"
   height="312"
   viewBox="0 0 525 312">
  <metadata
     id="metadata2197">
    <rdf:RDF>
      <cc:Work
         rdf:about="">
        <dc:format>image/svg+xml</dc:format>
        <dc:type
           rdf:resource="http://purl.org/dc/dcmitype/StillImage" />
        <dc:title></dc:title>
      </cc:Work>
    </rdf:RDF>
  </metadata>
  <defs
     id="defs2195" />
  <g
     id="g2199">
    <path
       style="fill:#000000"
       d="m 522.98349,309.52864 c -2.95531,-5.52204 -4.14902,-14.69677 -5.08488,-39.08181 -2.66711,-69.49536 -4.67116,-83.19957 -13.05581,-89.27897 -6.24772,-4.53 -18.51201,-3.14457 -38.45129,4.34361 -12.80029,4.80714 -21.49027,6.65774 -25.18921,5.36424 -2.46358,-0.8615 -2.81672,-1.55935 -3.2626,-6.44747 l -0.5,-5.48141 h -5.84445 c -5.2659,0 -6.07601,-0.29036 -8.18359,-2.93313 l -2.33913,-2.93313 -6.13655,3.78769 c -6.7414,4.16103 -13.05307,5.60626 -15.52487,3.55484 -1.17329,-0.97374 -1.39007,-2.33591 -0.89603,-5.63039 0.85765,-5.71919 -0.28353,-5.63768 -8.7745,0.62674 -8.48553,6.26041 -10.11938,8.76374 -10.33024,15.82769 -0.1767,5.9193 -1.60386,7.68781 -3.43812,4.26046 -1.52559,-2.85059 -4.37882,-2.58156 -10.64528,1.00375 -3.66361,2.0961 -6.38556,2.96512 -8.61354,2.75 -4.50162,-0.43466 -4.63766,-2.88389 -0.3958,-7.12575 3.26031,-3.26031 6.13403,-4.62617 12.8721,-6.11801 3.16682,-0.70115 3.57582,-3.07312 1.29157,-7.49038 -1.91309,-3.6995 -11.11994,-11.93645 -14.2084,-12.71161 -8.34429,-2.09428 -21.8587,3.05487 -38.33317,14.6054 -14.10714,9.89075 -19.89936,13.20264 -24.06825,13.76181 -3.57485,0.47949 -3.90198,0.34431 -3.27091,-1.3516 0.38566,-1.03641 6.10756,-11.10938 12.71534,-22.38438 24.19828,-41.29007 28.98859,-49.94285 40.13705,-72.499999 C 363.44997,57.485982 370.16468,33.600063 365.87957,18.169497 362.5868,6.3123054 348.84768,1.2593694 329.69868,4.8629914 285.44833,13.190401 218.18125,56.629654 134.4397,130.95595 115.36633,147.88486 10.833996,251.43977 7.3896196,256.81806 c -1.765122,2.75619 -1.767044,2.92371 -0.04796,4.18073 0.984963,0.72023 4.5599634,1.56851 7.9444454,1.88507 23.304976,2.17982 23.721959,2.36613 4.951084,2.21222 C -0.74094536,264.92407 -1.6367844,264.61836 1.4332436,258.67902 3.9815196,253.74907 82.204504,175.58924 111.4397,148.76137 171.12517,93.990613 217.29393,57.282146 257.27318,32.810169 302.06408,5.3929054 336.46447,-4.8358436 355.84362,3.5008434 377.43055,12.787294 375.29677,40.908542 348.96207,94.193063 338.578,115.20375 330.51368,129.8829 307.47712,169.70633 c -5.96846,10.31773 -10.64012,18.97113 -10.38147,19.22979 0.25866,0.25865 6.51688,-3.6366 13.90717,-8.65612 22.88185,-15.54148 34.92505,-20.27303 45.54922,-17.89544 4.89987,1.09654 6.60373,2.20316 13.42191,8.7172 l 7.80957,7.46122 12.10517,-8.49928 c 17.74906,-12.46197 19.84169,-12.56229 15.46002,-0.74119 -1.46751,3.95915 -2.39913,7.46753 -2.07026,7.7964 0.32887,0.32887 4.98694,-2.16281 10.35126,-5.53707 5.36432,-3.37425 10.24214,-6.13501 10.83959,-6.13501 0.59745,0 1.51021,1.9125 2.02834,4.25 l 0.94206,4.25 7.75,-0.31707 7.75,-0.31706 v 6.59845 c 0,4.9199 0.37862,6.74374 1.48838,7.16959 2.3404,0.8981 11.2047,-1.57154 20.91322,-5.82652 11.09983,-4.86476 19.04796,-6.77361 28.2833,-6.79261 8.26236,-0.017 11.6678,1.02694 15.65438,4.79884 7.27492,6.88317 8.67823,15.14517 11.15693,65.68638 0.86315,17.6 2.0079,36.725 2.54387,42.5 0.53597,5.775 1.26084,13.5375 1.61081,17.25 0.65072,6.90285 0.21016,8.2274 -1.6071,4.83181 z M 189.29971,199.06909 c -11.84472,-8.84864 -19.22085,-18.49337 -9.70661,-12.69197 3.81295,2.32499 17.3466,14.95692 17.3466,16.19084 0,1.68324 -1.81735,0.85095 -7.63999,-3.49887 z M 401.1897,136.74418 c -4.02058,-1.49249 1.97147,-4.79273 16.67472,-9.18394 11.48955,-3.43143 14.07528,-3.76165 14.07528,-1.79755 0,1.88951 -6.26048,5.09905 -15.5,7.94633 -9.2282,2.84379 -13.48385,3.69077 -15.25,3.03516 z"
       id="path2764" />
  </g>
</svg>
