<?xml version="1.0" encoding="UTF-8" ?>
<!DOCTYPE svg PUBLIC "-//W3C//DTD SVG 1.1//EN" "http://www.w3.org/Graphics/SVG/1.1/DTD/svg11.dtd">
<svg width="249pt" height="88pt" viewBox="0 0 249 88" version="1.1" xmlns="http://www.w3.org/2000/svg">
<g id="#ffffffff">
<path fill="#ffffff" opacity="1.00" d=" M 248.50 0.00 L 249.00 0.00 L 249.00 0.62 C 248.87 0.46 248.62 0.15 248.50 0.00 Z" />
</g>
<g id="#000000ff">
<path fill="#000000" opacity="1.00" d=" M 244.51 0.00 L 248.50 0.00 C 248.62 0.15 248.87 0.46 249.00 0.62 L 249.00 2.20 C 245.22 3.93 240.96 3.35 236.97 4.14 C 224.48 6.36 212.24 9.73 200.02 13.08 C 172.96 20.84 146.12 29.53 119.99 40.04 C 115.49 42.07 109.98 43.96 108.01 48.95 C 106.37 53.46 105.38 58.25 105.08 63.04 C 105.18 64.34 104.82 66.96 106.80 66.77 C 111.55 62.07 113.49 55.33 115.46 49.13 C 116.06 47.17 119.39 47.03 119.96 49.12 C 120.99 52.32 120.60 56.26 123.40 58.65 C 125.01 60.34 127.88 60.21 129.25 58.28 C 133.93 52.15 134.52 44.14 136.94 37.05 C 137.35 35.64 139.16 33.85 140.23 35.78 C 142.81 40.43 142.79 46.93 148.03 49.78 C 152.93 45.16 159.13 41.31 165.97 40.85 C 165.75 44.45 164.96 48.03 165.44 51.65 C 170.26 49.65 173.21 45.09 176.11 40.99 C 180.22 35.20 182.01 28.01 186.74 22.62 C 187.61 21.51 188.97 21.00 190.21 20.40 C 190.38 29.78 181.67 36.61 181.71 45.99 C 181.47 47.86 183.24 49.48 185.04 48.52 C 189.57 45.94 190.58 39.96 195.04 37.33 C 199.18 39.50 197.60 45.91 195.54 49.28 C 198.68 57.79 211.20 59.71 217.07 52.97 C 219.81 50.63 219.20 46.69 220.95 43.83 C 224.62 44.25 223.20 49.21 222.39 51.59 C 220.63 57.24 214.29 58.80 209.15 59.70 C 204.28 60.33 198.33 61.43 194.54 57.42 C 189.68 52.77 182.94 49.80 176.15 50.42 C 171.46 51.41 168.97 56.14 164.85 58.22 C 160.88 56.81 161.27 51.36 160.58 47.91 C 155.53 48.68 152.59 54.51 147.16 53.90 C 144.08 53.99 140.73 52.28 137.86 53.85 C 134.32 57.17 132.26 62.70 127.05 63.80 C 123.77 64.54 121.19 60.79 118.06 61.60 C 114.18 64.34 111.65 68.53 108.50 72.02 C 101.46 69.66 94.59 66.29 87.04 65.99 C 84.24 65.53 81.72 67.09 79.18 68.00 C 74.00 69.63 74.61 76.65 70.17 79.17 C 66.72 81.22 61.90 77.48 59.07 81.03 C 56.22 84.31 52.52 86.89 48.27 88.00 L 47.44 88.00 C 42.57 86.72 38.17 83.83 35.55 79.46 C 33.02 76.11 32.09 71.05 27.77 69.46 C 26.80 73.96 28.45 78.46 28.04 82.96 C 28.06 84.73 25.36 84.78 24.86 83.26 C 22.35 78.57 22.92 72.96 21.07 68.05 C 19.69 63.74 13.62 63.53 12.59 58.95 C 11.61 56.82 13.37 55.12 14.91 53.95 C 15.06 46.07 13.76 38.07 10.71 30.78 C 7.03 33.21 3.70 36.76 2.29 40.96 C 3.42 43.31 5.23 45.26 6.51 47.54 C 2.64 47.96 0.55 44.11 0.00 40.86 L 0.00 38.57 C 0.76 35.55 2.43 32.80 4.87 30.85 C 10.49 26.23 17.83 24.05 25.02 23.79 C 29.49 23.75 34.66 24.62 37.53 28.42 C 39.80 31.55 38.68 35.76 36.84 38.81 C 32.86 45.51 26.56 50.31 20.97 55.57 C 24.88 58.43 29.11 63.81 34.54 61.34 C 39.99 58.64 45.87 55.42 48.94 49.94 C 51.44 43.44 51.45 35.43 57.17 30.60 C 61.08 33.67 62.16 38.90 63.18 43.51 C 63.85 46.37 63.16 50.12 65.96 51.97 C 67.34 53.19 69.68 53.38 70.66 51.57 C 71.80 49.53 74.06 49.35 76.15 49.60 C 77.41 53.75 76.66 58.34 78.82 62.22 C 84.66 59.55 83.60 51.82 88.05 47.83 C 91.46 50.55 90.61 55.28 91.99 58.99 C 92.65 60.82 93.69 63.37 96.01 63.33 C 98.18 62.10 98.29 59.31 98.50 57.11 C 98.97 50.19 100.01 42.61 104.73 37.19 C 109.85 41.43 116.13 37.32 121.41 35.62 C 156.01 21.62 192.18 12.18 228.32 3.17 C 233.66 1.86 239.04 0.65 244.51 0.00 M 15.62 27.40 C 16.75 33.53 16.93 39.93 19.26 45.77 C 19.84 47.51 21.91 48.71 23.57 47.53 C 27.46 44.87 30.21 40.90 33.28 37.39 C 35.13 35.35 36.83 31.95 34.08 29.84 C 28.66 26.28 21.74 27.73 15.62 27.40 M 56.20 50.81 C 58.46 52.55 60.31 49.05 60.04 47.09 C 59.82 43.69 59.97 39.50 57.18 37.07 C 54.49 40.95 53.28 46.77 56.20 50.81 M 57.26 65.20 C 59.07 65.13 59.47 63.31 59.81 61.87 C 60.40 58.86 60.10 55.02 57.11 53.37 C 53.26 56.17 54.92 61.93 57.26 65.20 M 37.61 71.17 C 43.71 73.12 49.61 75.85 55.95 76.92 C 55.94 74.21 54.58 71.79 53.86 69.23 C 52.67 65.73 51.96 62.02 50.16 58.76 C 49.62 57.75 48.33 56.58 47.12 57.30 C 41.83 59.80 37.95 65.29 37.61 71.17 M 66.04 57.07 C 63.44 60.43 62.74 64.85 62.34 68.96 C 62.06 71.31 62.42 74.33 65.00 75.24 C 67.59 75.52 69.04 72.82 69.73 70.74 C 70.76 67.13 71.31 63.17 70.24 59.51 C 69.76 57.84 67.79 56.12 66.04 57.07 M 38.14 75.10 C 37.72 80.70 45.31 87.00 50.25 82.72 C 47.71 78.58 42.93 75.74 38.14 75.10 Z" />
</g>
</svg>
