<?xml version="1.0" standalone="no"?>
<!DOCTYPE svg PUBLIC "-//W3C//DTD SVG 20010904//EN"
 "http://www.w3.org/TR/2001/REC-SVG-20010904/DTD/svg10.dtd">
<svg version="1.0" xmlns="http://www.w3.org/2000/svg"
 width="243.000000pt" height="154.000000pt" viewBox="0 0 243.000000 154.000000"
 preserveAspectRatio="xMidYMid meet">
<metadata>
Created by potrace 1.11, written by Peter Selinger 2001-2013
</metadata>
<g transform="translate(0.000000,154.000000) scale(0.100000,-0.100000)"
fill="#000000" stroke="none">
<path d="M603 1461 c-178 -38 -390 -177 -449 -293 -32 -64 -33 -162 -2 -224
12 -24 27 -44 35 -44 18 0 17 9 -7 55 -29 56 -27 142 4 203 57 112 253 235
433 273 53 10 97 19 99 19 14 0 44 -71 44 -105 0 -71 -34 -116 -302 -397 -80
-84 -88 -90 -88 -65 0 17 -5 27 -15 27 -11 0 -15 -13 -15 -52 0 -50 -3 -57
-63 -128 -63 -75 -132 -174 -155 -220 -35 -72 -41 -194 -13 -255 28 -61 53
-78 121 -83 53 -4 67 -1 132 33 85 44 146 90 205 154 l43 46 0 -61 c0 -59 2
-64 45 -112 53 -59 119 -101 166 -104 31 -3 33 0 47 44 15 45 14 52 -11 135
-51 170 -69 292 -66 428 3 94 1 125 -8 125 -7 0 -15 -11 -19 -25 -6 -26 -67
-75 -91 -75 -7 0 -13 11 -13 25 0 27 -23 34 -37 13 -29 -46 -128 -79 -121 -40
2 11 14 18 36 20 45 4 44 32 -1 32 -42 0 -70 -28 -65 -67 3 -25 8 -28 41 -31
26 -2 49 4 73 19 26 16 38 19 47 10 17 -17 56 -13 93 10 l34 21 0 -91 c0 -92
31 -265 71 -402 16 -51 18 -72 9 -93 -9 -24 -14 -27 -38 -21 -15 3 -50 22 -78
40 -71 48 -87 87 -81 201 2 49 8 100 12 113 7 19 5 22 -11 19 -11 -2 -24 -21
-35 -52 -36 -100 -83 -147 -244 -243 -72 -43 -150 -55 -190 -29 -64 42 -72
172 -17 290 33 70 56 104 139 204 47 55 53 59 53 37 0 -16 6 -25 16 -25 14 0
16 8 12 44 -5 43 -3 47 56 113 103 113 157 172 237 258 93 99 119 146 119 217
0 45 -5 59 -31 91 -35 42 -40 43 -156 18z"/>
<path d="M1340 1445 c-104 -19 -150 -35 -222 -73 -91 -48 -133 -84 -168 -146
-46 -79 -38 -136 31 -219 52 -63 69 -44 20 24 -49 67 -56 100 -32 153 34 79
69 115 150 155 140 70 268 96 435 89 130 -6 156 -19 156 -79 0 -64 -85 -169
-211 -259 -34 -25 -83 -66 -108 -92 -25 -27 -49 -48 -52 -48 -4 0 -10 11 -13
25 -7 27 -25 32 -44 13 -16 -16 -15 -28 3 -28 31 0 15 -43 -31 -83 -64 -56
-116 -138 -152 -240 -39 -106 -39 -117 -7 -147 40 -37 132 -40 209 -5 63 28
204 129 213 152 12 30 -8 22 -75 -29 -113 -86 -175 -113 -255 -113 -91 0 -101
19 -62 110 8 17 19 48 26 70 7 22 22 54 33 70 32 49 97 125 107 125 8 0 5
-101 -6 -187 -3 -27 0 -33 14 -33 16 0 19 14 24 120 l6 121 48 55 c26 31 82
78 125 106 75 48 181 151 219 213 26 41 25 115 -1 147 -11 15 -38 30 -64 37
-57 14 -232 12 -316 -4z"/>
<path d="M2120 1271 c-69 -15 -137 -32 -151 -38 -43 -19 -89 -63 -89 -87 0
-30 21 -47 105 -86 131 -61 232 -138 208 -160 -18 -18 -121 -40 -236 -51 -103
-11 -127 -10 -151 2 -16 8 -31 19 -33 25 -6 18 46 74 68 74 10 0 19 7 19 15 0
44 -98 -12 -115 -66 -9 -26 18 -67 53 -80 56 -22 332 12 397 50 45 26 43 51
-9 97 -66 58 -133 104 -169 116 -91 29 -119 54 -92 82 34 34 87 56 166 70 136
24 179 36 179 52 0 17 3 18 -150 -15z"/>
</g>
</svg>
