<?xml version="1.0" encoding="UTF-8" standalone="no"?>
<!-- Created with Inkscape (http://www.inkscape.org/) -->

<svg
   width="266.34723mm"
   height="116.41666mm"
   viewBox="0 0 266.34723 116.41666"
   version="1.1"
   id="svg5"
   xml:space="preserve"
   inkscape:version="1.2.2 (b0a84865, 2022-12-01)"
   sodipodi:docname="drawing.svg"
   xmlns:inkscape="http://www.inkscape.org/namespaces/inkscape"
   xmlns:sodipodi="http://sodipodi.sourceforge.net/DTD/sodipodi-0.dtd"
   xmlns="http://www.w3.org/2000/svg"
   xmlns:svg="http://www.w3.org/2000/svg"><sodipodi:namedview
     id="namedview7"
     pagecolor="#ffffff"
     bordercolor="#000000"
     borderopacity="0.25"
     inkscape:showpageshadow="2"
     inkscape:pageopacity="0.0"
     inkscape:pagecheckerboard="0"
     inkscape:deskcolor="#d1d1d1"
     inkscape:document-units="mm"
     showgrid="false"
     inkscape:zoom="0.65064824"
     inkscape:cx="448.01473"
     inkscape:cy="242.83474"
     inkscape:window-width="1440"
     inkscape:window-height="900"
     inkscape:window-x="0"
     inkscape:window-y="0"
     inkscape:window-maximized="0"
     inkscape:current-layer="layer1" /><defs
     id="defs2" /><g
     inkscape:label="Layer 1"
     inkscape:groupmode="layer"
     id="layer1"
     transform="translate(38.788021,-110.42726)"><path
       style="fill:none;fill-rule:evenodd;stroke:#000000;stroke-width:8;stroke-linecap:round;stroke-linejoin:round;stroke-dasharray:none"
       d="m 8.5609333,153.92114 c 0,0 -2.7710579,9.27702 -16.8673116,31.80693 -14.0962547,22.52991 -18.7950057,26.14433 -18.7950057,26.14433 0,0 12.946939,-34.58227 47.199338,-59.68505 34.252403,-25.10279 50.44018,-29.32569 57.009133,-26.51042 6.568953,2.81526 -53.959262,55.60149 -53.959262,55.60149 0,0 47.379768,-32.74435 103.192315,-47.756 55.81255,-15.01165 72.0183,-11.43971 72.0183,-11.43971 0,0 10.94156,1.1893 5.9465,9.27654 -4.99506,8.08725 -7.37366,8.80082 -7.37366,8.80082"
       id="path302" /><path
       style="fill:none;fill-rule:evenodd;stroke:#000000;stroke-width:8;stroke-linecap:round;stroke-linejoin:round;stroke-dasharray:none"
       d="m 81.076184,177.78489 c 0,0 -16.176363,5.56891 -18.032669,1.32593 -1.856304,-4.24298 6.364472,-12.31898 6.364472,-12.31898 0,0 9.624891,-8.46347 4.016886,-13.58564 -5.608005,-5.12218 -21.784368,12.91049 -17.276202,21.92683 4.508167,9.01633 29.435679,24.92751 81.942569,21.48009 52.50688,-3.44743 64.70545,-31.29199 64.70545,-40.57351 0,-9.28152 -0.79556,-27.31419 -22.01046,-23.33639 -21.2149,3.97779 -31.55717,19.09341 -39.77794,30.76161 -8.22078,11.6682 -8.75115,22.27565 -8.75115,22.27565 0,0 -6.09929,-6.09929 -1.32593,-14.32006 4.77335,-8.22078 13.25931,-19.3586 13.25931,-19.3586 0,0 -16.97192,14.58524 -28.37493,19.09341 -11.40301,4.50817 -21.702899,5.8341 -24.131954,2.38668 -2.429057,-3.44742 7.955587,-10.34227 7.955587,-10.34227 0,0 19.093417,-12.46375 18.563047,-7.6904"
       id="path412" /></g></svg>
