<?xml version="1.0" encoding="UTF-8" standalone="no"?>
<svg
   width="296.38699"
   height="190.56018"
   version="1.1"
   id="svg2472"
   sodipodi:docname="Prime_Minister_Scott_Morrison_signature_from_public_campaign.svg"
   inkscape:version="1.1.1 (3bf5ae0d25, 2021-09-20)"
   xmlns:inkscape="http://www.inkscape.org/namespaces/inkscape"
   xmlns:sodipodi="http://sodipodi.sourceforge.net/DTD/sodipodi-0.dtd"
   xmlns="http://www.w3.org/2000/svg"
   xmlns:svg="http://www.w3.org/2000/svg">
  <defs
     id="defs2476" />
  <sodipodi:namedview
     id="namedview2474"
     pagecolor="#ffffff"
     bordercolor="#111111"
     borderopacity="1"
     inkscape:pageshadow="0"
     inkscape:pageopacity="0"
     inkscape:pagecheckerboard="1"
     showgrid="false"
     fit-margin-top="0"
     fit-margin-left="0"
     fit-margin-right="0"
     fit-margin-bottom="0"
     inkscape:zoom="1.5928753"
     inkscape:cx="132.15096"
     inkscape:cy="88.833067"
     inkscape:window-width="1920"
     inkscape:window-height="1001"
     inkscape:window-x="-9"
     inkscape:window-y="-9"
     inkscape:window-maximized="1"
     inkscape:current-layer="svg2472" />
  <path
     style="fill:#000000"
     d="m 50.202299,183.64189 c -3.77005,-6.5354 -12.79673,-20.78331 -16.85035,-26.59695 -1.09913,-1.57635 -3.91755,-6.45788 -6.26315,-10.84784 -2.3456,-4.38995 -4.50018,-7.60021 -4.78795,-7.13389 -1.15993,1.87961 -4.75757,18.94795 -5.35995,25.42926 -0.60533,6.51322 -1.42989,8.22577 -2.85234,5.9242 -1.13527,-1.83692 1.50857,-20.17823 4.01469,-27.85136 1.36501,-4.17933 2.48184,-8.30872 2.48184,-9.17643 0,-0.86772 -2.05591,-4.40309 -4.56869,-7.85639 C 8.8285693,115.6543 3.9386693,103.56599 0.66305931,87.577476 c -1.19092,-5.81296 -0.82747,-7.39127 1.49664999,-6.49942 2.2639,0.86874 4.67398,6.37732 9.3334697,21.332994 4.94644,15.87668 9.15238,26.14651 10.52124,25.69022 0.53752,-0.17917 1.73649,-2.32027 2.66438,-4.75799 0.92789,-2.43773 3.16085,-8.25723 4.96213,-12.93223 1.80129,-4.675 4.72047,-12.325004 6.48707,-17.000004 3.85192,-10.19344 12.07137,-30.70277 13.42567,-33.5 1.01368,-2.09369 4.20369,-10.18501 6.70227,-17 0.80659,-2.2 2.30847,-5.8 3.33752,-8 3.36701,-7.198346 8.99163,-20.23848 8.99163,-20.846226 0,-0.326977 1.05951,-2.970339 2.35447,-5.8741387 1.29495,-2.903799 2.62792,-6.059549 2.96214,-7.012776 0.66194,-1.88787599 3.68339,-1.37889399 3.68339,0.620488 0,0.645354 -1.62241,4.984709 -3.60536,9.6430117 -4.11433,9.665285 -8.83478,22.912891 -11.03526,30.969641 -0.8262,3.025 -2.09903,7.3 -2.82853,9.5 -0.72949,2.2 -2.07974,8.03286 -3.00055,12.96191 -0.92081,4.92905 -1.95802,9.42114 -2.30491,9.98242 -0.34689,0.56128 -0.69368,1.70342 -0.77065,2.53809 -0.42553,4.61482 -1.80058,20.71827 -2.43507,28.517584 -0.40269,4.95 -0.68435,15.3 -0.62592,23 l 0.10625,14 4.40468,-0.20468 c 2.42258,-0.11258 4.79703,-0.59703 5.27656,-1.07656 0.49584,-0.49584 0.36597,-3.85796 -0.30111,-7.79532 -0.96547,-5.69851 -0.88377,-9.135 0.46176,-19.42344 2.75227,-21.044834 3.66577,-25.144624 5.52395,-24.791334 1.38439,0.26321 1.76789,2.71651 2.5091,16.051014 0.48122,8.65718 1.23634,15.74032 1.67804,15.74032 0.44171,0 1.09636,-2.5875 1.45477,-5.75 1.35496,-11.95558 4.81442,-26.270514 6.34008,-26.234694 2.9652,0.0696 3.20458,1.98449 3.07028,24.560544 -0.1334,22.42613 0.39786,27.26533 3.18216,28.98612 1.58597,0.98019 4.54817,-2.62982 7.43582,-9.06197 1.75912,-3.9184 2.36985,-7.59583 2.82328,-17 0.86636,-17.968344 11.469221,-65.000004 14.653671,-65.000004 2.052,0 1.73708,6.66652 -0.8267,17.5 -1.10636,4.675 -2.31639,12.55 -2.68898,17.5 l -0.67742,9 3.84003,-3.63177 c 2.11202,-1.99747 4.82295,-4.13497 6.02429,-4.75 5.08484,-2.60318 12.66383,-0.15055 16.96648,5.49052 2.69688,3.53578 8.88194,23.311994 9.97408,31.891254 1.2867,10.10766 2.44892,9.28316 8.86505,-6.289 2.10502,-5.10894 4.15495,-9.49149 4.55541,-9.73899 1.36008,-0.84057 2.66472,2.01107 3.9016,8.52799 2.45872,12.95454 8.59785,22.04319 14.83792,21.96673 3.1768,-0.0389 5.06309,-1.53539 11.34169,-8.99778 6.09918,-7.24916 8.94543,-8.80707 12.19735,-6.67633 1.32798,0.87012 3.83628,4.10129 5.574,7.18036 5.07839,8.99841 9.28285,9.52949 18.06708,2.28213 16.70192,-13.77981 20.31809,-14.01216 34.12815,-2.19277 8.44812,7.23035 15.47493,11.21786 21.92312,12.44073 8.5012,1.61222 13.44423,-0.48876 17.91377,-7.61405 0.98701,-1.57348 1.08038,-1.22087 0.55898,2.11098 -0.3506,2.24034 -1.7067,5.09979 -3.08265,6.5 -2.25882,2.29865 -3.15936,2.49552 -11.18148,2.44439 -7.77604,-0.0496 -9.37727,-0.3965 -14.72481,-3.19039 -3.3,-1.72413 -9.45917,-6.04463 -13.68705,-9.60111 -4.22788,-3.55648 -8.97327,-6.74883 -10.54531,-7.09411 -4.07523,-0.89507 -8.6641,1.4079 -16.76764,8.415 -3.85,3.32908 -8.01546,6.3214 -9.25657,6.64961 -6.03911,1.59698 -13.27442,-2.84348 -17.21319,-10.56411 -1.13899,-2.23261 -2.72517,-4.05928 -3.52484,-4.05928 -0.79967,0 -2.92803,1.64727 -4.72968,3.66059 -11.06274,12.36252 -13.01304,13.4837 -19.87742,11.42709 -6.72622,-2.01523 -14.8983,-14.88865 -14.8983,-23.46918 0,-2.89305 -1.37236,-0.95205 -3.45141,4.8815 -1.67346,4.69554 -5.33599,11.10275 -8.28858,14.5 -0.71702,0.825 -2.24894,2.76602 -3.40428,4.31339 -2.06536,2.76617 -2.27055,2.81276 -12.22817,2.77629 -5.57016,-0.0204 -12.28563,0.22302 -14.92326,0.54094 -4.13382,0.49826 -5.34207,0.19941 -8.75437,-2.16532 -2.17726,-1.50884 -4.89339,-4.25579 -6.035851,-6.10432 -2.13572,-3.45566 -3.91408,-4.3791 -3.91408,-2.03242 0,2.19497 -5.98448,10.53174 -8.02503,11.17938 -2.80073,0.88892 -5.48671,-0.95923 -7.47084,-5.14048 -1.4676,-3.09274 -1.74857,-6.48547 -1.70793,-20.62366 0.0267,-9.30708 -0.19217,-16.68117 -0.48648,-16.38686 -1.08538,1.08539 -3.24055,13.31068 -3.27459,18.57534 -0.0193,2.98775 -0.54616,9.41708 -1.17075,14.2874 -1.31617,10.26292 -2.87118,12.13601 -7.22921,8.70798 -2.01972,-1.58871 -3.00394,-1.80067 -4.54114,-0.97799 -1.0794,0.57768 -3.94945,1.05033 -6.37789,1.05033 h -4.41534 l 0.43132,4.75 c 0.70086,7.71832 3.13705,23.26041 4.74162,30.25 2.58508,11.26071 -0.0652,12.27023 -5.85653,2.23084 z m 0.33214,-14.84084 c -0.6072,-4.8895 -1.3191,-11.14 -1.58202,-13.89 -0.86703,-9.06886 -0.94692,-9.20227 -6.61611,-11.04939 -2.88817,-0.94102 -8.06372,-3.2661 -11.50122,-5.16684 -3.4375,-1.90075 -6.25,-3.14057 -6.25,-2.75516 0,2.55481 18.31846,32.43858 19.91622,32.49028 0.32108,0.0104 1.93378,2.22235 3.58378,4.91547 1.65,2.69312 3.1245,4.77262 3.27667,4.62111 0.15216,-0.15151 -0.22013,-4.27597 -0.82732,-9.16547 z m -2.33246,-38.64451 c 0.0643,-6.73502 0.37882,-15.39549 0.69895,-19.24549 0.32014,-3.85 1.06282,-12.986724 1.65042,-20.303834 0.926,-11.53109 3.08424,-25.36181 5.57028,-35.69617 1.31306,-5.45837 -1.6426,-1.15054 -4.17054,6.07848 -1.2849,3.67437 -2.69903,7.18486 -3.14252,7.80109 -0.44348,0.61624 -1.40198,2.92043 -2.13,5.12043 -0.72802,2.2 -1.92677,5.35 -2.66389,7 -0.73711,1.65 -1.9918,4.8 -2.78818,7 -4.91345,13.573424 -7.77395,21.249824 -8.57061,23.000004 -2.00774,4.41083 -7.0708,18.75659 -7.0708,20.03455 0,2.98007 14.57109,11.28803 20,11.40334 l 2.5,0.0531 z m 61.226811,9.50451 c -4.87066,-4.04692 -7.75295,-7.45937 -8.44639,-10 -0.61511,-2.25361 -2.397311,-3.159 -2.397311,-1.21788 0,2.26293 3.254131,8.62243 5.740141,11.21788 1.68373,1.75785 3.67657,2.75 5.52368,2.75 h 2.88963 z m 17.52013,1.25574 c -0.31537,-0.82184 -0.97625,-1.24528 -1.46861,-0.94098 -1.41193,0.87262 -1.04399,2.43524 0.5734,2.43524 0.89208,0 1.24351,-0.5866 0.89521,-1.49426 z m -7.33452,-1.25574 c 0.066,-1.6882 6.00612,-7.17364 7.25098,-6.69594 0.73867,0.28346 1.90692,2.07475 2.5961,3.98066 1.49889,4.14511 4.41845,4.5944 8.58058,1.32047 2.4929,-1.96092 2.66888,-2.53966 2.05243,-6.75 -1.4952,-10.21228 -5.67228,-29.66424 -6.56138,-30.55519 -0.52141,-0.5225 -0.94802,-1.805004 -0.94802,-2.850004 0,-1.045 -1.53,-3.43 -3.4,-5.3 -6.14621,-6.14621 -13.67022,-4.12498 -20.68333,5.55633 -2.20734,3.047154 -3.63765,6.898684 -5.1224,13.793584 -1.94978,9.0544 -1.97323,9.84106 -0.43839,14.71013 1.55899,4.9457 4.3124,8.31477 9.64412,11.80059 2.58525,1.6902 6.97776,2.30845 7.02931,0.98937 z M 67.012859,125.58254 c 0.53843,-9.51458 -0.40278,-21.82995 -1.5291,-20.00754 -1.22157,1.97655 -2.17681,11.13788 -2.17871,20.89531 -0.003,14.75547 2.86136,14.06968 3.70781,-0.88777 z M 102.0251,99.944256 c 2.95229,-15.98252 3.29151,-21.39589 0.94202,-15.03321 -1.61928,4.38519 -5.400141,25.120204 -5.351621,29.349374 0.0616,5.36548 1.84141,-0.41298 4.409601,-14.316164 z M 9.7513893,103.92321 c -2.00398,-6.043314 -3.79555,-10.198784 -3.98128,-9.234384 -0.54452,2.82747 6.1619297,21.736924 7.2936597,20.565154 0.18217,-0.18861 -1.3084,-5.28746 -3.3123797,-11.33077 z M 228.26098,75.008816 c -0.73032,-1.90318 0.15848,-2.59777 3.32411,-2.59777 3.52179,0 4.37175,0.99635 2.23446,2.61932 -2.28648,1.73626 -4.88791,1.72617 -5.55857,-0.0216 z"
     id="path3323" />
</svg>
