<?xml version="1.0" encoding="utf-8"?>
<!-- Generator: Adobe Illustrator 24.0.2, SVG Export Plug-In . SVG Version: 6.00 Build 0)  -->
<svg version="1.1" id="Layer_1" xmlns="http://www.w3.org/2000/svg" xmlns:xlink="http://www.w3.org/1999/xlink" x="0px" y="0px"
	 viewBox="0 0 1000 307" style="enable-background:new 0 0 1000 307;" xml:space="preserve">
<g id="c1dDnk_1_">
	<g>
		<path d="M866.683105,23.626167c-0.788208,3.021149-3.203857,2.671-5.210632,2.317793
			c-5.162781-0.908665-10.318604-1.934158-15.398071-3.224342c-14.443787-3.668732-28.759766-7.939492-43.781738-8.67076
			c-3.477173-0.169267-6.615601-1.777349-10.108337-2.113922c-17.196228-1.65708-34.449707-1.722159-51.689819-2.130054
			c-5.753601-0.136131-11.388916,1.424071-17.173706,1.492724c-3.936646,0.046723-6.528198,3.306407-8.703674,5.971537
			c-3.037537,3.721138-5.533691,7.800106-7.333618,12.58219c-1.810486,4.809973-3.103271,9.89934-5.441711,14.538221
			c-0.221069,0.438633-0.487549,0.909584-0.51947,1.379971c-0.440796,6.514893-3.89856,12.416527-3.794373,19.056808
			c0.054504,3.46891-1.252563,6.762123-1.846252,10.149521c-1.145691,6.536812-1.629456,13.08474-1.202393,19.64566
			c0.520935,8.002525-2.733398,15.501038-2.653381,23.431725c0.02124,2.104912-0.377441,4.21418-0.047729,6.359283
			c0.736023,4.788345-0.71167,9.18602-3.152039,13.143433c-1.425354,2.311432-1.97522,4.76651-2.835388,7.224289
			c-2.322632,6.636627-5.191406,13.07637-8.426758,19.32962c-0.757629,1.464157-1.87616,2.83905-1.907104,4.488281
			c-0.102905,5.492401-3.532776,7.722198-8.132935,8.909714c-5.518433-4.117859-5.803406-5.62796-3.160645-11.596268
			c3.506165-7.918045,6.828552-15.90242,10.963074-23.543625c1.455444-2.689926,1.682556-6.04451,2.418518-8.894211
			c-1.983459-1.006271-2.778992-0.167343-3.647583,0.642258c-6.822388,6.35939-14.393616,11.70369-22.489807,16.295059
			c-1.626892,0.922623-2.754822,2.313614-4.164368,3.424301c-6.720947,5.295578-14.372925,8.958069-22.059509,12.559479
			c-0.891418,0.417618-1.847046,0.754028-2.639832,1.315765c-2.558838,1.812927-4.854919,2.910965-7.958679,0.55423
			c-2.959778-2.247452-4.83252-4.331879-4.564087-8.469147c0.413757-6.378845,2.046143-12.221436,5.192261-17.724213
			c0.478271-0.836578,0.671997-1.842972,0.953064-2.784027c1.081238-3.621262,2.006104-7.309341,5.474915-9.591492
			c0.703613-0.462891,0.928223-1.325577,0.748535-2.280327c-1.383972-1.874535-3.042358-1.230843-4.786377-0.487946
			c-10.304871,4.389702-18.903809,11.681709-28.74115,16.864784c-0.724487,0.381668-1.338074,0.992783-2.082031,1.31575
			c-10.162109,4.411743-18.56073,11.672119-27.97876,17.282318c-1.968689,1.172638-3.890808,3.039597-6.233643,2.688538
			c-7.653137-1.146866-13.501892,3.476913-19.996216,5.927277c-9.346069,3.526382-18.606873,7.195145-28.279541,9.857391
			c-5.161743,1.420746-10.267914,3.289978-15.46875,4.562607c-8.763855,2.144485-17.76712,4.393478-26.10376-1.498047
			c-6.522156-4.609329-9.690308-10.876953-9.115051-19.01268c0.682281-9.648926,3.142426-18.912766,7.609955-27.330307
			c2.063141-3.887192,3.708374-8.267792,7.133148-11.525887c3.602234-3.42688,5.078827-8.375458,7.918518-12.390366
			c0.758667-1.072701,1.090118-2.409622,0.320435-3.870186c-2.074524-1.821609-3.942108-0.475288-5.626648,0.78167
			c-5.660583,4.223648-11.70224,7.869278-17.997955,10.972794c-8.789856,4.333031-17.296661,9.346565-26.723389,12.274422
			c-2.690826,0.835739-5.535706,0.569366-8.280212-0.166962c-1.582825-0.424667-3.127716-1.073792-4.735321-1.306046
			c-3.266876-0.472031-5.3591-2.237152-6.615692-5.212517c-0.762939-1.806427-1.493103-3.713402-4.052429-4.120743
			c-0.421417,0.240219-1.217102,0.416199-1.494324,0.893387c-4.232422,7.28611-10.584137,12.90406-15.425018,19.746483
			c-4.515564,6.382523-10.029785,12.065552-15.183044,17.988022c-6.145538,7.062805-10.637878,15.399887-17.187653,22.149521
			c-2.15274,2.21843-4.002289,4.496262-4.953461,7.69928c-1.165253,3.923828-5.705872,5.78273-8.670929,4.303329
			c-3.910156-1.950928-4.506592-5.529022-2.291229-10.043076c5.183472-10.561935,12.109375-19.7453,20.433289-28.042801
			c3.211578-3.201431,5.784698-7.170761,8.105377-11.11026c4.058136-6.889023,11.109772-11.164413,15.243683-17.857391
			c3.90033-6.31472,9.211182-11.441139,13.573486-17.297134c3.430847-4.605576,7.648773-8.926971,9.370575-14.71418
			c0.229492-0.771263,0.566345-1.631447,1.125916-2.164383c4.228729-4.027344,6.282043-9.538651,9.39798-14.282822
			c2.900818-4.416557,5.426147-9.254288,8.07782-13.911263c2.313263-4.062649,4.123169-8.423367,7.020111-12.188004
			c3.19162-4.147522,5.99353-8.592434,9.090576-12.815903c2.906158-3.963097,5.25882-4.843113,7.65683-3.154034
			c2.789215,1.964603,2.921753,5.403484,1.577118,9.299778c-2.750946,7.971298-6.81604,15.425247-11.241943,22.312469
			c-5.730408,8.91729-8.766968,18.935455-13.867432,28.044106c-2.865295,5.116966-4.138306,11.073776-5.445679,16.830391
			c-0.936005,4.121376,1.765778,7.141289,5.851471,6.2174c5.019653-1.135094,10.309662-1.676857,14.843781-4.565765
			c1.086517-0.692223,2.378967-1.1073,3.624756-1.495659c6.506561-2.02829,12.040833-5.838898,17.657928-9.511444
			c3.56189-2.328896,7.68576-3.929329,11.013336-6.359093c8.683929-6.341011,19.643921-8.708931,27.222473-17.205246
			c5.296692-5.938118,11.406982-11.318245,17.170929-16.929321c1.470642-1.431583,3.152466-2.306747,5.081299-2.705734
			c4.898193,2.883484,4.744324,3.422935,3.265015,8.563103c-1.703003,5.917313-5.328003,9.564613-10.26355,13.114624
			c-7.701416,5.539406-14.167969,12.678917-20.826538,19.482689c-2.779633,2.840233-3.546722,6.911476-6.053223,10.078682
			c-4.239166,5.356705-9.071045,10.340958-11.791748,16.857643c-0.83194,1.99263-1.359528,3.988327-1.977386,6.009262
			c-2.636871,8.624969-5.287476,17.208817-6.651459,26.193237c-1.026276,6.760361,1.705994,11.455521,8.595947,12.698151
			c5.644867,1.018036,11.188019-0.086441,16.613342-1.306503c13.445831-3.023804,26.642944-6.916718,39.409241-12.197784
			c7.17041-2.966248,14.14978-6.112671,18.444092-13.092361c0.08374-0.1362,0.297058-0.215027,0.336426-0.353058
			c3.034912-10.616837,13.410217-15.867874,18.379395-25.181618c2.513733-4.711662,7.134827-8.088196,11.031799-11.840118
			c1.57666-1.517967,3.689636-2.071121,5.924683-2.06517c3.8302,0.010208,4.812134,0.921837,5.406555,4.704483
			c0.729553,4.642509,1.033386,9.082329-2.191406,13.147118c-0.890747,1.122726-1.96936,2.694839-1.417175,4.781769
			c3.416809,1.700333,6.400024-0.412796,8.955444-1.945618c3.2146-1.928307,6.376221-4.034149,9.705933-5.718384
			c6.721802-3.39991,11.621582-9.054214,17.520813-13.453445c1.188416-0.8862,2.347168-1.760246,3.83374-2.154541
			c6.377014-1.691399,10.393677,1.971451,9.325867,8.451111c-0.460571,2.795059-1.640137,5.521423-2.882019,7.770752
			c-3.392761,6.144989-3.474182,13.365509-7.025635,19.358856c-0.903015,1.524048-1.070435,3.148392,0.328064,4.522751
			c1.502441,1.476562,3.24585,1.373611,5.020325,0.525681c10.362732-4.951691,20.153687-10.787628,29.605103-17.377762
			c5.703918-3.977135,10.335876-9.610542,17.302734-11.798393c1.968506-0.618202,3.07312-2.285698,3.501953-4.421295
			c1.974792-9.833565,2.756653-19.809631,3.624146-29.773422c1.054932-12.11692,2.357605-24.131687,5.826965-35.917156
			c1.803345-6.125969,3.636902-12.313126,5.875427-18.21147c2.420593-6.378279,4.77179-12.888403,7.900879-19.011147
			c3.609314-7.062361,10.092041-9.359631,17.389954-10.397114c14.827698-2.107938,29.630615-2.175781,44.543274-0.653144
			c12.729065,1.299683,25.429504,2.782084,38.051636,4.786979c18.938538,3.008172,37.733215,6.765402,55.912903,13.075481
			C862.921448,20.2509,865.671143,20.692696,866.683105,23.626167z"/>
		<path d="M930.644104,131.217575c-2.059875-0.478333-4.349182-0.619202-5.63739,0.931473
			c-3.684692,4.435486-9.69696,5.49556-13.460083,9.717224c-2.435852,2.732819-6.176331,2.990753-9.247437,4.255203
			c-5.09314,2.096954-9.265381,5.543945-14.08606,7.955307c-2.840271,1.420761-5.653625,3.289093-8.715332,1.090515
			c-2.885681-2.072205-3.673401-5.27301-3.386414-8.723526c0.067322-0.809723,0.384094-1.6129-0.533142-2.747513
			c-3.285767-1.221085-5.628906,1.497528-7.700195,3.356689c-5.559509,4.989883-11.939697,8.422791-18.710632,11.30928
			c-0.741333,0.316071-1.459961,0.728226-2.113831,1.20015c-3.538635,2.554291-7.347778,4.030243-11.833923,4.122665
			c-5.311218,0.109467-8.035767-1.987228-8.174622-7.432678c-0.129028-5.060974,1.104126-9.995499,4.354004-13.834808
			c3.223633-3.808472,4.217407-8.908325,7.934692-12.370285c1.0271-0.956512,1.218506-2.694931,0.032593-4.016861
			c-0.8349-0.474098-1.702454-0.488289-2.348022,0.081581c-6.39032,5.641136-13.60376,10.204582-20.429199,15.24958
			c-9.823975,7.261398-18.822388,15.721985-29.806641,21.373322c-4.228271,2.175446-7.496765,5.731415-11.789673,7.930603
			c-2.798645,1.433746-5.043152,2.2108-7.678955,0.310959c-2.745422-1.978836-4.2146-4.729004-3.724731-8.06778
			c0.761658-5.19043,2.330933-10.19281,4.491882-14.986252c1.19458-2.649704,2.533875-5.244949,2.714478-7.980957
			c-1.819824-1.643875-3.02124-1.064011-4.152405,0.170334c-3.429382,3.742386-7.928284,5.810287-12.469543,7.715622
			c-4.420898,1.854843-8.194702,4.108246-9.047058,9.388947c-0.239929,1.486465-1.496521,2.50824-2.563538,3.538956
			c-1.563171,1.509995-2.576538,3.068069-2.693726,5.510986c-0.14093,2.938522-2.420593,4.701294-5.305786,5.89917
			c-3.369629-5.117294,1.712585-9.05777,1.636169-13.630264c-2.605103-1.551834-4.580872-0.291092-6.177002,1.348434
			c-3.676819,3.776855-8.35144,3.632339-12.901062,3.255493c-4.223938-0.349854-6.297485-5.102432-4.375916-9.622437
			c5.05365-11.887558,13.839966-20.111023,25.500488-25.368042c2.60199-1.173058,5.403259-1.180725,8.242371-0.848053
			c2.490173,0.291786,4.108582,1.172989,5.209595,3.696793c2.049988,4.69899,3.941956,5.102081,8.490295,2.740356
			c4.215393-2.188843,8.414978-4.427292,13.27417-4.948227c4.36261-0.467667,6.697754,1.240829,6.546997,5.596817
			c-0.152039,4.398148,0.022827,8.922729-2.005371,13.06218c-0.77124,1.57402-1.113403,3.138748,0.254272,4.562134
			c1.478699,1.539078,3.208923,1.451172,4.985413,0.591446c1.180176-0.571121,2.5354-0.979919,3.462708-1.838821
			c3.611938-3.345749,7.931458-5.673645,11.875183-8.535446c8.311035-6.03093,16.343567-12.516541,25.051392-17.909882
			c8.938782-5.536392,16.805359-12.427071,25.387146-18.384209c2.87915-1.998627,5.682739-3.987144,9.397156-3.677917
			c2.037781,0.169678,3.957458,0.837921,4.936401,2.783371c0.981995,1.951431-0.436096,3.292511-1.41748,4.8507
			c-1.97583,3.137108-4.647095,5.972389-6.309875,9.0205c-2.447327,4.486053-5.731689,8.714523-7.056885,13.761223
			c-0.996887,3.796646-4.305725,6.714233-4.037354,10.948959c1.63092,2.275223,3.722961,1.933456,5.715271,0.877335
			c12.890259-6.833099,25.550476-13.826843,36.071838-24.392754c6.911011-6.940231,14.415161-13.31913,21.120911-20.517464
			c2.130981-2.287498,4.746033-1.6558,7.502014-0.204666c1.202209,4.668953-0.892395,8.714294-3.417847,12.223251
			c-3.699463,5.140015-6.779724,10.790329-11.927368,14.873741c-2.191284,1.738274-2.989441,4.614082-2.320251,7.760078
			c2.499512,1.497803,4.889404,0.666855,6.953003-0.589798c5.295044-3.224518,11.157349-5.595367,15.515869-10.272011
			c2.252625-2.416969,5.118103-4.109726,7.91748-5.802361c4.73822-2.864983,7.062744-8.23175,11.804199-11.091896
			c2.378113-1.434479,4.610657-3.124565,6.827698-4.806335c1.255859-0.952629,2.490601-1.824493,3.975159-0.741768
			c1.54071,1.123573,2.423889,2.625381,1.962463,4.688728c-1.288818,5.763893-2.282898,11.609207-3.904846,17.275963
			c-0.724854,2.532425-1.332031,5.060654-1.815369,7.629868c-0.928162,4.933838,0.978149,8.097046,5.921265,7.97934
			c6.971558-0.166,13.958862,0.425644,20.942383-1.899796c5.856812-1.950302,11.909302-3.569855,17.926453-5.149216
			c1.608459-0.422165,3.245667-0.763397,4.852783-0.171524c1.737427,0.639938,3.300049,1.614349,3.755432,3.582901
			c0.456299,1.971466-0.917786,3.176498-2.299072,3.989197c-4.181702,2.460434-7.866394,5.632202-12.938416,6.723358
			c-8.316956,1.789215-16.406799,4.618637-24.707581,6.501205c-7.710754,1.748718-15.302002,1.766525-21.975586-3.778473
			c-4.593628-3.816849-7.460083-8.188034-6.63147-14.391357C931.467773,133.099136,931.516296,132.275269,930.644104,131.217575z
			 M744.231201,141.048264c-0.190125-3.315048-3.504761-5.111206-5.956787-3.234879
			c-2.582397,1.976105-4.857422,4.348816-7.364624,6.430389c-1.157471,0.960907-1.807861,1.99115-1.102661,3.362976
			c0.678101,1.319138,2.028442,1.713852,3.381226,1.36145c3.164124-0.824265,6.344604-1.623016,8.904602-3.911194
			C743.395691,143.892593,744.209839,142.599152,744.231201,141.048264z"/>
		<path d="M159.089645,211.527573c2.144394-0.322372,3.309479-1.539093,4.304901-3.465775
			c4.968018-9.615799,9.865051-19.276367,15.51181-28.52243c1.147369-1.878738,2.043152-4.250549,4.77887-4.02063
			c1.275269,0.775208,1.189438,1.846359,0.970047,2.76355c-1.139938,4.76622-1.631439,10.029282-4.301147,13.989044
			c-7.553116,11.202972-12.181778,23.894775-18.974854,35.475098c-4.294205,7.320374-7.149261,15.469757-11.14505,22.983963
			c-5.968567,11.224075-10.828476,23.033218-17.790039,33.736099c-1.066467,1.639618-2.142578,3.423645-2.58493,5.290039
			c-1.279449,5.398071-5.064423,9.484131-7.218399,14.428223c-1.293777,2.969666-4.510925,2.98996-6.981888,0.629944
			c-3.990585-3.811371-4.771927-9.664032-1.303505-14.052399c2.591469-3.278809,4.528183-6.644409,5.856773-10.646942
			c0.942024-2.837982,3.394394-5.166443,5.131035-7.750305c5.583641-8.307556,9.804359-17.272995,13.487526-26.579956
			c4.079132-10.30748,8.706024-20.401306,13.232895-30.526276c1.193604-2.669647,0.982056-5.46759,1.476852-8.195084
			c1.69986-9.370346,4.674454-18.3703,8.024094-27.248566c1.52182-4.033569,2.197632-8.168839,2.827866-12.421371
			c1.203934-8.123306,2.202698-16.232178,2.688446-24.437134c0.282196-4.766983-1.632172-7.104019-6.207504-5.454956
			c-7.92659,2.856873-16.189133,4.115372-24.326233,5.984604c-2.123047,0.487686-4.270462,0.465134-6.380325,0.202606
			c-5.243523-0.652451-7.613495-3.300552-7.343948-8.569199c0.405746-7.930458,2.893112-15.456985,5.644424-22.775681
			c2.412308-6.416931,4.880554-12.880592,7.224533-19.28624c1.839142-5.02607,2.845612-10.682289,4.024139-16.10157
			c0.682556-3.138596-0.810852-4.540894-4.314957-3.808609c-3.961044,0.827766-7.688004,2.442047-11.477005,3.921486
			c-7.086235,2.766861-13.618614,6.488457-20.32135,9.906937c-5.665016,2.889252-11.471306,5.676117-15.730095,10.747353
			c-1.360313,1.619812-3.399612,2.529831-5.304085,3.52813c-8.456245,4.432678-15.050766,11.495895-23.23568,16.420113
			c-3.915302,2.35553-7.105255,6.162964-11.019192,8.868843c-3.225845,2.230164-6.515106,4.311966-9.854069,6.354111
			c-4.256676,2.603439-8.316475,5.734787-12.381706,8.74794c-3.683298,2.730042-7.022058,5.820496-10.430698,8.868942
			c-2.842381,2.542023-6.588411,4.160202-10.105255,5.826614c-1.882927,0.892181-3.857291,0.45314-4.963962-1.812027
			c-1.15358-2.36116-0.552228-4.333572,1.552467-5.510498c3.318794-1.855804,6.362132-4.081665,9.394164-6.327499
			c9.591733-7.104614,19.613979-13.598419,29.800056-19.760223c11.759342-7.11348,22.091969-16.182907,33.651955-23.503967
			c9.912498-6.277679,18.603844-14.513802,29.273819-19.4347c6.815887-3.143433,12.940292-7.968033,20.458191-9.413284
			c5.434113-1.044662,10.881577-2.422867,16.511002-2.015091c5.344681,0.387154,6.826599,2.18309,6.559052,7.605347
			c-0.371078,7.520798-3.281265,14.369591-5.718979,21.30764c-3.587204,10.209618-7.28653,20.38028-10.431122,30.735748
			c-1.245041,4.100037,0.60733,6.282974,5.008789,6.105087c4.773178-0.192902,9.392456-1.608917,13.972397-2.681274
			c5.801346-1.358337,11.627243-2.06485,17.47937-2.901901c3.248032-0.464584,4.877777,0.954178,6.233902,3.508499
			c3.737701,7.040131,3.225464,14.417908,0.862625,21.497803c-2.8022,8.396362-4.368164,17.120895-7.61261,25.408798
			c-3.745468,9.56778-4.95256,19.964157-8.888123,29.519821C158.384079,209.396896,158.10199,210.227814,159.089645,211.527573z"/>
		<path d="M229.461639,110.14682c0.336441-1.877045,1.233231-2.992126,2.501007-3.838402
			c8.668411,0.641022,9.621033,2.2612,10.00267,10.927162c0.269577,6.121231-2.428436,11.104034-4.256683,16.429993
			c-3.084595,8.985992-8.608795,16.834869-12.462311,25.475708c-1.197372,2.684982-2.093399,5.504532-3.122604,8.264252
			c-0.457764,1.227341-0.829147,2.49292-1.368637,3.682709c-1.772369,3.908661-4.251938,5.32576-7.124603,4.153305
			c-2.55278-1.041946-4.423477-4.866394-2.98941-8.027039c2.970856-6.547714,4.866776-13.677841,8.9776-19.595764
			c5.321213-7.660416,8.380402-16.299377,11.772812-24.784615C233.834793,116.722885,233.085754,114.015152,229.461639,110.14682z"
			/>
		<path d="M280.2789,153.656357c-0.899384,7.990631-5.570312,13.708679-11.868103,18.218796
			c-2.662994,1.907104-5.561066,3.456863-7.818237,5.912918c-1.615967,1.758362-3.731323,2.624985-6.057785,3.054642
			c-5.088226,0.939758-8.301529-1.499268-8.746475-6.658676c-0.259186-3.005142,1.959274-3.990646,4.131165-4.726135
			c1.353058-0.45816,2.940109-0.168762,4.391861-0.402786c4.415604-0.711746,6.011276-2.600021,5.321609-7.018936
			c-0.80188-5.13797,1.029175-8.610229,5.635834-10.813843c1.4776-0.706833,2.898376-1.522354,4.093018-2.70134
			c2.012543-1.986221,4.081543-4.159348,7.263428-2.451797C279.558533,147.643372,280.738281,150.219772,280.2789,153.656357z"/>
		<path d="M222.04071,182.469376c1.931229,4.242096,0.654373,6.925262-0.777557,9.508835
			c-1.352356,2.439865-2.790039,4.849213-4.393936,7.128586c-1.933609,2.747955-3.389633,5.575363-3.448868,9.044907
			c-0.047394,2.773468-1.552917,4.728897-4.248611,5.350449c-2.562302,0.590775-4.941467,0.164108-6.307648-2.853668
			C206.899017,200.038254,210.87413,189.249405,222.04071,182.469376z"/>
	</g>
</g>
</svg>
