<?xml version="1.0" encoding="UTF-8" standalone="no"?>
<svg xmlns="http://www.w3.org/2000/svg" version="1.0" width="206" height="99">
<path d="m 157.58784,98.694 c 0.751,0 1.501,0 2.251,0 5.222,-12.246 12.326,-22.61 21.765,-30.654 8.208,-0.383 15.557,-1.418 22.513,0.747 -2.924,-5.063 -13.767,-2.233 -21.012,-2.99 -2.05,-0.676 2.28,-1.673 0,-2.99 -12.038,4.123 -27.139,5.943 -39.772,2.242 3.168,-9.554 7.668,-17.78 15.009,-23.179 4.212,-1.037 11.146,0.636 11.256,-4.486 -2.813,0.685 -5.305,1.693 -8.255,2.243 6.13,-10.842 20.328,-20.121 27.018,-32.898 -16.371,7.117 -25.267,21.684 -36.021,34.395 -2.975,-0.275 -7.189,0.687 -9.005,-0.748 0.954,-8.918 12.857,-16.896 12.007,-27.665 -5.104,-3.022 -10.735,2.637 -14.258,-0.748 -27.446,11.036 -30.987,45.89 -59.283999,56.078 -0.811,-3.907 8.077,-8.263 6.003,-13.459 -6.625,3.368 -9.731,10.239 -17.26,12.711 -2.268,-2.99 1.679,-4.959 1.501,-8.226 -5.929,2.565 -9.584,7.397 -15.008,10.469 2.563,-7.917 7.566,-19.874 15.008,-25.423 10.341,-2.278 22.785,4.306 28.516999,-0.747 -9.860999,0.854 -16.145999,-1.858 -25.515999,-1.495 3.336,-7.146 13.363,-14.1 16.509,-23.927 -8.708,3.568 -16.803,14.141 -21.762,23.927 -3.251,0 -6.503,0 -9.755,0 9.795,-13.198 28.657,-21.256 28.516,-41.871 -17.404,7.331 -24.71,24.728 -33.019,41.123 -11.089,0.467 -20.429,-1.563 -29.269,1.496 0.583,3.157 3.505,3.985 6.756,4.485 2.474,-2.555 -2.884,-1.521 -3.003,-3.738 6.065,-1.683 15.214,-0.295 22.514,-0.747 -10.208,9.05 -27.111,21.797 -48.0289999,20.186 -2.186,-0.813 -2.938,-3.055 -3.75199997,-5.233 -4.76300003,8.875 14.46599987,9.893 20.26099987,5.233 -3.46,8.858 -4.975,22.849 4.502,23.927 9.015,1.023 13.946,-10.438 17.262,-17.944 6.122,-3.621 11.445,-8.034 16.509,-12.711 -0.23,5.013 -5.37,11.592 -6.754,17.944 6.687,-1.313 9.854,-6.133 14.258,-9.722 1.719,1.527 0.555,5.929 5.253,4.486 -2.37,9.853 -11.541,12.926 -13.508,23.179 8.695,-6.041 11.695,-17.757 19.511,-24.674 2.038,-0.535 -0.537,3.524 1.5,2.99 8.904,-0.6 12.136,-6.851 18.761,-9.721 -0.613,5.875 -7.964,9.002 -6.003,14.954 3.809,0.055 2.298,-5.188 4.502,-6.729 1.639,2.355 0.661,7.316 3.751999,8.226 7.51,0.513 9.299,-7.854 15.76,-5.981 0.298,5.281 -4.865,5.121 -4.502,10.469 10.214,-0.578 15.546,-12.396 24.014,-17.197 0.606,0.144 0.748,0.751 1.5,0.748 1.153,6.694 -5.148,16.225 -3.752,23.18 4.814,-4.922 5.159,-14.3 8.255,-20.937 13.25,1.554 25.871,3.026 36.771,-1.495 -8.682,9.297 -16.098,19.851 -21.015,32.897 z M 40.521841,70.282 c -4.064,4.93 -7.7,16.439 -15.761,14.206 -5.421,-1.503 -5.649,-12.002 -2.251,-17.944 3.711,4.449 12.788,4.7 18.012,3.738 z m 81.044999,4.486 c -2.948,0.303 -3.204,3.287 -6.003,3.738 0.42,-2.525 3.879,-7.599 6.003,-3.738 z m 6.004,-38.88 c 2.474,3.268 6.271,5.214 11.256,5.98 -0.029,6.449 -6.392,6.592 -9.005,10.468 -1.111,8.744 -7.646,15.63 -13.508,17.196 -2.563,-1.701 3.424,-2.896 0.751,-4.485 -6.571,2.177 -7.883,9.594 -16.511,9.721 -4.382999,-20.986 16.919,-27.53 27.017,-38.88 z m -6.754,35.889 c 2.052,-4.936 6.592,-7.39 9.005,-11.963 2.354,-0.354 1.98,2.013 3.752,2.243 -3.017,4.199 -7.049,10.609 -12.757,9.72 z M 22.511841,62.058 c 11.236,-3.262 19.896,-9.088 28.518,-14.954 -2.094,7.634 -6.297,13.166 -9.005,20.188 -7.59,3.501 -17.1,2.148 -19.513,-5.234 z m 33.769,-18.693 c 3.752,0 7.504,0 11.256,0 -4.779,8.698 -14.128,16.825 -21.762,20.188 3.778,-6.454 6.279,-14.181 10.506,-20.188 z M 144.83084,54.58 c -0.631,3.358 -1.732,6.249 -3.752,8.226 0.672,-3.32 0.859,-7.12 3.752,-8.226 z m -12.758,2.243 c 2.704,-1.293 2.589,-5.396 6.004,-5.98 0.166,0.583 0.628,0.869 1.501,0.748 0.933,5.664 -1.584,7.894 -4.503,9.721 -0.852,-1.646 -2.51,-2.487 -3.002,-4.489 z m 6.004,-7.476 c 0.384,-2.857 2.467,-4.022 3.002,-6.729 3.502,0 7.004,0 10.506,0 -1.665,5.318 -5.471,8.507 -9.756,11.215 0.084,-2.826 -1.468,-4.02 -3.752,-4.486 z m 2.251,-35.142 c -5.272,5.713 -13.572,8.409 -13.508,19.439 -6.469,5.768 -13.041,11.432 -19.511,17.196 8.188,-15.019 18.524,-27.9 33.019,-36.635 z m -11.256,19.44 c -0.034,-1.998 4.615,-4.281 6.754,-6.729 5.33,-6.104 7.707,-16.386 18.01,-11.963 -3.248,9.226 -9.93,15.029 -12.757,24.674 -4.921,-0.032 -11.933,-1.611 -12.007,-5.982 z M 87.047841,2.989 c -4.433,16.271 -17.201,28.222 -28.516,35.143 8.121,-13.094 14.5,-27.923 28.516,-35.143 z M 179.34984,15.7 c -6.973,7.511 -13.748,15.213 -21.014,22.431 4.67,-9.308 13.676,-18.275 21.014,-22.431 z M 84.796841,26.168 c -3.452,3.539 -5.765,8.213 -9.756,11.215 2.318,-4.179 6.409,-10.551 9.756,-11.215 z m 54.029999,-5.982 c -3.729,2.027 -5.544,9.915 -9.755,8.974 2.398,-3.354 5.381,-10.079 9.755,-8.974 z" />
</svg>
