<?xml version="1.0" standalone="no"?>
<!DOCTYPE svg PUBLIC "-//W3C//DTD SVG 20010904//EN"
 "http://www.w3.org/TR/2001/REC-SVG-20010904/DTD/svg10.dtd">
<svg version="1.0" xmlns="http://www.w3.org/2000/svg"
 width="300.000000pt" height="308.000000pt" viewBox="0 0 300.000000 308.000000"
 preserveAspectRatio="xMidYMid meet">
<metadata>
Created by potrace 1.10, written by Peter Selinger 2001-2011
</metadata>
<g transform="translate(0.000000,308.000000) scale(0.050000,-0.050000)"
fill="#000000" stroke="none">
<path d="M4017 5602 c-229 -73 -803 -413 -1183 -700 -1463 -1103 -2395 -2669
-1704 -2862 163 -46 431 -9 1180 163 314 72 784 118 991 98 400 -39 392 -160
-52 -801 -329 -476 -448 -721 -413 -850 24 -84 71 -77 77 11 7 121 92 277 378
701 322 476 389 606 389 749 0 340 -445 365 -1757 98 -844 -171 -1017 -112
-913 312 209 853 1498 2204 2703 2834 763 398 723 186 -129 -678 -390 -396
-410 -413 -500 -427 -168 -25 -467 -196 -619 -355 -103 -107 -116 -183 -52
-310 53 -103 53 -106 15 -136 -101 -80 -125 -88 -332 -101 -224 -14 -266 -35
-202 -100 24 -23 56 -30 118 -23 46 5 95 3 107 -4 20 -13 -353 -354 -644 -589
-96 -77 -122 -143 -65 -165 44 -17 83 14 477 375 463 425 458 421 588 415 57
-2 111 2 118 9 26 26 66 14 87 -25 18 -34 -3 -69 -145 -240 -282 -343 -369
-522 -261 -537 43 -6 337 259 411 372 26 40 36 43 82 22 60 -28 62 -36 29
-108 -19 -43 -17 -57 10 -85 48 -47 71 -19 194 233 56 114 120 231 144 260
l42 52 -13 -50 c-104 -392 218 -539 937 -427 114 17 60 -35 -145 -142 -255
-133 -190 -207 72 -80 181 87 243 139 243 202 0 34 18 54 65 74 83 35 82 38
24 -76 -163 -323 124 -463 390 -190 178 184 118 418 -88 339 -64 -24 -56 -40
35 -69 117 -38 56 -197 -108 -282 -197 -102 -261 63 -89 230 118 115 55 188
-119 138 -134 -38 -167 -20 -65 37 148 82 147 164 -2 206 -113 31 -476 26
-489 -7 -25 -66 19 -81 225 -75 216 6 241 -7 131 -67 -38 -20 -71 -47 -72 -59
-2 -12 -4 -35 -5 -52 -6 -62 -564 -75 -737 -17 -149 51 -173 141 -86 326 73
154 79 157 385 175 291 17 296 18 278 65 -10 25 -52 31 -232 31 -164 0 -221 7
-221 25 0 35 171 251 361 458 163 178 199 257 116 257 -43 0 -573 -512 -711
-686 -55 -70 -68 -76 -144 -70 l-84 6 106 124 c58 68 190 220 292 337 196 223
224 292 128 306 -71 10 -323 -259 -515 -547 l-160 -240 -109 0 c-196 0 -175
47 178 388 252 244 302 302 302 349 0 48 62 121 365 430 588 600 735 788 735
941 0 121 -128 153 -343 84z m-997 -1491 c0 -5 -59 -75 -132 -155 -73 -80
-173 -203 -222 -272 -99 -137 -117 -142 -172 -49 -46 80 -16 148 111 252 150
123 415 266 415 224z m80 -823 c0 -6 -17 -36 -37 -65 -21 -29 -62 -100 -91
-158 -52 -103 -172 -159 -172 -80 0 37 98 239 134 280 30 32 166 51 166 23z"/>
</g>
</svg>
