<?xml version="1.0" encoding="UTF-8" standalone="no"?>
<!-- Created with Inkscape (http://www.inkscape.org/) -->

<svg
   xmlns:dc="http://purl.org/dc/elements/1.1/"
   xmlns:cc="http://creativecommons.org/ns#"
   xmlns:rdf="http://www.w3.org/1999/02/22-rdf-syntax-ns#"
   xmlns:svg="http://www.w3.org/2000/svg"
   xmlns="http://www.w3.org/2000/svg"
   xmlns:sodipodi="http://sodipodi.sourceforge.net/DTD/sodipodi-0.dtd"
   xmlns:inkscape="http://www.inkscape.org/namespaces/inkscape"
   width="99.605476mm"
   height="57.679394mm"
   viewBox="0 0 99.605479 57.679396"
   version="1.1"
   id="svg8"
   inkscape:version="0.92.3 (2405546, 2018-03-11)"
   sodipodi:docname="Stephen_King_Signature.svg">
  <defs
     id="defs2" />
  <sodipodi:namedview
     id="base"
     pagecolor="#ffffff"
     bordercolor="#666666"
     borderopacity="1.0"
     inkscape:pageopacity="0.0"
     inkscape:pageshadow="2"
     inkscape:zoom="1"
     inkscape:cx="484.3686"
     inkscape:cy="-14.577692"
     inkscape:document-units="mm"
     inkscape:current-layer="layer1"
     showgrid="false"
     fit-margin-top="0"
     fit-margin-left="0"
     fit-margin-right="0"
     fit-margin-bottom="0"
     inkscape:window-width="1920"
     inkscape:window-height="1017"
     inkscape:window-x="-8"
     inkscape:window-y="-8"
     inkscape:window-maximized="1" />
  <metadata
     id="metadata5">
    <rdf:RDF>
      <cc:Work
         rdf:about="">
        <dc:format>image/svg+xml</dc:format>
        <dc:type
           rdf:resource="http://purl.org/dc/dcmitype/StillImage" />
        <dc:title></dc:title>
      </cc:Work>
    </rdf:RDF>
  </metadata>
  <g
     inkscape:label="Calque 1"
     inkscape:groupmode="layer"
     id="layer1"
     transform="translate(-219.12764,-232.67361)">
    <path
       style="fill:#000000;stroke-width:0.19181231"
       d="m 310.50296,290.06367 c -0.21464,-0.21464 -0.30145,-0.67539 -0.30145,-1.60179 0,-1.60837 -0.21514,-2.26554 -1.26058,-3.85118 -2.51146,-3.80896 -5.96601,-5.77024 -10.18571,-5.78287 -4.60095,-0.0125 -7.9071,1.95389 -7.92253,4.71523 -0.002,0.65326 0.1203,0.87444 0.92201,1.64731 1.17193,1.12958 2.11787,1.38785 4.82812,1.31829 2.91141,-0.0749 3.52007,0.23685 2.09456,1.07248 -0.5232,0.30653 -1.08288,0.39795 -2.76588,0.45069 -2.69575,0.0846 -3.80726,-0.28527 -5.46169,-1.8169 -1.31819,-1.22043 -1.64037,-1.97291 -1.45555,-3.39974 0.33034,-2.55195 1.81096,-3.94498 5.57456,-5.24528 1.68345,-0.58162 3.49157,-0.72421 5.92556,-0.46734 1.6537,0.17471 2.12563,0.31335 3.67316,1.08149 2.15199,1.06801 4.06031,2.62649 5.41044,4.41866 0.55377,0.73511 1.09274,1.36516 1.19769,1.40015 0.25338,0.0846 0.47987,-0.54362 1.26775,-3.5161 0.36351,-1.3715 1.13098,-3.87006 1.70549,-5.55241 0.57448,-1.68237 1.00491,-3.0984 0.95654,-3.14677 -0.0484,-0.0484 -0.53041,0.0549 -1.0712,0.22962 -0.54077,0.17471 -1.57126,0.31759 -2.28993,0.31759 -1.18322,0 -1.34432,-0.0477 -1.70432,-0.50538 -0.32056,-0.40729 -0.39753,-0.77936 -0.39753,-1.91815 0,-0.77697 -0.0512,-1.41271 -0.11356,-1.41271 -0.0624,0 -0.46549,0.30142 -0.89589,0.66978 -1.00494,0.86023 -2.74862,1.536 -3.38992,1.3138 -0.25681,-0.0889 -0.69408,-0.55003 -0.97156,-1.02451 -0.27764,-0.47453 -0.63222,-0.88731 -0.78821,-0.91736 -0.38265,-0.0736 -1.02166,0.63885 -1.86679,2.08153 -0.88519,1.51119 -1.16706,1.7003 -1.8588,1.24703 -0.51077,-0.33459 -0.52128,-0.37796 -0.40178,-1.66513 0.0676,-0.72685 0.0552,-1.3215 -0.0255,-1.3215 -0.0831,0 -0.75221,0.6106 -1.48787,1.35687 -1.91322,1.94089 -2.56854,2.2195 -3.76528,1.60064 -0.56798,-0.29379 -0.60858,-0.2857 -1.28522,0.25639 -1.07879,0.86443 -1.50727,1.04847 -1.92293,0.82604 -0.19866,-0.10632 -0.4145,-0.33207 -0.47954,-0.50201 -0.24359,-0.63526 -0.10507,-2.48672 0.29635,-3.95112 0.46917,-1.71195 0.35458,-3.11617 -0.28569,-3.50062 -0.53932,-0.32398 -1.14735,0.54109 -3.28554,4.67398 -1.03536,2.00127 -2.04,3.78118 -2.23253,3.95544 -0.41368,0.37454 -1.22122,0.24184 -1.40237,-0.23037 -0.13602,-0.35458 0.8654,-2.62177 2.49007,-5.63641 0.597,-1.10769 1.51356,-2.81059 2.03683,-3.78413 1.31035,-2.43798 1.19353,-2.68312 -0.61287,-1.28614 -3.87395,2.99605 -9.11283,6.60477 -9.5883,6.60477 -0.50194,0 -0.96137,-0.51496 -0.96137,-1.07757 0,-0.33758 0.17696,-0.56929 0.61125,-0.8015 1.41391,-0.75586 5.62337,-3.6821 8.28989,-5.76286 3.63957,-2.84003 5.65291,-4.73203 6.29004,-5.91085 0.72142,-1.33476 2.40314,-5.38956 3.20949,-7.73836 0.56887,-1.65707 0.76517,-2.02465 1.10749,-2.07377 0.27254,-0.0382 0.5222,0.10208 0.72361,0.40983 0.28912,0.44129 0.27382,0.56548 -0.2538,2.07377 -0.30868,0.88237 -0.78977,2.20488 -1.06905,2.93892 -0.27936,0.73397 -0.48337,1.46105 -0.45349,1.61571 0.0659,0.34186 6.46552,-6.63404 8.84089,-9.63749 2.94014,-3.71759 2.87045,-3.64489 3.3477,-3.49339 0.56004,0.1777 0.72526,0.88878 0.36649,1.5763 -0.60539,1.15946 -6.01743,7.31048 -12.35674,14.04393 -2.73573,2.9059 -3.21079,3.50741 -3.88423,4.9183 -0.42174,0.88411 -0.76719,1.70923 -0.76719,1.83359 0,0.12455 0.3006,0.72097 0.66811,1.32585 1.1443,1.88379 1.42483,3.63301 0.92055,5.74042 -0.24708,1.03192 0.41496,0.0769 1.40055,-2.02046 1.10889,-2.35996 1.48289,-2.65989 2.11453,-1.69585 0.30229,0.46132 0.28869,0.56797 -0.28358,2.25379 -0.33034,0.97329 -0.60074,1.87745 -0.60059,2.00935 5.5e-4,0.5984 0.69486,0.0789 2.65789,-1.98824 1.16355,-1.22536 2.2916,-2.35133 2.50687,-2.50207 0.5328,-0.3733 1.11176,-0.0484 1.47849,0.82926 l 0.2806,0.67182 0.86116,-0.79379 c 0.66898,-0.61664 0.95585,-0.76495 1.28552,-0.66456 0.54373,0.16522 1.09566,0.64961 1.09566,0.96081 0,0.13303 0.16971,0.6377 0.37669,1.12114 0.26573,0.61964 0.48843,0.87905 0.75506,0.87905 0.2079,0 1.26844,-0.78356 2.35652,-1.74128 2.50452,-2.20445 3.59973,-2.858 4.79358,-2.86037 0.74193,-0.002 0.96595,0.0854 1.29472,0.5036 0.55942,0.71111 0.52041,1.69089 -0.0918,2.30294 -0.36139,0.36139 -0.61103,0.45858 -0.95615,0.37203 -0.55531,-0.13952 -0.96845,0.22013 -1.71287,1.49034 -0.34268,0.58465 -0.49178,1.08266 -0.45109,1.50605 0.0532,0.55497 0.13552,0.63985 0.67005,0.69164 1.27825,0.12379 2.82156,-1.11391 4.19091,-3.36126 0.95892,-1.57363 1.59977,-2.10257 2.17473,-1.79486 0.7404,0.39626 0.68362,0.97329 -0.33374,3.39241 -2.83729,6.74542 -5.26304,14.74001 -5.78979,19.08142 -0.12029,0.99248 -0.29929,1.95557 -0.39793,2.14016 -0.22237,0.4171 -0.80737,0.43367 -1.20682,0.0339 z m -69.50752,-4.25414 c -0.22287,-0.49132 -0.31929,-1.17527 -0.30441,-2.1579 0.0254,-1.802 0.57189,-3.52825 2.49666,-7.90743 0.78735,-1.79141 1.48193,-3.50878 1.54346,-3.81644 l 0.11181,-0.55939 -1.3282,0.1233 c -1.13909,0.10582 -1.44485,0.0636 -2.14789,-0.29463 l -0.8198,-0.41835 -1.32807,1.25282 c -1.31584,1.24129 -3.07472,2.40771 -3.63587,2.41118 -0.16024,9.5e-4 -0.61377,-0.21764 -1.00809,-0.48539 l -0.71697,-0.48713 -0.50787,0.50787 c -1.26468,1.26468 -2.55182,1.57943 -3.27997,0.80211 -0.61402,-0.65545 -0.81346,-1.3729 -0.81346,-2.92629 0,-2.21838 0.007,-2.22225 -2.77572,1.58361 -1.3415,1.83498 -1.48141,1.96611 -2.09818,1.96611 -0.76751,0 -1.33441,-0.58657 -1.64366,-1.7006 -0.30911,-1.11371 -0.63464,-5.80174 -0.41795,-6.0185 0.12229,-0.12229 0.88659,0.02 2.19454,0.40899 2.41058,0.7166 3.05011,0.74595 3.59971,0.16497 0.59373,-0.62749 1.4301,-2.35637 1.88244,-3.89097 0.49093,-1.66573 1.07475,-4.66684 0.93498,-4.80658 -0.0574,-0.0574 -1.24543,-0.18544 -2.64004,-0.28402 -2.72558,-0.19343 -4.55024,-0.54359 -5.86873,-1.12684 -2.38854,-1.05657 -3.48111,-2.47574 -3.27113,-4.24887 0.2521,-2.12927 2.1714,-4.72818 5.12524,-6.94025 1.89712,-1.42071 6.825,-4.37094 10.18696,-6.09876 1.9655,-1.01013 2.81597,-1.55863 3.19461,-2.06024 0.28402,-0.37585 0.95565,-1.15457 1.49297,-1.7301 0.83377,-0.89318 1.04919,-1.0283 1.47071,-0.92253 0.28784,0.0721 0.67421,0.42389 0.92659,0.84356 0.2381,0.39584 0.4486,0.74328 0.46802,0.77218 0.02,0.0297 1.79538,-0.38348 3.94677,-0.91668 2.15136,-0.53311 5.3789,-1.26698 7.17234,-1.63082 1.79346,-0.36396 4.72821,-0.96073 6.52165,-1.32637 8.10145,-1.65153 13.97859,-1.62275 17.48223,0.0854 1.9813,0.96607 3.27793,2.81687 4.11749,5.87701 0.36691,1.33795 0.39839,1.82965 0.31081,4.85265 -0.0646,2.23053 -0.23211,4.07479 -0.49727,5.47382 -0.51611,2.72352 -1.83974,7.3827 -2.4263,8.54014 -0.25168,0.49671 -0.8188,1.88573 -1.26026,3.08672 -0.92018,2.50337 -2.88401,6.87196 -3.93008,8.7425 -0.39199,0.70125 -1.09439,1.65642 -1.56051,2.12251 -0.845,0.84496 -0.85064,0.84713 -1.93837,0.73751 -0.59999,-0.0604 -1.42473,-0.13527 -1.8327,-0.16622 -0.53964,-0.0424 -0.85711,-0.20116 -1.16492,-0.58706 -0.40092,-0.50308 -0.46726,-0.52048 -1.27226,-0.33504 -1.5654,0.36097 -2.14952,0.26997 -2.83894,-0.44131 l -0.62654,-0.64642 -0.94629,0.27764 c -0.73342,0.21514 -1.09089,0.22961 -1.58871,0.0654 -0.82581,-0.27254 -1.08223,-0.85542 -1.08368,-2.46372 l -0.001,-1.28569 -0.58107,0.86313 c -0.31972,0.47478 -0.85854,1.29472 -1.19767,1.82224 -0.64135,0.99758 -1.25197,1.29098 -1.77801,0.85439 -0.43834,-0.36394 -0.32823,-1.20585 0.38136,-2.92072 0.78688,-1.90094 1.90155,-5.59781 1.78937,-5.93444 -0.0489,-0.14626 -0.19268,-0.0547 -0.36988,0.23635 -0.15948,0.26149 -1.19909,1.94299 -2.30997,3.73643 -1.11086,1.79344 -2.42399,3.99447 -2.91796,4.89119 -1.16404,2.11308 -1.56689,2.51024 -2.67271,2.63483 -0.81518,0.0918 -0.93221,0.0477 -1.57626,-0.59645 -0.38263,-0.38263 -0.72782,-0.69568 -0.76706,-0.69568 -0.14575,0 -0.65345,2.09408 -1.13944,4.69941 -1.27376,6.82911 -2.19486,9.11106 -3.67775,9.11106 -0.34946,0 -0.54339,-0.17646 -0.7893,-0.71927 z m 1.74922,-3.69237 c 0.72485,-2.58496 0.79875,-2.95706 0.55744,-2.80794 -0.28488,0.17595 -1.16502,2.89424 -1.3131,4.05472 -0.18319,1.43554 0.16397,0.86233 0.75566,-1.24678 z m -17.41869,-9.44677 c 0.86165,-0.99977 1.30585,-1.81952 1.1732,-2.16522 -0.0549,-0.14326 -0.64387,-0.42761 -1.30863,-0.63199 l -1.20869,-0.3716 -0.0552,1.60705 c -0.0522,1.51638 0.13852,2.37691 0.52674,2.37691 0.0936,0 0.48628,-0.36693 0.87276,-0.8152 z m 6.77425,0.12404 c 0.9989,-1.21184 1.58277,-2.51967 2.24403,-5.02621 0.35416,-1.34347 1.1174,-3.80567 1.69563,-5.47152 0.78449,-2.26023 0.98802,-3.053 0.80206,-3.12436 -0.13677,-0.0529 -0.6698,-0.0689 -1.18392,-0.0382 l -0.93465,0.0596 -0.71383,1.34269 c -2.01442,3.78889 -2.84612,6.49932 -3.13054,10.202 -0.21564,2.80335 0.12803,3.38063 1.22122,2.05418 z m 4.70872,-0.79539 c 1.14561,-0.79142 3.08295,-3.15658 3.36972,-4.1138 0.27764,-0.92722 1.78026,-3.99971 2.34993,-4.80548 0.53014,-0.74989 1.06809,-0.68428 1.42673,0.17396 0.39454,0.94411 0.13952,1.92908 -1.10277,4.26277 -0.52692,0.98964 -0.91267,1.91755 -0.85721,2.06199 0.0552,0.14475 0.33077,0.26273 0.61155,0.26273 0.56008,0 1.79259,-1.15222 2.47734,-2.31601 0.47153,-0.80128 1.09793,-0.93296 1.83756,-0.38603 0.29805,0.22013 0.59713,0.4005 0.66501,0.4005 0.0681,0 0.55547,-0.38859 1.08349,-0.86315 1.07147,-0.96338 1.68881,-1.08276 2.92588,-0.56585 0.57926,0.24185 0.76614,0.2521 1.00527,0.0537 0.74729,-0.62018 4.33277,-6.51147 4.58053,-7.52617 l 0.13603,-0.55776 -1.8027,0.13053 c -0.99146,0.0719 -3.18371,0.25637 -4.87168,0.40986 -1.68791,0.1535 -4.59523,0.33756 -6.46063,0.40899 l -3.39166,0.13003 -0.6968,2.03219 c -0.62365,1.81882 -2.94426,6.77833 -4.2185,9.01557 -0.57733,1.01362 -0.6652,2.31948 -0.15598,2.31948 0.17895,0 0.66895,-0.23735 1.08887,-0.52744 z m 34.5914,-1.24678 c 0.88868,-0.97 2.89471,-5.26102 4.41638,-9.44677 1.11688,-3.07237 1.12025,-3.09775 0.45981,-3.43928 -0.30484,-0.15774 -1.31103,-0.43524 -2.23638,-0.61704 -1.52993,-0.3006 -2.11886,-0.30908 -6.49732,-0.0948 -5.32563,0.26061 -6.59251,0.43245 -7.02418,0.95203 -0.36055,0.43377 -2.17725,6.67023 -2.04422,7.01684 0.0532,0.13852 0.36521,0.30529 0.69346,0.37118 0.3282,0.0654 0.82,0.34268 1.09277,0.61532 0.47403,0.47403 0.49007,0.55916 0.36224,1.92167 -0.11531,1.22959 -0.0899,1.44258 0.18494,1.54803 0.44081,0.16922 1.76267,-0.79649 2.53652,-1.85299 1.19267,-1.62829 2.19726,-2.68048 2.5591,-2.68048 0.21339,0 0.4922,0.24998 0.67664,0.60656 0.46924,0.90748 0.10857,1.85144 -1.27636,3.3401 -0.62555,0.67244 -1.13741,1.35425 -1.13741,1.51513 0,0.52537 0.57428,0.30908 1.51468,-0.57057 0.99533,-0.93104 1.35999,-1.04273 1.77063,-0.54236 0.48404,0.58986 2.52234,1.78914 3.04079,1.78914 0.28615,0 0.68678,-0.19043 0.90768,-0.43157 z m -22.3001,-0.54159 c 0.85469,-0.61382 1.58292,-1.4644 1.64741,-1.9242 0.14026,-1.00197 -0.28145,-0.97953 -1.28185,0.0681 -0.83642,0.87603 -1.79511,2.11495 -1.79511,2.31985 0,0.2989 0.6701,0.0816 1.42955,-0.46377 z m -10.9187,-8.30472 c 0.68388,-1.91361 0.84932,-2.69462 0.39112,-1.84722 -0.25637,0.47425 -1.45169,3.75602 -1.45169,3.98576 0,0.44128 0.49574,-0.55846 1.06052,-2.13854 z m -6.86415,-4.68992 c 0.13152,-0.0834 0.53412,-1.22567 0.89542,-2.53859 0.36137,-1.3129 0.91199,-3.07764 1.22377,-3.92165 0.79881,-2.16224 2.78163,-8.54333 2.68484,-8.64009 -0.12404,-0.12405 -2.63757,1.12301 -4.91008,2.43696 -5.63849,3.26015 -8.77545,5.72234 -9.98043,7.83355 -0.70069,1.22764 -0.81113,2.44005 -0.267,2.9324 0.67073,0.60701 2.95175,1.52042 4.40868,1.76544 1.66009,0.27933 5.57621,0.36606 5.94487,0.13178 z m 3.10848,-1.42516 c 0.89624,-1.82741 3.1428,-7.93396 4.21143,-11.44749 1.06049,-3.48665 1.0569,-3.46593 0.60171,-3.46593 -0.73811,0 -1.38852,1.50165 -3.95898,9.14088 -1.75795,5.22436 -2.2908,7.35498 -1.83946,7.35498 0.11531,0 0.55849,-0.71208 0.9853,-1.58244 z m 3.27425,1.19686 c 0.19892,-0.10682 0.66274,-0.64601 1.0302,-1.19881 1.00469,-1.51126 1.97149,-2.38592 2.36383,-2.13846 0.6287,0.39666 0.72409,0.77642 0.48334,1.92422 -0.34822,1.66119 -0.30144,1.68662 2.83022,1.53577 3.45623,-0.16672 11.40846,-0.85831 13.11666,-1.14113 l 1.36736,-0.22662 0.70554,-1.43859 c 0.3882,-0.79127 0.93813,-2.04279 1.2223,-2.7813 1.00274,-2.60536 1.79354,-3.546 2.49306,-2.96545 0.43967,0.36481 0.3299,1.16839 -0.36863,2.69867 -0.78041,1.7099 -1.545,3.98895 -1.39019,4.14377 0.0616,0.0617 1.81842,0 3.9039,-0.13727 4.65404,-0.30611 8.80969,-0.16997 10.69617,0.34989 0.73801,0.20316 1.44914,0.32865 1.58035,0.27806 0.60334,-0.23162 1.81388,-5.40042 2.17205,-9.27436 0.4777,-5.16671 -0.4915,-8.91504 -2.72305,-10.53158 -1.54688,-1.12054 -2.37958,-1.24987 -8.02965,-1.24728 l -5.08302,0.002 -6.80929,1.40924 c -6.22311,1.28789 -12.16177,2.66108 -14.72165,3.40403 -0.71717,0.20841 -1.00698,0.38818 -1.00698,0.62615 0,1.11458 -3.56437,11.88855 -5.18023,15.65822 -0.31377,0.73158 -0.3448,0.95745 -0.14975,1.08134 0.34055,0.21589 1.06307,0.20116 1.49724,-0.0297 z m 43.38431,2.26535 c -0.32014,-0.32014 -0.28739,-1.01786 0.0611,-1.30728 0.40944,-0.3397 1.05133,0.26573 1.05133,0.99176 0,0.44156 -0.0841,0.54569 -0.44116,0.54569 -0.24284,0 -0.54473,-0.10358 -0.67132,-0.23012 z m 27.59311,-5.70547 c -0.73636,-0.73637 -0.39284,-1.54503 0.65653,-1.54503 0.9087,0 1.47619,0.4914 1.40571,1.21728 -0.0547,0.56223 -0.11555,0.60908 -0.86342,0.66343 -0.60878,0.0442 -0.90062,-0.0382 -1.19882,-0.33546 z"
       id="path39"
       inkscape:connector-curvature="0" />
  </g>
</svg>
