<svg width="528" height="362" xmlns="http://www.w3.org/2000/svg" preserveAspectRatio="xMidYMid meet" version="1.0">
 <metadata>Created by potrace 1.16, written by Peter Selinger 2001-2019</metadata>

 <g>
  <title>Layer 1</title>
  <g id="svg_1" fill="#000000" transform="translate(0.000000,362.000000) scale(0.100000,-0.100000)">
   <path id="svg_2" d="m1274,3571c-25,-11 -54,-37 -76,-67c-41,-57 -130,-215 -159,-283l-19,-46l6,146c3,81 2,149 -3,152c-4,2 -18,1 -29,-3c-20,-8 -22,-18 -28,-142c-9,-176 -43,-683 -56,-828c-19,-205 -72,-415 -145,-577c-29,-62 -31,-73 -17,-73c28,0 42,15 68,70c93,202 143,422 164,725c21,301 78,517 190,713c89,158 106,181 136,188c60,15 90,-63 106,-280c15,-215 0,-406 -68,-809c-30,-183 -64,-372 -76,-420l-20,-89l-37,8c-117,26 -168,-2 -158,-88c8,-68 33,-114 69,-129c27,-11 36,-10 67,7c28,15 44,35 71,91c33,68 37,73 68,73c55,0 112,38 210,139c105,108 203,233 286,365c31,49 56,84 56,78c0,-5 -14,-88 -30,-184c-40,-228 -53,-354 -40,-379c13,-23 56,-25 86,-5c12,8 47,54 79,101c57,85 108,135 137,135c19,0 55,-81 70,-158c15,-82 3,-302 -25,-472c-14,-80 -35,-209 -47,-288c-13,-78 -28,-148 -34,-156c-8,-9 -125,-26 -376,-56c-201,-23 -455,-55 -565,-71c-260,-38 -249,-37 -610,-44c-171,-3 -318,-8 -327,-11c-10,-3 -18,-12 -18,-20c0,-17 55,-18 437,-3c220,8 328,17 518,44c296,42 926,117 932,111c3,-2 -6,-66 -19,-143c-20,-121 -23,-171 -23,-413c0,-291 4,-326 48,-391c19,-28 29,-34 57,-34c29,0 36,4 38,23c3,17 -1,22 -20,22c-42,0 -59,55 -70,225c-10,164 0,387 27,565c26,175 10,155 133,169c59,7 251,37 427,67c349,58 614,95 855,120c218,21 720,30 846,15c98,-13 215,-34 244,-46c9,-3 24,1 34,8c17,13 16,15 -19,36c-20,12 -45,19 -54,16c-9,-3 -64,1 -121,9c-385,54 -1022,10 -1780,-124c-224,-40 -521,-81 -529,-74c-2,2 18,126 44,276c61,354 72,464 57,582c-22,177 -57,246 -125,246c-54,0 -117,-48 -187,-144c-34,-47 -65,-86 -67,-86c-9,0 8,142 33,275c13,72 38,211 54,310c17,99 39,208 50,242c28,90 49,220 56,356l7,119l-29,-4c-28,-3 -29,-5 -46,-98c-10,-52 -28,-174 -41,-270c-23,-172 -24,-177 -79,-290c-146,-300 -442,-660 -545,-660c-21,0 -21,1 -7,54c8,30 35,173 59,318c93,543 89,505 90,823c0,287 0,291 -25,349c-38,90 -93,119 -166,87zm-81,-1642c20,-5 37,-15 37,-20c0,-18 -50,-116 -65,-129c-20,-17 -31,-6 -44,44c-26,106 -11,128 72,105z"/>
   <path id="svg_3" d="m2410,2419c0,-28 36,-86 61,-99c26,-15 26,11 -1,35c-11,10 -20,28 -20,40c0,21 -17,45 -32,45c-4,0 -8,-10 -8,-21z"/>
   <path id="svg_4" d="m4174,2019c-546,-11 -1045,-38 -1389,-75c-150,-16 -179,-24 -158,-45c7,-7 64,-4 194,10c430,48 856,67 1699,76c311,4 571,9 579,11c11,3 11,7 1,19c-14,17 -273,18 -926,4z"/>
   <path id="svg_5" d="m2928,709c-26,-14 -22,-26 10,-32c15,-2 42,-11 59,-18c29,-12 35,-11 50,3c16,16 14,19 -28,37c-50,23 -66,25 -91,10z"/>
   <path id="svg_6" d="m1160,413c-99,-7 -211,-25 -330,-55c-114,-28 -134,-30 -231,-24c-82,5 -109,3 -124,-8c-49,-36 220,-33 365,4c128,33 176,40 313,50c71,4 131,11 134,14c3,2 2,9 -2,15c-6,11 -27,11 -125,4z"/>
  </g>
 </g>
</svg>