<?xml version="1.0" encoding="UTF-8" standalone="no"?>
<!-- Created with Inkscape (http://www.inkscape.org/) -->

<svg
   xmlns:dc="http://purl.org/dc/elements/1.1/"
   xmlns:cc="http://creativecommons.org/ns#"
   xmlns:rdf="http://www.w3.org/1999/02/22-rdf-syntax-ns#"
   xmlns:svg="http://www.w3.org/2000/svg"
   xmlns="http://www.w3.org/2000/svg"
   xmlns:sodipodi="http://sodipodi.sourceforge.net/DTD/sodipodi-0.dtd"
   xmlns:inkscape="http://www.inkscape.org/namespaces/inkscape"
   id="svg2985"
   version="1.1"
   inkscape:version="0.47 r22583"
   width="468"
   height="261"
   sodipodi:docname="Tiger Woods.png">
  <metadata
     id="metadata2991">
    <rdf:RDF>
      <cc:Work
         rdf:about="">
        <dc:format>image/svg+xml</dc:format>
        <dc:type
           rdf:resource="http://purl.org/dc/dcmitype/StillImage" />
        <dc:title></dc:title>
      </cc:Work>
    </rdf:RDF>
  </metadata>
  <defs
     id="defs2989">
    <inkscape:perspective
       sodipodi:type="inkscape:persp3d"
       inkscape:vp_x="0 : 0.5 : 1"
       inkscape:vp_y="0 : 1000 : 0"
       inkscape:vp_z="1 : 0.5 : 1"
       inkscape:persp3d-origin="0.5 : 0.33333333 : 1"
       id="perspective2993" />
    <inkscape:perspective
       id="perspective3007"
       inkscape:persp3d-origin="0.5 : 0.33333333 : 1"
       inkscape:vp_z="1 : 0.5 : 1"
       inkscape:vp_y="0 : 1000 : 0"
       inkscape:vp_x="0 : 0.5 : 1"
       sodipodi:type="inkscape:persp3d" />
  </defs>
  <sodipodi:namedview
     pagecolor="#ffffff"
     bordercolor="#666666"
     borderopacity="1"
     objecttolerance="10"
     gridtolerance="10"
     guidetolerance="10"
     inkscape:pageopacity="0"
     inkscape:pageshadow="2"
     inkscape:window-width="1366"
     inkscape:window-height="706"
     id="namedview2987"
     showgrid="false"
     inkscape:zoom="0.97239856"
     inkscape:cx="594.59834"
     inkscape:cy="146.0925"
     inkscape:window-x="-8"
     inkscape:window-y="-8"
     inkscape:window-maximized="1"
     inkscape:current-layer="svg2985" />
  <path
     style="fill:#000000"
     d="M 151.4375 3.65625 C 151.24409 3.6717221 151.0259 3.7141475 150.78125 3.75 C 148.82805 4.03623 147.96593 5.6648896 145 14.59375 C 143.08171 20.36875 141.20044 25.99375 140.8125 27.09375 C 140.42455 28.19375 139.39179 31.56875 138.53125 34.59375 C 137.67071 37.61875 135.77775 44.14375 134.34375 49.09375 C 132.90975 54.04375 131.25816 59.89375 130.65625 62.09375 C 128.25097 70.885001 125.56131 78.269137 123.53125 81.59375 C 119.07259 88.895675 103.47054 104.62722 91.8125 113.59375 C 89.3375 115.49735 85.7375 118.51962 83.8125 120.3125 C 81.8875 122.10539 79.90242 123.5575 79.40625 123.5625 C 78.91007 123.56727 76.66007 124.94584 74.40625 126.625 C 60.92825 136.66644 34.94974 153.59375 33 153.59375 C 32.43368 153.59375 31.83958 153.93125 31.65625 154.34375 C 31.25936 155.23676 23.14138 160.59375 22.1875 160.59375 C 21.82264 160.59375 18.76568 162.29616 15.40625 164.375 C 12.04681 166.45385 7.625 169.02252 5.5625 170.09375 C 3.5 171.16498 1.8125 172.41301 1.8125 172.875 C 1.8125 173.99064 5.91577 172.71082 7.90625 170.96875 C 8.77455 170.2088 9.8995503 169.59475 10.40625 169.59375 C 10.91294 169.5927 15.05439 167.3427 19.625 164.59375 C 24.19562 161.8448 28.09937 159.59375 28.3125 159.59375 C 29.05171 159.59375 47.39961 147.79462 64.3125 136.4375 C 83.61897 123.47308 97.931549 112.16114 109.71875 100.5625 C 120.58768 89.867438 123.3635 89.688761 119.125 99.9375 C 112.77818 115.28419 102.6466 135.74529 91.65625 155.375 C 87.67584 162.48435 90.44061 163.79682 95.9375 157.40625 L 99.5625 153.1875 L 103.0625 156.90625 C 107.90808 162.04406 110.02607 161.11984 116.34375 151.125 C 117.93121 148.61357 119.70827 146.71642 120.28125 146.90625 C 120.88693 147.10691 121.42795 151.51509 121.59375 157.4375 C 121.84568 166.4364 121.6655 167.70936 120.09375 168.3125 C 119.11519 168.68801 113.14079 171.86748 106.8125 175.40625 C 72.476129 194.60713 55.40639 211.63853 50.875 231.1875 C 48.21809 242.64971 54.94013 255.07122 65.1875 257.6875 C 69.33268 258.74582 81.91263 257.75499 83.8125 256.21875 C 84.6375 255.55164 86.53255 254.37433 88.03125 253.625 C 96.02837 249.62654 107.88603 235.49375 112.875 224 C 118.46928 211.11173 122.22665 195.18187 123.375 179.5625 C 123.71977 174.8732 124.52354 170.32833 125.15625 169.46875 C 125.78896 168.60916 128.1125 167.09576 130.3125 166.09375 C 132.5125 165.09174 136.56078 162.58941 139.3125 160.5625 C 145.97087 155.65795 151.30022 153.73011 153.59375 155.375 C 157.98947 158.52756 160.29671 157.99335 162.625 153.25 C 164.23809 149.96368 164.85553 149.9462 167.8125 153.09375 C 170.8916 156.3713 173.54274 156.27968 175.0625 152.84375 C 177.71144 146.85493 181.28953 146.10252 183.375 151.09375 C 185.02 155.0308 186.80017 155.43812 191.6875 153 C 194.60424 151.54494 195.09179 151.54494 197.3125 153 C 198.64824 153.87522 200.39465 154.59375 201.1875 154.59375 C 201.98036 154.59375 205.60065 151.37664 209.21875 147.46875 L 215.78125 140.375 L 216.8125 143.03125 C 217.37089 144.49994 217.8105 146.25455 217.8125 146.90625 C 217.81455 147.55794 218.72264 149.55625 219.8125 151.34375 C 222.79736 156.23927 226.15267 155.77452 232.53125 149.59375 C 237.94582 144.34709 239.90444 144.00063 242.625 147.78125 C 245.86893 152.28914 256.64187 147.61666 267 137.21875 C 275.8516 128.33315 280.22121 120.40232 281.65625 110.59375 C 283.84674 95.621904 285.10797 50.76716 283.78125 35.34375 C 283.10614 27.49531 282.1698 20.6475 281.6875 20.125 C 281.20519 19.6025 280.8125 18.39951 280.8125 17.4375 C 280.8125 15.31043 274.86443 10.59375 272.1875 10.59375 C 269.19843 10.59375 266.47887 12.96285 262.21875 19.28125 C 249.49287 38.15571 226.19294 63.718769 201.78125 85.59375 C 196.56711 90.26607 189.71831 96.521395 186.5625 99.5 C 183.40669 102.4786 179.24419 106.03184 177.3125 107.40625 C 173.87932 109.849 172.83132 111.59375 174.78125 111.59375 C 178.32987 111.59375 231.67801 61.433494 242.3125 48.09375 C 244.50481 45.34375 247.2159 42.19698 248.34375 41.09375 C 251.23242 38.26813 258.87926 28.13757 261.65625 23.46875 C 264.86413 18.07549 270.21269 12.59375 272.25 12.59375 C 273.17856 12.59375 275.1818 13.9735 276.71875 15.65625 C 281.46435 20.85153 282.10336 27.533829 281.46875 66.09375 C 280.87935 101.90632 279.94333 115.86917 278 117.8125 C 277.35316 118.45934 276.8125 119.63498 276.8125 120.4375 C 276.8125 122.5043 269.41469 132.24079 263.59375 137.8125 C 257.79248 143.36538 249.02816 147.97233 246.21875 146.96875 C 243.37728 145.95373 240.8125 143.48829 240.8125 141.78125 C 240.8125 140.95591 241.9375 138.80272 243.3125 137 C 245.80923 133.72661 246.66074 129.59375 244.84375 129.59375 C 243.13444 129.59375 240.04601 133.64492 239.4375 136.6875 C 238.84786 139.63571 227.26806 152.59375 225.21875 152.59375 C 224.66003 152.59375 223.36856 151.97651 222.375 151.25 C 220.94436 150.20388 220.46738 148.06978 220.0625 140.96875 C 219.59514 132.77196 219.79947 131.51366 222.25 126.15625 C 226.11161 117.71392 230.8125 103.06217 230.8125 99.5 C 230.8125 96.905587 230.47017 96.478597 228.5625 96.75 C 224.77 97.289556 222.39949 103.48518 218.84375 122.1875 C 217.78749 127.74322 216.00268 133.81822 214.875 135.6875 C 213.74733 137.55679 212.42101 139.99375 211.90625 141.09375 C 210.24683 144.63975 202.87668 151.59375 200.78125 151.59375 C 197.61486 151.59375 197.38239 148.99991 200.21875 145.28125 C 203.04961 141.5698 203.59818 138.59375 201.4375 138.59375 C 199.78856 138.59375 198.1232 140.46431 195.9375 144.8125 C 194.02756 148.61207 187.89309 153.08059 186.5 151.6875 C 184.77282 149.96032 185.60462 142.71971 187.875 139.53125 C 189.06941 137.85385 189.79355 136.23105 189.5 135.9375 C 188.28681 134.72431 185.11246 136.93113 182.03125 141.125 C 178.39835 146.06978 176.95417 146.56516 174.8125 143.59375 C 172.67823 140.63261 170.49052 141.13868 168.34375 145.125 C 166.96285 147.68918 165.87049 148.58884 164.375 148.375 C 162.67411 148.13179 162.3125 147.35731 162.3125 144.03125 C 162.3125 141.80718 161.58457 138.88218 160.6875 137.53125 C 159.07691 135.10582 159.02436 135.1239 156.9375 137 C 154.49213 139.1984 152.63912 145.00601 153.40625 148.0625 C 153.97296 150.32044 150.40689 154.50167 149.0625 153.15625 C 148.65337 152.74681 148.29625 149.49039 148.28125 145.90625 C 148.25118 138.70808 146.78594 136.59375 141.8125 136.59375 C 134.01736 136.59375 131.05742 148.65155 137.5 154.1875 C 140.12975 156.44717 140.16032 156.52725 138.375 158.5 C 136.25492 160.84266 128.9633 164.59375 126.5 164.59375 C 125.09803 164.59375 124.80905 163.46235 124.71875 157.84375 C 124.55837 147.86975 123.43968 139.28716 122.28125 138.90625 C 121.72072 138.72194 120.37072 140.23886 119.28125 142.28125 C 116.13175 148.18554 108.943 157.59375 107.5625 157.59375 C 106.86867 157.59375 105.70655 156.66263 105 155.53125 C 103.57696 153.25261 104.64625 148.85938 108.03125 143.09375 C 108.99996 141.44375 109.8105 139.75625 109.8125 139.34375 C 109.82048 137.74344 107.4991 138.71122 105.625 141.09375 C 103.50531 143.7885 101.79325 144.35605 101.84375 142.34375 C 101.86101 141.65625 103.1226 138.61875 104.65625 135.59375 C 106.18991 132.56875 109.06944 126.94375 111.03125 123.09375 C 112.99307 119.24375 115.34474 114.29375 116.28125 112.09375 C 117.21777 109.89375 118.6305 106.89736 119.40625 105.4375 C 120.182 103.97764 120.8125 101.91764 120.8125 100.875 C 120.8125 99.83236 121.15671 98.55375 121.59375 98.03125 C 122.03078 97.50875 123.16874 94.61875 124.09375 91.59375 C 127.62402 80.048924 128.77657 76.913616 131.625 71.09375 C 133.24012 67.79375 136.01167 61.49375 137.78125 57.09375 C 139.55083 52.693749 141.366 48.19375 141.84375 47.09375 C 144.95619 39.92743 150.48139 20.16472 151.34375 13.09375 C 151.67913 10.34375 152.19289 7.03513 152.5 5.75 C 152.91632 4.007875 152.79136 3.5479455 151.4375 3.65625 z M 353.40625 11.59375 C 352.4323 11.59375 351.8125 12.4254 351.8125 13.71875 C 351.8125 15.82299 351.02527 19.27837 348.3125 29.09375 C 347.55245 31.84375 346.43319 37.01875 345.8125 40.59375 C 345.19181 44.16875 344.20636 49.11875 343.625 51.59375 C 343.04363 54.06875 342.20124 59.46875 341.75 63.59375 C 340.27077 77.115934 338.88612 85.583571 337.84375 87.53125 C 337.27998 88.584667 336.8125 90.452891 336.8125 91.6875 C 336.8125 94.072037 336.41455 95.493527 332.21875 108.09375 C 329.77204 115.4414 326.29619 123.29571 322.71875 129.59375 C 319.4044 135.42863 308.45302 147.52361 305.5625 148.53125 C 301.73016 149.86721 301.8125 149.87401 301.8125 148.125 C 301.8125 147.31913 303.1625 145.12925 304.8125 143.25 C 308.12059 139.48229 308.6033 137.59375 306.28125 137.59375 C 305.44492 137.59375 303.31925 139.63268 301.5625 142.125 C 299.45526 145.11457 296.65572 147.50527 293.28125 149.15625 C 285.17442 153.12255 282.26097 150.34384 286.40625 142.59375 C 288.91611 137.90128 288.52175 134.6899 285.90625 138.5625 C 285.03729 139.8491 282.39149 142.9239 280.03125 145.40625 C 276.12276 149.51694 275.5932 149.7807 274.15625 148.34375 C 272.71929 146.90679 272.73764 146.36179 274.34375 142.15625 C 276.08327 137.60139 275.91766 135.78813 273.90625 137.03125 C 272.74154 137.75108 270.8205 144.04276 270.8125 147.15625 C 270.80943 148.28863 271.41655 150.01965 272.15625 151.03125 C 273.45398 152.80603 273.59441 152.82858 276.53125 151.09375 C 279.55997 149.30464 280.0467 149.33714 284.8125 152.09375 C 285.13824 152.28217 285.2849 152.3831 285.53125 152.53125 C 286.10652 152.58012 286.65019 152.74647 287.1875 153.21875 C 287.02869 153.1495 286.77681 153.04507 286.875 153.09375 C 287.06108 153.18601 287.04887 153.18051 287.1875 153.25 C 287.2012 153.25601 287.20473 153.24375 287.21875 153.25 C 287.23539 153.25834 287.23671 153.27274 287.25 153.28125 C 287.27093 153.28123 287.29157 153.28128 287.3125 153.28125 C 287.35436 153.2812 287.39564 153.28132 287.4375 153.28125 C 287.79054 153.27838 288.14859 153.27318 288.5 153.28125 C 289.2979 153.0863 290.44643 152.67599 292.4375 152 C 296.18596 150.72736 297.5563 150.63713 299.34375 151.59375 C 302.17269 153.10775 304.41668 152.36702 308.8125 148.5 C 310.7375 146.80657 313.37687 144.7079 314.6875 143.8125 C 316.96399 142.25726 317.16506 142.28471 319.1875 144.78125 C 321.14235 147.19436 322.07859 147.46274 331.3125 148 C 336.8125 148.32001 342.2125 148.6172 343.3125 148.6875 C 346.24358 148.87479 380.53383 146.78034 393.3125 145.625 C 399.3625 145.07801 418.01836 144.40542 434.78125 144.15625 C 457.1041 143.82442 465.36583 143.40251 465.65625 142.53125 C 465.9593 141.62208 460.19884 141.49398 441.1875 141.96875 C 408.63988 142.78158 378.43315 144.14943 362.40625 145.53125 C 355.31555 146.14254 348.67805 146.35555 347.65625 146.03125 C 345.58149 145.37274 345.11217 142.6186 347.0625 142.5625 C 349.14509 142.50258 354.10968 137.87625 353.375 136.6875 C 351.68806 133.95799 341.73652 137.21851 337.625 141.84375 C 335.63413 144.08337 333.66703 145.08717 330.125 145.625 C 319.31129 147.26695 318.06178 142.85732 325.4375 128.875 C 334.82272 111.08323 339.76059 94.924917 342.71875 72.09375 C 344.51798 58.207178 346.54902 47.16077 350.8125 28.09375 C 351.30443 25.89375 352.14476 22.06875 352.6875 19.59375 C 353.23024 17.11875 353.97083 14.30625 354.34375 13.34375 C 354.8172 12.12179 354.52835 11.59375 353.40625 11.59375 z M 144.9375 24.59375 C 146.24012 24.59375 146.02689 25.98051 143.71875 33.125 C 142.57226 36.67378 141.15948 39.88105 140.5625 40.25 C 139.8339 40.7003 139.74745 40.28483 140.28125 39 C 140.71862 37.94727 141.44978 35.51875 141.90625 33.59375 C 142.36273 31.66875 143.01127 28.85625 143.375 27.34375 C 143.73873 25.83125 144.45161 24.59375 144.9375 24.59375 z M 145.21875 108.03125 C 145.10867 108.01986 144.99859 108.0382 144.90625 108.0625 C 144.09368 108.27631 143.95056 109.81514 144.78125 112 C 145.32157 113.42116 146.21764 114.59375 146.78125 114.59375 C 148.31497 114.59375 148.02766 110.0019 146.40625 108.65625 C 145.94677 108.27491 145.54898 108.06541 145.21875 108.03125 z M 224.71875 108.59375 C 225.21726 108.59375 225.38141 109.49375 225.09375 110.59375 C 224.80609 111.69375 224.39835 112.59375 224.1875 112.59375 C 223.97665 112.59375 223.8125 111.69375 223.8125 110.59375 C 223.8125 109.49375 224.22024 108.59375 224.71875 108.59375 z M 142.46875 139.375 C 143.23378 139.36074 143.95276 139.45983 144.5625 139.6875 C 146.38935 140.36962 146.8125 141.29129 146.8125 144.59375 C 146.8125 146.83082 146.07576 149.76935 145.1875 151.125 C 143.27165 154.04897 140.03214 154.20484 137.5625 151.5 C 135.78133 149.5492 135.22466 144.0594 136.59375 141.90625 C 137.5149 140.45758 140.17366 139.41779 142.46875 139.375 z M 157.8125 139.75 C 159.06442 139.79201 159.94904 141.56167 159.34375 143.46875 C 158.41243 146.40306 155.8125 146.1803 155.8125 143.15625 C 155.8125 141.81371 156.30833 140.40079 156.90625 140.03125 C 157.22016 139.83724 157.5236 139.74031 157.8125 139.75 z M 172.375 145.59375 C 173.30624 145.59375 173.81638 146.26324 173.625 147.25 C 173.13845 149.75877 170.8125 150.0933 170.8125 147.65625 C 170.8125 146.42792 171.44737 145.59375 172.375 145.59375 z M 158.59375 150.84375 C 159.23876 150.74866 159.8125 151.28148 159.8125 152.5 C 159.8125 153.72833 159.17763 154.59375 158.25 154.59375 C 157.31876 154.59375 156.80862 153.89301 157 152.90625 C 157.24327 151.65186 157.94874 150.93884 158.59375 150.84375 z M 119.6875 171.875 C 119.95144 171.86523 120.17821 171.90523 120.34375 171.96875 C 122.87765 172.9411 122.24662 181.16347 118.1875 200.59375 C 117.32576 204.71875 116.21726 208.85746 115.71875 209.8125 C 115.22023 210.76754 114.8125 212.27115 114.8125 213.15625 C 114.8125 214.04135 114.19791 215.97764 113.4375 217.4375 C 112.67708 218.89736 110.79594 222.79375 109.25 226.09375 C 105.77002 233.52221 103.01816 237.20961 95.15625 245.03125 C 89.12706 251.02955 88.11351 251.69682 80.65625 254.96875 C 71.29266 259.07709 60.48476 255.43157 54.90625 246.28125 C 52.91222 243.01048 52.66815 241.49973 53.03125 235.28125 C 53.68905 224.01609 57.84186 216.38615 69.84375 204.4375 C 75.17431 199.1306 81.09216 193.7306 83 192.4375 C 100.94499 180.2748 115.72836 172.02161 119.6875 171.875 z "
     id="path2997" />
</svg>
