<?xml version="1.0" encoding="UTF-8" standalone="no"?>
<!-- Created with Inkscape (http://www.inkscape.org/) -->

<svg
   xmlns:dc="http://purl.org/dc/elements/1.1/"
   xmlns:cc="http://creativecommons.org/ns#"
   xmlns:rdf="http://www.w3.org/1999/02/22-rdf-syntax-ns#"
   xmlns:svg="http://www.w3.org/2000/svg"
   xmlns="http://www.w3.org/2000/svg"
   xmlns:sodipodi="http://sodipodi.sourceforge.net/DTD/sodipodi-0.dtd"
   xmlns:inkscape="http://www.inkscape.org/namespaces/inkscape"
   width="256.43292"
   height="261.3956"
   id="svg3325"
   version="1.1"
   inkscape:version="0.48.1 r9760"
   sodipodi:docname="Documento nuevo 23">
  <defs
     id="defs3327" />
  <sodipodi:namedview
     id="base"
     pagecolor="#ffffff"
     bordercolor="#666666"
     borderopacity="1.0"
     inkscape:pageopacity="0.0"
     inkscape:pageshadow="2"
     inkscape:zoom="1.8898558"
     inkscape:cx="128.21646"
     inkscape:cy="130.6978"
     inkscape:document-units="px"
     inkscape:current-layer="layer1"
     showgrid="false"
     fit-margin-top="0"
     fit-margin-left="0"
     fit-margin-right="0"
     fit-margin-bottom="0"
     inkscape:window-width="1280"
     inkscape:window-height="712"
     inkscape:window-x="0"
     inkscape:window-y="0"
     inkscape:window-maximized="0" />
  <metadata
     id="metadata3330">
    <rdf:RDF>
      <cc:Work
         rdf:about="">
        <dc:format>image/svg+xml</dc:format>
        <dc:type
           rdf:resource="http://purl.org/dc/dcmitype/StillImage" />
        <dc:title></dc:title>
      </cc:Work>
    </rdf:RDF>
  </metadata>
  <g
     inkscape:label="Capa 1"
     inkscape:groupmode="layer"
     id="layer1"
     transform="translate(-235.49564,-255.35007)">
    <path
       style="fill:#000000"
       d="m 282.42857,514.729 c -14.91542,-3.16997 -23.8642,-7.48208 -31,-14.93786 -6.29063,-6.5727 -2.62715,-17.76012 10,-30.53772 9.3957,-9.50764 12.8529,-11.95477 22.62445,-16.01438 9.46731,-3.93322 9.53772,-3.95109 7.9289,-2.01258 -0.65535,0.78965 -2.47936,1.71857 -4.05335,2.06428 -1.57399,0.34571 -3.398,1.27463 -4.05335,2.06428 -0.65535,0.78965 -2.03644,1.43572 -3.0691,1.43572 -1.03265,0 -1.87755,0.357 -1.87755,0.79332 0,0.43633 -2.1375,2.09662 -4.75,3.68953 -3.97848,2.42579 -7.68625,6.13037 -16.80185,16.78743 -1.54709,1.8087 -5.24829,9.84302 -5.86426,12.72972 -1.2815,6.00571 6.87994,14.40781 18.15302,18.6883 10.19994,3.87302 14.78058,4.58278 26.53764,4.11197 10.15667,-0.40671 11.86745,-0.76147 17.96843,-3.72601 15.72964,-7.64322 33.46722,-32.26799 43.63254,-60.57426 0.59254,-1.65 1.78592,-6.51055 2.65195,-10.80122 0.86604,-4.29067 1.82479,-8.45317 2.13056,-9.25 1.09987,-2.86622 -1.98114,-1.35896 -6.74808,3.30122 -13.23256,12.93622 -18.84404,15.75 -31.40995,15.75 -8.21393,0 -9.58952,-0.29398 -15.74964,-3.36596 -20.93843,-10.44171 -33.29885,-40.19591 -31.38425,-75.54868 0.35998,-6.64695 0.93339,-14.22286 1.27425,-16.83536 0.36459,-2.79436 0.22506,-4.75 -0.33889,-4.75 -1.15406,0 -17.94374,19.85526 -21.56288,25.5 -1.41054,2.2 -3.62535,5.125 -4.92181,6.5 -3.05919,3.24454 -12.52249,18.23681 -12.97068,20.54887 -0.46308,2.38885 -2.44478,2.93932 -3.22857,0.89682 -0.72746,-1.89575 6.56119,-13.41325 12.17946,-19.24592 1.26334,-1.31156 3.49998,-4.25555 4.9703,-6.54221 5.7335,-8.91675 12.7619,-17.71944 21.97216,-27.51893 4.18364,-4.45129 6.58349,-7.95658 7.28359,-10.63863 2.87519,-11.01467 9.18082,-25.69891 16.63194,-38.73163 3.73538,-6.53354 23.51111,-26.78897 28.16634,-28.84957 1.74827,-0.77386 3.17868,-1.64484 3.17868,-1.93551 0,-0.66313 4.98218,-3.28586 11.5,-6.05384 12.37437,-5.25514 27.25417,-7.32968 42.74167,-5.95904 23.59493,2.08815 41.81325,9.11891 58.2429,22.47692 2.74152,2.22897 5.822,4.72767 6.84553,5.55267 1.02352,0.825 4.44512,4.65 7.60355,8.5 11.75271,14.32611 22.86964,36.40457 21.63748,42.97253 -1.10998,5.91672 -8.00511,9.52747 -18.19375,9.52747 -2.68982,0 -6.34404,0.41685 -8.1205,0.92633 -2.07638,0.5955 -3.44906,0.57174 -3.84353,-0.0665 -0.98628,-1.59583 -0.15327,-1.86557 8.95859,-2.90093 18.59954,-2.11342 21.53598,-5.80651 16.04418,-20.17838 -10.76012,-28.15892 -36.23642,-51.59299 -65.91612,-60.63215 -11.21367,-3.41521 -16.8822,-4.14834 -32.07474,-4.14834 -19.38925,0 -28.77986,2.76174 -47.42526,13.94756 -7.51839,4.51046 -25,21.03163 -25,23.6265 0,0.7057 -0.75656,2.03964 -1.68125,2.96433 -3.28262,3.28262 -8.45648,12.98562 -12.8571,24.11202 -2.4539,6.20441 -4.46165,11.74624 -4.46165,12.31517 0,1.86816 2.44067,1.08044 5.95282,-1.92126 1.89906,-1.62304 6.30233,-4.39732 9.78505,-6.16506 5.09409,-2.58562 7.88638,-3.30403 14.28075,-3.6742 7.24654,-0.41949 8.44631,-0.20828 13.58471,2.39151 12.84961,6.50131 23.42322,24.11963 32.95023,54.90343 2.77786,8.97586 4.01996,15.74495 5.32139,29 0.68222,6.94835 0.69769,6.97786 2.09701,4 1.80484,-3.84083 5.02712,-7.5 6.60453,-7.5 0.67532,0 1.69847,1.35 2.27367,3 0.57519,1.65 1.22536,3 1.44481,3 1.3253,0 6.25373,-6.12015 10.33255,-12.83102 0.11065,-0.18206 1.09533,0.14751 2.18816,0.73238 2.65639,1.42165 7.8145,-0.37918 8.49052,-2.96426 0.42804,-1.63685 1.41232,-1.9376 6.35018,-1.94029 3.21399,-0.002 9.89362,-0.71692 14.84362,-1.58925 5.64413,-0.99466 11.13312,-1.34906 14.72075,-0.95046 5.17741,0.57523 6.26965,0.33368 11.5,-2.54318 7.89957,-4.34501 8.17088,-4.61185 10.85111,-10.67232 4.46482,-10.09576 9.42814,-14.67668 9.42814,-8.70176 0,7.32807 -11.96611,20.89386 -21.25,24.0908 -0.9625,0.33144 -1.75,1.43983 -1.75,2.46307 0,1.48827 -0.75019,1.85474 -3.75,1.83188 -2.0625,-0.0157 -5.56568,0.25762 -7.78484,0.60743 -3.14803,0.49622 -4.55772,0.21262 -6.41382,-1.29036 -2.20058,-1.78193 -2.83533,-1.82839 -8.46515,-0.61965 -3.34741,0.7187 -7.97824,1.32254 -10.29074,1.34186 -3.17422,0.0265 -4.84694,0.67752 -6.82602,2.65661 -2.24134,2.24134 -3.25208,2.55041 -6.97001,2.13134 -3.80205,-0.42854 -4.41799,-0.22388 -4.90125,1.62852 -0.71759,2.75062 -7.08129,9.61866 -8.91233,9.61866 -0.77887,0 -2.64606,-0.96747 -4.14931,-2.14992 -1.50325,-1.18246 -3.02643,-1.73954 -3.38486,-1.23796 -6.2539,8.75178 -6.76901,10.28174 -10.23113,30.38788 -0.61559,3.575 -1.92981,8.075 -2.9205,10 -2.85846,5.55428 -4.73683,10.2516 -5.44434,13.61487 -0.36039,1.71317 -1.42035,3.96317 -2.35547,5 -0.93513,1.03682 -2.9559,4.2294 -4.4906,7.09463 -3.07591,5.74259 -8.85552,14.56791 -10.89983,16.64377 -0.72039,0.73151 -2.40008,2.76494 -3.73264,4.51874 -2.50792,3.3007 -11.32481,10.12799 -13.07947,10.12799 -0.54873,0 -0.99769,0.38886 -0.99769,0.86414 0,1.00962 -7.77311,4.13586 -10.28343,4.13586 -0.94411,0 -1.71657,0.675 -1.71657,1.5 0,2.15798 -12.0595,1.86971 -23.5,-0.56174 z m 50.53276,-69.54063 c 6.98982,-2.07575 16.02281,-8.57854 24.45108,-17.60218 l 6.72791,-7.20316 -0.56106,-10.04615 c -0.57476,-10.29153 -1.20361,-14.51026 -4.09649,-27.48171 -1.63717,-7.34096 -2.698,-10.34553 -8.84961,-25.06443 -5.96788,-14.27931 -14.98449,-25.59811 -24.02833,-30.16342 -5.37715,-2.71438 -6.80657,-3.01619 -12.13566,-2.56239 -10.63397,0.90554 -16.82322,3.89094 -28.8242,13.90343 -4.43775,3.70244 -5.84821,10.71125 -6.40393,31.82238 -0.49708,18.88301 -0.10546,22.49036 3.98459,36.70353 3.57192,12.4126 12.74631,26.63085 20.95549,32.4763 4.426,3.15159 14.57404,6.70734 19.31595,6.76807 2.23767,0.0286 6.49659,-0.66897 9.46426,-1.55027 z m 0.96724,-20.28413 c 0,-1.33766 0.8856,-2.01648 3.04403,-2.33327 3.85814,-0.56625 4.6441,0.62438 1.75019,2.65135 -2.99565,2.09823 -4.79422,1.97891 -4.79422,-0.31808 z m 71,62.44552 c 0,-0.79254 0.45332,-1.72115 1.00738,-2.06358 0.55406,-0.34243 1.90406,-2.39398 3,-4.55902 1.09594,-2.16503 2.95584,-5.84554 4.13312,-8.17891 1.17727,-2.33337 2.68325,-4.69587 3.34661,-5.25 0.66337,-0.55413 2.21185,-2.69501 3.44107,-4.75751 1.22921,-2.0625 2.64824,-3.75 3.15338,-3.75 0.50514,0 0.91844,-0.5871 0.91844,-1.30466 0,-2.42996 11.76963,-13.69534 14.30836,-13.69534 2.40601,0 4.65857,3.2424 4.72205,6.79705 0.0281,1.57461 0.10723,1.57106 1.04969,-0.0471 0.5606,-0.9625 1.39661,-1.75 1.85779,-1.75 0.46118,0 2.8107,-1.9125 5.22116,-4.25 9.83017,-9.53262 19.89007,-17.14583 25.25246,-19.11076 1.05133,-0.38523 4.98883,-0.9626 8.75,-1.28304 6.40064,-0.54532 6.83849,-0.45241 6.83849,1.45113 0,2.23192 -2.77916,3.15964 -9.14725,3.05348 -6.88719,-0.11478 -10.4537,1.93283 -28.11118,16.13924 -11.38985,9.16375 -13.74157,12.06684 -13.74157,16.96331 0,1.84851 -0.41405,2.89883 -1,2.53669 -0.55,-0.33992 -1,-1.49148 -1,-2.55902 0,-1.06754 -0.31739,-1.94098 -0.7053,-1.94098 -0.38792,0 -3.42542,2.62897 -6.75,5.84217 -3.32459,3.21319 -10.07938,9.73819 -15.01066,14.5 -8.71855,8.41893 -11.53404,10.18058 -11.53404,7.21685 z m 20.14993,-18.59922 c 5.69254,-5.5221 11.13757,-10.48794 12.10007,-11.03518 1.26289,-0.71803 1.75,-2.25652 1.75,-5.52719 0,-4.15611 -0.17512,-4.47662 -2.11032,-3.86242 -2.98443,0.94722 -17.37042,16.30866 -18.46309,19.71499 -0.30875,0.9625 -0.94529,1.75 -1.41452,1.75 -0.46924,0 -1.14854,1.34484 -1.50955,2.98853 -0.36102,1.6437 -1.07177,3.24525 -1.57946,3.55902 -1.18382,0.73164 -1.20006,2.45245 -0.0231,2.45245 0.49496,0 5.55746,-4.51809 11.25,-10.0402 z m -34.67385,-92.03516 c -0.79108,-2.49248 -0.10855,-3.38132 1.98079,-2.57956 1.94504,0.74638 2.03783,4.65492 0.11052,4.65492 -0.78794,0 -1.72903,-0.93391 -2.09131,-2.07536 z"
       id="path3398"
       inkscape:connector-curvature="0" />
  </g>
</svg>
