<?xml version="1.0" standalone="no"?>
<!DOCTYPE svg PUBLIC "-//W3C//DTD SVG 20010904//EN"
 "http://www.w3.org/TR/2001/REC-SVG-20010904/DTD/svg10.dtd">
<svg version="1.0" xmlns="http://www.w3.org/2000/svg"
 width="300.000000pt" height="135.000000pt" viewBox="0 0 300.000000 135.000000"
 preserveAspectRatio="xMidYMid meet">
<metadata>
Created by potrace 1.10, written by Peter Selinger 2001-2011
</metadata>
<g transform="translate(0.000000,135.000000) scale(0.050000,-0.050000)"
fill="#000000" stroke="none">
<path d="M3490 2205 c-424 -23 -698 -126 -659 -249 19 -59 185 -233 258 -271
53 -26 48 -16 -41 78 -173 183 -183 234 -58 286 289 121 986 134 1355 27 174
-51 37 -93 -645 -197 -223 -34 -418 -80 -432 -101 -18 -30 32 -78 82 -78 41 0
44 -9 44 -135 0 -139 60 -325 105 -325 31 0 25 84 -10 129 -37 49 -39 250 -2
300 34 47 287 34 500 -26 184 -52 196 -67 117 -149 -138 -143 -88 -176 172
-114 247 59 233 66 262 -125 45 -298 151 -655 200 -671 34 -11 26 44 -28 189
-58 153 -130 487 -130 602 l0 78 195 54 c338 95 725 315 725 411 0 56 -113
139 -209 153 -422 63 -771 -170 -771 -514 0 -42 -11 -59 -45 -66 -294 -67
-307 -67 -264 -2 81 124 -207 271 -530 271 -139 0 -45 38 174 70 554 82 757
153 685 240 -70 85 -631 157 -1050 135z m1863 -227 c179 -56 -41 -241 -433
-366 -335 -108 -340 -108 -340 -29 2 170 140 328 336 384 191 55 288 57 437
11z"/>
<path d="M2290 1928 c-33 -5 -154 -23 -270 -40 -583 -86 -1380 -301 -1380
-373 0 -47 54 -45 172 6 425 182 1231 339 1741 339 205 0 281 17 227 50 -25
15 -410 30 -490 18z"/>
<path d="M1713 1547 c-7 -8 -13 -27 -13 -43 0 -17 -44 -98 -97 -182 -131 -205
-168 -280 -155 -315 12 -31 273 339 312 444 30 78 -1 141 -47 96z"/>
<path d="M2570 1406 c-22 -6 -134 -36 -248 -68 -236 -66 -298 -71 -315 -28
-19 49 -67 35 -67 -19 0 -96 58 -100 336 -22 297 83 284 82 284 33 0 -59 54
-66 194 -22 259 80 273 68 184 -154 -78 -196 -118 -323 -118 -381 0 -78 34
-49 59 49 13 52 59 177 102 279 129 303 108 353 -132 300 -187 -41 -182 -41
-195 7 -11 41 -15 42 -84 26z"/>
<path d="M3425 915 c-13 -47 -36 -133 -53 -191 -29 -100 -26 -164 8 -164 8 0
20 35 27 77 7 43 31 117 52 165 22 49 40 113 41 143 0 86 -50 66 -75 -30z"/>
<path d="M3665 987 c-90 -37 -21 -81 112 -72 172 12 192 -13 75 -94 -159 -109
-182 -149 -121 -210 51 -50 381 -34 365 19 -3 12 -61 17 -139 13 -150 -8 -196
22 -118 76 87 58 181 157 181 188 0 68 -247 123 -355 80z"/>
</g>
</svg>
