<?xml version="1.0" encoding="UTF-8" standalone="no"?>
<!-- Created with Inkscape (http://www.inkscape.org/) -->

<svg
   width="167.88185mm"
   height="30.229118mm"
   viewBox="0 0 167.88185 30.229118"
   version="1.1"
   id="svg1"
   xml:space="preserve"
   inkscape:version="1.4 (86a8ad7, 2024-10-11)"
   sodipodi:docname="Tom Hanks signature.svg"
   xmlns:inkscape="http://www.inkscape.org/namespaces/inkscape"
   xmlns:sodipodi="http://sodipodi.sourceforge.net/DTD/sodipodi-0.dtd"
   xmlns="http://www.w3.org/2000/svg"
   xmlns:svg="http://www.w3.org/2000/svg"><sodipodi:namedview
     id="namedview1"
     pagecolor="#ffffff"
     bordercolor="#000000"
     borderopacity="0.25"
     inkscape:showpageshadow="2"
     inkscape:pageopacity="0.0"
     inkscape:pagecheckerboard="0"
     inkscape:deskcolor="#d1d1d1"
     inkscape:document-units="mm"
     inkscape:zoom="0.53858859"
     inkscape:cx="40.847505"
     inkscape:cy="95.620295"
     inkscape:window-width="1920"
     inkscape:window-height="1057"
     inkscape:window-x="-8"
     inkscape:window-y="-8"
     inkscape:window-maximized="1"
     inkscape:current-layer="layer1" /><defs
     id="defs1" /><g
     inkscape:label="Layer 1"
     inkscape:groupmode="layer"
     id="layer1"
     transform="translate(-19.886082,-138.3543)"><path
       style="fill:#000000"
       d="m 176.0492,261.18147 c -0.12696,0.33184 -0.26738,0.67215 -0.37207,0.99064 0.14261,-0.30836 0.28354,-0.6157 0.4284,-0.92552 -0.002,-0.004 -0.004,-0.007 -0.006,-0.0103 -0.0118,-0.022 -0.037,-0.0339 -0.0506,-0.0548 z"
       id="path11" /><path
       style="fill:#000000"
       d="m 177.51113,258.0721 c -0.54718,0.97861 -0.9778,1.88658 -1.33274,2.74919 0.0294,0.03 0.0571,0.0565 0.0853,0.0837 0.43232,-0.9216 0.86453,-1.83597 1.30276,-2.75848 -0.0189,-0.007 -0.0374,-0.0306 -0.0553,-0.0744 z"
       id="path10" /><path
       style="fill:#000000"
       d="m 177.97777,257.27784 c -0.075,0.12932 -0.14951,0.25849 -0.22325,0.38705 -0.006,0.0453 -0.0134,0.0887 -0.0212,0.12971 0.082,-0.17257 0.16269,-0.34454 0.24443,-0.51676 z"
       id="path6" /><g
       id="g11"
       transform="matrix(1.2828839,0,0,1.2828839,-9.2039207,-43.41386)"><path
         style="fill:#000000"
         d="m 49.189012,153.89367 c -0.443405,0.12424 -0.499802,0.52772 -0.359152,1.26349 0.195146,1.02084 0.970734,1.43165 3.890719,2.06189 2.960488,0.63897 8.532023,0.75749 15.298291,0.32556 5.626792,-0.35918 5.925258,-0.44939 6.039941,-1.82469 l 0.08992,-1.08108 -1.364774,0.16382 c -0.75078,0.0904 -2.703705,0.35864 -4.339787,0.59583 -5.49034,0.79595 -10.90965,0.43836 -16.573149,-1.09347 -1.4077,-0.38075 -2.238602,-0.53559 -2.682006,-0.41135 z"
         id="path5" /><path
         style="fill:#000000"
         d="m 40.861355,148.52087 c -0.279401,-0.0527 -0.464572,0.24078 -0.464572,0.89711 0,0.53771 0.191571,1.13617 0.425297,1.33015 0.349216,0.28983 0.424781,1.27054 0.424781,5.5025 0,3.62764 0.10055,5.25011 0.340031,5.48959 0.769528,0.76953 0.93495,-0.26178 0.89917,-5.60948 -0.03166,-4.7316 -0.10101,-5.48006 -0.594279,-6.43113 -0.377299,-0.72746 -0.751028,-1.12606 -1.030428,-1.17874 z"
         id="path4" /><path
         style="fill:#000000"
         d="m 92.984269,143.78059 c -0.36158,0.10144 -0.65881,1.15034 -0.709,2.8851 -0.0525,1.81664 0.96581,5.29549 2.3735,8.10751 0.70843,1.41515 1.25079,2.61047 1.20509,2.65617 -0.22528,0.22529 -13.285851,-1.9627 -14.522623,-2.43292 -0.716022,-0.27223 -0.747401,-0.3617 -0.572058,-1.6366 0.331303,-2.40886 -0.986773,-4.15155 -1.385962,-1.83244 -0.420029,2.44017 -0.48029,2.58504 -1.103292,2.67374 -0.84544,0.12036 -1.045438,1.97207 -0.274402,2.54041 0.375535,0.27682 0.657186,1.22401 1.029395,3.46335 0.546112,3.2856 1.170301,4.99195 1.826245,4.99195 0.444596,0 0.410744,-0.38587 -0.338481,-3.82458 -0.395766,-1.81643 -0.585625,-3.82509 -0.361218,-3.82509 0.05066,0 1.485115,0.24734 3.187402,0.54933 4.176624,0.74096 12.490724,1.69134 15.277104,1.74614 3.631141,0.0714 9.173761,0.54391 11.473721,0.97824 1.89587,0.35801 10.03083,1.25935 11.36571,1.25935 0.43825,0 0.51186,0.2068 0.46406,1.3038 -0.0412,0.94782 0.0747,1.39936 0.42529,1.65571 0.38459,0.28122 0.98492,0.28107 2.96675,-5.2e-4 7.37278,-1.04757 18.01213,-4.26376 22.61671,-6.83731 1.81483,-1.01433 4.32185,-3.38973 4.84518,-4.59041 1.05643,-2.42378 1.01449,-5.06576 -0.10025,-6.31538 -1.30716,-1.4653 -6.20061,-2.51422 -9.00927,-1.93115 -2.5727,0.53409 -4.67724,2.87201 -4.67724,5.19658 0,1.37048 0.49307,1.56565 0.98444,0.38964 0.54603,-1.30683 2.14234,-2.65682 3.6158,-3.05769 1.52274,-0.41429 5.12584,-0.16304 6.70088,0.46716 1.466,0.58658 2.3861,1.79528 2.1332,2.80292 -0.27253,1.08586 -2.48739,3.39972 -4.31498,4.50826 -3.9758,2.41158 -14.3124,5.49868 -21.0721,6.29315 -1.50765,0.17719 -1.57392,0.1565 -1.74769,-0.53588 -0.33767,-1.34538 -3.15364,-1.84377 -13.92163,-2.46548 -2.80471,-0.16194 -7.10442,-0.50433 -9.55498,-0.76068 l -4.455541,-0.46612 -0.32918,-1.01544 c -0.1809,-0.55849 -0.74113,-1.84387 -1.2454,-2.85668 -0.50426,-1.01282 -1.26103,-2.79805 -1.68155,-3.96668 -0.67554,-1.87735 -0.72521,-2.24436 -0.42685,-3.15175 0.26259,-0.79833 0.26104,-1.25886 -0.006,-2.0686 -0.2237,-0.67783 -0.46363,-0.95797 -0.68058,-0.89711 z"
         id="path3" /><path
         style="fill:#000000"
         d="m 44.788247,141.68718 c -8.893175,0.003 -19.186772,1.00044 -21.371306,2.07016 -1.143245,0.55983 -0.940356,2.04715 0.442351,3.24631 1.374635,1.19217 1.97843,1.10781 1.859318,-0.25993 -0.08494,-0.97533 -0.04623,-1.02289 0.991154,-1.20613 11.858522,-2.09467 23.35525,-2.06505 39.467875,0.1018 10.195588,1.37111 10.895449,1.35517 10.708907,-0.24959 -0.09791,-0.8423 1.097993,-0.60959 -10.992094,-2.14199 -10.889295,-1.38019 -13.373346,-1.56363 -21.106205,-1.56063 z"
         id="path1" /></g></g></svg>
