<?xml version="1.0" encoding="UTF-8" standalone="no"?>
<!-- Created with Inkscape (http://www.inkscape.org/) -->

<svg
   width="431.16611mm"
   height="114.31464mm"
   viewBox="0 0 431.16611 114.31464"
   version="1.1"
   id="svg1"
   xml:space="preserve"
   xmlns="http://www.w3.org/2000/svg"
   xmlns:svg="http://www.w3.org/2000/svg"><defs
     id="defs1" /><g
     id="layer1"
     transform="translate(93.37581,84.032662)"><path
       style="fill:#000000"
       d="m 158.11982,30.075731 c -1.31313,-0.26257 -1.84219,-0.60013 -3.0907,-1.97201 -1.44933,-1.59253 -2.32597,-3.88758 -2.02493,-5.30129 0.31187,-1.46455 0.76017,-1.45158 1.25435,0.0363 0.79665,2.39849 2.8289,4.87009 4.0918,4.9764 0.23701,0.0199 0.98446,0.12135 1.661,0.22534 1.16571,0.17917 1.26055,0.14623 1.813,-0.6296 0.44537,-0.62547 0.54328,-1.03003 0.4149,-1.71436 -0.22107,-1.17841 -1.71941,-3.74675 -2.83475,-4.85912 -1.12442,-1.12142 -5.04995,-3.02518 -7.63467,-3.70256 -4.64724,-1.21792 -3.94075,-1.10153 -11.50938,-1.896 -2.01881,-0.21192 -10.26448,-0.62476 -11.50937,-0.57626 -0.21828,0.009 -1.70657,-0.0932 -3.30729,-0.22604 -1.60073,-0.13282 -4.04152,-0.30812 -5.42396,-0.38954 -3.62866,-0.21373 -4.28978,-0.44906 -5.58842,-1.98917 -1.20306,-1.42675 -1.62668,-1.57056 -2.46432,-0.83658 -1.26508,1.10852 -5.03477,3.33718 -6.41481,3.79245 -1.51697,0.50046 -2.87488,0.62242 -3.64396,0.3273 -0.56593,-0.21717 -1.84593,-2.11289 -2.211615,-3.27546 -0.16021,-0.50932 -0.35831,-1.69629 -0.44022,-2.6377002 -0.0819,-0.94141 -0.24363,-1.80635 -0.35937,-1.92209 -0.11574,-0.11574 -1.42265,1.19029 -2.90425,2.9022802 -1.481601,1.712 -3.31314,3.7378 -4.070089,4.50178 -1.274172,1.28602 -1.469128,1.38906 -2.628004,1.38906 -2.101681,0 -2.613841,-1.00191 -2.151758,-4.20939 0.510762,-3.5453602 3.695907,-8.5923102 6.616912,-10.4846802 0.618464,-0.40067 1.124479,-0.82226995 1.124479,-0.93687995 0,-0.3696 1.022954,-0.54618 1.545129,-0.26672 0.696131,0.37256 0.875008,1.57397995 0.377597,2.53612995 -0.22572,0.43661 -0.499539,0.97243 -0.608487,1.19071 -0.110047,0.22048 -0.497793,0.37571 -0.872419,0.34926 -0.523807,-0.037 -1.088941,0.38886 -2.531714,1.90772 -1.02156,1.07544 -2.102564,2.43594 -2.402231,3.02334 -0.542763,1.0639002 -1.026613,3.4509302 -0.699502,3.4509302 0.302506,0 2.009952,-1.18282 2.013352,-1.39474 0.0018,-0.11226 0.628354,-0.84719 1.392338,-1.6331802 0.763984,-0.78599 1.924844,-2.04858 2.579687,-2.80577 1.921488,-2.22179 2.689367,-2.89809 3.28039,-2.88914 0.655,0.01 1.482115,0.5801 1.482115,1.02173 0,0.1707 0.28563,0.87402 0.63473,1.56294 0.3491,0.68892 0.72067,1.96488 0.8257,2.83548 0.26007,2.1556502 0.75033,3.2509602 1.59968,3.5738802 0.58943,0.2241 0.89282,0.14822 1.85811,-0.4647 0.63452,-0.4029 1.72225,-1.08664 2.4172,-1.51943 0.69495,-0.43279 2.07951,-1.4150602 3.07682,-2.1828202 0.9973,-0.76775 2.03135,-1.39592 2.29788,-1.39592 1.0018,0 1.87602,0.54605 2.22979,1.39275 0.19923,0.47683 0.58043,1.0590302 0.8471,1.2937802 0.7396,0.65106 2.48008,1.45142 3.65987,1.68299 0.94349,0.18519 4.76309,0.38786 7.27604,0.38608 0.50932,-3.6e-4 1.31299,0.1118 1.78593,0.24924 0.52754,0.15331 0.8599,0.15477 0.8599,0.004 0,-0.30894 1.50654,-0.32658 1.69611,-0.0199 0.0769,0.12444 1.07854,0.23216 2.22584,0.23937 1.14731,0.007 2.84758,0.0835 3.77839,0.16943 7.99104,0.73807 10.62791,1.04066 11.91702,1.36752 0.82137,0.20827 1.8154,0.37866 2.20897,0.37866 0.39356,0 1.09075,0.16354 1.54931,0.36343 0.45855,0.19988 1.69049,0.73231 2.73764,1.18318 3.15786,1.35966 5.52368,3.02836 6.52966,4.60559 1.54808,2.42717 2.03559,3.6138 2.17823,5.30202 0.16681,1.97423 -0.42763,3.16931 -1.87784,3.77525 -0.94577,0.39516 -3.02815,0.45581 -4.63291,0.13493 z m 44.09211,-6.56069 c -0.42957,-0.0642 -1.23337,-0.59145 -1.86558,-1.22367 -0.97585,-0.97584 -1.14141,-1.319 -1.3625,-2.82407 -0.13842,-0.94229 -0.17273,-2.50886 -0.0762,-3.48126 0.18583,-1.87283 1.10066,-4.83041 1.71019,-5.52887 0.20048,-0.22974 0.36452,-0.5159102 0.36452,-0.6359302 0,-0.61332 2.64892,-5.44511 4.66573,-8.51054 0.85358,-1.29740995 1.67104,-2.55223 1.81656,-2.78849 1.27798,-2.07487 5.9889,-8.7671098 6.48388,-9.2108798 0.0812,-0.0728 0.51669,-0.64268 0.96785,-1.2665 0.86659,-1.19823 6.60425,-7.36085 9.77453,-10.49848 3.40801,-3.37291 3.9416,-3.75888 8.43832,-6.1039 0.7276,-0.37944 1.62709,-0.97901 1.99885,-1.33238 0.37177,-0.35337 0.8262,-0.64249 1.00984,-0.64249 0.18365,0 0.71292,-0.28844 1.17615,-0.64098 0.89712,-0.68274 2.71167,-1.43542 4.01724,-1.66635 0.43657,-0.0772 0.93757,-0.25492 1.11334,-0.39489 0.59022,-0.47 4.51809,-0.32111 5.61592,0.21289 2.29235,1.11501 2.89751,3.76938 1.87687,8.23243 -0.64025,2.79969 -2.92706,7.69004 -4.32362,9.2461 -0.73999,0.8245 -1.76896,1.32535 -1.76896,0.86103 0,-0.13189 -0.1786,-0.23981 -0.39688,-0.23981 -0.50022,0 -0.51599,-0.6301 -0.026,-1.03679 0.204,-0.16931 0.4514,-0.63037 0.54977,-1.02458 0.0984,-0.39422 0.46723,-1.09576 0.81971,-1.559 0.35247,-0.46323 0.6435,-0.93948 0.64674,-1.05833 0.003,-0.11885 0.23871,-0.51375 0.52328,-0.87755 0.28457,-0.3638 0.52005,-0.86131 0.52329,-1.10558 0.003,-0.24427 0.15471,-0.60146 0.33661,-0.79375 0.1819,-0.1923 0.36824,-0.8169 0.41409,-1.388 0.0458,-0.5711 0.25247,-1.5236 0.45917,-2.11667 0.49503,-1.42037 0.4622,-2.71877 -0.0975,-3.85642 l -0.45561,-0.92604 -2.64054,0.0275 c -2.10161,0.0219 -2.91055,0.14636 -3.96346,0.60976 -2.03578,0.89596 -2.47053,1.11545 -5.02708,2.53795 -1.30969,0.72873 -2.73844,1.48234 -3.175,1.67467 -1.91019,0.84158 -4.2354,2.81382 -7.9375,6.73256 -6.07025,6.42549 -6.4011,6.78414 -7.46802,8.09565 -0.54763,0.67317 -1.28333,1.5506998 -1.63488,1.9500598 -0.35155,0.39935 -0.82846,1.01598 -1.05981,1.37028 -0.23134,0.3543 -1.73031,2.56692 -3.33104,4.91693 -3.0259,4.44228 -5.68854,8.66016 -5.68854,9.01117 0,0.11181 -0.0918,0.24298 -0.2041,0.29149 -0.41613,0.17982 -3.24156,6.0388202 -3.62845,7.5242102 -0.47927,1.84005 -0.51454,5.09313 -0.0616,5.68568 0.17727,0.23193 0.92007,0.70818 1.65066,1.05833 1.09522,0.5249 1.46671,0.58922 2.11667,0.36646 0.88825,-0.30444 2.04421,-0.91034 2.24353,-1.17596 0.0728,-0.097 0.80807,-0.55908 1.63402,-1.02692 1.44455,-0.81823 5.50973,-4.56813 5.50973,-5.08242 0,-0.13735 0.15897,-0.24973 0.35328,-0.24973 0.1943,0 0.9072,-0.5461 1.58422,-1.21356 0.67702,-0.66745 1.44078,-1.24829 1.69724,-1.29075 0.48233,-0.0798 1.65692,0.81536 1.65692,1.26282 0,0.13957 0.41989,1.07769 0.93309,2.08469 0.5132,1.00701 1.10147,2.4774 1.30728,3.26754 0.2058,0.79013 0.48876,1.64134 0.6288,1.89158 0.30493,0.54487 2.12787,1.12121 2.68708,0.84955 0.21828,-0.10604 0.87313,-0.39553 1.45521,-0.64331 4.29433,-1.82799 6.62182,-2.96095 6.98718,-3.40118 0.19451,-0.23437 0.47748,-0.42613 0.62882,-0.42613 0.36154,0 2.78649,-1.54603 3.62879,-2.31353 0.3638,-0.3315 0.88293,-0.67313 1.15361,-0.75917 0.52037,-0.16542 0.57596,-0.20818 3.4766,-2.67405 2.00732,-1.7064502 5.68854,-5.6607802 5.68854,-6.1105802 0,-0.15281 0.23813,-0.35342 0.52917,-0.44579 0.29104,-0.0924 0.52917,-0.28614 0.52917,-0.43058 0,-0.22804 0.84203,-1.44575 2.26363,-3.27358995 0.22636,-0.29104 0.77088,-1.15425005 1.21005,-1.91823005 0.43917,-0.76398 0.90881,-1.38906 1.04365,-1.38906 0.13484,0 0.24516,-0.13089 0.24516,-0.29085 0,-0.34728 1.89823,-3.50732 2.18282,-3.63381 0.10914,-0.0485 0.19888,-0.28663 0.19942,-0.52916 5.5e-4,-0.24254 0.2238,-0.80635 0.49612,-1.25292 0.27232,-0.44657 0.58248,-1.1014198 0.68924,-1.4552098 0.10676,-0.35379 0.83601,-1.9638 1.62055,-3.57779 0.78454,-1.61399 1.42644,-3.0839 1.42644,-3.26647 0,-0.18256 0.17485,-0.64797 0.38857,-1.03422 0.6246,-1.12888 1.24894,-2.70288 1.74786,-4.40645 0.80875,-2.76155 2.33116,-6.83165 3.05654,-8.17155 0.66274,-1.2242 1.12061,-2.59546 1.23697,-3.70455 0.0817,-0.77878 1.15099,-1.04817 1.75661,-0.44256 0.58664,0.58664 0.95155,2.94189 0.71885,4.63965 -0.1594,1.16294 -1.30705,3.95847 -1.7332,4.22184 -0.12893,0.0797 -0.31507,0.46624 -0.41365,0.85902 -0.0986,0.39277 -0.63003,1.49522 -1.181,2.44989 -0.55097,0.95467 -1.50508,2.86686 -2.12025,4.2493 -0.61517,1.38245 -1.64472,3.62169 -2.28789,4.97609 -0.64318,1.3544 -1.16941,2.52023 -1.16941,2.59072 0,0.16317 -1.44787,3.3569898 -2.12848,4.6951798 -0.28455,0.55945 -0.51736,1.16274 -0.51736,1.34064 0,0.17789 -0.33066,0.97031 -0.7348,1.76093 -1.45885,2.85390005 -3.6843,9.25077 -4.45815,12.81457 -0.36144,1.6645802 -0.477,4.8197902 -0.2027,5.5346102 0.23589,0.61472 1.09699,0.50965 1.44888,-0.1768 0.16784,-0.32742 0.69552,-1.01203 1.17262,-1.52135 0.59073,-0.63064 0.95997,-1.37058 1.1575,-2.31958 0.15954,-0.76644 0.82668,-2.7502702 1.48253,-4.4085102 0.65585,-1.65825 1.19246,-3.30466 1.19246,-3.6587 0,-0.82378 0.83932,-1.58727 1.62105,-1.47458 0.97061,0.13992 1.22997,2.10448 0.64901,4.91605 -0.15705,0.76006 0.0914,0.74834 1.72911,-0.0816 1.32791,-0.6729 5.20084,-3.62709 5.60512,-4.27546 0.11637,-0.18663 0.33631,-0.33933 0.48875,-0.33933 0.43438,0 2.65583,-2.57379995 3.533,-4.09339 0.43656,-0.75629 0.97234,-1.56097 1.19062,-1.78818 0.65866,-0.6856 1.53281,-1.84987 2.43755,-3.24655 0.47133,-0.72761 1.01202,-1.48361 1.20155,-1.68001 0.18952,-0.19641 0.51374,-0.76195 0.72049,-1.2567798 0.20675,-0.49482 0.50105,-0.89967 0.654,-0.89967 0.15294,0 0.27808,-0.17498 0.27808,-0.38883 0,-0.21386 0.25546,-0.83893 0.5677,-1.38906 0.31223,-0.55013 0.86403,-1.59555 1.22623,-2.32316 0.3622,-0.7276 0.8087,-1.50151 0.99222,-1.71979 0.18352,-0.21828 0.52267,-0.96066 0.75367,-1.64974 0.231,-0.68908 0.77066,-1.8797 1.19924,-2.64583 0.42858,-0.76613 0.8608,-1.84077 0.9605,-2.38808 0.0997,-0.54731 0.28683,-1.06035 0.41585,-1.14009 0.12903,-0.0797 0.23459,-0.34808 0.23459,-0.59631 0,-0.24823 0.23813,-0.89561 0.52917,-1.43864 0.29104,-0.54302 0.52916,-1.15244 0.52916,-1.35428 0,-0.39198 0.67062,-0.64536 1.32292,-0.49985 0.73811,0.16465 1.36961,1.98737 1.36961,3.95312 0,1.69603 -0.10809,2.05555 -1.34432,4.47128 -0.73937,1.44483 -1.43889,2.74603 -1.55448,2.89155 -0.11559,0.14552 -0.3666,0.6813 -0.55781,1.19062 -0.19121,0.50933 -0.44381,1.16417 -0.56134,1.45521 -1.16243,2.87858 -3.14472,10.5481098 -3.97334,15.37295985 -0.77976,4.54030995 -0.79358,13.33433015 -0.021,13.33433015 0.24519,0 1.35098,-2.05055 1.35098,-2.50522 0,-0.1862 0.3247,-0.91909 0.72154,-1.6286402 1.67966,-3.00321 2.90609,-8.01741 2.62314,-10.72456995 -0.19326,-1.84896005 -0.0625,-2.24448005 0.90758,-2.74614005 1.12306,-0.58076 1.28605,-0.50084 1.87655,0.92006 0.57643,1.38706 0.62777,1.41365 3.92536,2.03313005 1.81528,0.34102 2.79482,0.73674 3.45309,1.39502 l 0.72364,0.72362995 0.40604,-0.67893995 c 0.56599,-0.94637 6.07524,-6.63208005 6.42625,-6.63208005 0.15796,0 0.39469,-0.22406 0.52607,-0.49792 0.24957,-0.52023 6.85023,-6.1166598 7.21424,-6.1166598 0.24806,0 4.56047,-4.26319 5.79112,-5.72503 1.53001,-1.81744 4.35462,-5.49352 4.98322,-6.48543 0.94649,-1.4935 1.9852,-1.56191 2.47292,-0.16286 0.37365,1.07187 -0.51275,4.81108 -1.61603,6.81707 -1.33744,2.43175 -1.9363,3.50539 -2.82003,5.05576 -0.46521,0.81614 -1.19182,2.48302 -1.61468,3.7041698 -0.42287,1.22115 -0.92539,2.61259 -1.11672,3.09208 -0.42394,1.06242 -0.20481,1.25721 1.71071,1.52066 1.55559,0.21395 1.82458,0.004 2.39101,-1.86329 0.54925,-1.81096 0.99419,-3.08716 1.26712,-3.6344398 0.12601,-0.25268 0.22911,-0.67932 0.22911,-0.94809 0,-0.26876 0.0851,-0.5738 0.18921,-0.67786 0.3529,-0.3529 1.66648,-5.47896 2.04761,-7.99051 0.0681,-0.44851 0.24747,-1.14087 0.39868,-1.53858 0.15121,-0.3977 0.27665,-1.04277 0.27877,-1.43348 0.002,-0.39071 0.19079,-1.24616 0.41928,-1.901 0.25536,-0.73189 0.35478,-1.57187 0.25803,-2.18012 -0.25069,-1.57612 1.12388,-2.60107 2.31005,-1.72249 1.0057,0.7449 0.98504,6.92198 -0.0316,9.45886 -0.85861,2.14247 -1.97993,7.04725 -2.84297,12.4354098 -0.2653,1.65628 -0.28106,2.27627 -0.0598,2.35259 0.59893,0.20661 2.05988,1.8751 2.05988,2.3525 0,1.28067005 -0.64334,3.69534 -1.44498,5.42357 -0.48725,1.05044 -1.06809,2.44567 -1.29075,3.10051 -0.22266,0.65484 -0.64013,1.66898 -0.9277,2.25364 -0.28758,0.58467 -0.60199,1.5371702 -0.69869,2.1166702 -0.30199,1.80965 -0.67157,2.50886 -1.32613,2.50886 -1.21867,0 -1.30614,-0.49309 -0.81094,-4.5713802 0.2513,-2.06965 0.6847,-5.13222 0.9631,-6.80571 0.62081,-3.73172 0.62065,-3.70416 0.0208,-3.70416 -0.79692,0 -1.42993,1.04164005 -3.49718,5.75468 -0.20744,0.47295 -0.46716,0.8599 -0.57716,0.8599 -0.11,0 -0.2,0.12444 -0.2,0.27653 0,0.39642 -2.46801,3.98941 -3.17227,4.61826 -0.32594,0.2910402 -0.69062,0.7853602 -0.81041,1.0984802 -0.11978,0.31312 -0.64159,0.89257 -1.15957,1.28765 -0.90095,0.68719 -0.97051,0.69952 -1.60393,0.28449 -0.59456,-0.38957 -0.66215,-0.61018 -0.66215,-2.16127 0,-1.6859102 0.86616,-6.8624402 1.32482,-7.9176802 0.1265,-0.29104 0.54359,-1.66025995 0.92687,-3.04270995 0.38328,-1.38245005 0.84805,-2.75167005 1.03282,-3.04271005 0.18477,-0.29104 0.42359,-0.88635 0.53071,-1.32291 0.10712,-0.43657 0.54209,-1.58629 0.96661,-2.55495 1.05165,-2.39967 2.41552,-6.2774598 2.52829,-7.1884798 l 0.0925,-0.74758 -1.05677,0.83698 c -0.58122,0.46033 -1.20502,1.03828 -1.38622,1.28433 -0.1812,0.24604 -0.98429,0.97972 -1.78466,1.6304 -0.80036,0.65067 -1.4936,1.26847 -1.54053,1.37287 -0.0469,0.1044 -1.42549,1.2597198 -3.06347,2.5673798 -4.38731,3.50254 -9.47538,8.89214 -10.26075,10.86884 -0.14454,0.3638 -0.28215,2.12965 -0.3058,3.92411 -0.0353,2.68291 -0.11997,3.3189102 -0.4762,3.5792502 -0.23827,0.17412 -0.61216,0.84905 -0.83087,1.49984 -0.51519,1.53302 -1.46218,1.96966 -2.38716,1.10069 -0.33891,-0.31839 -0.85075,-0.57889 -1.13741,-0.57889 -0.93361,0 -1.51061,-1.40909 -1.33771,-3.2667602 0.14047,-1.5093 0.74275,-4.89633 1.08931,-6.12595 0.26395,-0.93655 -0.22091,-1.24465 -2.14091,-1.36046 -0.99983,-0.0603 -2.13548,-0.21574 -2.52367,-0.34542 l -0.7058,-0.23576 -0.65659,2.69061 c -0.96756,3.96493 -2.12709,6.7236102 -4.98987,11.8715902 -1.09685,1.9724 -2.22789,2.4241 -2.9318,1.17087 -1.02421,-1.82347 -1.44251,-8.7010102 -0.86296,-14.1883102 0.40845,-3.86719 0.55693,-4.7419 1.2576,-7.40833 0.28679,-1.09141 0.61701,-2.40109 0.73383,-2.91042 0.11681,-0.50932 0.4664,-1.80445 0.77687,-2.8780698 0.31046,-1.07362 0.51331,-2.00321 0.45076,-2.06575 -0.14075,-0.14075 -1.22979,1.36198 -1.22979,1.69695 0,0.13382 -0.41671,0.8294398 -0.92604,1.5458098 -0.50932,0.71637 -0.92604,1.39755 -0.92604,1.51373 0,0.18605 -0.94987,1.62328 -3.51849,5.32377 -0.4072,0.58664 -1.08703,1.48663005 -1.51072,1.99998005 -0.4237,0.51336 -1.25104,1.55449995 -1.83853,2.31363995 -1.14964,1.48556 -7.40233,6.6456 -9.13955,7.54243 -2.49293,1.2869702 -2.71304,1.6108202 -3.59557,5.2901202 -0.21149,0.88169 -0.46562,1.30481 -0.86546,1.44093 -0.7463,0.25407 -1.26827,0.13436 -1.64185,-0.37654 -0.273,-0.37335 -0.39243,-0.35501 -1.13599,0.17445 -0.45701,0.32542 -0.83092,0.69957 -0.83092,0.83144 0,0.40847 -1.51404,1.04711 -2.48239,1.04711 -0.73714,0 -1.0436,-0.17177 -1.53408,-0.85989 -0.54512,-0.76478 -0.61162,-1.15256 -0.60119,-3.50573 0.0122,-2.75293 0.46956,-5.3102602 1.6036,-8.9664802 0.35608,-1.14802 0.5846,-2.15013 0.50782,-2.22691 -0.0768,-0.0768 -0.1396,-0.0169 -0.1396,0.13317 0,0.86318 -6.69193,8.3103602 -9.64753,10.7363502 -5.1086,4.19317 -16.74665,10.24574 -19.70081,10.24574 -0.75837,0 -1.1538,-0.19101 -1.78013,-0.85989 -0.81493,-0.87029 -3.08293,-5.72548 -2.96374,-6.34459 0.11413,-0.59287 -0.32693,-1.52677 -0.72108,-1.52677 -0.20999,0 -1.32427,0.92274 -2.47619,2.05052 -2.60993,2.55525 -4.38451,4.08815 -5.13068,4.43194 -0.31605,0.14561 -1.12046,0.59186 -1.7876,0.99166 -2.1153,1.26766 -3.93785,1.66128 -6.15637,1.32959 z M 315.17551,6.3108108 c 0.0903,-0.32742 0.27033,-0.59531 0.40007,-0.59531 0.12975,0 0.2359,-0.11402 0.2359,-0.25337 0,-0.13935 0.65484,-1.23724 1.45521,-2.43976 0.80036,-1.20251 1.45521,-2.44778995 1.45521,-2.76728995 0,-0.31949 0.12249,-0.62173 0.27221,-0.67164 0.14971,-0.0499 0.29854,-0.43791 0.33073,-0.86224005 0.0532,-0.70163 -0.0613,-0.81547 -1.2644,-1.25678 -1.90734,-0.69964 -1.9728,-0.60541 -3.43452,4.94379 -0.34499,1.30969 -0.81468,3.09087 -1.04376,3.95819 -0.66949,2.53475 -0.57096,2.84334 0.51027,1.59806 0.5054,-0.58208 0.99278,-1.32623 1.08308,-1.65365 z m 10.01023,-3.77031 c 0.17808,-0.21828 0.54298,-1.14482 0.81089,-2.05897995 0.36741,-1.25373 0.41224,-1.73696005 0.18246,-1.96674005 -0.41487,-0.41487 -0.52782,-0.24868 -0.95553,1.40598005 -0.34885,1.34959995 -0.82727,4.67382995 -0.51031,3.54577995 0.0818,-0.29104 0.2944,-0.70776 0.47249,-0.92604 z M 54.510933,16.692271 c -0.09178,-0.36569 -0.05483,-0.81217 0.0821,-0.99218 0.136941,-0.18002 0.498529,-0.924 0.803528,-1.65331 0.794525,-1.89985 3.417426,-7.4808402 4.101973,-8.7281502 0.319459,-0.58209 0.90827,-1.65365 1.30847,-2.38125 0.4002,-0.72761 1.255513,-2.39447995 1.900695,-3.70416995 0.645182,-1.30969005 1.620355,-3.15516005 2.16705,-4.10104005 0.546696,-0.94589 1.524258,-2.73183 2.172361,-3.96875 0.648103,-1.2369298 1.332709,-2.4275598 1.521347,-2.6458398 0.188638,-0.21828 0.946416,-1.6687 1.683951,-3.22316 0.737535,-1.55445 1.47352,-2.9082 1.635522,-3.00832 0.162002,-0.10012 0.43162,-0.49517 0.599151,-0.87788 0.33485,-0.76494 3.132499,-5.42011 5.983489,-9.95626 2.82384,-4.49296 5.82564,-9.90263 5.829341,-10.50531 6.31e-4,-0.10261 0.341643,-0.93604 0.757805,-1.85208 0.649498,-1.42965 1.890375,-4.46882 2.354463,-5.76657 0.07806,-0.21828 -0.143525,-0.10201 -0.49241,0.25837 -0.348885,0.36039 -0.634337,0.74505 -0.634337,0.8548 0,0.10976 -0.26789,0.38719 -0.595312,0.61653 -1.009102,0.7068 -0.742981,-0.21863 0.396875,-1.38013 0.545703,-0.55607 1.292035,-1.5456 1.658516,-2.19897 0.833597,-1.48614 1.448058,-1.66773 1.68218,-0.49712 0.421789,2.10894 -0.231195,4.45405 -2.628358,9.43941 -0.937489,1.94969 -1.704526,3.60355 -1.704526,3.67526 0,0.0717 -0.214797,0.44641 -0.477326,0.83267 -0.26253,0.38627 -0.706609,1.23809 -0.986844,1.89293 -0.280234,0.65484 -1.196065,2.26219 -2.035181,3.57187 -0.839116,1.30969 -1.876618,2.97657 -2.305561,3.70417 -0.428942,0.72761 -1.114017,1.84726 -1.522387,2.48812 -0.408371,0.64086 -0.921086,1.47429 -1.139367,1.85208 -0.218282,0.37779 -0.769229,1.2822 -1.224329,2.0098 -0.455099,0.72761 -1.155628,1.91823 -1.556731,2.64583 -1.408818,2.55562 -2.286624,4.18872 -2.971138,5.52761 -0.380045,0.74336 -1.363685,2.5421898 -2.185867,3.9973998 -0.822182,1.4552 -1.76709,3.18161 -2.099797,3.83645 -0.332707,0.65485 -1.442727,2.79797005 -2.466712,4.7625 -1.023985,1.96453 -1.981614,3.81 -2.128065,4.10105 -0.146451,0.29104 -0.363334,0.70776 -0.481963,0.92604 -1.604967,2.95319 -3.493205,7.1437502 -3.21893,7.1437502 0.188026,0 0.341865,-0.098 0.341865,-0.21769 0,-0.11972 0.565547,-0.49413 1.256771,-0.83201 0.691224,-0.33788 1.440032,-0.77145 1.664019,-0.96348 0.596114,-0.51106 3.93868,-2.2201602 4.34208,-2.2201602 0.189889,0 0.493473,-0.17859 0.67463,-0.39687 0.549768,-0.66243 0.836475,-0.44347 0.363837,0.27787 -0.244239,0.37276 -0.602221,0.61331 -0.799849,0.53747 -0.198062,-0.076 -0.357738,0.032 -0.357738,0.24199 0,0.2085902 -0.26789,0.5196902 -0.595312,0.6913402 -0.327422,0.17164 -1.023561,0.68184 -1.546975,1.13378 -1.212422,1.04687 -4.139136,3.15272 -5.001463,3.5987 -0.363802,0.18815 -1.108285,0.74163 -1.654408,1.22995 -1.219592,1.09051 -2.230504,1.18172 -2.471138,0.22296 z m 280.013207,-3.57731 c -1.07297,-1.03101 -1.09731,-1.09075 -0.71738,-1.76112 0.23042,-0.40657 0.83151,-0.84399 1.4516,-1.05633 0.58208,-0.19933 1.26026,-0.6272202 1.50706,-0.9508602 0.2989,-0.39196 0.53684,-0.50009 0.71259,-0.32386 0.38245,0.38351 0.42724,3.8866502 0.0585,4.5756502 -0.51553,0.96326 -1.70552,0.77226 -3.01238,-0.48348 z M 237.31567,-9.7893292 c -0.20044,-0.5223198 0.27733,-0.8496698 1.55132,-1.0629098 0.53641,-0.0898 1.23833,-0.44323 1.55981,-0.78543 0.32149,-0.3422 0.6976,-0.5523 0.83581,-0.46688 0.13821,0.0854 -0.35815,0.73659 -1.10302,1.44705 -1.40713,1.3421098 -2.53046,1.6850398 -2.84392,0.8681698 z m 4.41248,-3.0083798 c 0,-0.3281 0.69172,-0.81521 0.88424,-0.62269 0.30958,0.30958 0.18606,0.55022 -0.35507,0.69173 -0.29105,0.0761 -0.52917,0.045 -0.52917,-0.069 z m -334.283877,-7.3043 c -1.015153,-1.01515 -1.096706,-2.00342 -0.195147,-2.36481 0.831505,-0.33332 3.086526,-0.87855 5.866522,-1.41846 4.107112,-0.79764 8.651346,-1.78671 10.43882,-2.27204 0.866403,-0.23524 2.711872,-0.66628 4.101042,-0.95787 1.389169,-0.29158 2.763888,-0.63982 3.054929,-0.77386 0.451575,-0.20797 4.059034,-1.18018 6.217709,-1.67566 5.982994,-1.37329 10.503621,-2.47672 15.906827,-3.88266 1.108911,-0.28855 2.299536,-0.52646 2.645833,-0.52869 0.346297,-0.002 1.582131,-0.25408 2.746298,-0.55965 1.164166,-0.30558 2.592916,-0.64731 3.175,-0.7594 0.582083,-0.1121 2.248958,-0.51292 3.704166,-0.89071 1.455208,-0.3778 4.37224,-1.1047 6.482292,-1.61533 2.110052,-0.51064 4.669896,-1.15118 5.688541,-1.42344 1.018646,-0.27225 2.923646,-0.74361 4.233334,-1.04745 1.309687,-0.30384 4.345781,-1.02999 6.746875,-1.61367 5.9257953,-1.44049 6.5759559,-1.58243 9.9218748,-2.16611 5.0758914,-0.88548 7.8761466,-1.46634 10.0541665,-2.08557 1.1641671,-0.33098 2.5333847,-0.69946 3.0427077,-0.81884 2.640599,-0.61894 7.199919,-1.85713 8.598958,-2.33524 0.873125,-0.29839 1.899725,-0.54545 2.281332,-0.54903 0.381607,-0.004 1.572232,-0.28854 2.645833,-0.63325 1.073601,-0.34471 2.487783,-0.707691 3.142627,-0.806621 0.654844,-0.09893 1.726406,-0.361866 2.38125,-0.584302 0.654844,-0.222437 1.42875,-0.40779 1.719792,-0.411895 0.699126,-0.0099 2.713443,-0.430729 5.152982,-1.076651 1.087891,-0.288044 2.397578,-0.563287 2.910417,-0.611651 1.612765,-0.152096 2.66158,-0.36224 3.890803,-0.779572 0.65496,-0.222364 2.221797,-0.573949 3.481859,-0.781297 2.150388,-0.353857 2.845123,-0.502529 5.451417,-1.166598 0.57405,-0.146265 1.137137,-0.208206 1.251303,-0.137648 0.114165,0.07056 0.45509,-0.0042 0.757611,-0.166083 0.30252,-0.161904 1.823027,-0.514413 3.378905,-0.783353 1.555878,-0.268941 3.126525,-0.603499 3.490327,-0.743462 0.363802,-0.139964 1.435365,-0.343473 2.38125,-0.452243 0.945886,-0.10877 2.016764,-0.310205 2.37973,-0.447633 0.609918,-0.230931 4.200696,-0.951929 7.674437,-1.540964 0.800364,-0.135716 1.871927,-0.374786 2.38125,-0.531268 0.863469,-0.265287 3.872092,-0.889621 5.688541,-1.180456 0.804648,-0.128834 4.920398,-1.021108 9.260417,-2.007612 1.309687,-0.297697 2.976562,-0.672383 3.704166,-0.832635 0.727605,-0.160251 2.454011,-0.578377 3.836455,-0.929167 1.382455,-0.35079 2.870735,-0.683956 3.307305,-0.740369 0.43656,-0.05641 1.68671,-0.338127 2.77812,-0.626031 2.60202,-0.686391 6.06427,-1.381236 6.81302,-1.367317 0.32742,0.0061 0.59531,-0.09315 0.59531,-0.220524 0,-0.127374 0.32743,-0.296409 0.72761,-0.375634 1.5835,-0.313487 7.38086,-1.791124 8.00364,-2.039975 0.36381,-0.145369 0.95912,-0.320682 1.32292,-0.389583 1.46211,-0.276913 4.4545,-1.029199 5.93835,-1.492901 0.865,-0.27031 1.84978,-0.491473 2.18839,-0.491473 0.33862,0 1.47636,-0.231844 2.52832,-0.515208 1.05196,-0.283364 2.68655,-0.688709 3.63244,-0.900767 0.94589,-0.212057 4.33917,-1.0353 7.54062,-1.829427 9.53037,-2.364025 11.60417,-2.840038 12.37287,-2.840026 0.40215,6e-6 0.93793,-0.110534 1.19062,-0.245645 0.25269,-0.135111 1.17381,-0.380523 2.04693,-0.545361 0.87313,-0.164838 1.82563,-0.353904 2.11667,-0.420148 1.02163,-0.232532 6.90903,-1.190288 9.78958,-1.592558 1.60073,-0.223543 3.74386,-0.525983 4.7625,-0.672088 1.01865,-0.146106 4.1738,-0.273125 7.01146,-0.282266 5.48538,-0.01767 9.30209,0.431533 11.64167,1.370148 0.65484,0.262716 1.75753,0.679717 2.45041,0.926667 0.70006,0.249508 1.3936,0.703266 1.56096,1.021278 0.16565,0.314751 0.40663,0.641441 0.53553,0.725976 0.74548,0.488932 0.41546,3.677447 -0.49288,4.761925 -0.19242,0.22974 -0.34986,0.533805 -0.34986,0.675702 0,0.451423 -1.69759,1.922968 -2.56865,2.226622 -0.54177,0.188864 -0.86851,0.496522 -0.92135,0.867555 -0.0516,0.362331 -0.302,0.606175 -0.67719,0.65946 -0.69087,0.09812 -0.77797,-0.367473 -0.21824,-1.166596 0.24573,-0.350833 0.29322,-0.670838 0.13634,-0.918767 -0.42945,-0.678702 -0.26748,-0.954297 0.80951,-1.377349 0.58208,-0.228649 1.05833,-0.5889 1.05833,-0.800559 0,-0.211659 0.30478,-0.930137 0.67728,-1.596618 0.71379,-1.277104 0.65553,-1.782282 -0.29669,-2.572554 -0.8086,-0.671079 -3.75728,-1.469084 -7.25975,-1.964717 -2.40948,-0.340963 -7.51623,-0.428997 -9.78959,-0.16876 -8.09028,0.926116 -9.51618,1.131287 -15.08125,2.17003 -1.67349,0.312363 -3.87614,0.719172 -4.89479,0.904018 -1.01864,0.184846 -2.74505,0.5412 -3.83646,0.791896 -1.0914,0.250697 -2.40109,0.546596 -2.91041,0.657554 -1.25927,0.274337 -4.00256,0.947931 -7.80521,1.916513 -1.74625,0.444792 -3.82985,0.961612 -4.63021,1.148489 -0.80036,0.186878 -2.28865,0.540204 -3.30729,0.78517 -13.40086,3.222659 -18.61396,4.502543 -24.07708,5.911238 -3.77677,0.973858 -6.39554,1.588252 -14.816676,3.476154 -2.037292,0.456732 -4.001823,0.934903 -4.365625,1.062601 -0.363802,0.127698 -1.971146,0.484987 -3.571875,0.793975 -1.600729,0.308989 -4.220104,0.86036 -5.820833,1.22527 -2.513846,0.573068 -8.099079,1.745454 -17.859375,3.748828 -1.382448,0.283758 -3.227917,0.644965 -4.101042,0.802682 -1.9761,0.356953 -9.072044,1.827011 -14.155208,2.932518 -2.110052,0.458903 -5.086614,1.062611 -6.614583,1.341574 -3.499846,0.638971 -6.286904,1.247849 -6.601298,1.442149 -0.246266,0.1522 -0.768484,0.26707 -4.775785,1.05048 -2.006401,0.39224 -4.667244,0.97195 -7.805209,1.7005 -2.227584,0.51718 -8.255036,2.13068 -9.392708,2.51435 -1.46592,0.49437 -7.28303,1.84747 -10.3187493,2.40021 -8.2638347,1.50467 -12.3566836,2.33162 -14.5520827,2.94023 -1.382449,0.38324 -4.243935,1.08424 -6.35886,1.55777 -2.114924,0.47353 -4.436643,1.04979 -5.159375,1.28057 -1.572803,0.50223 -5.394519,1.42315 -6.870307,1.65555 -0.582084,0.0917 -1.472063,0.29376 -1.977732,0.44912 -0.50567,0.15535 -1.815357,0.48862 -2.910417,0.7406 -1.09506,0.25197 -2.883987,0.70264 -3.975393,1.00147 -1.091406,0.29883 -3.115468,0.7341 -4.497916,0.96726 -1.382448,0.23316 -4.180417,0.8468 -6.217709,1.36364 -2.037291,0.51684 -4.954322,1.23671 -6.482291,1.59971 -7.184889,1.70689 -11.544291,2.80494 -11.911494,3.00025 -0.221166,0.11764 -1.342091,0.40805 -2.490944,0.64535 -1.148853,0.2373 -2.218056,0.51267 -2.376005,0.61192 -0.15795,0.0992 -0.734582,0.21138 -1.281405,0.24918 -0.546822,0.0378 -2.154166,0.35767 -3.571875,0.71081 -1.417708,0.35314 -3.113433,0.72692 -3.768277,0.83062 -0.696888,0.11036 -1.600126,0.5118 -2.178119,0.96804 -0.543122,0.42872 -1.106208,0.70612 -1.251303,0.61645 -0.145094,-0.0897 -0.518891,-0.0265 -0.830658,0.14032 -0.887043,0.47474 -5.040389,1.56626 -5.973625,1.5699 -0.462548,0.002 -1.028875,-0.18459 -1.258503,-0.41422 z"
       id="path1" /></g></svg>
