<?xml version="1.0" standalone="no"?>
<!DOCTYPE svg PUBLIC "-//W3C//DTD SVG 20010904//EN"
 "http://www.w3.org/TR/2001/REC-SVG-20010904/DTD/svg10.dtd">
<svg version="1.0" xmlns="http://www.w3.org/2000/svg"
 width="235.000000pt" height="82.000000pt" viewBox="0 0 235.000000 82.000000"
 preserveAspectRatio="xMidYMid meet">
<metadata>
Created by potrace 1.10, written by Peter Selinger 2001-2011
</metadata>
<g transform="translate(0.000000,82.000000) scale(0.100000,-0.100000)"
fill="#000000" stroke="none">
<path d="M455 733 c-53 -14 -105 -77 -105 -129 0 -38 33 -91 65 -106 34 -15
27 -28 -23 -47 -38 -14 -45 -13 -76 1 -24 12 -36 26 -41 47 -11 50 -25 46 -25
-7 0 -64 -23 -88 -51 -54 -10 13 -21 44 -24 70 -8 60 -12 72 -24 72 -11 0 -5
-57 10 -104 14 -44 11 -71 -10 -97 -19 -23 -20 -23 -39 -6 -20 19 -36 70 -48
160 -3 26 -11 50 -16 53 -6 4 -8 -1 -5 -12 3 -11 11 -53 17 -94 17 -105 32
-132 73 -128 25 2 34 9 42 33 9 26 15 30 45 30 29 0 36 4 38 23 4 26 10 27 34
6 25 -24 88 -21 145 7 26 13 52 22 56 21 5 -1 228 -6 495 -11 529 -10 563 -14
613 -67 23 -26 24 -27 4 -38 -10 -6 -46 -36 -78 -66 -90 -84 -106 -127 -64
-175 46 -55 157 -38 198 29 23 38 25 107 4 166 -8 23 -15 44 -15 45 0 10 71
45 89 45 15 0 26 10 35 31 8 19 16 27 20 20 11 -17 37 -13 60 9 28 26 97 28
216 8 132 -23 208 -31 190 -20 -8 5 -44 13 -80 16 -89 10 -212 36 -227 48 -9
7 -17 5 -28 -6 -22 -21 -36 -20 -42 4 -3 11 -9 17 -14 14 -5 -3 -9 -1 -9 4 0
18 32 22 185 22 87 0 156 4 160 10 7 11 -335 19 -350 8 -18 -15 -47 -8 -52 12
-7 26 -19 26 -26 0 -5 -18 -14 -20 -92 -20 -58 0 -84 -3 -80 -11 5 -7 34 -8
86 -3 l79 7 0 -49 c0 -52 -20 -94 -46 -94 -8 0 -14 7 -14 15 0 10 -10 15 -34
15 -39 0 -50 -17 -28 -42 25 -30 -4 -20 -36 11 -16 16 -46 34 -68 40 -56 17
-297 30 -535 31 -113 0 -273 3 -355 6 l-149 7 24 50 c33 66 36 161 7 183 -20
14 -44 16 -81 7z m77 -38 c8 -18 8 -39 -1 -82 -13 -66 -38 -107 -70 -111 -30
-5 -91 57 -91 92 0 89 130 170 162 101z m1316 -177 c8 -23 9 -35 1 -45 -27
-32 -61 1 -52 50 7 37 36 35 51 -5z m-196 -246 c15 -78 3 -119 -41 -149 -63
-43 -151 -19 -151 41 0 45 150 200 172 178 5 -5 14 -36 20 -70z"/>
</g>
</svg>
