<?xml version="1.0" standalone="no"?>
<!DOCTYPE svg PUBLIC "-//W3C//DTD SVG 20010904//EN"
 "http://www.w3.org/TR/2001/REC-SVG-20010904/DTD/svg10.dtd">
<svg version="1.0" xmlns="http://www.w3.org/2000/svg"
 width="300.000000pt" height="143.000000pt" viewBox="0 0 300.000000 143.000000"
 preserveAspectRatio="xMidYMid meet">
<metadata>
Created by potrace 1.10, written by Peter Selinger 2001-2011
</metadata>
<g transform="translate(0.000000,143.000000) scale(0.100000,-0.100000)"
fill="#000000" stroke="none">
<path d="M1305 1233 c-458 -115 -688 -210 -965 -402 -76 -53 -91 -67 -73 -69
15 -2 51 17 105 56 119 86 242 152 408 220 366 149 658 210 867 181 171 -24
264 -93 233 -173 -18 -49 -134 -156 -168 -156 -5 0 -12 32 -16 71 -7 81 -20
112 -44 107 -24 -5 -40 -62 -48 -167 -7 -90 -7 -91 -42 -111 -19 -12 -37 -18
-41 -15 -3 4 -6 46 -6 93 0 69 -3 87 -14 87 -11 0 -18 -24 -28 -90 -7 -49 -15
-100 -18 -112 -6 -24 -47 -43 -53 -24 -7 20 -30 12 -36 -14 -4 -14 -20 -32
-37 -41 -28 -14 -33 -14 -48 0 -46 42 -171 61 -237 36 -15 -6 -28 -9 -31 -7
-2 2 17 44 42 93 53 104 67 170 39 181 -13 5 -28 -5 -58 -38 -91 -101 -142
-243 -132 -372 3 -42 8 -82 11 -87 3 -5 -17 -21 -45 -35 -37 -19 -51 -22 -54
-13 -2 7 -11 60 -20 118 -33 208 -46 236 -85 182 -34 -48 -59 -143 -72 -272
l-12 -126 -89 -33 c-49 -18 -92 -30 -95 -28 -24 25 -127 309 -139 388 -7 41
-20 57 -35 42 -16 -16 108 -379 142 -418 21 -23 1 -37 -95 -69 -13 -4 -16 -10
-9 -17 9 -9 61 6 106 32 15 8 27 3 63 -30 85 -80 159 -39 176 98 2 19 15 29
63 47 79 30 95 30 95 0 0 -24 26 -54 37 -42 3 3 1 17 -5 31 -19 41 -15 49 36
67 46 17 47 17 61 -2 20 -29 41 -25 41 8 0 27 5 30 73 50 39 12 91 23 114 26
23 2 56 14 72 26 38 26 267 101 287 93 8 -3 25 4 37 15 21 19 87 40 87 27 0
-3 -7 -17 -16 -30 -15 -23 -15 -25 1 -31 22 -9 36 6 44 48 7 33 8 33 216 110
284 105 566 200 721 243 118 33 172 55 134 55 -24 -1 -393 -105 -412 -116 -4
-3 -83 -31 -175 -63 -271 -94 -335 -118 -386 -140 -66 -28 -91 -28 -83 2 3 12
6 43 6 69 0 44 2 48 52 83 113 82 158 139 158 204 0 64 -90 130 -215 157 -82
18 -313 16 -390 -3z m363 -309 c-3 -67 -6 -79 -21 -82 -17 -4 -18 2 -11 80 7
90 11 105 26 90 5 -5 8 -44 6 -88z m-593 -6 c-9 -30 -84 -180 -96 -193 -5 -5
-9 5 -9 26 0 39 82 189 103 189 5 0 5 -10 2 -22z m587 -165 c-4 -65 -12 -79
-48 -86 -33 -6 -36 1 -18 58 29 97 71 114 66 28z m-86 1 c-4 -9 -11 -36 -17
-60 -16 -61 -39 -59 -39 4 0 39 4 49 23 58 32 17 40 16 33 -2z m-80 -73 c3
-31 -1 -43 -15 -50 -32 -17 -32 -7 -5 88 7 23 16 4 20 -38z m-730 -108 c28
-159 28 -173 12 -173 -7 0 -37 -11 -65 -25 l-53 -24 0 57 c0 31 6 93 14 137
14 80 51 183 62 172 3 -3 17 -68 30 -144z m439 112 c83 -24 77 -33 -76 -108
-77 -38 -142 -67 -144 -65 -1 1 -4 37 -7 79 l-3 76 55 16 c71 20 116 20 175 2z
m222 -36 c-15 -51 -31 -55 -35 -9 -3 24 2 38 14 47 26 19 34 6 21 -38z m-472
-167 c-3 -4 -10 0 -15 8 -11 18 -13 183 -2 194 4 4 11 -38 15 -94 5 -56 6
-105 2 -108z m405 159 c0 -11 3 -26 6 -34 3 -9 -2 -16 -13 -20 -10 -2 -26 -8
-37 -12 -16 -7 -18 -4 -11 26 10 49 55 81 55 40z m-80 -26 c0 -7 -29 -65 -33
-65 -1 0 -54 -18 -117 -40 -63 -23 -123 -43 -132 -46 -36 -12 -17 17 21 32 22
9 86 40 143 69 102 54 118 60 118 50z m-664 -347 c-9 -57 -31 -88 -60 -88 -27
0 -89 46 -84 62 3 9 121 65 142 67 5 1 6 -18 2 -41z"/>
</g>
</svg>
