<?xml version="1.0" encoding="UTF-8" standalone="no"?>
<!-- Created with Inkscape (http://www.inkscape.org/) -->

<svg
   xmlns:dc="http://purl.org/dc/elements/1.1/"
   xmlns:cc="http://creativecommons.org/ns#"
   xmlns:rdf="http://www.w3.org/1999/02/22-rdf-syntax-ns#"
   xmlns:svg="http://www.w3.org/2000/svg"
   xmlns="http://www.w3.org/2000/svg"
   xmlns:sodipodi="http://sodipodi.sourceforge.net/DTD/sodipodi-0.dtd"
   xmlns:inkscape="http://www.inkscape.org/namespaces/inkscape"
   width="236.61819"
   height="79.777847"
   id="svg3047"
   version="1.1"
   inkscape:version="0.48.1 "
   sodipodi:docname="1.svg">
  <defs
     id="defs3049" />
  <sodipodi:namedview
     id="base"
     pagecolor="#ffffff"
     bordercolor="#666666"
     borderopacity="1.0"
     inkscape:pageopacity="0.0"
     inkscape:pageshadow="2"
     inkscape:zoom="0.35"
     inkscape:cx="198.94438"
     inkscape:cy="-358.0777"
     inkscape:document-units="px"
     inkscape:current-layer="layer1"
     showgrid="false"
     fit-margin-top="0"
     fit-margin-left="0"
     fit-margin-right="0"
     fit-margin-bottom="0"
     inkscape:window-width="1920"
     inkscape:window-height="1138"
     inkscape:window-x="-8"
     inkscape:window-y="-8"
     inkscape:window-maximized="1" />
  <metadata
     id="metadata3052">
    <rdf:RDF>
      <cc:Work
         rdf:about="">
        <dc:format>image/svg+xml</dc:format>
        <dc:type
           rdf:resource="http://purl.org/dc/dcmitype/StillImage" />
        <dc:title></dc:title>
      </cc:Work>
    </rdf:RDF>
  </metadata>
  <g
     inkscape:label="Calque 1"
     inkscape:groupmode="layer"
     id="layer1"
     transform="translate(-176.05562,-94.506638)">
    <path
       style="fill:#000000"
       d="m 308.64066,94.517342 c -0.59554,0.0538 -1.02125,0.3161 -1.0327,0.80551 -0.0106,0.45438 -0.44395,5.584828 -0.97074,11.400988 -0.52679,5.81616 -0.96287,12.52602 -0.97073,14.93283 l -0.0206,4.37864 -9.6041,0.84681 c -5.28349,0.45836 -9.78702,0.64324 -10.01717,0.41308 -0.23015,-0.23014 -0.5705,-2.1266 -0.74355,-4.21341 -0.27999,-3.37626 -0.19157,-3.71245 0.72289,-2.95352 0.7518,0.62394 1.14771,0.65239 1.48709,0.10327 0.59512,-0.96292 -0.23953,-1.73992 -2.39586,-2.27193 l -1.71428,-0.43374 0.30981,3.84164 c 0.16804,2.1148 0.5748,4.37738 0.90877,5.01892 0.75499,1.45027 0.4327,1.56985 -6.38208,2.43717 -2.90808,0.37011 -7.35423,0.98841 -9.8726,1.36316 -5.24251,0.78013 -5.38566,0.68791 -6.03096,-3.96556 -0.67629,-4.87695 -1.28324,-6.85114 -2.23063,-7.16693 -0.65908,-0.21969 -0.79365,0.12162 -0.47504,1.28054 0.5385,1.95873 1.39039,11.15371 1.0327,11.17381 -0.14422,0.008 -3.68879,0.59311 -7.86916,1.28054 -4.18036,0.68744 -7.66052,1.1782 -7.74524,1.09466 -0.0847,-0.0835 -1.08014,-5.05544 -2.18932,-11.02922 -3.25397,-17.52512 -6.12052,-26.597178 -8.67467,-27.407828 -2.02391,-0.64236 -4.37772,1.3868 -5.24611,4.50257 -1.29898,4.660688 -1.74096,12.289378 -1.15663,20.323508 0.30405,4.18037 0.70063,8.19272 0.86747,8.92252 0.16684,0.72979 -0.0752,2.7957 -0.537,4.60584 -0.81953,3.21255 -0.9166,3.31627 -3.77968,3.75902 -15.8473,2.45061 -21.70105,3.51548 -27.22195,4.97761 -3.54422,0.93864 -6.44404,1.93764 -6.44404,2.20998 0,0.27232 -0.8179,0.70114 -1.81755,0.95008 -3.38244,0.84228 -8.86195,4.44742 -10.80203,7.12562 -4.08054,5.63302 -1.89668,10.01912 7.2702,14.66432 5.69628,2.88653 19.67696,5.7868 31.45601,6.52666 12.58606,0.79055 40.37319,-0.22153 59.25626,-2.16867 35.40203,-3.65048 92.80853,-12.35635 96.47473,-14.62301 0.75332,-0.46576 0.72982,-0.73636 -0.14458,-1.61101 -1.69411,-1.69459 -10.66553,-2.90795 -21.64537,-2.93287 -9.39533,-0.0214 -10.13134,-0.10663 -9.70737,-1.17727 1.10326,-2.78601 1.79916,-10.21168 1.5697,-16.91561 l -0.24785,-7.24955 14.20994,0.43374 c 15.20451,0.46767 31.28143,1.73045 52.79157,4.15145 2.05641,0.23156 3.55616,0.23042 3.34594,0 -1.42523,-1.56217 -53.27008,-6.35879 -68.71578,-6.36143 l -2.35455,0 -1.50775,-6.67123 c -0.92237,-4.0293 -1.90629,-6.80279 -2.47847,-7.02236 -1.27391,-0.48885 -1.89874,0.24162 -1.09466,1.28055 0.58175,0.75167 2.01066,5.54327 3.1394,10.59549 l 0.39243,1.81755 -10.94661,0 c -6.60886,0 -10.80463,-0.24781 -10.57484,-0.61962 0.20954,-0.33903 0.0531,-3.38756 -0.33046,-6.7745 -0.54598,-4.82124 -1.07205,-6.69294 -2.41652,-8.63337 -0.94449,-1.36316 -1.93801,-2.47847 -2.23063,-2.47847 -1.08392,0 -1.23582,1.18348 -0.24784,2.00343 1.8179,1.50872 2.42107,3.38769 3.20136,9.91391 l 0.7642,6.40273 -4.91565,0.43374 c -2.70859,0.22896 -5.06651,0.26221 -5.24611,0.0826 -0.44482,-0.44482 1.66498,-28.591388 2.20998,-29.473218 0.28383,-0.45925 0.87031,-0.2907 1.69362,0.45439 1.67741,1.51803 2.45708,0.63467 0.92943,-1.05336 -0.82676,-0.91356 -2.2914,-1.39083 -3.28398,-1.3012 z m -75.44897,2.70567 c 0.80253,6.6e-4 1.62638,0.38602 2.1067,1.01205 2.59048,3.376308 9.68544,35.714498 7.95179,36.247728 -0.39541,0.12162 -2.65611,0.55808 -5.01892,0.95008 -2.36282,0.39201 -4.93273,0.86537 -5.7005,1.07401 -2.70914,0.73621 -3.13254,-4.19586 -0.537,-6.2375 1.45147,-1.14173 1.59768,-1.53692 0.95008,-2.74698 -0.70809,-1.32309 -0.85138,-1.35437 -1.98278,-0.33047 -1.15759,1.04761 -1.22248,0.88328 -1.75559,-4.06883 -1.48439,-13.7885 0.13737,-25.378168 3.6351,-25.879428 0.11258,-0.0161 0.23647,-0.0208 0.35112,-0.0206 z m 104.61238,29.679768 c 0.62201,0.005 1.04747,0.029 1.21859,0.0619 0.77326,0.14892 1.47666,1.12437 1.85886,2.56109 0.88156,3.31384 0.10442,17.65195 -1.11532,20.55071 -0.91782,2.18124 -1.28371,2.41087 -4.29603,2.76763 -3.55461,0.421 -8.3647,2.5607 -8.8399,3.92426 -0.4812,1.38079 0.23445,2.5573 1.98278,3.22202 2.85935,1.08712 5.90634,0.005 9.08775,-3.22202 l 2.95352,-2.99483 11.09119,0.43373 c 6.0917,0.24834 12.70633,0.82427 14.70563,1.28055 l 3.6351,0.84681 -8.59205,1.77625 c -7.81549,1.61957 -26.63431,4.80204 -43.6212,7.37347 -14.51348,2.197 -40.08545,5.16019 -53.86558,6.25815 -4.54387,0.36204 -11.29645,0.85694 -14.99478,1.09466 l -6.71254,0.43374 1.09466,-2.35456 c 0.77965,-1.66508 1.40807,-2.2472 2.10671,-1.94147 0.54526,0.2386 2.51249,0.55611 4.37864,0.70223 4.69589,0.36769 7.06586,-0.992 9.25297,-5.30807 1.77857,-3.50982 2,-5.66998 2.91221,-29.8863 0.0877,-2.32791 0.0536,-2.39159 3.34595,6.60927 4.50399,12.31342 10.07098,19.3833 18.29942,23.23572 5.89888,2.76177 7.82115,2.47662 9.12906,-1.3012 0.51241,-1.48005 0.60897,-2.57299 0.22719,-2.80894 -0.34429,-0.21278 -0.80663,0.16698 -1.01204,0.82616 -1.27375,4.08747 -2.70504,4.28232 -8.75729,1.19793 -5.13752,-2.61822 -9.04334,-6.62917 -12.53696,-12.88808 -2.15717,-3.86465 -6.94883,-15.87383 -6.506,-16.31664 1.07075,-1.07076 30.73586,-4.83303 38.10658,-4.83303 l 3.11876,0 0.49569,8.42682 c 0.93405,16.43983 3.28991,25.9406 6.91908,27.88287 1.90799,1.02112 4.43763,0.82915 5.7005,-0.43373 1.00981,-1.00981 1.0755,-2.83998 0.82616,-18.77447 l -0.2685,-17.6385 9.31494,-0.47504 c 3.84424,-0.19216 7.49024,-0.30412 9.35625,-0.28915 z m -25.23916,0.64027 4.97761,0 0.0206,2.47848 c 0.007,1.36316 0.16689,7.83199 0.37177,14.37517 0.20489,6.54318 0.12099,13.53248 -0.18588,15.53179 -0.45835,2.98618 -0.80878,3.65569 -1.96213,3.82098 -1.78249,0.25545 -3.70682,-2.14289 -5.43199,-6.75385 -1.35866,-3.63132 -3.90389,-26.5228 -3.16006,-28.46118 0.2943,-0.76696 1.542,-0.99139 5.37003,-0.99139 z m 23.23573,3.38725 c -1.62423,0.0172 -3.87722,1.75856 -3.30464,2.68502 0.21146,0.34215 0.86722,0.16855 1.48709,-0.39242 0.69082,-0.62518 1.70361,-0.85021 2.66436,-0.59897 1.14879,0.30042 1.48614,0.14907 1.25989,-0.537 -0.16801,-0.50951 -0.97749,-1.01588 -1.79689,-1.13597 -0.10174,-0.0149 -0.20153,-0.0219 -0.30981,-0.0206 z m -75.73814,2.5611 c 0.66343,0 0.75167,2.33864 0.43374,11.07053 -0.42579,11.69414 -0.95317,14.94698 -3.16005,19.64193 -0.9634,2.04954 -1.95199,3.09346 -3.38725,3.59379 -2.72548,0.95011 -5.11429,0.85953 -7.2289,-0.28915 -1.62347,-0.8819 -1.69399,-1.13857 -1.11531,-3.44922 0.78118,-3.11912 0.76609,-20.67665 -0.0206,-24.88804 -0.41488,-2.22075 -0.36577,-3.22086 0.16523,-3.38725 1.06966,-0.3352 13.30492,-2.29259 14.3132,-2.29259 z m -16.29598,2.80894 c 0.0983,3.8e-4 0.16893,0.004 0.18589,0.0206 0.15125,0.15126 0.57342,2.92425 0.95008,6.15488 0.64592,5.54007 0.44037,14.43366 -0.47504,20.15829 -0.2256,1.41083 -0.60826,2.58174 -0.84681,2.58174 -0.55507,0 -6.74842,-7.02828 -7.8072,-8.86055 -1.9508,-3.37593 -5.20544,-17.27246 -4.19276,-17.88635 0.68944,-0.41794 10.71114,-2.1743 12.18584,-2.16866 z m -14.8089,2.47848 c 0.74099,0 1.03705,1.07096 2.02409,7.20823 1.08302,6.7341 3.69718,12.19087 8.11702,16.91561 3.8466,4.11196 4.53695,6.05854 2.72632,7.86917 -1.80748,1.80747 -4.0914,1.23733 -7.10497,-1.77624 -4.25207,-4.25207 -5.94967,-10.15114 -6.17554,-21.45949 -0.0968,-4.84664 0.0855,-8.75728 0.41308,-8.75728 z m -3.05679,0.22719 c 0.93234,-0.0685 0.95432,0.84418 0.99139,7.06366 0.0741,12.44595 2.41671,20.19069 7.45609,24.74347 l 2.56109,2.33389 -11.73146,-0.0826 c -6.45334,-0.0422 -12.17758,-0.16066 -12.72285,-0.2685 -0.54527,-0.10785 -3.66815,-0.56335 -6.93974,-0.99139 -13.05892,-1.70859 -21.31665,-4.61892 -25.63159,-9.0671 -3.56048,-3.67043 -3.71911,-6.11357 -0.64027,-9.52148 2.70995,-2.9996 5.11458,-4.34474 13.32182,-7.47674 6.28798,-2.39959 12.18331,-3.71665 23.85535,-5.30808 4.18036,-0.56997 8.24638,-1.1732 9.02579,-1.3425 0.17249,-0.0375 0.32119,-0.0728 0.45438,-0.0826 z m 109.48673,15.63506 c 2.3862,0 2.11345,1.21513 -0.61962,2.8296 -2.34804,1.38702 -6.65058,1.52224 -6.65058,0.20654 0,-1.12193 4.59505,-3.03614 7.2702,-3.03614 z"
       id="path2996"
       inkscape:connector-curvature="0"
       sodipodi:nodetypes="ccscccsssscccsssssscscssssssssssssssssssccccccccssccsssssscccsssscccssssssscccccssssccccccsscccssssssscsssssccssccccsccsssssscssssccssssssscsccssssscssssssssscccsscssscsssssssscsccs" />
  </g>
</svg>
