<?xml version="1.0" standalone="no"?>
<!DOCTYPE svg PUBLIC "-//W3C//DTD SVG 20010904//EN"
 "http://www.w3.org/TR/2001/REC-SVG-20010904/DTD/svg10.dtd">
<svg version="1.0" xmlns="http://www.w3.org/2000/svg"
 width="432.000000pt" height="298.000000pt" viewBox="0 0 432.000000 298.000000"
 preserveAspectRatio="xMidYMid meet">

<g transform="translate(0.000000,298.000000) scale(0.100000,-0.100000)"
fill="#000000" stroke="none">
<path d="M4221 2874 c-47 -50 -74 -104 -91 -179 -6 -28 -31 -113 -55 -190 -53
-169 -84 -280 -169 -618 -69 -271 -71 -282 -57 -272 5 3 17 38 25 78 16 72 94
377 143 557 14 52 57 193 95 312 57 175 79 231 115 284 24 36 42 68 40 70 -2
3 -23 -16 -46 -42z"/>
<path d="M1522 2072 c-15 -73 -30 -93 -95 -130 -83 -47 -193 -171 -246 -279
-70 -141 -143 -411 -140 -518 1 -21 4 -15 10 20 57 324 120 488 240 632 88
104 179 170 179 130 0 -8 -25 -92 -55 -188 -56 -174 -135 -480 -135 -515 1
-39 19 12 49 139 17 70 47 180 67 244 20 65 51 167 69 226 18 59 41 120 50
134 15 23 21 25 63 19 49 -7 62 -18 62 -53 0 -32 -44 -146 -90 -231 -43 -78
-46 -87 -30 -77 6 4 38 61 71 127 92 184 90 242 -11 255 l-42 6 6 53 c8 72 -7
76 -22 6z"/>
<path d="M3704 1832 c-84 -62 -144 -143 -207 -283 -59 -131 -49 -123 -118 -89
-104 53 -201 70 -389 68 l-165 -1 175 -8 c187 -7 257 -21 373 -75 69 -31 68
-11 11 -222 l-38 -144 -65 7 c-74 7 -296 -9 -332 -25 -20 -8 -17 -9 16 -5 202
25 375 21 375 -9 0 -6 -7 -43 -15 -81 -32 -152 -49 -331 -49 -520 0 -168 2
-199 22 -270 30 -102 61 -145 107 -145 25 0 40 8 60 31 56 67 119 228 159 409
46 204 56 252 71 345 9 55 26 124 37 152 11 29 21 79 22 110 1 32 20 146 43
253 47 226 56 277 43 264 -5 -5 -15 -45 -24 -89 -44 -238 -75 -365 -90 -365
-2 0 -17 21 -34 48 -17 26 -40 58 -52 72 l-20 25 61 145 c108 259 141 397 100
420 -28 14 -34 13 -77 -18z m66 -7 c22 -27 -3 -119 -103 -374 -28 -73 -58
-136 -65 -138 -6 -3 -30 11 -51 30 -22 19 -49 40 -60 47 -31 16 -26 47 28 161
54 117 104 187 174 248 53 45 59 47 77 26z m-221 -507 c40 -35 51 -64 32 -83
-22 -23 -81 -187 -81 -224 0 -64 18 -75 118 -68 l83 6 -5 -27 c-3 -15 -10 -54
-15 -87 -65 -394 -166 -721 -242 -777 -22 -16 -29 -17 -52 -7 -29 13 -46 45
-74 134 -15 50 -18 94 -17 270 0 206 9 309 40 471 21 108 28 117 58 80 35 -43
40 -106 16 -227 -40 -200 -50 -270 -43 -282 4 -7 15 33 25 88 9 55 24 132 32
170 20 88 21 207 2 243 -8 15 -23 36 -35 46 -12 11 -21 26 -21 35 0 21 32 148
60 239 l22 73 28 -18 c16 -10 47 -35 69 -55z m132 -150 c31 -46 39 -66 39
-103 0 -68 -11 -80 -79 -95 -139 -29 -152 16 -60 219 34 74 36 73 100 -21z"/>
<path d="M2665 1509 c-461 -64 -885 -159 -1186 -265 -100 -35 -184 -62 -187
-59 -3 2 -17 -4 -32 -15 -30 -21 -184 -80 -211 -80 -9 0 -22 -7 -29 -14 -6 -8
-28 -20 -48 -27 -45 -14 -262 -107 -352 -151 -36 -17 -118 -55 -182 -84 -231
-103 -408 -228 -408 -286 0 -29 46 -74 83 -83 77 -19 138 -21 255 -8 142 15
156 17 402 63 96 18 182 33 190 34 12 1 16 -23 21 -139 6 -150 21 -236 45
-256 19 -16 28 -6 48 54 15 46 57 241 71 337 8 53 20 70 48 70 11 0 50 9 86
19 36 10 97 27 135 37 38 10 65 19 59 21 -6 2 -64 -10 -129 -27 -66 -16 -132
-30 -147 -30 -28 0 -29 1 -22 43 4 23 18 96 31 162 14 66 33 163 42 215 10 55
23 100 31 106 21 16 239 98 344 129 274 81 675 169 907 199 234 31 285 38 289
42 7 7 -90 2 -154 -7z m-1425 -406 c0 -16 -12 -82 -25 -148 -42 -196 -55 -268
-55 -297 0 -42 -30 -65 -95 -73 -31 -4 -60 -4 -65 1 -9 9 0 151 23 359 14 124
5 113 127 159 85 31 90 31 90 -1z m-225 -80 c-8 -22 -25 -199 -34 -348 l-6
-110 -90 -21 c-84 -20 -231 -47 -405 -76 -41 -6 -138 -12 -216 -12 -134 -1
-142 0 -177 24 -48 33 -47 56 6 107 90 88 271 185 614 331 314 134 321 136
308 105z m117 -448 c2 -3 -1 -31 -7 -62 -49 -232 -68 -319 -72 -326 -23 -38
-50 67 -56 226 -7 147 -15 136 124 166 3 0 8 -1 11 -4z"/>
<path d="M1480 1477 c0 -43 37 -52 117 -27 74 23 133 26 133 8 -1 -7 -7 -24
-15 -38 -16 -29 -18 -40 -7 -40 12 0 42 56 42 78 0 30 -38 34 -118 12 -98 -27
-118 -26 -136 8 l-15 27 -1 -28z"/>
<path d="M2795 1030 l-30 -8 30 0 c17 0 39 3 50 8 l20 9 -20 -1 c-11 0 -33 -4
-50 -8z"/>
<path d="M2613 989 c-18 -5 -33 -12 -33 -14 0 -6 58 5 85 16 l20 8 -20 -1
c-11 0 -35 -4 -52 -9z"/>
<path d="M2490 958 c-19 -5 -69 -16 -110 -24 -41 -8 -86 -20 -100 -28 -14 -7
-56 -21 -93 -31 -37 -9 -66 -19 -64 -22 2 -2 56 11 118 28 63 17 150 40 194
50 93 21 143 38 110 37 -11 0 -36 -4 -55 -10z"/>
<path d="M1905 799 c-55 -16 -82 -27 -60 -24 42 5 200 53 175 53 -8 0 -60 -13
-115 -29z"/>
<path d="M1617 725 c-111 -31 -147 -45 -118 -45 14 0 254 70 260 76 10 10 -31
1 -142 -31z"/>
</g>
</svg>
