<?xml version="1.0" encoding="UTF-8" standalone="no"?>
<!-- Created with Inkscape (http://www.inkscape.org/) -->

<svg
   version="1.1"
   id="svg1"
   width="146.55392"
   height="138.62941"
   viewBox="0 0 146.55392 138.62942"
   xml:space="preserve"
   xmlns="http://www.w3.org/2000/svg"
   xmlns:svg="http://www.w3.org/2000/svg"><defs
     id="defs1" /><g
     id="g1"
     transform="translate(-310.86924,-640.66895)"><path
       id="path212"
       style="fill:#000000"
       d="m 456.10337,640.67301 c -0.73887,-0.0361 -1.6206,0.16801 -2.1914,0.63672 -0.44286,0.36365 -2.456,1.91022 -4.47266,3.4375 -7.39586,5.60102 -20.63182,19.63094 -28.49414,30.20312 -1.92167,2.58397 -4.17167,5.55732 -5,6.60742 -0.82833,1.04986 -1.77639,2.47445 -2.10742,3.16602 -0.33103,0.69156 -0.86389,1.25781 -1.1836,1.25781 -0.31971,0 -0.87896,0.675 -1.24218,1.5 -0.53326,1.2112 -4.21344,6.79681 -6.25,9.58399 -0.0124,0.0222 -0.0239,0.0446 -0.0371,0.0664 -0.0317,0.0445 -0.0502,0.0989 -0.0801,0.14453 -0.0398,0.0804 -0.0745,0.16218 -0.11524,0.24219 -0.052,0.105 -0.1077,0.20872 -0.16211,0.3125 -0.0456,0.0778 -0.0877,0.15744 -0.13476,0.23438 -0.0451,0.0715 -0.0895,0.14277 -0.13672,0.21289 -0.0393,0.0589 -0.0794,0.11724 -0.11914,0.17578 -0.0301,0.0458 -0.0625,0.0917 -0.0859,0.14258 -0.0459,0.077 -0.076,0.16294 -0.125,0.23828 -0.0455,0.083 -0.0896,0.16622 -0.14062,0.24609 -0.0446,0.0691 -0.0918,0.13626 -0.13672,0.20508 -0.0597,0.0877 -0.11031,0.18177 -0.17578,0.26562 -0.0517,0.0691 -0.0946,0.1429 -0.15039,0.20899 -0.0396,0.0516 -0.0798,0.1045 -0.11914,0.15625 -0.0391,0.0539 -0.0796,0.10733 -0.11524,0.16406 -0.064,0.10017 -0.12699,0.20024 -0.19336,0.29883 -0.024,0.0349 -0.0495,0.0692 -0.0742,0.10352 -0.86183,1.65386 -4.08862,6.77854 -5.42187,8.53125 -0.82609,1.08597 -2.65522,4.35207 -4.17969,7.46679 -0.76266,1.55833 -1.80786,2.83399 -2.32227,2.83399 -0.51463,0 -1.33605,0.37565 -1.82617,0.83398 -0.49012,0.45834 -2.03461,1.41658 -3.43164,2.13086 -1.39703,0.71428 -3.16397,1.83928 -3.92578,2.5 -3.75926,3.26061 -9.54241,0.84351 -7.62109,-3.18555 1.26879,-2.66042 1.44426,-4.94531 0.38086,-4.94531 -1.12678,0 -3.16009,2.78334 -3.65235,5 -0.24427,1.1 -1.30811,3.75467 -2.36523,5.90039 -1.05713,2.14597 -1.92188,4.43513 -1.92188,5.08594 0,0.63147 -0.42553,1.49661 -0.95312,1.96484 -0.0206,0.0548 -0.0419,0.10937 -0.0625,0.16407 -0.0585,0.14338 -0.11697,0.28684 -0.18555,0.42578 -0.056,0.11936 -0.11565,0.23631 -0.17969,0.35156 -0.0589,0.10873 -0.11548,0.21819 -0.17578,0.32617 -0.0422,0.0732 -0.0754,0.15126 -0.10937,0.22852 -0.0423,0.0972 -0.0798,0.1973 -0.1211,0.29492 -0.0465,0.10494 -0.0982,0.20736 -0.15234,0.30859 -0.0487,0.0928 -0.0979,0.18361 -0.14844,0.27539 -0.0265,0.0501 -0.0563,0.0987 -0.084,0.14844 -0.79867,1.99191 -4.5585,6.19141 -5.74024,6.19141 -2.54202,0 -3.29614,-4.57108 -1.19336,-7.23243 0.39004,-0.494 0.93553,-5.29335 1.2129,-10.66601 0.27737,-5.37243 0.69383,-11.16068 0.92578,-12.86328 0.54844,-4.0258 -0.4736,-6.06136 -2.9043,-5.7793 -1.86386,0.21628 -1.96673,0.47321 -3.23438,8.12891 -0.29505,1.78167 -0.83034,2.6949 -1.7207,2.92773 -1.01747,0.26608 -1.20402,0.70956 -0.86914,2.07813 0.41164,1.68224 0.90601,10.5847 1.21289,21.85742 0.1955,7.18149 -1.02823,9.11836 -5.94726,9.41211 -2.97955,0.17791 -5.76311,-2.10647 -6.60547,-5.03125 v -0.002 c -0.003,-0.006 -0.001,0.002 -0.041,-0.0664 -0.004,-0.007 -0.0108,-0.0132 -0.0234,-0.0352 -0.0142,-0.0293 -0.003,-0.008 -0.0117,-0.0254 0.005,0.0128 -0.013,-0.0248 -0.0195,-0.0371 -0.003,-0.007 -0.007,-0.013 -0.01,-0.0195 1.3e-4,2.6e-4 -0.002,-0.006 -0.002,-0.006 -0.004,-0.008 -0.007,-0.0137 -0.01,-0.0195 -0.009,-0.0187 -0.017,-0.0374 -0.0254,-0.0566 -0.004,-0.009 -0.003,-0.007 -0.008,-0.0176 -9.5e-4,-0.002 -0.003,-0.004 -0.004,-0.006 v -0.002 c -10e-4,-0.003 -0.002,-0.004 -0.004,-0.008 -9.6e-4,-0.002 -0.003,-0.004 -0.004,-0.006 -0.0141,-0.0269 -0.027,-0.0542 -0.0391,-0.082 l -0.002,-0.002 c -0.002,-0.003 -0.002,-0.007 -0.004,-0.01 -0.006,-0.012 -0.0136,-0.023 -0.0195,-0.0352 -0.003,0.005 -0.0147,-0.0344 -0.0215,-0.0488 -0.0358,-0.0798 -0.0678,-0.17657 -0.0996,-0.29492 -0.0235,-0.0889 -0.0394,-0.17895 -0.0527,-0.26953 -0.0524,-0.11971 -0.10841,-0.23783 -0.15625,-0.35938 -0.0789,-0.20589 -0.16056,-0.41065 -0.23243,-0.61914 -0.0749,-0.21732 -0.14811,-0.43491 -0.21679,-0.65429 -0.0722,-0.22444 -0.13216,-0.45353 -0.19141,-0.68164 -0.0687,-0.23645 -0.13265,-0.47335 -0.19726,-0.71094 -0.0673,-0.24012 -0.13356,-0.47962 -0.19727,-0.7207 -0.0509,-0.19329 -0.0857,-0.39044 -0.11523,-0.58789 -0.32685,-0.84004 -0.56393,-1.98243 -0.57227,-2.97071 -0.0117,-1.38654 -0.47148,-3.59772 -1.02148,-4.91406 -1.47174,-3.52237 -1.21676,-7.45035 0.6875,-10.56445 2.99569,-4.89895 5.58641,-11.43074 6.34375,-16 0.30385,-1.83333 0.87006,-4.3812 1.25976,-5.66211 2.01898,-6.63667 0.07,-11.58556 -4.41601,-11.21289 -3.04033,0.25256 -5.17627,3.44673 -5.91407,8.84179 -0.25324,1.85185 -0.71405,4.04009 -1.02539,4.86328 -0.31135,0.8232 -0.59586,5.6228 -0.63086,10.66602 -0.0727,10.4774 -0.73266,12.14443 -6.57031,16.60156 -3.50607,2.67726 -4.63652,1.9593 -2.67578,-1.69922 0.70119,-1.30826 1.28322,-3.28324 1.29492,-4.38867 0.0117,-1.10543 0.46167,-2.59295 1,-3.30469 5.62046,-7.43122 -8.32006,-32.84986 -14.58203,-26.58789 -0.50046,0.50045 2.12025,3.54883 3.05078,3.54883 4.99564,0 11.15532,13.65845 9.23633,19.6836 -0.008,0.0527 -0.0153,0.10566 -0.0234,0.1582 -0.0153,0.0724 -0.0227,0.1458 -0.0351,0.21875 -0.0447,0.22061 -0.0892,0.43968 -0.13477,0.66016 -0.0651,0.34602 -0.15997,0.68643 -0.25391,1.02539 -0.0543,0.19582 -0.12361,0.3639 -0.20312,0.50976 -0.0216,0.11824 -0.0657,0.24316 -0.0762,0.34766 -0.0251,0.16285 -0.0559,0.32304 -0.0781,0.48633 -0.0217,0.24368 -0.0702,0.48489 -0.11719,0.72461 -0.0635,0.26474 -0.12437,0.53008 -0.1875,0.79492 -0.0512,0.29966 -0.12367,0.59383 -0.19726,0.88867 -0.0721,0.29849 -0.16921,0.59193 -0.24024,0.89062 -0.0711,0.2793 -0.17053,0.54927 -0.26171,0.82227 -0.0616,0.17457 -0.11002,0.35192 -0.16211,0.5293 -0.0657,0.19663 -0.11934,0.39698 -0.17774,0.5957 -0.0127,0.0229 -0.0285,0.0823 -0.041,0.12891 -0.0262,0.19116 -0.0805,0.42255 -0.12891,0.62695 -0.0476,0.16969 -0.0651,0.26704 -0.11328,0.44531 -0.0337,0.13515 -0.0792,0.30216 -0.11133,0.4082 0.006,0.0204 -0.0609,0.18463 -0.11133,0.32032 -0.0194,0.091 -0.0386,0.18118 -0.0625,0.27148 -0.0372,0.13444 -0.0991,0.25974 -0.15625,0.38672 -0.001,0.004 -0.003,0.008 -0.004,0.0117 -0.0244,0.0755 -0.0488,0.15033 -0.0723,0.22656 -0.0434,0.13641 -0.0895,0.27373 -0.13281,0.41016 -0.0417,0.12536 -0.0817,0.2496 -0.12891,0.37304 -0.0535,0.13901 -0.10795,0.27747 -0.17187,0.41211 -0.038,0.0812 -0.0767,0.16199 -0.11719,0.24219 -0.0256,0.0618 -0.0495,0.12431 -0.0762,0.18555 -0.34068,1.71233 -1.2087,2.07027 -2.47852,0.70703 -1.40345,-1.50643 -2.98574,-1.93282 -3.58398,-0.96484 -0.17912,0.28982 0.59529,2.00594 1.7207,3.81445 1.98295,3.1859 2.01274,3.34904 0.95313,5.19531 -0.60151,1.04806 -1.09375,2.46279 -1.09375,3.14453 0,0.68198 -0.26268,1.40284 -0.58399,1.60157 -0.84001,0.51914 -4.2302,11.46031 -3.96875,12.80859 0.36854,1.90175 1.82408,1.78846 2.63086,-0.20508 0.41985,-1.03714 1.13668,-2.78672 1.59375,-3.88672 1.19701,-2.88052 2.36424,-6.33602 2.98828,-8.85156 0.29819,-1.20207 0.84119,-2.55207 1.20899,-3 0.36781,-0.44794 0.77359,-1.56169 0.90039,-2.47461 0.141,-1.01513 0.7422,-1.75818 1.54883,-1.91211 1.58275,-0.30202 9.01562,-5.90869 9.01562,-6.80078 0,-2.14845 1.91255,-0.22894 2.19922,2.20703 0.46032,3.91156 1.71279,9.10877 2.77148,11.5 4.43441,10.0162 5.82606,11.32411 11.36133,10.67774 3.69872,-0.43194 5.73902,-2.23284 7.07031,-6.24024 0.67418,-2.02935 0.92729,-2.19398 2.83594,-1.85742 3.69191,0.65103 7.19826,-2.62778 10.75977,-10.05859 4.23535,-8.8368 3.14303,-7.87305 8.93945,-7.87305 4.78699,0 5.32492,-0.14803 7.86328,-2.1582 4.20885,-3.33365 4.84103,-2.17438 1.69922,3.11523 -1.79826,3.02814 -4.37641,8.08415 -5.12891,10.06055 -0.20941,0.55 -1.11564,2.19958 -2.01367,3.66601 -0.0172,0.028 -0.0279,0.0558 -0.0449,0.084 -3.9e-4,10e-4 -0.002,0.005 -0.002,0.006 -0.009,0.0265 -0.0342,0.0826 -0.0547,0.13086 0.007,-0.0213 0.009,-0.0315 0.0215,-0.0664 -0.005,0.008 -0.007,0.0156 -0.0117,0.0234 -0.0141,0.0385 -0.0291,0.0767 -0.043,0.11523 0.0146,-0.0301 0.0261,-0.0525 0.0312,-0.0664 -0.0107,0.0252 -0.012,0.031 -0.0274,0.0664 -0.0135,0.0257 -0.0254,0.0837 -0.0391,0.10742 0.0106,-0.0117 -0.0126,0.0261 -0.0566,0.0996 -8.3e-4,0.002 -7.5e-4,0.004 -0.002,0.006 l -0.002,0.002 c -0.002,0.004 -0.002,0.002 -0.004,0.006 -0.002,0.005 -0.004,0.0104 -0.006,0.0156 -4.2e-4,0.001 4.2e-4,0.003 0,0.004 -0.007,0.019 -0.0145,0.0377 -0.0215,0.0566 -0.005,0.0141 -0.0148,0.0275 -0.0215,0.041 -0.003,0.006 -0.0116,0.0241 -0.01,0.0176 0.0103,-0.0211 -0.0466,0.0966 -0.0117,0.0234 0.0701,-0.18546 0.0217,-0.0712 -0.0449,0.0801 0.006,-0.0159 0.0128,-0.0412 0.01,-0.0312 -0.01,0.0239 -0.0199,0.0452 -0.0293,0.0684 0.005,-0.0111 0.0108,-0.0184 0.0156,-0.0293 -0.01,0.0258 -0.0175,0.0512 -0.0293,0.0762 -0.005,0.0118 -0.0113,0.0236 -0.0176,0.0352 0.0113,-0.0269 0.022,-0.0545 0.0332,-0.082 -0.0376,0.0844 -0.0763,0.17815 -0.10546,0.22852 -0.02,0.0421 -0.0365,0.0847 -0.0606,0.12695 0.0239,-0.0454 0.0493,-0.0908 0.0723,-0.13672 0.0913,-0.18232 -0.0261,0.049 -0.10156,0.19727 0.002,-0.003 -0.009,0.0192 -0.008,0.0176 -0.002,0.003 -0.004,0.006 -0.006,0.01 4.9e-4,-7.6e-4 -0.007,0.0181 -0.008,0.0195 -0.01,0.0176 -0.008,0.0185 -0.0156,0.0332 -0.0103,0.0225 0.003,-0.002 -0.0312,0.0703 l -0.002,0.002 c -0.0103,0.0213 -0.0106,0.0225 -0.0176,0.0371 -0.0135,0.0262 -0.0286,0.052 -0.0215,0.0391 -0.0182,0.038 -0.0346,0.0738 -0.0703,0.13867 -0.0444,0.0835 -0.13541,0.22928 -0.17968,0.29492 -0.0561,0.0924 -0.174,0.28264 -0.084,0.15039 0.0665,-0.13373 -0.0617,0.13303 -0.0664,0.14453 -0.0274,0.0693 -0.0594,0.13712 -0.0937,0.20313 -0.004,0.01 0.002,-0.005 -0.002,0.004 -0.0946,0.22286 -0.0698,0.18588 -0.041,0.10157 -0.0639,0.24976 -0.19723,0.52289 -0.20703,0.54492 -0.0473,0.10782 -0.10127,0.21442 -0.14844,0.32226 0.003,-0.007 -0.006,0.01 -0.0117,0.0215 -0.0357,0.14078 -0.0854,0.29972 -0.0879,0.39258 -0.0159,0.59676 -0.4793,1.45956 -1.0293,1.91601 -0.0446,0.037 -0.0849,0.0892 -0.12695,0.13477 -0.0204,0.0459 -0.027,0.067 -0.0547,0.125 -0.008,0.0166 -0.0158,0.0321 -0.0234,0.0488 -8.8e-4,0.002 -0.003,0.0125 -0.002,0.0117 -0.0553,0.11643 -0.0716,0.14188 -0.0918,0.17774 -0.0136,0.0284 -0.031,0.0557 -0.0449,0.084 -0.0421,0.086 -0.0827,0.17236 -0.13281,0.25391 -0.0605,0.0983 -0.10369,0.15815 -0.0645,0.10351 -0.002,0.004 -0.0116,0.0154 -0.01,0.0117 0.0264,-0.047 -0.0284,0.0492 -0.0273,0.0469 -0.13652,0.33546 -0.27047,0.67207 -0.41992,1.00195 -8.1e-4,0.002 -7.2e-4,0.004 -0.002,0.006 -2.5e-4,0.0111 -0.006,0.0242 -0.006,0.0352 0,0.63792 -0.42087,1.57286 -0.94336,2.13281 -0.0219,0.0522 -0.0446,0.10402 -0.0664,0.15625 -0.16539,0.39516 -0.33139,0.79038 -0.50586,1.18164 -0.16112,0.3793 -0.33094,0.75441 -0.49414,1.13281 -0.0278,0.0613 -0.0561,0.12238 -0.084,0.1836 -0.189,0.75188 -0.66905,1.93794 -1.24023,3.0039 -0.73333,1.36824 -1.33203,2.83401 -1.33203,3.25586 0,0.42185 -0.44836,1.62556 -0.9961,2.67578 -0.54774,1.05025 -1.00758,2.51082 -1.02148,3.24414 -0.0139,0.73333 -0.46557,1.91523 -1.00391,2.62696 -0.53834,0.71155 -0.97851,1.95027 -0.97851,2.75195 0,0.80169 -0.45,1.83065 -1,2.28711 -1.03428,0.85839 -1.33517,2.77617 -0.55664,3.55469 1.08179,1.0816 2.14539,0.24795 5.80468,-4.55469 1.67619,-2.19999 3.35561,-4.36184 3.73243,-4.80469 0.37681,-0.44286 0.68554,-1.07117 0.68554,-1.39648 0,-0.32531 0.60067,-1.13517 1.33399,-1.79883 0.73333,-0.66365 1.33203,-1.44186 1.33203,-1.72852 0,-0.28665 1.27565,-2.43137 2.83398,-4.76757 3.84462,-5.76358 4.13928,-6.25629 6.5,-10.8379 1.13358,-2.19978 2.32502,-4.45 2.64844,-5 0.32342,-0.55 0.75935,-1.45 0.9668,-2 0.20746,-0.55 0.65746,-1.45 1,-2 0.34255,-0.55 0.79255,-1.45 1,-2 0.20746,-0.55 0.63391,-1.45 0.94922,-2 0.3153,-0.55 1.05858,-2.12941 1.65234,-3.50976 0.59375,-1.38035 1.52195,-3.47972 2.0625,-4.66602 2.6804,-5.8827 2.94731,-9.65794 0.7207,-10.21679 -2.52842,-0.63458 -2.46513,-0.81315 3.49024,-10.00391 0.45251,-0.69834 1.6345,-2.61953 2.62695,-4.26953 0.99246,-1.64999 3.09575,-4.87426 4.67578,-7.16406 1.58001,-2.28999 2.87305,-4.3272 2.87305,-4.52735 0,-0.35817 11.32312,-15.4054 14.5293,-19.30859 7.96906,-9.70147 22.78544,-24.45063 28.63281,-28.50195 1.18915,-0.82367 2.16597,-1.87371 2.16797,-2.33204 0.003,-0.49647 -0.59317,-0.77249 -1.33203,-0.80859 z m -58.01758,43.3457 c -0.88884,-0.19759 -2.0739,0.59149 -3.79687,2.31445 -3.55912,3.55888 -1.96372,9.94442 2.37109,9.49024 1.38291,-0.14488 1.76648,0.20137 2.25391,2.03711 1.8125,6.82594 2.94081,-2.91881 1.18555,-10.23633 -0.53368,-2.22464 -1.12483,-3.40787 -2.01368,-3.60547 z m -2.25,4.66211 c 0.48575,-0.10694 0.9375,0.47493 0.9375,1.5957 0,0.89478 -0.30262,1.81281 -0.67187,2.04102 -0.84381,0.5215 -1.60024,-1.33282 -1.08789,-2.66797 0.22698,-0.5915 0.53081,-0.90458 0.82226,-0.96875 z m -8.07031,1.51953 c -1.53076,-0.32523 -2.50845,9.54914 -1.24023,14.28125 0.23813,0.88858 0.91912,1.5 1.66992,1.5 1.32812,0 1.22383,-14.10408 -0.11524,-15.57422 -0.10646,-0.11665 -0.2124,-0.18534 -0.31445,-0.20703 z m -46.90234,1.94141 c 0.22983,0.0206 0.45339,0.11746 0.64453,0.30859 0.72701,0.72701 -0.48621,13.91657 -1.44336,15.68946 -0.34374,0.63668 -0.625,1.47476 -0.625,1.86132 0,0.38681 -0.675,2.18344 -1.5,3.99414 -0.825,1.81048 -1.725,3.29964 -2,3.30664 -0.88048,0.0239 -0.51984,-8.20423 0.50781,-11.59179 0.54604,-1.79994 0.99219,-4.68977 0.99219,-6.41992 0,-1.21807 0.15357,-2.20303 0.4082,-2.92969 0.003,-0.0137 0.006,-0.0274 0.01,-0.041 0.0173,-0.0741 0.0323,-0.14929 0.0527,-0.22265 0.0198,-0.0724 0.043,-0.14363 0.0723,-0.21289 0.023,-0.0581 0.0465,-0.11585 0.0742,-0.17188 0.0138,-0.0286 0.0286,-0.0626 0.0469,-0.10156 0.0112,-0.0256 0.0205,-0.0524 0.0312,-0.0781 0.005,-0.0196 0.0105,-0.039 0.0156,-0.0586 0.0308,-0.12307 0.0698,-0.24282 0.10937,-0.36328 0.0308,-0.0934 0.0619,-0.18691 0.0957,-0.2793 0.0431,-0.13174 0.0974,-0.25959 0.15235,-0.38672 0.0613,-0.13946 0.12828,-0.27632 0.19726,-0.41211 0.0605,-0.12158 0.12274,-0.24057 0.19532,-0.35547 0.0686,-0.10411 0.14937,-0.20002 0.23437,-0.29101 0.041,-0.0441 0.0814,-0.0893 0.12305,-0.13281 0.0477,-0.0489 0.0953,-0.0991 0.14453,-0.14649 0.029,-0.0283 0.0593,-0.0516 0.0898,-0.0742 0.0247,-0.0248 0.0494,-0.0489 0.0762,-0.0723 0.005,-0.006 0.0119,-0.0102 0.0176,-0.0156 0.0244,-0.0229 0.0489,-0.045 0.0762,-0.0644 0.008,-0.006 -6.7e-4,5.5e-4 0.006,-0.004 0.25853,-0.47313 0.72279,-0.77676 1.19532,-0.73437 z m -1.19922,0.74023 c -0.007,0.006 -0.0186,0.0178 -0.0137,0.0137 0.005,-0.004 0.009,-0.006 0.0137,-0.01 5.5e-4,-10e-4 -5.6e-4,-0.003 0,-0.004 z m 56.39258,27.49024 v 0.002 c 0.1343,-0.006 0.24057,0.0218 0.30664,0.0879 0.65583,0.65586 0.4795,3.21189 -0.18164,4.49024 -0.0245,0.0994 -0.0541,0.19768 -0.0859,0.29492 -0.0365,0.10946 -0.0723,0.22016 -0.10742,0.33008 -0.0558,0.16982 -0.11638,0.33677 -0.17969,0.5039 -0.0729,0.19664 -0.16,0.38879 -0.25391,0.57617 -0.0358,0.0683 -0.073,0.13546 -0.10937,0.20313 -0.0111,0.0244 -0.0196,0.05 -0.0312,0.0742 -0.0595,0.12615 -0.11739,0.25409 -0.17969,0.3789 -0.0521,0.10587 -0.1017,0.21277 -0.1543,0.31836 -0.0468,0.0984 -0.0935,0.19682 -0.13671,0.29688 -0.0418,0.0884 -0.0845,0.17574 -0.12305,0.26562 -0.0456,0.0966 -0.0938,0.19302 -0.14063,0.28907 -0.0439,0.0854 -0.0872,0.16933 -0.1289,0.25585 -0.0473,0.10033 -0.094,0.20104 -0.14258,0.30079 -0.056,0.11189 -0.1149,0.22261 -0.17188,0.33398 -0.0543,0.11036 -0.10999,0.21968 -0.16796,0.32813 -1.64352,4.36256 -8.61837,17.69937 -13.79493,26.23437 -1.55808,2.56942 -2.83398,4.84271 -2.83398,5.05273 0,0.39397 -0.86153,1.52972 -2.75781,3.63282 -0.60029,0.66568 -1.40569,1.76813 -1.78907,2.45117 -0.6623,1.18041 -0.71996,1.18281 -1.15625,0.0508 -0.0972,-0.25229 -0.10304,-0.53305 -0.0723,-0.82031 -0.002,-0.0208 -0.004,-0.0414 -0.006,-0.0625 -0.002,-0.0285 -0.004,-0.0573 -0.004,-0.0859 -2.9e-4,-0.0319 4e-5,-0.0638 0,-0.0957 -3e-5,-0.039 10e-6,-0.0782 0,-0.11719 0.002,-0.0666 0.008,-0.13322 0.0176,-0.19922 0.008,-0.0568 0.0175,-0.11331 0.0273,-0.16992 0.01,-0.0554 0.023,-0.11114 0.0352,-0.16602 0.012,-0.0611 0.0266,-0.12109 0.041,-0.18164 0.0189,-0.0768 0.0439,-0.15136 0.0684,-0.22656 0.035,-0.10179 0.0781,-0.20134 0.11914,-0.30078 0.0531,-0.13063 0.10531,-0.26072 0.16015,-0.39063 0.1077,-0.25073 0.23368,-0.49328 0.35742,-0.73632 0.15796,-0.31542 0.33503,-0.62116 0.51954,-0.92188 0.0216,-0.0547 0.0433,-0.10929 0.0644,-0.16406 0.0292,-0.0762 0.0611,-0.15111 0.0918,-0.22656 0.005,-0.0162 0.0104,-0.0321 0.0156,-0.0488 0.0153,-0.0466 0.0322,-0.0924 0.0488,-0.13867 0.0128,-0.0303 0.0115,-0.0267 0.0312,-0.0762 10e-4,-0.003 0.002,-0.007 0.004,-0.01 l 0.002,-0.004 c 7e-4,-0.002 0.002,-0.003 0.002,-0.004 5.3e-4,-0.001 4.8e-4,-0.003 0.002,-0.004 8.3e-4,-0.003 3.5e-4,-0.005 0.002,-0.008 l 0.002,-0.002 c 0.002,-0.008 0.004,-0.0156 0.006,-0.0234 0.0103,-0.0299 0.009,-0.0209 0.0234,-0.0566 l 0.002,-0.002 c 0.002,-0.005 -0.004,0.006 0.006,-0.0195 0.0103,-0.0242 0.01,-0.0203 0.0195,-0.041 v -0.002 c 4.1e-4,-0.001 0.002,-0.002 0.002,-0.004 0.008,-0.0256 0.0205,-0.0504 0.0332,-0.0742 0.003,-0.005 0.003,-0.004 0.006,-0.01 0.002,-0.003 0.002,-0.009 0.004,-0.0117 l 0.002,-0.002 c 0.0219,-0.0775 0.0417,-0.15563 0.0664,-0.23242 0.0551,-0.16345 0.11615,-0.32443 0.18555,-0.48242 0.0377,-0.0859 0.074,-0.1726 0.11328,-0.25782 0.0295,-0.0654 0.0607,-0.13062 0.0918,-0.19531 0.0187,-0.0416 0.0305,-0.0706 0.0488,-0.10742 0.0246,-0.0591 0.0517,-0.11653 0.084,-0.17188 0.0205,-0.0342 0.0374,-0.0708 0.0605,-0.10351 0.0283,-0.0464 0.0605,-0.0917 0.0879,-0.13867 0.0322,-0.0507 0.0632,-0.10064 0.0937,-0.15235 0.0176,-0.0277 0.0365,-0.0546 0.0547,-0.082 0.0379,-0.0849 0.0617,-0.17787 0.10156,-0.25976 1.2792,-2.6286 2.91887,-6.24429 3.72851,-8.22071 0.37551,-0.91655 0.95891,-2.11601 1.29493,-2.66601 0.33602,-0.55 1.56158,-3.10131 2.7246,-5.66797 1.1628,-2.56655 2.39104,-5.11602 2.72852,-5.66602 0.33748,-0.54988 0.8075,-1.45 1.04297,-2 0.23548,-0.54988 1.88325,-3.44164 3.66211,-6.42578 1.77886,-2.98413 3.23437,-5.7246 3.23437,-6.08984 0,-0.76368 2.34309,-2.38625 3.28321,-2.42578 z m -40.96875,0.48437 c 0.35199,0.16271 0.74529,2.20054 0.86132,5.9668 0.1032,3.35739 -0.10402,5.90746 -0.5,6.15234 -0.82466,0.50968 -0.8826,0.10378 -0.9746,-6.83398 -0.0496,-3.73553 0.26128,-5.44786 0.61328,-5.28516 z m 23.91015,22.37696 c -0.009,0.0146 -0.0148,0.0283 -0.0234,0.043 -0.0222,0.0618 -0.0442,0.12356 -0.0664,0.18555 0.012,-0.0244 0.0233,-0.0489 0.0332,-0.0742 h -0.002 c -10e-5,-1.3e-4 0.0135,-0.0291 0.0195,-0.041 0.0136,-0.0377 0.026,-0.0758 0.0391,-0.11328 z m -4.62304,18.51367 c -0.002,0.004 -0.0131,0.0184 -0.0156,0.0215 0.006,-0.007 0.0106,-0.0142 0.0156,-0.0215 z" /><path
       style="fill:#000000"
       d="m 326.41626,717.13783 c -0.17818,4.3338 -3.00035,10.72074 -3.32374,10.39735 -2.65723,-2.65723 3.08571,-11.74328 3.49419,-11.33481 0.81802,0.81803 -2.07583,12.58272 -3.74987,10.90869 -2.42431,-2.42431 3.57942,-12.77972 3.57942,-9.97123 z"
       id="path213" /><path
       style="fill:#000000"
       d="m 313.29174,747.98897 c 0.75564,-2.18592 2.35286,-7.32176 4.34643,-10.31212 0.037,-0.0555 0.57996,-1.03931 0.76702,-0.85224 0.39781,0.39781 -3.85443,15.78074 -5.11345,11.16436 z"
       id="path214" /><path
       id="path215"
       style="fill:#000000"
       d="m 323.0934,719.64957 c -0.008,8.7e-4 -0.0165,0.005 -0.0254,0.0117 -0.006,0.0221 -0.0115,0.0444 -0.0176,0.0664 -0.0508,0.18331 -0.11435,0.34295 -0.1875,0.48242 -0.0175,0.13374 -0.0946,0.28469 -0.0977,0.40039 0.002,-0.008 0.007,-0.0339 0.006,-0.0254 -0.0251,0.16285 -0.0559,0.32304 -0.0781,0.48633 -0.0217,0.24368 -0.0702,0.48489 -0.11719,0.72461 -0.0635,0.26475 -0.12437,0.53008 -0.1875,0.79492 -0.0512,0.29966 -0.12368,0.59383 -0.19727,0.88867 -0.0721,0.29849 -0.1692,0.59194 -0.24023,0.89063 -0.0711,0.2793 -0.17054,0.54926 -0.26172,0.82226 -0.0616,0.17457 -0.11002,0.35192 -0.16211,0.5293 -0.0657,0.19663 -0.11933,0.39698 -0.17773,0.5957 -0.0127,0.0229 -0.0285,0.0823 -0.041,0.12891 -0.0262,0.19116 -0.0805,0.42255 -0.12891,0.62695 -0.0476,0.16969 -0.0651,0.26704 -0.11328,0.44531 -0.0337,0.13515 -0.0792,0.30217 -0.11133,0.40821 0.008,0.0257 -0.0601,0.21151 -0.125,0.3789 -0.0154,0.071 -0.0301,0.14213 -0.0488,0.21289 -0.0454,0.16393 -0.11126,0.32104 -0.1836,0.47461 -0.0143,0.0444 -0.0291,0.0881 -0.043,0.13281 0.002,10e-4 0.005,0.003 0.006,0.004 1.81767,-2.03437 2.94619,-9.52888 2.53321,-9.48047 z m -2.54297,9.48828 c -6.1e-4,0.002 -0.001,0.004 -0.002,0.006 10e-4,-0.001 0.003,-0.003 0.004,-0.004 -6.3e-4,-3.2e-4 -0.001,-0.002 -0.002,-0.002 z" /><path
       id="path222"
       style="fill:#000000"
       d="m 381.54262,741.15348 c -0.1027,0.012 -0.23137,0.0542 -0.38477,0.13086 -0.97153,0.48577 -1.52123,1.5858 -2.27539,2.24804 -0.005,0.0129 -0.009,0.0261 -0.0137,0.0391 -0.005,0.0141 -0.0148,0.0275 -0.0215,0.041 -0.003,0.006 -0.0126,0.0241 -0.01,0.0176 0.0103,-0.0211 -0.0466,0.0966 -0.0117,0.0234 0.0701,-0.18546 0.0217,-0.0712 -0.0449,0.0801 0.006,-0.0159 0.0138,-0.0412 0.01,-0.0312 -0.01,0.0239 -0.0199,0.0452 -0.0293,0.0684 0.005,-0.0111 0.0108,-0.0184 0.0156,-0.0293 -0.01,0.0258 -0.0175,0.0512 -0.0293,0.0762 -0.008,0.0178 -0.0185,0.0352 -0.0273,0.0527 -0.0365,0.0861 -0.0745,0.17058 -0.12305,0.25585 0.0239,-0.0454 0.0493,-0.0908 0.0723,-0.13671 0.0913,-0.18232 -0.0261,0.049 -0.10156,0.19726 0.002,-0.003 -0.009,0.0192 -0.008,0.0176 -0.002,0.003 -0.004,0.006 -0.006,0.01 4.9e-4,-7.6e-4 -0.007,0.0181 -0.008,0.0195 -0.01,0.0176 -0.008,0.0185 -0.0156,0.0332 -0.0103,0.0225 0.003,-0.002 -0.0312,0.0703 l -0.002,0.002 c -0.0103,0.0213 -0.0106,0.0225 -0.0176,0.0371 -0.0135,0.0262 -0.0286,0.052 -0.0215,0.0391 -0.0182,0.038 -0.0327,0.0738 -0.0684,0.13867 -0.0444,0.0835 -0.13542,0.22928 -0.17969,0.29492 -0.0561,0.0924 -0.17599,0.28264 -0.0859,0.15039 0.0665,-0.13373 -0.0617,0.13303 -0.0664,0.14453 -0.0274,0.0693 -0.0593,0.13712 -0.0937,0.20313 -0.004,0.01 0.002,-0.005 -0.002,0.004 -0.0946,0.22286 -0.0698,0.18589 -0.041,0.10157 -0.0639,0.24977 -0.19723,0.52289 -0.20703,0.54492 -0.0473,0.10782 -0.10127,0.21442 -0.14844,0.32226 0.004,-0.01 -0.009,0.0195 -0.0137,0.0293 -0.0787,0.18757 -0.0668,0.16828 -0.18359,0.40625 -0.0857,0.16176 -0.0763,0.15054 -0.15625,0.3125 -0.0615,0.1308 -0.13552,0.25208 -0.20508,0.36328 -0.0526,0.11797 -0.12815,0.23338 -0.19336,0.34375 0.0237,-0.0423 -0.0663,0.1126 -0.0508,0.084 0.17673,-0.32592 -0.13469,0.21546 -0.041,0.0742 -0.2016,0.32999 -0.0294,0.0455 -0.0352,0.0566 -0.14894,0.28787 0.16713,-0.34102 -0.0684,0.13476 -0.0434,0.0865 -0.0535,0.10415 -0.0488,0.0918 -0.003,0.006 -0.009,0.0152 -0.0195,0.0391 -0.007,0.0199 -0.01,0.0211 -0.0234,0.0508 9.2e-4,-0.002 -0.009,0.0212 -0.004,0.01 -0.0472,0.10089 -0.1189,0.24858 -0.0762,0.16992 -0.0522,0.10979 -0.0954,0.22659 -0.18945,0.42383 -0.008,0.0166 -0.0158,0.0321 -0.0234,0.0488 -8.9e-4,0.002 -0.003,0.005 -0.002,0.004 -0.0553,0.11643 -0.0697,0.14188 -0.0899,0.17774 -0.0136,0.0284 -0.0291,0.0557 -0.043,0.084 -0.0421,0.086 -0.0827,0.17236 -0.13282,0.25391 -0.0605,0.0983 -0.10552,0.15815 -0.0664,0.10351 -0.002,0.004 -0.008,0.0154 -0.006,0.0117 0.0264,-0.047 -0.0285,0.0492 -0.0274,0.0469 -0.13652,0.33546 -0.27047,0.67207 -0.41992,1.00195 -0.17827,0.41302 -0.36254,0.82385 -0.55078,1.23242 -0.15857,0.36464 -0.31366,0.73073 -0.4668,1.09766 -0.16539,0.39516 -0.33138,0.79037 -0.50586,1.18164 -0.16112,0.3793 -0.33094,0.75441 -0.49414,1.13281 -0.12126,0.2678 -0.24455,0.53467 -0.36523,0.80274 -0.13442,0.28359 -0.25016,0.57495 -0.38281,0.85937 -0.13063,0.27883 -0.26857,0.55423 -0.42383,0.82031 -0.11933,0.20953 -0.23143,0.42341 -0.36719,0.62305 -0.0212,0.0332 -0.0429,0.0665 -0.0644,0.0996 -1.58273,5.59904 -3.04187,11.08678 -5.73633,13.78125 -0.57382,0.57382 -2.20908,4.77138 -1.27539,5.70508 1.98161,1.9816 5.07059,-9.35393 5.19141,-9.53516 0.68181,-1.02275 1.27599,-2.17241 1.82031,-3.39062 0.006,-0.0175 0.0119,-0.0352 0.0176,-0.0527 0.035,-0.10179 0.0781,-0.20134 0.11914,-0.30078 0.0531,-0.13063 0.10531,-0.26071 0.16015,-0.39062 0.0703,-0.16359 0.14838,-0.32339 0.22852,-0.48243 1.48388,-3.63653 2.63639,-7.73178 4.29492,-11.04882 2.50232,-5.00463 6.4369,-11.80366 4.89649,-11.62305 z m -2.82227,2.7168 c 0.0137,-0.0323 0.0274,-0.0661 0.041,-0.0996 -0.0376,0.0844 -0.0763,0.17814 -0.10547,0.22851 0.0216,-0.0426 0.043,-0.0862 0.0645,-0.1289 z" /><path
       style="fill:#000000"
       d="m 366.77123,772.52821 -0.85133,0.7662"
       id="path223" /><path
       id="path224"
       style="fill:#000000"
       d="m 373.85902,755.14567 c -0.14445,-0.006 -0.34844,0.17926 -0.5957,0.50586 -0.0666,0.14575 -0.13344,0.29138 -0.19922,0.4375 -0.13442,0.28359 -0.25016,0.57495 -0.38281,0.85937 -0.13063,0.27883 -0.26857,0.55423 -0.42383,0.82031 -0.11933,0.20953 -0.23143,0.42341 -0.36719,0.62305 -0.093,0.1457 -0.1912,0.28901 -0.27344,0.44141 -0.1134,0.17478 -0.22532,0.35003 -0.33789,0.52539 -0.0516,0.076 -0.10634,0.15028 -0.16015,0.22461 -2.48124,5.22319 -5.66292,13.36298 -6.05078,14.73242 0.8904,9.79449 10.42519,-18.36846 8.85351,-19.1543 -0.0194,-0.01 -0.0403,-0.0147 -0.0625,-0.0156 z" /><path
       style="fill:#000000"
       d="m 411.96549,686.3679 c 0.39789,-1.01332 1.19143,-1.66024 1.84101,-2.47221 0.78538,-0.98173 1.6359,-2.00351 2.57741,-2.84041 3.97614,-3.53435 -4.02846,8.13762 -4.94442,7.67963 -0.78592,-0.39295 0.22419,-2.1658 0.526,-2.36701 z"
       id="path225" /><path
       style="fill:#000000"
       d="m 374.85069,768.95153 c 1.04819,-0.82782 4.44532,-6.62231 4.01001,-7.05762 -0.034,-0.034 -1.82617,2.58214 -1.9248,2.72681 -0.61307,0.89917 -3.76987,4.8362 -2.08521,4.33081 z"
       id="path228" /><path
       style="fill:#000000"
       d="m 377.68443,764.99499 c 1.111,-0.93846 3.7367,-7.60411 1.1228,-3.42188 -0.66854,1.06967 -1.34683,2.18972 -1.1228,3.42188 z"
       id="path229" /><path
       style="fill:#000000"
       d="m 367.76172,729.77822 c -0.37028,0.6999 -3.37793,6.664 -1.51037,6.04147 1.26749,-0.42249 3.14718,-6.57249 2.72361,-6.78427 -0.36813,-0.18407 -0.94352,0.60794 -1.21324,0.7428 z"
       id="path247" /></g></svg>
