<?xml version="1.0" encoding="UTF-8" standalone="no"?>
<!-- Created with Inkscape (http://www.inkscape.org/) -->

<svg
   version="1.1"
   id="svg1"
   width="71.860359"
   height="63.345085"
   viewBox="0 0 71.860359 63.345085"
   xmlns="http://www.w3.org/2000/svg"
   xmlns:svg="http://www.w3.org/2000/svg">
  <defs
     id="defs1" />
  <g
     id="g1"
     transform="translate(-20.141502,-13.120285)">
    <path
       style="fill:#000000"
       d="m 27.339744,75.554487 c -0.366667,-0.366666 -0.666667,-1.871922 -0.666667,-3.345012 0,-2.664384 -2.64753,-5.988321 -4.769724,-5.988321 -2.507576,0 -2.304423,-2.369445 0.392239,-4.57482 3.709106,-3.033367 5.022733,-3.058899 3.057401,-0.05942 -1.458104,2.225348 -1.410578,2.440429 0.80076,3.623901 2.474502,1.324313 3.483029,3.700687 3.505669,8.260342 0.01314,2.645964 -0.919465,3.483547 -2.319678,2.083333 z m 7,0 c -1.242206,-1.242205 -0.675358,-5.11602 0.833333,-5.694959 1.051564,-0.403523 1.508763,0.08767 1.529313,1.643011 0.02726,2.062913 0.237796,1.989423 3,-1.047162 2.313082,-2.542849 2.970404,-4.203083 2.969411,-7.5 -0.0011,-3.740102 1.19927,-15.00697 2.608604,-24.484223 0.554783,-3.730707 2.865963,-4.344993 3.762386,-1 1.073326,4.005103 0.667253,12.39811 -0.841134,17.385165 -0.809281,2.675659 -1.962876,7.436394 -2.563544,10.57941 -1.420773,7.434246 -8.047775,13.369353 -11.298369,10.118758 z m 33,-1 c -0.366667,-0.366666 -0.666667,-3.516666 -0.666667,-7 0,-7.627162 0.05854,-7.617828 -7.816103,-1.246157 -5.66604,4.584607 -9.183897,5.76116 -9.183897,3.071569 0,-1.290781 8.037358,-8.525967 12.837189,-11.555967 4.57478,-2.887932 4.387312,-2.240893 6.126327,-21.144783 1.309841,-14.238575 3.830533,-25.120445 5.414539,-23.374662 0.207931,0.229167 -0.215409,5.366667 -0.940755,11.416667 -1.250747,10.432297 -1.886295,26.5 -1.048191,26.5 0.21401,0 3.469368,-1.8 7.23413,-4 18.485581,-10.802352 16.444341,1.66544 -3.806515,23.25 -4.176064,4.451097 -6.578585,5.654805 -8.150057,4.083333 z M 79.280784,59.93633 c 11.80479,-15.304965 11.834931,-16.227483 0.28239,-8.643022 -7.725831,5.072153 -7.725831,5.072153 -8.057964,11.502097 -0.415332,8.040634 -0.716968,8.151545 7.775574,-2.859075 z m -42.607707,1.475954 c 0,-0.444879 0.660688,-1.682379 1.468197,-2.75 1.498879,-1.981697 2.018042,-0.871823 0.924814,1.977083 -0.626983,1.633891 -2.393011,2.204299 -2.393011,0.772917 z"
       id="path1" />
  </g>
</svg>
